<!-- Made in Mondrian.io -->
<svg id="main" width="286" height="61" version="1.1" xmlns="http://www.w3.org/2000/svg" xmlns:mondrian="http://mondrian.io/xml" viewbox="0 0 286 61" enable-background="new 0 0 286 61" style="width: 286px; height: 61px; -webkit-transform: scale(1); display: block;">
<path d="M28.274449912347762,39.927806327910254 C27.825915141938136,38.567063660405665 27.603746383422507,36.848982590992456 27.603746383422507,34.53944481421555 C27.603746383422507,32.229066871059246 27.825915141938136,30.508465389788725 28.274449912347762,29.15024313414141 C29.526597627716242,25.25564603456147 32.84457935915143,23.127857908781642 37.188063058631485,23.127857908781642 C40.413987395040316,23.127857908781642 42.968648644383585,24.441552830096292 44.67212918270597,26.52453362427093 C44.8036397470293,26.704603029790132 44.848689021414835,26.975687434006012 44.626800085609794,27.156316921351166 L41.80492071608438,29.64732443913359 C41.579953817743494,29.82963425923758 41.35694559109598,29.783986848533928 41.17674823171098,29.557989860476678 C40.099761328779266,28.33614992967624 38.980523029444335,27.65535855637469 37.188063058631485,27.65535855637469 C35.2626934972231,27.65535855637469 33.78473941538189,28.606954249338663 33.15656701828943,30.50874538706123 C32.80064920104647,31.59728348669803 32.70971109686258,32.86449074364867 32.70971109686258,34.53972481148806 C32.70971109686258,36.21523896388089 32.80064920104647,37.52753363699014 33.15656701828943,38.614951485694114 C33.78473941538189,40.46969496450763 35.2626934972231,41.420730488364704 37.188063058631485,41.420730488364704 C38.980523029444335,41.420730488364704 40.099761328779266,40.74133936326851 41.17674823171098,39.52145984978037 C41.35694559109598,39.29238236803988 41.579953817743494,39.29238236803988 41.80492071608438,39.47413210631788 L44.626800085609794,41.96513962410031 C44.848689021414835,42.145489114172975 44.8036397470293,42.371766099502715 44.67212918270597,42.599443333037854 C42.968648644383585,44.637336711053834 40.413987395040316,45.949631471444064 37.188063058631485,45.949631471444064 C32.84457935915143,45.94879130506464 29.52687745042686,43.82016310018636 28.274449912347762,39.927806327910254" id="Shape"  fill="rgba(75, 90, 98, 1)" stroke="none" stroke-width="1">
</path>
<path d="M126.16050652744798,39.927806327910254 C125.71197149519554,38.567063660405665 125.48980308580362,36.848982590992456 125.48980308580362,34.53944481421555 C125.48980308580362,32.229066871059246 125.7122516670298,30.508465389788725 126.16050652744798,29.15024313414141 C127.41545203351782,25.25564603456147 130.7297958078721,23.127857908781642 135.07355985374872,23.127857908781642 C138.3000440101404,23.127857908781642 140.85610402391308,24.441552830096292 142.55734580598863,26.52453362427093 C142.69081495472432,26.704603029790132 142.7369839563572,26.975687434006012 142.510897505331,27.156316921351166 L139.6887388367806,29.64732443913359 C139.46461097016677,29.82963425923758 139.24188308991558,29.783986848533928 139.0625251113815,29.557989860476678 C137.98805565275484,28.33614992967624 136.8676982371394,27.65535855637469 135.07355985374872,27.65535855637469 C133.14930914677794,27.65535855637469 131.66995647506926,28.606954249338663 131.04374274967023,30.50874538706123 C130.68446732174266,31.59728348669803 130.59716630183016,32.86449074364867 130.59716630183016,34.53972481148806 C130.59716630183016,36.21523896388089 130.68446732174266,37.52753363699014 131.04374274967023,38.614951485694114 C131.66995647506926,40.46969496450763 133.14930914677794,41.420730488364704 135.07355985374872,41.420730488364704 C136.8676982371394,41.420730488364704 137.98805565275484,40.74133936326851 139.0625251113815,39.52145984978037 C139.24216238894044,39.29238236803988 139.46489114200116,39.29238236803988 139.6887388367806,39.47413210631788 L142.510897505331,41.96513962410031 C142.7369839563572,42.145489114172975 142.69081495472432,42.371766099502715 142.55734580598863,42.599443333037854 C140.85610402391308,44.637336711053834 138.3000440101404,45.949631471444064 135.07355985374872,45.949631471444064 C130.73007597970653,45.94879130506464 127.41573220535226,43.82016310018636 126.16050652744798,39.927806327910254" id="Shape"  fill="rgba(75, 90, 98, 1)" stroke="none" stroke-width="1">
</path>
<path d="M239.29618350903027,45.45198999734499 C239.02784609800563,45.45198999734499 238.84904759033083,45.27164050727233 238.84904759033083,44.99831577575261 L238.84904759033083,32.411376691163234 C238.84904759033083,29.60307718935437 237.45867347830327,27.65535855637469 234.7699839584887,27.65535855637469 C232.17251175460197,27.65535855637469 230.64950813653238,29.60307718935437 230.64950813653238,32.411376691163234 L230.64950813653238,44.99831577575261 C230.64950813653238,45.27192059182573 230.46931138811405,45.45198999734499 230.20237309064248,45.45198999734499 L226.0793792134144,45.45198999734499 C225.8113211014148,45.45198999734499 225.63084418116193,45.27164050727233 225.63084418116193,44.99831577575261 L225.63084418116193,32.411376691163234 C225.63084418116193,29.60307718935437 224.24270882538124,27.65535855637469 221.55793647439134,27.65535855637469 C218.95794621523302,27.65535855637469 217.43354348361018,29.60307718935437 217.43354348361018,32.411376691163234 L217.43354348361018,44.99831577575261 C217.43354348361018,45.27192059182573 217.25446567691057,45.45198999734499 216.9852886231923,45.45198999734499 L212.86397403135177,45.45198999734499 C212.59423750677396,45.45198999734499 212.41711741167728,45.27164050727233 212.41711741167728,44.99831577575261 L212.41711741167728,24.07833343809371 C212.41711741167728,23.806128870225894 212.59423750677396,23.624659216501325 212.86397403135177,23.624659216501325 L216.9852886231923,23.624659216501325 C217.25446567691057,23.624659216501325 217.43354348361018,23.806128870225894 217.43354348361018,24.07833343809371 L217.43354348361018,25.66311267634328 L217.47915214157413,25.66311267634328 C218.42015157865558,24.303770257044054 220.30131168293408,23.127857908781642 223.16824023956408,23.127857908781642 C225.72178219806497,23.127857908781642 227.78285975173688,24.16766801675062 229.08061656147396,26.02521190469398 L229.1262252194379,26.02521190469398 C230.78297728526815,24.2158359265925 232.93443338498372,23.127857908781642 236.02632857811167,23.127857908781642 C241.04191500735112,23.127857908781642 243.86687190300754,26.568780874050148 243.86687190300754,31.23322392831604 L243.86687190300754,44.9980357784801 C243.86687190300754,45.27164050727233 243.68667515458927,45.45171000007248 243.41693863001146,45.45171000007248 L239.29618350903027,45.45171000007248 L239.29618350903027,45.45198999734499z" id="Shape"  fill="rgba(75, 90, 98, 1)" stroke="none" stroke-width="1">
</path>
<path d="M250.0892771250811,53.60216334848455 C249.82149918491592,53.60216334848455 249.64270155005062,53.421253776585935 249.64270155005062,53.14792904506622 L249.64270155005062,49.526376592452536 C249.64270155005062,49.25557227279012 249.82149918491592,49.07242228630675 250.0892771250811,49.07242228630675 L250.8962479425673,49.07242228630675 C252.59860953917104,49.07242228630675 253.45202865731517,48.30565682530403 254.12273209895937,46.49292026896583 L254.75034493791154,44.636496631955396 L246.86419208224217,24.07777335626775 C246.77437300705796,23.80584887295339 246.954291329261,23.624379131947872 247.22514679555727,23.624379131947872 L251.65872904380828,23.624379131947872 C251.92650698397352,23.624379131947872 252.10670373239216,23.80584887295339 252.19484439499828,24.07777335626775 L257.0794797307735,38.34190683872782 L257.1676195205705,38.34190683872782 L261.827847690707,24.07777335626775 C261.9168271231976,23.80584887295339 262.09702474442537,23.624379131947872 262.3631233992032,23.624379131947872 L266.6181873116137,23.624379131947872 C266.8890427779105,23.624379131947872 267.0689602273038,23.80584887295339 266.97830238223514,24.07777335626775 L258.736231796604,46.81021225299228 C256.855911335019,51.97257677862978 255.06149277979412,53.60216334848455 251.47825212355568,53.60216334848455 L250.0892771250811,53.60216334848455 L250.0892771250811,53.60216334848455z" id="Shape"  fill="rgba(75, 90, 98, 1)" stroke="none" stroke-width="1">
</path>
<path d="M48.79456341451279,39.928646407008735 C48.30209857327916,38.387274252158925 48.07825096578076,36.93887733875628 48.07825096578076,34.53944481421555 C48.07825096578076,32.14365286518402 48.30209857327916,30.69413570084846 48.79456341451279,29.157524372440747 C50.00445990804,25.353382015169647 53.316565624395096,23.13429898070158 57.70565824368193,23.13429898070158 C62.04914203044289,23.13429898070158 65.36264677307008,25.353382015169647 66.57310291201854,29.157524372440747 C67.06360899427787,30.693855703575952 67.28913553803997,32.14365286518402 67.28913553803997,34.53944481421555 C67.28913553803997,36.93887733875628 67.06360899427787,38.387274252158925 66.57310291201854,39.928646407008735 C65.36264677307008,43.730548436976015 62.04914203044289,45.94879130506464 57.70565824368193,45.94879130506464 C53.316565624395096,45.94879130506464 50.00445990804,43.730548436976015 48.79456341451279,39.928646407008735 M61.7360350804624,38.57126440502177 C62.0950307729602,37.4401593010836 62.1840102054508,36.39726869943137 62.1840102054508,34.53972481148806 C62.1840102054508,32.68694174998679 62.0950307729602,31.69025864086418 61.7360350804624,30.51378621077579 C61.109261709642084,28.704410232674345 59.72084670571261,27.660679464642712 57.70565824368193,27.660679464642712 C55.6924285406255,27.660679464642712 54.25644585791491,28.704410232674345 53.63107151336674,30.51378621077579 C53.27459413798347,31.69025864086418 53.183656033799636,32.68694174998679 53.183656033799636,34.53972481148806 C53.183656033799636,36.39754878398485 53.27459413798347,37.4401593010836 53.63107151336674,38.57126440502177 C54.25644585791491,40.383440792253005 55.6924285406255,41.420730488364704 57.70565824368193,41.420730488364704 C59.72084670571261,41.42045049109222 61.109261709642084,40.38316079498053 61.7360350804624,38.57126440502177" id="Shape"  fill="rgba(75, 90, 98, 1)" stroke="none" stroke-width="1">
</path>
<path d="M154.5622951982267,23.127857908781642 C151.0218649728462,23.127857908781642 148.64908010643254,23.987878608503937 146.90082968003048,25.255926031833976 C146.72259151602466,25.393428520332762 146.67782162794495,25.617185181086175 146.8129691892587,25.84290208458999 L148.46748337165167,28.833511319221877 C148.60598950374037,29.060908555484485 148.87068904496516,29.106555966188132 149.09649532415682,28.92396614881164 C150.12759400825684,28.110433026172437 151.6041484528594,27.428521489218987 154.02506090531818,27.428521489218987 C157.5542990950833,27.428521489218987 158.7530025056243,28.500256784953255 158.8142815845063,30.85600222882164 L158.81512035439067,30.85544214699567 L158.81512035439067,30.884006756524315 C158.81624016891865,30.939735901938032 158.81707893880295,30.99546504735177 158.81707893880295,31.052874438243396 L158.81707893880295,38.117870180701935 C158.81707893880295,40.60719745300644 157.11499751403375,41.82875729925344 154.02506090531818,41.82875729925344 C151.6041484528594,41.82875729925344 150.3069511139815,40.92448934975194 150.3069511139815,39.113993120717595 C150.3069511139815,37.07497957904969 151.7406960005357,36.167911220418425 154.9652206997057,36.167911220418425 L155.94595391432327,36.169031384070315 C156.21373098167905,36.169031384070315 156.3944880737663,35.98840180944418 156.3944880737663,35.71899773798713 L156.3944880737663,32.815762839261794 C156.3944880737663,32.544958519599376 156.21373098167905,32.36432894497327 155.94595391432327,32.36432894497327 L155.73022072902785,32.36432894497327 L154.15964899577256,32.36404894770075 C148.829276854851,32.36404894770075 145.51129521069666,34.5400048960415 145.51129521069666,39.29238236803988 C145.51129521069666,43.86721075909538 148.829276854851,45.949351386890605 152.77011539924817,45.949351386890605 C155.81360370730619,45.949351386890605 157.83103031461715,44.908141030716266 158.86184882688272,43.41381662205648 L158.90605837129368,43.41381662205648 L158.90605837129368,44.998875857578575 C158.90605837129368,45.27248067365172 159.08681546338073,45.45255007917093 159.35431410452102,45.45255007917093 L163.11719291112783,45.45255007917093 C163.38580962117737,45.45255007917093 163.56544777154596,45.272200589098276 163.56544777154596,44.998875857578575 L163.56544777154596,30.735582541497884 C163.5657270705708,25.393428520332762 161.14677407533392,23.127857908781642 154.5622951982267,23.127857908781642" id="Shape"  fill="rgba(75, 90, 98, 1)" stroke="none" stroke-width="1">
</path>
<path d="M101.03976403767443,32.36292869676789 C100.92308337876614,32.36292869676789 100.84613579914648,32.44106155162467 100.84613579914648,32.557560578885806 L100.84613579914648,32.68722174725928 L100.84613579914648,33.06584369495904 L100.84613579914648,35.464996222227256 L100.84613579914648,35.78676886086133 L100.84613579914648,35.972719256474555 C100.84613579914648,36.089218283735626 100.92308337876614,36.167631135864916 101.03976403767443,36.167631135864916 L101.15196762049376,36.167631135864916 L112.13393318723969,36.167631135864916 C112.44787925622818,36.167631135864916 112.62779670562172,35.987281645792265 112.62779670562172,35.71815765888866 C112.62779670562172,32.18341937307464 112.40227059826427,30.68853479530793 111.91092513515409,29.149963136868898 C110.6999090016606,25.436835691013524 107.47538342968105,23.127577911509132 103.04012250700903,23.127577911509132 C98.7394496747916,23.127577911509132 95.42510546403251,25.345820779597787 94.21464932508407,29.149963136868898 C93.76919251721024,30.553552718666424 93.49749749550114,32.27499436631634 93.49749749550114,34.53916472966212 C93.49749749550114,36.80221492935591 93.81144373905154,38.477448997195275 94.26221700386513,39.88243891447915 C95.47071447112015,43.684900938991426 98.6944003131251,45.94879130506464 103.26424993721812,45.94879130506464 C107.25013749415797,45.94879130506464 110.29922138361889,44.409099395692756 112.13393318723969,42.235383774655865 C112.31133258136137,42.01078703480396 112.31133258136137,41.784790046746714 112.08804435744138,41.60220022937021 L109.44748155086243,39.24757503643468 C109.22167527167068,39.0661052954292 108.99866721958503,39.11343303889165 108.77342041125263,39.33746969691757 C107.69951129629486,40.51590254431821 106.13173866295503,41.42045049109222 103.71278470762775,41.42045049109222 C101.29550995040697,41.42045049109222 99.59174958937395,40.24453814282981 98.87515731793128,38.11759018342939 C98.7671508139284,37.81962141516277 98.67733191330599,37.506250178479924 98.6208104314709,37.16767473594331 L98.61997096333903,37.16795482049676 C98.45684200377309,36.24604398799424 98.36030770721975,35.34793702585925 98.36030770721975,34.030321531762894 C98.39500406499813,32.78859839065759 98.46663536223986,31.994668481050716 98.64291537823821,30.98734372995395 C98.64487404993156,30.973341422462155 98.6473922797652,30.96017928134978 98.64991059687979,30.947017052956443 C98.6515894458626,30.937495574634198 98.65382794026655,30.92853409085697 98.65522696653868,30.91873244070034 L98.65550678924932,30.91957260707976 C98.69859747922243,30.681533641562037 98.75651807461063,30.458897231741478 98.82954831084358,30.23598073736749 C99.41183205269965,28.469731845393312 101.02409466412745,27.428521489218987 103.08685071765832,27.428521489218987 C105.10371794139087,27.428521489218987 106.71318250027443,28.470011842665816 107.29546598028764,30.23598073736749 C107.47538342968105,30.782070118580954 107.5640835631467,31.3228385915264 107.5640835631467,32.09352462531084 C107.5640835631467,32.274714281762876 107.47538342968105,32.36348877859385 107.29546598028764,32.36348877859385 L101.40939246949002,32.36348877859385 L101.41051167305153,32.362648699495374 L101.03976403767443,32.362648699495374 L101.03976403767443,32.36292869676789z" id="Shape"  fill="rgba(75, 90, 98, 1)" stroke="none" stroke-width="1">
</path>
<path d="M89.33365150998488,14.661512911829446 L85.21877214224087,14.661512911829446 C84.94791650138252,14.661512911829446 84.76883843284003,14.841582317348639 84.76883843284003,15.110706391533203 L84.76883843284003,25.690277124947468 L84.76855861012939,25.690277124947468 L84.76855861012939,34.440028500848555 C84.76855861012939,34.46383245849695 84.76883843284003,34.48679616248507 84.76883843284003,34.51032003558006 C84.76883843284003,34.53412390594749 84.76855861012939,34.556807612663086 84.76855861012939,34.58005140120465 L84.76855861012939,35.74140144743018 L84.74673348607269,35.74140144743018 C84.69888598458104,36.989285575902 84.56317834144126,37.81065993138554 84.32366136039589,38.579105637866114 C83.74137770582084,40.38624128866377 82.35296270189144,41.380683983201614 80.29748168971277,41.380683983201614 C78.28453180936692,41.380683983201614 76.89891485798175,40.38624128866377 76.31439270900273,38.579105637866114 C76.0024050498647,37.58298269785043 75.86921572383956,36.499205424655685 75.86921572383956,34.51032003558006 C75.86921572383956,32.52087456467842 76.0024050498647,31.43429679507293 76.31439270900273,30.44209451511989 C76.88716282782157,28.669404463944836 78.22912953109338,27.668520784768045 80.17548474842656,27.629034274149923 L81.93212915789952,27.629034274149923 C82.01747106971388,27.608030812912226 82.07315317069818,27.54137994097087 82.07315317069818,27.44336387580925 L82.09553794017606,23.309327649787175 C82.09553794017606,23.204310430879623 82.02978265801444,23.133178817049664 81.93212915789952,23.12057675776324 L80.52944380669528,23.114695767669254 L78.8810857239359,23.11497585222272 L78.8810857239359,23.11609601587463 C75.27434057097247,23.15446227555988 72.63489705523604,24.914550180167534 71.52936954503562,28.358273554565844 C70.99213516484615,30.03350762240521 70.7691269381987,31.571799283571735 70.7691269381987,34.51032003558006 C70.7691269381987,37.448000621208905 70.99213516484615,38.985732200549506 71.52936954503562,40.657045608326214 C72.64692890810683,44.140255406061634 75.33170152093942,45.90258372525413 78.99888558640573,45.90258372525413 C81.90862509757909,45.90258372525413 83.69828701584774,44.81936653388531 84.72462845202446,43.325042037944584 L84.76883843284003,43.325042037944584 L84.76883843284003,44.953228446874924 C84.76883843284003,45.22655317839466 84.94791650138252,45.40606250208787 85.21877214224087,45.40606250208787 L89.33365150998488,45.40606250208787 C89.60198883372851,45.40606250208787 89.78190637040294,45.22627309384118 89.78190637040294,44.953228446874924 L89.78190637040294,15.110706391533203 C89.78190637040294,14.841302320076135 89.60198883372851,14.661512911829446 89.33365150998488,14.661512911829446" id="Shape"  fill="rgba(75, 90, 98, 1)" stroke="none" stroke-width="1">
</path>
<path d="M197.20107411213104,32.36292869676789 C197.0857925667758,32.36292869676789 197.00828534173493,32.44106155162467 197.00828534173493,32.557560578885806 L197.00828534173493,32.68722174725928 L197.00828534173493,33.06584369495904 L197.00828534173493,35.464996222227256 L197.00828534173493,35.78676886086133 L197.00828534173493,35.972719256474555 C197.00828534173493,36.089218283735626 197.0857925667758,36.167631135864916 197.20107411213104,36.167631135864916 L197.31439707307388,36.167631135864916 L208.29664246253043,36.167631135864916 C208.6100290606596,36.167631135864916 208.78966633821864,35.987281645792265 208.78966633821864,35.71815765888866 C208.78966633821864,32.18341937307464 208.56497987355493,30.68853479530793 208.07335423861025,29.149963136868898 C206.862058806092,25.436835691013524 203.6375332341124,23.127577911509132 199.20283204414264,23.127577911509132 C194.90187930193358,23.127577911509132 191.5872553557447,25.345820779597787 190.37679869311071,29.149963136868898 C189.93078258893937,30.553552718666424 189.65992712264304,32.27499436631634 189.65992712264304,34.53916472966212 C189.65992712264304,36.80221492935591 189.97387319163164,38.477448997195275 190.4246461073214,39.88243891447915 C191.6323045428494,43.684900938991426 194.85738958568817,45.94879130506464 199.426679738922,45.94879130506464 C203.41256659761456,45.94879130506464 206.46193065890955,44.409099395692756 208.29664246253043,42.235383774655865 C208.47460132751138,42.01078703480396 208.47460132751138,41.784790046746714 208.25075363273203,41.60220022937021 L205.60935118345944,39.24757503643468 C205.38466384598618,39.0661052954292 205.16109632304133,39.11343303889165 204.93612968654338,39.33746969691757 C203.86222057158554,40.51590254431821 202.2944479382458,41.42045049109222 199.87493459933998,41.42045049109222 C197.45709967301232,41.42045049109222 195.75473894921805,40.24453814282981 195.03702686324715,38.11759018342939 C194.9295805283513,37.81962141516277 194.83976145316703,37.506250178479924 194.78379952947208,37.16767473594331 L194.78268058775348,37.16795482049676 C194.61983092721246,36.24604398799424 194.5232964560973,35.34793702585925 194.5232964560973,34.030321531762894 C194.55687430856173,32.78859839065759 194.62850490755588,31.994668481050716 194.80506465898384,30.98734372995395 C194.8081430579245,30.973341422462155 194.81066111319612,30.96017928134978 194.81234039858367,30.947017052956443 C194.81373951213675,30.937495574634198 194.81541792471478,30.92853409085697 194.81765668096162,30.91873244070034 L194.81765668096162,30.91957260707976 C194.86130675451312,30.681533641562037 194.91894709078596,30.458897231741478 194.9916983771178,30.23598073736749 C195.57398185713095,28.469731845393312 197.18652437855027,27.428521489218987 199.24900017296596,27.428521489218987 C201.26642765308623,27.428521489218987 202.87589177556515,28.470011842665816 203.4587347264375,30.23598073736749 C203.6380927049717,30.782070118580954 203.72735230929663,31.3228385915264 203.72735230929663,32.09352462531084 C203.72735230929663,32.274714281762876 203.6380927049717,32.36348877859385 203.4587347264375,32.36348877859385 L197.57238121836755,32.36348877859385 L197.57238121836755,32.362648699495374 L197.20107411213104,32.362648699495374 L197.20107411213104,32.36292869676789z" id="Shape"  fill="rgba(75, 90, 98, 1)" stroke="none" stroke-width="1">
</path>
<path d="M185.70929565618366,14.661512911829446 L181.58770089250865,14.661512911829446 C181.31768506890603,14.661512911829446 181.13832709037197,14.842422483728056 181.13832709037197,15.11182655518512 L181.13832709037197,25.70623976247059 L181.13832709037197,34.4694333640375 L181.13832709037197,34.53916472966212 L181.13832709037197,34.60945626439357 L181.13832709037197,35.77276655336954 L181.1162223181665,35.77276655336954 C181.0672550894277,37.02289109642611 180.93154805725433,37.84482553373563 180.6917506425318,38.614111406595626 C180.1091869906843,40.4243275510765 178.71769480974748,41.42045049109222 176.65997495404122,41.42045049109222 C174.64534657383643,41.42045049109222 173.25637157536187,40.4243275510765 172.67128986824258,38.614111406595626 C172.35930238366655,37.61658821837455 172.22387465051827,36.53169069424692 172.22387465051827,34.538884732389576 C172.22387465051827,32.54719884690321 172.35902221183204,31.45866083454734 172.67128986824258,30.46533830366143 C173.244619196078,28.689847843356592 174.58854500744778,27.696805397024136 176.53741854189562,27.657598970959466 L178.29658083207858,27.65871913461138 C178.56547771396237,27.65871913461138 178.74511586433096,27.47780956271277 178.74511586433096,27.20812540670228 L178.74511586433096,23.579851884896154 C178.74511586433096,23.309327649787175 178.56547771396237,23.128978072433558 178.29658083207858,23.128978072433558 L178.08112781861774,23.128978072433558 L175.42209723682382,23.128137993335102 C175.40055193547755,23.128137993335102 175.38096521854396,23.127577911509132 175.35970008903223,23.127577911509132 C175.33955390123916,23.127577911509132 175.32136629785865,23.128137993335102 175.30149940909072,23.128137993335102 L175.24078067387728,23.128137993335102 L175.24078067387728,23.129258156987014 C171.63011809024607,23.167344419399747 168.98619758570166,24.930792902244104 167.87871149108886,28.37899701853104 C167.34035825646166,30.056751410946713 167.1170700325417,31.5970034021446 167.1170700325417,34.53916472966212 C167.1170700325417,37.48132605717961 167.34035825646166,39.02185804564998 167.87871149108886,40.69625203439084 C168.99794996498574,44.183382492188954 171.68719982846918,45.94879130506464 175.3594199171979,45.94879130506464 C178.27251747546066,45.94879130506464 180.06413780357974,44.86417386549049 181.0941166731517,43.36760904224593 L181.13748744767815,43.36760904224593 L181.13748744767815,44.997755693926635 C181.13748744767815,45.27192059182573 181.31712559804672,45.451429915518986 181.58686124981492,45.451429915518986 L185.70845601348992,45.451429915518986 C185.97707359634893,45.451429915518986 186.15699104574233,45.27164050727233 186.15699104574233,44.997755693926635 L186.15699104574233,15.11182655518512 C186.15755051660167,14.842142399174595 185.9779132390429,14.661512911829446 185.70929565618366,14.661512911829446" id="Shape"  fill="rgba(75, 90, 98, 1)" stroke="none" stroke-width="1">
</path>
<path d="M125.82417551441954,51.62644010052131 L125.82417551441954,55.75123493277457 C125.82417551441954,56.022039252437 126.00409296381308,56.202388742509676 126.2738294883907,56.202388742509676 L141.54919240959717,56.202388742509676 C141.82228663214033,56.202388742509676 142.0022040815339,56.02175916788356 142.0022040815339,55.75123493277457 L142.0022040815339,51.62644010052131 C142.0022040815339,51.35787619544365 141.822006460306,51.177806702643494 141.54919240959717,51.177806702643494 L126.2738294883907,51.177806702643494 C126.00409296381308,51.177806702643494 125.82417551441954,51.35787619544365 125.82417551441954,51.62644010052131" id="Shape"  fill="rgba(75, 90, 98, 1)" stroke="none" stroke-width="1">
</path>
<path d="M121.94573499062324,3.976924949906734 C121.93901959469216,3.9702038510387587 121.93482225403295,3.9615224299947536 121.92838702993636,3.955081376403812 C121.92726721540821,3.954521284976947 121.92670774454889,3.953961193550086 121.92614827368953,3.953961193550086 C121.84808157778927,3.876388502999733 121.73671720125887,3.8313011269903328 121.60380752338246,3.8313011269903328 L121.598771412839,3.8313011269903328 L18.632492442640952,3.8313011269903328 C18.59863548666089,3.8313011269903328 18.566457388391633,3.834661676773441 18.535118718104986,3.8402625930495273 C18.525885002440962,3.841662822140367 18.518330144487773,3.845023371923478 18.50881662007806,3.8469836926157455 C18.488390522293514,3.8520245172031204 18.46712499652634,3.8565052502763626 18.448377755579813,3.8640664872447146 C18.444740231412446,3.8651866704475615 18.44194213610051,3.867146991139827 18.439423850407046,3.868547220230672 C18.280212213280432,3.9340779404775876 18.18255867903869,4.0830623132643735 18.18255867903869,4.280494612367352 L18.18255867903869,4.282734978947611 L18.18255867903869,55.746754190885966 L18.18255867903869,55.74927460274321 C18.18255867903869,55.90666030154688 18.2435571619884,56.02988048528136 18.347086697258,56.10885341923666 C18.354641555211153,56.11585457298258 18.361636793927417,56.12313572400095 18.37198974719253,56.129016714094924 L18.37198974719253,56.129296798648355 C18.443061374574388,56.17522429390548 18.530921574700685,56.20014832792493 18.632492442640952,56.20014832792493 L121.59849124100452,56.20014832792493 L121.60352822435756,56.20014832792493 C121.75490480463957,56.20014832792493 121.87802068764437,56.141058691555386 121.95552791268531,56.041642378188385 C122.01680611875805,55.965750025197295 122.05234255563495,55.8677339600357 122.05234255563495,55.74927460274321 L122.05234255563495,55.746754190885966 L122.05234255563495,4.282734978947611 L122.05234255563495,4.280494612367352 C122.05234255563495,4.157554500094174 122.01260965090829,4.054217594743649 121.94573499062324,3.976924949906734 L121.94573499062324,3.976924949906734 M23.647519091173596,51.17612645716562 C23.615340989413117,51.17556637533965 23.584002320872113,51.17332596075485 23.555461748515835,51.168565221593774 C23.546507840724654,51.166604891562436 23.53727412767907,51.1629643160532 23.52832021988788,51.160723901468465 C23.507614316848873,51.15596316230731 23.486348785844854,51.151482420418716 23.467601545771135,51.1442012694003 C23.46424383034944,51.14280102119491 23.46200535340164,51.14056060661019 23.45892745196247,51.13944044295824 C23.30055524281847,51.074749901048236 23.203461327028137,50.92688568056683 23.202621902536794,50.73141371935046 L23.202621902536794,13.427911088121972 L23.202621902536794,9.3039564222481 C23.202621902536794,9.105964031718255 23.30055524281847,8.958099837421141 23.45892745196247,8.892289070762553 C23.462844786621105,8.891168889654443 23.465642882805852,8.88892852743823 23.468440978990614,8.887808337602035 C23.487188219064304,8.880527151671254 23.546507840724654,8.86540467179944 23.55574155377027,8.86316430958323 C23.58540137332853,8.858403526781633 23.617299661106497,8.855603074011372 23.648918134901944,8.855603074011372 L116.58514356801209,8.855603074011372 C116.61788090497335,8.855603074011372 116.64838035849722,8.858683576422703 116.67832034116175,8.86316430958323 C116.68783396419899,8.86540467179944 116.69622777270806,8.868765223851854 116.70490175305139,8.871285635709135 C116.72588758353815,8.875766368869659 116.7468734140249,8.880247102030173 116.76562048826482,8.887808337602035 C116.76981782892412,8.88892852743823 116.7717764133365,8.891168889654443 116.77513411130201,8.892289070762553 C116.93434590204308,8.957819796508167 117.03143984401767,9.105964031718255 117.03143984401767,9.3039564222481 L117.03143984401767,50.73141371935046 C117.03060020132398,50.92688568056683 116.93266661665565,51.074749901048236 116.77541428313639,51.13944044295824 C116.7717764133365,51.14056060661019 116.76981782892412,51.14280102119491 116.7659006600992,51.1442012694003 C116.74799235574359,51.151202335865264 116.72588758353815,51.15596316230731 116.70518192488585,51.160723901468465 C116.69622777270806,51.16324431332573 116.68839343505829,51.166604891562436 116.67832034116175,51.168565221593774 C116.64893982935664,51.173606045308304 116.61956019036079,51.17556637533965 116.5871021524245,51.17612645716562 L23.647519091173596,51.17612645716562 L23.647519091173596,51.17612645716562z" id="Shape"  fill="rgba(75, 90, 98, 1)" stroke="none" stroke-width="1">
</path>
</svg>
