<?xml version="1.0" encoding="utf-8"?>
<!-- Generator: Adobe Illustrator 15.1.0, SVG Export Plug-In . SVG Version: 6.00 Build 0)  -->
<!DOCTYPE svg PUBLIC "-//W3C//DTD SVG 1.1//EN" "http://www.w3.org/Graphics/SVG/1.1/DTD/svg11.dtd">
<svg version="1.1" id="Layer_1" xmlns="http://www.w3.org/2000/svg" xmlns:xlink="http://www.w3.org/1999/xlink" x="0px" y="0px"
	 width="75px" height="60px" viewBox="0 0 75 60" enable-background="new 0 0 75 60" xml:space="preserve">
<g>
	<path fill="#204156" d="M11.572,41.355c-0.514-1.56-0.769-3.527-0.769-6.174s0.255-4.619,0.769-6.174
		c1.436-4.462,5.24-6.9,10.221-6.9c3.699,0,6.628,1.505,8.582,3.892c0.151,0.206,0.203,0.517-0.052,0.724l-3.236,2.854
		c-0.258,0.209-0.514,0.157-0.72-0.102c-1.235-1.4-2.519-2.18-4.574-2.18c-2.208,0-3.902,1.09-4.623,3.269
		c-0.408,1.247-0.513,2.699-0.513,4.618c0,1.92,0.104,3.424,0.513,4.669c0.72,2.125,2.415,3.215,4.623,3.215
		c2.055,0,3.339-0.778,4.574-2.177c0.207-0.262,0.462-0.262,0.72-0.054l3.236,2.854c0.254,0.206,0.203,0.466,0.052,0.727
		c-1.953,2.334-4.882,3.838-8.582,3.838C16.812,48.253,13.008,45.814,11.572,41.355"/>
	<path fill="#204156" d="M56.05,54.758v4.726c0,0.31,0.206,0.517,0.515,0.517H74.08c0.313,0,0.52-0.207,0.52-0.517v-4.726
		c0-0.309-0.206-0.514-0.52-0.514H56.564C56.256,54.244,56.05,54.449,56.05,54.758"/>
	<path fill="#204156" d="M51.603,0.167c-0.007-0.008-0.013-0.018-0.021-0.025c0-0.001-0.002-0.001-0.002-0.001
		C51.49,0.052,51.363,0,51.211,0h-0.006H0.516C0.477,0,0.44,0.004,0.404,0.01c-0.011,0.001-0.019,0.006-0.03,0.008
		c-0.023,0.006-0.048,0.011-0.069,0.02c-0.004,0.001-0.007,0.003-0.01,0.005C0.112,0.118,0,0.289,0,0.515v0.002v58.961v0.002
		c0,0.181,0.07,0.322,0.188,0.412c0.009,0.008,0.017,0.017,0.029,0.023l0,0c0.082,0.053,0.182,0.082,0.299,0.082h50.688h0.007
		c0.173,0,0.314-0.068,0.402-0.182c0.07-0.088,0.111-0.199,0.111-0.336v-0.002V0.517V0.515C51.725,0.374,51.68,0.255,51.603,0.167
		 M6.267,54.242c-0.037-0.001-0.073-0.004-0.106-0.01C6.15,54.23,6.14,54.227,6.13,54.225c-0.024-0.006-0.048-0.012-0.07-0.02
		c-0.004-0.002-0.006-0.004-0.01-0.006c-0.182-0.074-0.293-0.243-0.294-0.467V10.995V6.27c0-0.227,0.112-0.396,0.294-0.472
		c0.004-0.001,0.007-0.004,0.011-0.005c0.021-0.008,0.089-0.026,0.1-0.028c0.034-0.005,0.07-0.008,0.107-0.008h39.188
		c0.037,0,0.073,0.004,0.106,0.008c0.011,0.002,0.021,0.007,0.031,0.01c0.023,0.005,0.047,0.01,0.069,0.019
		c0.005,0.001,0.007,0.004,0.011,0.005c0.182,0.075,0.294,0.245,0.294,0.472v47.462c-0.001,0.224-0.114,0.393-0.294,0.467
		c-0.004,0.002-0.006,0.004-0.011,0.006c-0.021,0.008-0.046,0.014-0.069,0.02c-0.011,0.002-0.02,0.006-0.031,0.008
		c-0.033,0.006-0.067,0.009-0.104,0.01H6.267z"/>
</g>
</svg>
