<?xml version="1.0" encoding="UTF-8" standalone="no"?>
<svg width="286px" height="61px" viewBox="0 0 286 61" version="1.1" xmlns="http://www.w3.org/2000/svg" xmlns:xlink="http://www.w3.org/1999/xlink" xmlns:sketch="http://www.bohemiancoding.com/sketch/ns">
    <title>Untitled 8</title>
    <description>Created with Sketch (http://www.bohemiancoding.com/sketch)</description>
    <defs></defs>
    <g id="Page-1" stroke="none" stroke-width="1" fill="none" fill-rule="evenodd" sketch:type="MSPage">
        <g id="logo--white" sketch:type="MSLayerGroup" fill="#FFFFFF">
            <g id="Group" sketch:type="MSShapeGroup">
                <path d="M11.6154331,41.3720856 C11.1015354,39.8130481 10.846991,37.8445989 10.846991,35.1985027 C10.846991,32.5514439 11.1015354,30.580107 11.6154331,29.0239572 C13.0500506,24.5618182 16.8515467,22.1239572 21.8279865,22.1239572 C25.5240101,22.1239572 28.4509505,23.6290909 30.4026715,26.015615 C30.5533465,26.2219251 30.6049606,26.5325134 30.3507368,26.7394652 L27.1176378,29.5934759 C26.8598875,29.8023529 26.6043813,29.7500535 26.3979246,29.491123 C25.1639933,28.0912299 23.8816535,27.3112299 21.8279865,27.3112299 C19.6220416,27.3112299 17.928712,28.4014973 17.2089989,30.5804278 C16.8012148,31.8275936 16.6970247,33.2794652 16.6970247,35.1988235 C16.6970247,37.1185027 16.8012148,38.6220321 17.2089989,39.8679144 C17.928712,41.9929412 19.6220416,43.0825668 21.8279865,43.0825668 C23.8816535,43.0825668 25.1639933,42.3041711 26.3979246,40.9065241 C26.6043813,40.6440642 26.8598875,40.6440642 27.1176378,40.8522995 L30.3507368,43.7063102 C30.6049606,43.9129412 30.5533465,44.1721925 30.4026715,44.4330481 C28.4509505,46.7679144 25.5240101,48.2714439 21.8279865,48.2714439 C16.8515467,48.2704813 13.0503712,45.8316578 11.6154331,41.3720856" id="Shape"></path>
                <path d="M123.765979,41.3720856 C123.252081,39.8130481 122.997537,37.8445989 122.997537,35.1985027 C122.997537,32.5514439 123.252402,30.580107 123.765979,29.0239572 C125.203802,24.5618182 129.00113,22.1239572 133.977891,22.1239572 C137.674556,22.1239572 140.603099,23.6290909 142.552255,26.015615 C142.705174,26.2219251 142.758071,26.5325134 142.499038,26.7394652 L139.265619,29.5934759 C139.00883,29.8023529 138.753645,29.7500535 138.54815,29.491123 C137.317103,28.0912299 136.033481,27.3112299 133.977891,27.3112299 C131.773228,27.3112299 130.078296,28.4014973 129.360827,30.5804278 C128.949196,31.8275936 128.849173,33.2794652 128.849173,35.1988235 C128.849173,37.1185027 128.949196,38.6220321 129.360827,39.8679144 C130.078296,41.9929412 131.773228,43.0825668 133.977891,43.0825668 C136.033481,43.0825668 137.317103,42.3041711 138.54815,40.9065241 C138.753965,40.6440642 139.009151,40.6440642 139.265619,40.8522995 L142.499038,43.7063102 C142.758071,43.9129412 142.705174,44.1721925 142.552255,44.4330481 C140.603099,46.7679144 137.674556,48.2714439 133.977891,48.2714439 C129.001451,48.2704813 125.204123,45.8316578 123.765979,41.3720856" id="Shape"></path>
                <path d="M253.388403,47.7012834 C253.080962,47.7012834 252.876108,47.4946524 252.876108,47.1814973 L252.876108,32.7603209 C252.876108,29.5427807 251.283121,27.3112299 248.202621,27.3112299 C245.226631,27.3112299 243.481687,29.5427807 243.481687,32.7603209 L243.481687,47.1814973 C243.481687,47.4949733 243.275231,47.7012834 242.969393,47.7012834 L238.245574,47.7012834 C237.938453,47.7012834 237.731676,47.4946524 237.731676,47.1814973 L237.731676,32.7603209 C237.731676,29.5427807 236.141254,27.3112299 233.065242,27.3112299 C230.086367,27.3112299 228.33982,29.5427807 228.33982,32.7603209 L228.33982,47.1814973 C228.33982,47.4949733 228.134646,47.7012834 227.826243,47.7012834 L223.104348,47.7012834 C222.795304,47.7012834 222.592373,47.4946524 222.592373,47.1814973 L222.592373,23.2129412 C222.592373,22.9010695 222.795304,22.6931551 223.104348,22.6931551 L227.826243,22.6931551 C228.134646,22.6931551 228.33982,22.9010695 228.33982,23.2129412 L228.33982,25.0286631 L228.392075,25.0286631 C229.470202,23.4712299 231.625495,22.1239572 234.910208,22.1239572 C237.835866,22.1239572 240.197295,23.3152941 241.684168,25.4435294 L241.736423,25.4435294 C243.634606,23.3704813 246.099584,22.1239572 249.642047,22.1239572 C255.388532,22.1239572 258.625157,26.0663102 258.625157,31.4104813 L258.625157,47.1811765 C258.625157,47.4946524 258.418701,47.7009626 258.109657,47.7009626 L253.388403,47.7009626 L253.388403,47.7012834 Z" id="Shape"></path>
                <path d="M265.754325,57.0391444 C265.447525,57.0391444 265.242672,56.8318717 265.242672,56.5187166 L265.242672,52.3694118 C265.242672,52.0591444 265.447525,51.8493048 265.754325,51.8493048 L266.678892,51.8493048 C268.629331,51.8493048 269.607115,50.9708021 270.375557,48.8939037 L271.094629,46.7669519 L262.059263,23.2122995 C261.956355,22.9007487 262.162492,22.6928342 262.472818,22.6928342 L267.552486,22.6928342 C267.859286,22.6928342 268.065742,22.9007487 268.166727,23.2122995 L273.763178,39.5550802 L273.864162,39.5550802 L279.203504,23.2122995 C279.30545,22.9007487 279.511907,22.6928342 279.816783,22.6928342 L284.691918,22.6928342 C285.002244,22.6928342 285.20838,22.9007487 285.104511,23.2122995 L275.661361,49.2574332 C273.50703,55.1720856 271.451119,57.0391444 267.345709,57.0391444 L265.754325,57.0391444 L265.754325,57.0391444 Z" id="Shape"></path>
                <path d="M35.1258493,41.3730481 C34.5616198,39.6070588 34.3051519,37.9475936 34.3051519,35.1985027 C34.3051519,32.4535829 34.5616198,30.7928342 35.1258493,29.0322995 C36.5120585,24.6737968 40.3068223,22.1313369 45.3355174,22.1313369 C50.3119573,22.1313369 54.108324,24.6737968 55.4951744,29.0322995 C56.0571597,30.7925134 56.3155512,32.4535829 56.3155512,35.1985027 C56.3155512,37.9475936 56.0571597,39.6070588 55.4951744,41.3730481 C54.108324,45.728984 50.3119573,48.2704813 45.3355174,48.2704813 C40.3068223,48.2704813 36.5120585,45.728984 35.1258493,41.3730481 M49.9532227,39.817861 C50.3645332,38.5219251 50.4664792,37.3270588 50.4664792,35.1988235 C50.4664792,33.0760428 50.3645332,31.9341176 49.9532227,30.5862032 C49.2351125,28.5131551 47.6443701,27.3173262 45.3355174,27.3173262 C43.0289089,27.3173262 41.383667,28.5131551 40.6671597,30.5862032 C40.2587345,31.9341176 40.1545444,33.0760428 40.1545444,35.1988235 C40.1545444,37.3273797 40.2587345,38.5219251 40.6671597,39.817861 C41.383667,41.8941176 43.0289089,43.0825668 45.3355174,43.0825668 C47.6443701,43.082246 49.2351125,41.8937968 49.9532227,39.817861" id="Shape"></path>
                <path d="M156.306631,22.1239572 C152.25027,22.1239572 149.53171,23.1093048 147.528695,24.562139 C147.324483,24.7196791 147.273189,24.9760428 147.428031,25.2346524 L149.32365,28.6610695 C149.48234,28.9216043 149.785613,28.9739037 150.044325,28.7647059 C151.225681,27.8326203 152.917407,27.0513369 155.691108,27.0513369 C159.734646,27.0513369 161.108031,28.2792513 161.17824,30.9782888 L161.179201,30.9776471 L161.179201,31.0103743 C161.180484,31.0742246 161.181445,31.1380749 161.181445,31.2038503 L161.181445,39.2983957 C161.181445,42.1504813 159.231327,43.5500535 155.691108,43.5500535 C152.917407,43.5500535 151.431175,42.5140107 151.431175,40.4396791 C151.431175,38.1035294 153.073853,37.0642781 156.768273,37.0642781 L157.891924,37.0655615 C158.198723,37.0655615 158.405821,36.8586096 158.405821,36.5499465 L158.405821,33.2236364 C158.405821,32.913369 158.198723,32.7064171 157.891924,32.7064171 L157.644753,32.7064171 L155.845309,32.7060963 C149.738166,32.7060963 145.93667,35.1991444 145.93667,40.6440642 C145.93667,45.8855615 149.738166,48.271123 154.253285,48.271123 C157.740287,48.271123 160.051704,47.0781818 161.232739,45.3660963 L161.283391,45.3660963 L161.283391,47.182139 C161.283391,47.495615 161.490489,47.7019251 161.796969,47.7019251 L166.108195,47.7019251 C166.415956,47.7019251 166.621772,47.4952941 166.621772,47.182139 L166.621772,30.8403209 C166.622092,24.7196791 163.850636,22.1239572 156.306631,22.1239572" id="Shape"></path>
                <path d="M94.9845051,32.7048128 C94.8508211,32.7048128 94.7626603,32.7943316 94.7626603,32.9278075 L94.7626603,33.0763636 L94.7626603,33.5101604 L94.7626603,36.2589305 L94.7626603,36.6275936 L94.7626603,36.8406417 C94.7626603,36.9741176 94.8508211,37.0639572 94.9845051,37.0639572 L95.1130596,37.0639572 L107.695377,37.0639572 C108.055073,37.0639572 108.261209,36.8573262 108.261209,36.548984 C108.261209,32.4991444 108.002818,30.7864171 107.439871,29.0236364 C106.052379,24.7694118 102.357958,22.1236364 97.2763667,22.1236364 C92.3489764,22.1236364 88.5516479,24.6651337 87.1647975,29.0236364 C86.6544263,30.6317647 86.3431384,32.6040642 86.3431384,35.1981818 C86.3431384,37.791016 86.7028346,39.7103743 87.219297,41.320107 C88.6039033,45.6766845 92.2973622,48.2704813 97.5331552,48.2704813 C102.099888,48.2704813 105.593301,46.5064171 107.695377,44.0159358 C107.898628,43.7586096 107.898628,43.4996791 107.642801,43.2904813 L104.617441,40.5927273 C104.358729,40.3848128 104.103223,40.4390374 103.845152,40.6957219 C102.614747,42.0458824 100.81851,43.082246 98.0470529,43.082246 C95.2775197,43.082246 93.3254781,41.7349733 92.5044601,39.2980749 C92.3807143,38.9566845 92.2778065,38.5976471 92.2130484,38.2097326 L92.2120866,38.2100535 C92.0251856,37.1537968 91.9145838,36.1248128 91.9145838,34.6151872 C91.9543363,33.1925134 92.0364061,32.2828877 92.2383746,31.1287701 C92.2406187,31.1127273 92.2435039,31.0976471 92.2463892,31.0825668 C92.2483127,31.0716578 92.2508774,31.0613904 92.2524803,31.0501604 L92.2528009,31.051123 C92.302171,30.7783957 92.3685321,30.5233155 92.4522047,30.2679144 C93.119342,28.2442781 94.9665523,27.0513369 97.3299044,27.0513369 C99.6406805,27.0513369 101.484685,28.2445989 102.151822,30.2679144 C102.357958,30.8935829 102.459584,31.5131551 102.459584,32.3961497 C102.459584,32.6037433 102.357958,32.7054545 102.151822,32.7054545 L95.4079978,32.7054545 L95.4092801,32.704492 L94.9845051,32.704492 L94.9845051,32.7048128 Z" id="Shape"></path>
                <path d="M81.5725141,12.4238503 L76.8579921,12.4238503 C76.5476659,12.4238503 76.3424916,12.6301604 76.3424916,12.9385027 L76.3424916,25.0597861 L76.342171,25.0597861 L76.342171,35.0845989 C76.342171,35.1118717 76.3424916,35.1381818 76.3424916,35.1651337 C76.3424916,35.1924064 76.342171,35.2183957 76.342171,35.2450267 L76.342171,36.575615 L76.3171654,36.575615 C76.2623453,38.0053476 76.1068616,38.9464171 75.8324409,39.8268449 C75.1653037,41.8973262 73.5745613,43.0366845 71.2195444,43.0366845 C68.9132565,43.0366845 67.3257199,41.8973262 66.656018,39.8268449 C66.2985658,38.6855615 66.1459674,37.4438503 66.1459674,35.1651337 C66.1459674,32.8857754 66.2985658,31.6408556 66.656018,30.5040642 C67.3122553,28.4730481 68.8497807,27.3263102 71.0797694,27.2810695 L73.0924016,27.2810695 C73.19018,27.2570053 73.2539764,27.1806417 73.2539764,27.0683422 L73.2796232,22.3318717 C73.2796232,22.2115508 73.2042857,22.1300535 73.0924016,22.115615 L71.4853093,22.108877 L69.5967435,22.1091979 L69.5967435,22.1104813 C65.4644038,22.1544385 62.4403262,24.171016 61.1736952,28.1165775 C60.5581721,30.0359358 60.3026659,31.7983957 60.3026659,35.1651337 C60.3026659,38.5309091 60.5581721,40.2927273 61.1736952,42.2075936 C62.4541114,46.1983957 65.5301237,48.2175401 69.7317098,48.2175401 C73.0654724,48.2175401 75.1159336,46.9764706 76.2918391,45.264385 L76.3424916,45.264385 L76.3424916,47.1298396 C76.3424916,47.4429947 76.5476659,47.6486631 76.8579921,47.6486631 L81.5725141,47.6486631 C81.879955,47.6486631 82.0860911,47.4426738 82.0860911,47.1298396 L82.0860911,12.9385027 C82.0860911,12.6298396 81.879955,12.4238503 81.5725141,12.4238503" id="Shape"></path>
                <path d="M205.158965,32.7048128 C205.026884,32.7048128 204.938082,32.7943316 204.938082,32.9278075 L204.938082,33.0763636 L204.938082,33.5101604 L204.938082,36.2589305 L204.938082,36.6275936 L204.938082,36.8406417 C204.938082,36.9741176 205.026884,37.0639572 205.158965,37.0639572 L205.288802,37.0639572 L217.87144,37.0639572 C218.230495,37.0639572 218.43631,36.8573262 218.43631,36.548984 C218.43631,32.4991444 218.178881,30.7864171 217.615613,29.0236364 C216.227801,24.7694118 212.53338,22.1236364 207.45243,22.1236364 C202.524719,22.1236364 198.72707,24.6651337 197.340219,29.0236364 C196.829207,30.6317647 196.518881,32.6040642 196.518881,35.1981818 C196.518881,37.791016 196.878577,39.7103743 197.395039,41.320107 C198.778684,45.6766845 202.473746,48.2704813 207.708898,48.2704813 C212.27563,48.2704813 215.769364,46.5064171 217.87144,44.0159358 C218.075332,43.7586096 218.075332,43.4996791 217.818864,43.2904813 L214.792542,40.5927273 C214.535112,40.3848128 214.278965,40.4390374 214.021215,40.6957219 C212.79081,42.0458824 210.994573,43.082246 208.222475,43.082246 C205.4523,43.082246 203.501862,41.7349733 202.679561,39.2980749 C202.556457,38.9566845 202.453549,38.5976471 202.389432,38.2097326 L202.38815,38.2100535 C202.201569,37.1537968 202.090967,36.1248128 202.090967,34.6151872 C202.129438,33.1925134 202.211507,32.2828877 202.413796,31.1287701 C202.417323,31.1127273 202.420208,31.0976471 202.422132,31.0825668 C202.423735,31.0716578 202.425658,31.0613904 202.428223,31.0501604 L202.428223,31.051123 C202.478234,30.7783957 202.544274,30.5233155 202.627627,30.2679144 C203.294764,28.2442781 205.142295,27.0513369 207.505326,27.0513369 C209.816744,27.0513369 211.660748,28.2445989 212.328526,30.2679144 C212.534021,30.8935829 212.636288,31.5131551 212.636288,32.3961497 C212.636288,32.6037433 212.534021,32.7054545 212.328526,32.7054545 L205.584381,32.7054545 L205.584381,32.704492 L205.158965,32.704492 L205.158965,32.7048128 Z" id="Shape"></path>
                <path d="M191.992542,12.4238503 L187.270326,12.4238503 C186.960962,12.4238503 186.755467,12.631123 186.755467,12.9397861 L186.755467,25.0780749 L186.755467,35.1182888 L186.755467,35.1981818 L186.755467,35.2787166 L186.755467,36.6115508 L186.730141,36.6115508 C186.674038,38.0438503 186.518555,38.9855615 186.243813,39.8669519 C185.576355,41.9409626 183.982087,43.082246 181.624505,43.082246 C179.316294,43.082246 177.72491,41.9409626 177.054567,39.8669519 C176.697115,38.7240642 176.541952,37.4810695 176.541952,35.197861 C176.541952,32.9159358 176.696794,31.6687701 177.054567,30.5306952 C177.711445,28.4964706 179.251215,27.3587166 181.484089,27.3137968 L183.499606,27.3150802 C183.807688,27.3150802 184.013504,27.1078075 184.013504,26.7988235 L184.013504,22.6418182 C184.013504,22.3318717 183.807688,22.1252406 183.499606,22.1252406 L183.252756,22.1252406 L180.206237,22.1242781 C180.181552,22.1242781 180.159111,22.1236364 180.134747,22.1236364 C180.111665,22.1236364 180.090827,22.1242781 180.068065,22.1242781 L179.998498,22.1242781 L179.998498,22.1255615 C175.86167,22.1691979 172.832463,24.1896257 171.563588,28.1403209 C170.946783,30.0625668 170.690956,31.8272727 170.690956,35.1981818 C170.690956,38.5690909 170.946783,40.3341176 171.563588,42.2525134 C172.845928,46.2478075 175.92707,48.2704813 180.134426,48.2704813 C183.472036,48.2704813 185.524741,47.0278075 186.704814,45.3131551 L186.754505,45.3131551 L186.754505,47.1808556 C186.754505,47.4949733 186.960321,47.7006417 187.269364,47.7006417 L191.99158,47.7006417 C192.299342,47.7006417 192.505478,47.4946524 192.505478,47.1808556 L192.505478,12.9397861 C192.506119,12.6308021 192.300304,12.4238503 191.992542,12.4238503" id="Shape"></path>
                <path d="M123.380636,54.775508 L123.380636,59.5013904 C123.380636,59.8116578 123.586772,60.0182888 123.895816,60.0182888 L141.397188,60.0182888 C141.710079,60.0182888 141.916215,59.8113369 141.916215,59.5013904 L141.916215,54.775508 C141.916215,54.4678075 141.709758,54.2614973 141.397188,54.2614973 L123.895816,54.2614973 C123.586772,54.2614973 123.380636,54.4678075 123.380636,54.775508" id="Shape"></path>
                <path d="M118.937008,0.182245989 C118.929314,0.174545455 118.924505,0.16459893 118.917132,0.157219251 C118.915849,0.15657754 118.915208,0.155935829 118.914567,0.155935829 C118.825124,0.0670588235 118.697531,0.0154010695 118.545253,0.0154010695 L118.539483,0.0154010695 L0.568397075,0.0154010695 C0.529606299,0.0154010695 0.492739033,0.0192513369 0.456833521,0.0256684492 C0.446254218,0.0272727273 0.437598425,0.0311229947 0.426698538,0.033368984 C0.403295838,0.039144385 0.378931384,0.0442780749 0.357452193,0.0529411765 C0.353284589,0.0542245989 0.35007874,0.0564705882 0.347193476,0.0580748663 C0.164780652,0.13315508 0.0528965129,0.303850267 0.0528965129,0.530053476 L0.0528965129,0.532620321 L0.0528965129,59.4962567 L0.0528965129,59.4991444 C0.0528965129,59.6794652 0.122784027,59.8206417 0.24140045,59.911123 C0.250056243,59.9191444 0.258070866,59.9274866 0.269932508,59.9342246 L0.269932508,59.9345455 C0.35136108,59.9871658 0.452024747,60.0157219 0.568397075,60.0157219 L118.539162,60.0157219 L118.544933,60.0157219 C118.718369,60.0157219 118.859426,59.9480214 118.948228,59.8341176 C119.018436,59.7471658 119.059151,59.6348663 119.059151,59.4991444 L119.059151,59.4962567 L119.059151,0.532620321 L119.059151,0.530053476 C119.059151,0.389197861 119.013628,0.270802139 118.937008,0.182245989 L118.937008,0.182245989 Z M6.31424072,54.2595722 C6.27737345,54.2589305 6.24146794,54.2563636 6.20876828,54.2509091 C6.19850956,54.2486631 6.18793026,54.244492 6.17767154,54.2419251 C6.15394826,54.2364706 6.1295838,54.2313369 6.10810461,54.2229947 C6.10425759,54.2213904 6.10169291,54.2188235 6.09816648,54.2175401 C5.91671541,54.1434225 5.80547244,53.9740107 5.80451069,53.7500535 L5.80451069,11.0104813 L5.80451069,6.2855615 C5.80451069,6.05871658 5.91671541,5.88930481 6.09816648,5.81390374 C6.10265467,5.81262032 6.10586052,5.81005348 6.10906637,5.80877005 C6.13054556,5.80042781 6.19850956,5.7831016 6.20908886,5.78053476 C6.24307087,5.77508021 6.27961755,5.77187166 6.31584364,5.77187166 L112.795242,5.77187166 C112.83275,5.77187166 112.867694,5.77540107 112.901997,5.78053476 C112.912897,5.7831016 112.922514,5.78695187 112.932452,5.78983957 C112.956496,5.79497326 112.98054,5.80010695 113.002019,5.80877005 C113.006828,5.81005348 113.009072,5.81262032 113.012919,5.81390374 C113.195332,5.88898396 113.306575,6.05871658 113.306575,6.2855615 L113.306575,53.7500535 C113.305613,53.9740107 113.193408,54.1434225 113.01324,54.2175401 C113.009072,54.2188235 113.006828,54.2213904 113.00234,54.2229947 C112.981822,54.231016 112.956496,54.2364706 112.932773,54.2419251 C112.922514,54.2448128 112.913538,54.2486631 112.901997,54.2509091 C112.868335,54.2566845 112.834674,54.2589305 112.797486,54.2595722 L6.31424072,54.2595722 L6.31424072,54.2595722 Z" id="Shape"></path>
            </g>
        </g>
    </g>
</svg>