<?xml version="1.0" encoding="utf-8"?>
<!DOCTYPE svg PUBLIC "-//W3C//DTD SVG 1.1//EN" "http://www.w3.org/Graphics/SVG/1.1/DTD/svg11.dtd">
<svg version="1.1" id="GRAPHICS" xmlns="http://www.w3.org/2000/svg" xmlns:xlink="http://www.w3.org/1999/xlink" x="0px" y="0px"
	 viewBox="0 0 120 120" enable-background="new 0 0 120 120" xml:space="preserve">
<circle fill="#204056" cx="60" cy="60" r="59.5"/>
<g>
	<defs>
		<circle id="SVGID_1_" cx="60" cy="60" r="60"/>
	</defs>
	<clipPath id="SVGID_2_">
		<use xlink:href="#SVGID_1_"  overflow="visible"/>
	</clipPath>
	<g clip-path="url(#SVGID_2_)">
		<rect x="19" y="40" fill="#FFFFFF" width="82" height="94"/>
		<path fill="#BCBEC0" d="M99,34H21c-1.1,0-2,0.9-2,2v4h82v-4C101,34.9,100.1,34,99,34z"/>
		<circle fill="#FFFFFF" cx="22" cy="37" r="1"/>
		<circle fill="#FFFFFF" cx="26" cy="37" r="1"/>
		<circle fill="#FFFFFF" cx="30" cy="37" r="1"/>
		<rect x="19" y="46" fill="#E6E7E8" width="82" height="32.3"/>
		<rect x="23" y="88.3" fill="#BCBEC0" width="22" height="16"/>
		<rect x="49" y="88.3" fill="#BCBEC0" width="22" height="16"/>
		<rect x="75" y="88.3" fill="#BCBEC0" width="22" height="16"/>
		<rect x="23" y="108.3" fill="#BCBEC0" width="22" height="16"/>
		<rect x="49" y="108.3" fill="#BCBEC0" width="22" height="16"/>
		<rect x="75" y="108.3" fill="#BCBEC0" width="22" height="16"/>
		<rect x="23" y="82.3" fill="#BCBEC0" width="22" height="2"/>
		<rect x="49" y="82.3" fill="#BCBEC0" width="22" height="2"/>
		<rect x="75" y="82.3" fill="#BCBEC0" width="22" height="2"/>
	</g>
</g>
</svg>
