<?xml version="1.0" encoding="utf-8"?>
<!-- Generator: Adobe Illustrator 16.0.4, SVG Export Plug-In . SVG Version: 6.00 Build 0)  -->
<!DOCTYPE svg PUBLIC "-//W3C//DTD SVG 1.1//EN" "http://www.w3.org/Graphics/SVG/1.1/DTD/svg11.dtd">
<svg version="1.1" id="Layer_1" xmlns="http://www.w3.org/2000/svg" xmlns:xlink="http://www.w3.org/1999/xlink" x="0px" y="0px"
   width="64.8px" height="64.8px" viewBox="0 0 64.8 64.8" enable-background="new 0 0 64.8 64.8" xml:space="preserve">
<g>
  <path fill="#204156" d="M27.284,2.714c-4.513,0.766-8.683,2.538-12.271,5.08l12.271,12.271V2.714z"/>
  <path fill="#204156" d="M37.395,2.714v17.352L49.666,7.794C46.078,5.253,41.908,3.479,37.395,2.714z"/>
  <path fill="#204156" d="M61.912,27.232c-0.766-4.513-2.537-8.684-5.08-12.271l-12.27,12.271H61.912z"/>
  <path fill="#204156" d="M7.846,14.962c-2.542,3.587-4.314,7.758-5.08,12.271h17.351L7.846,14.962z"/>
  <path fill="#204156" d="M56.832,49.614c2.543-3.588,4.314-7.758,5.08-12.271h-17.35L56.832,49.614z"/>
  <path fill="#204156" d="M37.395,61.861c4.514-0.766,8.684-2.538,12.271-5.08L37.395,44.511V61.861z"/>
  <path fill="#204156" d="M2.766,37.343c0.766,4.514,2.538,8.684,5.08,12.271l12.271-12.271H2.766z"/>
  <path fill="#204156" d="M27.284,61.861V44.511L15.013,56.781C18.601,59.323,22.771,61.096,27.284,61.861z"/>
  <path fill="#204156" d="M27.339,27.288v-0.024L11.138,11.062c-0.787,0.786-1.531,1.616-2.229,2.486l13.739,13.739H27.339z"/>
  <path fill="#204156" d="M53.564,11.087c-0.787-0.788-1.617-1.532-2.486-2.229L37.34,22.598v4.69h0.023L53.564,11.087z"/>
  <path fill="#204156" d="M37.34,37.288v0.023l16.201,16.201c0.787-0.787,1.531-1.617,2.227-2.486L42.029,37.288H37.34z"/>
  <path fill="#204156" d="M11.115,53.489c0.786,0.787,1.616,1.531,2.486,2.228l13.738-13.739v-4.689h-0.023L11.115,53.489z"/>
  <path fill="#204156" d="M62.156,28.954H35.672V2.471c-1.094-0.121-2.205-0.183-3.332-0.183c-1.127,0-2.24,0.062-3.334,0.183v26.483
    H2.523c-0.121,1.095-0.184,2.207-0.184,3.334c0,1.126,0.062,2.238,0.184,3.333h26.482v26.483c1.095,0.121,2.207,0.184,3.334,0.184
    c1.127,0,2.238-0.062,3.332-0.184V35.621h26.484c0.121-1.095,0.184-2.207,0.184-3.333C62.34,31.161,62.277,30.049,62.156,28.954z"
    />
</g>
</svg>
