<?xml version="1.0" encoding="UTF-8"?>
<svg width="253px" height="156px" viewBox="0 0 253 156" version="1.1" xmlns="http://www.w3.org/2000/svg" xmlns:xlink="http://www.w3.org/1999/xlink">
    <g id="Trial-Upsell-V6" stroke="none" stroke-width="1" fill="none" fill-rule="evenodd">
        <g id="Trial-Upsell---Current-Logo" transform="translate(-430.000000, -612.000000)" fill="#3069F0">
            <g id="Left-Panel">
                <g id="Background-Art">
                    <g id="Bottom-Right-Art" transform="translate(280.000000, 612.000000)">
                        <path d="M0,277 C27.8593378,259.679169 23.3891946,232.721645 51.2485323,215.400814 C79.1078701,198.079983 90.0333685,213.073598 117.892706,195.750966 C145.752044,178.430135 134.826546,163.436521 162.687835,146.11569 C190.547173,128.794859 201.472672,143.772262 229.349578,126.44963 C257.210867,109.128799 246.265849,94.1531974 274.127139,76.8323666 C302.004045,59.5115358 312.929543,74.4871376 340.788881,57.1663068 C368.667739,39.8454761 357.724672,24.868073 385.58401,7.5472422 C391.871491,3.62771976 397.325456,1.35093834 402.27775,0 L403,0 L403,277 L0,277 Z" id="Squiggle" transform="translate(201.500000, 138.500000) scale(-1, -1) rotate(-180.000000) translate(-201.500000, -138.500000) "></path>
                    </g>
                </g>
            </g>
        </g>
    </g>
</svg>
