<?xml version="1.0" encoding="utf-8"?>
<!-- Generator: Adobe Illustrator 18.1.0, SVG Export Plug-In . SVG Version: 6.00 Build 0)  -->
<!DOCTYPE svg PUBLIC "-//W3C//DTD SVG 1.1//EN" "http://www.w3.org/Graphics/SVG/1.1/DTD/svg11.dtd">
<svg version="1.1" id="Layer_1" xmlns="http://www.w3.org/2000/svg" xmlns:xlink="http://www.w3.org/1999/xlink" x="0px" y="0px"
	 viewBox="247 -15 786 786" enable-background="new 247 -15 786 786" xml:space="preserve">
<polygon fill="#204056" points="895.9,514.9 1032.8,378 858.4,203.5 826.2,235.8 826.2,284.3 788,322.4 734,322.4 695.9,284.3 
	695.9,230.3 734,192.2 782.5,192.2 814.8,160 713,58.2 684,87.2 747.8,151 717.1,151 654.8,213.3 654.8,301.3 717.1,363.5 
	805,363.5 867.3,301.3 867.3,270.5 974.7,378 829.4,523.4 862,556 910.5,556 948.6,594.1 948.6,648.2 910.5,686.3 856.5,686.3 
	818.3,648.2 818.3,599.7 785.7,567 640.3,712.4 532.8,605 563.6,605 625.8,542.7 625.8,454.7 563.6,392.5 475.6,392.5 413.4,454.7 
	413.4,485.5 305.9,378 451.3,232.6 419.5,200.8 371.1,200.8 332.9,162.7 332.9,108.7 371.1,70.6 425,70.6 463.1,108.7 463.1,157.2 
	494.9,189 669.4,14.6 640.3,-14.5 504.2,121.6 504.2,91.7 442,29.5 354,29.5 291.9,91.7 291.9,179.7 354,241.9 383.9,241.9 
	247.8,378 422.3,552.5 454.5,520.2 454.5,471.7 492.6,433.6 546.6,433.6 584.7,471.7 584.7,525.7 546.6,563.8 498.1,563.8 
	465.9,596 640.3,770.5 777.3,633.6 777.3,665.1 839.5,727.4 927.5,727.4 989.7,665.1 989.7,577.2 927.5,514.9 "/>
</svg>
