<?xml version="1.0" encoding="utf-8"?>
<!-- Generator: Adobe Illustrator 18.1.0, SVG Export Plug-In . SVG Version: 6.00 Build 0)  -->
<!DOCTYPE svg PUBLIC "-//W3C//DTD SVG 1.1//EN" "http://www.w3.org/Graphics/SVG/1.1/DTD/svg11.dtd">
<svg version="1.1" id="Layer_1" xmlns="http://www.w3.org/2000/svg" xmlns:xlink="http://www.w3.org/1999/xlink" x="0px" y="0px"
	 viewBox="0 0 60 60" enable-background="new 0 0 60 60" xml:space="preserve">
<circle opacity="0.6" fill="#BCBEC0" cx="30" cy="30" r="30"/>
<g>
	<path fill="#FFFFFF" d="M30,27c0.8,0,1.6,0.3,2.1,0.9c0.6,0.6,0.9,1.3,0.9,2.1s-0.3,1.6-0.9,2.1C31.6,32.7,30.8,33,30,33
		s-1.6-0.3-2.1-0.9c-1.2-1.2-1.2-3.1,0-4.2C28.4,27.3,29.2,27,30,27 M30,26c-1,0-2,0.4-2.8,1.2c-1.6,1.6-1.6,4.1,0,5.7
		C28,33.6,29,34,30,34s2-0.4,2.8-1.2c1.6-1.6,1.6-4.1,0-5.7C32,26.4,31,26,30,26L30,26z"/>
</g>
<g>
	<path fill="#FFFFFF" d="M43.6,15.4c0.3,0,0.6,0.2,0.8,0.4c0.1,0.2,0.3,0.5,0.1,0.9l-7.8,15.8l0,0l0,0c-0.7,1.9-2.2,3.4-4.1,4.1l0,0
		l0,0l-15.8,7.8c-0.1,0-0.2,0.1-0.3,0.1c-0.3,0-0.6-0.2-0.8-0.4c-0.1-0.2-0.3-0.5-0.1-0.9l7.8-15.8l0,0l0,0c0.7-1.9,2.2-3.4,4.1-4.1
		l0,0l0,0l15.8-7.8C43.4,15.4,43.5,15.4,43.6,15.4 M43.6,14.4c-0.2,0-0.5,0-0.7,0.1l-15.8,7.8c-2.2,0.8-3.9,2.5-4.7,4.7l-7.8,15.8
		c-0.5,1.4,0.5,2.7,1.9,2.7c0.2,0,0.5,0,0.7-0.1l15.8-7.8c2.2-0.8,3.9-2.5,4.7-4.7l7.8-15.8C46,15.8,44.9,14.4,43.6,14.4L43.6,14.4z
		"/>
</g>
</svg>
