<?xml version="1.0" encoding="utf-8"?>
<!-- Generator: Adobe Illustrator 18.1.0, SVG Export Plug-In . SVG Version: 6.00 Build 0)  -->
<!DOCTYPE svg PUBLIC "-//W3C//DTD SVG 1.1//EN" "http://www.w3.org/Graphics/SVG/1.1/DTD/svg11.dtd">
<svg version="1.1" id="Layer_1" xmlns="http://www.w3.org/2000/svg" xmlns:xlink="http://www.w3.org/1999/xlink" x="0px" y="0px"
	 viewBox="0 0 1280 768" enable-background="new 0 0 1280 768" xml:space="preserve">
<circle fill="#204056" cx="988" cy="384" r="36"/>
<path fill="#204056" d="M1018.2,317.3L1018.2,317.3l-70.9,12.5c3.1,17.6,4.7,35.7,4.7,54.2h72C1024,361.2,1022,339,1018.2,317.3z"/>
<path opacity="0.96" fill="#204056" enable-background="new    " d="M1000.9,252.6L1000.9,252.6l-67.6,24.6
	c6.1,16.9,10.9,34.5,14.1,52.6l70.8-12.5h0C1014.3,295,1008.5,273.4,1000.9,252.6z"/>
<path opacity="0.92" fill="#204056" enable-background="new    " d="M972.6,192L972.6,192L972.6,192l-62.4,36
	c9,15.6,16.8,32.1,23,49.3l67.6-24.6l0.1,0C993.2,231.5,983.7,211.2,972.6,192z"/>
<path opacity="0.88" fill="#204056" enable-background="new    " d="M934.1,137.2L934.1,137.2L879,183.5
	c11.7,13.9,22.1,28.8,31.2,44.5l62.3-36l0,0C961.4,172.6,948.5,154.2,934.1,137.2z"/>
<path opacity="0.84" fill="#204056" enable-background="new    " d="M879,183.5l55.2-46.3l0,0c-14.4-17.1-30.2-33-47.3-47.3l0,0
	L840.5,145C854.5,156.7,867.3,169.5,879,183.5z"/>
<path opacity="0.8" fill="#204056" enable-background="new    " d="M840.5,145l46.3-55.2l0,0c-17.1-14.4-35.4-27.2-54.8-38.4l0,0
	L796,113.8C811.8,122.9,826.7,133.3,840.5,145z"/>
<path opacity="0.76" fill="#204056" enable-background="new    " d="M796,113.8l36-62.3l0,0l0,0c-19.2-11.1-39.5-20.6-60.7-28.3
	l0,0.1l-24.6,67.5C763.9,97,780.4,104.7,796,113.8z"/>
<path opacity="0.72" fill="#204056" enable-background="new    " d="M746.8,90.7l24.6-67.6l0-0.1C750.6,15.5,729,9.6,706.7,5.8v0
	l-12.5,70.8C712.3,79.9,729.9,84.6,746.8,90.7z"/>
<path opacity="0.68" fill="#204056" enable-background="new    " d="M706.7,5.8L706.7,5.8C685,2,662.8,0,640,0v72
	c18.5,0,36.6,1.6,54.2,4.7L706.7,5.8z"/>
<path opacity="0.64" fill="#204056" enable-background="new    " d="M585.8,76.7c17.6-3.1,35.7-4.7,54.2-4.7V0
	c-22.8,0-45,2-66.7,5.8v0L585.8,76.7z"/>
<path opacity="0.6" fill="#204056" enable-background="new    " d="M533.2,90.7c16.9-6.1,34.5-10.9,52.6-14.1L573.3,5.8v0
	c-22.3,3.9-43.9,9.7-64.7,17.3l0,0.1L533.2,90.7z"/>
<path fill="#204056" fill-opacity="0" d="M1018.1,450.7l-70.8-12.5C921.7,584.7,793.8,696,640,696c-37.5,0-73.4-6.6-106.8-18.7
	l-24.6,67.6l0,0.1c20.8,7.6,42.4,13.4,64.7,17.3C595,766,617.2,768,640,768s45-2,66.7-5.8c22.3-3.9,43.9-9.7,64.7-17.3
	c21.2-7.7,41.4-17.2,60.7-28.3l0,0c19.4-11.2,37.7-24.1,54.8-38.4c17.1-14.4,33-30.2,47.3-47.3c14.4-17.1,27.2-35.4,38.4-54.8l0,0
	c11.1-19.2,20.6-39.5,28.3-60.7C1008.5,494.6,1014.3,473,1018.1,450.7L1018.1,450.7z"/>
<path opacity="0.56" fill="#204056" enable-background="new    " d="M484,113.8c15.6-9,32.1-16.8,49.3-23l-24.6-67.6l0-0.1
	c-21.2,7.7-41.4,17.2-60.7,28.3l0,0l0,0L484,113.8z"/>
<path opacity="4.000000e-02" fill="#204056" enable-background="new    " d="M484,654.2l-36,62.3l0,0l0,0
	c19.2,11.1,39.5,20.6,60.7,28.3l0-0.1l24.6-67.6C516.1,671,499.6,663.3,484,654.2z"/>
<path opacity="0.52" fill="#204056" enable-background="new    " d="M439.5,145c13.9-11.7,28.8-22.1,44.5-31.2l-36-62.3l0,0
	c-19.4,11.2-37.7,24.1-54.8,38.4l0,0L439.5,145z"/>
<path opacity="8.000000e-02" fill="#204056" enable-background="new    " d="M439.5,623l-46.3,55.2l0,0c17,14.4,35.4,27.2,54.8,38.4
	l0,0l36-62.3C468.2,645.1,453.3,634.7,439.5,623z"/>
<path opacity="0.48" fill="#204056" enable-background="new    " d="M401,183.5c11.7-13.9,24.5-26.8,38.4-38.4l-46.3-55.2l0,0
	c-17.1,14.4-33,30.2-47.3,47.3l0,0L401,183.5z"/>
<path opacity="0.12" fill="#204056" enable-background="new    " d="M401,584.5l-55.2,46.3l0,0c14.4,17.1,30.2,33,47.3,47.3l0,0
	l46.3-55.2C425.5,611.3,412.7,598.5,401,584.5z"/>
<path opacity="0.44" fill="#204056" enable-background="new    " d="M401,183.5l-55.2-46.3l0,0c-14.4,17-27.2,35.4-38.4,54.8l0,0
	l62.3,35.9C378.9,212.2,389.3,197.3,401,183.5z"/>
<path opacity="0.16" fill="#204056" enable-background="new    " d="M369.8,540l-62.3,36l0,0c11.2,19.4,24.1,37.7,38.4,54.8l0,0
	l55.2-46.3C389.3,570.7,378.9,555.8,369.8,540z"/>
<path opacity="0.4" fill="#204056" enable-background="new    " d="M369.8,228l-62.3-36l0,0l0,0c-11.1,19.2-20.6,39.5-28.3,60.7
	l0.1,0l67.5,24.6C353,260.1,360.7,243.6,369.8,228z"/>
<path opacity="0.2" fill="#204056" enable-background="new    " d="M346.7,490.8l-67.6,24.6l-0.1,0c7.7,21.2,17.2,41.4,28.3,60.7
	l0,0l0,0l62.3-36C360.7,524.4,353,507.9,346.7,490.8z"/>
<path opacity="0.36" fill="#204056" enable-background="new    " d="M346.7,277.2l-67.6-24.6l-0.1,0c-7.6,20.8-13.4,42.4-17.3,64.7
	h0l70.8,12.5C335.9,311.7,340.6,294.1,346.7,277.2z"/>
<path opacity="0.24" fill="#204056" enable-background="new    " d="M332.7,438.2l-70.8,12.5h0c3.9,22.3,9.7,43.9,17.3,64.7l0.1,0
	l67.6-24.6C340.6,473.9,335.9,456.3,332.7,438.2z"/>
<path opacity="0.32" fill="#204056" enable-background="new    " d="M261.9,317.3L261.9,317.3C258,339,256,361.2,256,384h72
	c0-18.5,1.6-36.6,4.7-54.2L261.9,317.3z"/>
<path opacity="0.28" fill="#204056" enable-background="new    " d="M328,384h-72c0,22.8,2,45,5.8,66.7h0l70.8-12.5
	C329.6,420.6,328,402.5,328,384z"/>
</svg>
