<?xml version="1.0" encoding="utf-8"?>
<!-- Generator: Adobe Illustrator 18.1.0, SVG Export Plug-In . SVG Version: 6.00 Build 0)  -->
<!DOCTYPE svg PUBLIC "-//W3C//DTD SVG 1.1//EN" "http://www.w3.org/Graphics/SVG/1.1/DTD/svg11.dtd">
<svg version="1.1" id="Layer_1" xmlns="http://www.w3.org/2000/svg" xmlns:xlink="http://www.w3.org/1999/xlink" x="0px" y="0px"
	 viewBox="0 0 1600 1600" enable-background="new 0 0 1600 1600" xml:space="preserve">
<circle fill="#FFFFFF" cx="1500" cy="800" r="100"/>
<g>
	<g id="XMLID_1_">
		<g>
			<path fill="#FFFFFF" d="M1600,800h-200c0-35.5-3.1-70.4-9-104.2l196.9-34.7l0.1,0C1595.9,706.2,1600,752.6,1600,800z"/>
			<path opacity="0.96" fill="#FFFFFF" d="M1588,661.1l-0.1,0L1391,695.8c-6.1-34.8-15.2-68.6-27-101.1l187.8-68.3l0.2-0.1
				C1567.7,569.6,1579.8,614.6,1588,661.1z"/>
			<path opacity="0" fill="#FFFFFF" d="M1587.8,938.9l0.1,0c-8.1,46.4-20.2,91.5-36,134.7l-0.2-0.1l-187.8-68.3
				c11.8-32.5,20.9-66.2,27-101.1L1587.8,938.9z"/>
			<path opacity="0.92" fill="#FFFFFF" d="M1551.9,526.3l-0.2,0.1L1364,594.7c-12-33-26.9-64.7-44.3-94.8l173.1-100l0.1-0.1h0
				C1516.1,440,1535.9,482.2,1551.9,526.3z"/>
			<path opacity="0" fill="#FFFFFF" d="M1551.8,1073.6l0.2,0.1c-16,44.1-35.8,86.3-59,126.4h0l-0.1-0.1l-173.1-99.9
				c17.4-30.1,32.2-61.7,44.3-94.8L1551.8,1073.6z"/>
			<path opacity="0" fill="#FFFFFF" d="M1492.8,1200l0.1,0.1c-23.4,40.4-50.2,78.6-80.1,114.2l0,0l-153.2-128.5
				c22.4-26.7,42.5-55.3,60.1-85.6L1492.8,1200z"/>
			<path opacity="0.88" fill="#FFFFFF" d="M1492.9,399.9l-0.1,0.1l-173.1,100c-17.5-30.3-37.7-59-60.1-85.6l153.2-128.6l0,0
				C1442.7,321.3,1469.5,359.5,1492.9,399.9z"/>
			<path opacity="0.84" fill="#FFFFFF" d="M1412.8,285.8L1412.8,285.8l-153.2,128.6c-22.5-26.7-47.2-51.5-73.9-74l128.5-153.2l0,0
				C1349.9,217.1,1382.9,250.1,1412.8,285.8z"/>
			<path opacity="0" fill="#FFFFFF" d="M1412.8,1314.2L1412.8,1314.2c-29.9,35.7-62.9,68.7-98.6,98.6l0,0l-128.5-153.2
				c26.7-22.5,51.5-47.2,73.9-73.9L1412.8,1314.2z"/>
			<path opacity="0.8" fill="#FFFFFF" d="M1314.2,187.1L1314.2,187.1l-128.6,153.2c-26.7-22.4-55.3-42.5-85.6-60.1l99.9-173.1
				l0.1-0.1C1240.5,130.5,1278.7,157.3,1314.2,187.1z"/>
			<path opacity="0" fill="#FFFFFF" d="M1314.2,1412.8L1314.2,1412.8c-35.5,29.9-73.7,56.7-114.2,80.1l-0.1-0.1l-99.9-173.1
				c30.3-17.5,59-37.7,85.6-60.1L1314.2,1412.8z"/>
			<path opacity="0" fill="#FFFFFF" d="M1200.1,1492.9L1200.1,1492.9c-40.1,23.2-82.3,43-126.4,59l-0.1-0.2l-68.3-187.8
				c33-12,64.7-26.9,94.8-44.3l99.9,173.1L1200.1,1492.9z"/>
			<path opacity="0.76" fill="#FFFFFF" d="M1200.1,107.1L1200.1,107.1l-0.1,0.1l-99.9,173.1c-30.1-17.4-61.7-32.2-94.8-44.3
				l68.3-187.8l0.1-0.2C1117.8,64.1,1160,83.9,1200.1,107.1z"/>
			<path opacity="0.72" fill="#FFFFFF" d="M1073.7,48l-0.1,0.2L1005.3,236c-32.5-11.8-66.2-20.9-101.1-27l34.7-196.9l0-0.1
				C985.4,20.1,1030.4,32.3,1073.7,48z"/>
			<path opacity="0" fill="#FFFFFF" d="M1073.6,1551.8l0.1,0.2c-43.3,15.8-88.3,27.9-134.7,36l0-0.1L904.2,1391
				c34.8-6.1,68.6-15.2,101.1-27L1073.6,1551.8z"/>
			<path opacity="0.68" fill="#FFFFFF" d="M938.9,12l0,0.1L904.2,209c-33.8-5.9-68.7-9-104.2-9V0C847.4,0,893.8,4.1,938.9,12z"/>
			<path opacity="0" fill="#FFFFFF" d="M938.9,1587.8l0,0.1c-45.1,7.9-91.5,12-138.9,12v-200c35.5,0,70.4-3.1,104.2-9L938.9,1587.8z
				"/>
			<path opacity="0" fill="#FFFFFF" d="M800,1400v200c-47.4,0-93.8-4.1-138.9-12l0-0.1l34.7-196.9C729.6,1396.9,764.5,1400,800,1400
				z"/>
			<path opacity="0.64" fill="#FFFFFF" d="M800,0v200c-35.5,0-70.4,3.1-104.2,9L661.1,12.1l0-0.1C706.2,4.1,752.6,0,800,0z"/>
			<path opacity="0.6" fill="#FFFFFF" d="M661.1,12.1L695.8,209c-34.8,6.1-68.6,15.2-101.1,27L526.4,48.2l-0.1-0.2
				c43.3-15.8,88.3-27.9,134.8-36L661.1,12.1z"/>
			<path opacity="0" fill="#FFFFFF" d="M695.8,1391l-34.7,196.9l0,0.1c-46.4-8.1-91.5-20.2-134.8-36l0.1-0.2l68.3-187.8
				C627.2,1375.8,661,1384.9,695.8,1391z"/>
			<path opacity="0.56" fill="#FFFFFF" d="M526.4,48.2L594.7,236c-33,12-64.7,26.9-94.8,44.3L400,107.2l-0.1-0.1v0
				c40.1-23.2,82.3-43,126.4-59L526.4,48.2z"/>
			<path opacity="4.000000e-02" fill="#FFFFFF" d="M594.7,1364l-68.3,187.8l-0.1,0.2c-44.1-16-86.3-35.8-126.4-59v0l0.1-0.1
				l100-173.1C530,1337.1,561.7,1351.9,594.7,1364z"/>
			<path opacity="0.52" fill="#FFFFFF" d="M400,107.2l100,173.1c-30.3,17.6-59,37.7-85.6,60.1L285.8,187.2l0,0
				c35.5-29.9,73.7-56.7,114.2-80.1L400,107.2z"/>
			<path opacity="8.000000e-02" fill="#FFFFFF" d="M500,1319.7l-100,173.1l-0.1,0.1c-40.4-23.4-78.6-50.2-114.2-80.1l0,0
				l128.6-153.2C441,1282,469.6,1302.2,500,1319.7z"/>
			<path opacity="0.48" fill="#FFFFFF" d="M285.8,187.2l128.6,153.2c-26.7,22.5-51.5,47.2-74,74L187.2,285.8l0,0
				C217.1,250.1,250.1,217.1,285.8,187.2L285.8,187.2z"/>
			<path opacity="0.12" fill="#FFFFFF" d="M414.3,1259.6l-128.6,153.2l0,0c-35.7-29.9-68.7-62.9-98.6-98.6l0,0l153.2-128.5
				C362.8,1212.4,387.6,1237.2,414.3,1259.6z"/>
			<path opacity="0.44" fill="#FFFFFF" d="M187.2,285.8l153.2,128.6C318,441,297.9,469.6,280.3,500L107.2,400l-0.1-0.1
				C130.5,359.5,157.3,321.3,187.2,285.8L187.2,285.8z"/>
			<path opacity="0.16" fill="#FFFFFF" d="M340.4,1185.7l-153.2,128.5l0,0c-29.9-35.6-56.7-73.7-80.1-114.2l0.1-0.1l173.1-99.9
				C297.9,1130.4,318,1159,340.4,1185.7z"/>
			<path opacity="0.4" fill="#FFFFFF" d="M107.2,400l173.1,100c-17.4,30-32.2,61.7-44.3,94.8L48.2,526.4l-0.2-0.1
				c16-44.1,35.8-86.3,59-126.4h0L107.2,400z"/>
			<path opacity="0.2" fill="#FFFFFF" d="M280.3,1100.1L107.2,1200l-0.1,0.1h0c-23.2-40.1-43-82.3-59-126.4l0.2-0.1l187.8-68.3
				C248.1,1038.3,262.9,1070,280.3,1100.1z"/>
			<path opacity="0.36" fill="#FFFFFF" d="M48.2,526.4L236,594.7c-11.8,32.5-20.9,66.2-27,101.1L12.1,661.1l-0.1,0
				c8.1-46.4,20.2-91.5,36-134.8L48.2,526.4z"/>
			<path opacity="0.24" fill="#FFFFFF" d="M236,1005.3l-187.8,68.3l-0.2,0.1c-15.8-43.3-27.9-88.3-36-134.7l0.1,0L209,904.2
				C215.1,939,224.2,972.8,236,1005.3z"/>
			<path opacity="0.32" fill="#FFFFFF" d="M12.1,661.1L209,695.8c-5.9,33.8-9,68.7-9,104.2H0c0-47.4,4.1-93.8,12-138.9L12.1,661.1z"
				/>
			<path opacity="0.28" fill="#FFFFFF" d="M209,904.2L12.1,938.9l-0.1,0C4.1,893.8,0,847.4,0,800h200
				C200,835.5,203.1,870.4,209,904.2z"/>
		</g>
	</g>
</g>
</svg>
