<?xml version="1.0" encoding="utf-8"?>
<!-- Generator: Adobe Illustrator 18.1.0, SVG Export Plug-In . SVG Version: 6.00 Build 0)  -->
<!DOCTYPE svg PUBLIC "-//W3C//DTD SVG 1.1//EN" "http://www.w3.org/Graphics/SVG/1.1/DTD/svg11.dtd">
<svg version="1.1" id="Layer_1" xmlns="http://www.w3.org/2000/svg" xmlns:xlink="http://www.w3.org/1999/xlink" x="0px" y="0px"
	 viewBox="0 0 1600 1600" enable-background="new 0 0 1600 1600" xml:space="preserve">
<circle fill="#FFFFFF" cx="1525" cy="800" r="75"/>
<path fill="#FFFFFF" d="M1588,661.1l-0.1,0l-147.6,26c6.4,36.7,9.8,74.4,9.8,112.9h150C1600,752.6,1595.9,706.2,1588,661.1z"/>
<path opacity="0.96" fill="#FFFFFF" d="M1551.9,526.3l-0.2,0.1L1411,577.6c12.8,35.2,22.7,71.8,29.3,109.5l147.6-26l0.1,0
	C1579.8,614.6,1567.7,569.6,1551.9,526.3z"/>
<path opacity="0.92" fill="#FFFFFF" d="M1492.9,399.9L1492.9,399.9l-0.1,0.1L1363,474.9c18.8,32.5,34.9,66.9,48,102.7l140.8-51.2
	l0.2-0.1C1535.9,482.2,1516.1,440,1492.9,399.9z"/>
<path opacity="0.88" fill="#FFFFFF" d="M1412.8,285.8L1412.8,285.8l-114.9,96.4c24.3,28.9,46.1,59.9,65.1,92.8l129.8-74.9l0.1-0.1
	C1469.5,359.5,1442.7,321.3,1412.8,285.8z"/>
<path opacity="0.84" fill="#FFFFFF" d="M1297.9,382.2l114.9-96.4l0,0c-29.9-35.7-62.9-68.7-98.6-98.6l0,0l-96.4,114.9
	C1246.8,326.4,1273.6,353.2,1297.9,382.2z"/>
<path opacity="0.8" fill="#FFFFFF" d="M1217.8,302.1l96.4-114.9l0,0c-35.6-29.9-73.7-56.7-114.2-80.1l-0.1,0.1L1125.1,237
	C1157.9,256,1188.9,277.8,1217.8,302.1z"/>
<path opacity="0.76" fill="#FFFFFF" d="M1125.1,237l74.9-129.8l0.1-0.1v0c-40.1-23.2-82.3-43-126.4-59l-0.1,0.2L1022.4,189
	C1058.2,202.1,1092.5,218.2,1125.1,237z"/>
<path opacity="0.72" fill="#FFFFFF" d="M1022.4,189l51.2-140.8l0.1-0.2c-43.3-15.8-88.3-27.9-134.7-36l0,0.1l-26,147.6
	C950.6,166.4,987.2,176.2,1022.4,189z"/>
<path opacity="0.68" fill="#FFFFFF" d="M938.9,12.1l0-0.1C893.8,4.1,847.4,0,800,0v150c38.5,0,76.2,3.4,112.9,9.8L938.9,12.1z"/>
<path opacity="0.64" fill="#FFFFFF" d="M687.1,159.8c36.7-6.4,74.4-9.8,112.9-9.8V0c-47.4,0-93.8,4.1-138.9,12l0,0.1L687.1,159.8z"
	/>
<path opacity="0.6" fill="#FFFFFF" d="M577.6,189c35.2-12.8,71.8-22.7,109.5-29.3l-26-147.6l0-0.1c-46.4,8.1-91.5,20.2-134.8,36
	l0.1,0.2L577.6,189z"/>
<path opacity="0" fill="#FFFFFF" d="M1587.8,938.9l-147.6-26C1386.8,1218.1,1120.5,1450,800,1450c-78.1,0-153-13.8-222.4-39
	l-51.2,140.8l-0.1,0.2c43.3,15.8,88.3,27.9,134.8,36c45.1,7.9,91.5,12,138.9,12s93.8-4.1,138.9-12c46.4-8.1,91.5-20.2,134.7-36
	c44.1-16,86.3-35.8,126.4-59v0c40.4-23.4,78.6-50.2,114.2-80.1c35.7-30,68.7-63,98.6-98.6c29.9-35.6,56.7-73.7,80.1-114.2h0
	c23.2-40.1,43-82.3,59-126.4c15.8-43.3,27.9-88.3,36-134.7L1587.8,938.9z"/>
<path opacity="0.56" fill="#FFFFFF" d="M474.9,237c32.5-18.8,66.9-34.9,102.7-48L526.4,48.2l-0.1-0.2c-44.1,16-86.3,35.8-126.4,59v0
	l0.1,0.1L474.9,237z"/>
<path opacity="4.000000e-02" fill="#FFFFFF" d="M474.9,1363L400,1492.8l-0.1,0.1v0c40.1,23.2,82.3,43,126.4,59l0.1-0.2l51.2-140.8
	C541.8,1397.9,507.5,1381.8,474.9,1363z"/>
<path opacity="0.52" fill="#FFFFFF" d="M382.2,302.1c28.9-24.3,59.9-46.1,92.8-65.1L400,107.2l-0.1-0.1
	c-40.4,23.4-78.6,50.2-114.2,80.1l0,0L382.2,302.1z"/>
<path opacity="8.000000e-02" fill="#FFFFFF" d="M382.2,1297.9l-96.4,114.9l0,0c35.5,29.9,73.7,56.7,114.2,80.1l0.1-0.1l74.9-129.8
	C442.1,1344,411.1,1322.2,382.2,1297.9z"/>
<path opacity="0.48" fill="#FFFFFF" d="M302.1,382.2c24.3-29,51.1-55.8,80.1-80.1l-96.4-114.9l0,0c-35.7,30-68.7,63-98.6,98.6l0,0
	L302.1,382.2z"/>
<path opacity="0.12" fill="#FFFFFF" d="M302.1,1217.8l-114.9,96.4l0,0c29.9,35.7,62.9,68.7,98.6,98.6l0,0l96.4-114.9
	C353.2,1273.6,326.4,1246.8,302.1,1217.8z"/>
<path opacity="0.44" fill="#FFFFFF" d="M302.1,382.2l-114.9-96.4l0,0c-29.9,35.5-56.7,73.7-80.1,114.2l0.1,0.1L237,474.9
	C256,442.1,277.8,411.1,302.1,382.2z"/>
<path opacity="0.16" fill="#FFFFFF" d="M237,1125.1L107.2,1200l-0.1,0.1c23.4,40.4,50.2,78.6,80.1,114.2l0,0l114.9-96.4
	C277.8,1188.9,256,1157.9,237,1125.1z"/>
<path opacity="0.4" fill="#FFFFFF" d="M237,474.9L107.2,400l-0.1-0.1h0c-23.2,40.1-43,82.3-59,126.4l0.2,0.1L189,577.6
	C202.1,541.8,218.2,507.5,237,474.9z"/>
<path opacity="0.2" fill="#FFFFFF" d="M189,1022.4l-140.8,51.2l-0.2,0.1c16,44.1,35.8,86.3,59,126.4h0l0.1-0.1l129.8-74.9
	C218.2,1092.5,202.1,1058.2,189,1022.4z"/>
<path opacity="0.36" fill="#FFFFFF" d="M189,577.6L48.2,526.4l-0.2-0.1c-15.8,43.3-27.9,88.3-36,134.8l0.1,0l147.6,26
	C166.4,649.4,176.2,612.8,189,577.6z"/>
<path opacity="0.24" fill="#FFFFFF" d="M159.8,912.9l-147.6,26l-0.1,0c8.1,46.4,20.2,91.5,36,134.7l0.2-0.1l140.8-51.2
	C176.2,987.2,166.4,950.6,159.8,912.9z"/>
<path opacity="0.32" fill="#FFFFFF" d="M12.2,661.1l-0.1,0C4.1,706.2,0,752.6,0,800h150c0-38.5,3.4-76.2,9.8-112.9L12.2,661.1z"/>
<path opacity="0.28" fill="#FFFFFF" d="M150,800H0c0,47.4,4.1,93.8,12,138.9l0.1,0l147.6-26C153.4,876.2,150,838.5,150,800z"/>
</svg>
