<svg xmlns="http://www.w3.org/2000/svg" fill="none" viewBox="0 0 14 14" id="Like-1--Streamline-Core.svg"><desc>Like 1 Streamline Icon: https://streamlinehq.com</desc><g id="like-1--reward-social-up-rating-media-like-thumb-hand"><path id="Union" fill="#000000" fill-rule="evenodd" d="M4.45799 12.7568c0.33597 0.1601 0.70345 0.2432 1.07562 0.2432l5.34609 0c1.2316 0 2.2797 -0.897 2.47 -2.1139l0.6258 -4.00322c0.1897 -1.213 -0.7482 -2.30892 -1.976 -2.30892l-3.28369 0 0 -2.35762c0 -0.8976 -0.72765 -1.625246 -1.62525 -1.625246 -0.5883 0 -1.13067 0.31792 -1.41809 0.831236L3.59513 5.1324c-0.12536 0.2239 -0.19119 0.47622 -0.19119 0.73282l-0.00001 5.44238c0 0.5784 0.33252 1.1053 0.85463 1.3541l0.19943 0.0951ZM0.996355 5.31563c-0.264249 0 -0.517676 0.10497 -0.704529 0.29183 -0.186853 0.18685 -0.291825523 0.44028 -0.2918254999 0.70453l4.47e-7 5.11261c2.31e-8 0.2643 0.1049720529 0.5177 0.2918250529 0.7045 0.186853 0.1869 0.440279 0.2919 0.704529 0.2919l0.000215 0 0.49636 -0.0002c0.27605 -0.0002 0.49978 -0.224 0.49978 -0.5l0 -6.10538c0 -0.13265 -0.05271 -0.25986 -0.14652 -0.35363 -0.09382 -0.09378 -0.22105 -0.14643 -0.3537 -0.14637l-0.496135 0.00021Z" clip-rule="evenodd" stroke-width="1"></path></g></svg>