<svg xmlns="http://www.w3.org/2000/svg" fill="none" viewBox="0 0 14 14"><g id="arrow-round-left--diagram-round-arrow-left"><path id="Union" fill="#000000" fill-rule="evenodd" d="M5.35099 1.00246c0-.303343-.18273-.576821-.46299-.692906-.28026-.116086-.60284-.051919-.81734.162579L1.67164 2.87116c-.2929.29289-.2929.76776 0 1.06066l2.39902 2.39902c.2145.2145.53708.27866.81734.16258.28026-.11609.46299-.38957.46299-.69291V4.40139h1.64902c2.0976 0 3.79809 1.70044 3.79809 3.79804 0 2.09757-1.70049 3.79807-3.79809 3.79807S3.20197 10.297 3.20197 8.19943c0-.55228-.44772-1-1-1-.55229 0-1 .44772-1 1 0 3.20217 2.59587 5.79807 5.79804 5.79807 3.20219 0 5.79809-2.5959 5.79809-5.79807s-2.5959-5.79804-5.79809-5.79804H5.35099V1.00246Z" clip-rule="evenodd"></path></g></svg>