<svg xmlns="http://www.w3.org/2000/svg" version="1.1" xmlns:xlink="http://www.w3.org/1999/xlink" xmlns:svgjs="http://svgjs.com/svgjs" viewBox="0 0 140 140" width="140" height="140"><title>interface-delete</title><g transform="matrix(10,0,0,10,0,0)"><path d="M8.591,7.177a.25.25,0,0,1,0-.354l4.616-4.616A1,1,0,1,0,11.793.793L7.177,5.409a.25.25,0,0,1-.354,0L2.207.793A1,1,0,0,0,.793,2.207L5.409,6.823a.25.25,0,0,1,0,.354L.793,11.793a1,1,0,0,0,1.414,1.414L6.823,8.591a.25.25,0,0,1,.354,0l4.616,4.616a1,1,0,0,0,1.414-1.414Z" fill="#000000" stroke="none" stroke-linecap="round" stroke-linejoin="round" stroke-width="0"></path></g></svg>
