<svg xmlns="http://www.w3.org/2000/svg" viewBox="0 0 16 16">
<title>audio-description</title><g id="audio-description--audio-description-close-caption-text"><path id="Union" fill="#000000" fill-rule="evenodd" d="M14.410057142857143 4.161497142857143C15.428114285714283 5.1795542857142856 16 6.560331428571428 16 8.00006857142857c0 1.4397485714285712 -0.5718857142857142 2.8205257142857145 -1.589942857142857 3.8385599999999998 -0.3347428571428571 0.3347428571428571 -0.8774857142857143 0.3347428571428571 -1.2122285714285714 0 -0.3347428571428571 -0.3347428571428571 -0.3347428571428571 -0.8774171428571428 0 -1.21216 0.6965714285714286 -0.69656 1.0878857142857141 -1.641302857142857 1.0878857142857141 -2.6264 0 -0.9850857142857142 -0.39131428571428567 -1.9298285714285714 -1.0878857142857141 -2.6263885714285715 -0.3347428571428571 -0.3347428571428571 -0.3347428571428571 -0.8774514285714284 0 -1.212182857142857 0.3347428571428571 -0.3347428571428571 0.8774857142857143 -0.3347428571428571 1.2122285714285714 0ZM2.4858285714285713 6.700765714285714l0.5140571428571428 1.9277257142857143 -1.0281142857142855 0 0.5140571428571428 -1.9277257142857143Zm1.0812342857142856 4.05464 -0.18622857142857144 -0.698342857142857 -1.7900114285714284 0 -0.18622857142857144 0.698342857142857c-0.10164571428571428 0.3811771428571428 -0.49304114285714284 0.6077714285714286 -0.8742102857142857 0.5061257142857142 -0.3811691428571429 -0.10164571428571428 -0.6077689142857142 -0.49304 -0.5061243428571428 -0.8742057142857143L1.2925942857142856 5.631028571428572c0.14415999999999998 -0.5405942857142857 0.6337485714285713 -0.9167314285714285 1.1932342857142855 -0.9167314285714285 0.5594857142857143 0 1.0490742857142856 0.37613714285714284 1.1932228571428571 0.9167314285714285l1.268342857142857 4.756297142857143c0.10164571428571428 0.3811657142857142 -0.12494857142857142 0.7725599999999999 -0.5061257142857142 0.8742057142857143 -0.3811657142857142 0.10164571428571428 -0.7725599999999999 -0.12494857142857142 -0.8742057142857143 -0.5061257142857142Zm2.890114285714285 -6.041108571428571c-0.39449142857142855 0 -0.7142857142857142 0.3197942857142857 -0.7142857142857142 0.7142857142857142l0 5.142788571428571c0 0.39447999999999994 0.3197942857142857 0.7142857142857142 0.7142857142857142 0.7142857142857142l0.5999771428571429 0c1.5044457142857142 0 2.7714057142857143 -1.332137142857143 2.7714057142857143 -3.2856799999999997 0 -1.953542857142857 -1.2669599999999999 -3.2856799999999997 -2.7714057142857143 -3.2856799999999997l-0.5999771428571429 0Zm1.9428114285714284 3.2856799999999997c0 1.2479542857142858 -0.6875428571428571 1.7836342857142857 -1.2285257142857142 1.8499771428571428l0 -3.6999657142857143c0.5409828571428571 0.06634285714285713 1.2285257142857142 0.6020228571428571 1.2285257142857142 1.8499885714285713ZM13.142971428571428 8c0 -0.6819885714285715 -0.27085714285714285 -1.3360457142857143 -0.7531428571428571 -1.8182742857142855 -0.3347428571428571 -0.3347428571428571 -0.8774857142857143 -0.3347428571428571 -1.2121714285714287 0 -0.3347314285714285 0.3347314285714285 -0.3347314285714285 0.87744 0 1.212182857142857 0.1607542857142857 0.16074285714285713 0.25102857142857143 0.37876571428571426 0.25102857142857143 0.6060914285714285 0 0.22732571428571427 -0.09027428571428571 0.4453485714285714 -0.25102857142857143 0.6060914285714285 -0.3347314285714285 0.3347314285714285 -0.3347314285714285 0.87744 0 1.212182857142857 0.33468571428571425 0.3347314285714285 0.8774285714285714 0.3347314285714285 1.2121714285714287 0 0.48228571428571426 -0.48224 0.7531428571428571 -1.136297142857143 0.7531428571428571 -1.8182742857142855Z" clip-rule="evenodd" stroke-width="1.1429"></path></g></svg>