<svg xmlns="http://www.w3.org/2000/svg" viewBox="0 0 16 16">
<title>close-captioning</title><g id="video-close-captioning"><path id="Subtract" fill="#000000" fill-rule="evenodd" d="M1.0735314285714284 1.0735314285714284C1.3950171428571427 0.75204 1.8310628571428569 0.5714285714285714 2.2857142857142856 0.5714285714285714h11.428571428571427c0.4546285714285714 0 0.8907428571428571 0.18061142857142856 1.2122285714285714 0.5021028571428571 0.32148571428571426 0.32148571428571426 0.5020571428571429 0.75752 0.5020571428571429 1.212182857142857v9.142857142857142c0 0.4546285714285714 -0.18057142857142855 0.8907428571428571 -0.5020571428571429 1.2122285714285714S14.168914285714285 13.142857142857142 13.714285714285714 13.142857142857142H7.766411428571428l-3.4090971428571426 2.731657142857143c-0.17147428571428572 0.13737142857142856 -0.40656 0.16434285714285715 -0.6046514285714286 0.06914285714285713C3.5545714285714287 15.848571428571427 3.4285714285714284 15.648342857142856 3.4285714285714284 15.428571428571427v-2.2857142857142856H2.2857142857142856c-0.45466285714285715 0 -0.8906971428571429 -0.18057142857142855 -1.212182857142857 -0.5020571428571429C0.75204 12.319314285714286 0.5714285714285714 11.883199999999999 0.5714285714285714 11.428571428571427V2.2857142857142856c0 -0.45465142857142854 0.18061142857142856 -0.8906971428571429 0.5021028571428571 -1.212182857142857ZM3.0055771428571427 5.434285714285714c0 -1.0256685714285714 0.8314742857142856 -1.857142857142857 1.857142857142857 -1.857142857142857h0.5714285714285714c1.02568 0 1.857142857142857 0.8314742857142856 1.857142857142857 1.857142857142857 0 0.39449142857142855 -0.3197942857142857 0.7142857142857142 -0.7142857142857142 0.7142857142857142 -0.39447999999999994 0 -0.7142857142857142 -0.3197942857142857 -0.7142857142857142 -0.7142857142857142 0 -0.23668571428571428 -0.19187428571428572 -0.42857142857142855 -0.42857142857142855 -0.42857142857142855h-0.5714285714285714c-0.23668571428571428 0 -0.42857142857142855 0.19188571428571427 -0.42857142857142855 0.42857142857142855v2.8571428571428568c0 0.23669714285714283 0.19188571428571427 0.42857142857142855 0.42857142857142855 0.42857142857142855h0.5714285714285714c0.23669714285714283 0 0.42857142857142855 -0.19187428571428572 0.42857142857142855 -0.42857142857142855 0 -0.39447999999999994 0.3198057142857143 -0.7142857142857142 0.7142857142857142 -0.7142857142857142 0.39449142857142855 0 0.7142857142857142 0.3198057142857143 0.7142857142857142 0.7142857142857142 0 1.02568 -0.8314628571428571 1.857142857142857 -1.857142857142857 1.857142857142857h-0.5714285714285714c-1.0256685714285714 0 -1.857142857142857 -0.8314628571428571 -1.857142857142857 -1.857142857142857v-2.8571428571428568Zm5.7142857142857135 0c0 -1.0256685714285714 0.8314742857142856 -1.857142857142857 1.857142857142857 -1.857142857142857h0.5714285714285714c1.0256228571428572 0 1.857165714285714 0.8314742857142856 1.857165714285714 1.857142857142857 0 0.39449142857142855 -0.31977142857142854 0.7142857142857142 -0.7142857142857142 0.7142857142857142s-0.7142857142857142 -0.3197942857142857 -0.7142857142857142 -0.7142857142857142c0 -0.23668571428571428 -0.19189714285714285 -0.42857142857142855 -0.4285942857142857 -0.42857142857142855h-0.5714285714285714c-0.23668571428571428 0 -0.42857142857142855 0.19188571428571427 -0.42857142857142855 0.42857142857142855v2.8571428571428568c0 0.23669714285714283 0.19188571428571427 0.42857142857142855 0.42857142857142855 0.42857142857142855h0.5714285714285714c0.23669714285714283 0 0.4285942857142857 -0.19187428571428572 0.4285942857142857 -0.42857142857142855 0 -0.39447999999999994 0.31977142857142854 -0.7142857142857142 0.7142857142857142 -0.7142857142857142s0.7142857142857142 0.3198057142857143 0.7142857142857142 0.7142857142857142c0 1.02568 -0.8315428571428571 1.857142857142857 -1.857165714285714 1.857142857142857h-0.5714285714285714c-1.0256685714285714 0 -1.857142857142857 -0.8314628571428571 -1.857142857142857 -1.857142857142857v-2.8571428571428568Z" clip-rule="evenodd" stroke-width="1.1429"></path></g></svg>