<svg xmlns="http://www.w3.org/2000/svg" version="1.1" xmlns:xlink="http://www.w3.org/1999/xlink" xmlns:svgjs="http://svgjs.com/svgjs" viewBox="0 0 140 140" width="140" height="140"><g transform="matrix(10,0,0,10,0,0)"><path d="M2.793,10.207l3.5,3.5a1,1,0,0,0,1.414,0l3.5-3.5A1,1,0,0,0,9.793,8.793L8.427,10.159A.25.25,0,0,1,8,9.982V1A1,1,0,0,0,6,1V9.982a.25.25,0,0,1-.427.177L4.207,8.793a1,1,0,0,0-1.414,1.414Z" fill="#000000" stroke="none" stroke-linecap="round" stroke-linejoin="round" stroke-width="0"></path></g></svg>