<svg xmlns="http://www.w3.org/2000/svg" version="1.1" xmlns:xlink="http://www.w3.org/1999/xlink" xmlns:svgjs="http://svgjs.com/svgjs" viewBox="0 0 140 140" width="140" height="140"><title>interface-alert-warning-triangle</title><g transform="matrix(10,0,0,10,0,0)"><path d="M13.842,11.829l-5.5-11a1.5,1.5,0,0,0-2.684,0l-5.5,11A1.5,1.5,0,0,0,1.5,14h11a1.5,1.5,0,0,0,1.342-2.171ZM6.25,5a.75.75,0,0,1,1.5,0V8a.75.75,0,0,1-1.5,0ZM7,12a1,1,0,1,1,1-1A1,1,0,0,1,7,12Z" fill="#000000" stroke="none" stroke-linecap="round" stroke-linejoin="round" stroke-width="0"></path></g></svg>
