<svg xmlns="http://www.w3.org/2000/svg" version="1.1" xmlns:xlink="http://www.w3.org/1999/xlink" xmlns:svgjs="http://svgjs.com/svgjs" viewBox="0 0 16 16" width="16" height="16"><g transform="matrix(1.1428571428571428,0,0,1.1428571428571428,0,0)"><path d="M10.207,2.793l3.5,3.5a1,1,0,0,1,0,1.414l-3.5,3.5A1,1,0,0,1,8.793,9.793l1.366-1.366A.25.25,0,0,0,9.982,8H1A1,1,0,0,1,1,6H9.982a.25.25,0,0,0,.177-.427L8.793,4.207a1,1,0,0,1,1.414-1.414Z" fill="#000000" stroke="none" stroke-linecap="round" stroke-linejoin="round" stroke-width="0"></path></g></svg>