<svg xmlns="http://www.w3.org/2000/svg" viewBox="0 0 16 16">
<title>live-video</title><g id="live-video"><path id="Union" fill="#000000" fill-rule="evenodd" d="M7.14302857142857 0.856864c0 -0.47338742857142857 0.38374857142857144 -0.8571430182857143 0.8571428571428571 -0.8571430182857143 4.418342857142857 0 8.000171428571427 3.581821875428571 8.000171428571427 8.000210446857142 0 4.418354285714286 -3.5818285714285714 8.000182857142857 -8.000171428571427 8.000182857142857 -2.833245714285714 0 -5.321782857142857 -1.4733714285714283 -6.742034285714285 -3.6917714285714287 -0.25524685714285716 -0.3986285714285714 -0.13897142857142855 -0.9287657142857142 0.2597028571428571 -1.1840114285714287 0.39868571428571425 -0.2552457142857143 0.9288 -0.13897142857142855 1.1840457142857144 0.25971428571428573 1.1184342857142857 1.7469257142857142 3.0737714285714284 2.901782857142857 5.298285714285714 2.901782857142857 3.4716 0 6.285885714285714 -2.814285714285714 6.285885714285714 -6.285897142857142 0 -3.4716228571428567 -2.814285714285714 -6.28592 -6.285885714285714 -6.28592 -0.47339428571428566 0 -0.8571428571428571 -0.38375999999999993 -0.8571428571428571 -0.8571474285714286Zm-1.10456 0.21894742857142857c0.18252571428571426 0.43678285714285714 -0.023588571428571424 0.9388285714285713 -0.46036571428571427 1.1213542857142855 -0.3472228571428571 0.14509714285714284 -0.6788114285714286 0.3205485714285714 -0.9914628571428571 0.5230971428571428 -0.3973028571428571 0.2573942857142857 -0.928022857142857 0.14397714285714286 -1.1854171428571427 -0.2533142857142857 -0.2573942857142857 -0.3972914285714285 -0.1439885714285714 -0.928022857142857 0.2533028571428571 -1.1854171428571427 0.39776 -0.2576948571428571 0.8200114285714285 -0.4811485714285714 1.262582857142857 -0.6660937142857143 0.43678857142857136 -0.18252571428571426 0.9388342857142856 0.023590857142857143 1.12136 0.4603737142857143ZM2.7373371428571427 4.560502857142857c0.2594285714285714 -0.39597714285714286 0.14873142857142857 -0.92728 -0.2472457142857143 -1.1866971428571427 -0.39597714285714286 -0.25941714285714285 -0.92728 -0.14872 -1.1866971428571427 0.24725714285714284 -0.24388914285714286 0.3722628571428571 -0.45767771428571424 0.7662285714285714 -0.6378331428571429 1.1784685714285714 -0.189568 0.43377142857142853 0.008398857142857142 0.9390857142857142 0.44217142857142855 1.1286628571428572 0.433776 0.18956571428571425 0.9390902857142857 -0.0084 1.1286559999999999 -0.44217142857142855 0.14135999999999999 -0.3234742857142857 0.3092457142857143 -0.6328914285714285 0.5009485714285714 -0.92552ZM0.8565851428571427 7.14302857142857c0.4733919999999999 0 0.8571405714285715 0.38374857142857144 0.8571405714285715 0.8571428571428571 0 0.42302857142857136 0.041645714285714286 0.8354742857142857 0.12079999999999999 1.233725714285714 0.09228571428571428 0.4643085714285714 -0.20930285714285712 0.9155085714285713 -0.6736 1.0077942857142856 -0.4643085714285714 0.09228571428571428 -0.9155108571428571 -0.20930285714285712 -1.0077931428571427 -0.6736114285714285 -0.10090925714285714 -0.5077028571428571 -0.15369060685714286 -1.0320685714285713 -0.15369060685714286 -1.5679085714285714 0 -0.47339428571428566 0.3837557497142857 -0.8571428571428571 0.8571431782857143 -0.8571428571428571ZM5.15848 5.9836342857142855c0 -0.96648 1.0614171428571428 -1.4292114285714284 1.8155542857142857 -1.0425371428571428l3.9324914285714283 2.016377142857143c0.8682171428571428 0.4451885714285714 0.8682171428571428 1.6398857142857142 0 2.085062857142857L6.974034285714286 11.058914285714286c-0.7541371428571427 0.38668571428571424 -1.8155542857142857 -0.07604571428571429 -1.8155542857142857 -1.0425371428571428V5.9836342857142855Z" clip-rule="evenodd" stroke-width="1.1429"></path></g></svg>