<svg width="16" height="16" viewBox="0 0 16 16" fill="none" xmlns="http://www.w3.org/2000/svg">
<g clip-path="url(#clip0_124902_52004)">
<mask id="mask0_124902_52004" style="mask-type:alpha" maskUnits="userSpaceOnUse" x="0" y="0" width="16" height="16">
<path fill-rule="evenodd" clip-rule="evenodd" d="M13.1429 0.857143C13.1429 0.383755 12.7591 0 12.2857 0C11.8123 0 11.4286 0.383755 11.4286 0.857143V2.85714H9.42857C8.95519 2.85714 8.57143 3.2409 8.57143 3.71429C8.57143 4.18767 8.95519 4.57143 9.42857 4.57143H11.4286V6.57143C11.4286 7.04481 11.8123 7.42857 12.2857 7.42857C12.7591 7.42857 13.1429 7.04481 13.1429 6.57143V4.57143H15.1429C15.6162 4.57143 16 4.18767 16 3.71429C16 3.2409 15.6162 2.85714 15.1429 2.85714H13.1429V0.857143ZM7.15391 3.48805C7.14659 3.56247 7.14286 3.63794 7.14286 3.71429C7.14286 4.97665 8.16621 6 9.42857 6H10V6.57143C10 7.83379 11.0233 8.85714 12.2857 8.85714C12.3621 8.85714 12.4375 8.85341 12.512 8.84609C12.5512 9.12987 12.5714 9.41971 12.5714 9.71429C12.5714 13.1858 9.75722 16 6.28571 16C2.81421 16 0 13.1858 0 9.71429C0 6.24278 2.81421 3.42857 6.28571 3.42857C6.58029 3.42857 6.87013 3.44883 7.15391 3.48805ZM3.12072 8C3.12072 8.55229 3.56843 9 4.12072 9C4.67301 9 5.12072 8.55229 5.12072 8C5.12072 7.44771 4.67301 7 4.12072 7C3.56843 7 3.12072 7.44771 3.12072 8ZM3.22501 10.0436C3.60311 9.9311 4.00085 10.1464 4.11337 10.5245C4.39213 11.4611 5.26032 12.143 6.2859 12.143C7.31149 12.143 8.17968 11.4611 8.45843 10.5245C8.57096 10.1464 8.9687 9.9311 9.3468 10.0436C9.72489 10.1562 9.94018 10.5539 9.82766 10.932C9.37358 12.4577 7.96074 13.5715 6.2859 13.5715C4.61106 13.5715 3.19823 12.4577 2.74415 10.932C2.63162 10.5539 2.84691 10.1562 3.22501 10.0436ZM7.12072 8C7.12072 8.55229 7.56843 9 8.12072 9C8.67301 9 9.12072 8.55229 9.12072 8C9.12072 7.44771 8.67301 7 8.12072 7C7.56843 7 7.12072 7.44771 7.12072 8Z" fill="#000"/>
</mask>
<g mask="url(#mask0_124902_52004)">
<rect width="16" height="16" fill="#000"/>
</g>
</g>
<defs>
<clipPath id="clip0_124902_52004">
<rect width="16" height="16" fill="white"/>
</clipPath>
</defs>
</svg>
