<svg xmlns="http://www.w3.org/2000/svg" fill="none" viewBox="0 0 14 14"><g id="copy-paste--clipboard-copy-cut-paste"><g id="Vector"><path fill="#000000" fill-rule="evenodd" d="M1.42417.269439C1.56667.0986972 1.77759 0 1.99998 0h5.00001c.22239 0 .43331.0986972.57581.269439.1425.170743.20187.39592.16209.614725l-.02382.130996C8.4411 1.11905 9 1.74425 9 2.5v.75H7.25c-1.65685 0-3 1.34315-3 3V11H1.5C.671573 11 0 10.3284 0 9.5v-7c0-.75574.55889-1.38094 1.2859-1.48484L1.26208.884164c-.03978-.218805.01959-.443982.16209-.614725ZM2.89864 1.5l.11531.63416c.06484.35662.37543.61584.7379.61584h1.49627c.36247 0 .67306-.25922.7379-.61584L6.10133 1.5H2.89864Z" clip-rule="evenodd"></path><path fill="#000000" fill-rule="evenodd" d="M7.25 4.5c-.9665 0-1.75.7835-1.75 1.75v6c0 .9665.7835 1.75 1.75 1.75h5c.9665 0 1.75-.7835 1.75-1.75v-6c0-.9665-.7835-1.75-1.75-1.75h-5ZM7.875 8c0-.34518.27982-.625.625-.625H11c.3452 0 .625.27982.625.625s-.2798.625-.625.625H8.5c-.34518 0-.625-.27982-.625-.625ZM8.5 9.875c-.34518 0-.625.2798-.625.625s.27982.625.625.625H11c.3452 0 .625-.2798.625-.625s-.2798-.625-.625-.625H8.5Z" clip-rule="evenodd"></path></g></g></svg>