<svg xmlns="http://www.w3.org/2000/svg" width="16" height="16">
    <path fill="none" stroke="currentColor" stroke-linecap="round" stroke-linejoin="round" stroke-width="1.5" d="M12.706 14.58l-4.118-2.662c-.17-.11-.377-.17-.588-.17-.211 0-.417.06-.588.17L3.294 14.58a.553.553 0 01-.52.037.483.483 0 01-.2-.163.409.409 0 01-.074-.232v-12c0-.236.105-.462.293-.629.187-.166.442-.26.707-.26h9c.265 0 .52.094.707.26a.842.842 0 01.293.629v12a.41.41 0 01-.074.232.483.483 0 01-.2.163.553.553 0 01-.52-.037v0z"/>
</svg>
