<svg xmlns="http://www.w3.org/2000/svg" viewBox="0 0 24 24" height="24" width="24"><g><path d="M23.25 0h-8a0.74 0.74 0 0 0 -0.69 0.47 0.74 0.74 0 0 0 0.16 0.81L18 4.51l-9.45 9.3a1 1 0 0 0 0 1.41 1 1 0 0 0 0.71 0.3 1 1 0 0 0 0.7 -0.28l9.48 -9.33 3.29 3.24a0.74 0.74 0 0 0 0.53 0.22 0.72 0.72 0 0 0 0.29 -0.06 0.74 0.74 0 0 0 0.45 -0.69V0.75a0.76 0.76 0 0 0 -0.75 -0.75Z" fill="#000000" stroke-width="1"></path><path d="M18.5 10.62a1 1 0 0 0 -1 1V22H2V6.5h10.37a1 1 0 0 0 0 -2H1.87A1.87 1.87 0 0 0 0 6.37v15.75A1.88 1.88 0 0 0 1.87 24h15.75a1.88 1.88 0 0 0 1.88 -1.88v-10.5a1 1 0 0 0 -1 -1Z" fill="#000000" stroke-width="1"></path></g></svg>
