<svg xmlns="http://www.w3.org/2000/svg" width="16" height="16" fill="none" viewBox="0 0 16 16">
    <g fill="currentColor" clip-path="url(#clip0)">
        <path d="M5.71436 2.28571C5.71436 2.89192 5.95517 3.4733 6.38383 3.90196 6.81248 4.33061 7.39386 4.57143 8.00007 4.57143 8.60628 4.57143 9.18766 4.33061 9.61631 3.90196 10.045 3.4733 10.2858 2.89192 10.2858 2.28571 10.2858 1.67951 10.045 1.09812 9.61631.66947 9.18766.240816 8.60628 0 8.00007 0 7.39386 0 6.81248.240816 6.38383.66947 5.95517 1.09812 5.71436 1.67951 5.71436 2.28571ZM5.71436 8.00007C5.71436 8.60628 5.95517 9.18766 6.38383 9.61631 6.81248 10.045 7.39386 10.2858 8.00007 10.2858 8.60628 10.2858 9.18766 10.045 9.61631 9.61631 10.045 9.18766 10.2858 8.60628 10.2858 8.00007 10.2858 7.39386 10.045 6.81248 9.61631 6.38383 9.18766 5.95517 8.60628 5.71436 8.00007 5.71436 7.39386 5.71436 6.81248 5.95517 6.38383 6.38383 5.95517 6.81248 5.71436 7.39386 5.71436 8.00007ZM5.71436 13.7142C5.71436 14.3204 5.95517 14.9018 6.38383 15.3304 6.81248 15.7591 7.39386 15.9999 8.00007 15.9999 8.60628 15.9999 9.18766 15.7591 9.61631 15.3304 10.045 14.9018 10.2858 14.3204 10.2858 13.7142 10.2858 13.108 10.045 12.5266 9.61631 12.0979 9.18766 11.6693 8.60628 11.4285 8.00007 11.4285 7.39386 11.4285 6.81248 11.6693 6.38383 12.0979 5.95517 12.5266 5.71436 13.108 5.71436 13.7142Z"/>
    </g>
</svg>
