<svg xmlns="http://www.w3.org/2000/svg" fill="none" viewBox="0 0 24 24" height="24" width="24" id="Pin-1--Streamline-Core.svg"><desc>Pin 1 Streamline Icon: https://streamlinehq.com</desc><g id="Pin-1--Streamline-Core.svg"><path id="Union" fill="#000000" fill-rule="evenodd" d="M15.653142857142857 0.02357982857142857c0.37952571428571424 -0.0517548 0.76584 -0.01806372 1.1306742857142857 0.09861154285714285 0.36486857142857143 0.11667548571428571 0.6989828571428571 0.31338634285714284 0.9780685714285715 0.5757612l0.01902857142857143 0.018401142857142855 5.502857142857143 5.502852 0.01834285714285714 0.018977142857142856c0.2624571428571429 0.27908571428571427 0.4590857142857142 0.6132514285714286 0.5758285714285714 0.978102857142857 0.11657142857142858 0.3648342857142857 0.15034285714285714 0.7511485714285714 0.09857142857142857 1.1306742857142857 -0.05177142857142857 0.3795428571428571 -0.1877142857142857 0.7427142857142857 -0.3977142857142857 1.0630114285714285 -0.21017142857142856 0.32027999999999995 -0.48908571428571423 0.5895771428571428 -0.8166857142857142 0.7882114285714285l-0.013714285714285714 0.008314285714285713 0 -0.00013714285714285713 -4.430914285714286 2.575371428571428 -1.7318228571428569 7.253982857142857 -0.0035828571428571424 0.015085714285714286 -0.00013714285714285713 -0.00017142857142857143c-0.08175428571428571 0.31731428571428566 -0.24399428571428572 0.6078857142857143 -0.471 0.8439428571428571 -0.2270228571428571 0.23605714285714283 -0.5111142857142857 0.4095428571428571 -0.8248285714285715 0.5036571428571428 -0.31369714285714284 0.0941142857142857 -0.6463714285714285 0.10577142857142856 -0.9658457142857142 0.0336 -0.3194742857142857 -0.07217142857142857 -0.6149142857142857 -0.22559999999999997 -0.85776 -0.44519999999999993 -0.01073142857142857 -0.009771428571428572 -0.021205714285714286 -0.019714285714285712 -0.031439999999999996 -0.030000000000000002l-10.542857142857143 -10.560017142857141 -0.00989142857142857 -0.009908571428571428 0.00006857142857142857 -0.00008571428571428571c-0.23072571428571426 -0.2388 -0.39432 -0.5342914285714285 -0.4742228571428571 -0.8566114285714286 -0.07988571428571428 -0.32230285714285717 -0.07326857142857142 -0.66 0.019234285714285714 -0.9789257142857142 0.09248571428571428 -0.3189257142857143 0.2675485714285714 -0.6077657142857142 0.50748 -0.8373257142857142 0.23994857142857143 -0.22956 0.5362457142857142 -0.39169714285714285 0.8589428571428571 -0.4699885714285714l0.015754285714285714 -0.003822857142857143 0.00003428571428571428 0.00013714285714285713 7.340777142857142 -1.6349142857142855L13.801919999999997 1.2379525714285713l0.00041142857142857143 -0.0006908571428571428 0.00008571428571428571 -0.00014571428571428572c0.19859999999999997 -0.32715428571428573 0.4677085714285714 -0.6058628571428571 0.7877142857142857 -0.8157857142857142 0.32029714285714284 -0.21010285714285715 0.6834685714285714 -0.3459956571428571 1.0630114285714285 -0.3977504571428571ZM0.3765651428571428 21.80622857142857 5.818268571428571 16.3644l1.8168 1.8197142857142858 -5.4402 5.440457142857142c-0.5021005714285713 0.5021142857142856 -1.3161702857142856 0.5021142857142856 -1.8182794285714283 0 -0.5021094857142857 -0.5021142857142856 -0.5021201142857142 -1.3162285714285715 -0.000024 -1.818342857142857Z" clip-rule="evenodd" stroke-width="1"></path></g></svg>
