<svg xmlns="http://www.w3.org/2000/svg" fill="none" viewBox="0 0 16 16" height="16" width="16">
  <desc>
    Calendar Mark Streamline Icon
  </desc>
  <g id="calendar-mark--calendar-date-day-month-mark">
    <path id="Subtract" fill="#000000" fill-rule="evenodd" d="M5.142857142857142 1.7142857142857142c0 -0.6311828571428572 -0.51168 -1.1428571428571428 -1.1428571428571428 -1.1428571428571428s-1.1428571428571428 0.5116742857142856 -1.1428571428571428 1.1428571428571428v1.1428571428571428H2.2857142857142856C1.3389371428571428 2.8571428571428568 0.5714285714285714 3.624651428571428 0.5714285714285714 4.571428571428571v9.142857142857142c0 0.9467428571428571 0.7675085714285714 1.7142857142857142 1.7142857142857142 1.7142857142857142h11.428571428571427c0.9467428571428571 0 1.7142857142857142 -0.7675428571428571 1.7142857142857142 -1.7142857142857142V4.571428571428571c0 -0.9467771428571428 -0.7675428571428571 -1.7142857142857142 -1.7142857142857142 -1.7142857142857142h-0.5714285714285714v-1.1428571428571428c0 -0.6311828571428572 -0.5116571428571428 -1.1428571428571428 -1.1428571428571428 -1.1428571428571428 -0.6311885714285713 0 -1.1428571428571428 0.5116742857142856 -1.1428571428571428 1.1428571428571428v1.1428571428571428h-5.7142857142857135v-1.1428571428571428Zm-1.1428571428571428 6.571428571428571c0.6311771428571428 0 1.1428571428571428 -0.51168 1.1428571428571428 -1.1428571428571428s-0.51168 -1.1428571428571428 -1.1428571428571428 -1.1428571428571428 -1.1428571428571428 0.51168 -1.1428571428571428 1.1428571428571428 0.51168 1.1428571428571428 1.1428571428571428 1.1428571428571428Zm4 0c0.6311771428571428 0 1.1428571428571428 -0.51168 1.1428571428571428 -1.1428571428571428s-0.51168 -1.1428571428571428 -1.1428571428571428 -1.1428571428571428 -1.1428571428571428 0.51168 -1.1428571428571428 1.1428571428571428 0.51168 1.1428571428571428 1.1428571428571428 1.1428571428571428Zm-2.8571428571428568 3.4285714285714284c0 0.6312 -0.51168 1.1428571428571428 -1.1428571428571428 1.1428571428571428s-1.1428571428571428 -0.5116571428571428 -1.1428571428571428 -1.1428571428571428c0 -0.6311885714285713 0.51168 -1.1428571428571428 1.1428571428571428 -1.1428571428571428s1.1428571428571428 0.5116685714285714 1.1428571428571428 1.1428571428571428Zm2.8571428571428568 1.1428571428571428c0.6311771428571428 0 1.1428571428571428 -0.5116571428571428 1.1428571428571428 -1.1428571428571428 0 -0.6311885714285713 -0.51168 -1.1428571428571428 -1.1428571428571428 -1.1428571428571428s-1.1428571428571428 0.5116685714285714 -1.1428571428571428 1.1428571428571428c0 0.6312 0.51168 1.1428571428571428 1.1428571428571428 1.1428571428571428Zm5.142857142857142 -5.7142857142857135c0 0.6311771428571428 -0.5116571428571428 1.1428571428571428 -1.1428571428571428 1.1428571428571428 -0.6311885714285713 0 -1.1428571428571428 -0.51168 -1.1428571428571428 -1.1428571428571428s0.5116685714285714 -1.1428571428571428 1.1428571428571428 -1.1428571428571428c0.6312 0 1.1428571428571428 0.51168 1.1428571428571428 1.1428571428571428Z" clip-rule="evenodd" stroke-width="1.1429"></path>
  </g>
</svg>
