<svg width="16" height="16" viewBox="0 0 16 16" fill="none" xmlns="http://www.w3.org/2000/svg">
<mask id="mask0_124902_52001" style="mask-type:alpha" maskUnits="userSpaceOnUse" x="0" y="0" width="16" height="16">
<path fill-rule="evenodd" clip-rule="evenodd" d="M10.2857 0.571446C10.2857 0.340323 10.1465 0.13196 9.93296 0.0435141C9.71943 -0.0449321 9.47366 0.00395682 9.31023 0.167384L7.59594 1.88167C7.37278 2.10482 7.37278 2.46664 7.59594 2.68979L9.31023 4.40408C9.47366 4.56751 9.71943 4.61639 9.93296 4.52794C10.1465 4.4395 10.2857 4.23114 10.2857 4.00001V3.14286H14C14.0758 3.14286 14.1485 3.17296 14.2021 3.22654C14.2557 3.28013 14.2857 3.3528 14.2857 3.42857V11.1429C14.2857 11.2186 14.2557 11.2913 14.2021 11.3449C14.1485 11.3985 14.0758 11.4286 14 11.4286H7.56571C7.37086 11.4286 7.18181 11.495 7.02974 11.6168L4.85714 13.3577V12.2857C4.85714 11.8123 4.47338 11.4286 4 11.4286H2C1.92423 11.4286 1.85155 11.3985 1.79797 11.3449C1.74439 11.2913 1.71429 11.2186 1.71429 11.1429V3.42857C1.71429 3.3528 1.74439 3.28013 1.79797 3.22654C1.85155 3.17296 1.92423 3.14286 2 3.14286H5.14286C5.61624 3.14286 6 2.7591 6 2.28571C6 1.81233 5.61624 1.42857 5.14286 1.42857H2C1.46957 1.42857 0.960859 1.63928 0.585786 2.01435C0.210714 2.38943 0 2.89814 0 3.42857V11.1429C0 11.6733 0.210714 12.1819 0.585786 12.557C0.960859 12.9321 1.46957 13.1429 2 13.1429H3.14286V15.1429C3.14286 15.4725 3.33186 15.7729 3.62899 15.9155C3.92614 16.0582 4.27875 16.0178 4.53598 15.8118L7.86675 13.1429H14C14.5304 13.1429 15.0391 12.9321 15.4142 12.557C15.7893 12.1819 16 11.6733 16 11.1429V3.42857C16 2.89814 15.7893 2.38943 15.4142 2.01435C15.0391 1.63928 14.5304 1.42857 14 1.42857H10.2857V0.571446ZM4.85714 8.71429C5.48832 8.71429 6 8.20261 6 7.57143C6 6.94025 5.48832 6.42857 4.85714 6.42857C4.22597 6.42857 3.71429 6.94025 3.71429 7.57143C3.71429 8.20261 4.22597 8.71429 4.85714 8.71429ZM8 8.71429C8.63118 8.71429 9.14286 8.20261 9.14286 7.57143C9.14286 6.94025 8.63118 6.42857 8 6.42857C7.36882 6.42857 6.85714 6.94025 6.85714 7.57143C6.85714 8.20261 7.36882 8.71429 8 8.71429ZM12.2857 7.57143C12.2857 8.20261 11.7741 8.71429 11.1429 8.71429C10.5117 8.71429 10 8.20261 10 7.57143C10 6.94025 10.5117 6.42857 11.1429 6.42857C11.7741 6.42857 12.2857 6.94025 12.2857 7.57143Z" fill="#000"/>
</mask>
<g mask="url(#mask0_124902_52001)">
<rect width="16" height="16" fill="#000"/>
</g>
</svg>
