<svg xmlns="http://www.w3.org/2000/svg" viewBox="0 0 16 16">
<title>accessibility</title>
<g id="accessibility--accessibility-assistive-technology-circle"><path id="Union" fill="#000000" fill-rule="evenodd" d="M0 8c0 -4.418274285714285 3.581725714285714 -8 8 -8 4.418285714285714 0 8 3.581725714285714 8 8 0 4.418285714285714 -3.5817142857142854 8 -8 8 -4.418274285714285 0 -8 -3.5817142857142854 -8 -8Zm8 -5.142857142857142c-0.9467771428571428 0 -1.7142857142857142 0.7675085714285714 -1.7142857142857142 1.7142857142857142S7.053222857142857 6.285714285714286 8 6.285714285714286 9.714285714285714 5.518205714285714 9.714285714285714 4.571428571428571 8.946777142857142 2.8571428571428568 8 2.8571428571428568ZM4.571428571428571 7.285714285714286c-0.39449142857142855 0 -0.7142857142857142 0.3197942857142857 -0.7142857142857142 0.7142857142857142s0.3197942857142857 0.7142857142857142 0.7142857142857142 0.7142857142857142h2.714285714285714v0.002937142857142857c0 0.8577371428571428 -0.28589714285714285 1.6909942857142854 -0.8125028571428571 2.368057142857143l-1.03704 1.3333485714285713c-0.24218285714285712 0.31142857142857144 -0.18609142857142857 0.7601142857142857 0.12530285714285713 1.0022857142857142 0.31138285714285713 0.24228571428571427 0.76016 0.18617142857142854 1.0023542857142855 -0.12525714285714284l1.0370285714285714 -1.3333714285714287c0.14689142857142856 -0.1888 0.2801142857142857 -0.3865142857142857 0.39914285714285713 -0.5916 0.11902857142857143 0.20508571428571426 0.25225142857142857 0.40279999999999994 0.39914285714285713 0.5916l1.0370285714285714 1.3333714285714287c0.2421942857142857 0.31142857142857144 0.6909714285714286 0.3675428571428571 1.0023542857142855 0.12525714285714284 0.3113942857142857 -0.24217142857142857 0.36748571428571425 -0.6908571428571428 0.12530285714285713 -1.0022857142857142l-1.03704 -1.3333485714285713C9.000182857142857 10.408217142857142 8.714285714285714 9.574959999999999 8.714285714285714 8.717222857142858V8.714285714285714H11.428571428571427c0.3945142857142857 0 0.7142857142857142 -0.3197942857142857 0.7142857142857142 -0.7142857142857142s-0.31977142857142854 -0.7142857142857142 -0.7142857142857142 -0.7142857142857142H4.571428571428571Z" clip-rule="evenodd" stroke-width="1.1429"></path></g></svg>