<svg xmlns="http://www.w3.org/2000/svg" width="16" height="16" fill="none" viewBox="0 0 16 16">
    <path fill="#000" d="M9.45727 8.17473C9.43578 8.15329 9.41873 8.12782 9.4071 8.09979C9.39546 8.07175 9.38948 8.04169 9.38948 8.01134C9.38948 7.98099 9.39546 7.95093 9.4071 7.92289C9.41873 7.89486 9.43578 7.86939 9.45727 7.84796L13.7182 3.58703C13.8064 3.50188 13.8767 3.40003 13.9251 3.28741C13.9734 3.17479 13.9989 3.05366 14 2.9311C14.001 2.80853 13.9777 2.68698 13.9313 2.57354C13.8848 2.4601 13.8163 2.35703 13.7296 2.27036C13.643 2.18369 13.5399 2.11515 13.4265 2.06874C13.313 2.02233 13.1915 1.99897 13.0689 2.00003C12.9463 2.0011 12.8252 2.02656 12.7126 2.07494C12.6 2.12332 12.4981 2.19364 12.413 2.2818L8.15204 6.54273C8.1306 6.56422 8.10514 6.58127 8.0771 6.5929C8.04907 6.60453 8.01901 6.61052 7.98866 6.61052C7.9583 6.61052 7.92825 6.60453 7.90021 6.5929C7.87217 6.58127 7.84671 6.56422 7.82527 6.54273L3.56435 2.2818C3.39026 2.11366 3.15708 2.02062 2.91506 2.02272C2.67303 2.02482 2.44151 2.1219 2.27036 2.29305C2.09922 2.46419 2.00214 2.69571 2.00003 2.93774C1.99793 3.17977 2.09097 3.41294 2.25912 3.58703L6.52004 7.84796C6.54153 7.86939 6.55858 7.89486 6.57022 7.92289C6.58185 7.95093 6.58784 7.98099 6.58784 8.01134C6.58784 8.04169 6.58185 8.07175 6.57022 8.09979C6.55858 8.12782 6.54153 8.15329 6.52004 8.17473L2.25912 12.4356C2.09097 12.6097 1.99793 12.8429 2.00003 13.0849C2.00214 13.327 2.09922 13.5585 2.27036 13.7296C2.44151 13.9008 2.67303 13.9979 2.91506 14C3.15708 14.0021 3.39026 13.909 3.56435 13.7409L7.82527 9.47996C7.84671 9.45846 7.87217 9.44141 7.90021 9.42978C7.92825 9.41815 7.9583 9.41216 7.98866 9.41216C8.01901 9.41216 8.04907 9.41815 8.0771 9.42978C8.10514 9.44141 8.1306 9.45846 8.15204 9.47996L12.413 13.7409C12.5871 13.909 12.8202 14.0021 13.0623 14C13.3043 13.9979 13.5358 13.9008 13.707 13.7296C13.8781 13.5585 13.9752 13.327 13.9773 13.0849C13.9794 12.8429 13.8863 12.6097 13.7182 12.4356L9.45727 8.17473Z"/>
</svg>
