<svg xmlns="http://www.w3.org/2000/svg" fill="none" viewBox="0 0 14 14" id="Dislike-1--Streamline-Core.svg"><desc>Dislike 1 Streamline Icon: https://streamlinehq.com</desc><g id="dislike-1--reward-down-thumb-hand-social-media-dislike-rating"><path id="Union" fill="#000000" fill-rule="evenodd" d="M4.45799 1.24322C4.79396 1.08309 5.16144 1 5.53361 1L10.8797 0.999999c1.2316 0 2.2797 0.897001 2.47 2.113851l0.6258 4.00326c0.1897 1.213 -0.7482 2.30892 -1.976 2.30892l-3.28369 0 0 2.35757c0 0.8976 -0.72765 1.6253 -1.62525 1.6253 -0.5883 0 -1.13067 -0.3179 -1.41809 -0.8312L3.59513 8.86759c-0.12536 -0.2239 -0.19119 -0.47622 -0.19119 -0.73282l-0.00001 -5.44243c0 -0.57837 0.33252 -1.10522 0.85463 -1.35407l0.19943 -0.09505ZM0.996355 8.68436c-0.264249 0 -0.517676 -0.10498 -0.704529 -0.29183C0.104973 8.20568 6.078e-7 7.95225 5.847e-7 7.688l-4.47e-7 -5.11262C1.147e-7 2.31113 0.104973 2.0577 0.291826 1.87085c0.186853 -0.18686 0.440279 -0.29183 0.704529 -0.29183l0.000215 0 0.49635 0.00022c0.27606 0.00011 0.49979 0.22394 0.49979 0.5l0 6.10533c0 0.13265 -0.05271 0.25985 -0.14652 0.35363 -0.09382 0.09377 -0.22105 0.14643 -0.3537 0.14637l-0.496135 -0.00021Z" clip-rule="evenodd" stroke-width="1"></path></g></svg>