<svg width="16" height="16" viewBox="0 0 16 16" xmlns="http://www.w3.org/2000/svg">
<path fill-rule="evenodd" clip-rule="evenodd" d="M5.14286 4.57143C6.40523 4.57143 7.42858 3.54808 7.42858 2.28571C7.42858 1.02335 6.40523 0 5.14286 0C3.8805 0 2.85715 1.02335 2.85715 2.28571C2.85715 3.54808 3.8805 4.57143 5.14286 4.57143ZM5.14286 10.2857C6.40523 10.2857 7.42858 9.26237 7.42858 8C7.42858 6.73763 6.40523 5.71429 5.14286 5.71429C3.8805 5.71429 2.85715 6.73763 2.85715 8C2.85715 9.26237 3.8805 10.2857 5.14286 10.2857ZM7.42858 13.7143C7.42858 14.9767 6.40523 16 5.14286 16C3.8805 16 2.85715 14.9767 2.85715 13.7143C2.85715 12.4519 3.8805 11.4286 5.14286 11.4286C6.40523 11.4286 7.42858 12.4519 7.42858 13.7143ZM10.8571 4.57143C12.1195 4.57143 13.1429 3.54808 13.1429 2.28571C13.1429 1.02335 12.1195 0 10.8571 0C9.59478 0 8.57143 1.02335 8.57143 2.28571C8.57143 3.54808 9.59478 4.57143 10.8571 4.57143ZM13.1429 8C13.1429 9.26237 12.1195 10.2857 10.8571 10.2857C9.59478 10.2857 8.57143 9.26237 8.57143 8C8.57143 6.73763 9.59478 5.71429 10.8571 5.71429C12.1195 5.71429 13.1429 6.73763 13.1429 8ZM10.8571 16C12.1195 16 13.1429 14.9767 13.1429 13.7143C13.1429 12.4519 12.1195 11.4286 10.8571 11.4286C9.59478 11.4286 8.57143 12.4519 8.57143 13.7143C8.57143 14.9767 9.59478 16 10.8571 16Z" fill="black"/>
</svg>
