<svg xmlns="http://www.w3.org/2000/svg" viewBox="0 0 24 24" height="24" width="24"><g><path d="M16.19 3.51a0.51 0.51 0 0 0 -0.71 0L4.07 14.92a0.5 0.5 0 0 0 0 0.71l4.28 4.28a0.48 0.48 0 0 0 0.7 0L20.47 8.5a0.51 0.51 0 0 0 0 -0.71Z" fill="#0000000" stroke-width="1"></path><path d="M3 16.71a0.51 0.51 0 0 0 -0.47 -0.13 0.48 0.48 0 0 0 -0.36 0.33L0 23.33a0.49 0.49 0 0 0 0.12 0.51 0.5 0.5 0 0 0 0.54 0.16l6.42 -2.14a0.52 0.52 0 0 0 0.33 -0.36 0.49 0.49 0 0 0 -0.14 -0.5Z" fill="#0000000" stroke-width="1"></path><path d="M23 1a3.6 3.6 0 0 0 -5 0l-0.71 0.71a0.5 0.5 0 0 0 0 0.71l4.28 4.28a0.51 0.51 0 0 0 0.7 0L23 6a3.53 3.53 0 0 0 0 -5Z" fill="#0000000" stroke-width="1"></path></g></svg>
