<svg width="486" height="232" viewBox="0 0 486 232" fill="none" xmlns="http://www.w3.org/2000/svg">
<path d="M3 94C3 92.8954 3.89543 92 5 92H481C482.105 92 483 92.8954 483 94V138C483 139.105 482.105 140 481 140H5C3.89543 140 3 139.105 3 138V94Z" fill="#1557FF"/>
<g clip-path="url(#clip0_62138_80315)">
<mask id="mask0_62138_80315" style="mask-type:alpha" maskUnits="userSpaceOnUse" x="15" y="108" width="16" height="16">
<path d="M23 108C21.4178 108 19.871 108.469 18.5554 109.348C17.2398 110.227 16.2145 111.477 15.609 112.939C15.0035 114.4 14.845 116.009 15.1537 117.561C15.4624 119.113 16.2243 120.538 17.3431 121.657C18.462 122.776 19.8874 123.538 21.4393 123.846C22.9911 124.155 24.5997 123.997 26.0615 123.391C27.5233 122.786 28.7727 121.76 29.6518 120.445C30.5308 119.129 31 117.582 31 116C30.9976 113.879 30.154 111.846 28.6542 110.346C27.1544 108.846 25.121 108.002 23 108V108ZM23.8571 120C23.8571 120.227 23.7668 120.445 23.6061 120.606C23.4454 120.767 23.2273 120.857 23 120.857C22.7727 120.857 22.5547 120.767 22.3939 120.606C22.2332 120.445 22.1429 120.227 22.1429 120V116C22.1429 115.773 22.2332 115.555 22.3939 115.394C22.5547 115.233 22.7727 115.143 23 115.143C23.2273 115.143 23.4454 115.233 23.6061 115.394C23.7668 115.555 23.8571 115.773 23.8571 116V120ZM23 113.714C22.774 113.714 22.553 113.647 22.3651 113.522C22.1771 113.396 22.0306 113.218 21.9441 113.009C21.8576 112.8 21.835 112.57 21.8791 112.348C21.9232 112.127 22.0321 111.923 22.1919 111.763C22.3517 111.603 22.5554 111.495 22.777 111.451C22.9987 111.406 23.2285 111.429 23.4374 111.516C23.6462 111.602 23.8247 111.749 23.9503 111.936C24.0758 112.124 24.1429 112.345 24.1429 112.571C24.1429 112.875 24.0225 113.165 23.8081 113.38C23.5938 113.594 23.3031 113.714 23 113.714Z" fill="white"/>
</mask>
<g mask="url(#mask0_62138_80315)">
<rect x="15" y="108" width="16" height="16" fill="white"/>
</g>
</g>
<path d="M51.144 109.8H52.456L56.408 121H54.952L53.928 117.992H49.672L48.648 121H47.176L51.144 109.8ZM53.512 116.696L51.8 111.672L50.088 116.696H53.512ZM57.7938 109.672H59.1218V121H57.7938V109.672ZM68.3441 117.176H62.4081C62.4401 117.997 62.6641 118.664 63.0801 119.176C63.4961 119.688 64.0615 119.944 64.7761 119.944C65.3308 119.944 65.7841 119.821 66.1361 119.576C66.4881 119.331 66.8028 118.931 67.0801 118.376L68.2001 118.856C67.8161 119.645 67.3468 120.221 66.7921 120.584C66.2481 120.947 65.5655 121.128 64.7441 121.128C63.9868 121.128 63.3308 120.941 62.7761 120.568C62.2215 120.184 61.7948 119.677 61.4961 119.048C61.2081 118.408 61.0641 117.715 61.0641 116.968C61.0641 116.211 61.2081 115.517 61.4961 114.888C61.7948 114.248 62.2215 113.741 62.7761 113.368C63.3308 112.995 63.9868 112.808 64.7441 112.808C65.4801 112.808 66.1201 112.979 66.6641 113.32C67.2081 113.661 67.6241 114.12 67.9121 114.696C68.2001 115.272 68.3441 115.912 68.3441 116.616V117.176ZM67.0001 116.04C66.9041 115.411 66.6641 114.915 66.2801 114.552C65.8961 114.179 65.3841 113.992 64.7441 113.992C64.1895 113.992 63.7095 114.168 63.3041 114.52C62.8988 114.872 62.6268 115.379 62.4881 116.04H67.0001ZM71.6218 112.936V114.328C71.8778 113.837 72.2084 113.464 72.6138 113.208C73.0191 112.941 73.4778 112.808 73.9898 112.808C74.3418 112.808 74.7204 112.888 75.1258 113.048L74.8538 114.28C74.5231 114.099 74.1764 114.008 73.8138 114.008C73.1738 114.008 72.6458 114.344 72.2298 115.016C71.8244 115.688 71.6218 116.669 71.6218 117.96V121H70.2938V112.936H71.6218ZM79.7158 121.128C78.9904 121.128 78.4198 120.915 78.0038 120.488C77.5878 120.051 77.3798 119.4 77.3798 118.536V114.12H76.0198V112.936H77.3798V110.52L78.7078 109.672V112.936H80.8678V114.12H78.7078V118.632C78.7078 119.507 79.0811 119.944 79.8278 119.944C80.1904 119.944 80.4998 119.869 80.7558 119.72L81.0918 120.84C80.7078 121.032 80.2491 121.128 79.7158 121.128ZM88.0124 112.936V114.488C88.2897 113.965 88.6364 113.555 89.0524 113.256C89.4684 112.957 89.9484 112.808 90.4924 112.808C91.0684 112.808 91.543 112.957 91.9164 113.256C92.3004 113.544 92.5617 113.976 92.7004 114.552C92.9777 114.029 93.3457 113.608 93.8044 113.288C94.263 112.968 94.7537 112.808 95.2764 112.808C96.823 112.808 97.5964 113.672 97.5964 115.4V121H96.2844V115.608C96.2844 115.053 96.183 114.648 95.9804 114.392C95.7777 114.125 95.447 113.992 94.9884 113.992C94.583 113.992 94.215 114.136 93.8844 114.424C93.5537 114.712 93.287 115.128 93.0844 115.672C92.8924 116.216 92.7964 116.856 92.7964 117.592V121H91.4844V115.608C91.4844 115.053 91.383 114.648 91.1804 114.392C90.9884 114.125 90.6577 113.992 90.1884 113.992C89.783 113.992 89.415 114.136 89.0844 114.424C88.7537 114.712 88.4924 115.133 88.3004 115.688C88.1084 116.243 88.0124 116.899 88.0124 117.656V121H86.6844V112.936H88.0124ZM106.813 117.176H100.877C100.909 117.997 101.133 118.664 101.549 119.176C101.965 119.688 102.53 119.944 103.245 119.944C103.8 119.944 104.253 119.821 104.605 119.576C104.957 119.331 105.272 118.931 105.549 118.376L106.669 118.856C106.285 119.645 105.816 120.221 105.261 120.584C104.717 120.947 104.034 121.128 103.213 121.128C102.456 121.128 101.8 120.941 101.245 120.568C100.69 120.184 100.264 119.677 99.9649 119.048C99.6769 118.408 99.5329 117.715 99.5329 116.968C99.5329 116.211 99.6769 115.517 99.9649 114.888C100.264 114.248 100.69 113.741 101.245 113.368C101.8 112.995 102.456 112.808 103.213 112.808C103.949 112.808 104.589 112.979 105.133 113.32C105.677 113.661 106.093 114.12 106.381 114.696C106.669 115.272 106.813 115.912 106.813 116.616V117.176ZM105.469 116.04C105.373 115.411 105.133 114.915 104.749 114.552C104.365 114.179 103.853 113.992 103.213 113.992C102.658 113.992 102.178 114.168 101.773 114.52C101.368 114.872 101.096 115.379 100.957 116.04H105.469ZM111.055 121.128C110.234 121.128 109.567 120.915 109.055 120.488C108.543 120.061 108.207 119.544 108.047 118.936L109.151 118.344C109.311 118.856 109.54 119.251 109.839 119.528C110.148 119.805 110.554 119.944 111.055 119.944C111.45 119.944 111.759 119.837 111.983 119.624C112.218 119.411 112.335 119.112 112.335 118.728C112.335 118.387 112.186 118.109 111.887 117.896C111.599 117.683 111.167 117.469 110.591 117.256C109.951 117.021 109.455 116.728 109.103 116.376C108.762 116.024 108.591 115.555 108.591 114.968C108.591 114.328 108.81 113.811 109.247 113.416C109.695 113.011 110.26 112.808 110.943 112.808C111.978 112.808 112.756 113.229 113.279 114.072L112.415 114.84C112.052 114.275 111.556 113.992 110.927 113.992C110.628 113.992 110.378 114.083 110.175 114.264C109.972 114.435 109.871 114.669 109.871 114.968C109.871 115.267 109.999 115.517 110.255 115.72C110.522 115.912 110.991 116.131 111.663 116.376C112.975 116.856 113.631 117.624 113.631 118.68C113.631 119.437 113.396 120.035 112.927 120.472C112.458 120.909 111.834 121.128 111.055 121.128ZM117.836 121.128C117.015 121.128 116.348 120.915 115.836 120.488C115.324 120.061 114.988 119.544 114.828 118.936L115.932 118.344C116.092 118.856 116.322 119.251 116.62 119.528C116.93 119.805 117.335 119.944 117.836 119.944C118.231 119.944 118.54 119.837 118.764 119.624C118.999 119.411 119.116 119.112 119.116 118.728C119.116 118.387 118.967 118.109 118.668 117.896C118.38 117.683 117.948 117.469 117.372 117.256C116.732 117.021 116.236 116.728 115.884 116.376C115.543 116.024 115.372 115.555 115.372 114.968C115.372 114.328 115.591 113.811 116.028 113.416C116.476 113.011 117.042 112.808 117.724 112.808C118.759 112.808 119.538 113.229 120.06 114.072L119.196 114.84C118.834 114.275 118.338 113.992 117.708 113.992C117.41 113.992 117.159 114.083 116.956 114.264C116.754 114.435 116.652 114.669 116.652 114.968C116.652 115.267 116.78 115.517 117.036 115.72C117.303 115.912 117.772 116.131 118.444 116.376C119.756 116.856 120.412 117.624 120.412 118.68C120.412 119.437 120.178 120.035 119.708 120.472C119.239 120.909 118.615 121.128 117.836 121.128ZM124.202 121.128C123.476 121.128 122.879 120.925 122.41 120.52C121.94 120.104 121.706 119.491 121.706 118.68C121.706 117.827 122.02 117.176 122.65 116.728C123.29 116.269 124.164 116.04 125.274 116.04H126.682V115.688C126.682 115.101 126.522 114.675 126.202 114.408C125.892 114.131 125.482 113.992 124.97 113.992C124.084 113.992 123.498 114.429 123.21 115.304L122.026 115.032C122.132 114.36 122.458 113.821 123.002 113.416C123.556 113.011 124.212 112.808 124.97 112.808C125.876 112.808 126.607 113.075 127.162 113.608C127.716 114.131 127.994 114.872 127.994 115.832V121H126.954L126.714 119.832C126.159 120.696 125.322 121.128 124.202 121.128ZM124.442 119.944C124.804 119.944 125.156 119.859 125.498 119.688C125.839 119.507 126.122 119.229 126.346 118.856C126.57 118.472 126.682 117.997 126.682 117.432V117.176H125.322C124.575 117.176 124.015 117.304 123.642 117.56C123.268 117.816 123.082 118.184 123.082 118.664C123.082 119.069 123.199 119.384 123.434 119.608C123.679 119.832 124.015 119.944 124.442 119.944ZM133.001 124.392C131.955 124.392 131.118 124.157 130.489 123.688C129.87 123.219 129.561 122.568 129.561 121.736C129.561 121.384 129.63 121.064 129.769 120.776C129.918 120.488 130.11 120.253 130.345 120.072C129.961 119.805 129.769 119.373 129.769 118.776C129.769 118.435 129.859 118.136 130.041 117.88C130.222 117.613 130.462 117.405 130.761 117.256C130.366 116.776 130.169 116.195 130.169 115.512C130.169 114.979 130.291 114.509 130.537 114.104C130.793 113.688 131.134 113.368 131.561 113.144C131.987 112.92 132.462 112.808 132.985 112.808C133.475 112.808 133.95 112.931 134.409 113.176L135.865 112.36L136.441 113.352L135.305 113.96C135.625 114.419 135.785 114.936 135.785 115.512C135.785 116.056 135.662 116.536 135.417 116.952C135.171 117.357 134.835 117.672 134.409 117.896C133.982 118.109 133.507 118.216 132.985 118.216C132.473 118.216 132.003 118.109 131.577 117.896C131.203 118.077 131.017 118.344 131.017 118.696C131.017 118.941 131.102 119.123 131.273 119.24C131.443 119.357 131.662 119.416 131.929 119.416H133.865C134.643 119.416 135.262 119.603 135.721 119.976C136.19 120.339 136.425 120.883 136.425 121.608C136.425 122.547 136.105 123.245 135.465 123.704C134.825 124.163 134.003 124.392 133.001 124.392ZM132.985 117.112C133.422 117.112 133.785 116.968 134.073 116.68C134.371 116.392 134.521 116.003 134.521 115.512C134.521 115.021 134.371 114.632 134.073 114.344C133.785 114.056 133.422 113.912 132.985 113.912C132.547 113.912 132.179 114.056 131.881 114.344C131.593 114.632 131.449 115.021 131.449 115.512C131.449 116.003 131.593 116.392 131.881 116.68C132.179 116.968 132.547 117.112 132.985 117.112ZM133.001 123.24C133.673 123.24 134.195 123.101 134.569 122.824C134.942 122.557 135.129 122.195 135.129 121.736C135.129 121.309 135.001 121.005 134.745 120.824C134.489 120.632 134.121 120.536 133.641 120.536H132.185C131.886 120.536 131.609 120.52 131.353 120.488C130.99 120.744 130.809 121.149 130.809 121.704C130.809 122.184 130.995 122.557 131.369 122.824C131.753 123.101 132.297 123.24 133.001 123.24ZM144.704 117.176H138.768C138.8 117.997 139.024 118.664 139.44 119.176C139.856 119.688 140.421 119.944 141.136 119.944C141.69 119.944 142.144 119.821 142.496 119.576C142.848 119.331 143.162 118.931 143.44 118.376L144.56 118.856C144.176 119.645 143.706 120.221 143.152 120.584C142.608 120.947 141.925 121.128 141.104 121.128C140.346 121.128 139.69 120.941 139.136 120.568C138.581 120.184 138.154 119.677 137.856 119.048C137.568 118.408 137.424 117.715 137.424 116.968C137.424 116.211 137.568 115.517 137.856 114.888C138.154 114.248 138.581 113.741 139.136 113.368C139.69 112.995 140.346 112.808 141.104 112.808C141.84 112.808 142.48 112.979 143.024 113.32C143.568 113.661 143.984 114.12 144.272 114.696C144.56 115.272 144.704 115.912 144.704 116.616V117.176ZM143.36 116.04C143.264 115.411 143.024 114.915 142.64 114.552C142.256 114.179 141.744 113.992 141.104 113.992C140.549 113.992 140.069 114.168 139.664 114.52C139.258 114.872 138.986 115.379 138.848 116.04H143.36Z" fill="white"/>
<path d="M346 104C346 102.343 347.343 101 349 101H435C436.657 101 438 102.343 438 104V128C438 129.657 436.657 131 435 131H349C347.343 131 346 129.657 346 128V104Z" fill="white"/>
<path d="M346 104C346 102.343 347.343 101 349 101H435C436.657 101 438 102.343 438 104V128C438 129.657 436.657 131 435 131H349C347.343 131 346 129.657 346 128V104Z" stroke="white" stroke-width="2"/>
<path d="M356.404 110.2H358.224V118.32H362.382V120H356.404V110.2ZM369.906 117.032H365.034C365.108 117.555 365.29 117.951 365.58 118.222C365.878 118.493 366.256 118.628 366.714 118.628C367.106 118.628 367.432 118.539 367.694 118.362C367.964 118.185 368.207 117.909 368.422 117.536L369.822 118.054C369.532 118.717 369.126 119.225 368.604 119.58C368.09 119.935 367.428 120.112 366.616 120.112C365.85 120.112 365.211 119.935 364.698 119.58C364.194 119.216 363.82 118.759 363.578 118.208C363.344 117.648 363.228 117.069 363.228 116.472C363.228 115.875 363.344 115.301 363.578 114.75C363.82 114.19 364.194 113.733 364.698 113.378C365.211 113.014 365.85 112.832 366.616 112.832C367.353 112.832 367.969 113.009 368.464 113.364C368.958 113.709 369.322 114.148 369.556 114.68C369.789 115.212 369.906 115.758 369.906 116.318V117.032ZM368.128 115.66C368.044 115.268 367.876 114.946 367.624 114.694C367.381 114.442 367.045 114.316 366.616 114.316C366.242 114.316 365.92 114.433 365.65 114.666C365.379 114.89 365.188 115.221 365.076 115.66H368.128ZM373.191 120.112C372.565 120.112 372.052 119.925 371.651 119.552C371.249 119.179 371.049 118.651 371.049 117.97C371.049 117.27 371.315 116.71 371.847 116.29C372.379 115.87 373.097 115.66 374.003 115.66H375.235V115.352C375.235 115.007 375.118 114.75 374.885 114.582C374.651 114.405 374.357 114.316 374.003 114.316C373.396 114.316 372.99 114.587 372.785 115.128L371.315 114.792C371.427 114.204 371.725 113.733 372.211 113.378C372.705 113.014 373.303 112.832 374.003 112.832C374.945 112.832 375.673 113.084 376.187 113.588C376.709 114.083 376.971 114.815 376.971 115.786V120H375.543L375.361 119.104C374.81 119.776 374.087 120.112 373.191 120.112ZM373.653 118.628C374.073 118.628 374.441 118.497 374.759 118.236C375.076 117.965 375.235 117.611 375.235 117.172V117.032H374.073C373.69 117.032 373.391 117.107 373.177 117.256C372.971 117.405 372.869 117.634 372.869 117.942C372.869 118.147 372.939 118.315 373.079 118.446C373.228 118.567 373.419 118.628 373.653 118.628ZM380.477 112.944V114.092C380.729 113.691 381.037 113.383 381.401 113.168C381.765 112.944 382.152 112.832 382.563 112.832C382.824 112.832 383.109 112.879 383.417 112.972L383.095 114.582C382.88 114.451 382.637 114.386 382.367 114.386C381.816 114.386 381.363 114.638 381.009 115.142C380.654 115.637 380.477 116.421 380.477 117.494V120H378.741V112.944H380.477ZM386.26 112.944V114.078C386.531 113.695 386.853 113.392 387.226 113.168C387.599 112.944 388.005 112.832 388.444 112.832C389.097 112.832 389.62 113.014 390.012 113.378C390.413 113.742 390.614 114.269 390.614 114.96V120H388.878V115.478C388.878 115.077 388.785 114.783 388.598 114.596C388.421 114.409 388.178 114.316 387.87 114.316C387.581 114.316 387.315 114.428 387.072 114.652C386.829 114.876 386.633 115.207 386.484 115.646C386.335 116.075 386.26 116.589 386.26 117.186V120H384.524V112.944H386.26ZM397.785 112.944V114.078C398.056 113.667 398.35 113.359 398.667 113.154C398.994 112.939 399.377 112.832 399.815 112.832C400.273 112.832 400.679 112.953 401.033 113.196C401.388 113.439 401.64 113.803 401.789 114.288C402.041 113.831 402.354 113.476 402.727 113.224C403.11 112.963 403.516 112.832 403.945 112.832C404.599 112.832 405.112 113.023 405.485 113.406C405.859 113.789 406.045 114.321 406.045 115.002V120H404.309V115.296C404.309 114.643 404.02 114.316 403.441 114.316C402.993 114.316 402.625 114.568 402.335 115.072C402.055 115.576 401.915 116.304 401.915 117.256V120H400.179V115.296C400.179 114.643 399.89 114.316 399.311 114.316C398.863 114.316 398.495 114.582 398.205 115.114C397.925 115.637 397.785 116.402 397.785 117.41V120H396.049V112.944H397.785ZM411.191 120.112C410.453 120.112 409.814 119.953 409.273 119.636C408.731 119.319 408.316 118.885 408.027 118.334C407.747 117.783 407.607 117.163 407.607 116.472C407.607 115.781 407.747 115.161 408.027 114.61C408.316 114.059 408.731 113.625 409.273 113.308C409.814 112.991 410.453 112.832 411.191 112.832C411.928 112.832 412.567 112.991 413.109 113.308C413.65 113.625 414.061 114.059 414.341 114.61C414.63 115.161 414.775 115.781 414.775 116.472C414.775 117.163 414.63 117.783 414.341 118.334C414.061 118.885 413.65 119.319 413.109 119.636C412.567 119.953 411.928 120.112 411.191 120.112ZM411.191 118.628C411.732 118.628 412.161 118.423 412.479 118.012C412.796 117.592 412.955 117.079 412.955 116.472C412.955 115.865 412.796 115.357 412.479 114.946C412.161 114.526 411.732 114.316 411.191 114.316C410.649 114.316 410.22 114.526 409.903 114.946C409.585 115.357 409.427 115.865 409.427 116.472C409.427 117.079 409.585 117.592 409.903 118.012C410.22 118.423 410.649 118.628 411.191 118.628ZM418.074 112.944V114.092C418.326 113.691 418.634 113.383 418.998 113.168C419.362 112.944 419.75 112.832 420.16 112.832C420.422 112.832 420.706 112.879 421.014 112.972L420.692 114.582C420.478 114.451 420.235 114.386 419.964 114.386C419.414 114.386 418.961 114.638 418.606 115.142C418.252 115.637 418.074 116.421 418.074 117.494V120H416.338V112.944H418.074ZM428.134 117.032H423.262C423.337 117.555 423.519 117.951 423.808 118.222C424.107 118.493 424.485 118.628 424.942 118.628C425.334 118.628 425.661 118.539 425.922 118.362C426.193 118.185 426.435 117.909 426.65 117.536L428.05 118.054C427.761 118.717 427.355 119.225 426.832 119.58C426.319 119.935 425.656 120.112 424.844 120.112C424.079 120.112 423.439 119.935 422.926 119.58C422.422 119.216 422.049 118.759 421.806 118.208C421.573 117.648 421.456 117.069 421.456 116.472C421.456 115.875 421.573 115.301 421.806 114.75C422.049 114.19 422.422 113.733 422.926 113.378C423.439 113.014 424.079 112.832 424.844 112.832C425.581 112.832 426.197 113.009 426.692 113.364C427.187 113.709 427.551 114.148 427.784 114.68C428.017 115.212 428.134 115.758 428.134 116.318V117.032ZM426.356 115.66C426.272 115.268 426.104 114.946 425.852 114.694C425.609 114.442 425.273 114.316 424.844 114.316C424.471 114.316 424.149 114.433 423.878 114.666C423.607 114.89 423.416 115.221 423.304 115.66H426.356Z" fill="#10162F"/>
<mask id="mask1_62138_80315" style="mask-type:alpha" maskUnits="userSpaceOnUse" x="457" y="110" width="12" height="12">
<path d="M464.424 116.147C464.403 116.126 464.386 116.1 464.374 116.072C464.362 116.045 464.356 116.015 464.356 115.984C464.356 115.954 464.362 115.924 464.374 115.896C464.386 115.868 464.403 115.843 464.424 115.822L468.666 111.58C468.754 111.495 468.824 111.394 468.872 111.282C468.92 111.17 468.945 111.049 468.946 110.927C468.947 110.805 468.924 110.684 468.878 110.571C468.832 110.458 468.763 110.355 468.677 110.269C468.591 110.183 468.488 110.115 468.375 110.068C468.262 110.022 468.141 109.999 468.019 110C467.897 110.001 467.777 110.026 467.665 110.075C467.553 110.123 467.451 110.193 467.366 110.281L463.125 114.522C463.103 114.544 463.078 114.561 463.05 114.572C463.022 114.584 462.992 114.59 462.962 114.59C462.932 114.59 462.902 114.584 462.874 114.572C462.846 114.561 462.821 114.544 462.799 114.522L458.557 110.281C458.384 110.113 458.152 110.021 457.911 110.023C457.67 110.025 457.44 110.121 457.269 110.292C457.099 110.462 457.002 110.693 457 110.934C456.998 111.174 457.091 111.407 457.258 111.58L461.5 115.822C461.521 115.843 461.538 115.868 461.55 115.896C461.561 115.924 461.567 115.954 461.567 115.984C461.567 116.015 461.561 116.045 461.55 116.072C461.538 116.1 461.521 116.126 461.5 116.147L457.258 120.389C457.091 120.562 456.998 120.794 457 121.035C457.002 121.276 457.099 121.507 457.269 121.677C457.44 121.848 457.67 121.944 457.911 121.946C458.152 121.948 458.384 121.856 458.557 121.688L462.799 117.446C462.821 117.425 462.846 117.408 462.874 117.397C462.902 117.385 462.932 117.379 462.962 117.379C462.992 117.379 463.022 117.385 463.05 117.397C463.078 117.408 463.103 117.425 463.125 117.446L467.366 121.688C467.54 121.856 467.772 121.948 468.013 121.946C468.254 121.944 468.484 121.848 468.655 121.677C468.825 121.507 468.922 121.276 468.924 121.035C468.926 120.794 468.833 120.562 468.666 120.389L464.424 116.147Z" fill="black"/>
</mask>
<g mask="url(#mask1_62138_80315)">
<rect x="455" y="108" width="16" height="16" fill="white"/>
</g>
<g filter="url(#filter0_b_62138_80315)">
<rect x="11" y="56" width="24" height="24" rx="12" fill="black"/>
<rect x="11.5" y="56.5" width="23" height="23" rx="11.5" stroke="white"/>
<path d="M19.4546 71.488H22.2406V66.028H19.4546V64.516C21.6946 64.474 22.3386 63.956 22.7166 62.85H24.2566V71.488H26.5946V73H19.4546V71.488Z" fill="white"/>
</g>
<path d="M23 104L23 80" stroke="black" stroke-dasharray="1 1"/>
<path d="M91 152L91 128" stroke="black" stroke-dasharray="1 1"/>
<g filter="url(#filter1_b_62138_80315)">
<rect x="79" y="152" width="24" height="24" rx="12" fill="black"/>
<rect x="79.5" y="152.5" width="23" height="23" rx="11.5" stroke="white"/>
<path d="M91.1226 158.71C92.9706 158.71 94.3846 159.774 94.3846 161.622C94.3846 163.344 93.1246 164.758 91.2346 166.382L90.1286 167.348H94.3286V169H87.4966V167.362L89.6106 165.514C91.2206 164.128 92.3686 162.868 92.3686 161.664C92.3686 160.67 91.6966 160.264 91.0946 160.264C90.1986 160.264 89.5266 161.02 89.5686 162.518H87.6086C87.5386 159.998 89.0926 158.71 91.1226 158.71Z" fill="white"/>
</g>
<g filter="url(#filter2_b_62138_80315)">
<rect x="380" y="52" width="24" height="24" rx="12" fill="black"/>
<rect x="380.5" y="52.5" width="23" height="23" rx="11.5" stroke="white"/>
<path d="M390.261 65.808C390.373 66.998 391.017 67.684 391.941 67.684C392.851 67.684 393.453 67.152 393.453 66.214C393.453 65.276 392.683 64.716 391.563 64.716H390.975V62.91H391.493C392.627 62.91 393.341 62.406 393.341 61.412C393.341 60.698 392.865 60.152 391.941 60.152C391.059 60.152 390.499 60.726 390.387 61.776H388.399C388.623 59.76 390.037 58.668 392.025 58.668C393.593 58.668 395.371 59.48 395.371 61.328C395.371 62.378 394.755 63.232 394.139 63.638C395.021 64.03 395.525 65.122 395.525 66.046C395.525 68.146 393.733 69.182 391.899 69.182C389.869 69.182 388.497 67.992 388.259 65.808H390.261Z" fill="white"/>
</g>
<path d="M392 100L392 76" stroke="black" stroke-dasharray="1 1"/>
<g filter="url(#filter3_b_62138_80315)">
<rect x="451" y="52" width="24" height="24" rx="12" fill="black"/>
<rect x="451.5" y="52.5" width="23" height="23" rx="11.5" stroke="white"/>
<path d="M463.347 61.566L460.841 65.122H463.347V61.566ZM466.735 65.122V66.942H465.363V69H463.347V66.942H458.895V65.22L463.487 58.85H465.363V65.122H466.735Z" fill="white"/>
</g>
<path d="M463 100L463 76" stroke="black" stroke-dasharray="1 1"/>
<defs>
<filter id="filter0_b_62138_80315" x="9" y="54" width="28" height="28" filterUnits="userSpaceOnUse" color-interpolation-filters="sRGB">
<feFlood flood-opacity="0" result="BackgroundImageFix"/>
<feGaussianBlur in="BackgroundImageFix" stdDeviation="1"/>
<feComposite in2="SourceAlpha" operator="in" result="effect1_backgroundBlur_62138_80315"/>
<feBlend mode="normal" in="SourceGraphic" in2="effect1_backgroundBlur_62138_80315" result="shape"/>
</filter>
<filter id="filter1_b_62138_80315" x="77" y="150" width="28" height="28" filterUnits="userSpaceOnUse" color-interpolation-filters="sRGB">
<feFlood flood-opacity="0" result="BackgroundImageFix"/>
<feGaussianBlur in="BackgroundImageFix" stdDeviation="1"/>
<feComposite in2="SourceAlpha" operator="in" result="effect1_backgroundBlur_62138_80315"/>
<feBlend mode="normal" in="SourceGraphic" in2="effect1_backgroundBlur_62138_80315" result="shape"/>
</filter>
<filter id="filter2_b_62138_80315" x="378" y="50" width="28" height="28" filterUnits="userSpaceOnUse" color-interpolation-filters="sRGB">
<feFlood flood-opacity="0" result="BackgroundImageFix"/>
<feGaussianBlur in="BackgroundImageFix" stdDeviation="1"/>
<feComposite in2="SourceAlpha" operator="in" result="effect1_backgroundBlur_62138_80315"/>
<feBlend mode="normal" in="SourceGraphic" in2="effect1_backgroundBlur_62138_80315" result="shape"/>
</filter>
<filter id="filter3_b_62138_80315" x="449" y="50" width="28" height="28" filterUnits="userSpaceOnUse" color-interpolation-filters="sRGB">
<feFlood flood-opacity="0" result="BackgroundImageFix"/>
<feGaussianBlur in="BackgroundImageFix" stdDeviation="1"/>
<feComposite in2="SourceAlpha" operator="in" result="effect1_backgroundBlur_62138_80315"/>
<feBlend mode="normal" in="SourceGraphic" in2="effect1_backgroundBlur_62138_80315" result="shape"/>
</filter>
<clipPath id="clip0_62138_80315">
<rect width="16" height="16" fill="white" transform="translate(15 108)"/>
</clipPath>
</defs>
</svg>
