<?xml version="1.0" encoding="utf-8"?>
<!-- Generator: Adobe Illustrator 18.1.0, SVG Export Plug-In . SVG Version: 6.00 Build 0)  -->
<!DOCTYPE svg PUBLIC "-//W3C//DTD SVG 1.1//EN" "http://www.w3.org/Graphics/SVG/1.1/DTD/svg11.dtd">
<svg version="1.1" id="LOGO" xmlns="http://www.w3.org/2000/svg" xmlns:xlink="http://www.w3.org/1999/xlink" x="0px" y="0px"
	 viewBox="0 0 600 111" enable-background="new 0 0 600 111" xml:space="preserve">
<path fill="#39D1B4" d="M521.6,83.5c1.7,0.6,3.4,0.9,5.3,0.9s3.6-0.3,5.3-0.9H600v-0.4h-19.8v-6.2h3.8v-0.4h-3.8V44.9h3.8v-0.4h-3.8
	V28.3h-0.4v16.2h-14.3c-1.5-0.6-3.1-1-4.8-1c-1.7,0-3.3,0.4-4.8,1h-39.3V29h25v-0.4h-25V9.9h8.6V9.4h-17.4V0h-0.4v9.4h-50.7V5.2
	h-0.4v4.2h-97.9v0.4h88.9v18.7H409V29h38.1v15.4h-24.2v0.4h17.6v14.9h-88.9v0.4h88.9v6.3H306.9V67h133.6v9.5h-17.6v0.4h17.6v6.2
	H306.4v0.4h134.2v9.7H335.3v0.4h105.3v8.4h-40.8v0.4h40.8v8.4h0.4v-8.4h21.3v-0.4h-14.7v-8.4h117v-0.4h-48v-9.7H521.6z M549.6,51.8
	c1.1-3.1,3.4-5.6,6.3-6.9h9.4c4.1,1.8,7,5.9,7,10.7c0,1.5-0.3,2.9-0.8,4.2h-21.8c-0.5-1.3-0.8-2.7-0.8-4.2c0-1.2,0.2-2.3,0.5-3.3
	h4.4v-0.4H549.6z M579.7,60.2v7.9c-1-3.8-4-6.8-7.8-7.9H579.7z M559.6,76.5c-0.9-1.6-1.5-3.5-1.5-5.5c0-1.2,0.2-2.4,0.6-3.5
	c0.6,0.1,1.3,0.2,2,0.2c4.9,0,9.1-2.9,11-7.1c4.6,1.2,8,5.4,8,10.4c0,2-0.6,3.9-1.5,5.5H559.6z M577.9,76.9c-1.9,2.9-5.3,4.9-9,4.9
	s-7.1-2-9-4.9H577.9z M507.3,83.1h-7.4v-6.2h7.4V83.1z M475.5,83.1c-3.3-1.1-6.1-3.3-8-6.2h19.1v5.9c-0.2,0.1-0.4,0.2-0.7,0.2H475.5
	z M484.4,83.5c-1.2,0.3-2.4,0.4-3.7,0.4c-1.3,0-2.5-0.2-3.7-0.4H484.4z M456.5,52.2h5.5v7.6h-5.5V52.2z M486.2,44.9
	c-3.1,1.1-5.6,3.6-6.6,6.7c-0.5,0-1,0.1-1.5,0.2h-15.6v-6.9H486.2z M490.9,44.9c3.8,0.6,7,3.3,8.1,6.9h-12v-6.7
	c0.4-0.1,0.7-0.2,1.1-0.2H490.9z M507.3,66.6h-7.4v-6.3h7.4V66.6z M487,76.5V67h9.6c0,0.3,0.1,0.7,0.1,1c0,3.1-0.9,6-2.5,8.5H487z
	 M493.9,76.9c-1.7,2.5-4.1,4.5-6.9,5.7v-5.7H493.9z M462.5,76.5V71c0.7,1.2,1.1,2.6,1.1,4.1c0,0.5-0.1,1-0.1,1.4H462.5z M463.4,76.9
	c-0.2,0.8-0.5,1.5-0.9,2.2v-2.2H463.4z M462.5,70.2V67h1.8c0,0.3-0.1,0.7-0.1,1c0,3.1,0.9,6,2.4,8.5h-2.7c0.1-0.5,0.1-0.9,0.1-1.4
	C464.1,73.2,463.5,71.5,462.5,70.2z M462,69.6c-1-1.2-2.4-2.1-3.9-2.6h3.9V69.6z M499.4,54.7c0,1.9-0.5,3.6-1.4,5.1h-3.1
	c-1.8-3.1-4.6-5.6-7.9-7v-0.6h12.1C499.3,53,499.4,53.9,499.4,54.7z M499.4,57.7v2.1h-0.9C498.9,59.1,499.2,58.4,499.4,57.7z
	 M489.5,64.6c-0.9,0-1.7-0.1-2.5-0.3v-4h7.6c0.4,0.7,0.7,1.5,1,2.2C494,63.8,491.8,64.6,489.5,64.6z M495.8,62.9
	c0.4,1.2,0.7,2.4,0.8,3.7H487v-1.8c0.8,0.2,1.6,0.3,2.5,0.3C491.9,65.1,494.1,64.3,495.8,62.9z M479.9,52.2h3.3
	c1.2,0.2,2.3,0.5,3.3,0.9v6.6H481c-0.9-1.5-1.4-3.2-1.4-5.1C479.6,53.9,479.7,53,479.9,52.2z M487,53.3c3.1,1.3,5.7,3.6,7.4,6.5H487
	V53.3z M486.6,60.2v3.9c-2.2-0.7-4-2.1-5.3-3.9H486.6z M495.2,60.2h2.6c-0.5,0.7-1.1,1.4-1.7,1.9C495.8,61.5,495.5,60.9,495.2,60.2z
	 M486.6,52.7c-0.4-0.2-0.8-0.3-1.3-0.4h1.3V52.7z M483.3,51.8c-0.8-0.1-1.7-0.2-2.6-0.2c-0.2,0-0.4,0-0.6,0c1-3,3.4-5.4,6.5-6.4v6.6
	H483.3z M479.5,52.2c-0.2,0.8-0.3,1.6-0.3,2.5c0,1.9,0.5,3.6,1.4,5.1H467c2.4-4,6.4-6.8,11.1-7.6H479.5z M480.8,60.2
	c1.3,2.1,3.4,3.7,5.8,4.4v1.9h-21.8c0.2-2.3,0.9-4.4,1.9-6.3H480.8z M464.4,66.6h-1.9v-6.3h3.7C465.2,62.2,464.6,64.3,464.4,66.6z
	 M464.7,68c0-0.3,0-0.7,0.1-1h21.8v9.5h-19.4C465.6,74,464.7,71.1,464.7,68z M497.1,68c0-0.3,0-0.7-0.1-1h2.4v9.5h-4.7
	C496.2,74,497.1,71.1,497.1,68z M497,66.6c-0.1-1.4-0.4-2.7-0.9-3.9c0.8-0.7,1.5-1.5,2.1-2.4h1.2v6.3H497z M499.9,59.8v-7.6h7.4v7.6
	H499.9z M492.8,44.9h6.6v6.8C498.5,48.5,496,46,492.8,44.9z M476.1,52.2c-4.1,1.2-7.5,3.9-9.6,7.6h-4v-7.6H476.1z M462,60.2v6.3
	h-5.5v-6.3H462z M462,70.3v6.2h-5.5v-9.4C458.8,67.4,460.8,68.6,462,70.3z M462,76.9v2.9c-1.3,1.7-3.2,2.9-5.5,3.2v-6.1H462z
	 M462,80.5v2.5h-3.8C459.8,82.6,461.1,81.7,462,80.5z M462.5,80c0.6-0.9,1.1-1.9,1.4-3h3.1c1.8,2.7,4.3,4.9,7.3,6.2h-11.8V80z
	 M494.5,76.9h5v4.6c-0.2-0.1-0.4-0.2-0.7-0.2c-0.6,0-1.1,0.5-1.1,1.1c0,0.3,0.1,0.5,0.2,0.7h-10.8C490.1,81.8,492.7,79.6,494.5,76.9
	z M498.1,82.4c0-0.4,0.3-0.7,0.7-0.7s0.7,0.3,0.7,0.7c0,0.4-0.3,0.7-0.7,0.7S498.1,82.8,498.1,82.4z M499.9,76.5V67h7.4v9.5H499.9z
	 M507.7,60.2h4.6c-1.2,2.3-2,5-2,7.8c0,3.1,0.9,6,2.4,8.5h-5.1V60.2z M510.8,68c0-2.8,0.7-5.5,2-7.8h3.3v16.3h-2.8
	C511.8,74,510.8,71.1,510.8,68z M529.4,52.2c4.7,0.8,8.8,3.6,11.1,7.6H521v-6.7c1.1-0.4,2.2-0.7,3.3-0.9H529.4z M541,59.8
	c-2.1-3.6-5.5-6.4-9.6-7.6h10v7.6H541z M541.4,60.2v0.2c0-0.1-0.1-0.1-0.1-0.2H541.4z M516.6,60.2h4V61c-2,1.2-3.5,3.2-4,5.5V60.2z
	 M516.6,69.7c0.5,2.4,1.9,4.4,4,5.5v1.3h-4V69.7z M516.8,68.1c0-2.8,1.5-5.2,3.7-6.6v13.1C518.3,73.3,516.8,70.9,516.8,68.1z
	 M521,61.3c1.1-0.6,2.3-0.9,3.6-0.9c4.3,0,7.7,3.5,7.7,7.7s-3.5,7.7-7.7,7.7c-1.3,0-2.5-0.3-3.6-0.9V61.3z M521,60.8v-0.6h1.5
	C522,60.4,521.5,60.6,521,60.8z M520.5,59.8h-4v-4c1.2-1,2.5-1.8,4-2.5V59.8z M516.1,59.8h-3c0.8-1.4,1.8-2.6,3-3.6V59.8z
	 M516.1,76.9v2.9c-1-0.9-1.8-1.8-2.5-2.9H516.1z M516.6,76.9h4v5.7c-1.4-0.6-2.8-1.5-4-2.5V76.9z M521,82.9v-5.9h19.1
	c-1.9,2.8-4.7,5-8,6.2h-10.4C521.4,83,521.2,82.9,521,82.9z M521,76.5v-1.1c1.1,0.5,2.3,0.8,3.6,0.8c4.5,0,8.2-3.7,8.2-8.2
	c0-3.8-2.6-7-6.1-7.9h14.2c0.2,0.4,0.4,0.8,0.6,1.2v13.1c-0.3,0.7-0.7,1.3-1.1,2H521z M541.8,62.6c0.6,1.7,1,3.5,1,5.4
	c0,1.9-0.4,3.7-1,5.4V62.6z M541.4,75.6v0.9h-0.5C541,76.2,541.2,75.9,541.4,75.6z M541.8,74.6c0.9-2,1.4-4.3,1.4-6.6
	c0-2.4-0.5-4.6-1.4-6.6v-1.1h4.8v16.3h-4.8V74.6z M546.6,76.9v6.2h-4.8v-6.2H546.6z M547.1,76.9h1.4v6.2h-1.4V76.9z M547.1,76.5
	V60.2h1.4v16.3H547.1z M549,60.2h0.5c1.5,3.7,4.8,6.4,8.8,7.2c-0.4,1.1-0.6,2.3-0.6,3.6c0,2,0.5,3.8,1.4,5.5H549V60.2z M549,59.8v-1
	c0.1,0.3,0.2,0.7,0.3,1H549z M571.2,60.5c-1.9,4-5.9,6.8-10.6,6.8c-0.6,0-1.2-0.1-1.8-0.2c1.6-4,5.5-6.9,10-6.9
	C569.7,60.2,570.5,60.3,571.2,60.5z M558.4,67.1c-3.8-0.7-6.9-3.3-8.5-6.8h15.9C562.4,61.2,559.7,63.8,558.4,67.1z M549,52.4v-0.2h0
	C549,52.3,549,52.3,549,52.4z M548.5,59.8h-6.7v-7.6h6.7V59.8z M541.8,51.8v-6.9h6.7v6.9H541.8z M541.4,51.8h-12
	c-0.8-0.1-1.7-0.2-2.6-0.2s-1.7,0.1-2.6,0.2h-1.8c0.1-0.2,0.2-0.4,0.2-0.7c0-0.6-0.5-1.1-1.1-1.1c-0.3,0-0.5,0.1-0.7,0.2v-5.4h20.4
	V51.8z M521,51.1c0-0.4,0.3-0.7,0.7-0.7c0.4,0,0.7,0.3,0.7,0.7c0,0.4-0.3,0.7-0.7,0.7C521.3,51.8,521,51.5,521,51.1z M522.2,52.2
	c-0.4,0.1-0.9,0.3-1.3,0.4v-0.4H522.2z M520.5,52.8c-1.4,0.6-2.8,1.4-4,2.4v-3h4V52.8z M516.1,55.6c-1.4,1.2-2.6,2.6-3.5,4.2h-4.9
	v-7.6h8.4V55.6z M507.7,51.8v-6.9h8.4v6.9H507.7z M507.3,51.8h-7.4v-6.9h7.4V51.8z M491,44.5c-0.5-0.1-1-0.1-1.4-0.1
	c-0.5,0-1,0-1.4,0.1h-31.5V29h50.7v15.4H491z M462,44.9v6.9h-5.5v-6.9H462z M456.1,59.8h-8.5V44.9h8.5V59.8z M456.1,60.2v6.3h-8.5
	v-6.3H456.1z M453,67c-2.6,0.8-4.6,2.8-5.5,5.4V67H453z M455.6,67c0.2,0,0.3,0,0.5,0v9.4h-8.4c-0.1-0.5-0.1-0.9-0.1-1.4
	C447.6,70.6,451.2,67,455.6,67z M447.8,76.9h8.3v6.1c-0.2,0-0.3,0-0.5,0C451.8,83.1,448.6,80.5,447.8,76.9z M452.9,83.1h-5.4v-5.4
	C448.4,80.3,450.4,82.3,452.9,83.1z M462,83.5v9.7h-5.5v-9.7H462z M462.5,83.5h12.9c1.7,0.6,3.4,0.9,5.3,0.9s3.6-0.3,5.3-0.9h13.5
	v9.7h-36.9V83.5z M499.9,83.5h7.4v9.7h-7.4V83.5z M507.7,82.4c0-0.4,0.3-0.7,0.7-0.7c0.4,0,0.7,0.3,0.7,0.7c0,0.4-0.3,0.7-0.7,0.7
	C508,83.1,507.7,82.8,507.7,82.4z M508.4,81.3c-0.3,0-0.5,0.1-0.7,0.2v-4.6h5.3c0.8,1.3,1.9,2.5,3.1,3.5v2.7h-6.9
	c0.1-0.2,0.2-0.4,0.2-0.7C509.5,81.8,509,81.3,508.4,81.3z M516.6,80.8c1.2,0.9,2.4,1.7,3.8,2.3h-3.8V80.8z M526.8,84
	c-1.3,0-2.5-0.2-3.7-0.4h7.3C529.3,83.8,528.1,84,526.8,84z M540.6,76.9h0.8v6.2h-8.1C536.3,81.8,538.8,79.6,540.6,76.9z
	 M579.7,83.1H549v-6.2h10.4c2,3.2,5.5,5.3,9.6,5.3s7.6-2.1,9.6-5.3h1.3V83.1z M578.7,76.5c0.4-0.8,0.8-1.6,1-2.5v2.5H578.7z
	 M579.7,59.8h-0.8V44.9h0.8V59.8z M578.5,44.9v14.9H572c0.5-1.3,0.8-2.7,0.8-4.2c0-4.6-2.6-8.6-6.4-10.7H578.5z M560.6,43.9
	c1.2,0,2.4,0.2,3.5,0.6h-7.1C558.2,44.1,559.4,43.9,560.6,43.9z M549.1,51.8H549v-6.9h6C552.2,46.4,550.1,48.8,549.1,51.8z
	 M520.5,44.9v6.9h-4v-6.9H520.5z M516.1,44.5h-8.4V29h8.4V44.5z M516.1,9.9v18.7h-8.4V9.9H516.1z M507.3,9.9v18.7h-50.7V9.9H507.3z
	 M447.6,9.9h8.5v18.7h-8.5V9.9z M447.6,29h8.5v15.4h-8.5V29z M441,44.9h6.1v14.9H441V44.9z M441,60.2h6.1v6.3H441V60.2z M441,67h6.1
	v9.5H441V67z M441,76.9h6.1v6.2H441V76.9z M441,83.5h6.1v9.7H441V83.5z M447.1,102.1H441v-8.4h6.1V102.1z M447.6,83.5h8.5v9.7h-8.5
	V83.5z M516.1,93.2h-8.4v-9.7h8.4V93.2z"/>
<g id="Wordmark_21_">
	<path fill="#204056" d="M17.9,73.5c-0.8-2.4-1.2-5.4-1.2-9.5c0-4.1,0.4-7.1,1.2-9.5c2.2-6.9,8.1-10.7,15.8-10.7
		c5.7,0,10.2,2.3,13.3,6c0.2,0.3,0.3,0.8-0.1,1.1l-5,4.4c-0.4,0.3-0.8,0.2-1.1-0.2c-1.9-2.2-3.9-3.4-7.1-3.4c-3.4,0-6,1.7-7.1,5.1
		c-0.6,1.9-0.8,4.2-0.8,7.1c0,3,0.2,5.3,0.8,7.2c1.1,3.3,3.7,5,7.1,5c3.2,0,5.2-1.2,7.1-3.4c0.3-0.4,0.7-0.4,1.1-0.1l5,4.4
		c0.4,0.3,0.3,0.7,0.1,1.1c-3,3.6-7.5,5.9-13.3,5.9C26,84.2,20.1,80.4,17.9,73.5"/>
	<path fill="#204056" d="M191.3,73.5c-0.8-2.4-1.2-5.4-1.2-9.5c0-4.1,0.4-7.1,1.2-9.5c2.2-6.9,8.1-10.7,15.8-10.7
		c5.7,0,10.2,2.3,13.3,6c0.2,0.3,0.3,0.8-0.1,1.1l-5,4.4c-0.4,0.3-0.8,0.2-1.1-0.2c-1.9-2.2-3.9-3.4-7.1-3.4c-3.4,0-6,1.7-7.1,5.1
		c-0.6,1.9-0.8,4.2-0.8,7.1c0,3,0.2,5.3,0.8,7.2c1.1,3.3,3.7,5,7.1,5c3.2,0,5.2-1.2,7.1-3.4c0.3-0.4,0.7-0.4,1.1-0.1l5,4.4
		c0.4,0.3,0.3,0.7,0.1,1.1c-3,3.6-7.5,5.9-13.3,5.9C199.4,84.2,193.5,80.4,191.3,73.5"/>
	<path fill="#204056" d="M391.7,83.3c-0.5,0-0.8-0.3-0.8-0.8V60.2c0-5-2.5-8.4-7.2-8.4c-4.6,0-7.3,3.4-7.3,8.4v22.3
		c0,0.5-0.3,0.8-0.8,0.8h-7.3c-0.5,0-0.8-0.3-0.8-0.8V60.2c0-5-2.5-8.4-7.2-8.4c-4.6,0-7.3,3.4-7.3,8.4v22.3c0,0.5-0.3,0.8-0.8,0.8
		h-7.3c-0.5,0-0.8-0.3-0.8-0.8v-37c0-0.5,0.3-0.8,0.8-0.8h7.3c0.5,0,0.8,0.3,0.8,0.8v2.8h0.1c1.7-2.4,5-4.5,10.1-4.5
		c4.5,0,8.2,1.8,10.5,5.1h0.1c2.9-3.2,6.7-5.1,12.2-5.1c8.9,0,13.9,6.1,13.9,14.3v24.4c0,0.5-0.3,0.8-0.8,0.8L391.7,83.3L391.7,83.3
		z"/>
	<path fill="#204056" d="M410.8,97.7c-0.5,0-0.8-0.3-0.8-0.8v-6.4c0-0.5,0.3-0.8,0.8-0.8h1.4c3,0,4.5-1.4,5.7-4.6l1.1-3.3l-14-36.4
		c-0.2-0.5,0.2-0.8,0.6-0.8h7.9c0.5,0,0.8,0.3,0.9,0.8l8.7,25.2h0.2l8.3-25.2c0.2-0.5,0.5-0.8,0.9-0.8h7.5c0.5,0,0.8,0.3,0.6,0.8
		l-14.6,40.2c-3.3,9.1-6.5,12-12.9,12L410.8,97.7L410.8,97.7z"/>
	<path fill="#204056" d="M54.2,73.5C53.4,70.8,53,68.3,53,64c0-4.2,0.4-6.8,1.3-9.5c2.1-6.7,8-10.7,15.8-10.7
		c7.7,0,13.6,3.9,15.7,10.7c0.9,2.7,1.3,5.3,1.3,9.5c0,4.2-0.4,6.8-1.3,9.5c-2.1,6.7-8,10.7-15.7,10.7
		C62.2,84.2,56.4,80.3,54.2,73.5 M77.2,71.1c0.6-2,0.8-3.8,0.8-7.1c0-3.3-0.2-5-0.8-7.1c-1.1-3.2-3.6-5-7.1-5c-3.6,0-6.1,1.8-7.2,5
		C62.2,59,62,60.7,62,64c0,3.3,0.2,5.1,0.8,7.1c1.1,3.2,3.7,5,7.2,5C73.6,76.2,76,74.3,77.2,71.1"/>
	<path fill="#204056" d="M241.6,43.8c-6.3,0-10.5,1.5-13.6,3.8c-0.3,0.2-0.4,0.6-0.2,1l2.9,5.3c0.2,0.4,0.7,0.5,1.1,0.2
		c1.8-1.4,4.4-2.6,8.7-2.6c6.3,0,8.4,1.9,8.5,6.1l0,0v0.1c0,0.1,0,0.2,0,0.3v12.5c0,4.4-3,6.6-8.5,6.6c-4.3,0-6.6-1.6-6.6-4.8
		c0-3.6,2.5-5.2,8.3-5.2l1.7,0c0.5,0,0.8-0.3,0.8-0.8V61c0-0.5-0.3-0.8-0.8-0.8h-0.4l-2.8,0c-9.4,0-15.3,3.9-15.3,12.3
		c0,8.1,5.9,11.8,12.9,11.8c5.4,0,9-1.8,10.8-4.5h0.1v2.8c0,0.5,0.3,0.8,0.8,0.8h6.7c0.5,0,0.8-0.3,0.8-0.8V57.3
		C257.5,47.8,253.3,43.8,241.6,43.8"/>
	<path fill="#204056" d="M146.8,60.2c-0.2,0-0.3,0.1-0.3,0.3v0.2v0.7v4.2v0.6v0.3c0,0.2,0.1,0.3,0.3,0.3h0.2h19.5
		c0.6,0,0.9-0.3,0.9-0.8c0-6.3-0.4-8.9-1.3-11.6c-2.1-6.6-7.9-10.7-15.7-10.7c-7.6,0-13.5,3.9-15.6,10.7c-0.8,2.5-1.3,5.5-1.3,9.5
		c0,4,0.6,7,1.4,9.5c2.1,6.7,7.9,10.7,15.9,10.7c7.1,0,12.5-2.7,15.7-6.6c0.3-0.4,0.3-0.8-0.1-1.1l-4.7-4.2
		c-0.4-0.3-0.8-0.2-1.2,0.2c-1.9,2.1-4.7,3.7-9,3.7c-4.3,0-7.3-2.1-8.6-5.8c-0.2-0.5-0.4-1.1-0.5-1.7l0,0c-0.3-1.6-0.5-3.2-0.5-5.6
		c0.1-2.2,0.2-3.6,0.5-5.4c0,0,0,0,0-0.1c0,0,0,0,0-0.1l0,0c0.1-0.4,0.2-0.8,0.3-1.2c1-3.1,3.9-5,7.5-5c3.6,0,6.4,1.8,7.5,5
		c0.3,1,0.5,1.9,0.5,3.3c0,0.3-0.2,0.5-0.5,0.5h-10.4l0,0L146.8,60.2L146.8,60.2z"/>
	<path fill="#204056" d="M126,28.8h-7.3c-0.5,0-0.8,0.3-0.8,0.8v18.7h0v15.5c0,0,0,0.1,0,0.1c0,0,0,0.1,0,0.1v2.1h0
		c-0.1,2.2-0.3,3.7-0.7,5c-1,3.2-3.5,5-7.1,5c-3.6,0-6-1.8-7.1-5c-0.6-1.8-0.8-3.7-0.8-7.2c0-3.5,0.2-5.4,0.8-7.2
		c1-3.1,3.4-4.9,6.8-5h3.1c0.2,0,0.2-0.2,0.2-0.3l0-7.3c0-0.2-0.1-0.3-0.3-0.3l-2.5,0l-2.9,0v0c-6.4,0.1-11.1,3.2-13,9.3
		c-1,3-1.3,5.7-1.3,10.9c0,5.2,0.4,7.9,1.3,10.9c2,6.2,6.7,9.3,13.2,9.3c5.2,0,8.3-1.9,10.1-4.6h0.1v2.9c0,0.5,0.3,0.8,0.8,0.8h7.3
		c0.5,0,0.8-0.3,0.8-0.8V29.6C126.8,29.1,126.5,28.8,126,28.8"/>
	<path fill="#204056" d="M317.1,60.2c-0.2,0-0.3,0.1-0.3,0.3v0.2v0.7v4.2v0.6v0.3c0,0.2,0.1,0.3,0.3,0.3h0.2h19.5
		c0.6,0,0.9-0.3,0.9-0.8c0-6.3-0.4-8.9-1.3-11.6c-2.1-6.6-7.9-10.7-15.7-10.7c-7.6,0-13.5,3.9-15.6,10.7c-0.8,2.5-1.3,5.5-1.3,9.5
		c0,4,0.6,7,1.4,9.5c2.1,6.7,7.9,10.7,15.9,10.7c7.1,0,12.5-2.7,15.7-6.6c0.3-0.4,0.3-0.8-0.1-1.1l-4.7-4.2
		c-0.4-0.3-0.8-0.2-1.2,0.2c-1.9,2.1-4.7,3.7-9,3.7c-4.3,0-7.3-2.1-8.6-5.8c-0.2-0.5-0.3-1.1-0.4-1.7l0,0c-0.3-1.6-0.5-3.2-0.5-5.6
		c0.1-2.2,0.2-3.6,0.5-5.4c0,0,0,0,0-0.1c0,0,0,0,0-0.1v0c0.1-0.4,0.2-0.8,0.3-1.2c1-3.1,3.9-5,7.5-5c3.6,0,6.4,1.8,7.5,5
		c0.3,1,0.5,1.9,0.5,3.3c0,0.3-0.2,0.5-0.5,0.5h-10.4v0L317.1,60.2L317.1,60.2z"/>
	<path fill="#204056" d="M296.8,28.8h-7.3c-0.5,0-0.8,0.3-0.8,0.8v18.8v15.5V64v0.1v2.1h0c-0.1,2.2-0.3,3.7-0.8,5
		c-1,3.2-3.5,5-7.1,5c-3.6,0-6-1.8-7.1-5c-0.6-1.8-0.8-3.7-0.8-7.2c0-3.5,0.2-5.5,0.8-7.2c1-3.1,3.4-4.9,6.8-5l3.1,0
		c0.5,0,0.8-0.3,0.8-0.8v-6.4c0-0.5-0.3-0.8-0.8-0.8h-0.4l-4.7,0c0,0-0.1,0-0.1,0c0,0-0.1,0-0.1,0h-0.1v0c-6.4,0.1-11.1,3.2-13,9.3
		c-1,3-1.3,5.7-1.3,10.9c0,5.2,0.4,7.9,1.3,10.9c2,6.2,6.7,9.3,13.3,9.3c5.2,0,8.3-1.9,10.2-4.6h0.1v2.9c0,0.5,0.3,0.8,0.8,0.8h7.3
		c0.5,0,0.8-0.3,0.8-0.8V29.6C297.6,29.1,297.2,28.8,296.8,28.8"/>
	<path fill="#204056" d="M190.7,94.2v7.3c0,0.5,0.3,0.8,0.8,0.8h27.1c0.5,0,0.8-0.3,0.8-0.8v-7.3c0-0.5-0.3-0.8-0.8-0.8h-27.1
		C191,93.5,190.7,93.8,190.7,94.2"/>
	<path fill="#204056" d="M183.8,9.9C183.8,9.9,183.8,9.9,183.8,9.9C183.8,9.9,183.8,9.9,183.8,9.9c-0.2-0.2-0.4-0.3-0.6-0.3h0H0.8
		c-0.1,0-0.1,0-0.2,0c0,0,0,0,0,0c0,0-0.1,0-0.1,0c0,0,0,0,0,0C0.2,9.8,0,10.1,0,10.4v0v91.1v0c0,0.3,0.1,0.5,0.3,0.6c0,0,0,0,0,0v0
		c0.1,0.1,0.3,0.1,0.5,0.1h182.4h0c0.3,0,0.5-0.1,0.6-0.3c0.1-0.1,0.2-0.3,0.2-0.5v0V10.5v0C184,10.2,183.9,10,183.8,9.9 M9.7,93.5
		c-0.1,0-0.1,0-0.2,0c0,0,0,0,0,0c0,0-0.1,0-0.1,0c0,0,0,0,0,0c-0.3-0.1-0.5-0.4-0.5-0.7v-66v-7.3c0-0.4,0.2-0.6,0.5-0.7
		c0,0,0,0,0,0c0,0,0.1,0,0.2,0c0.1,0,0.1,0,0.2,0h164.6c0.1,0,0.1,0,0.2,0c0,0,0,0,0,0c0,0,0.1,0,0.1,0c0,0,0,0,0,0
		c0.3,0.1,0.5,0.4,0.5,0.7v73.3c0,0.3-0.2,0.6-0.5,0.7c0,0,0,0,0,0c0,0-0.1,0-0.1,0c0,0,0,0,0,0c-0.1,0-0.1,0-0.2,0H9.7L9.7,93.5z"
		/>
</g>
<g>
	<path fill="#39D1B4" d="M457.9,83.8c-3.8,0-6.5-0.9-8.1-2.7c-1.6-1.8-2.4-4.6-2.4-8.3V29.6c0-0.5,0.3-0.8,0.8-0.8h7.4
		c0.5,0,0.8,0.3,0.8,0.8v42.7c0,1.3,0.3,2.3,0.8,2.8c0.5,0.5,1.4,0.8,2.6,0.8h1.8c0.5,0,0.8,0.3,0.8,0.8V83c0,0.5-0.3,0.8-0.8,0.8
		H457.9z"/>
	<path fill="#39D1B4" d="M483.5,43.8c5.9,0,10,1.1,12.5,3.2c2.4,2.1,3.7,5.6,3.7,10.3v25.3c0,0.5-0.3,0.8-0.8,0.8h-6.7
		c-0.5,0-0.8-0.3-0.8-0.8v-2.8h-0.1c-0.9,1.3-2.3,2.4-4.1,3.2c-1.8,0.8-4.1,1.2-6.8,1.2c-1.8,0-3.4-0.2-5-0.7
		c-1.6-0.5-3-1.2-4.1-2.2c-1.2-1-2.1-2.2-2.8-3.6c-0.7-1.5-1-3.2-1-5.3c0-4.2,1.4-7.3,4.1-9.3c2.8-2,6.5-3,11.4-3h3.3
		c0.5,0,0.8,0.3,0.8,0.8v5.2c0,0.5-0.3,0.7-0.8,0.7h-1.8c-2.9,0-5,0.4-6.3,1.2c-1.3,0.8-2,2.2-2,4c0,3.2,2.2,4.8,6.7,4.8
		c2.8,0,4.9-0.5,6.4-1.6c1.5-1.1,2.2-2.7,2.2-5V57.8c0-2.2-0.6-3.9-1.8-4.9c-1.2-1-3.5-1.5-6.7-1.5c-2.2,0-4,0.3-5.4,0.8
		c-1.4,0.5-2.5,1.1-3.5,1.9c-0.5,0.4-0.9,0.3-1.1-0.2l-3-5.3c-0.3-0.4-0.2-0.8,0.2-1c1.6-1.1,3.4-2,5.6-2.7
		C477.6,44.1,480.3,43.8,483.5,43.8z"/>
	<path fill="#39D1B4" d="M540.2,53.1c0.5,1.5,0.8,3,1,4.6c0.2,1.6,0.3,3.7,0.3,6.3c0,2.6-0.1,4.7-0.3,6.3c-0.2,1.6-0.6,3.1-1,4.6
		c-1,3.1-2.7,5.4-5,7c-2.3,1.6-5.1,2.3-8.4,2.3c-2.6,0-4.8-0.4-6.4-1.3c-1.7-0.9-2.9-2-3.9-3.3h-0.1v2.9c0,0.5-0.3,0.8-0.8,0.8h-7.4
		c-0.5,0-0.8-0.3-0.8-0.8V29.6c0-0.5,0.3-0.8,0.8-0.8h7.4c0.5,0,0.8,0.3,0.8,0.8V64c0,1.8,0.1,3.2,0.2,4.3c0.1,1.1,0.3,2.1,0.6,3
		c1.1,3.3,3.5,5,7.2,5c3.7,0,6.1-1.7,7.1-5c0.3-0.9,0.5-1.9,0.6-3c0.1-1.1,0.2-2.5,0.2-4.3s-0.1-3.2-0.2-4.3c-0.1-1.1-0.3-2.1-0.6-3
		c-1.1-3.3-3.5-5-7.1-5h-3c-0.5,0-0.8-0.2-0.8-0.7v-6.5c0-0.5,0.3-0.8,0.8-0.8h5.3c3.3,0,6.1,0.8,8.4,2.3
		C537.6,47.6,539.2,50,540.2,53.1z"/>
	<path fill="#39D1B4" d="M563.7,84.2c-4,0-7.3-0.6-10.1-1.9c-2.8-1.3-4.9-2.7-6.5-4.2c-0.4-0.4-0.4-0.7,0-1.1l4.6-4.8
		c0.4-0.4,0.7-0.4,1.1,0c1.4,1.3,3.1,2.3,5.2,3.2c2.1,0.8,4.1,1.2,6.1,1.2c2.4,0,4.2-0.4,5.4-1.3c1.2-0.9,1.8-2,1.8-3.3
		c0-1.2-0.4-2.1-1.3-2.8c-0.9-0.7-2.6-1.2-5.1-1.4l-4.2-0.4c-4-0.4-6.9-1.6-8.9-3.5c-2-1.9-3-4.5-3-7.9c0-3.7,1.3-6.7,3.9-8.9
		c2.6-2.2,6.3-3.3,11.2-3.3c3,0,5.8,0.4,8.3,1.3c2.5,0.9,4.5,2,6.3,3.4c0.4,0.3,0.5,0.7,0.2,1.1l-3.9,4.7c-0.3,0.4-0.7,0.4-1.1,0.2
		c-1.2-0.9-2.7-1.6-4.5-2.2c-1.8-0.6-3.7-1-5.6-1c-1.9,0-3.4,0.4-4.4,1.1c-1,0.7-1.5,1.7-1.5,2.9c0,1.1,0.4,2,1.3,2.7
		c0.9,0.7,2.5,1.1,5.1,1.4l4.2,0.4c4.1,0.4,7.1,1.6,9,3.6c2,2,2.9,4.5,2.9,7.7c0,3.9-1.4,7-4.1,9.4C573.1,83,569.1,84.2,563.7,84.2z
		"/>
</g>
</svg>
