<?xml version="1.0" encoding="utf-8"?>
<!-- Generator: Adobe Illustrator 17.1.0, SVG Export Plug-In . SVG Version: 6.00 Build 0)  -->
<!DOCTYPE svg PUBLIC "-//W3C//DTD SVG 1.1//EN" "http://www.w3.org/Graphics/SVG/1.1/DTD/svg11.dtd">
<svg version="1.1" id="Layer_1" xmlns="http://www.w3.org/2000/svg" xmlns:xlink="http://www.w3.org/1999/xlink" x="0px" y="0px"
	 viewBox="0 0 150 150" enable-background="new 0 0 150 150" xml:space="preserve">
<g>
	<g>
		<defs>
			<circle id="SVGID_1_" cx="75" cy="75" r="75"/>
		</defs>
		<clipPath id="SVGID_2_">
			<use xlink:href="#SVGID_1_"  overflow="visible"/>
		</clipPath>
		<g clip-path="url(#SVGID_2_)">
			<rect fill="#F1F2F2" width="150" height="150"/>
			<rect fill="#204056" width="150" height="75"/>
			<g>
				<rect x="21" y="44" fill="#FFFFFF" width="107" height="108"/>
				<polygon opacity="0.5" fill="#F1F2F2" enable-background="new    " points="128,152 21,152 128,44 				"/>
				<rect x="21" y="44" fill="#E6E7E8" width="107" height="6"/>
				<path fill="#BCBEC0" d="M128,44H21v-4c0-1.1,0.9-2,2-2h103c1.1,0,2,0.9,2,2V44z"/>
				<path fill="#BCBEC0" d="M127,154H23c-1.1,0-2-0.9-2-2l0,0h108l0,0C129,153.1,128.1,154,127,154z"/>
				<rect x="21" y="150" opacity="0.4" fill="#BCBEC0" enable-background="new    " width="108" height="2"/>
				<circle fill="#FFFFFF" cx="25" cy="41" r="1"/>
				<circle fill="#FFFFFF" cx="29" cy="41" r="1"/>
				<circle fill="#FFFFFF" cx="33" cy="41" r="1"/>
				<rect x="21" y="50" fill="#666666" width="2" height="102"/>
				<rect x="31" y="44" fill="#FFFFFF" width="11" height="6"/>
				<rect x="42" y="44" fill="#929497" width="11" height="6"/>
				<rect x="53" y="44" fill="#BCBEC0" width="11" height="6"/>
				<rect x="64" y="44" fill="#F1F2F2" width="11" height="6"/>
				<rect x="42" y="44" opacity="0.4" fill="#4B4C4C" enable-background="new    " width="11" height="1"/>
				<rect x="53" y="44" opacity="0.4" fill="#7C7C7C" enable-background="new    " width="11" height="1"/>
				<rect x="31" y="58" fill="#39D1B4" width="11" height="4"/>
				<rect x="58" y="82" fill="#39D1B4" width="14" height="4"/>
				<rect x="39" y="64" fill="#E6E7E8" width="11" height="4"/>
				<rect x="52" y="64" fill="#939598" width="7" height="4"/>
				<rect x="66" y="100" fill="#939598" width="7" height="4"/>
				<rect x="92" y="88" fill="#939598" width="7" height="4"/>
				<rect x="39" y="88" fill="#939598" width="7" height="4"/>
				<rect x="47" y="112" fill="#939598" width="7" height="4"/>
				<rect x="60" y="112" fill="#939598" width="7" height="4"/>
				<rect x="39" y="70" fill="#E6E7E8" width="5" height="4"/>
				<rect x="85" y="88" fill="#E6E7E8" width="5" height="4"/>
				<rect x="46" y="70" fill="#939598" width="13" height="4"/>
				<rect x="47" y="106" fill="#E6E7E8" width="5" height="4"/>
				<rect x="54" y="106" fill="#939598" width="13" height="4"/>
				<rect x="39" y="82" fill="#939598" width="13" height="4"/>
				<rect x="52" y="88" fill="#939598" width="13" height="4"/>
				<rect x="54" y="84" fill="#939598" width="2" height="2"/>
				<rect x="71" y="88" fill="#39D1B4" width="8" height="4"/>
				<rect x="39" y="100" fill="#39D1B4" width="8" height="4"/>
				<rect x="67" y="90" fill="#939598" width="2" height="2"/>
				<rect x="75" y="102" fill="#939598" width="2" height="2"/>
				<rect x="81" y="100" fill="#939598" width="7" height="4"/>
				<rect x="90" y="102" fill="#939598" width="2" height="2"/>
				<rect x="48" y="89" fill="#939598" width="2" height="2"/>
				<rect x="39" y="130" fill="#E6E7E8" width="5" height="4"/>
				<rect x="46" y="130" fill="#939598" width="13" height="4"/>
				<rect x="69" y="130" fill="#E6E7E8" width="6" height="4"/>
				<rect x="77" y="130" fill="#E6E7E8" width="6" height="4"/>
				<rect x="85" y="130" fill="#E6E7E8" width="12" height="4"/>
				<rect x="65" y="130" fill="#E6E7E8" width="2" height="2"/>
				<rect x="99" y="130" fill="#E6E7E8" width="2" height="2"/>
				<rect x="61" y="131" fill="#939598" width="2" height="2"/>
				<rect x="56" y="114" fill="#939598" width="2" height="2"/>
				<rect x="44" y="58" fill="#939598" width="19" height="4"/>
				<rect x="49" y="100" fill="#939598" width="11" height="4"/>
				<rect x="62" y="100" fill="#939598" width="2" height="4"/>
				<rect x="94" y="100" fill="#939598" width="2" height="4"/>
				<rect x="81" y="88" fill="#939598" width="2" height="4"/>
				<rect x="101" y="88" fill="#939598" width="2" height="4"/>
				<rect x="65" y="58" fill="#E6E7E8" width="2" height="4"/>
				<rect x="98" y="100" fill="#E6E7E8" width="2" height="4"/>
				<rect x="39" y="118" fill="#E6E7E8" width="2" height="4"/>
			</g>
			<path fill="#E6E7E8" d="M149.7,75c-3.1,38.6-35.3,69-74.7,69S3.3,113.6,0.3,75H0c0,1.3,0,2.6,0.1,3.8C0.1,97.9,0,150,0,150h75h75
				c0,0-0.1-52.1-0.1-71.2c0.1-1.2,0.1-2.5,0.1-3.8H149.7z"/>
			<path fill="#D8DADB" d="M149.7,75c-3.1,38.6-35.3,69-74.7,69S3.3,113.6,0.3,75H0c0,1.3,0,2.6,0.1,3.8C0.1,97.9,0,150,0,150h75h75
				c0,0-0.1-52.1-0.1-71.2c0.1-1.2,0.1-2.5,0.1-3.8H149.7z"/>
			<path fill="#E6E7E8" d="M129,150v-29c-13.6,14.2-32.8,23-54,23c-21.2,0-40.4-8.8-54-23v29h54H129z"/>
			<path fill="#DFE1E2" d="M38.5,134.5L23,150h52h54v-29c-13.6,14.2-32.8,23-54,23C61.7,144,49.3,140.6,38.5,134.5z"/>
			<path fill="#5C5C5D" d="M21,150h2v-27c-0.7-0.7-1.3-1.3-2-2V150z"/>
		</g>
	</g>
</g>
</svg>
