<?xml version="1.0" encoding="utf-8"?>
<!-- Generator: Adobe Illustrator 17.1.0, SVG Export Plug-In . SVG Version: 6.00 Build 0)  -->
<!DOCTYPE svg PUBLIC "-//W3C//DTD SVG 1.1//EN" "http://www.w3.org/Graphics/SVG/1.1/DTD/svg11.dtd">
<svg version="1.1" id="Layer_1" xmlns="http://www.w3.org/2000/svg" xmlns:xlink="http://www.w3.org/1999/xlink" x="0px" y="0px"
	 viewBox="0 0 150 150" enable-background="new 0 0 150 150" xml:space="preserve">
<g>
	<g>
		<defs>
			<circle id="SVGID_1_" cx="75" cy="75" r="75"/>
		</defs>
		<clipPath id="SVGID_2_">
			<use xlink:href="#SVGID_1_"  overflow="visible"/>
		</clipPath>
		<g clip-path="url(#SVGID_2_)">
			<rect fill="#F1F2F2" width="150" height="150"/>
			<rect fill="#204056" width="150" height="75"/>
			<g>
				<rect x="19.5" y="38" fill="#FFFFFF" width="33" height="41"/>
				<rect x="23.5" y="65" fill="#E6E7E8" width="25" height="2"/>
				<rect x="23.5" y="61" fill="#E6E7E8" width="25" height="2"/>
				<rect x="29" y="44.5" fill="#204056" width="14" height="8"/>
				<rect x="23.5" y="69" fill="#E6E7E8" width="25" height="2"/>
			</g>
			<g>
				<rect x="58.5" y="38" fill="#39D1B4" width="33" height="41"/>
				<polygon fill="#2EC7A7" points="91.5,46 91.5,79 58.5,79 				"/>
				<rect x="62.5" y="65" fill="#FFFFFF" width="25" height="2"/>
				<rect x="62.5" y="61" fill="#FFFFFF" width="25" height="2"/>
				<rect x="68" y="44.5" fill="#FFFFFF" width="14" height="8"/>
				<rect x="62.5" y="69" fill="#FFFFFF" width="25" height="2"/>
			</g>
			<g>
				<rect x="97.5" y="38" fill="#FFFFFF" width="33" height="41"/>
				<rect x="101.5" y="65" fill="#E6E7E8" width="25" height="2"/>
				<rect x="101.5" y="61" fill="#E6E7E8" width="25" height="2"/>
				<rect x="107" y="44.5" fill="#204056" width="14" height="8"/>
				<rect x="101.5" y="69" fill="#E6E7E8" width="25" height="2"/>
			</g>
			<g>
				<rect x="19.5" y="85" fill="#FFFFFF" width="33" height="41"/>
				<rect x="23.5" y="112" fill="#E6E7E8" width="25" height="2"/>
				<rect x="23.5" y="108" fill="#E6E7E8" width="25" height="2"/>
				<rect x="29" y="91.5" fill="#204056" width="14" height="8"/>
				<rect x="23.5" y="116" fill="#E6E7E8" width="25" height="2"/>
			</g>
			<g>
				<rect x="58.5" y="85" fill="#FFFFFF" width="33" height="41"/>
				<rect x="62.5" y="112" fill="#E6E7E8" width="25" height="2"/>
				<rect x="62.5" y="108" fill="#E6E7E8" width="25" height="2"/>
				<rect x="68" y="91.5" fill="#204056" width="14" height="8"/>
				<rect x="62.5" y="116" fill="#E6E7E8" width="25" height="2"/>
			</g>
			<g>
				<rect x="97.5" y="85" fill="#FFFFFF" width="33" height="41"/>
				<rect x="101.5" y="112" fill="#E6E7E8" width="25" height="2"/>
				<rect x="101.5" y="108" fill="#E6E7E8" width="25" height="2"/>
				<rect x="107" y="91.5" fill="#204056" width="14" height="8"/>
				<rect x="101.5" y="116" fill="#E6E7E8" width="25" height="2"/>
			</g>
			<g>
				<rect x="19.5" y="131" fill="#FFFFFF" width="33" height="41"/>
				<rect x="23.5" y="159" fill="#E6E7E8" width="25" height="2"/>
				<rect x="23.5" y="155" fill="#E6E7E8" width="25" height="2"/>
				<rect x="29" y="138.5" fill="#204056" width="14" height="8"/>
				<rect x="23.5" y="163" fill="#E6E7E8" width="25" height="2"/>
			</g>
			<g>
				<rect x="58.5" y="131" fill="#FFFFFF" width="33" height="41"/>
				<rect x="62.5" y="159" fill="#E6E7E8" width="25" height="2"/>
				<rect x="62.5" y="155" fill="#E6E7E8" width="25" height="2"/>
				<rect x="68" y="137.5" fill="#204056" width="14" height="8"/>
				<rect x="62.5" y="163" fill="#E6E7E8" width="25" height="2"/>
			</g>
			<g>
				<rect x="97.5" y="131" fill="#FFFFFF" width="33" height="41"/>
				<rect x="101.5" y="159" fill="#E6E7E8" width="25" height="2"/>
				<rect x="101.5" y="155" fill="#E6E7E8" width="25" height="2"/>
				<rect x="107" y="138.5" fill="#204056" width="14" height="8"/>
				<rect x="101.5" y="163" fill="#E6E7E8" width="25" height="2"/>
			</g>
			<g>
				<g>
					<path fill="#1B3A4D" d="M75,144c-2.4,0-4.7-0.1-7-0.3v0C70.3,143.9,72.6,144,75,144z"/>
					<path fill="#1B3A4D" d="M82,143.7L82,143.7c-1.2,0.1-2.3,0.2-3.5,0.2C79.7,143.9,80.8,143.8,82,143.7z"/>
				</g>
				<path fill="#D8DADB" d="M150,75c0-1,0-2-0.1-3c0,0,0,0.1,0,0.1c-1.6,37.7-30.8,68.1-67.9,71.6v2.8H68v-2.8
					c-37.1-3.4-66.4-33.9-67.9-71.6c0,0,0-0.1,0-0.1C0,73,0,74,0,75c0,1.3,0,2.6,0.1,3.8C0.1,97.9,0,150,0,150h75h75
					c0,0-0.1-52.1-0.1-71.2C150,77.6,150,76.3,150,75z"/>
				<path fill="#D8DADB" d="M75,144c1.2,0,2.4,0,3.5-0.1C77.4,144,76.2,144,75,144z"/>
			</g>
			<path fill="#E6E7E8" d="M123.7,126h6.8v-6.6C128.4,121.7,126.1,123.9,123.7,126z"/>
			<path fill="#E6E7E8" d="M97.5,140.6v9.4h33v-18h-14.8C110.1,135.6,104,138.5,97.5,140.6z"/>
			<rect x="107" y="137.5" fill="#1B3A4D" width="14" height="8"/>
			<g>
				<path fill="#E6E7E8" d="M78.3,143.9c0.1,0,0.2,0,0.3,0C78.5,143.9,78.4,143.9,78.3,143.9z"/>
				<path fill="#E6E7E8" d="M71.4,143.9c0.1,0,0.2,0,0.3,0C71.6,143.9,71.5,143.9,71.4,143.9z"/>
				<path fill="#E6E7E8" d="M82,143.7v1.8H68v-1.8c-3.2-0.3-6.4-0.8-9.5-1.5v7.8H75h16.5v-7.8C88.4,142.9,85.2,143.4,82,143.7z"/>
			</g>
			<path fill="#1B3A4D" d="M82,142.7c-2.3,0.2-4.6,0.3-7,0.3c-2.4,0-4.7-0.1-7-0.3v2.8h14V142.7z"/>
			<path fill="#E6E7E8" d="M19.5,119.4v6.6h6.8C23.9,124,21.6,121.8,19.5,119.4z"/>
			<path fill="#E6E7E8" d="M52.5,140.6c-6.5-2-12.6-4.9-18.2-8.6H19.5v18h33V140.6z"/>
			<rect x="29" y="137.5" fill="#1B3A4D" width="14" height="8"/>
		</g>
	</g>
</g>
</svg>
