<?xml version="1.0" encoding="utf-8"?>
<!-- Generator: Adobe Illustrator 17.1.0, SVG Export Plug-In . SVG Version: 6.00 Build 0)  -->
<!DOCTYPE svg PUBLIC "-//W3C//DTD SVG 1.1//EN" "http://www.w3.org/Graphics/SVG/1.1/DTD/svg11.dtd">
<svg version="1.1" id="GRAPHICS" xmlns="http://www.w3.org/2000/svg" xmlns:xlink="http://www.w3.org/1999/xlink" x="0px" y="0px"
	 viewBox="0 0 150 150" enable-background="new 0 0 150 150" xml:space="preserve">
<g>
	<defs>
		<circle id="SVGID_5_" cx="75" cy="75" r="75"/>
	</defs>
	<clipPath id="SVGID_2_">
		<use xlink:href="#SVGID_5_"  overflow="visible"/>
	</clipPath>
	<g clip-path="url(#SVGID_2_)">
		<rect fill="#F1F2F2" width="150" height="150"/>
		<rect fill="#204056" width="150" height="75"/>
		<g>
			<rect x="22" y="44" fill="#FFFFFF" width="108" height="108"/>
			<polygon opacity="0.5" fill="#F1F2F2" points="130,152 22,152 130,44 			"/>
			<rect x="22" y="50" fill="#39D1B4" width="108" height="50"/>
			<polygon opacity="0.25" fill="#39D1B4" points="130,100 80,100 130,50 			"/>
			<rect x="32" y="60" fill="#FFFFFF" width="66" height="6"/>
			<rect x="32" y="64" fill="#F1F2F2" width="66" height="2"/>
			<rect x="32" y="68" fill="#FFFFFF" width="22" height="4"/>
			<rect x="56" y="68" fill="#FFFFFF" width="9" height="4"/>
			<rect x="67" y="68" fill="#FFFFFF" width="9" height="4"/>
			<rect x="32" y="70" fill="#F1F2F2" width="22" height="2"/>
			<rect x="56" y="70" fill="#F1F2F2" width="9" height="2"/>
			<rect x="67" y="70" fill="#F1F2F2" width="9" height="2"/>
			<rect x="78" y="104" fill="#E6E7E8" width="42" height="26"/>
			<polygon opacity="0.4" fill="#E6E7E8" points="120,130 94,130 120,104 			"/>
			<rect x="78" y="132" fill="#E6E7E8" width="19" height="14"/>
			<rect x="99" y="132" fill="#E6E7E8" width="21" height="14"/>
			<polygon opacity="0.4" fill="#E6E7E8" points="97,146 83,146 97,132 			"/>
			<polygon opacity="0.4" fill="#E6E7E8" points="120,146 106,146 120,132 			"/>
			<rect x="32" y="104" fill="#E6E7E8" width="42" height="4"/>
			<rect x="32" y="110" fill="#E6E7E8" width="42" height="4"/>
			<rect x="32" y="116" fill="#E6E7E8" width="42" height="4"/>
			<rect x="32" y="122" fill="#E6E7E8" width="22" height="4"/>
			<rect x="32" y="136" fill="#E6E7E8" width="42" height="4"/>
			<rect x="32" y="142" fill="#E6E7E8" width="11" height="3.5"/>
			<path fill="#BCBEC0" d="M130,44H22v-4c0-1.1,0.9-2,2-2h104c1.1,0,2,0.9,2,2V44z"/>
			<rect x="22" y="44" opacity="0.4" fill="#BCBEC0" width="108" height="1"/>
			<rect x="22" y="150" opacity="0.4" fill="#BCBEC0" width="108" height="2"/>
			<circle fill="#FFFFFF" cx="26" cy="41" r="1"/>
			<circle fill="#FFFFFF" cx="30" cy="41" r="1"/>
			<circle fill="#FFFFFF" cx="34" cy="41" r="1"/>
		</g>
		<path fill="#E6E7E8" d="M150,75c0-1,0-2-0.1-3c0-0.1,0-0.1,0,0.1c-1.7,40-34.5,71.9-74.9,71.9c-40.4,0-73.3-31.9-74.9-71.9
			c0-0.2,0-0.3,0-0.1C0,73,0,74,0,75c0,1.3,0,2.6,0.1,3.8C0.1,97.9,0,150,0,150h75h75c0,0-0.1-52.1-0.1-71.2
			C150,77.6,150,76.3,150,75z"/>
	</g>
</g>
</svg>
