<?xml version="1.0" encoding="utf-8"?>
<!-- Generator: Adobe Illustrator 17.1.0, SVG Export Plug-In . SVG Version: 6.00 Build 0)  -->
<!DOCTYPE svg PUBLIC "-//W3C//DTD SVG 1.1//EN" "http://www.w3.org/Graphics/SVG/1.1/DTD/svg11.dtd">
<svg version="1.1" id="Layer_1" xmlns="http://www.w3.org/2000/svg" xmlns:xlink="http://www.w3.org/1999/xlink" x="0px" y="0px"
	 viewBox="0 0 150 150" enable-background="new 0 0 150 150" xml:space="preserve">
<g>
	<g>
		<g>
			<g>
				<g>
					<defs>
						<circle id="SVGID_1_" cx="75" cy="75" r="75"/>
					</defs>
					<clipPath id="SVGID_2_">
						<use xlink:href="#SVGID_1_"  overflow="visible"/>
					</clipPath>
					<g clip-path="url(#SVGID_2_)">
						<rect fill="#F1F2F2" width="150" height="150"/>
						<path fill="#D8DADB" d="M149.9,72C149.9,72,149.9,72.1,149.9,72c-1.7,40.1-34.5,72-74.9,72S1.7,112.1,0.1,72.1V72
							C0,73,0,74,0,75c0,1.3,0,2.6,0.1,3.8C0.1,97.9,0,150,0,150h75h75c0,0-0.1-52.1-0.1-71.2c0.1-1.2,0.1-2.5,0.1-3.8
							C150,74,150,73,149.9,72z"/>
						<rect fill="#204056" width="150" height="75"/>
						<g>
							<rect x="21" y="44" fill="#FFFFFF" width="107" height="108"/>
							<polygon opacity="0.5" fill="#F1F2F2" enable-background="new    " points="128,152 21,152 128,44 							"/>
							<rect x="21" y="50" fill="#39D1B4" width="107" height="50"/>
							<polygon fill="#2EC7A7" points="128,100 79,100 128,50 							"/>
							<rect x="31" y="60" fill="#FFFFFF" width="66" height="6"/>
							<rect x="31" y="64" fill="#F1F2F2" width="66" height="2"/>
							<rect x="31" y="68" fill="#FFFFFF" width="22" height="4"/>
							<rect x="55" y="68" fill="#FFFFFF" width="9" height="4"/>
							<rect x="66" y="68" fill="#FFFFFF" width="9" height="4"/>
							<rect x="31" y="70" fill="#F1F2F2" width="22" height="2"/>
							<rect x="55" y="70" fill="#F1F2F2" width="9" height="2"/>
							<rect x="66" y="70" fill="#F1F2F2" width="9" height="2"/>
							<rect x="77" y="104" fill="#E6E7E8" width="42" height="26"/>
							<polygon fill="#DDDEE0" points="119,130 93,130 119,104 							"/>
							<rect x="77" y="132" fill="#E6E7E8" width="19" height="14"/>
							<rect x="98" y="132" fill="#E6E7E8" width="21" height="14"/>
							<polygon fill="#DDDEE0" points="96,146 82,146 96,132 							"/>
							<polygon opacity="0.4" fill="#E6E7E8" enable-background="new    " points="120,146 106,146 120,132 							"/>
							<rect x="31" y="104" fill="#E6E7E8" width="42" height="4"/>
							<rect x="31" y="110" fill="#E6E7E8" width="42" height="4"/>
							<rect x="31" y="116" fill="#E6E7E8" width="42" height="4"/>
							<rect x="31" y="122" fill="#E6E7E8" width="22" height="4"/>
							<rect x="31" y="136" fill="#E6E7E8" width="42" height="4"/>
							<rect x="32" y="142" fill="#E6E7E8" width="11" height="3.5"/>
							<path fill="#BCBEC0" d="M128,44H21v-4c0-1.1,0.9-2,2-2h103c1.1,0,2,0.9,2,2V44z"/>
							<rect x="21" y="44" opacity="0.4" fill="#BCBEC0" enable-background="new    " width="107" height="1"/>
							<rect x="22" y="150" opacity="0.4" fill="#BCBEC0" enable-background="new    " width="108" height="2"/>
							<circle fill="#FFFFFF" cx="25" cy="41" r="1"/>
							<circle fill="#FFFFFF" cx="29" cy="41" r="1"/>
							<circle fill="#FFFFFF" cx="33" cy="41" r="1"/>
						</g>
						<path fill="#E6E7E8" d="M149.7,75c-3.1,38.6-35.3,69-74.7,69S3.3,113.6,0.3,75H0c0,1.3,0,2.6,0.1,3.8C0.1,97.9,0,150,0,150h75
							h75c0,0-0.1-52.1-0.1-71.2c0.1-1.2,0.1-2.5,0.1-3.8H149.7z"/>
						<path fill="#E6E7E8" d="M149.7,75c-3.1,38.6-35.3,69-74.7,69S3.3,113.6,0.3,75H0c0,1.3,0,2.6,0.1,3.8C0.1,97.9,0,150,0,150h75
							h75c0,0-0.1-52.1-0.1-71.2c0.1-1.2,0.1-2.5,0.1-3.8H149.7z"/>
						<path fill="#D8DADB" d="M149.7,75c-3.1,38.6-35.3,69-74.7,69S3.3,113.6,0.3,75H0c0,1.3,0,2.6,0.1,3.8C0.1,97.9,0,150,0,150h75
							h75c0,0-0.1-52.1-0.1-71.2c0.1-1.2,0.1-2.5,0.1-3.8H149.7z"/>
						<path fill="#DFE1E2" d="M129,150v-29c-13.6,14.2-32.8,23-54,23s-40.4-8.8-54-23v29h54H129z"/>
						<path fill="#CFD1D3" d="M119,132h-3.3c-5.4,3.5-11.4,6.4-17.7,8.4v5.6h21V132z"/>
						<polygon fill="#C7C9CC" points="119,146 105,146 119,132 						"/>
						<path fill="#CFD1D3" d="M96,141c-6,1.8-12.4,2.8-19,2.9v2h19V141z"/>
						<path fill="#C7C9CC" d="M96,141c-3.7,1.1-7.5,1.9-11.4,2.4L82,146h14V141z"/>
						<path fill="#CFD1D3" d="M41.3,136H31v4h19.8C47.5,138.9,44.4,137.5,41.3,136z"/>
					</g>
				</g>
			</g>
		</g>
	</g>
</g>
</svg>
