<?xml version="1.0" encoding="utf-8"?>
<!-- Generator: Adobe Illustrator 18.1.1, SVG Export Plug-In . SVG Version: 6.00 Build 0)  -->
<!DOCTYPE svg PUBLIC "-//W3C//DTD SVG 1.1//EN" "http://www.w3.org/Graphics/SVG/1.1/DTD/svg11.dtd">
<svg version="1.1" id="GRAPHICS" xmlns="http://www.w3.org/2000/svg" xmlns:xlink="http://www.w3.org/1999/xlink" x="0px" y="0px"
	 viewBox="0 0 120 120" enable-background="new 0 0 120 120" xml:space="preserve">
<circle fill="#204056" cx="60" cy="60" r="59.5"/>
<circle fill="#204056" cx="60" cy="60" r="59.5"/>
<g>
	<polygon fill="#BCBEC0" points="60,22.9 60,22.9 60,22.9 60,22.9 60,22.9 25,35.2 30.4,80.9 60,97.1 60,97.1 89.6,80.9 95,35.2
		"/>
	<polygon fill="#FFFFFF" points="60,26.8 60,26.8 60,26.8 60,26.8 60,26.8 28.7,37.9 33.6,78.7 60,93.2 60,93.2 86.4,78.7
		91.3,37.9 	"/>
	<polygon fill="#E6E7E8" points="60,93.2 86.4,78.7 91.3,37.9 60,26.8 60,26.8 60,26.8 60,26.8 60,26.8 60,93.2 	"/>
	<path fill="#204056" d="M60,29.1L38.5,76.8h8.1l4.3-10.3H60h9.1l4.3,10.3h8.1L60,29.1z M60,59.7h-6.3L60,44.5l6.3,15.2H60z"/>
</g>
</svg>
