<?xml version="1.0" encoding="utf-8"?>
<!-- Generator: Adobe Illustrator 18.1.0, SVG Export Plug-In . SVG Version: 6.00 Build 0)  -->
<!DOCTYPE svg PUBLIC "-//W3C//DTD SVG 1.1//EN" "http://www.w3.org/Graphics/SVG/1.1/DTD/svg11.dtd">
<svg version="1.1" id="Layer_1" xmlns="http://www.w3.org/2000/svg" xmlns:xlink="http://www.w3.org/1999/xlink" x="0px" y="0px"
	 viewBox="0 0 120 120" enable-background="new 0 0 120 120" xml:space="preserve">
<circle fill="#204056" cx="60" cy="60" r="59.5"/>
<circle fill="#204056" cx="60" cy="60" r="59.5"/>
<g>
	<defs>
		<circle id="SVGID_1_" cx="60" cy="60" r="60"/>
	</defs>
	<clipPath id="SVGID_2_">
		<use xlink:href="#SVGID_1_"  overflow="visible"/>
	</clipPath>
	<g clip-path="url(#SVGID_2_)">
		<g>
			<path fill="#E6E7E8" d="M60,50c18.2,0,28.3,2.5,29,4c-0.7,1.5-10.8,4-29,4s-28.3-2.5-29-4C31.7,52.5,41.8,50,60,50 M60,49
				c-16.6,0-30,2.2-30,5c0,2.8,13.4,5,30,5s30-2.2,30-5C90,51.2,76.6,49,60,49L60,49z"/>
		</g>
		<path fill="#E6E7E8" d="M60,59c-16.6,0-30-2.2-30-5v14c0,2.8,13.4,5,30,5s30-2.2,30-5V54C90,56.8,76.6,59,60,59z"/>
		<g>
			<path fill="#E6E7E8" d="M60,33c18.2,0,28.3,2.5,29,4c-0.7,1.5-10.8,4-29,4s-28.3-2.5-29-4C31.7,35.5,41.8,33,60,33 M60,32
				c-16.6,0-30,2.2-30,5c0,2.8,13.4,5,30,5s30-2.2,30-5C90,34.2,76.6,32,60,32L60,32z"/>
		</g>
		<path fill="#E6E7E8" d="M60,42c-16.6,0-30-2.2-30-5v14c0,2.8,13.4,5,30,5s30-2.2,30-5V37C90,39.8,76.6,42,60,42z"/>
		<g>
			<path fill="#E6E7E8" d="M60,16c18.2,0,28.3,2.5,29,4c-0.7,1.5-10.8,4-29,4s-28.3-2.5-29-4C31.7,18.5,41.8,16,60,16 M60,15
				c-16.6,0-30,2.2-30,5c0,2.8,13.4,5,30,5s30-2.2,30-5C90,17.2,76.6,15,60,15L60,15z"/>
		</g>
		<path fill="#E6E7E8" d="M60,25c-16.6,0-30-2.2-30-5v14c0,2.8,13.4,5,30,5s30-2.2,30-5V20C90,22.8,76.6,25,60,25z"/>
	</g>
	<g clip-path="url(#SVGID_2_)">
		<path fill="#204056" d="M66,48.9c-0.6,0-1,0.4-1,1v2c0,0.6,0.4,1,1,1s1-0.4,1-1v-2C67,49.3,66.6,48.9,66,48.9z"/>
		<path fill="#204056" d="M66,54.9c-0.6,0-1,0.4-1,1v2c0,0.6,0.4,1,1,1s1-0.4,1-1v-2C67,55.3,66.6,54.9,66,54.9z"/>
		<path fill="#204056" d="M58.6,37.4c0.4,0.4,1,0.4,1.4-0.1l5-5.4v2v4v2v4v2c0,0.6,0.4,1,1,1s1-0.4,1-1v-2v-4v-2v-4v-2l5,5.4
			c0.4,0.4,1,0.4,1.4,0.1l0,0c0.4-0.4,0.4-1,0.1-1.4l-6.8-7.3c-0.4-0.4-1.1-0.4-1.5,0l-6.8,7.3C58.1,36.4,58.1,37,58.6,37.4
			L58.6,37.4z"/>
	</g>
	<g clip-path="url(#SVGID_2_)">
		<rect x="20" y="60" fill="#FFFFFF" width="82" height="94"/>
		<path fill="#BCBEC0" d="M100,54H22c-1.1,0-2,0.9-2,2v4h82v-4C102,54.9,101.1,54,100,54z"/>
		<circle fill="#FFFFFF" cx="23" cy="57" r="1"/>
		<circle fill="#FFFFFF" cx="27" cy="57" r="1"/>
		<circle fill="#FFFFFF" cx="31" cy="57" r="1"/>
		<rect x="20" y="66" fill="#E6E7E8" width="82" height="32.3"/>
		<rect x="24" y="108.3" fill="#BCBEC0" width="22" height="16"/>
		<rect x="50" y="108.3" fill="#BCBEC0" width="22" height="16"/>
		<rect x="76" y="108.3" fill="#BCBEC0" width="22" height="16"/>
		<rect x="24" y="128.3" fill="#BCBEC0" width="22" height="16"/>
		<rect x="50" y="128.3" fill="#BCBEC0" width="22" height="16"/>
		<rect x="76" y="128.3" fill="#BCBEC0" width="22" height="16"/>
		<rect x="24" y="102.3" fill="#BCBEC0" width="22" height="2"/>
		<rect x="50" y="102.3" fill="#BCBEC0" width="22" height="2"/>
		<rect x="76" y="102.3" fill="#BCBEC0" width="22" height="2"/>
	</g>
	<g clip-path="url(#SVGID_2_)">
		<path fill="#204056" d="M54,54.4c0.6,0,1-0.4,1-1v-2c0-0.6-0.4-1-1-1s-1,0.4-1,1v2C53,53.9,53.4,54.4,54,54.4z"/>
		<path fill="#204056" d="M54,48.4c0.6,0,1-0.4,1-1v-2c0-0.6-0.4-1-1-1s-1,0.4-1,1v2C53,47.9,53.4,48.4,54,48.4z"/>
		<path fill="#204056" d="M61.4,65.9c-0.4-0.4-1-0.4-1.4,0.1l-5,5.4v-2v-4v-2v-4v-2c0-0.6-0.4-1-1-1s-1,0.4-1,1v2v4v2v4v2l-5-5.4
			c-0.4-0.4-1-0.4-1.4-0.1l0,0c-0.4,0.4-0.4,1-0.1,1.4l6.8,7.3c0.4,0.4,1.1,0.4,1.5,0l6.8-7.3C61.9,66.9,61.9,66.3,61.4,65.9
			L61.4,65.9z"/>
	</g>
</g>
</svg>
