<?xml version="1.0" standalone="no"?>
<!DOCTYPE svg PUBLIC "-//W3C//DTD SVG 1.1//EN" "http://www.w3.org/Graphics/SVG/1.1/DTD/svg11.dtd" >
<svg xmlns="http://www.w3.org/2000/svg">
<metadata>Generated by IcoMoon</metadata>
<defs>
<font id="icomoon" horiz-adv-x="1024">
<font-face units-per-em="1024" ascent="960" descent="-64" />
<missing-glyph horiz-adv-x="1024" />
<glyph unicode="&#x20;" d="" horiz-adv-x="512" />
<glyph unicode="&#xe600;" d="M136.346 687.308v-614.962h527.812v477.212h-391.466v-68.174h323.294v-340.866h-391.466v477.212h1125.908v-613.558h-1262.254v887.654h1330.426v68.174h-1398.6v-1024h1398.6v751.308h-1262.254zM136.346 823.654h68.174v-68.174h-68.174v68.174zM272.692 823.654h68.174v-68.174h-68.174v68.174zM408.334 823.654h68.174v-68.174h-68.174v68.174zM733.738 140.52h528.516v-68.174h-528.516v68.174zM733.738 276.866h528.516v-68.174h-528.516v68.174zM733.738 413.212h528.516v-68.174h-528.516v68.174zM733.738 549.558h528.516v-68.174h-528.516v68.174z" horiz-adv-x="1400" />
<glyph unicode="&#xe601;" d="M425.708 952.734c-77-13.068-148.166-43.318-209.408-86.7l209.408-209.432v296.132zM598.276 952.734v-296.134l209.432 209.432c-61.232 43.366-132.4 73.634-209.432 86.7zM1016.708 534.284c-13.066 77.016-43.3 148.2-86.7 209.418l-209.4-209.418h296.098zM93.984 743.702c-43.384-61.218-73.634-132.4-86.7-209.418h296.126l-209.426 209.418zM930.008 152.302c43.4 61.232 73.634 132.4 86.7 209.432h-296.098l209.4-209.432zM598.276-56.716c77.034 13.066 148.2 43.318 209.432 86.7l-209.432 209.414v-296.116zM7.284 361.732c13.068-77.034 43.318-148.2 86.7-209.432l209.426 209.432h-296.126zM425.708-56.716v296.116l-209.408-209.416c61.242-43.384 132.408-73.634 209.408-86.7zM426.676 533.334v0.418l-276.51 276.5c-13.432-13.416-26.134-27.582-38.034-42.432l234.474-234.484h80.068zM874.24 809.832c-13.432 13.452-27.6 26.15-42.432 38.034l-234.466-234.486v-80.050h0.4l276.5 276.5zM597.342 362.666v-0.4l276.5-276.5c13.434 13.432 26.134 27.6 38 42.432l-234.466 234.466h-80.034zM149.766 86.166c13.418-13.434 27.582-26.134 42.432-38.016l234.474 234.482v80.034h-0.4l-276.51-276.5zM1020.876 504.902h-452v451.984c-18.668 2.068-37.634 3.116-56.866 3.116-19.234 0-38.234-1.048-56.9-3.116v-451.984h-451.976c-2.066-18.686-3.134-37.668-3.134-56.902 0-19.216 1.066-38.198 3.134-56.884h451.976v-451.984c18.668-2.068 37.668-3.134 56.9-3.134s38.198 1.066 56.866 3.134v451.984h452c2.068 18.682 3.134 37.668 3.134 56.884 0 19.234-1.066 38.216-3.134 56.902z" />
<glyph unicode="&#xe602;" d="M1313.864 669.866l-170.4 170.668h-68.266l-187.734-204.8-136.534 256h221.6v68.268h-629.768l-155.032-102.402-187.732-187.734v-204.8l528.798-529.064h256l529.066 529.066v204.8zM67.998 567.466h358.402l102.4-529.066-460.8 460.798v68.266zM494.932 567.466h324.266l-102.402-563.202h-119.466l-102.398 563.202zM887.198 567.466h358.666v-68.266l-461.068-460.8 102.4 529.066zM972.798 635.732l136.532 136.534 136.266-136.534h-272.798zM494.932 635.732l136.266 256h51.466l136.534-256h-324.266zM426.4 635.732l-170.402 187.736 102.402 68.266h204.534l-136.534-256zM341.064 635.732h-272.798l136.534 136.534 136.264-136.534z" horiz-adv-x="1314" />
<glyph unicode="&#xe603;" d="M436.86 800.342h68.254v-68.254h-68.254v68.254zM931.678 669.674h-204.734l-44.104-38.802v-68.254l-75.342-80.030h-187.702l-129.472-124.736v-63.4h-126.486l-95.188 80.462v136.51l95.188 90.122h365.454v68.126h-170.842v131.068l95.472 91.13h153.574l75.342-90.362v-63.186h68.126v97.312l-109.342 124.364h-221.83l-129.472-124.364v-165.962h-160.612l-129.712-124.12v-204.766l129.712-114.462h160.612v-175.622l129.472-114.702h221.83l109.342 114.702v175.622h180.744l109.584 114.462v204.766l-109.616 124.12zM722.578 294.452h-176.514v-68.126h136.778v-141.496l-75.342-80.702h-153.574l-95.472 63.64v255.956l95.472 90.212h187.702l109.342 114.552v73.058h149.564l72.11-90.122v-136.512l-75.058-80.462h-175.004zM556.308 151.918h68.254v-68.256h-68.254v68.256z" horiz-adv-x="1042" />
<glyph unicode="&#xe604;" d="M1331.058 669.844v-666.234h-1263.45v888.78h1331.058v67.61h-1398.67v-1024h1398.67v733.842h-67.608zM376 374.818c-2.466 0-4.1 1.632-4.1 4.1v270.35c0 2.466 1.632 4.1 4.1 4.1h104.466c54.066 0 91.734-34.818 91.734-86.434 0-52.016-37.668-86.834-91.734-86.834h-57.766c-1.632 0-2.466-0.832-2.466-2.466v-98.716c0-2.466-1.632-4.1-4.1-4.1h-40.134zM523.87 566.932c0 25.402-17.6 43.016-46.266 43.016h-54.9c-1.632 0-2.466-0.818-2.466-2.466v-81.1c0-1.632 0.834-2.466 2.466-2.466h54.9c28.666 0 46.266 17.216 46.266 43.016zM620.934 649.268c0 2.466 1.634 4.1 4.1 4.1h40.134c2.466 0 4.1-1.632 4.1-4.1v-109.784c0-1.632 0.834-2.45 2.466-2.45h106.1c1.632 0 2.432 0.818 2.432 2.45v109.784c0 2.466 1.668 4.1 4.1 4.1h40.166c2.432 0 4.068-1.632 4.068-4.1v-270.352c0-2.466-1.634-4.1-4.068-4.1h-40.166c-2.434 0-4.1 1.632-4.1 4.1v112.232c0 1.634-0.8 2.466-2.432 2.466h-106.1c-1.632 0-2.466-0.832-2.466-2.466v-112.232c0-2.466-1.632-4.1-4.1-4.1h-40.134c-2.466 0-4.1 1.632-4.1 4.1v270.35zM890.034 374.818c-2.432 0-4.1 1.632-4.1 4.1v270.35c0 2.466 1.668 4.1 4.1 4.1h104.466c54.068 0 91.766-34.818 91.766-86.434 0-52.016-37.7-86.834-91.766-86.834h-57.768c-1.632 0-2.432-0.832-2.432-2.466v-98.716c0-2.466-1.666-4.1-4.1-4.1h-40.168zM1037.934 566.932c0 25.402-17.634 43.016-46.3 43.016h-54.9c-1.632 0-2.432-0.818-2.432-2.466v-81.1c0-1.632 0.802-2.466 2.432-2.466h54.9c28.666 0 46.3 17.216 46.3 43.016zM366.834 226.158h707.872v67.61h-707.938z" horiz-adv-x="1400" />
<glyph unicode="&#xe605;" d="M853.342 960h-853.342v-1024h853.342v750.932h-68.266v-682.664h-716.808v887.466h785.076zM221.874 618.668h409.6v-51.202h-409.6v51.202zM221.874 482.134h409.6v-51.202h-409.6v51.202zM221.874 345.6h409.6v-51.202h-409.6v51.202z" horiz-adv-x="854" />
<glyph unicode="&#xe606;" d="M1332.112 670.136v-666.056h-1264.032v887.842h1332.112v68.080h-1400.192v-1024h1400.192v734.136h-68.080zM487.052 409.716l29.914 22.544c2.068 1.236 4.102 1.236 6.172-1.234 6.972-8.188 20.878-17.208 37.288-17.208 29.514 0 46.324 18.442 46.324 54.912v180.744c0 2.468 1.634 4.102 4.102 4.102h40.154c2.47 0 4.102-1.634 4.102-4.102v-180.742c0-63.116-37.318-98.352-96.316-98.352-31.55 0-60.264 15.158-72.538 33.6-1.236 2.050-1.236 4.102 0.798 5.736zM704.264 407.264c-1.634 1.634-2.468 4.086-0.832 6.136l25.414 29.516c1.668 2.052 4.102 2.052 5.736 0.418 18.044-14.356 44.692-29.514 75.842-29.514 33.182 0 52.46 16.808 52.46 40.17 0 20.076-12.306 33.182-50.826 38.52l-14.742 2.052c-53.694 7.368-84.044 33.2-84.044 79.506 0 50.41 36.886 84.010 94.282 84.010 34.818 0 68.034-11.056 90.146-27.864 2.068-1.634 2.468-3.27 0.832-5.736l-19.676-30.332c-1.634-2.052-3.668-2.452-5.736-1.218-22.546 14.74-43.456 21.712-66.802 21.712-28.282 0-43.856-15.572-43.856-37.286 0-19.276 13.54-32.382 51.226-37.718l14.774-2.034c53.66-7.388 83.176-32.8 83.176-80.742 0-49.592-35.652-86.48-104.922-86.48-40.986 0-80.742 16.39-102.452 36.884zM494.806 293.944h426.724v-68.080h-426.726v68.080z" horiz-adv-x="1400" />
<glyph unicode="&#xe607;" d="M818.486-64l-359.592 57.568-401.324 401.286-57.568 359.63 171.362 171.372 45.182-45.182-148.29-148.298 49.128-306.976 372.058-372.002 306.938-49.144 148.306 148.288 45.182-45.196zM882.168 231.658l-259.62 41.592-285.332 285.274-41.546 259.642 123.406 123.406 45.18-45.182-100.346-100.346 33.138-206.974 256.048-255.99 206.966-33.168 100.346 100.338 45.182-45.18zM952.952 511.34l-166.308 26.656-177.058 177.020-26.63 166.324 78.692 78.662 45.182-45.198-55.62-55.586 18.206-113.656 147.774-147.75 113.638-18.214 55.588 55.61 45.196-45.18z" horiz-adv-x="1032" />
<glyph unicode="&#xe608;" d="M1332.33 670.762v-666.874h-1264.442v888.222h1332.33v67.89h-1400.222v-1024h1400.222v734.762h-67.89zM222.52 649.652c0 2.468 1.668 4.102 4.102 4.102h40.188c2.436 0 4.102-1.634 4.102-4.102v-109.842c0-1.634 0.8-2.45 2.436-2.45h106.154c1.634 0 2.468 0.818 2.468 2.45v109.842c0 2.468 1.634 4.102 4.102 4.102h40.156c2.466 0 4.102-1.634 4.102-4.102v-270.496c0-2.468-1.634-4.102-4.102-4.102h-40.154c-2.468 0-4.102 1.634-4.102 4.102v112.294c0 1.634-0.834 2.466-2.468 2.466h-106.156c-1.634 0-2.436-0.834-2.436-2.466v-112.294c0-2.468-1.666-4.102-4.102-4.102h-40.188c-2.434 0-4.102 1.634-4.102 4.102v270.496zM557.768 375.054c-2.47 0-4.102 1.634-4.102 4.102v228.688c0 1.65-0.802 2.468-2.47 2.468h-72.938c-2.466 0-4.102 1.634-4.102 4.102v35.234c0 2.47 1.634 4.102 4.102 4.102h199.174c2.47 0 4.102-1.634 4.102-4.102v-35.234c0-2.47-1.634-4.102-4.102-4.102h-72.938c-1.634 0-2.466-0.818-2.466-2.468v-228.688c0-2.468-1.634-4.102-4.102-4.102h-40.154zM725.356 649.652c0 2.468 1.668 4.102 4.102 4.102h36.486c3.702 0 5.736-1.234 6.972-4.102l76.64-171.726h1.634l75.408 171.726c1.232 2.868 3.302 4.102 6.97 4.102h36.086c2.436 0 4.102-1.634 4.102-4.102v-270.496c0-2.468-1.666-4.102-4.102-4.102h-35.654c-2.466 0-4.102 1.634-4.102 4.102v170.492h-1.634l-59.030-131.154c-1.634-3.684-4.102-5.318-7.804-5.318h-23.746c-3.702 0-6.172 1.634-7.804 5.318l-59 131.154h-1.668v-170.492c0-2.468-1.634-4.102-4.102-4.102h-35.652c-2.434 0-4.102 1.634-4.102 4.102v270.496zM1017.582 649.652c0 2.468 1.634 4.102 4.102 4.102h40.154c2.47 0 4.102-1.634 4.102-4.102v-228.69c0-1.65 0.834-2.466 2.47-2.466h127.868c2.47 0 4.102-1.634 4.102-4.086v-35.252c0-2.468-1.634-4.102-4.102-4.102h-174.594c-2.466 0-4.102 1.634-4.102 4.102v270.496zM221.348 295.25h974.498v-68.596h-974.496v68.596z" horiz-adv-x="1400" />
<glyph unicode="&#xe609;" d="M2003.542-57.642h-394.332c0 426.15-216.25 222.606-216.25 597.87 0 133.548 89.058 209.876 203.542 209.876 165.366 0 286.204-158.992 127.192-457.928-50.886-101.77 57.24-120.856 171.722-146.278 114.482-31.82 108.126-95.414 108.126-203.54zM108.192 139.52c114.48 25.442 222.606 50.884 171.722 146.278-159.012 298.958-44.51 457.97 127.214 457.97 114.48 0 203.518-76.35 203.518-209.918 0-375.242-216.25-171.702-216.25-597.85h-394.332c0 114.482-6.356 178.078 108.128 203.52zM1380.25 190.406c-146.3 31.798-279.848 63.618-216.25 184.456 197.144 381.618 50.884 585.14-159.012 585.14-216.252 0-362.544-209.896-159.012-578.784 69.952-127.192-76.308-152.654-216.24-184.432-146.3-31.818-133.568-108.126-133.568-248.070h1017.634c0 133.59 12.75 209.896-133.548 241.694z" horiz-adv-x="2004" />
<glyph unicode="&#xe60a;" d="M853.34 960h-853.34v-1024h853.34v750.934h-68.264v-682.668h-716.808v887.466h785.074zM187.742 686.934h119.468v-119.466h-119.466v119.466zM358.408 686.934h119.466v-119.466h-119.466v119.466zM529.076 686.934h119.466v-119.466h-119.466v119.466zM187.742 516.268h119.468v-119.468h-119.466v119.466zM358.408 516.268h119.466v-119.468h-119.466v119.466zM529.076 516.268h119.466v-119.468h-119.466v119.466zM187.742 328.534h119.468v-119.466h-119.466v119.466zM358.408 328.534h119.466v-119.466h-119.466v119.466zM529.076 328.534h119.466v-119.466h-119.466v119.466z" horiz-adv-x="854" />
<glyph unicode="&#xe60b;" d="M698.322 431.682l-243.962 200.79v308.91h-2.236l2.236 18.618-305.24-46.294 1.318-9.56h-3.282v-232.726l37.236-27.926v237.5l232.732 32.154v-297.58h2.49l-1.346-1.638 90.892-74.8-256.526-35.446-189.26 158.428-63.372 1.138 237.122-195.154 1.236 1.5 0.746-5.362 309.164 42.716 93.548-76.98-384.982-53.192-128.294 99.154v-316.51h37.236v247.39l65.168-55.78v-415.028h37.236v404.754l390.982 54.020v-319.136h37.236v353.7z" horiz-adv-x="698" />
<glyph unicode="&#xe60c;" d="M853.342 960h-853.342v-1024h853.342v750.932h-68.266v-682.666h-716.808v887.466h785.074zM494.942 652.8h170.668v-51.2h-170.668v51.2zM494.942 550.4h170.668v-51.2h-170.668v51.2zM494.942 362.668h170.668v-51.2h-170.668v51.2zM494.942 260.268h170.668v-51.2h-170.668v51.2zM400.374 690.132l-138.766-138.766-61.966 61.966-27.7-27.668 91.9-91.9 27.702 27.666-2.266 2.25 138.766 138.77zM400.374 398.616l-138.766-138.784-61.966 61.986-27.7-27.668 91.9-91.918 27.702 27.684-2.266 2.25 138.766 138.768z" horiz-adv-x="854" />
<glyph unicode="&#xe60d;" d="M1330.704 668.842v-664.294h-1262.156v886.9h1330.704v68.548h-1399.256v-1024h1399.256v732.842h-68.548zM365.438 514.066c0 44.212 1.632 58.142 7.362 75.334 14.326 45.448 49.546 68.37 96.626 68.37 44.648 0 78.202-22.924 94.194-59.774 0.798-2.048 0-4.096-2.066-4.914l-34.784-16.794c-2.466-1.214-4.532 0-5.332 2.048-9.030 19.658-24.588 36.034-52.012 36.034-26.62 0-42.18-14.326-49.944-36.85-3.7-11.462-4.93-22.524-4.93-63.456 0-40.95 1.232-52.012 4.93-63.472 7.764-22.524 23.324-36.85 49.944-36.85 27.424 0 42.982 16.376 52.012 36.036 0.798 2.048 2.866 3.264 5.332 2.048l34.784-16.792c2.066-0.816 2.866-2.866 2.066-4.914-15.994-36.85-49.546-59.774-94.194-59.774-47.080 0-82.3 22.924-96.626 68.37-5.73 17.192-7.362 31.12-7.362 75.352zM599.202 407.194c-1.632 1.634-2.466 4.082-0.832 6.132l25.39 29.488c1.666 2.048 4.096 2.048 5.73 0.416 18.024-14.344 44.648-29.488 75.768-29.488 33.152 0 52.41 16.792 52.41 40.132 0 20.060-12.294 33.152-50.778 38.484l-14.728 2.048c-53.644 7.364-83.964 33.168-83.964 79.432 0 50.364 36.85 83.932 94.194 83.932 34.784 0 67.972-11.044 90.060-27.84 2.068-1.632 2.466-3.264 0.832-5.728l-19.658-30.304c-1.632-2.048-3.666-2.45-5.73-1.216-22.524 14.728-43.416 21.69-66.74 21.69-28.254 0-43.816-15.562-43.816-37.252 0-19.258 13.528-32.352 51.178-37.682l14.762-2.032c53.61-7.382 83.096-32.77 83.096-80.666 0-49.546-35.618-86.396-104.822-86.396-40.95 0-80.668 16.376-102.358 36.85zM837.5 407.194c-1.666 1.634-2.466 4.082-0.832 6.132l25.39 29.488c1.632 2.048 4.096 2.048 5.73 0.416 18.026-14.344 44.614-29.488 75.736-29.488 33.184 0 52.41 16.792 52.41 40.132 0 20.060-12.26 33.152-50.744 38.484l-14.76 2.048c-53.644 7.364-83.932 33.168-83.932 79.432 0 50.364 36.85 83.932 94.16 83.932 34.818 0 67.972-11.044 90.094-27.84 2.032-1.632 2.464-3.264 0.834-5.728l-19.658-30.304c-1.634-2.048-3.698-2.45-5.732-1.216-22.522 14.728-43.414 21.69-66.736 21.69-28.254 0-43.816-15.562-43.816-37.252 0-19.258 13.494-32.352 51.178-37.682l14.726-2.032c53.644-7.382 83.132-32.77 83.132-80.666 0-49.546-35.618-86.396-104.82-86.396-40.952 0-80.666 16.376-102.356 36.85zM358.294 294.294h682.668v-67.136h-682.668v67.136z" horiz-adv-x="1400" />
<glyph unicode="&#xe60e;" d="M1024.008 960h-1024.008v-1024h1024.008v733.866h-68.266v-665.6h-887.476v887.466h955.744zM432.94 554.716l-36.2-36.2 62-61.966 36.202 36.2zM710.508 204.75l36.2 36.2-181.434 181.45-36.2-36.2zM399.668 363.352l410.298 410.298 36.2-36.2-410.298-410.298-36.2 36.2z" />
<glyph unicode="&#xe60f;" d="M853.34 960h-853.34v-1024h853.34v750.934h-68.266v-682.666h-716.808v887.466h785.074zM244.808 478.35l-36.2-36.2 156.3-156.35 22.934 22.918 2-2 246.366 246.366-36.198 36.2-233.066-233.066z" horiz-adv-x="854" />
<glyph unicode="&#xe610;" d="M345.492 486.25l-33.932-33.932 146.532-146.582 21.5 21.5 1.866-1.884 230.968 230.968-33.932 33.932-218.5-218.5zM912.524 648.35c30.302-60.332 47.468-128.35 47.468-200.35 0-247.032-200.968-448-448-448-247.034 0-447.992 200.968-447.992 448 0 247.034 200.956 448 447.992 448 99.6 0 191.666-32.698 266.134-87.884l45.634 45.618c-86.432 66.558-194.5 106.264-311.768 106.264-282.308 0-511.992-229.682-511.992-512 0-282.316 229.684-512 511.992-512 282.334 0 512 229.684 512 512 0 89.818-23.3 174.25-64.1 247.716l-47.368-47.368z" />
<glyph unicode="&#xe611;" d="M1399.476 960h-1399.476v-1024h1399.476v733.866h-68.268v-665.6h-1262.942v887.466h1331.208zM337.966 379.734c2.866 0 4.5 1.232 5.316 4.1l18.432 54.066h104.858l18.432-54.066c0.834-2.866 2.466-4.1 5.334-4.1h40.134c2.866 0 3.7 1.634 2.866 4.1l-94.2 270.348c-0.834 2.468-2.466 4.1-5.334 4.1h-37.676c-2.866 0-4.516-1.634-5.334-4.1l-95.45-270.348c-0.816-2.466 0-4.1 2.868-4.1h39.75zM413.734 589.050h1.234l36.874-108.132h-75.374l37.266 108.132zM619.774 379.734c2.432 0 4.1 1.634 4.1 4.1v98.716c0 1.632 0.8 2.466 2.432 2.466h57.768c54.066 0 91.766 34.818 91.766 86.832 0 51.618-37.7 86.432-91.766 86.432h-104.466c-2.432 0-4.1-1.632-4.1-4.1v-270.348c0-2.466 1.668-4.1 4.1-4.1h40.168zM623.876 612.4c0 1.65 0.8 2.466 2.432 2.466h54.9c28.668 0 46.3-17.616 46.3-43.016 0-25.8-17.634-43.016-46.3-43.016h-54.9c-1.634 0-2.432 0.832-2.432 2.466v81.098zM868.808 379.734c2.432 0 4.1 1.634 4.1 4.1v270.348c0 2.468-1.668 4.1-4.1 4.1h-40.168c-2.432 0-4.1-1.634-4.1-4.1v-270.348c0-2.466 1.668-4.1 4.1-4.1h40.168zM1012.576 414.15c-20.5 0-43.434 9.418-57.768 22.518-1.634 1.65-4.1 1.65-5.732 0l-23.366-24.568c-1.634-1.65-1.634-4.1 0-5.732 16.4-15.168 44.268-31.134 84.8-31.134 54.068 0 82.768 27.432 82.768 66.764 0 32.368-19.666 53.668-61.034 57.75l-21.3 2.048c-25.4 2.466-32.366 9.434-32.366 20.9 0 11.882 10.232 20.484 29.9 20.484 19.666 0 39.332-7.784 51.6-16.384 2.066-1.232 4.1-1.232 5.732 0.818l20.068 24.166c1.232 1.634 1.232 4.1-0.8 5.734-17.634 13.932-43.434 24.166-74.134 24.166-49.166 0-76.6-24.166-76.6-62.266 0-33.584 20.466-54.068 60.6-58.168l21.3-2.050c25.834-2.45 32.768-9.834 32.768-21.7 0-13.534-12.268-23.35-36.432-23.35zM290.132 294.4h819.208v-68.266h-819.208v68.266z" horiz-adv-x="1400" />
<glyph unicode="&#xe612;" d="M716.8 665.6l-288-288-128 128-89.6-96 217.6-217.6 377.6 384z" />
<glyph unicode="&#xe613;" d="M1024 448c0-281.6-230.4-512-512-512s-512 230.4-512 512c0 281.6 230.4 512 512 512s512-230.4 512-512zM921.6 448c0 230.4-185.6 409.6-409.6 409.6-230.4 0-409.6-179.2-409.6-409.6s185.6-409.6 409.6-409.6c230.4 0 409.6 179.2 409.6 409.6zM716.8 665.6l-288-288-128 128-89.6-96 217.6-217.6 384 384-96 89.6z" />
<glyph unicode="&#xe614;" d="M1024 448c0-281.6-230.4-512-512-512s-512 230.4-512 512c0 281.6 230.4 512 512 512s512-230.4 512-512zM921.6 448c0 230.4-185.6 409.6-409.6 409.6-230.4 0-409.6-179.2-409.6-409.6s185.6-409.6 409.6-409.6c230.4 0 409.6 179.2 409.6 409.6z" />
</font>
</defs>
</svg>
