<?xml version="1.0" standalone="no"?>
<!DOCTYPE svg PUBLIC "-//W3C//DTD SVG 1.1//EN" "http://www.w3.org/Graphics/SVG/1.1/DTD/svg11.dtd" >
<svg xmlns="http://www.w3.org/2000/svg">
<metadata>Generated by IcoMoon</metadata>
<defs>
<font id="codecademy-icons" horiz-adv-x="1024">
<font-face units-per-em="1024" ascent="960" descent="-64" />
<missing-glyph horiz-adv-x="1024" />
<glyph unicode="&#x20;" d="" horiz-adv-x="512" />
<glyph unicode="&#x65;" d="M0-60.348l372.326 84.343-281.361 281.225zM1024 666.453l-289.894 289.894-556.544-556.271 289.929-289.758z" />
<glyph unicode="&#x66;" d="M512 960c-282.795 0-512-229.205-512-512 0-282.761 229.205-512 512-512 282.761 0 512 229.239 512 512 0 282.795-229.239 512-512 512zM663.552 658.842c0 0-51.234 0-71.578 0-25.259 0-30.583-10.411-30.583-36.523 0-21.709 0-63.147 0-63.147h102.127l-9.83-110.831h-92.297v-331.093h-132.198v329.694h-68.745v112.23h68.745c0 0 0 16.145 0 88.371 0 82.944 44.373 126.327 142.78 126.327 16.111 0 91.58 0 91.58 0v-115.029z" />
<glyph unicode="&#x67;" d="M1024 392.329v111.411l-104.585 26.18c-3.516 17.34-8.055 34.338-13.619 50.825l77.517 74.923-55.706 96.563-103.799-29.628c-11.537 13.141-23.996 25.532-37.103 37.137l29.662 103.799-96.563 55.74-74.923-77.517c-16.555 5.598-33.553 10.138-50.995 13.619l-26.214 104.619h-111.411l-26.18-104.619c-17.34-3.482-34.338-8.021-50.859-13.585l-74.923 77.483-96.563-55.74 29.628-103.799c-13.107-11.605-25.498-23.996-37.103-37.137l-103.799 29.696-55.74-96.563 77.517-74.923c-5.598-16.555-10.138-33.553-13.619-50.893l-104.619-26.214v-111.479l104.619-26.146c3.482-17.442 8.021-34.372 13.585-50.927l-77.517-74.923 55.74-96.563 103.799 29.662c11.605-13.107 23.996-25.566 37.137-37.103l-29.628-103.799 96.563-55.706 74.923 77.517c16.486-5.564 33.485-10.138 50.825-13.619l26.249-104.619h111.479l26.146 104.585c17.442 3.516 34.372 8.055 50.927 13.619l74.923-77.517 96.563 55.706-29.662 103.799c13.107 11.537 25.566 23.996 37.103 37.103l103.799-29.662 55.706 96.563-77.517 74.923c5.564 16.486 10.138 33.485 13.619 50.927l104.619 26.283zM512 247.057c-111.002 0-200.943 89.941-200.943 200.943s90.010 200.943 200.943 200.943c111.002 0 200.943-90.010 200.943-200.943 0-111.002-89.941-200.943-200.943-200.943z" />
<glyph unicode="&#x69;" d="M512 718.234c-381.884 0-512-270.234-512-270.234s128.512-270.199 512-270.199 512 270.199 512 270.199-130.15 270.234-512 270.234zM512 239.343c-115.268 0-208.657 93.457-208.657 208.657 0 115.268 93.389 208.691 208.657 208.691 115.234 0 208.657-93.423 208.657-208.691 0-115.2-93.423-208.657-208.657-208.657zM602.999 448c0-50.258-40.742-90.999-90.999-90.999-50.258 0-90.999 40.742-90.999 90.999 0 50.258 40.742 90.999 90.999 90.999 50.258 0 90.999-40.742 90.999-90.999z" />
<glyph unicode="&#x6d;" d="M814.217 304.435v292.727l-159.13-133.53zM769.673 629.282h-513.126l256.99-214.835zM513.604 344.883l-106.633 89.19-167.356-167.39h536.951l-162.509 162.543zM209.749 598.972v-286.857l156.228 156.262zM512 960c-282.761 0-512-229.274-512-512 0-282.897 229.239-512 512-512 282.897 0 512 229.103 512 512 0 282.726-229.103 512-512 512zM867.567 213.504h-711.134v468.992h711.1v-468.992z" />
<glyph unicode="&#x74;" d="M512 960c-282.795 0-512-229.205-512-512 0-282.761 229.205-512 512-512 282.761 0 512 229.239 512 512 0 282.795-229.239 512-512 512zM769.434 536.235c7.578-167.014-117.043-353.246-337.51-353.246-67.038 0-129.468 19.661-182.033 53.385 62.976-7.509 125.815 10.035 175.787 49.152-51.985 0.922-95.881 35.191-110.933 82.432 18.569-3.516 36.932-2.56 53.589 2.014-57.037 11.469-96.529 62.976-95.232 117.965 16.009-8.875 34.304-14.199 53.794-14.882-52.941 35.396-67.857 105.199-36.762 158.583 58.607-71.851 146.091-119.125 244.804-124.075-17.34 74.308 39.014 145.783 115.644 145.783 34.202 0 65.024-14.404 86.665-37.478 27.102 5.325 52.429 15.189 75.435 28.809-8.909-27.682-27.716-50.995-52.224-65.707 23.996 2.867 46.899 9.25 68.233 18.739-15.872-23.825-36.011-44.783-59.255-61.474z" />
<glyph unicode="&#x76;" d="M921.6 857.6h-819.2c-56.525 0-102.4-45.875-102.4-102.4v-614.4c0-56.491 45.875-102.4 102.4-102.4h819.2c56.491 0 102.4 45.909 102.4 102.4v614.4c0 56.525-45.909 102.4-102.4 102.4zM409.6 192c0-28.297-22.938-51.2-51.2-51.2h-204.8c-28.262 0-51.2 22.903-51.2 51.2v512c0 28.262 22.938 51.2 51.2 51.2h204.8c28.262 0 51.2-22.938 51.2-51.2v-512zM921.6 192c0-28.297-22.903-51.2-51.2-51.2h-307.2c-28.262 0-51.2 22.903-51.2 51.2v153.6c0 28.297 22.938 51.2 51.2 51.2h307.2c28.297 0 51.2-22.903 51.2-51.2v-153.6zM921.6 550.4c0-28.297-22.903-51.2-51.2-51.2h-307.2c-28.262 0-51.2 22.903-51.2 51.2v153.6c0 28.297 22.938 51.2 51.2 51.2h307.2c28.297 0 51.2-22.903 51.2-51.2v-153.6z" />
<glyph unicode="&#x78;" d="M512 960c-282.795 0-512-229.205-512-512 0-282.761 229.205-512 512-512 282.761 0 512 229.239 512 512 0 282.795-229.239 512-512 512zM706.15 143.428l-191.659 191.659-191.727-191.761-102.98 103.117 191.659 191.659-191.659 191.625 103.049 102.98 191.659-191.59 191.659 191.659 103.083-102.98-191.659-191.625 191.659-191.659-103.083-103.083z" />
<glyph unicode="&#xe600;" d="M210.71 633.084v-370.266h602.538v370.266h-602.538zM1023.996 583.362h-117.084v143.392h-143.39v117.084h260.478v-260.476h-0.004zM763.522 52.162v117.086h143.388v143.386h117.090v-260.476l-260.478 0.004zM0.002 312.638h117.082v-143.39h143.392v-117.080h-260.474v260.47zM260.476 843.838v-117.086h-143.392v-143.388h-117.084v260.474h260.476z" />
<glyph unicode="&#xe601;" d="M284.664 750.228l110.296 109.772 410.040-412-410.040-412-110.296 109.774 300.79 302.226z" />
<glyph unicode="&#xe602;" d="M814.228 708l109.772-110.296-412-410.040-412 410.040 109.774 110.296 302.226-300.79 302.228 300.79z" />
<glyph unicode="&#xe603;" d="M469.737 707.921l-207.811-573.101h-131.932l207.811 573.1h131.932zM738.938 735.755l-14.49-134.219 135.746 38.512 14.108-112.485-119.73-8.007 78.93-106.003-99.14-52.62-54.526 107.909-46.9-107.146-103.716 51.857 78.55 106.003-119.349 9.532 17.159 110.96 132.694-38.512-14.87 134.219h115.534z" />
<glyph unicode="&#xe604;" d="M572.088 238.131c29 140.042 235.489 247.501 235.489 665.764h-590.643c0-418.273 206.5-525.732 235.489-665.774h119.665zM394.394 702.249l81.664 11.284 35.942 74.168 35.963-74.168 81.654-11.284-59.443-57.108 14.51-81.142-72.684 38.892-72.694-38.892 14.52 81.142-59.433 57.108zM224.788 536.852c12.626-30.73 26.307-58.542 40.253-83.999-156.621 65.741-250.010 222.423-265.042 387.973h160.44c0.942-18.79 2.273-37.253 4.076-55.327h-99.328c16.62-77.947 57.907-181.77 159.601-248.648zM694.118 51.016v-58.921h-363.725v58.921c94.198 0 119.040 79.032 123.187 131.779 0 0 113.388 0 117.361 0 4.137-52.746 26.255-131.779 123.177-131.779zM1024 840.827c-15.012-165.325-108.155-321.792-264.356-387.697 13.937 25.508 27.638 53.391 40.284 84.183 101.181 66.898 142.305 170.424 158.904 248.187h-98.826c1.812 18.084 3.144 36.536 4.076 55.327h159.918z" />
<glyph unicode="&#xe605;" d="M312.452 560.642c15.082 15.080 31.804 27.514 49.588 37.318 99.112 54.636 226.234 25.576 289.94-71.036l-77.094-77.094c-22.118 50.454-77 79.13-131.626 66.912-20.564-4.6-40.108-14.854-56.078-30.826l-147.796-147.792c-44.866-44.866-44.864-117.872 0.004-162.738 44.866-44.866 117.87-44.866 162.736 0l45.56 45.558c41.42-16.434 85.876-23.016 129.724-19.726l-100.556-100.556c-86.21-86.21-225.982-86.21-312.192 0-86.21 86.208-86.212 225.982-0.002 312.192l147.792 147.788zM547.148 795.34l-100.556-100.556c43.856 3.286 88.304-3.296 129.726-19.73l45.558 45.56c44.868 44.868 117.872 44.868 162.74 0s44.868-117.872 0-162.74l-147.794-147.79c-45.002-45.002-118.122-44.622-162.736 0-10.404 10.402-19.388 23.356-24.968 36.080l-77.092-77.092c8.098-12.284 16.522-22.906 27.332-33.716 27.898-27.9 63.396-48.678 104.234-58.502 52.932-12.74 109.646-5.678 158.37 21.184 17.784 9.806 34.508 22.238 49.588 37.318l147.792 147.79c86.21 86.21 86.21 225.982 0.002 312.194-86.212 86.21-225.984 86.21-312.196 0z" />
<glyph unicode="&#xe606;" d="M1025.082 678.666l-219.368 143.34-0.228-87.718h-71.5c-117.85 0-229.82-40.786-294.014-150.41l-6.708-12.514c-39.646-65.76-74.832-63.876-160.706-63.876h-271.086v-106.088h271.088c117.894 0 188.484 21.096 245 113.724l6.708 12.514c45.47 77.7 123.888 100.556 209.718 100.556h71.222l-0.228-95.978 220.102 146.45zM805.208 267.758h-71.222c-78.99 0-151.676 39.324-198.226 106.17 0 0-8.564 10.726-19.408 23.732-23.288-29.356-49.272-48.974-79.842-61.758 20.096-26.148 44.33-55.246 43.71-56.226 66.572-76.298 158.824-117.964 253.766-117.964h71.498l0.23-87.716 219.368 143.336-219.874 146.448v-96.022z" />
<glyph unicode="&#xe607;" d="M238.66 264.090c104.107 453.291 552.311 499.405 552.311 499.405v114.005l233.028-209.852-233.028-266.923v129.57c0-0.068-330.684-28.979-552.311-266.206zM792.644 248.593v-113.698h-676.181v483.977h163.533c32.631 42.052 89.327 90.18 156.57 116.497h-436.565v-716.868h909.175v368.401l-116.531-138.308z" />
<glyph unicode="&#xe608;" d="M512 860l73.432-90.274 105.328 49.474 26.992-113.196 116.364-1.126-24.796-113.696 104.35-51.504-71.67-91.678 71.67-91.678-104.35-51.504 24.796-113.694-116.364-1.128-26.992-113.196-105.328 49.474-73.432-90.274-73.432 90.274-105.328-49.474-26.992 113.196-116.362 1.128 24.794 113.694-104.35 51.504 71.67 91.678-71.67 91.678 104.35 51.504-24.794 113.696 116.362 1.126 26.992 113.196 105.328-49.474z" />
<glyph unicode="&#xe609;" d="M923.914 172.854h-212.796c-0.010 231.598-115.774 121.52-115.774 324.464 0 73.258 47.96 113.020 109.544 113.020 90.99 0 154.316-86.878 68.15-249.332-28.306-53.368 30.144-66.050 92.938-80.536 62.768-14.476 57.938-47.57 57.938-107.616zM578.238 308.22c-78.984 18.218-152.508 34.172-116.9 101.304 108.384 204.34 28.728 313.622-85.724 313.622-116.708 0-194.404-113.472-85.722-313.622 36.674-67.542-39.618-83.476-116.904-101.304-78.952-18.21-72.878-59.836-72.878-135.368h551.010c-0.002 75.532 6.072 117.158-72.882 135.368z" />
<glyph unicode="&#xe60a;" d="M699.314 723.492l41.972 61.084 65.836-45.45-41.782-60.804c-20.354 17.18-42.46 32.356-66.026 45.17zM451.444 861.76v-95.402c19.746 3.064 39.964 4.662 60.554 4.662 20.204 0 40.054-1.536 59.446-4.486v95.226h-120zM855.388 377.63c0-189.648-153.738-343.39-343.39-343.39-189.648 0-343.386 153.742-343.386 343.39 0 189.646 153.738 343.388 343.386 343.388 189.652 0.002 343.39-153.74 343.39-343.388zM765.388 377.63c0 140.062-113.356 253.388-253.39 253.388-140.062 0-253.386-113.356-253.386-253.388 0-140.062 113.356-253.39 253.386-253.39 140.062 0 253.39 113.352 253.39 253.39zM578.526 359.546c0-34.792-28.204-63-63-63-34.792 0-63 28.208-63 63 0 22.602 11.91 42.414 29.79 53.532l23.050 173.214c0.472 3.898 3.742 6.856 7.668 6.942 3.926 0.084 7.316-2.728 7.958-6.602l26.66-172.894c18.482-10.98 30.874-31.134 30.874-54.192zM534 158.278h-40v52h40v-52zM734 398.278v-40h-52v40h52zM294 398.278v-40h52v40h-52zM683.706 236.856l-28.284-28.284-34.426 34.426 28.284 28.284 34.426-34.426zM372.578 547.982l-28.286-28.286 34.428-34.426 28.284 28.286-34.426 34.426zM655.422 547.982l28.284-28.286-34.426-34.426-28.284 28.286 34.426 34.426zM344.292 236.854l28.286-28.284 34.426 34.428-28.284 28.284-34.428-34.428z" />
<glyph unicode="&#xe60b;" d="M577.886 742.154h98.562l-223.706-588.312h-98.012l223.156 588.312zM1023.766 407.296l-290.586-163.308v101.268l169.2 95.418-169.2 94.438v101.526l290.586-163.31v-66.032zM0.234 473.328l290.588 163.308v-101.526l-169.208-94.436 169.204-95.418v-101.268l-290.584 163.308v66.032z" />
<glyph unicode="&#xe60c;" d="M796.436 774.030l-396.978-396.98-171.95 171.998-127.508-127.532 299.466-299.546 524.534 524.578z" />
<glyph unicode="&#xe60d;" d="M290.666 513.334v125.332c0 122.044 99.292 221.334 221.334 221.334 122.044 0 221.334-99.29 221.334-221.334v-125.332h-100v125.332c0 66.904-54.43 121.334-121.334 121.334s-121.334-54.43-121.334-121.334v-125.332h-100zM216 453.334v-417.334h592v417.334h-592z" />
<glyph unicode="&#xe60e;" d="M512 860c-227.542 0-412-184.458-412-412s184.458-412 412-412 412 184.458 412 412-184.458 412-412 412zM719.198 518.988c6.042-134.398-94.192-284.248-271.604-284.248-53.962 0-104.192 15.822-146.476 42.932 50.694-5.974 101.292 8.088 141.468 39.572-41.814 0.772-77.108 28.396-89.264 66.362 14.972-2.864 29.702-2.026 43.15 1.632-45.952 9.234-77.678 50.634-76.642 94.906 12.88-7.16 27.62-11.458 43.284-11.954-42.556 28.442-54.606 84.636-29.57 127.578 47.126-57.812 117.54-95.856 196.956-99.84-13.938 59.772 31.404 117.334 93.084 117.334 27.484 0 52.32-11.604 69.748-30.176 21.768 4.286 42.216 12.238 60.682 23.188-7.134-22.314-22.288-41.042-42.016-52.866 19.33 2.306 37.748 7.444 54.882 15.046-12.81-19.164-29.010-35.996-47.682-49.466z" />
<glyph unicode="&#xe60f;" d="M333.92 337.496c0-1.362-1.558-2.462-3.478-2.462-1.922 0-3.478 1.102-3.478 2.462 0 1.366 1.556 2.468 3.478 2.468 1.92 0 3.478-1.102 3.478-2.468zM338.722 331.866c-2.246 0-4.068-1.294-4.068-2.884 0-1.594 1.822-2.886 4.068-2.886 2.244 0 4.064 1.292 4.064 2.886 0.002 1.588-1.82 2.884-4.064 2.884zM358.402 312.864c-2.774 0-5.024-1.598-5.024-3.564 0-1.968 2.25-3.56 5.024-3.56 2.772 0 5.022 1.592 5.022 3.56 0 1.966-2.25 3.564-5.022 3.564zM313.522 351.992c-1.474 0-2.67-0.848-2.67-1.894 0-1.042 1.196-1.89 2.67-1.89s2.67 0.848 2.67 1.89c0 1.046-1.196 1.894-2.67 1.894zM321.922 346.684c-1.638 0-2.968-0.944-2.968-2.106 0-1.16 1.33-2.102 2.968-2.102 1.634 0 2.964 0.942 2.964 2.102 0 1.162-1.33 2.106-2.964 2.106zM347.842 322.406c-2.496 0-4.52-1.438-4.52-3.208 0-1.774 2.024-3.208 4.52-3.208s4.522 1.434 4.522 3.208c0 1.77-2.026 3.208-4.522 3.208zM924 448c0-227.542-184.458-412-412-412s-412 184.458-412 412 184.458 412 412 412 412-184.458 412-412zM711.804 426.292c1.208 2.722 2.404 5.458 3.438 8.332 32.242 2.586 65.458 2.332 98.87-0.914l0.53 5.5c-32.968 3.2-65.762 3.484-97.616 1.052 5.12 16.34 7.818 34.796 7.624 55.786-0.42 44.588-15.288 79.316-38.652 108.136 4.486 27.146 1.106 54.292-7.362 81.448-33.388-2.734-63.438-13.668-90.194-32.666-50.004 10.144-100.002 10.79-150.008 0-31.208 21.064-61.856 31.394-92.030 32.666-8.944-29.902-10.322-59.376-2.76-88.354-26.324-27.932-36.384-61.84-35.89-99.386 0.282-21.494 3.592-40.62 9.704-57.53-31.388 2.302-63.65 1.994-96.098-1.15l0.532-5.5c33.042 3.208 65.894 3.472 97.804 0.976 1.172-2.84 2.35-5.672 3.696-8.376-34.574 0.912-65.69-2.092-94.83-9.258l1.314-5.36c29.576 7.268 61.26 10.196 96.634 9.004 23.394-41.562 68.43-65.984 134.012-73.734-15.236-12.376-23.428-26.972-25.538-43.49 0 0-6.894 0-34.734 0-46.648 0-59.366 59.478-107.682 53.612 46.874-23.246 37.512-97.546 112.518-97.546 25.208 0 30.566 0 31.512 0v-68.108c0.334-11.006-4.458-18.366-12.196-23.466 26.862-2.71 47.048 10.7 47.048 27.148 0 16.454 0 82.008 0 90.028s8.398 8.64 8.398 8.64v-105.11c0.356-10.46-4.728-16.406-10.124-22.088 23.666-0.944 45.926 3.784 46.934 23.924 0 0 0 95.54 0 100.598 0 5.056 8.29 5.182 8.29 0 0-5.184 0-95.876 0-95.876 0.244-16.992 14.92-30.768 46.012-28.644-8.318 6.696-10.872 13.462-10.872 23.256s0 103.942 0 103.942 8.57 0.438 8.57-8.64c0-9.080 0-72.476 0-87.668 0-19.512 23.422-27.562 50.154-26.804-8.758 6.56-14.686 14.384-14.722 24.848v105.43c-0.904 15.496-7.206 30.106-19.558 43.716 59.95 9.206 103.158 33.134 124.674 76.026 35.49 1.218 67.27-1.702 96.922-8.992l1.316 5.36c-29.368 7.214-60.74 10.214-95.64 9.232zM427.46 297.722c-3.080 0-5.58-1.778-5.58-3.962s2.5-3.958 5.58-3.958c3.082 0 5.58 1.774 5.58 3.958s-2.498 3.962-5.58 3.962zM409.042 298.080c-3.082 0-5.578-1.776-5.578-3.962 0-2.184 2.496-3.958 5.578-3.958 3.080 0 5.58 1.774 5.58 3.958 0 2.186-2.5 3.962-5.58 3.962zM390.38 298.682c-3.080 0-5.58-1.776-5.58-3.962 0-2.184 2.5-3.958 5.58-3.958 3.084 0 5.58 1.774 5.58 3.958 0 2.186-2.496 3.962-5.58 3.962zM372.684 303.902c-3.084 0-5.582-1.776-5.582-3.96 0-2.188 2.498-3.96 5.582-3.96 3.080 0 5.578 1.774 5.578 3.96 0 2.184-2.498 3.96-5.578 3.96z" />
<glyph unicode="&#xe610;" d="M512.834 860c-227.542 0-412-184.458-412-412s184.458-412 412-412 412 184.458 412 412-184.458 412-412 412zM402.912 248.816h-90.458v292.246h90.458v-292.246zM357.252 579.334c-29.542 0-53.492 24.144-53.492 53.926s23.95 53.926 53.492 53.926c29.54 0 53.49-24.144 53.49-53.926s-23.95-53.926-53.49-53.926zM741.906 248.816h-90.020c0 0 0 111.332 0 153.406s-15.982 65.562-49.252 65.562c-36.206 0-55.124-24.462-55.124-65.562 0-45.008 0-153.406 0-153.406h-86.76v292.246h86.76v-39.358c0 0 26.094 48.274 88.064 48.274 61.972 0 106.33-37.836 106.33-116.116 0.002-78.28 0.002-185.046 0.002-185.046z" />
<glyph unicode="&#xe611;" d="M518 893c-259.020 0-469-209.98-469-469 0-259.024 209.98-469 469-469 259.024 0 469 209.976 469 469 0 259.020-209.976 469-469 469zM500.408 166.256c-61.496-61.496-161.198-61.496-222.692 0-61.496 61.494-61.498 161.2-0.002 222.694l105.424 105.42c10.76 10.756 22.688 19.628 35.374 26.62 70.698 38.976 161.376 18.246 206.818-50.67l-54.994-54.994c-15.776 35.99-54.922 56.448-93.89 47.73-14.668-3.282-28.61-10.594-40-21.99l-105.426-105.422c-32.004-32.002-32.002-84.080 0.002-116.084 32.002-32.006 84.078-32.006 116.082 0l32.498 32.496c29.546-11.722 61.258-16.416 92.536-14.072l-71.73-71.728zM773.244 439.090l-105.422-105.422c-10.756-10.758-22.686-19.624-35.376-26.618-34.754-19.164-75.208-24.204-112.966-15.114-29.128 7.010-54.452 21.828-74.352 41.73-7.71 7.71-13.72 15.288-19.498 24.050l54.994 54.99c3.98-9.076 10.386-18.314 17.808-25.736 31.824-31.83 83.98-32.102 116.082 0l105.426 105.422c32.006 32.006 32.006 84.082 0 116.086s-84.080 32.004-116.086 0l-32.496-32.5c-29.546 11.722-61.254 16.418-92.536 14.076l71.726 71.728c61.498 61.494 161.202 61.494 222.698 0 61.492-61.492 61.492-161.198-0.002-222.692z" />
<glyph unicode="" d="M518 893c-259.020 0-469-209.98-469-469 0-259.024 209.98-469 469-469 259.024 0 469 209.976 469 469 0 259.020-209.976 469-469 469zM500.408 166.256c-61.496-61.496-161.198-61.496-222.692 0-61.496 61.494-61.498 161.2-0.002 222.694l105.424 105.42c10.76 10.756 22.688 19.628 35.374 26.62 70.698 38.976 161.376 18.246 206.818-50.67l-54.994-54.994c-15.776 35.99-54.922 56.448-93.89 47.73-14.668-3.282-28.61-10.594-40-21.99l-105.426-105.422c-32.004-32.002-32.002-84.080 0.002-116.084 32.002-32.006 84.078-32.006 116.082 0l32.498 32.496c29.546-11.722 61.258-16.416 92.536-14.072l-71.73-71.728zM773.244 439.090l-105.422-105.422c-10.756-10.758-22.686-19.624-35.376-26.618-34.754-19.164-75.208-24.204-112.966-15.114-29.128 7.010-54.452 21.828-74.352 41.73-7.71 7.71-13.72 15.288-19.498 24.050l54.994 54.99c3.98-9.076 10.386-18.314 17.808-25.736 31.824-31.83 83.98-32.102 116.082 0l105.426 105.422c32.006 32.006 32.006 84.082 0 116.086s-84.080 32.004-116.086 0l-32.496-32.5c-29.546 11.722-61.254 16.418-92.536 14.076l71.726 71.728c61.498 61.494 161.202 61.494 222.698 0 61.492-61.492 61.492-161.198-0.002-222.692z" />
<glyph unicode="watch" d="M699.314 723.492l41.972 61.084 65.836-45.45-41.782-60.804c-20.354 17.18-42.46 32.356-66.026 45.17zM451.444 861.76v-95.402c19.746 3.064 39.964 4.662 60.554 4.662 20.204 0 40.054-1.536 59.446-4.486v95.226h-120zM855.388 377.63c0-189.648-153.738-343.39-343.39-343.39-189.648 0-343.386 153.742-343.386 343.39 0 189.646 153.738 343.388 343.386 343.388 189.652 0.002 343.39-153.74 343.39-343.388zM765.388 377.63c0 140.062-113.356 253.388-253.39 253.388-140.062 0-253.386-113.356-253.386-253.388 0-140.062 113.356-253.39 253.386-253.39 140.062 0 253.39 113.352 253.39 253.39zM578.526 359.546c0-34.792-28.204-63-63-63-34.792 0-63 28.208-63 63 0 22.602 11.91 42.414 29.79 53.532l23.050 173.214c0.472 3.898 3.742 6.856 7.668 6.942 3.926 0.084 7.316-2.728 7.958-6.602l26.66-172.894c18.482-10.98 30.874-31.134 30.874-54.192zM534 158.278h-40v52h40v-52zM734 398.278v-40h-52v40h52zM294 398.278v-40h52v40h-52zM683.706 236.856l-28.284-28.284-34.426 34.426 28.284 28.284 34.426-34.426zM372.578 547.982l-28.286-28.286 34.428-34.426 28.284 28.286-34.426 34.426zM655.422 547.982l28.284-28.286-34.426-34.426-28.284 28.286 34.426 34.426zM344.292 236.854l28.286-28.284 34.426 34.428-28.284 28.284-34.428-34.428z" />
<glyph unicode="twitterCircle" d="M512 960c-282.795 0-512-229.205-512-512 0-282.761 229.205-512 512-512 282.761 0 512 229.239 512 512 0 282.795-229.239 512-512 512zM769.434 536.235c7.578-167.014-117.043-353.246-337.51-353.246-67.038 0-129.468 19.661-182.033 53.385 62.976-7.509 125.815 10.035 175.787 49.152-51.985 0.922-95.881 35.191-110.933 82.432 18.569-3.516 36.932-2.56 53.589 2.014-57.037 11.469-96.529 62.976-95.232 117.965 16.009-8.875 34.304-14.199 53.794-14.882-52.941 35.396-67.857 105.199-36.762 158.583 58.607-71.851 146.091-119.125 244.804-124.075-17.34 74.308 39.014 145.783 115.644 145.783 34.202 0 65.024-14.404 86.665-37.478 27.102 5.325 52.429 15.189 75.435 28.809-8.909-27.682-27.716-50.995-52.224-65.707 23.996 2.867 46.899 9.25 68.233 18.739-15.872-23.825-36.011-44.783-59.255-61.474z" />
<glyph unicode="twitter" d="M512 860c-227.542 0-412-184.458-412-412s184.458-412 412-412 412 184.458 412 412-184.458 412-412 412zM719.198 518.988c6.042-134.398-94.192-284.248-271.604-284.248-53.962 0-104.192 15.822-146.476 42.932 50.694-5.974 101.292 8.088 141.468 39.572-41.814 0.772-77.108 28.396-89.264 66.362 14.972-2.864 29.702-2.026 43.15 1.632-45.952 9.234-77.678 50.634-76.642 94.906 12.88-7.16 27.62-11.458 43.284-11.954-42.556 28.442-54.606 84.636-29.57 127.578 47.126-57.812 117.54-95.856 196.956-99.84-13.938 59.772 31.404 117.334 93.084 117.334 27.484 0 52.32-11.604 69.748-30.176 21.768 4.286 42.216 12.238 60.682 23.188-7.134-22.314-22.288-41.042-42.016-52.866 19.33 2.306 37.748 7.444 54.882 15.046-12.81-19.164-29.010-35.996-47.682-49.466z" />
<glyph unicode="tags" d="M469.737 707.921l-207.811-573.101h-131.932l207.811 573.1h131.932zM738.938 735.755l-14.49-134.219 135.746 38.512 14.108-112.485-119.73-8.007 78.93-106.003-99.14-52.62-54.526 107.909-46.9-107.146-103.716 51.857 78.55 106.003-119.349 9.532 17.159 110.96 132.694-38.512-14.87 134.219h115.534z" />
<glyph unicode="show" d="M512 718.234c-381.884 0-512-270.234-512-270.234s128.512-270.199 512-270.199 512 270.199 512 270.199-130.15 270.234-512 270.234zM512 239.343c-115.268 0-208.657 93.457-208.657 208.657 0 115.268 93.389 208.691 208.657 208.691 115.234 0 208.657-93.423 208.657-208.691 0-115.2-93.423-208.657-208.657-208.657zM602.999 448c0-50.258-40.742-90.999-90.999-90.999-50.258 0-90.999 40.742-90.999 90.999 0 50.258 40.742 90.999 90.999 90.999 50.258 0 90.999-40.742 90.999-90.999z" />
<glyph unicode="share" d="M238.66 264.090c104.107 453.291 552.311 499.405 552.311 499.405v114.005l233.028-209.852-233.028-266.923v129.57c0-0.068-330.684-28.979-552.311-266.206zM792.644 248.593v-113.698h-676.181v483.977h163.533c32.631 42.052 89.327 90.18 156.57 116.497h-436.565v-716.868h909.175v368.401l-116.531-138.308z" />
<glyph unicode="project" d="M921.6 857.6h-819.2c-56.525 0-102.4-45.875-102.4-102.4v-614.4c0-56.491 45.875-102.4 102.4-102.4h819.2c56.491 0 102.4 45.909 102.4 102.4v614.4c0 56.525-45.909 102.4-102.4 102.4zM409.6 192c0-28.297-22.938-51.2-51.2-51.2h-204.8c-28.262 0-51.2 22.903-51.2 51.2v512c0 28.262 22.938 51.2 51.2 51.2h204.8c28.262 0 51.2-22.938 51.2-51.2v-512zM921.6 192c0-28.297-22.903-51.2-51.2-51.2h-307.2c-28.262 0-51.2 22.903-51.2 51.2v153.6c0 28.297 22.938 51.2 51.2 51.2h307.2c28.297 0 51.2-22.903 51.2-51.2v-153.6zM921.6 550.4c0-28.297-22.903-51.2-51.2-51.2h-307.2c-28.262 0-51.2 22.903-51.2 51.2v153.6c0 28.297 22.938 51.2 51.2 51.2h307.2c28.297 0 51.2-22.903 51.2-51.2v-153.6z" />
<glyph unicode="people" d="M923.914 172.854h-212.796c-0.010 231.598-115.774 121.52-115.774 324.464 0 73.258 47.96 113.020 109.544 113.020 90.99 0 154.316-86.878 68.15-249.332-28.306-53.368 30.144-66.050 92.938-80.536 62.768-14.476 57.938-47.57 57.938-107.616zM578.238 308.22c-78.984 18.218-152.508 34.172-116.9 101.304 108.384 204.34 28.728 313.622-85.724 313.622-116.708 0-194.404-113.472-85.722-313.622 36.674-67.542-39.618-83.476-116.904-101.304-78.952-18.21-72.878-59.836-72.878-135.368h551.010c-0.002 75.532 6.072 117.158-72.882 135.368z" />
<glyph unicode="lock" d="M290.666 513.334v125.332c0 122.044 99.292 221.334 221.334 221.334 122.044 0 221.334-99.29 221.334-221.334v-125.332h-100v125.332c0 66.904-54.43 121.334-121.334 121.334s-121.334-54.43-121.334-121.334v-125.332h-100zM216 453.334v-417.334h592v417.334h-592z" />
<glyph unicode="linkedin" d="M512.834 860c-227.542 0-412-184.458-412-412s184.458-412 412-412 412 184.458 412 412-184.458 412-412 412zM402.912 248.816h-90.458v292.246h90.458v-292.246zM357.252 579.334c-29.542 0-53.492 24.144-53.492 53.926s23.95 53.926 53.492 53.926c29.54 0 53.49-24.144 53.49-53.926s-23.95-53.926-53.49-53.926zM741.906 248.816h-90.020c0 0 0 111.332 0 153.406s-15.982 65.562-49.252 65.562c-36.206 0-55.124-24.462-55.124-65.562 0-45.008 0-153.406 0-153.406h-86.76v292.246h86.76v-39.358c0 0 26.094 48.274 88.064 48.274 61.972 0 106.33-37.836 106.33-116.116 0.002-78.28 0.002-185.046 0.002-185.046z" />
<glyph unicode="link" d="M312.452 560.642c15.082 15.080 31.804 27.514 49.588 37.318 99.112 54.636 226.234 25.576 289.94-71.036l-77.094-77.094c-22.118 50.454-77 79.13-131.626 66.912-20.564-4.6-40.108-14.854-56.078-30.826l-147.796-147.792c-44.866-44.866-44.864-117.872 0.004-162.738 44.866-44.866 117.87-44.866 162.736 0l45.56 45.558c41.42-16.434 85.876-23.016 129.724-19.726l-100.556-100.556c-86.21-86.21-225.982-86.21-312.192 0-86.21 86.208-86.212 225.982-0.002 312.192l147.792 147.788zM547.148 795.34l-100.556-100.556c43.856 3.286 88.304-3.296 129.726-19.73l45.558 45.56c44.868 44.868 117.872 44.868 162.74 0s44.868-117.872 0-162.74l-147.794-147.79c-45.002-45.002-118.122-44.622-162.736 0-10.404 10.402-19.388 23.356-24.968 36.080l-77.092-77.092c8.098-12.284 16.522-22.906 27.332-33.716 27.898-27.9 63.396-48.678 104.234-58.502 52.932-12.74 109.646-5.678 158.37 21.184 17.784 9.806 34.508 22.238 49.588 37.318l147.792 147.79c86.21 86.21 86.21 225.982 0.002 312.194-86.212 86.21-225.984 86.21-312.196 0z" />
<glyph unicode="homepage" d="M518 893c-259.020 0-469-209.98-469-469 0-259.024 209.98-469 469-469 259.024 0 469 209.976 469 469 0 259.020-209.976 469-469 469zM500.408 166.256c-61.496-61.496-161.198-61.496-222.692 0-61.496 61.494-61.498 161.2-0.002 222.694l105.424 105.42c10.76 10.756 22.688 19.628 35.374 26.62 70.698 38.976 161.376 18.246 206.818-50.67l-54.994-54.994c-15.776 35.99-54.922 56.448-93.89 47.73-14.668-3.282-28.61-10.594-40-21.99l-105.426-105.422c-32.004-32.002-32.002-84.080 0.002-116.084 32.002-32.006 84.078-32.006 116.082 0l32.498 32.496c29.546-11.722 61.258-16.416 92.536-14.072l-71.73-71.728zM773.244 439.090l-105.422-105.422c-10.756-10.758-22.686-19.624-35.376-26.618-34.754-19.164-75.208-24.204-112.966-15.114-29.128 7.010-54.452 21.828-74.352 41.73-7.71 7.71-13.72 15.288-19.498 24.050l54.994 54.99c3.98-9.076 10.386-18.314 17.808-25.736 31.824-31.83 83.98-32.102 116.082 0l105.426 105.422c32.006 32.006 32.006 84.082 0 116.086s-84.080 32.004-116.086 0l-32.496-32.5c-29.546 11.722-61.254 16.418-92.536 14.076l71.726 71.728c61.498 61.494 161.202 61.494 222.698 0 61.492-61.492 61.492-161.198-0.002-222.692z" />
<glyph unicode="goal" d="M572.088 238.131c29 140.042 235.489 247.501 235.489 665.764h-590.643c0-418.273 206.5-525.732 235.489-665.774h119.665zM394.394 702.249l81.664 11.284 35.942 74.168 35.963-74.168 81.654-11.284-59.443-57.108 14.51-81.142-72.684 38.892-72.694-38.892 14.52 81.142-59.433 57.108zM224.788 536.852c12.626-30.73 26.307-58.542 40.253-83.999-156.621 65.741-250.010 222.423-265.042 387.973h160.44c0.942-18.79 2.273-37.253 4.076-55.327h-99.328c16.62-77.947 57.907-181.77 159.601-248.648zM694.118 51.016v-58.921h-363.725v58.921c94.198 0 119.040 79.032 123.187 131.779 0 0 113.388 0 117.361 0 4.137-52.746 26.255-131.779 123.177-131.779zM1024 840.827c-15.012-165.325-108.155-321.792-264.356-387.697 13.937 25.508 27.638 53.391 40.284 84.183 101.181 66.898 142.305 170.424 158.904 248.187h-98.826c1.812 18.084 3.144 36.536 4.076 55.327h159.918z" />
<glyph unicode="github" d="M333.92 337.496c0-1.362-1.558-2.462-3.478-2.462-1.922 0-3.478 1.102-3.478 2.462 0 1.366 1.556 2.468 3.478 2.468 1.92 0 3.478-1.102 3.478-2.468zM338.722 331.866c-2.246 0-4.068-1.294-4.068-2.884 0-1.594 1.822-2.886 4.068-2.886 2.244 0 4.064 1.292 4.064 2.886 0.002 1.588-1.82 2.884-4.064 2.884zM358.402 312.864c-2.774 0-5.024-1.598-5.024-3.564 0-1.968 2.25-3.56 5.024-3.56 2.772 0 5.022 1.592 5.022 3.56 0 1.966-2.25 3.564-5.022 3.564zM313.522 351.992c-1.474 0-2.67-0.848-2.67-1.894 0-1.042 1.196-1.89 2.67-1.89s2.67 0.848 2.67 1.89c0 1.046-1.196 1.894-2.67 1.894zM321.922 346.684c-1.638 0-2.968-0.944-2.968-2.106 0-1.16 1.33-2.102 2.968-2.102 1.634 0 2.964 0.942 2.964 2.102 0 1.162-1.33 2.106-2.964 2.106zM347.842 322.406c-2.496 0-4.52-1.438-4.52-3.208 0-1.774 2.024-3.208 4.52-3.208s4.522 1.434 4.522 3.208c0 1.77-2.026 3.208-4.522 3.208zM924 448c0-227.542-184.458-412-412-412s-412 184.458-412 412 184.458 412 412 412 412-184.458 412-412zM711.804 426.292c1.208 2.722 2.404 5.458 3.438 8.332 32.242 2.586 65.458 2.332 98.87-0.914l0.53 5.5c-32.968 3.2-65.762 3.484-97.616 1.052 5.12 16.34 7.818 34.796 7.624 55.786-0.42 44.588-15.288 79.316-38.652 108.136 4.486 27.146 1.106 54.292-7.362 81.448-33.388-2.734-63.438-13.668-90.194-32.666-50.004 10.144-100.002 10.79-150.008 0-31.208 21.064-61.856 31.394-92.030 32.666-8.944-29.902-10.322-59.376-2.76-88.354-26.324-27.932-36.384-61.84-35.89-99.386 0.282-21.494 3.592-40.62 9.704-57.53-31.388 2.302-63.65 1.994-96.098-1.15l0.532-5.5c33.042 3.208 65.894 3.472 97.804 0.976 1.172-2.84 2.35-5.672 3.696-8.376-34.574 0.912-65.69-2.092-94.83-9.258l1.314-5.36c29.576 7.268 61.26 10.196 96.634 9.004 23.394-41.562 68.43-65.984 134.012-73.734-15.236-12.376-23.428-26.972-25.538-43.49 0 0-6.894 0-34.734 0-46.648 0-59.366 59.478-107.682 53.612 46.874-23.246 37.512-97.546 112.518-97.546 25.208 0 30.566 0 31.512 0v-68.108c0.334-11.006-4.458-18.366-12.196-23.466 26.862-2.71 47.048 10.7 47.048 27.148 0 16.454 0 82.008 0 90.028s8.398 8.64 8.398 8.64v-105.11c0.356-10.46-4.728-16.406-10.124-22.088 23.666-0.944 45.926 3.784 46.934 23.924 0 0 0 95.54 0 100.598 0 5.056 8.29 5.182 8.29 0 0-5.184 0-95.876 0-95.876 0.244-16.992 14.92-30.768 46.012-28.644-8.318 6.696-10.872 13.462-10.872 23.256s0 103.942 0 103.942 8.57 0.438 8.57-8.64c0-9.080 0-72.476 0-87.668 0-19.512 23.422-27.562 50.154-26.804-8.758 6.56-14.686 14.384-14.722 24.848v105.43c-0.904 15.496-7.206 30.106-19.558 43.716 59.95 9.206 103.158 33.134 124.674 76.026 35.49 1.218 67.27-1.702 96.922-8.992l1.316 5.36c-29.368 7.214-60.74 10.214-95.64 9.232zM427.46 297.722c-3.080 0-5.58-1.778-5.58-3.962s2.5-3.958 5.58-3.958c3.082 0 5.58 1.774 5.58 3.958s-2.498 3.962-5.58 3.962zM409.042 298.080c-3.082 0-5.578-1.776-5.578-3.962 0-2.184 2.496-3.958 5.578-3.958 3.080 0 5.58 1.774 5.58 3.958 0 2.186-2.5 3.962-5.58 3.962zM390.38 298.682c-3.080 0-5.58-1.776-5.58-3.962 0-2.184 2.5-3.958 5.58-3.958 3.084 0 5.58 1.774 5.58 3.958 0 2.186-2.496 3.962-5.58 3.962zM372.684 303.902c-3.084 0-5.582-1.776-5.582-3.96 0-2.188 2.498-3.96 5.582-3.96 3.080 0 5.578 1.774 5.578 3.96 0 2.184-2.498 3.96-5.578 3.96z" />
<glyph unicode="gear" d="M1024 392.329v111.411l-104.585 26.18c-3.516 17.34-8.055 34.338-13.619 50.825l77.517 74.923-55.706 96.563-103.799-29.628c-11.537 13.141-23.996 25.532-37.103 37.137l29.662 103.799-96.563 55.74-74.923-77.517c-16.555 5.598-33.553 10.138-50.995 13.619l-26.214 104.619h-111.411l-26.18-104.619c-17.34-3.482-34.338-8.021-50.859-13.585l-74.923 77.483-96.563-55.74 29.628-103.799c-13.107-11.605-25.498-23.996-37.103-37.137l-103.799 29.696-55.74-96.563 77.517-74.923c-5.598-16.555-10.138-33.553-13.619-50.893l-104.619-26.214v-111.479l104.619-26.146c3.482-17.442 8.021-34.372 13.585-50.927l-77.517-74.923 55.74-96.563 103.799 29.662c11.605-13.107 23.996-25.566 37.137-37.103l-29.628-103.799 96.563-55.706 74.923 77.517c16.486-5.564 33.485-10.138 50.825-13.619l26.249-104.619h111.479l26.146 104.585c17.442 3.516 34.372 8.055 50.927 13.619l74.923-77.517 96.563 55.706-29.662 103.799c13.107 11.537 25.566 23.996 37.103 37.103l103.799-29.662 55.706 96.563-77.517 74.923c5.564 16.486 10.138 33.485 13.619 50.927l104.619 26.283zM512 247.057c-111.002 0-200.943 89.941-200.943 200.943s90.010 200.943 200.943 200.943c111.002 0 200.943-90.010 200.943-200.943 0-111.002-89.941-200.943-200.943-200.943z" />
<glyph unicode="fork" d="M1025.082 678.666l-219.368 143.34-0.228-87.718h-71.5c-117.85 0-229.82-40.786-294.014-150.41l-6.708-12.514c-39.646-65.76-74.832-63.876-160.706-63.876h-271.086v-106.088h271.088c117.894 0 188.484 21.096 245 113.724l6.708 12.514c45.47 77.7 123.888 100.556 209.718 100.556h71.222l-0.228-95.978 220.102 146.45zM805.208 267.758h-71.222c-78.99 0-151.676 39.324-198.226 106.17 0 0-8.564 10.726-19.408 23.732-23.288-29.356-49.272-48.974-79.842-61.758 20.096-26.148 44.33-55.246 43.71-56.226 66.572-76.298 158.824-117.964 253.766-117.964h71.498l0.23-87.716 219.368 143.336-219.874 146.448v-96.022z" />
<glyph unicode="facebookCircle" d="M512 960c-282.795 0-512-229.205-512-512 0-282.761 229.205-512 512-512 282.761 0 512 229.239 512 512 0 282.795-229.239 512-512 512zM663.552 658.842c0 0-51.234 0-71.578 0-25.259 0-30.583-10.411-30.583-36.523 0-21.709 0-63.147 0-63.147h102.127l-9.83-110.831h-92.297v-331.093h-132.198v329.694h-68.745v112.23h68.745c0 0 0 16.145 0 88.371 0 82.944 44.373 126.327 142.78 126.327 16.111 0 91.58 0 91.58 0v-115.029z" />
<glyph unicode="expand" d="M210.71 633.084v-370.266h602.538v370.266h-602.538zM1023.996 583.362h-117.084v143.392h-143.39v117.084h260.478v-260.476h-0.004zM763.522 52.162v117.086h143.388v143.386h117.090v-260.476l-260.478 0.004zM0.002 312.638h117.082v-143.39h143.392v-117.080h-260.474v260.47zM260.476 843.838v-117.086h-143.392v-143.388h-117.084v260.474h260.476z" />
<glyph unicode="emailCircle" d="M814.217 304.435v292.727l-159.13-133.53zM769.673 629.282h-513.126l256.99-214.835zM513.604 344.883l-106.633 89.19-167.356-167.39h536.951l-162.509 162.543zM209.749 598.972v-286.857l156.228 156.262zM512 960c-282.761 0-512-229.274-512-512 0-282.897 229.239-512 512-512 282.897 0 512 229.103 512 512 0 282.726-229.103 512-512 512zM867.567 213.504h-711.134v468.992h711.1v-468.992z" />
<glyph unicode="edit" d="M0-60.348l372.326 84.343-281.361 281.225zM1024 666.453l-289.894 289.894-556.544-556.271 289.929-289.758z" />
<glyph unicode="delete" d="M512 960c-282.795 0-512-229.205-512-512 0-282.761 229.205-512 512-512 282.761 0 512 229.239 512 512 0 282.795-229.239 512-512 512zM706.15 143.428l-191.659 191.659-191.727-191.761-102.98 103.117 191.659 191.659-191.659 191.625 103.049 102.98 191.659-191.59 191.659 191.659 103.083-102.98-191.659-191.625 191.659-191.659-103.083-103.083z" />
<glyph unicode="code" d="M577.886 742.154h98.562l-223.706-588.312h-98.012l223.156 588.312zM1023.766 407.296l-290.586-163.308v101.268l169.2 95.418-169.2 94.438v101.526l290.586-163.31v-66.032zM0.234 473.328l290.588 163.308v-101.526l-169.208-94.436 169.204-95.418v-101.268l-290.584 163.308v66.032z" />
<glyph unicode="check" d="M796.436 774.030l-396.978-396.98-171.95 171.998-127.508-127.532 299.466-299.546 524.534 524.578z" />
<glyph unicode="badge" d="M512 860l73.432-90.274 105.328 49.474 26.992-113.196 116.364-1.126-24.796-113.696 104.35-51.504-71.67-91.678 71.67-91.678-104.35-51.504 24.796-113.694-116.364-1.128-26.992-113.196-105.328 49.474-73.432-90.274-73.432 90.274-105.328-49.474-26.992 113.196-116.362 1.128 24.794 113.694-104.35 51.504 71.67 91.678-71.67 91.678 104.35 51.504-24.794 113.696 116.362 1.126 26.992 113.196 105.328-49.474z" />
<glyph unicode="arrowRight" d="M284.664 750.228l110.296 109.772 410.040-412-410.040-412-110.296 109.774 300.79 302.226z" />
<glyph unicode="arrowDown" d="M814.228 708l109.772-110.296-412-410.040-412 410.040 109.774 110.296 302.226-300.79 302.228 300.79z" />
</font>
</defs>
</svg>
