<?xml version="1.0" standalone="no"?>
<!DOCTYPE svg
  PUBLIC '-//W3C//DTD SVG 1.1//EN'
  'http://www.w3.org/Graphics/SVG/1.1/DTD/svg11.dtd'><svg version="1.1" xmlns="http://www.w3.org/2000/svg"><defs><font horiz-adv-x="0" id="font"><font-face ascent="750" bbox="-256 -270 1154 1002" cap-height="700" descent="-250" font-family="WEB Regular Bold" font-stretch="normal" font-style="normal" font-weight="700" units-per-em="1000" x-height="458" /><missing-glyph d="M292 202 309 202Q318 202 320.5 195.5Q323 189 323 184V158Q323 153 320.5 147Q318 141 309 141H292ZM460 393Q460 404 454.5 410.5Q449 417 437 417H428Q416 417 410 410.5Q404 404 404 393V373Q404 362 410 355.5Q416 349 428 349H437Q449 349 454.5 355.5Q460 362 460 373ZM65 42 93 42V202H123V228H35V202H65ZM237 228 208 228L191 151L171 228H141L174 107V42H205V107ZM380 42 465 42V69H410V123H442V150H410V202H465V228H380ZM264 42 292 42V113H316Q332 113 342 124.5Q352 136 352 154V187Q352 206 342 217Q332 228 316 228H264ZM434 470Q445 484 452.5 503Q460 522 460 551V567Q460 609 434 634Q408 659 373 659H356Q321 659 294.5 634Q268 609 268 567V517H330V559Q330 572 336 585.5Q342 599 363 599H366Q386 599 391.5 585.5Q397 572 397 559V552Q396 522 376 495L298 391Q283 371 276 354Q269 337 269 313V270H461V331H339V335Q339 339 342 345.5Q345 352 355 365ZM178 270 244 270L201 657H83L40 270H105L112 347H170ZM415 392Q415 407 429 407H435Q449 407 449 392V388H438V389Q438 392 437.5 394.5Q437 397 432 397Q426 397 426 389V377Q426 369 432 369Q437 369 437.5 371.5Q438 374 438 377V378H449V374Q449 359 435 359H429Q415 359 415 374ZM0 670Q0 682 8 690.5Q16 699 28 699H473Q484 699 492 690.5Q500 682 500 670V29Q500 17 492 8.5Q484 0 473 0H28Q16 0 8 8.5Q0 17 0 29ZM164 408 118 408L136 604H146Z" horiz-adv-x="500" /><glyph d="" glyph-name=".null" horiz-adv-x="0" unicode="" /><glyph d="" glyph-name="nonmarkingreturn" horiz-adv-x="250" unicode="" /><glyph d="" glyph-name="space" horiz-adv-x="200" unicode=" " /><glyph d="M76 226 66 700H210L200 226ZM52 75Q52 111 77.5 136.5Q103 162 139 162Q175 162 200.5 136.5Q226 111 226 75Q226 39 200.5 13.5Q175 -12 139 -12Q103 -12 77.5 13.5Q52 39 52 75Z" glyph-name="exclam" horiz-adv-x="276" unicode="!" /><glyph d="M61 700 200 700V425H61ZM255 700 394 700V425H255Z" glyph-name="quotedbl" horiz-adv-x="455" unicode="&quot;" /><glyph d="M49 516 137 516V660H242V516H323V660H428V516H517V417H428V322H517V223H428V78H323V223H242V78H137V223H49V322H137V417H49ZM242 322 323 322V417H242Z" glyph-name="numbersign" horiz-adv-x="566" unicode="#" /><glyph d="M451 514Q413 550 369 570L344 412L349 410Q391 391 424 369.5Q457 348 480 322.5Q503 297 515 265.5Q527 234 527 195Q527 156 510.5 118.5Q494 81 463 52Q432 23 387 5.5Q342 -12 284 -12H279L267 -93H189L203 -3Q152 8 110.5 33Q69 58 33 93L110 197Q136 171 164.5 152.5Q193 134 222 124L250 304L219 319Q148 352 107 400.5Q66 449 66 515Q66 561 85 597.5Q104 634 136.5 659.5Q169 685 211.5 698.5Q254 712 300 712Q303 712 306 711.5Q309 711 312 711L323 780H401L388 697Q426 685 462.5 663.5Q499 642 531 614ZM378 190Q378 215 363 233Q348 251 322 268L299 115Q336 120 357 140.5Q378 161 378 190ZM215 520Q215 499 227.5 481Q240 463 272 446L293 586Q261 584 238 566.5Q215 549 215 520Z" glyph-name="dollar" horiz-adv-x="570" unicode="$" /><glyph d="M43 547Q43 581 56 611Q69 641 92 663.5Q115 686 145.5 699Q176 712 211 712Q245 712 275.5 699Q306 686 328.5 663.5Q351 641 364 611Q377 581 377 547Q377 513 364 483.5Q351 454 328.5 431.5Q306 409 275.5 396Q245 383 211 383Q176 383 145.5 396Q115 409 92 431.5Q69 454 56 483.5Q43 513 43 547ZM145 547Q145 518 164.5 497Q184 476 211 476Q237 476 256.5 497Q276 518 276 547Q276 577 256.5 597.5Q237 618 211 618Q184 618 164.5 597.5Q145 577 145 547ZM675 151Q675 117 662 87.5Q649 58 626.5 36Q604 14 573.5 1Q543 -12 508 -12Q473 -12 442.5 1Q412 14 389.5 36Q367 58 354 87.5Q341 117 341 151Q341 185 354 215Q367 245 389.5 267.5Q412 290 442.5 303Q473 316 508 316Q543 316 573.5 303Q604 290 626.5 267.5Q649 245 662 215Q675 185 675 151ZM574 151Q574 181 554 201.5Q534 222 508 222Q482 222 462 201.5Q442 181 442 151Q442 122 462 101Q482 80 508 80Q534 80 554 101Q574 122 574 151ZM88 87 38 157L624 607L677 540Z" glyph-name="percent" horiz-adv-x="717" unicode="%" /><glyph d="M673 0 508 0L437 75Q402 30 354 9Q306 -12 246 -12Q201 -12 162.5 2.5Q124 17 95 43Q66 69 49.5 105Q33 141 33 184Q33 244 64.5 295.5Q96 347 154 389Q124 424 110.5 458.5Q97 493 97 531Q97 561 109 593Q121 625 146 651.5Q171 678 211 695Q251 712 306 712Q347 712 381 699.5Q415 687 439.5 665Q464 643 478 614Q492 585 492 553Q492 535 487.5 511.5Q483 488 468 465L353 477Q367 507 367 528Q367 557 347.5 575.5Q328 594 302 594Q267 594 249 573Q231 552 231 525Q231 479 285 420Q304 399 325 376.5Q346 354 365.5 333.5Q385 313 401.5 296Q418 279 428 269Q444 298 457.5 329.5Q471 361 479 385H630Q605 322 577 267.5Q549 213 523 175L673 20ZM349 164Q319 197 288.5 229.5Q258 262 227 294Q197 264 184.5 240.5Q172 217 172 189Q172 171 179.5 156Q187 141 199 130.5Q211 120 226 114Q241 108 256 108Q282 108 307 122.5Q332 137 349 164Z" glyph-name="ampersand" horiz-adv-x="685" unicode="&amp;" /><glyph d="M61 700 200 700V425H61Z" glyph-name="quotesingle" horiz-adv-x="261" unicode="'" /><glyph d="M34 282Q34 401 81 503.5Q128 606 204 700H321V684Q288 645 260 598.5Q232 552 212 501Q192 450 180.5 394.5Q169 339 169 282Q169 225 180.5 167Q192 109 212 54Q232 -1 260 -50Q288 -99 321 -138V-153H204Q128 -60 81 51Q34 162 34 282Z" glyph-name="parenleft" horiz-adv-x="338" unicode="(" /><glyph d="M304 282Q304 162 257 51Q210 -60 134 -153H17V-138Q50 -99 78 -50Q106 -1 126 54Q146 109 157.5 167Q169 225 169 282Q169 339 157.5 394.5Q146 450 126 501Q106 552 78 598.5Q50 645 17 684V700H134Q210 606 257 503.5Q304 401 304 282Z" glyph-name="parenright" horiz-adv-x="338" unicode=")" /><glyph d="M336 483Q357 478 380 472.5Q403 467 422.5 458.5Q442 450 455 437Q468 424 468 404Q468 378 450.5 361.5Q433 345 411 345Q399 345 385 352Q371 359 355 370Q339 381 323.5 394.5Q308 408 293 421Q296 412 300.5 398.5Q305 385 309 371Q313 357 315.5 344.5Q318 332 318 323Q318 295 303.5 275.5Q289 256 257 256Q224 256 209.5 275.5Q195 295 195 323Q195 332 197.5 344.5Q200 357 204 371Q208 385 212.5 398.5Q217 412 220 421Q205 408 189.5 394.5Q174 381 158 370Q142 359 128 352Q114 345 102 345Q80 345 62.5 361.5Q45 378 45 404Q45 424 58 437Q71 450 90.5 458.5Q110 467 133 472.5Q156 478 177 483Q156 488 133 493.5Q110 499 90.5 507.5Q71 516 58 529Q45 542 45 562Q45 588 62.5 604.5Q80 621 102 621Q114 621 128 614Q142 607 158 596Q174 585 189.5 571.5Q205 558 220 545Q217 554 212.5 567.5Q208 581 204 595Q200 609 197.5 621.5Q195 634 195 643Q195 671 209.5 690.5Q224 710 257 710Q289 710 303.5 690.5Q318 671 318 643Q318 634 315.5 621.5Q313 609 309 595Q305 581 300.5 567.5Q296 554 293 545Q308 558 323.5 571.5Q339 585 355 596Q371 607 385 614Q399 621 411 621Q433 621 450.5 604.5Q468 588 468 562Q468 542 455 529Q442 516 422.5 507.5Q403 499 380 493.5Q357 488 336 483ZM205 483Q205 462 220 447Q235 432 256 432Q278 432 293 447Q308 462 308 483Q308 504 293 519Q278 534 256 534Q235 534 220 519Q205 504 205 483Z" glyph-name="asterisk" horiz-adv-x="513" unicode="*" /><glyph d="M36 297 36 416H195V575H323V416H483V297H323V138H195V297Z" glyph-name="plus" horiz-adv-x="520" unicode="+" /><glyph d="M48 74Q48 111 73 136Q98 161 135 161Q173 161 199 136Q225 111 225 74Q225 63 221 48.5Q217 34 212 24L133 -123H28L85 3Q68 14 58 32.5Q48 51 48 74Z" glyph-name="comma" horiz-adv-x="273" unicode="," /><glyph d="M20 323 230 323V213H20Z" glyph-name="hyphen" horiz-adv-x="250" unicode="-" /><glyph d="M47 75Q47 111 72.5 136.5Q98 162 134 162Q170 162 195.5 136.5Q221 111 221 75Q221 39 195.5 13.5Q170 -12 134 -12Q98 -12 72.5 13.5Q47 39 47 75Z" glyph-name="period" horiz-adv-x="268" unicode="." /><glyph d="M267 700 387 700L150 0H30Z" glyph-name="slash" horiz-adv-x="416" unicode="/" /><glyph d="M270 712Q325 712 370 690Q415 668 447 623.5Q479 579 496.5 511Q514 443 514 351Q514 258 496.5 189.5Q479 121 447 76Q415 31 370 9.5Q325 -12 270 -12Q215 -12 169.5 9.5Q124 31 92 76Q60 121 42.5 189.5Q25 258 25 351Q25 443 42.5 511Q60 579 92 623.5Q124 668 169.5 690Q215 712 270 712ZM168 351Q168 233 192.5 174.5Q217 116 270 116Q372 116 372 351Q372 467 347 526Q322 585 270 585Q217 585 192.5 526Q168 467 168 351Z" glyph-name="zero" horiz-adv-x="539" unicode="0" /><glyph d="M83 700 351 700V120H486V0H75V120H210V580H83Z" glyph-name="one" horiz-adv-x="539" unicode="1" /><glyph d="M40 120Q74 150 110 183Q143 212 178 244Q213 276 247 308Q280 339 301 365Q322 391 333.5 413.5Q345 436 349.5 457Q354 478 354 499Q354 535 330 562Q306 589 261 589Q221 589 194.5 566.5Q168 544 168 506Q168 492 171.5 474.5Q175 457 186 433L58 410Q42 441 37 466.5Q32 492 32 518Q32 555 47 590Q62 625 91.5 652Q121 679 164 695.5Q207 712 263 712Q320 712 364 694.5Q408 677 437.5 648.5Q467 620 482 583Q497 546 497 506Q497 475 490 443Q483 411 462 374.5Q441 338 402 293.5Q363 249 299 193L216 120H506V0H40Z" glyph-name="two" horiz-adv-x="539" unicode="2" /><glyph d="M264 -12Q208 -12 164.5 4Q121 20 91.5 48Q62 76 46.5 115Q31 154 31 200V231H173V201Q173 182 177.5 164.5Q182 147 192.5 133.5Q203 120 219.5 111.5Q236 103 261 103Q309 103 331 134.5Q353 166 353 214Q353 262 325 294Q297 326 240 326Q224 326 201 324Q178 322 167 319V443L327 580H64V700H484V567L303 422Q346 421 381.5 404Q417 387 443 359.5Q469 332 483.5 295Q498 258 498 216Q498 166 481 124Q464 82 433.5 52Q403 22 360 5Q317 -12 264 -12Z" glyph-name="three" horiz-adv-x="539" unicode="3" /><glyph d="M17 295 253 700H431V294H519V179H431V0H296V179H17ZM137 294 296 294V560H291Z" glyph-name="four" horiz-adv-x="539" unicode="4" /><glyph d="M179 201Q179 182 183.5 164.5Q188 147 198 133.5Q208 120 225 111.5Q242 103 266 103Q317 103 337.5 137.5Q358 172 358 224Q358 277 336.5 311.5Q315 346 264 346Q237 346 216.5 337Q196 328 184 316L67 329V700H478V580H189V435H194Q212 449 241.5 455Q271 461 294 461Q344 461 383 444Q422 427 448.5 396.5Q475 366 489 324Q503 282 503 232Q503 179 488 134Q473 89 443.5 56.5Q414 24 370.5 6Q327 -12 270 -12Q214 -12 170.5 4Q127 20 97.5 48Q68 76 52.5 115Q37 154 37 200V231H179Z" glyph-name="five" horiz-adv-x="539" unicode="5" /><glyph d="M212 410Q220 418 243.5 428.5Q267 439 305 439Q345 439 383 425.5Q421 412 450.5 385Q480 358 498 317Q516 276 516 220Q516 168 498.5 125Q481 82 449.5 51.5Q418 21 374.5 4.5Q331 -12 278 -12Q222 -12 176.5 6Q131 24 98.5 57Q66 90 48.5 135.5Q31 181 31 236Q31 312 56 379.5Q81 447 117 503.5Q153 560 193 604.5Q233 649 264 679L286 700H470L456 688Q437 672 406 643Q375 614 340 577Q305 540 269.5 498Q234 456 207 412ZM171 214Q171 168 196.5 134.5Q222 101 274 101Q324 101 349.5 134.5Q375 168 375 214Q375 261 349.5 295Q324 329 274 329Q222 329 196.5 295Q171 261 171 214Z" glyph-name="six" horiz-adv-x="539" unicode="6" /><glyph d="M112 0 361 580H46V700H496V580L266 0Z" glyph-name="seven" horiz-adv-x="539" unicode="7" /><glyph d="M270 712Q322 712 364 697.5Q406 683 435.5 656.5Q465 630 481 594Q497 558 497 515Q497 468 471 426Q445 384 397 363Q449 343 480.5 296.5Q512 250 512 195Q512 147 494.5 108.5Q477 70 445 43.5Q413 17 368.5 2.5Q324 -12 270 -12Q216 -12 171.5 2.5Q127 17 95 43.5Q63 70 45.5 108.5Q28 147 28 195Q28 250 59.5 296.5Q91 343 143 363Q94 384 68 426Q42 468 42 515Q42 558 58 594Q74 630 104 656.5Q134 683 176 697.5Q218 712 270 712ZM270 412Q318 412 339 439.5Q360 467 360 505Q360 543 339 570Q318 597 270 597Q222 597 200.5 570Q179 543 179 505Q179 467 200.5 439.5Q222 412 270 412ZM270 103Q321 103 346.5 133Q372 163 372 202Q372 240 346 270.5Q320 301 270 301Q219 301 193 270.5Q167 240 167 202Q167 163 193 133Q219 103 270 103Z" glyph-name="eight" horiz-adv-x="539" unicode="8" /><glyph d="M327 290Q319 282 295.5 271.5Q272 261 234 261Q194 261 156 274.5Q118 288 88.5 315Q59 342 41 383Q23 424 23 480Q23 533 40.5 575.5Q58 618 89.5 648.5Q121 679 164.5 695.5Q208 712 261 712Q317 712 362.5 694Q408 676 440.5 643Q473 610 490.5 564.5Q508 519 508 464Q508 388 483 320.5Q458 253 422 196.5Q386 140 346 95.5Q306 51 275 21L253 0H69L83 12Q102 29 133 57.5Q164 86 199 123Q234 160 269.5 202.5Q305 245 332 288ZM368 486Q368 532 342.5 565.5Q317 599 265 599Q215 599 189.5 565.5Q164 532 164 486Q164 440 189.5 405.5Q215 371 265 371Q317 371 342.5 405.5Q368 440 368 486Z" glyph-name="nine" horiz-adv-x="539" unicode="9" /><glyph d="M58 75Q58 111 83.5 136.5Q109 162 145 162Q182 162 207.5 136.5Q233 111 233 75Q233 38 207.5 13Q182 -12 145 -12Q109 -12 83.5 13Q58 38 58 75ZM58 370Q58 407 83.5 432.5Q109 458 145 458Q182 458 207.5 432.5Q233 407 233 370Q233 334 207.5 308.5Q182 283 145 283Q109 283 83.5 308.5Q58 334 58 370Z" glyph-name="colon" horiz-adv-x="291" unicode=":" /><glyph d="M59 74Q59 111 84 136Q109 161 146 161Q184 161 210 136Q236 111 236 74Q236 63 232 48Q228 33 223 24L144 -123H39L96 3Q79 14 69 32.5Q59 51 59 74ZM58 370Q58 407 83.5 432.5Q109 458 145 458Q182 458 207 432.5Q232 407 232 370Q232 334 207 308.5Q182 283 145 283Q109 283 83.5 308.5Q58 334 58 370Z" glyph-name="semicolon" horiz-adv-x="293" unicode=";" /><glyph d="M256 298 391 149L306 66L29 359L306 653L391 570L256 421H616V298Z" glyph-name="less" horiz-adv-x="664" unicode="&lt;" /><glyph d="M483 397 36 397V516H483ZM483 197 36 197V316H483Z" glyph-name="equal" horiz-adv-x="520" unicode="=" /><glyph d="M47 298 47 421H408L273 570L358 653L635 359L358 66L273 149L408 298Z" glyph-name="greater" horiz-adv-x="664" unicode="&gt;" /><glyph d="M472 507Q472 481 465.5 450.5Q459 420 441.5 392Q424 364 393.5 342Q363 320 315 310L310 209H187L176 398L217 400Q279 403 305 433.5Q331 464 331 501Q331 539 308.5 563Q286 587 249 587Q207 587 187.5 561Q168 535 168 498V484H34Q33 485 33 494.5Q33 504 33 505Q33 553 49 591.5Q65 630 94 657Q123 684 163.5 698Q204 712 253 712Q301 712 341.5 697Q382 682 411 655Q440 628 456 590.5Q472 553 472 507ZM162 74Q162 111 187.5 136.5Q213 162 249 162Q286 162 311.5 136.5Q337 111 337 74Q337 39 311.5 13.5Q286 -12 249 -12Q213 -12 187.5 13.5Q162 39 162 74Z" glyph-name="question" horiz-adv-x="507" unicode="?" /><glyph d="M455 187Q424 187 407 174Q390 161 390 137Q390 114 407.5 98.5Q425 83 455 83Q490 83 517 102Q544 121 544 164V197Q538 191 527.5 189Q517 187 504 187ZM416 -12Q380 -12 350.5 0Q321 12 300 32Q279 52 267.5 78Q256 104 256 132Q256 198 300.5 235.5Q345 273 422 273H512Q544 273 544 300V305Q544 330 525 344.5Q506 359 468 359Q433 359 394.5 345Q356 331 330 316L279 414Q304 430 335 442Q364 453 398.5 461.5Q433 470 475 470Q514 470 550 460.5Q586 451 613.5 431Q641 411 657.5 378.5Q674 346 674 301V107Q674 70 704 70Q728 70 746.5 88.5Q765 107 777.5 135Q790 163 797 197Q804 231 804 262Q804 335 778 393Q752 451 707 491Q662 531 601.5 552.5Q541 574 472 574Q403 574 342 549.5Q281 525 235 479.5Q189 434 162 370Q135 306 135 228Q135 150 161.5 86.5Q188 23 234.5 -22Q281 -67 344 -92Q407 -117 481 -117Q535 -117 585 -105Q635 -93 673 -66L799 -78Q741 -136 657.5 -166Q574 -196 481 -196Q386 -196 305.5 -165Q225 -134 166 -78.5Q107 -23 74 55.5Q41 134 41 228Q41 322 74.5 400.5Q108 479 168 535Q228 591 309.5 622.5Q391 654 487 654Q567 654 640 627Q713 600 769 550Q825 500 858.5 427.5Q892 355 892 263Q892 203 878.5 152.5Q865 102 838.5 65.5Q812 29 772.5 8.5Q733 -12 681 -12Q630 -12 602 7.5Q574 27 563 51Q538 19 499.5 3.5Q461 -12 416 -12Z" glyph-name="at" horiz-adv-x="926" unicode="@" /><glyph d="M634 0 484 0L424 191H213L157 0H11L237 700H403ZM319 550 317 550L246 310H389Z" glyph-name="A" horiz-adv-x="642" unicode="A" /><glyph d="M515 521Q515 475 492.5 436.5Q470 398 423 376V374Q484 349 518.5 305.5Q553 262 553 201Q553 159 537.5 122.5Q522 86 493 58.5Q464 31 421 15.5Q378 0 322 0H73V700H299Q353 700 393.5 684.5Q434 669 461 644Q488 619 501.5 587Q515 555 515 521ZM212 117 284 117Q347 117 377.5 143.5Q408 170 408 213Q408 258 375 280Q342 302 291 302H212ZM212 582 212 426H283Q321 426 347.5 445Q374 464 374 505Q374 546 346.5 564Q319 582 283 582Z" glyph-name="B" horiz-adv-x="583" unicode="B" /><glyph d="M177 350Q177 300 193 257Q209 214 237.5 182.5Q266 151 307 133.5Q348 116 397 116Q467 116 517 151Q567 186 587 249H740Q725 187 691.5 138.5Q658 90 612.5 56.5Q567 23 511.5 5.5Q456 -12 397 -12Q320 -12 253 15Q186 42 137 90Q88 138 60 204.5Q32 271 32 350Q32 429 60 495.5Q88 562 137 610Q186 658 253 685Q320 712 397 712Q456 712 511.5 694.5Q567 677 612.5 643.5Q658 610 691.5 561.5Q725 513 740 451H587Q567 514 517 549Q467 584 397 584Q348 584 307 566.5Q266 549 237.5 517.5Q209 486 193 443Q177 400 177 350Z" glyph-name="C" horiz-adv-x="764" unicode="C" /><glyph d="M676 350Q676 272 651.5 207.5Q627 143 580.5 97Q534 51 466.5 25.5Q399 0 313 0H73V700H313Q399 700 466.5 674.5Q534 649 580.5 603Q627 557 651.5 492.5Q676 428 676 350ZM534 350Q534 408 516.5 451.5Q499 495 469 523.5Q439 552 397.5 566.5Q356 581 308 581H212V118H308Q356 118 397.5 132Q439 146 469 175Q499 204 516.5 247.5Q534 291 534 350Z" glyph-name="D" horiz-adv-x="710" unicode="D" /><glyph d="M594 580 212 580V416H435V297H212V119H594V0H73V700H594Z" glyph-name="E" horiz-adv-x="629" unicode="E" /><glyph d="M212 278 212 0H73V700H580V580H212V398H482V278Z" glyph-name="F" horiz-adv-x="590" unicode="F" /><glyph d="M387 -12Q312 -12 247 15Q182 42 134 90Q86 138 59 204.5Q32 271 32 350Q32 429 60.5 495.5Q89 562 138.5 610Q188 658 255.5 685Q323 712 400 712Q459 712 514.5 694.5Q570 677 615.5 643.5Q661 610 694.5 561.5Q728 513 743 451H590Q570 514 520 549Q470 584 400 584Q351 584 309.5 566.5Q268 549 239 517.5Q210 486 193.5 443Q177 400 177 350Q177 295 194 251.5Q211 208 241 178Q271 148 311.5 132Q352 116 399 116Q436 116 466.5 126Q497 136 520 152.5Q543 169 559 190Q575 211 582 233H429V347H726V0H613V97Q603 82 583 63Q563 44 534.5 27.5Q506 11 469 -0.5Q432 -12 387 -12Z" glyph-name="G" horiz-adv-x="779" unicode="G" /><glyph d="M490 0 490 297H212V0H73V700H212V416H490V700H629V0Z" glyph-name="H" horiz-adv-x="702" unicode="H" /><glyph d="M73 700 212 700V0H73Z" glyph-name="I" horiz-adv-x="285" unicode="I" /><glyph d="M161 299 161 245Q161 188 192 152Q223 116 285 116Q347 116 378 152Q409 188 409 245V700H548V232Q548 181 531 136.5Q514 92 480.5 59Q447 26 397.5 7Q348 -12 283 -12Q218 -12 169 7Q120 26 87.5 59Q55 92 38.5 136.5Q22 181 22 232V299Z" glyph-name="J" horiz-adv-x="615" unicode="J" /><glyph d="M212 424 248 424L473 700H645L366 368L634 0H462L244 306H212V0H73V700H212Z" glyph-name="K" horiz-adv-x="635" unicode="K" /><glyph d="M73 0 73 700H212V119H509V0Z" glyph-name="L" horiz-adv-x="521" unicode="L" /><glyph d="M346 150 208 495V0H73V700H269L422 303L578 700H765V0H627V495L493 150Z" glyph-name="M" horiz-adv-x="838" unicode="M" /><glyph d="M210 0 73 0V700H256L492 234V700H629V0H460L210 486Z" glyph-name="N" horiz-adv-x="702" unicode="N" /><glyph d="M398 712Q474 712 541 685Q608 658 657.5 610Q707 562 735.5 495.5Q764 429 764 350Q764 271 735.5 204.5Q707 138 657.5 90Q608 42 541 15Q474 -12 398 -12Q322 -12 255 15Q188 42 138.5 90Q89 138 60.5 204.5Q32 271 32 350Q32 429 60.5 495.5Q89 562 138.5 610Q188 658 255 685Q322 712 398 712ZM398 116Q448 116 488.5 133.5Q529 151 558 182.5Q587 214 603 257Q619 300 619 350Q619 400 603 443Q587 486 558 517.5Q529 549 488.5 566.5Q448 584 398 584Q349 584 308 566.5Q267 549 238 517.5Q209 486 193 443Q177 400 177 350Q177 300 193 257Q209 214 238 182.5Q267 151 308 133.5Q349 116 398 116Z" glyph-name="O" horiz-adv-x="796" unicode="O" /><glyph d="M211 0 73 0V700H310Q372 700 419 682Q466 664 498 632.5Q530 601 546 559.5Q562 518 562 470Q562 423 546 380.5Q530 338 498 306Q466 274 419 255.5Q372 237 310 237H211ZM211 580 211 356H289Q346 356 383 383.5Q420 411 420 470Q420 529 383 554.5Q346 580 289 580Z" glyph-name="P" horiz-adv-x="582" unicode="P" /><glyph d="M398 712Q474 712 541 685Q608 658 657.5 610Q707 562 735.5 495.5Q764 429 764 350Q764 256 725 181.5Q686 107 620 59L636 33Q648 13 665 4.5Q682 -4 717 -4Q729 -4 738 -3.5Q747 -3 754 -3Q761 -2 767 -1V-123Q749 -124 730 -126Q714 -127 697 -127.5Q680 -128 666 -128Q638 -128 615.5 -121.5Q593 -115 574.5 -102Q556 -89 540 -69Q524 -49 507 -21L494 0Q448 -12 398 -12Q322 -12 255 15Q188 42 138.5 90Q89 138 60.5 204.5Q32 271 32 350Q32 429 60.5 495.5Q89 562 138.5 610Q188 658 255 685Q322 712 398 712ZM398 116Q404 116 410.5 116Q417 116 423 117L363 217L480 288L549 174Q582 206 600.5 251Q619 296 619 350Q619 400 603 443Q587 486 558 517.5Q529 549 488.5 566.5Q448 584 398 584Q349 584 308 566.5Q267 549 238 517.5Q209 486 193 443Q177 400 177 350Q177 300 193 257Q209 214 238 182.5Q267 151 308 133.5Q349 116 398 116Z" glyph-name="Q" horiz-adv-x="796" unicode="Q" /><glyph d="M310 269 212 269V0H73V700H336Q393 700 438.5 684Q484 668 515 639.5Q546 611 562.5 572Q579 533 579 487Q579 462 573 435Q567 408 552 382Q537 356 511.5 333.5Q486 311 446 295L625 0H465ZM440 486Q440 533 408 556.5Q376 580 318 580H212V390H318Q376 390 408 415.5Q440 441 440 486Z" glyph-name="R" horiz-adv-x="630" unicode="R" /><glyph d="M433 514Q401 546 361.5 566Q322 586 285 586Q250 586 223.5 569Q197 552 197 520Q197 496 214 476.5Q231 457 273 437L331 410Q373 391 406 369.5Q439 348 462 322.5Q485 297 497 265.5Q509 234 509 195Q509 156 492.5 118.5Q476 81 445 52Q414 23 369 5.5Q324 -12 266 -12Q186 -12 125.5 16.5Q65 45 15 93L92 197Q131 157 177 135.5Q223 114 263 114Q308 114 334 136Q360 158 360 190Q360 226 330.5 249.5Q301 273 250 296L201 319Q130 352 89 400.5Q48 449 48 515Q48 561 67 597.5Q86 634 118.5 659.5Q151 685 193.5 698.5Q236 712 282 712Q343 712 402.5 685Q462 658 513 614Z" glyph-name="S" horiz-adv-x="544" unicode="S" /><glyph d="M570 700 570 576H361V0H223V576H14V700Z" glyph-name="T" horiz-adv-x="584" unicode="T" /><glyph d="M330 116Q392 116 423 152Q454 188 454 245V700H590V232Q590 181 573.5 136.5Q557 92 524 59Q491 26 442 7Q393 -12 328 -12Q263 -12 214 7Q165 26 132.5 59Q100 92 83.5 136.5Q67 181 67 232V700H206V245Q206 188 237 152Q268 116 330 116Z" glyph-name="U" horiz-adv-x="657" unicode="U" /><glyph d="M6 700 160 700L319 181H320L487 700H632L395 0H244Z" glyph-name="V" horiz-adv-x="638" unicode="V" /><glyph d="M556 700 690 199H691L803 700H945L774 0H613L481 503L352 0H191L18 700H168L276 199H277L411 700Z" glyph-name="W" horiz-adv-x="964" unicode="W" /><glyph d="M396 348 627 0H464L309 248L159 0H-1L227 354L9 700H171L317 455L463 700H621Z" glyph-name="X" horiz-adv-x="627" unicode="X" /><glyph d="M-1 700 165 700L336 434H341L510 700H670L405 307V0H267V304Z" glyph-name="Y" horiz-adv-x="671" unicode="Y" /><glyph d="M41 576 41 700H596V581L212 123H596V0H33V114L421 576Z" glyph-name="Z" horiz-adv-x="633" unicode="Z" /><glyph d="M206 583 206 -37H339V-153H70V700H339V583Z" glyph-name="bracketleft" horiz-adv-x="375" unicode="[" /><glyph d="M386 0 266 0L29 700H149Z" glyph-name="backslash" horiz-adv-x="416" unicode="\" /><glyph d="M36 583 36 700H305V-153H36V-36H169V583Z" glyph-name="bracketright" horiz-adv-x="375" unicode="]" /><glyph d="M190 700 351 700L494 225H361L269 563L172 225H38Z" glyph-name="asciicircum" horiz-adv-x="532" unicode="^" /><glyph d="M0 -65 500 -65V-175H0Z" glyph-name="underscore" horiz-adv-x="500" unicode="_" /><glyph d="M237 527 113 527L21 700H187Z" glyph-name="grave" horiz-adv-x="243" unicode="`" /><glyph d="M221 83Q256 83 283 102Q310 121 310 164V197Q304 191 294 189Q284 187 270 187H221Q190 187 173 174Q156 161 156 137Q156 114 173.5 98.5Q191 83 221 83ZM310 305Q310 330 291 344.5Q272 359 234 359Q199 359 160.5 345Q122 331 96 316L45 414Q70 430 101 442Q130 453 164.5 461.5Q199 470 241 470Q280 470 316 460.5Q352 451 379.5 431Q407 411 423.5 378.5Q440 346 440 301V0H310V43Q292 16 256.5 2Q221 -12 182 -12Q146 -12 116.5 0Q87 12 66 32Q45 52 33.5 78Q22 104 22 132Q22 198 66.5 235.5Q111 273 188 273H278Q310 273 310 300Z" glyph-name="a" horiz-adv-x="491" unicode="a" /><glyph d="M300 354Q248 354 215.5 318.5Q183 283 183 229Q183 203 191.5 180Q200 157 215.5 140Q231 123 252.5 113Q274 103 300 103Q326 103 347.5 113Q369 123 384.5 140Q400 157 408.5 180Q417 203 417 229Q417 283 384.5 318.5Q352 354 300 354ZM186 0 56 0V700H186V474Q186 451 185 430Q184 409 184 399Q201 428 239 449Q277 470 329 470Q376 470 416.5 452Q457 434 487 402Q517 370 534 326Q551 282 551 229Q551 177 534 132.5Q517 88 487 56Q457 24 416 6Q375 -12 328 -12Q279 -12 241 8.5Q203 29 186 58Z" glyph-name="b" horiz-adv-x="579" unicode="b" /><glyph d="M272 354Q221 354 189 318.5Q157 283 157 229Q157 175 189 139.5Q221 104 272 104Q308 104 334 123Q360 142 373 174L495 136Q484 102 462 74.5Q440 47 410.5 28Q381 9 345.5 -1.5Q310 -12 271 -12Q220 -12 175.5 6Q131 24 98 56Q65 88 46 132.5Q27 177 27 229Q27 282 46 326Q65 370 98 402Q131 434 175.5 452Q220 470 271 470Q310 470 345.5 459.5Q381 449 410.5 429.5Q440 410 462 382.5Q484 355 495 321L373 284Q360 316 334 335Q308 354 272 354Z" glyph-name="c" horiz-adv-x="516" unicode="c" /><glyph d="M279 354Q227 354 194.5 318.5Q162 283 162 229Q162 203 170.5 180Q179 157 194.5 140Q210 123 231.5 113Q253 103 279 103Q305 103 326.5 113Q348 123 363.5 140Q379 157 387.5 180Q396 203 396 229Q396 283 363.5 318.5Q331 354 279 354ZM393 58Q376 29 338 8.5Q300 -12 250 -12Q203 -12 162.5 6Q122 24 92 56Q62 88 45 132.5Q28 177 28 229Q28 282 45 326Q62 370 91.5 402Q121 434 161.5 452Q202 470 249 470Q302 470 340 449Q378 428 395 399Q395 410 394 435Q393 460 393 486V700H523V0H393Z" glyph-name="d" horiz-adv-x="579" unicode="d" /><glyph d="M505 191 164 191Q169 153 197 126Q225 99 269 99Q298 99 322.5 111Q347 123 361 146L496 132Q465 58 404.5 23Q344 -12 267 -12Q216 -12 172 6Q128 24 95.5 56Q63 88 45 132.5Q27 177 27 229Q27 282 45 326Q63 370 94.5 402Q126 434 170 452Q214 470 265 470Q312 470 355.5 454Q399 438 432 405Q465 372 485 320Q505 268 505 196ZM265 362Q223 362 196 338.5Q169 315 161 278H366Q361 313 334 337.5Q307 362 265 362Z" glyph-name="e" horiz-adv-x="526" unicode="e" /><glyph d="M87 588Q87 622 97.5 645Q108 668 126 682.5Q144 697 167.5 703Q191 709 217 709Q230 709 246.5 708Q263 707 278 706Q295 705 312 703V584Q301 585 290 587Q281 588 272 588.5Q263 589 258 589Q239 589 228 582Q217 575 217 551V458H305V348H217V0H87V348H15V458H87Z" glyph-name="f" horiz-adv-x="322" unicode="f" /><glyph d="M520 458 520 -34Q520 -61 512.5 -86.5Q505 -112 488 -131.5Q471 -151 443 -163Q415 -175 373 -175H174V-65H341Q358 -65 374 -57.5Q390 -50 390 -24V64Q373 36 335 15.5Q297 -5 248 -5Q202 -5 161.5 12Q121 29 91.5 60Q62 91 45 134.5Q28 178 28 232Q28 286 45 330Q62 374 91 405Q120 436 160.5 453Q201 470 247 470Q299 470 337 449Q375 428 392 399Q392 403 391 411Q390 419 390 437V458ZM162 232Q162 176 194 141.5Q226 107 277 107Q329 107 361 141.5Q393 176 393 232Q393 289 361 323.5Q329 358 277 358Q226 358 194 323.5Q162 289 162 232Z" glyph-name="g" horiz-adv-x="576" unicode="g" /><glyph d="M182 404Q208 436 245 453Q282 470 321 470Q358 470 389.5 458.5Q421 447 443.5 425Q466 403 478.5 371.5Q491 340 491 300V0H361V267Q361 311 337.5 330Q314 349 283 349Q254 349 229.5 334.5Q205 320 186 297V0H56V700H184V440Q184 434 183.5 427.5Q183 421 183 416Q183 410 182 404Z" glyph-name="h" horiz-adv-x="542" unicode="h" /><glyph d="M213 0 83 0V348H19V458H213ZM59 616Q59 651 83 675.5Q107 700 142 700Q177 700 201.5 675.5Q226 651 226 616Q226 581 201.5 557Q177 533 142 533Q107 533 83 557Q59 581 59 616Z" glyph-name="i" horiz-adv-x="269" unicode="i" /><glyph d="M83 348 19 348V458H213V-65Q213 -103 199.5 -125Q186 -147 165 -158Q144 -169 118 -172.5Q92 -176 68 -176H-1V-66H44Q64 -66 73.5 -60Q83 -54 83 -37ZM59 616Q59 651 83 675.5Q107 700 142 700Q177 700 201.5 675.5Q226 651 226 616Q226 581 201.5 557Q177 533 142 533Q107 533 83 557Q59 581 59 616Z" glyph-name="j" horiz-adv-x="269" unicode="j" /><glyph d="M185 299 216 299L342 458H499L322 248L504 0H348L216 189H185V0H56V700H185Z" glyph-name="k" horiz-adv-x="507" unicode="k" /><glyph d="M185 0 56 0V700H185Z" glyph-name="l" horiz-adv-x="241" unicode="l" /><glyph d="M658 269Q658 311 635 330Q612 349 582 349Q554 349 530 334.5Q506 320 487 297V0H357V269Q357 311 334.5 330Q312 349 281 349Q253 349 229 334.5Q205 320 186 297V0H56V458H183V440Q183 434 182.5 427.5Q182 421 182 416Q182 410 181 404Q207 436 243 453Q279 470 318 470Q369 470 407 449Q445 428 465 387Q494 427 532.5 448.5Q571 470 619 470Q694 470 741 425.5Q788 381 788 300V0H658Z" glyph-name="m" horiz-adv-x="839" unicode="m" /><glyph d="M181 404Q207 436 244 453Q281 470 321 470Q358 470 389.5 458.5Q421 447 443.5 425Q466 403 478.5 371.5Q491 340 491 300V0H361V267Q361 311 337.5 330Q314 349 283 349Q254 349 229.5 334.5Q205 320 186 297V0H56V458H183V440Q183 434 182.5 427.5Q182 421 182 416Q182 410 181 404Z" glyph-name="n" horiz-adv-x="542" unicode="n" /><glyph d="M272 -12Q221 -12 176.5 6Q132 24 98.5 56Q65 88 46 132.5Q27 177 27 229Q27 282 46 326Q65 370 98.5 402Q132 434 176.5 452Q221 470 272 470Q323 470 367.5 452Q412 434 445.5 402Q479 370 498 326Q517 282 517 229Q517 177 498 132.5Q479 88 445.5 56Q412 24 367.5 6Q323 -12 272 -12ZM272 354Q221 354 189 318.5Q157 283 157 229Q157 175 189 139.5Q221 104 272 104Q323 104 354.5 139.5Q386 175 386 229Q386 283 354.5 318.5Q323 354 272 354Z" glyph-name="o" horiz-adv-x="544" unicode="o" /><glyph d="M300 354Q248 354 215.5 318.5Q183 283 183 229Q183 203 191.5 180Q200 157 215.5 140Q231 123 252.5 113Q274 103 300 103Q326 103 347.5 113Q369 123 384.5 140Q400 157 408.5 180Q417 203 417 229Q417 283 384.5 318.5Q352 354 300 354ZM186 -175 56 -175V458H186V436Q186 419 185 411Q184 403 184 399Q201 428 239 449Q277 470 329 470Q376 470 416.5 452Q457 434 487 402Q517 370 534 326Q551 282 551 229Q551 177 534 132.5Q517 88 487 56Q457 24 416 6Q375 -12 328 -12Q279 -12 241 8.5Q203 29 186 58Z" glyph-name="p" horiz-adv-x="579" unicode="p" /><glyph d="M279 354Q227 354 194.5 318.5Q162 283 162 229Q162 203 170.5 180Q179 157 194.5 140Q210 123 231.5 113Q253 103 279 103Q305 103 326.5 113Q348 123 363.5 140Q379 157 387.5 180Q396 203 396 229Q396 283 363.5 318.5Q331 354 279 354ZM393 58Q376 29 338 8.5Q300 -12 250 -12Q203 -12 162.5 6Q122 24 92 56Q62 88 45 132.5Q28 177 28 229Q28 282 45 326Q62 370 91.5 402Q121 434 161.5 452Q202 470 249 470Q302 470 340 449Q378 428 395 399Q395 403 394 411Q393 419 393 437V458H523V-175H393Z" glyph-name="q" horiz-adv-x="579" unicode="q" /><glyph d="M337 330 282 330Q232 330 209 304.5Q186 279 186 219V0H56V458H182V385Q196 422 227 443Q258 464 301 464Q321 464 337 460Z" glyph-name="r" horiz-adv-x="354" unicode="r" /><glyph d="M326 318Q298 345 267 355Q236 365 213 365Q187 365 177 355Q167 345 167 334Q167 310 201 299L277 275Q348 252 375.5 215Q403 178 403 133Q403 108 392 82Q381 56 358.5 35Q336 14 302 1Q268 -12 221 -12Q183 -12 152 -5.5Q121 1 96.5 11.5Q72 22 52.5 35Q33 48 19 60L88 150Q113 127 152 110Q191 93 223 93Q246 93 259.5 103Q273 113 273 127Q273 144 261 153.5Q249 163 221 171L143 194Q87 212 62 247.5Q37 283 37 328Q37 356 49.5 382Q62 408 85 427.5Q108 447 141 458.5Q174 470 215 470Q260 470 309.5 455Q359 440 400 402Z" glyph-name="s" horiz-adv-x="430" unicode="s" /><glyph d="M220 632 220 458H319V348H220V141Q220 119 234 113.5Q248 108 263 108Q275 108 286 108.5Q297 109 305 110Q315 110 323 111V0Q305 -2 287 -3Q270 -4 253 -5Q236 -6 222 -6Q198 -6 174 -3Q150 0 131.5 11Q113 22 101.5 42.5Q90 63 90 97V348H18V458H90V632Z" glyph-name="t" horiz-adv-x="353" unicode="t" /><glyph d="M267 -12Q215 -12 174 2.5Q133 17 105.5 42Q78 67 63.5 99.5Q49 132 49 168V458H179V192Q179 144 205.5 124Q232 104 267 104Q302 104 328.5 124Q355 144 355 192V458H484V168Q484 132 470 99.5Q456 67 428.5 42Q401 17 360.5 2.5Q320 -12 267 -12Z" glyph-name="u" horiz-adv-x="533" unicode="u" /><glyph d="M251 140 355 458H492L329 0H168L12 458H153Z" glyph-name="v" horiz-adv-x="501" unicode="v" /><glyph d="M516 160 586 458H720L601 0H447L367 286L285 0H132L20 458H160L221 164L306 458H433Z" glyph-name="w" horiz-adv-x="737" unicode="w" /><glyph d="M156 228 11 458H161L242 321L326 458H472L327 231L474 0H323L240 137L160 0H10Z" glyph-name="x" horiz-adv-x="483" unicode="x" /><glyph d="M201 0 168 0L11 458H156L253 132L351 458H492L309 -72Q292 -123 260.5 -149Q229 -175 166 -175H76V-66H140Q160 -66 172 -58Q184 -50 191 -30Z" glyph-name="y" horiz-adv-x="502" unicode="y" /><glyph d="M431 351 195 109H431V0H36V107L273 348H38V458H431Z" glyph-name="z" horiz-adv-x="468" unicode="z" /><glyph d="M242 393Q242 381 240.5 367Q239 353 233.5 339Q228 325 217 313Q206 301 186 293Q206 285 217 273Q228 261 233.5 247Q239 233 240.5 219Q242 205 242 193V-36H358V-153H106V232H31V351H106V700H358V583H242Z" glyph-name="braceleft" horiz-adv-x="394" unicode="{" /><glyph d="M70 -93 70 760H174V-93Z" glyph-name="bar" horiz-adv-x="244" unicode="|" /><glyph d="M152 583 36 583V700H288V351H363V232H288V-153H36V-36H152V193Q152 205 153.5 219Q155 233 160.5 247Q166 261 177.5 273Q189 285 208 293Q189 301 177.5 313Q166 325 160.5 339Q155 353 153.5 367Q152 381 152 393Z" glyph-name="braceright" horiz-adv-x="394" unicode="}" /><glyph d="M383 271Q366 271 335 277.5Q304 284 272.5 292.5Q241 301 215 307.5Q189 314 181 314Q167 314 161.5 307Q156 300 156 289V273H39V321Q39 333 40.5 353Q42 373 51.5 392.5Q61 412 82 426.5Q103 441 142 441Q159 441 190 434.5Q221 428 252.5 419.5Q284 411 310 404.5Q336 398 344 398Q358 398 363 405Q368 412 368 423V439H486V391Q486 379 484.5 359Q483 339 473.5 319.5Q464 300 443 285.5Q422 271 383 271Z" glyph-name="asciitilde" horiz-adv-x="520" unicode="~" /><glyph d="M191 232 201 -242H57L67 232ZM43 383Q43 419 68.5 444.5Q94 470 130 470Q166 470 191.5 444.5Q217 419 217 383Q217 347 191.5 321.5Q166 296 130 296Q94 296 68.5 321.5Q43 347 43 383Z" glyph-name="exclamdown" horiz-adv-x="258" unicode="¡" /><glyph d="M200 123Q164 135 133.5 156.5Q103 178 81 207.5Q59 237 47 273.5Q35 310 35 352Q35 403 53.5 447Q72 491 104 523Q136 555 179 573.5Q222 592 272 593L289 700H367L349 584Q404 569 445 532.5Q486 496 503 444L381 407Q373 426 360 441Q347 456 330 465L294 227Q325 231 347 249.5Q369 268 381 297L503 259Q492 225 470 197.5Q448 170 418.5 151Q389 132 353.5 121.5Q318 111 279 111H276L259 0H181ZM165 352Q165 316 179 288Q193 260 218 244L254 474Q213 465 189 432Q165 399 165 352Z" glyph-name="cent" horiz-adv-x="541" unicode="¢" /><glyph d="M50 395 96 395Q88 418 81.5 445Q75 472 75 501Q75 548 91 586.5Q107 625 137 653Q167 681 210.5 696.5Q254 712 309 712Q357 712 398 697.5Q439 683 469 656Q499 629 516 590.5Q533 552 533 504V491H394Q394 505 390 522.5Q386 540 376 555Q366 570 349 580.5Q332 591 306 591Q267 591 242 565Q217 539 217 494Q217 470 222.5 446Q228 422 238 395H434V296H271Q276 277 279.5 260Q283 243 283 225Q283 189 270.5 162.5Q258 136 237 119H513V0H49V119H118Q119 119 125.5 124.5Q132 130 139.5 140.5Q147 151 153 166Q159 181 159 202Q159 227 152.5 249Q146 271 135 296H50Z" glyph-name="sterling" horiz-adv-x="571" unicode="£" /><glyph d="M79 349Q79 394 93 440Q107 486 135 524L42 613L119 691L211 602Q290 656 382 656Q475 656 554 602L645 691L722 613L629 524Q657 486 671 440Q685 394 685 349Q685 304 671 258Q657 212 629 174L722 85L645 7L554 96Q516 70 472 55.5Q428 41 382 41Q336 41 292 55.5Q248 70 210 96L119 7L42 85L135 174Q107 212 93 258Q79 304 79 349ZM574 349Q574 391 560 427.5Q546 464 520.5 491.5Q495 519 459.5 535Q424 551 382 551Q340 551 304.5 535Q269 519 244 491.5Q219 464 205 427.5Q191 391 191 349Q191 307 205 270.5Q219 234 244 206.5Q269 179 304.5 163Q340 147 382 147Q424 147 459.5 163Q495 179 520.5 206.5Q546 234 560 270.5Q574 307 574 349Z" glyph-name="currency" horiz-adv-x="764" unicode="¤" /><glyph d="M415 154 415 0H276V154H95V252H298L249 335H95V433H198L31 700H195L345 434H348L497 700H656L490 433H594V335H437L390 252H594V154Z" glyph-name="yen" horiz-adv-x="688" unicode="¥" /><glyph d="M70 391 70 760H174V391ZM70 -93 70 275H174V-93Z" glyph-name="brokenbar" horiz-adv-x="244" unicode="¦" /><glyph d="M37 281Q37 307 46.5 330Q56 353 73 371.5Q90 390 113 403Q136 416 163 420Q125 440 103.5 471.5Q82 503 82 549Q82 588 99.5 619.5Q117 651 148 673.5Q179 696 220.5 708Q262 720 311 720Q386 720 444 696Q502 672 543 636L466 537Q434 570 392 589.5Q350 609 314 609Q263 609 240.5 590.5Q218 572 218 553Q218 528 239 509.5Q260 491 317 480L344 475Q401 465 441 450.5Q481 436 505.5 416.5Q530 397 541 371Q552 345 552 310Q552 267 522.5 228.5Q493 190 434 176Q512 131 512 44Q512 5 494.5 -26.5Q477 -58 446 -80.5Q415 -103 372.5 -115Q330 -127 281 -127Q203 -127 140.5 -102.5Q78 -78 41 -42L117 53Q151 19 195.5 2.5Q240 -14 277 -14Q325 -14 348 2.5Q371 19 371 39Q371 71 350.5 81Q330 91 295 99L206 121Q172 129 141.5 141Q111 153 87.5 171.5Q64 190 50.5 216.5Q37 243 37 281ZM170 301Q170 259 225 244L323 218Q361 223 388.5 241.5Q416 260 416 289Q416 312 396.5 326Q377 340 323 351L253 366Q218 362 194 345Q170 328 170 301Z" glyph-name="section" horiz-adv-x="589" unicode="§" /><glyph d="M24 584Q24 616 47 639Q70 662 102 662Q134 662 157.5 639Q181 616 181 584Q181 552 157.5 529Q134 506 102 506Q70 506 47 529Q24 552 24 584ZM215 584Q215 616 238 639Q261 662 293 662Q325 662 348.5 639Q372 616 372 584Q372 552 348.5 529Q325 506 293 506Q261 506 238 529Q215 552 215 584Z" glyph-name="dieresis" horiz-adv-x="396" unicode="¨" /><glyph d="M420 563Q455 563 487 552Q519 541 545.5 520Q572 499 591 469Q610 439 619 401L515 398Q504 433 479.5 453Q455 473 420 473Q367 473 336 438Q305 403 305 350Q305 296 336 261Q367 226 420 226Q455 226 479.5 246Q504 266 515 301L619 298Q610 261 591 231Q572 201 545.5 180Q519 159 487 148Q455 137 420 137Q375 137 336 153Q297 169 267.5 197Q238 225 221 264.5Q204 304 204 350Q204 397 220.5 436Q237 475 266 503Q295 531 334.5 547Q374 563 420 563ZM415 723Q494 723 562.5 695Q631 667 682 617Q733 567 762.5 498.5Q792 430 792 348Q792 266 762.5 197.5Q733 129 682 79.5Q631 30 562.5 2Q494 -26 415 -26Q336 -26 267.5 2Q199 30 148 79.5Q97 129 67.5 197.5Q38 266 38 348Q38 430 67.5 498.5Q97 567 148 617Q199 667 267.5 695Q336 723 415 723ZM415 52Q478 52 531 74Q584 96 621.5 135.5Q659 175 680 229.5Q701 284 701 348Q701 412 680 466Q659 520 621.5 559.5Q584 599 531 621Q478 643 415 643Q352 643 299.5 621Q247 599 209.5 559.5Q172 520 151 466Q130 412 130 348Q130 284 151 229.5Q172 175 209.5 135.5Q247 96 299.5 74Q352 52 415 52Z" glyph-name="copyright" horiz-adv-x="830" unicode="©" /><glyph d="M210 385Q239 385 262 401Q285 417 285 452V478Q275 471 252 471H210Q184 471 170 460.5Q156 450 156 430Q156 410 170 397.5Q184 385 210 385ZM284 575Q284 597 266 606Q248 615 222 615Q193 615 160 604.5Q127 594 104 578L55 661Q82 681 127.5 696.5Q173 712 227 712Q310 712 353.5 673.5Q397 635 397 572V312H285V347Q268 324 240 313Q212 302 180 302Q146 302 120 312Q94 322 76.5 338.5Q59 355 50 377.5Q41 400 41 425Q41 483 78.5 514Q116 545 182 545H258Q284 545 284 569Z" glyph-name="ordfeminine" horiz-adv-x="457" unicode="ª" /><glyph d="M35 238 154 413H289L178 238L289 62H154ZM243 238 362 413H497L386 238L497 62H362Z" glyph-name="guillemotleft" horiz-adv-x="540" unicode="«" /><glyph d="M22 516 469 516V197H341V397H22Z" glyph-name="logicalnot" horiz-adv-x="520" unicode="¬" /><glyph d="" glyph-name="uni00AD" horiz-adv-x="250" unicode="­" /><glyph d="M409 297 361 297V149H263V558H427Q499 558 539.5 524.5Q580 491 580 433Q580 418 576 401.5Q572 385 562.5 369.5Q553 354 537 340Q521 326 498 317L605 149H492ZM479 429Q479 453 461 464Q443 475 417 475H361V381H417Q443 381 461 393Q479 405 479 429ZM415 723Q494 723 562.5 695Q631 667 682 617Q733 567 762.5 498.5Q792 430 792 348Q792 266 762.5 197.5Q733 129 682 79.5Q631 30 562.5 2Q494 -26 415 -26Q336 -26 267.5 2Q199 30 148 79.5Q97 129 67.5 197.5Q38 266 38 348Q38 430 67.5 498.5Q97 567 148 617Q199 667 267.5 695Q336 723 415 723ZM415 52Q478 52 531 74Q584 96 621.5 135.5Q659 175 680 229.5Q701 284 701 348Q701 412 680 466Q659 520 621.5 559.5Q584 599 531 621Q478 643 415 643Q352 643 299.5 621Q247 599 209.5 559.5Q172 520 151 466Q130 412 130 348Q130 284 151 229.5Q172 175 209.5 135.5Q247 96 299.5 74Q352 52 415 52Z" glyph-name="registered" horiz-adv-x="830" unicode="®" /><glyph d="M29 643 343 643V532H29Z" glyph-name="macron" horiz-adv-x="372" unicode="¯" /><glyph d="M38 543Q38 578 51 608.5Q64 639 87 662Q110 685 141 698.5Q172 712 207 712Q242 712 272.5 698.5Q303 685 326 662Q349 639 362.5 608.5Q376 578 376 543Q376 508 362.5 477Q349 446 326 423Q303 400 272.5 387Q242 374 207 374Q172 374 141 387Q110 400 87 423Q64 446 51 477Q38 508 38 543ZM131 543Q131 509 153 485.5Q175 462 207 462Q238 462 260 485.5Q282 509 282 543Q282 575 260 599Q238 623 207 623Q175 623 153 599Q131 575 131 543Z" glyph-name="degree" horiz-adv-x="414" unicode="°" /><glyph d="M36 339 36 458H195V617H323V458H483V339H323V180H195V339ZM36 119 483 119V0H36Z" glyph-name="plusminus" horiz-adv-x="520" unicode="±" /><glyph d="M64 367Q88 385 111 403Q133 420 155.5 437.5Q178 455 197 472Q233 504 243.5 525Q254 546 254 566Q254 586 241 598.5Q228 611 208 611Q190 611 176.5 600Q163 589 163 569Q163 563 164.5 554.5Q166 546 171 532L73 517Q63 538 60 553.5Q57 569 57 584Q57 607 67 629Q77 651 96.5 668.5Q116 686 144.5 696.5Q173 707 209 707Q249 707 278 695Q307 683 326.5 664.5Q346 646 355.5 622Q365 598 365 574Q365 549 358 527Q351 505 336 483Q321 461 297 438.5Q273 416 238 390L205 364H368V269H64Z" glyph-name="twosuperior" horiz-adv-x="430" unicode="²" /><glyph d="M209 262Q134 262 97 298.5Q60 335 60 395V414H170V398Q170 382 177.5 366.5Q185 351 208 351Q230 351 239.5 365Q249 379 249 402Q249 426 236 441.5Q223 457 193 457Q182 457 168 455.5Q154 454 147 452V544L232 607H78V700H349V598L251 527Q299 523 330.5 488.5Q362 454 362 405Q362 339 321 300.5Q280 262 209 262Z" glyph-name="threesuperior" horiz-adv-x="430" unicode="³" /><glyph d="M74 700 240 700L148 527H24Z" glyph-name="acute" horiz-adv-x="265" unicode="´" /><glyph d="M289 -12Q259 -12 228.5 -2Q198 8 184 23V-175H66V458H196V192Q196 144 222.5 124Q249 104 284 104Q319 104 345 124Q371 144 371 192V458H501V168Q501 132 487.5 99.5Q474 67 447.5 42Q421 17 381.5 2.5Q342 -12 289 -12Z" glyph-name="mu" horiz-adv-x="532" unicode="µ" /><glyph d="M32 510Q32 551 46 586Q60 621 86 646.5Q112 672 148.5 686Q185 700 231 700H569V0H430V580H340V0H200V330Q164 332 133.5 346Q103 360 80.5 383.5Q58 407 45 439Q32 471 32 510Z" glyph-name="paragraph" horiz-adv-x="652" unicode="¶" /><glyph d="M46 362Q46 399 71.5 424.5Q97 450 133 450Q170 450 195.5 424.5Q221 399 221 362Q221 326 195.5 300.5Q170 275 133 275Q97 275 71.5 300.5Q46 326 46 362Z" glyph-name="periodcentered" horiz-adv-x="268" unicode="·" /><glyph d="M108 13 257 13L164 -174H31Z" glyph-name="cedilla" horiz-adv-x="289" unicode="¸" /><glyph d="M93 700 277 700V362H359V269H86V362H168V607H93Z" glyph-name="onesuperior" horiz-adv-x="430" unicode="¹" /><glyph d="M244 302Q201 302 163 317.5Q125 333 97 360.5Q69 388 52.5 425.5Q36 463 36 508Q36 553 52.5 590.5Q69 628 97 655Q125 682 163 697Q201 712 244 712Q288 712 326 697Q364 682 392 655Q420 628 436.5 590.5Q453 553 453 508Q453 463 436.5 425.5Q420 388 392 360.5Q364 333 326 317.5Q288 302 244 302ZM244 612Q201 612 174.5 582.5Q148 553 148 508Q148 462 174.5 432Q201 402 244 402Q286 402 313 432Q340 462 340 508Q340 553 313 582.5Q286 612 244 612Z" glyph-name="ordmasculine" horiz-adv-x="488" unicode="º" /><glyph d="M179 62 43 62L154 238L43 413H179L298 238ZM387 62 252 62L363 238L252 413H387L506 238Z" glyph-name="guillemotright" horiz-adv-x="541" unicode="»" /><glyph d="M93 700 277 700V362H359V269H86V362H168V607H93ZM686 197 830 431H960V187H1011V96H960V0H857V96H686ZM773 187 857 187V320H855ZM914 686 241 -37L183 18L856 741Z" glyph-name="onequarter" horiz-adv-x="1080" unicode="¼" /><glyph d="M93 700 277 700V362H359V269H86V362H168V607H93ZM700 98Q724 116 747 134Q769 151 791.5 168.5Q814 186 833 203Q869 235 879.5 256Q890 277 890 297Q890 317 877 329.5Q864 342 844 342Q826 342 812.5 331Q799 320 799 300Q799 294 800.5 285.5Q802 277 807 263L709 248Q699 269 696 284.5Q693 300 693 315Q693 338 703 360Q713 382 732.5 399.5Q752 417 780.5 427.5Q809 438 845 438Q885 438 914 426Q943 414 962.5 395.5Q982 377 991.5 353Q1001 329 1001 305Q1001 280 994 258Q987 236 972 214Q957 192 933 169.5Q909 147 874 121L841 95H1004V0H700ZM914 686 241 -37L183 18L856 741Z" glyph-name="onehalf" horiz-adv-x="1080" unicode="½" /><glyph d="M239 262Q164 262 127 298.5Q90 335 90 395V414H200V398Q200 382 207.5 366.5Q215 351 238 351Q260 351 269.5 365Q279 379 279 402Q279 426 266 441.5Q253 457 223 457Q212 457 198 455.5Q184 454 177 452V544L262 607H108V700H379V598L281 527Q329 523 360.5 488.5Q392 454 392 405Q392 339 351 300.5Q310 262 239 262ZM914 686 241 -37L183 18L856 741ZM686 197 830 431H960V187H1011V96H960V0H857V96H686ZM773 187 857 187V320H855Z" glyph-name="threequarters" horiz-adv-x="1080" unicode="¾" /><glyph d="M31 -49Q31 -23 37.5 7.5Q44 38 61.5 66Q79 94 109.5 116Q140 138 188 148L193 249H316L327 60L286 58Q225 55 198.5 24.5Q172 -6 172 -43Q172 -81 194.5 -105Q217 -129 254 -129Q296 -129 315.5 -103Q335 -77 335 -40V-26H469Q470 -27 470 -36.5Q470 -46 470 -47Q470 -95 454 -133.5Q438 -172 409 -199Q380 -226 339.5 -240Q299 -254 250 -254Q202 -254 161.5 -239Q121 -224 92 -197Q63 -170 47 -132.5Q31 -95 31 -49ZM341 384Q341 347 315.5 321.5Q290 296 254 296Q217 296 191.5 321.5Q166 347 166 384Q166 419 191.5 444.5Q217 470 254 470Q290 470 315.5 444.5Q341 419 341 384Z" glyph-name="questiondown" horiz-adv-x="499" unicode="¿" /><glyph d="M634 0 484 0L424 191H213L157 0H11L237 700H403ZM319 550 317 550L246 310H389ZM371 769 247 769L155 942H321Z" glyph-name="Agrave" horiz-adv-x="642" unicode="À" /><glyph d="M634 0 484 0L424 191H213L157 0H11L237 700H403ZM319 550 317 550L246 310H389ZM316 942 482 942L390 769H266Z" glyph-name="Aacute" horiz-adv-x="642" unicode="Á" /><glyph d="M634 0 484 0L424 191H213L157 0H11L237 700H403ZM319 550 317 550L246 310H389ZM248 942 395 942L497 769H361L321 846L283 769H147Z" glyph-name="Acircumflex" horiz-adv-x="642" unicode="Â" /><glyph d="M634 0 484 0L424 191H213L157 0H11L237 700H403ZM319 550 317 550L246 310H389ZM151 765Q151 779 153 803Q155 827 165 850Q175 873 196.5 890Q218 907 257 907Q275 907 292.5 901Q310 895 325 888Q340 881 352 875Q364 869 371 869Q393 869 393 898V904H494V897Q494 883 492 859.5Q490 836 480 813Q470 790 448.5 773Q427 756 388 756Q370 756 352.5 762Q335 768 320 775Q305 782 293 788Q281 794 274 794Q252 794 252 765V758H151Z" glyph-name="Atilde" horiz-adv-x="642" unicode="Ã" /><glyph d="M634 0 484 0L424 191H213L157 0H11L237 700H403ZM319 550 317 550L246 310H389ZM148 826Q148 858 171 881Q194 904 226 904Q258 904 281.5 881Q305 858 305 826Q305 794 281.5 771Q258 748 226 748Q194 748 171 771Q148 794 148 826ZM339 826Q339 858 362 881Q385 904 417 904Q449 904 472.5 881Q496 858 496 826Q496 794 472.5 771Q449 748 417 748Q385 748 362 771Q339 794 339 826Z" glyph-name="Adieresis" horiz-adv-x="642" unicode="Ä" /><glyph d="M634 0 484 0L424 191H213L157 0H11L237 700H403ZM319 550 317 550L246 310H389ZM323 737Q297 737 274 746Q251 755 234 771.5Q217 788 207 810Q197 832 197 857Q197 884 207 906Q217 928 234 944Q251 960 274 969Q297 978 323 978Q349 978 372 969Q395 960 412 944Q429 928 439 906Q449 884 449 857Q449 832 439 810Q429 788 412 771.5Q395 755 372 746Q349 737 323 737ZM323 807Q343 807 357 821.5Q371 836 371 857Q371 879 357 893.5Q343 908 323 908Q303 908 289 893.5Q275 879 275 857Q275 836 289 821.5Q303 807 323 807Z" glyph-name="Aring" horiz-adv-x="642" unicode="Å" /><glyph d="M255 226 144 0H-18L347 700H954V580H572V416H795V297H572V119H954V0H433V226ZM433 589 432 589L313 345H433Z" glyph-name="AE" horiz-adv-x="989" unicode="Æ" /><glyph d="M309 -2Q248 11 197.5 42.5Q147 74 110 119.5Q73 165 52.5 224Q32 283 32 350Q32 429 60 495.5Q88 562 137 610Q186 658 253 685Q320 712 397 712Q456 712 511.5 694.5Q567 677 612.5 643.5Q658 610 691.5 561.5Q725 513 740 451H587Q567 514 517 549Q467 584 397 584Q348 584 307 566.5Q266 549 237.5 517.5Q209 486 193 443Q177 400 177 350Q177 300 193 257Q209 214 237.5 182.5Q266 151 307 133.5Q348 116 397 116Q467 116 517 151Q567 186 587 249H740Q727 195 699.5 151Q672 107 634.5 74.5Q597 42 551 21.5Q505 1 455 -7L372 -174H239Z" glyph-name="Ccedilla" horiz-adv-x="765" unicode="Ç" /><glyph d="M594 580 212 580V416H435V297H212V119H594V0H73V700H594ZM392 769 268 769L176 942H342Z" glyph-name="Egrave" horiz-adv-x="629" unicode="È" /><glyph d="M594 580 212 580V416H435V297H212V119H594V0H73V700H594ZM310 942 476 942L384 769H260Z" glyph-name="Eacute" horiz-adv-x="629" unicode="É" /><glyph d="M594 580 212 580V416H435V297H212V119H594V0H73V700H594ZM260 942 407 942L509 769H373L333 846L295 769H159Z" glyph-name="Ecircumflex" horiz-adv-x="629" unicode="Ê" /><glyph d="M594 580 212 580V416H435V297H212V119H594V0H73V700H594ZM140 826Q140 858 163 881Q186 904 218 904Q250 904 273.5 881Q297 858 297 826Q297 794 273.5 771Q250 748 218 748Q186 748 163 771Q140 794 140 826ZM331 826Q331 858 354 881Q377 904 409 904Q441 904 464.5 881Q488 858 488 826Q488 794 464.5 771Q441 748 409 748Q377 748 354 771Q331 794 331 826Z" glyph-name="Edieresis" horiz-adv-x="629" unicode="Ë" /><glyph d="M73 700 212 700V0H73ZM197 769 73 769L-19 942H147Z" glyph-name="Igrave" horiz-adv-x="285" unicode="Ì" /><glyph d="M73 700 212 700V0H73ZM134 942 300 942L208 769H84Z" glyph-name="Iacute" horiz-adv-x="285" unicode="Í" /><glyph d="M73 700 212 700V0H73ZM69 942 216 942L318 769H182L142 846L104 769H-32Z" glyph-name="Icircumflex" horiz-adv-x="285" unicode="Î" /><glyph d="M73 700 212 700V0H73ZM-31 826Q-31 858 -8 881Q15 904 47 904Q79 904 102.5 881Q126 858 126 826Q126 794 102.5 771Q79 748 47 748Q15 748 -8 771Q-31 794 -31 826ZM160 826Q160 858 183 881Q206 904 238 904Q270 904 293.5 881Q317 858 317 826Q317 794 293.5 771Q270 748 238 748Q206 748 183 771Q160 794 160 826Z" glyph-name="Idieresis" horiz-adv-x="285" unicode="Ï" /><glyph d="M5 406 82 406V700H322Q408 700 475.5 674.5Q543 649 589.5 603Q636 557 660.5 492.5Q685 428 685 350Q685 272 660.5 207.5Q636 143 589.5 97Q543 51 475.5 25.5Q408 0 322 0H82V307H5ZM543 350Q543 408 525.5 451.5Q508 495 478 523.5Q448 552 406.5 566.5Q365 581 317 581H221V406H399V307H221V118H317Q365 118 406.5 132Q448 146 478 175Q508 204 525.5 247.5Q543 291 543 350Z" glyph-name="Eth" horiz-adv-x="719" unicode="Ð" /><glyph d="M210 0 73 0V700H256L492 234V700H629V0H460L210 486ZM179 765Q179 779 181 803Q183 827 193 850Q203 873 224.5 890Q246 907 285 907Q303 907 320.5 901Q338 895 353 888Q368 881 380 875Q392 869 399 869Q421 869 421 898V904H522V897Q522 883 520 859.5Q518 836 508 813Q498 790 476.5 773Q455 756 416 756Q398 756 380.5 762Q363 768 348 775Q333 782 321 788Q309 794 302 794Q280 794 280 765V758H179Z" glyph-name="Ntilde" horiz-adv-x="702" unicode="Ñ" /><glyph d="M398 712Q474 712 541 685Q608 658 657.5 610Q707 562 735.5 495.5Q764 429 764 350Q764 271 735.5 204.5Q707 138 657.5 90Q608 42 541 15Q474 -12 398 -12Q322 -12 255 15Q188 42 138.5 90Q89 138 60.5 204.5Q32 271 32 350Q32 429 60.5 495.5Q89 562 138.5 610Q188 658 255 685Q322 712 398 712ZM398 116Q448 116 488.5 133.5Q529 151 558 182.5Q587 214 603 257Q619 300 619 350Q619 400 603 443Q587 486 558 517.5Q529 549 488.5 566.5Q448 584 398 584Q349 584 308 566.5Q267 549 238 517.5Q209 486 193 443Q177 400 177 350Q177 300 193 257Q209 214 238 182.5Q267 151 308 133.5Q349 116 398 116ZM450 769 326 769L234 942H400Z" glyph-name="Ograve" horiz-adv-x="796" unicode="Ò" /><glyph d="M398 712Q474 712 541 685Q608 658 657.5 610Q707 562 735.5 495.5Q764 429 764 350Q764 271 735.5 204.5Q707 138 657.5 90Q608 42 541 15Q474 -12 398 -12Q322 -12 255 15Q188 42 138.5 90Q89 138 60.5 204.5Q32 271 32 350Q32 429 60.5 495.5Q89 562 138.5 610Q188 658 255 685Q322 712 398 712ZM398 116Q448 116 488.5 133.5Q529 151 558 182.5Q587 214 603 257Q619 300 619 350Q619 400 603 443Q587 486 558 517.5Q529 549 488.5 566.5Q448 584 398 584Q349 584 308 566.5Q267 549 238 517.5Q209 486 193 443Q177 400 177 350Q177 300 193 257Q209 214 238 182.5Q267 151 308 133.5Q349 116 398 116ZM405 942 571 942L479 769H355Z" glyph-name="Oacute" horiz-adv-x="796" unicode="Ó" /><glyph d="M398 712Q474 712 541 685Q608 658 657.5 610Q707 562 735.5 495.5Q764 429 764 350Q764 271 735.5 204.5Q707 138 657.5 90Q608 42 541 15Q474 -12 398 -12Q322 -12 255 15Q188 42 138.5 90Q89 138 60.5 204.5Q32 271 32 350Q32 429 60.5 495.5Q89 562 138.5 610Q188 658 255 685Q322 712 398 712ZM398 116Q448 116 488.5 133.5Q529 151 558 182.5Q587 214 603 257Q619 300 619 350Q619 400 603 443Q587 486 558 517.5Q529 549 488.5 566.5Q448 584 398 584Q349 584 308 566.5Q267 549 238 517.5Q209 486 193 443Q177 400 177 350Q177 300 193 257Q209 214 238 182.5Q267 151 308 133.5Q349 116 398 116ZM324 942 471 942L573 769H437L397 846L359 769H223Z" glyph-name="Ocircumflex" horiz-adv-x="796" unicode="Ô" /><glyph d="M398 712Q474 712 541 685Q608 658 657.5 610Q707 562 735.5 495.5Q764 429 764 350Q764 271 735.5 204.5Q707 138 657.5 90Q608 42 541 15Q474 -12 398 -12Q322 -12 255 15Q188 42 138.5 90Q89 138 60.5 204.5Q32 271 32 350Q32 429 60.5 495.5Q89 562 138.5 610Q188 658 255 685Q322 712 398 712ZM398 116Q448 116 488.5 133.5Q529 151 558 182.5Q587 214 603 257Q619 300 619 350Q619 400 603 443Q587 486 558 517.5Q529 549 488.5 566.5Q448 584 398 584Q349 584 308 566.5Q267 549 238 517.5Q209 486 193 443Q177 400 177 350Q177 300 193 257Q209 214 238 182.5Q267 151 308 133.5Q349 116 398 116ZM226 765Q226 779 228 803Q230 827 240 850Q250 873 271.5 890Q293 907 332 907Q350 907 367.5 901Q385 895 400 888Q415 881 427 875Q439 869 446 869Q468 869 468 898V904H569V897Q569 883 567 859.5Q565 836 555 813Q545 790 523.5 773Q502 756 463 756Q445 756 427.5 762Q410 768 395 775Q380 782 368 788Q356 794 349 794Q327 794 327 765V758H226Z" glyph-name="Otilde" horiz-adv-x="796" unicode="Õ" /><glyph d="M398 712Q474 712 541 685Q608 658 657.5 610Q707 562 735.5 495.5Q764 429 764 350Q764 271 735.5 204.5Q707 138 657.5 90Q608 42 541 15Q474 -12 398 -12Q322 -12 255 15Q188 42 138.5 90Q89 138 60.5 204.5Q32 271 32 350Q32 429 60.5 495.5Q89 562 138.5 610Q188 658 255 685Q322 712 398 712ZM398 116Q448 116 488.5 133.5Q529 151 558 182.5Q587 214 603 257Q619 300 619 350Q619 400 603 443Q587 486 558 517.5Q529 549 488.5 566.5Q448 584 398 584Q349 584 308 566.5Q267 549 238 517.5Q209 486 193 443Q177 400 177 350Q177 300 193 257Q209 214 238 182.5Q267 151 308 133.5Q349 116 398 116ZM224 826Q224 858 247 881Q270 904 302 904Q334 904 357.5 881Q381 858 381 826Q381 794 357.5 771Q334 748 302 748Q270 748 247 771Q224 794 224 826ZM415 826Q415 858 438 881Q461 904 493 904Q525 904 548.5 881Q572 858 572 826Q572 794 548.5 771Q525 748 493 748Q461 748 438 771Q415 794 415 826Z" glyph-name="Odieresis" horiz-adv-x="796" unicode="Ö" /><glyph d="M406 585 493 500L350 359L493 216L406 133L265 274L126 133L38 216L181 359L38 500L125 585L265 443Z" glyph-name="multiply" horiz-adv-x="532" unicode="×" /><glyph d="M398 712Q452 712 501.5 698.5Q551 685 593 659L639 712H775L673 592Q715 545 739.5 483.5Q764 422 764 350Q764 271 735.5 204.5Q707 138 657.5 90Q608 42 541 15Q474 -12 398 -12Q344 -12 295 1.5Q246 15 203 40L158 -13H22L123 106Q80 154 56 215.5Q32 277 32 350Q32 429 60.5 495.5Q89 562 138.5 610Q188 658 255 685Q322 712 398 712ZM177 350Q177 272 214 213L507 557Q483 570 456 577Q429 584 398 584Q349 584 308 566.5Q267 549 238 517.5Q209 486 193 443Q177 400 177 350ZM398 116Q448 116 488.5 133.5Q529 151 558 182.5Q587 214 603 257Q619 300 619 350Q619 428 582 485L290 142Q337 116 398 116Z" glyph-name="Oslash" horiz-adv-x="796" unicode="Ø" /><glyph d="M330 116Q392 116 423 152Q454 188 454 245V700H590V232Q590 181 573.5 136.5Q557 92 524 59Q491 26 442 7Q393 -12 328 -12Q263 -12 214 7Q165 26 132.5 59Q100 92 83.5 136.5Q67 181 67 232V700H206V245Q206 188 237 152Q268 116 330 116ZM385 769 261 769L169 942H335Z" glyph-name="Ugrave" horiz-adv-x="657" unicode="Ù" /><glyph d="M330 116Q392 116 423 152Q454 188 454 245V700H590V232Q590 181 573.5 136.5Q557 92 524 59Q491 26 442 7Q393 -12 328 -12Q263 -12 214 7Q165 26 132.5 59Q100 92 83.5 136.5Q67 181 67 232V700H206V245Q206 188 237 152Q268 116 330 116ZM312 942 478 942L386 769H262Z" glyph-name="Uacute" horiz-adv-x="657" unicode="Ú" /><glyph d="M330 116Q392 116 423 152Q454 188 454 245V700H590V232Q590 181 573.5 136.5Q557 92 524 59Q491 26 442 7Q393 -12 328 -12Q263 -12 214 7Q165 26 132.5 59Q100 92 83.5 136.5Q67 181 67 232V700H206V245Q206 188 237 152Q268 116 330 116ZM254 942 401 942L503 769H367L327 846L289 769H153Z" glyph-name="Ucircumflex" horiz-adv-x="657" unicode="Û" /><glyph d="M330 116Q392 116 423 152Q454 188 454 245V700H590V232Q590 181 573.5 136.5Q557 92 524 59Q491 26 442 7Q393 -12 328 -12Q263 -12 214 7Q165 26 132.5 59Q100 92 83.5 136.5Q67 181 67 232V700H206V245Q206 188 237 152Q268 116 330 116ZM154 826Q154 858 177 881Q200 904 232 904Q264 904 287.5 881Q311 858 311 826Q311 794 287.5 771Q264 748 232 748Q200 748 177 771Q154 794 154 826ZM345 826Q345 858 368 881Q391 904 423 904Q455 904 478.5 881Q502 858 502 826Q502 794 478.5 771Q455 748 423 748Q391 748 368 771Q345 794 345 826Z" glyph-name="Udieresis" horiz-adv-x="657" unicode="Ü" /><glyph d="M-1 700 165 700L336 434H341L510 700H670L405 307V0H267V304ZM320 942 486 942L394 769H270Z" glyph-name="Yacute" horiz-adv-x="671" unicode="Ý" /><glyph d="M211 0 73 0V700H211V585H310Q372 585 419 567Q466 549 498 518Q530 487 546 445.5Q562 404 562 357Q562 309 546 266.5Q530 224 498 192Q466 160 419 141.5Q372 123 310 123H211ZM211 466 211 243H289Q346 243 383 270Q420 297 420 357Q420 415 383 440.5Q346 466 289 466Z" glyph-name="Thorn" horiz-adv-x="584" unicode="Þ" /><glyph d="M265 709Q314 709 351 695.5Q388 682 413 658.5Q438 635 450.5 605Q463 575 463 542Q463 503 448.5 474.5Q434 446 416.5 423.5Q399 401 384.5 383.5Q370 366 370 350Q370 331 390.5 314Q411 297 435 274.5Q459 252 479.5 220.5Q500 189 500 141Q500 108 488 80Q476 52 454.5 31.5Q433 11 402 -0.5Q371 -12 333 -12Q316 -12 291 -9Q266 -6 240 3L263 100Q273 94 287 91Q301 88 311 88Q340 88 355 103Q370 118 370 141Q370 164 349.5 183Q329 202 304 223Q279 244 258.5 269.5Q238 295 238 331Q238 364 252.5 390Q267 416 285 439.5Q303 463 317.5 485Q332 507 332 533Q332 559 313.5 576Q295 593 267 593Q236 593 211.5 569.5Q187 546 187 498V0H56V497Q56 554 74.5 594.5Q93 635 123 660.5Q153 686 190.5 697.5Q228 709 265 709Z" glyph-name="germandbls" horiz-adv-x="517" unicode="ß" /><glyph d="M221 83Q256 83 283 102Q310 121 310 164V197Q304 191 294 189Q284 187 270 187H221Q190 187 173 174Q156 161 156 137Q156 114 173.5 98.5Q191 83 221 83ZM310 305Q310 330 291 344.5Q272 359 234 359Q199 359 160.5 345Q122 331 96 316L45 414Q70 430 101 442Q130 453 164.5 461.5Q199 470 241 470Q280 470 316 460.5Q352 451 379.5 431Q407 411 423.5 378.5Q440 346 440 301V0H310V43Q292 16 256.5 2Q221 -12 182 -12Q146 -12 116.5 0Q87 12 66 32Q45 52 33.5 78Q22 104 22 132Q22 198 66.5 235.5Q111 273 188 273H278Q310 273 310 300ZM297 527 173 527L81 700H247Z" glyph-name="agrave" horiz-adv-x="491" unicode="à" /><glyph d="M221 83Q256 83 283 102Q310 121 310 164V197Q304 191 294 189Q284 187 270 187H221Q190 187 173 174Q156 161 156 137Q156 114 173.5 98.5Q191 83 221 83ZM310 305Q310 330 291 344.5Q272 359 234 359Q199 359 160.5 345Q122 331 96 316L45 414Q70 430 101 442Q130 453 164.5 461.5Q199 470 241 470Q280 470 316 460.5Q352 451 379.5 431Q407 411 423.5 378.5Q440 346 440 301V0H310V43Q292 16 256.5 2Q221 -12 182 -12Q146 -12 116.5 0Q87 12 66 32Q45 52 33.5 78Q22 104 22 132Q22 198 66.5 235.5Q111 273 188 273H278Q310 273 310 300ZM225 700 391 700L299 527H175Z" glyph-name="aacute" horiz-adv-x="491" unicode="á" /><glyph d="M221 83Q256 83 283 102Q310 121 310 164V197Q304 191 294 189Q284 187 270 187H221Q190 187 173 174Q156 161 156 137Q156 114 173.5 98.5Q191 83 221 83ZM310 305Q310 330 291 344.5Q272 359 234 359Q199 359 160.5 345Q122 331 96 316L45 414Q70 430 101 442Q130 453 164.5 461.5Q199 470 241 470Q280 470 316 460.5Q352 451 379.5 431Q407 411 423.5 378.5Q440 346 440 301V0H310V43Q292 16 256.5 2Q221 -12 182 -12Q146 -12 116.5 0Q87 12 66 32Q45 52 33.5 78Q22 104 22 132Q22 198 66.5 235.5Q111 273 188 273H278Q310 273 310 300ZM171 700 318 700L420 527H284L244 604L206 527H70Z" glyph-name="acircumflex" horiz-adv-x="491" unicode="â" /><glyph d="M221 83Q256 83 283 102Q310 121 310 164V197Q304 191 294 189Q284 187 270 187H221Q190 187 173 174Q156 161 156 137Q156 114 173.5 98.5Q191 83 221 83ZM310 305Q310 330 291 344.5Q272 359 234 359Q199 359 160.5 345Q122 331 96 316L45 414Q70 430 101 442Q130 453 164.5 461.5Q199 470 241 470Q280 470 316 460.5Q352 451 379.5 431Q407 411 423.5 378.5Q440 346 440 301V0H310V43Q292 16 256.5 2Q221 -12 182 -12Q146 -12 116.5 0Q87 12 66 32Q45 52 33.5 78Q22 104 22 132Q22 198 66.5 235.5Q111 273 188 273H278Q310 273 310 300ZM73 523Q73 537 75 561Q77 585 87 608Q97 631 118.5 648Q140 665 179 665Q197 665 214.5 659Q232 653 247 646Q262 639 274 633Q286 627 293 627Q315 627 315 656V662H416V655Q416 641 414 617.5Q412 594 402 571Q392 548 370.5 531Q349 514 310 514Q292 514 274.5 520Q257 526 242 533Q227 540 215 546Q203 552 196 552Q174 552 174 523V516H73Z" glyph-name="atilde" horiz-adv-x="491" unicode="ã" /><glyph d="M221 83Q256 83 283 102Q310 121 310 164V197Q304 191 294 189Q284 187 270 187H221Q190 187 173 174Q156 161 156 137Q156 114 173.5 98.5Q191 83 221 83ZM310 305Q310 330 291 344.5Q272 359 234 359Q199 359 160.5 345Q122 331 96 316L45 414Q70 430 101 442Q130 453 164.5 461.5Q199 470 241 470Q280 470 316 460.5Q352 451 379.5 431Q407 411 423.5 378.5Q440 346 440 301V0H310V43Q292 16 256.5 2Q221 -12 182 -12Q146 -12 116.5 0Q87 12 66 32Q45 52 33.5 78Q22 104 22 132Q22 198 66.5 235.5Q111 273 188 273H278Q310 273 310 300ZM71 584Q71 616 94 639Q117 662 149 662Q181 662 204.5 639Q228 616 228 584Q228 552 204.5 529Q181 506 149 506Q117 506 94 529Q71 552 71 584ZM262 584Q262 616 285 639Q308 662 340 662Q372 662 395.5 639Q419 616 419 584Q419 552 395.5 529Q372 506 340 506Q308 506 285 529Q262 552 262 584Z" glyph-name="adieresis" horiz-adv-x="491" unicode="ä" /><glyph d="M221 83Q256 83 283 102Q310 121 310 164V197Q304 191 294 189Q284 187 270 187H221Q190 187 173 174Q156 161 156 137Q156 114 173.5 98.5Q191 83 221 83ZM310 305Q310 330 291 344.5Q272 359 234 359Q199 359 160.5 345Q122 331 96 316L45 414Q70 430 101 442Q130 453 164.5 461.5Q199 470 241 470Q280 470 316 460.5Q352 451 379.5 431Q407 411 423.5 378.5Q440 346 440 301V0H310V43Q292 16 256.5 2Q221 -12 182 -12Q146 -12 116.5 0Q87 12 66 32Q45 52 33.5 78Q22 104 22 132Q22 198 66.5 235.5Q111 273 188 273H278Q310 273 310 300ZM245 495Q219 495 196 504Q173 513 156 529.5Q139 546 129 568Q119 590 119 615Q119 642 129 664Q139 686 156 702Q173 718 196 727Q219 736 245 736Q271 736 294 727Q317 718 334 702Q351 686 361 664Q371 642 371 615Q371 590 361 568Q351 546 334 529.5Q317 513 294 504Q271 495 245 495ZM245 565Q265 565 279 579.5Q293 594 293 615Q293 637 279 651.5Q265 666 245 666Q225 666 211 651.5Q197 637 197 615Q197 594 211 579.5Q225 565 245 565Z" glyph-name="aring" horiz-adv-x="491" unicode="å" /><glyph d="M545 362Q506 362 479.5 338.5Q453 315 445 278H643Q638 314 611.5 338Q585 362 545 362ZM223 82Q261 82 285.5 106Q310 130 310 176V204Q305 196 294.5 193.5Q284 191 273 191H220Q189 191 172 177Q155 163 155 139Q155 114 174 98Q193 82 223 82ZM231 360Q196 360 158.5 345.5Q121 331 95 314L44 412Q75 436 126 453Q177 470 241 470Q292 470 331 455Q370 440 393 415Q422 441 460.5 455.5Q499 470 546 470Q592 470 634 454.5Q676 439 708.5 406Q741 373 760.5 321Q780 269 780 196V191H448Q452 153 481 126Q510 99 550 99Q577 99 601 111Q625 123 638 146L771 132Q741 58 682 23Q623 -12 548 -12Q485 -12 440 12Q395 36 369 71Q362 56 348.5 41.5Q335 27 315.5 15Q296 3 269 -4.5Q242 -12 207 -12Q165 -12 130.5 0Q96 12 72 32Q48 52 35 78.5Q22 105 22 135Q22 203 66.5 240.5Q111 278 187 278H279Q296 278 303.5 286Q311 294 311 308V310Q311 334 290 347Q269 360 231 360Z" glyph-name="ae" horiz-adv-x="801" unicode="æ" /><glyph d="M187 2Q152 14 123 35.5Q94 57 73 86.5Q52 116 40 152Q28 188 28 229Q28 282 47 326Q66 370 99 402Q132 434 176.5 452Q221 470 272 470Q311 470 346.5 459.5Q382 449 411.5 429.5Q441 410 463 382.5Q485 355 496 321L374 284Q361 316 335 335Q309 354 273 354Q222 354 190 318.5Q158 283 158 229Q158 175 190 139.5Q222 104 273 104Q309 104 335 123Q361 142 374 174L496 136Q478 81 434 44.5Q390 8 331 -5L248 -174H115Z" glyph-name="ccedilla" horiz-adv-x="518" unicode="ç" /><glyph d="M505 191 164 191Q169 153 197 126Q225 99 269 99Q298 99 322.5 111Q347 123 361 146L496 132Q465 58 404.5 23Q344 -12 267 -12Q216 -12 172 6Q128 24 95.5 56Q63 88 45 132.5Q27 177 27 229Q27 282 45 326Q63 370 94.5 402Q126 434 170 452Q214 470 265 470Q312 470 355.5 454Q399 438 432 405Q465 372 485 320Q505 268 505 196ZM265 362Q223 362 196 338.5Q169 315 161 278H366Q361 313 334 337.5Q307 362 265 362ZM331 527 207 527L115 700H281Z" glyph-name="egrave" horiz-adv-x="526" unicode="è" /><glyph d="M505 191 164 191Q169 153 197 126Q225 99 269 99Q298 99 322.5 111Q347 123 361 146L496 132Q465 58 404.5 23Q344 -12 267 -12Q216 -12 172 6Q128 24 95.5 56Q63 88 45 132.5Q27 177 27 229Q27 282 45 326Q63 370 94.5 402Q126 434 170 452Q214 470 265 470Q312 470 355.5 454Q399 438 432 405Q465 372 485 320Q505 268 505 196ZM265 362Q223 362 196 338.5Q169 315 161 278H366Q361 313 334 337.5Q307 362 265 362ZM259 700 425 700L333 527H209Z" glyph-name="eacute" horiz-adv-x="526" unicode="é" /><glyph d="M505 191 164 191Q169 153 197 126Q225 99 269 99Q298 99 322.5 111Q347 123 361 146L496 132Q465 58 404.5 23Q344 -12 267 -12Q216 -12 172 6Q128 24 95.5 56Q63 88 45 132.5Q27 177 27 229Q27 282 45 326Q63 370 94.5 402Q126 434 170 452Q214 470 265 470Q312 470 355.5 454Q399 438 432 405Q465 372 485 320Q505 268 505 196ZM265 362Q223 362 196 338.5Q169 315 161 278H366Q361 313 334 337.5Q307 362 265 362ZM189 700 336 700L438 527H302L262 604L224 527H88Z" glyph-name="ecircumflex" horiz-adv-x="526" unicode="ê" /><glyph d="M505 191 164 191Q169 153 197 126Q225 99 269 99Q298 99 322.5 111Q347 123 361 146L496 132Q465 58 404.5 23Q344 -12 267 -12Q216 -12 172 6Q128 24 95.5 56Q63 88 45 132.5Q27 177 27 229Q27 282 45 326Q63 370 94.5 402Q126 434 170 452Q214 470 265 470Q312 470 355.5 454Q399 438 432 405Q465 372 485 320Q505 268 505 196ZM265 362Q223 362 196 338.5Q169 315 161 278H366Q361 313 334 337.5Q307 362 265 362ZM89 584Q89 616 112 639Q135 662 167 662Q199 662 222.5 639Q246 616 246 584Q246 552 222.5 529Q199 506 167 506Q135 506 112 529Q89 552 89 584ZM280 584Q280 616 303 639Q326 662 358 662Q390 662 413.5 639Q437 616 437 584Q437 552 413.5 529Q390 506 358 506Q326 506 303 529Q280 552 280 584Z" glyph-name="edieresis" horiz-adv-x="526" unicode="ë" /><glyph d="M213 0 83 0V348H19V458H213ZM197 527 73 527L-19 700H147Z" glyph-name="igrave" horiz-adv-x="269" unicode="ì" /><glyph d="M213 0 83 0V348H19V458H213ZM132 700 298 700L206 527H82Z" glyph-name="iacute" horiz-adv-x="269" unicode="í" /><glyph d="M213 0 83 0V348H19V458H213ZM59 700 206 700L308 527H172L132 604L94 527H-42Z" glyph-name="icircumflex" horiz-adv-x="269" unicode="î" /><glyph d="M213 0 83 0V348H19V458H213ZM-41 584Q-41 616 -18 639Q5 662 37 662Q69 662 92.5 639Q116 616 116 584Q116 552 92.5 529Q69 506 37 506Q5 506 -18 529Q-41 552 -41 584ZM150 584Q150 616 173 639Q196 662 228 662Q260 662 283.5 639Q307 616 307 584Q307 552 283.5 529Q260 506 228 506Q196 506 173 529Q150 552 150 584Z" glyph-name="idieresis" horiz-adv-x="269" unicode="ï" /><glyph d="M286 700Q294 692 303.5 683.5Q313 675 324 664L391 705L426 648L371 614Q398 583 425.5 544Q453 505 474.5 459.5Q496 414 509.5 363Q523 312 523 256Q523 204 506.5 155.5Q490 107 458 70Q426 33 379.5 10.5Q333 -12 273 -12Q222 -12 177 6Q132 24 98.5 55.5Q65 87 46 131.5Q27 176 27 228Q27 280 44 323.5Q61 367 91 398.5Q121 430 162 447.5Q203 465 251 465Q281 465 308.5 455.5Q336 446 353 427L358 432Q340 461 316 490.5Q292 520 265 549L197 507L163 567L217 600Q182 634 153.5 660Q125 686 111 700ZM274 350Q225 350 193.5 316Q162 282 162 229Q162 177 193.5 142Q225 107 274 107Q324 107 355 142Q386 177 386 229Q386 282 355 316Q324 350 274 350Z" glyph-name="eth" horiz-adv-x="553" unicode="ð" /><glyph d="M181 404Q207 436 244 453Q281 470 321 470Q358 470 389.5 458.5Q421 447 443.5 425Q466 403 478.5 371.5Q491 340 491 300V0H361V267Q361 311 337.5 330Q314 349 283 349Q254 349 229.5 334.5Q205 320 186 297V0H56V458H183V440Q183 434 182.5 427.5Q182 421 182 416Q182 410 181 404ZM99 523Q99 537 101 561Q103 585 113 608Q123 631 144.5 648Q166 665 205 665Q223 665 240.5 659Q258 653 273 646Q288 639 300 633Q312 627 319 627Q341 627 341 656V662H442V655Q442 641 440 617.5Q438 594 428 571Q418 548 396.5 531Q375 514 336 514Q318 514 300.5 520Q283 526 268 533Q253 540 241 546Q229 552 222 552Q200 552 200 523V516H99Z" glyph-name="ntilde" horiz-adv-x="542" unicode="ñ" /><glyph d="M272 -12Q221 -12 176.5 6Q132 24 98.5 56Q65 88 46 132.5Q27 177 27 229Q27 282 46 326Q65 370 98.5 402Q132 434 176.5 452Q221 470 272 470Q323 470 367.5 452Q412 434 445.5 402Q479 370 498 326Q517 282 517 229Q517 177 498 132.5Q479 88 445.5 56Q412 24 367.5 6Q323 -12 272 -12ZM272 354Q221 354 189 318.5Q157 283 157 229Q157 175 189 139.5Q221 104 272 104Q323 104 354.5 139.5Q386 175 386 229Q386 283 354.5 318.5Q323 354 272 354ZM332 527 208 527L116 700H282Z" glyph-name="ograve" horiz-adv-x="544" unicode="ò" /><glyph d="M272 -12Q221 -12 176.5 6Q132 24 98.5 56Q65 88 46 132.5Q27 177 27 229Q27 282 46 326Q65 370 98.5 402Q132 434 176.5 452Q221 470 272 470Q323 470 367.5 452Q412 434 445.5 402Q479 370 498 326Q517 282 517 229Q517 177 498 132.5Q479 88 445.5 56Q412 24 367.5 6Q323 -12 272 -12ZM272 354Q221 354 189 318.5Q157 283 157 229Q157 175 189 139.5Q221 104 272 104Q323 104 354.5 139.5Q386 175 386 229Q386 283 354.5 318.5Q323 354 272 354ZM263 700 429 700L337 527H213Z" glyph-name="oacute" horiz-adv-x="544" unicode="ó" /><glyph d="M272 -12Q221 -12 176.5 6Q132 24 98.5 56Q65 88 46 132.5Q27 177 27 229Q27 282 46 326Q65 370 98.5 402Q132 434 176.5 452Q221 470 272 470Q323 470 367.5 452Q412 434 445.5 402Q479 370 498 326Q517 282 517 229Q517 177 498 132.5Q479 88 445.5 56Q412 24 367.5 6Q323 -12 272 -12ZM272 354Q221 354 189 318.5Q157 283 157 229Q157 175 189 139.5Q221 104 272 104Q323 104 354.5 139.5Q386 175 386 229Q386 283 354.5 318.5Q323 354 272 354ZM198 700 345 700L447 527H311L271 604L233 527H97Z" glyph-name="ocircumflex" horiz-adv-x="544" unicode="ô" /><glyph d="M272 -12Q221 -12 176.5 6Q132 24 98.5 56Q65 88 46 132.5Q27 177 27 229Q27 282 46 326Q65 370 98.5 402Q132 434 176.5 452Q221 470 272 470Q323 470 367.5 452Q412 434 445.5 402Q479 370 498 326Q517 282 517 229Q517 177 498 132.5Q479 88 445.5 56Q412 24 367.5 6Q323 -12 272 -12ZM272 354Q221 354 189 318.5Q157 283 157 229Q157 175 189 139.5Q221 104 272 104Q323 104 354.5 139.5Q386 175 386 229Q386 283 354.5 318.5Q323 354 272 354ZM100 523Q100 537 102 561Q104 585 114 608Q124 631 145.5 648Q167 665 206 665Q224 665 241.5 659Q259 653 274 646Q289 639 301 633Q313 627 320 627Q342 627 342 656V662H443V655Q443 641 441 617.5Q439 594 429 571Q419 548 397.5 531Q376 514 337 514Q319 514 301.5 520Q284 526 269 533Q254 540 242 546Q230 552 223 552Q201 552 201 523V516H100Z" glyph-name="otilde" horiz-adv-x="544" unicode="õ" /><glyph d="M272 -12Q221 -12 176.5 6Q132 24 98.5 56Q65 88 46 132.5Q27 177 27 229Q27 282 46 326Q65 370 98.5 402Q132 434 176.5 452Q221 470 272 470Q323 470 367.5 452Q412 434 445.5 402Q479 370 498 326Q517 282 517 229Q517 177 498 132.5Q479 88 445.5 56Q412 24 367.5 6Q323 -12 272 -12ZM272 354Q221 354 189 318.5Q157 283 157 229Q157 175 189 139.5Q221 104 272 104Q323 104 354.5 139.5Q386 175 386 229Q386 283 354.5 318.5Q323 354 272 354ZM98 584Q98 616 121 639Q144 662 176 662Q208 662 231.5 639Q255 616 255 584Q255 552 231.5 529Q208 506 176 506Q144 506 121 529Q98 552 98 584ZM289 584Q289 616 312 639Q335 662 367 662Q399 662 422.5 639Q446 616 446 584Q446 552 422.5 529Q399 506 367 506Q335 506 312 529Q289 552 289 584Z" glyph-name="odieresis" horiz-adv-x="544" unicode="ö" /><glyph d="M173 178Q173 215 198.5 240Q224 265 260 265Q296 265 321.5 240Q347 215 347 178Q347 142 321.5 116.5Q296 91 260 91Q224 91 198.5 116.5Q173 142 173 178ZM173 535Q173 572 198.5 597.5Q224 623 260 623Q296 623 321.5 597.5Q347 572 347 535Q347 499 321.5 473.5Q296 448 260 448Q224 448 198.5 473.5Q173 499 173 535ZM483 297 36 297V416H483Z" glyph-name="divide" horiz-adv-x="520" unicode="÷" /><glyph d="M272 -12Q237 -12 206 -3.5Q175 5 148 19L121 -13H25L89 65Q60 97 43.5 138.5Q27 180 27 229Q27 282 46 326Q65 370 98.5 402Q132 434 176.5 452Q221 470 272 470Q306 470 337 461.5Q368 453 396 438L422 470H518L454 392Q483 360 500 319Q517 278 517 229Q517 177 498 132.5Q479 88 445.5 56Q412 24 367.5 6Q323 -12 272 -12ZM272 354Q221 354 189 318.5Q157 283 157 229Q157 195 171 165L318 344Q307 349 296 351.5Q285 354 272 354ZM386 229Q386 264 372 292L225 113Q246 104 272 104Q323 104 354.5 139.5Q386 175 386 229Z" glyph-name="oslash" horiz-adv-x="544" unicode="ø" /><glyph d="M267 -12Q215 -12 174 2.5Q133 17 105.5 42Q78 67 63.5 99.5Q49 132 49 168V458H179V192Q179 144 205.5 124Q232 104 267 104Q302 104 328.5 124Q355 144 355 192V458H484V168Q484 132 470 99.5Q456 67 428.5 42Q401 17 360.5 2.5Q320 -12 267 -12ZM330 527 206 527L114 700H280Z" glyph-name="ugrave" horiz-adv-x="533" unicode="ù" /><glyph d="M267 -12Q215 -12 174 2.5Q133 17 105.5 42Q78 67 63.5 99.5Q49 132 49 168V458H179V192Q179 144 205.5 124Q232 104 267 104Q302 104 328.5 124Q355 144 355 192V458H484V168Q484 132 470 99.5Q456 67 428.5 42Q401 17 360.5 2.5Q320 -12 267 -12ZM242 700 408 700L316 527H192Z" glyph-name="uacute" horiz-adv-x="533" unicode="ú" /><glyph d="M267 -12Q215 -12 174 2.5Q133 17 105.5 42Q78 67 63.5 99.5Q49 132 49 168V458H179V192Q179 144 205.5 124Q232 104 267 104Q302 104 328.5 124Q355 144 355 192V458H484V168Q484 132 470 99.5Q456 67 428.5 42Q401 17 360.5 2.5Q320 -12 267 -12ZM192 700 339 700L441 527H305L265 604L227 527H91Z" glyph-name="ucircumflex" horiz-adv-x="533" unicode="û" /><glyph d="M267 -12Q215 -12 174 2.5Q133 17 105.5 42Q78 67 63.5 99.5Q49 132 49 168V458H179V192Q179 144 205.5 124Q232 104 267 104Q302 104 328.5 124Q355 144 355 192V458H484V168Q484 132 470 99.5Q456 67 428.5 42Q401 17 360.5 2.5Q320 -12 267 -12ZM92 584Q92 616 115 639Q138 662 170 662Q202 662 225.5 639Q249 616 249 584Q249 552 225.5 529Q202 506 170 506Q138 506 115 529Q92 552 92 584ZM283 584Q283 616 306 639Q329 662 361 662Q393 662 416.5 639Q440 616 440 584Q440 552 416.5 529Q393 506 361 506Q329 506 306 529Q283 552 283 584Z" glyph-name="udieresis" horiz-adv-x="533" unicode="ü" /><glyph d="M201 0 168 0L11 458H156L253 132L351 458H492L309 -72Q292 -123 260.5 -149Q229 -175 166 -175H76V-66H140Q160 -66 172 -58Q184 -50 191 -30ZM243 700 409 700L317 527H193Z" glyph-name="yacute" horiz-adv-x="502" unicode="ý" /><glyph d="M300 354Q274 354 252.5 344.5Q231 335 215.5 318Q200 301 191.5 278Q183 255 183 229Q183 203 191.5 180.5Q200 158 215.5 141Q231 124 252.5 114Q274 104 300 104Q326 104 347.5 114Q369 124 384.5 141Q400 158 408.5 180.5Q417 203 417 229Q417 255 408.5 278Q400 301 384.5 318Q369 335 347.5 344.5Q326 354 300 354ZM186 -168 56 -168V700H186V459Q186 436 185 422.5Q184 409 184 399Q201 428 239 449Q277 470 329 470Q376 470 416.5 452Q457 434 487 402Q517 370 534 326Q551 282 551 229Q551 177 534 132.5Q517 88 487 56Q457 24 416 6Q375 -12 328 -12Q279 -12 241 8.5Q203 29 186 58Z" glyph-name="thorn" horiz-adv-x="579" unicode="þ" /><glyph d="M201 0 168 0L11 458H156L253 132L351 458H492L309 -72Q292 -123 260.5 -149Q229 -175 166 -175H76V-66H140Q160 -66 172 -58Q184 -50 191 -30ZM77 584Q77 616 100 639Q123 662 155 662Q187 662 210.5 639Q234 616 234 584Q234 552 210.5 529Q187 506 155 506Q123 506 100 529Q77 552 77 584ZM268 584Q268 616 291 639Q314 662 346 662Q378 662 401.5 639Q425 616 425 584Q425 552 401.5 529Q378 506 346 506Q314 506 291 529Q268 552 268 584Z" glyph-name="ydieresis" horiz-adv-x="502" unicode="ÿ" /><glyph d="M634 0 484 0L424 191H213L157 0H11L237 700H403ZM319 550 317 550L246 310H389ZM164 902 478 902V791H164Z" glyph-name="Amacron" horiz-adv-x="642" unicode="Ā" /><glyph d="M221 83Q256 83 283 102Q310 121 310 164V197Q304 191 294 189Q284 187 270 187H221Q190 187 173 174Q156 161 156 137Q156 114 173.5 98.5Q191 83 221 83ZM310 305Q310 330 291 344.5Q272 359 234 359Q199 359 160.5 345Q122 331 96 316L45 414Q70 430 101 442Q130 453 164.5 461.5Q199 470 241 470Q280 470 316 460.5Q352 451 379.5 431Q407 411 423.5 378.5Q440 346 440 301V0H310V43Q292 16 256.5 2Q221 -12 182 -12Q146 -12 116.5 0Q87 12 66 32Q45 52 33.5 78Q22 104 22 132Q22 198 66.5 235.5Q111 273 188 273H278Q310 273 310 300ZM88 643 402 643V532H88Z" glyph-name="amacron" horiz-adv-x="491" unicode="ā" /><glyph d="M634 0 484 0L424 191H213L157 0H11L237 700H403ZM319 550 317 550L246 310H389ZM361 923 466 923V872Q466 838 454.5 812.5Q443 787 423.5 770.5Q404 754 378 745.5Q352 737 322 737Q292 737 266 745.5Q240 754 220.5 770.5Q201 787 189.5 812.5Q178 838 178 872V923H282V871Q282 854 292 843Q302 832 322 832Q342 832 351.5 843Q361 854 361 871Z" glyph-name="Abreve" horiz-adv-x="642" unicode="Ă" /><glyph d="M221 83Q256 83 283 102Q310 121 310 164V197Q304 191 294 189Q284 187 270 187H221Q190 187 173 174Q156 161 156 137Q156 114 173.5 98.5Q191 83 221 83ZM310 305Q310 330 291 344.5Q272 359 234 359Q199 359 160.5 345Q122 331 96 316L45 414Q70 430 101 442Q130 453 164.5 461.5Q199 470 241 470Q280 470 316 460.5Q352 451 379.5 431Q407 411 423.5 378.5Q440 346 440 301V0H310V43Q292 16 256.5 2Q221 -12 182 -12Q146 -12 116.5 0Q87 12 66 32Q45 52 33.5 78Q22 104 22 132Q22 198 66.5 235.5Q111 273 188 273H278Q310 273 310 300ZM284 681 389 681V630Q389 596 377.5 570.5Q366 545 346.5 528.5Q327 512 301 503.5Q275 495 245 495Q215 495 189 503.5Q163 512 143.5 528.5Q124 545 112.5 570.5Q101 596 101 630V681H205V629Q205 612 215 601Q225 590 245 590Q265 590 274.5 601Q284 612 284 629Z" glyph-name="abreve" horiz-adv-x="491" unicode="ă" /><glyph d="M634 0 601 0Q581 -18 565.5 -41Q550 -64 550 -81Q550 -95 562.5 -104Q575 -113 592 -113Q611 -113 631 -108Q651 -103 665 -98L652 -175Q628 -185 603 -192Q578 -199 541 -199Q490 -199 458.5 -176.5Q427 -154 427 -110Q427 -73 456.5 -45Q486 -17 526 0H484L424 191H213L157 0H11L237 700H403ZM319 550 317 550L246 310H389Z" glyph-name="Aogonek" horiz-adv-x="642" unicode="Ą" /><glyph d="M310 305Q310 330 291 344.5Q272 359 234 359Q199 359 160.5 345Q122 331 96 316L45 414Q70 430 101 442Q130 453 164.5 461.5Q199 470 241 470Q280 470 316 460.5Q352 451 379.5 431Q407 411 423.5 378.5Q440 346 440 301V0H423Q403 -18 387.5 -41Q372 -64 372 -81Q372 -95 384.5 -104Q397 -113 414 -113Q433 -113 453 -108Q473 -103 487 -98L474 -175Q450 -185 425 -192Q400 -199 363 -199Q312 -199 280.5 -176.5Q249 -154 249 -110Q249 -73 278.5 -45Q308 -17 348 0H310V43Q292 16 256.5 2Q221 -12 182 -12Q146 -12 116.5 0Q87 12 66 32Q45 52 33.5 78Q22 104 22 132Q22 198 66.5 235.5Q111 273 188 273H278Q310 273 310 300ZM221 83Q256 83 283 102Q310 121 310 164V197Q304 191 294 189Q284 187 270 187H221Q190 187 173 174Q156 161 156 137Q156 114 173.5 98.5Q191 83 221 83Z" glyph-name="aogonek" horiz-adv-x="491" unicode="ą" /><glyph d="M177 350Q177 300 193 257Q209 214 237.5 182.5Q266 151 307 133.5Q348 116 397 116Q467 116 517 151Q567 186 587 249H740Q725 187 691.5 138.5Q658 90 612.5 56.5Q567 23 511.5 5.5Q456 -12 397 -12Q320 -12 253 15Q186 42 137 90Q88 138 60 204.5Q32 271 32 350Q32 429 60 495.5Q88 562 137 610Q186 658 253 685Q320 712 397 712Q456 712 511.5 694.5Q567 677 612.5 643.5Q658 610 691.5 561.5Q725 513 740 451H587Q567 514 517 549Q467 584 397 584Q348 584 307 566.5Q266 549 237.5 517.5Q209 486 193 443Q177 400 177 350ZM374 942 540 942L448 769H324Z" glyph-name="Cacute" horiz-adv-x="764" unicode="Ć" /><glyph d="M272 354Q221 354 189 318.5Q157 283 157 229Q157 175 189 139.5Q221 104 272 104Q308 104 334 123Q360 142 373 174L495 136Q484 102 462 74.5Q440 47 410.5 28Q381 9 345.5 -1.5Q310 -12 271 -12Q220 -12 175.5 6Q131 24 98 56Q65 88 46 132.5Q27 177 27 229Q27 282 46 326Q65 370 98 402Q131 434 175.5 452Q220 470 271 470Q310 470 345.5 459.5Q381 449 410.5 429.5Q440 410 462 382.5Q484 355 495 321L373 284Q360 316 334 335Q308 354 272 354ZM249 700 415 700L323 527H199Z" glyph-name="cacute" horiz-adv-x="516" unicode="ć" /><glyph d="M177 350Q177 300 193 257Q209 214 237.5 182.5Q266 151 307 133.5Q348 116 397 116Q467 116 517 151Q567 186 587 249H740Q725 187 691.5 138.5Q658 90 612.5 56.5Q567 23 511.5 5.5Q456 -12 397 -12Q320 -12 253 15Q186 42 137 90Q88 138 60 204.5Q32 271 32 350Q32 429 60 495.5Q88 562 137 610Q186 658 253 685Q320 712 397 712Q456 712 511.5 694.5Q567 677 612.5 643.5Q658 610 691.5 561.5Q725 513 740 451H587Q567 514 517 549Q467 584 397 584Q348 584 307 566.5Q266 549 237.5 517.5Q209 486 193 443Q177 400 177 350ZM308 942 455 942L557 769H421L381 846L343 769H207Z" glyph-name="Ccircumflex" horiz-adv-x="764" unicode="Ĉ" /><glyph d="M272 354Q221 354 189 318.5Q157 283 157 229Q157 175 189 139.5Q221 104 272 104Q308 104 334 123Q360 142 373 174L495 136Q484 102 462 74.5Q440 47 410.5 28Q381 9 345.5 -1.5Q310 -12 271 -12Q220 -12 175.5 6Q131 24 98 56Q65 88 46 132.5Q27 177 27 229Q27 282 46 326Q65 370 98 402Q131 434 175.5 452Q220 470 271 470Q310 470 345.5 459.5Q381 449 410.5 429.5Q440 410 462 382.5Q484 355 495 321L373 284Q360 316 334 335Q308 354 272 354ZM183 700 330 700L432 527H296L256 604L218 527H82Z" glyph-name="ccircumflex" horiz-adv-x="516" unicode="ĉ" /><glyph d="M177 350Q177 300 193 257Q209 214 237.5 182.5Q266 151 307 133.5Q348 116 397 116Q467 116 517 151Q567 186 587 249H740Q725 187 691.5 138.5Q658 90 612.5 56.5Q567 23 511.5 5.5Q456 -12 397 -12Q320 -12 253 15Q186 42 137 90Q88 138 60 204.5Q32 271 32 350Q32 429 60 495.5Q88 562 137 610Q186 658 253 685Q320 712 397 712Q456 712 511.5 694.5Q567 677 612.5 643.5Q658 610 691.5 561.5Q725 513 740 451H587Q567 514 517 549Q467 584 397 584Q348 584 307 566.5Q266 549 237.5 517.5Q209 486 193 443Q177 400 177 350ZM295 856Q295 893 320.5 918.5Q346 944 382 944Q419 944 444.5 918.5Q470 893 470 856Q470 820 444.5 794.5Q419 769 382 769Q346 769 320.5 794.5Q295 820 295 856Z" glyph-name="Cdotaccent" horiz-adv-x="764" unicode="Ċ" /><glyph d="M272 354Q221 354 189 318.5Q157 283 157 229Q157 175 189 139.5Q221 104 272 104Q308 104 334 123Q360 142 373 174L495 136Q484 102 462 74.5Q440 47 410.5 28Q381 9 345.5 -1.5Q310 -12 271 -12Q220 -12 175.5 6Q131 24 98 56Q65 88 46 132.5Q27 177 27 229Q27 282 46 326Q65 370 98 402Q131 434 175.5 452Q220 470 271 470Q310 470 345.5 459.5Q381 449 410.5 429.5Q440 410 462 382.5Q484 355 495 321L373 284Q360 316 334 335Q308 354 272 354ZM170 614Q170 651 195.5 676.5Q221 702 257 702Q294 702 319.5 676.5Q345 651 345 614Q345 578 319.5 552.5Q294 527 257 527Q221 527 195.5 552.5Q170 578 170 614Z" glyph-name="cdotaccent" horiz-adv-x="516" unicode="ċ" /><glyph d="M177 350Q177 300 193 257Q209 214 237.5 182.5Q266 151 307 133.5Q348 116 397 116Q467 116 517 151Q567 186 587 249H740Q725 187 691.5 138.5Q658 90 612.5 56.5Q567 23 511.5 5.5Q456 -12 397 -12Q320 -12 253 15Q186 42 137 90Q88 138 60 204.5Q32 271 32 350Q32 429 60 495.5Q88 562 137 610Q186 658 253 685Q320 712 397 712Q456 712 511.5 694.5Q567 677 612.5 643.5Q658 610 691.5 561.5Q725 513 740 451H587Q567 514 517 549Q467 584 397 584Q348 584 307 566.5Q266 549 237.5 517.5Q209 486 193 443Q177 400 177 350ZM207 942 343 942L381 865L421 942H557L455 769H308Z" glyph-name="Ccaron" horiz-adv-x="764" unicode="Č" /><glyph d="M272 354Q221 354 189 318.5Q157 283 157 229Q157 175 189 139.5Q221 104 272 104Q308 104 334 123Q360 142 373 174L495 136Q484 102 462 74.5Q440 47 410.5 28Q381 9 345.5 -1.5Q310 -12 271 -12Q220 -12 175.5 6Q131 24 98 56Q65 88 46 132.5Q27 177 27 229Q27 282 46 326Q65 370 98 402Q131 434 175.5 452Q220 470 271 470Q310 470 345.5 459.5Q381 449 410.5 429.5Q440 410 462 382.5Q484 355 495 321L373 284Q360 316 334 335Q308 354 272 354ZM82 700 218 700L256 623L296 700H432L330 527H183Z" glyph-name="ccaron" horiz-adv-x="516" unicode="č" /><glyph d="M676 350Q676 272 651.5 207.5Q627 143 580.5 97Q534 51 466.5 25.5Q399 0 313 0H73V700H313Q399 700 466.5 674.5Q534 649 580.5 603Q627 557 651.5 492.5Q676 428 676 350ZM534 350Q534 408 516.5 451.5Q499 495 469 523.5Q439 552 397.5 566.5Q356 581 308 581H212V118H308Q356 118 397.5 132Q439 146 469 175Q499 204 516.5 247.5Q534 291 534 350ZM180 942 316 942L354 865L394 942H530L428 769H281Z" glyph-name="Dcaron" horiz-adv-x="710" unicode="Ď" /><glyph d="M279 354Q227 354 194.5 318.5Q162 283 162 229Q162 203 170.5 180Q179 157 194.5 140Q210 123 231.5 113Q253 103 279 103Q305 103 326.5 113Q348 123 363.5 140Q379 157 387.5 180Q396 203 396 229Q396 283 363.5 318.5Q331 354 279 354ZM393 58Q376 29 338 8.5Q300 -12 250 -12Q203 -12 162.5 6Q122 24 92 56Q62 88 45 132.5Q28 177 28 229Q28 282 45 326Q62 370 91.5 402Q121 434 161.5 452Q202 470 249 470Q302 470 340 449Q378 428 395 399Q395 410 394 435Q393 460 393 486V700H523V0H393ZM575 636Q575 668 597.5 690Q620 712 652 712Q685 712 708 690Q731 668 731 636Q731 627 727 612Q723 597 718 589L660 483H568L608 574Q593 584 584 600Q575 616 575 636Z" glyph-name="dcaron" horiz-adv-x="579" unicode="ď" /><glyph d="M6 416 83 416V700H323Q409 700 476.5 674.5Q544 649 590.5 603Q637 557 661.5 492.5Q686 428 686 350Q686 272 661.5 207.5Q637 143 590.5 97Q544 51 476.5 25.5Q409 0 323 0H83V297H6ZM544 350Q544 408 526.5 451.5Q509 495 479 523.5Q449 552 407.5 566.5Q366 581 318 581H222V416H400V297H222V118H318Q366 118 407.5 132Q449 146 479 175Q509 204 526.5 247.5Q544 291 544 350Z" glyph-name="Dcroat" horiz-adv-x="720" unicode="Đ" /><glyph d="M263 646 393 646V700H523V646H580V536H523V0H393V58Q376 29 338 8.5Q300 -12 250 -12Q203 -12 162.5 6Q122 24 92 56Q62 88 45 132.5Q28 177 28 229Q28 282 45 326Q62 370 91.5 402Q121 434 161.5 452Q202 470 249 470Q302 470 340 449Q378 428 395 399Q395 410 394 435Q393 460 393 486V536H263ZM279 354Q227 354 194.5 318.5Q162 283 162 229Q162 203 170.5 180Q179 157 194.5 140Q210 123 231.5 113Q253 103 279 103Q305 103 326.5 113Q348 123 363.5 140Q379 157 387.5 180Q396 203 396 229Q396 283 363.5 318.5Q331 354 279 354Z" glyph-name="dcroat" horiz-adv-x="579" unicode="đ" /><glyph d="M594 580 212 580V416H435V297H212V119H594V0H73V700H594ZM181 885 495 885V774H181Z" glyph-name="Emacron" horiz-adv-x="629" unicode="Ē" /><glyph d="M505 191 164 191Q169 153 197 126Q225 99 269 99Q298 99 322.5 111Q347 123 361 146L496 132Q465 58 404.5 23Q344 -12 267 -12Q216 -12 172 6Q128 24 95.5 56Q63 88 45 132.5Q27 177 27 229Q27 282 45 326Q63 370 94.5 402Q126 434 170 452Q214 470 265 470Q312 470 355.5 454Q399 438 432 405Q465 372 485 320Q505 268 505 196ZM265 362Q223 362 196 338.5Q169 315 161 278H366Q361 313 334 337.5Q307 362 265 362ZM106 643 420 643V532H106Z" glyph-name="emacron" horiz-adv-x="526" unicode="ē" /><glyph d="M594 580 212 580V416H435V297H212V119H594V0H73V700H594ZM353 923 458 923V872Q458 838 446.5 812.5Q435 787 415.5 770.5Q396 754 370 745.5Q344 737 314 737Q284 737 258 745.5Q232 754 212.5 770.5Q193 787 181.5 812.5Q170 838 170 872V923H274V871Q274 854 284 843Q294 832 314 832Q334 832 343.5 843Q353 854 353 871Z" glyph-name="Ebreve" horiz-adv-x="629" unicode="Ĕ" /><glyph d="M505 191 164 191Q169 153 197 126Q225 99 269 99Q298 99 322.5 111Q347 123 361 146L496 132Q465 58 404.5 23Q344 -12 267 -12Q216 -12 172 6Q128 24 95.5 56Q63 88 45 132.5Q27 177 27 229Q27 282 45 326Q63 370 94.5 402Q126 434 170 452Q214 470 265 470Q312 470 355.5 454Q399 438 432 405Q465 372 485 320Q505 268 505 196ZM265 362Q223 362 196 338.5Q169 315 161 278H366Q361 313 334 337.5Q307 362 265 362ZM302 681 407 681V630Q407 596 395.5 570.5Q384 545 364.5 528.5Q345 512 319 503.5Q293 495 263 495Q233 495 207 503.5Q181 512 161.5 528.5Q142 545 130.5 570.5Q119 596 119 630V681H223V629Q223 612 233 601Q243 590 263 590Q283 590 292.5 601Q302 612 302 629Z" glyph-name="ebreve" horiz-adv-x="526" unicode="ĕ" /><glyph d="M594 580 212 580V416H435V297H212V119H594V0H73V700H594ZM244 856Q244 893 269.5 918.5Q295 944 331 944Q368 944 393.5 918.5Q419 893 419 856Q419 820 393.5 794.5Q368 769 331 769Q295 769 269.5 794.5Q244 820 244 856Z" glyph-name="Edotaccent" horiz-adv-x="629" unicode="Ė" /><glyph d="M505 191 164 191Q169 153 197 126Q225 99 269 99Q298 99 322.5 111Q347 123 361 146L496 132Q465 58 404.5 23Q344 -12 267 -12Q216 -12 172 6Q128 24 95.5 56Q63 88 45 132.5Q27 177 27 229Q27 282 45 326Q63 370 94.5 402Q126 434 170 452Q214 470 265 470Q312 470 355.5 454Q399 438 432 405Q465 372 485 320Q505 268 505 196ZM265 362Q223 362 196 338.5Q169 315 161 278H366Q361 313 334 337.5Q307 362 265 362ZM175 614Q175 651 200.5 676.5Q226 702 262 702Q299 702 324.5 676.5Q350 651 350 614Q350 578 324.5 552.5Q299 527 262 527Q226 527 200.5 552.5Q175 578 175 614Z" glyph-name="edotaccent" horiz-adv-x="526" unicode="ė" /><glyph d="M594 580 212 580V416H435V297H212V119H594V0H530Q510 -18 494.5 -41Q479 -64 479 -81Q479 -95 491.5 -104Q504 -113 521 -113Q540 -113 560 -108Q580 -103 594 -98L581 -175Q557 -185 532 -192Q507 -199 470 -199Q419 -199 387.5 -176.5Q356 -154 356 -110Q356 -73 385.5 -45Q415 -17 455 0H73V700H594Z" glyph-name="Eogonek" horiz-adv-x="629" unicode="Ę" /><glyph d="M506 191 165 191Q170 153 198 126Q226 99 270 99Q299 99 323.5 111Q348 123 362 146L497 132Q471 69 422 34Q373 -1 310 -9Q293 -26 281 -46.5Q269 -67 269 -81Q269 -95 281.5 -104Q294 -113 311 -113Q330 -113 350 -108Q370 -103 384 -98L371 -175Q347 -185 322 -192Q297 -199 260 -199Q209 -199 177.5 -176.5Q146 -154 146 -110Q146 -78 169.5 -52Q193 -26 227 -9Q184 -2 147 18Q110 38 84 69.5Q58 101 43 141.5Q28 182 28 229Q28 282 46 326Q64 370 95.5 402Q127 434 171 452Q215 470 266 470Q313 470 356.5 454Q400 438 433 405Q466 372 486 320Q506 268 506 196ZM266 362Q224 362 197 338.5Q170 315 162 278H367Q362 313 335 337.5Q308 362 266 362Z" glyph-name="eogonek" horiz-adv-x="528" unicode="ę" /><glyph d="M594 580 212 580V416H435V297H212V119H594V0H73V700H594ZM139 942 275 942L313 865L353 942H489L387 769H240Z" glyph-name="Ecaron" horiz-adv-x="629" unicode="Ě" /><glyph d="M505 191 164 191Q169 153 197 126Q225 99 269 99Q298 99 322.5 111Q347 123 361 146L496 132Q465 58 404.5 23Q344 -12 267 -12Q216 -12 172 6Q128 24 95.5 56Q63 88 45 132.5Q27 177 27 229Q27 282 45 326Q63 370 94.5 402Q126 434 170 452Q214 470 265 470Q312 470 355.5 454Q399 438 432 405Q465 372 485 320Q505 268 505 196ZM265 362Q223 362 196 338.5Q169 315 161 278H366Q361 313 334 337.5Q307 362 265 362ZM88 700 224 700L262 623L302 700H438L336 527H189Z" glyph-name="ecaron" horiz-adv-x="526" unicode="ě" /><glyph d="M387 -12Q312 -12 247 15Q182 42 134 90Q86 138 59 204.5Q32 271 32 350Q32 429 60.5 495.5Q89 562 138.5 610Q188 658 255.5 685Q323 712 400 712Q459 712 514.5 694.5Q570 677 615.5 643.5Q661 610 694.5 561.5Q728 513 743 451H590Q570 514 520 549Q470 584 400 584Q351 584 309.5 566.5Q268 549 239 517.5Q210 486 193.5 443Q177 400 177 350Q177 295 194 251.5Q211 208 241 178Q271 148 311.5 132Q352 116 399 116Q436 116 466.5 126Q497 136 520 152.5Q543 169 559 190Q575 211 582 233H429V347H726V0H613V97Q603 82 583 63Q563 44 534.5 27.5Q506 11 469 -0.5Q432 -12 387 -12ZM314 942 461 942L563 769H427L387 846L349 769H213Z" glyph-name="Gcircumflex" horiz-adv-x="779" unicode="Ĝ" /><glyph d="M520 458 520 -34Q520 -61 512.5 -86.5Q505 -112 488 -131.5Q471 -151 443 -163Q415 -175 373 -175H174V-65H341Q358 -65 374 -57.5Q390 -50 390 -24V64Q373 36 335 15.5Q297 -5 248 -5Q202 -5 161.5 12Q121 29 91.5 60Q62 91 45 134.5Q28 178 28 232Q28 286 45 330Q62 374 91 405Q120 436 160.5 453Q201 470 247 470Q299 470 337 449Q375 428 392 399Q392 403 391 411Q390 419 390 437V458ZM162 232Q162 176 194 141.5Q226 107 277 107Q329 107 361 141.5Q393 176 393 232Q393 289 361 323.5Q329 358 277 358Q226 358 194 323.5Q162 289 162 232ZM214 700 361 700L463 527H327L287 604L249 527H113Z" glyph-name="gcircumflex" horiz-adv-x="576" unicode="ĝ" /><glyph d="M387 -12Q312 -12 247 15Q182 42 134 90Q86 138 59 204.5Q32 271 32 350Q32 429 60.5 495.5Q89 562 138.5 610Q188 658 255.5 685Q323 712 400 712Q459 712 514.5 694.5Q570 677 615.5 643.5Q661 610 694.5 561.5Q728 513 743 451H590Q570 514 520 549Q470 584 400 584Q351 584 309.5 566.5Q268 549 239 517.5Q210 486 193.5 443Q177 400 177 350Q177 295 194 251.5Q211 208 241 178Q271 148 311.5 132Q352 116 399 116Q436 116 466.5 126Q497 136 520 152.5Q543 169 559 190Q575 211 582 233H429V347H726V0H613V97Q603 82 583 63Q563 44 534.5 27.5Q506 11 469 -0.5Q432 -12 387 -12ZM427 923 532 923V872Q532 838 520.5 812.5Q509 787 489.5 770.5Q470 754 444 745.5Q418 737 388 737Q358 737 332 745.5Q306 754 286.5 770.5Q267 787 255.5 812.5Q244 838 244 872V923H348V871Q348 854 358 843Q368 832 388 832Q408 832 417.5 843Q427 854 427 871Z" glyph-name="Gbreve" horiz-adv-x="779" unicode="Ğ" /><glyph d="M520 458 520 -34Q520 -61 512.5 -86.5Q505 -112 488 -131.5Q471 -151 443 -163Q415 -175 373 -175H174V-65H341Q358 -65 374 -57.5Q390 -50 390 -24V64Q373 36 335 15.5Q297 -5 248 -5Q202 -5 161.5 12Q121 29 91.5 60Q62 91 45 134.5Q28 178 28 232Q28 286 45 330Q62 374 91 405Q120 436 160.5 453Q201 470 247 470Q299 470 337 449Q375 428 392 399Q392 403 391 411Q390 419 390 437V458ZM162 232Q162 176 194 141.5Q226 107 277 107Q329 107 361 141.5Q393 176 393 232Q393 289 361 323.5Q329 358 277 358Q226 358 194 323.5Q162 289 162 232ZM327 681 432 681V630Q432 596 420.5 570.5Q409 545 389.5 528.5Q370 512 344 503.5Q318 495 288 495Q258 495 232 503.5Q206 512 186.5 528.5Q167 545 155.5 570.5Q144 596 144 630V681H248V629Q248 612 258 601Q268 590 288 590Q308 590 317.5 601Q327 612 327 629Z" glyph-name="gbreve" horiz-adv-x="576" unicode="ğ" /><glyph d="M387 -12Q312 -12 247 15Q182 42 134 90Q86 138 59 204.5Q32 271 32 350Q32 429 60.5 495.5Q89 562 138.5 610Q188 658 255.5 685Q323 712 400 712Q459 712 514.5 694.5Q570 677 615.5 643.5Q661 610 694.5 561.5Q728 513 743 451H590Q570 514 520 549Q470 584 400 584Q351 584 309.5 566.5Q268 549 239 517.5Q210 486 193.5 443Q177 400 177 350Q177 295 194 251.5Q211 208 241 178Q271 148 311.5 132Q352 116 399 116Q436 116 466.5 126Q497 136 520 152.5Q543 169 559 190Q575 211 582 233H429V347H726V0H613V97Q603 82 583 63Q563 44 534.5 27.5Q506 11 469 -0.5Q432 -12 387 -12ZM300 856Q300 893 325.5 918.5Q351 944 387 944Q424 944 449.5 918.5Q475 893 475 856Q475 820 449.5 794.5Q424 769 387 769Q351 769 325.5 794.5Q300 820 300 856Z" glyph-name="Gdotaccent" horiz-adv-x="779" unicode="Ġ" /><glyph d="M520 458 520 -34Q520 -61 512.5 -86.5Q505 -112 488 -131.5Q471 -151 443 -163Q415 -175 373 -175H174V-65H341Q358 -65 374 -57.5Q390 -50 390 -24V64Q373 36 335 15.5Q297 -5 248 -5Q202 -5 161.5 12Q121 29 91.5 60Q62 91 45 134.5Q28 178 28 232Q28 286 45 330Q62 374 91 405Q120 436 160.5 453Q201 470 247 470Q299 470 337 449Q375 428 392 399Q392 403 391 411Q390 419 390 437V458ZM162 232Q162 176 194 141.5Q226 107 277 107Q329 107 361 141.5Q393 176 393 232Q393 289 361 323.5Q329 358 277 358Q226 358 194 323.5Q162 289 162 232ZM200 614Q200 651 225.5 676.5Q251 702 287 702Q324 702 349.5 676.5Q375 651 375 614Q375 578 349.5 552.5Q324 527 287 527Q251 527 225.5 552.5Q200 578 200 614Z" glyph-name="gdotaccent" horiz-adv-x="576" unicode="ġ" /><glyph d="M387 -12Q312 -12 247 15Q182 42 134 90Q86 138 59 204.5Q32 271 32 350Q32 429 60.5 495.5Q89 562 138.5 610Q188 658 255.5 685Q323 712 400 712Q459 712 514.5 694.5Q570 677 615.5 643.5Q661 610 694.5 561.5Q728 513 743 451H590Q570 514 520 549Q470 584 400 584Q351 584 309.5 566.5Q268 549 239 517.5Q210 486 193.5 443Q177 400 177 350Q177 295 194 251.5Q211 208 241 178Q271 148 311.5 132Q352 116 399 116Q436 116 466.5 126Q497 136 520 152.5Q543 169 559 190Q575 211 582 233H429V347H726V0H613V97Q603 82 583 63Q563 44 534.5 27.5Q506 11 469 -0.5Q432 -12 387 -12ZM322 -117Q322 -85 344.5 -63Q367 -41 399 -41Q432 -41 455 -63Q478 -85 478 -117Q478 -126 474 -141Q470 -156 465 -164L407 -270H315L355 -179Q340 -169 331 -153Q322 -137 322 -117Z" glyph-name="Gcommaaccent" horiz-adv-x="779" unicode="Ģ" /><glyph d="M520 458 520 -34Q520 -61 512.5 -86.5Q505 -112 488 -131.5Q471 -151 443 -163Q415 -175 373 -175H174V-65H341Q358 -65 374 -57.5Q390 -50 390 -24V64Q373 36 335 15.5Q297 -5 248 -5Q202 -5 161.5 12Q121 29 91.5 60Q62 91 45 134.5Q28 178 28 232Q28 286 45 330Q62 374 91 405Q120 436 160.5 453Q201 470 247 470Q299 470 337 449Q375 428 392 399Q392 403 391 411Q390 419 390 437V458ZM162 232Q162 176 194 141.5Q226 107 277 107Q329 107 361 141.5Q393 176 393 232Q393 289 361 323.5Q329 358 277 358Q226 358 194 323.5Q162 289 162 232ZM357 593Q357 561 334.5 539Q312 517 280 517Q247 517 224 539Q201 561 201 593Q201 602 205 617Q209 632 214 640L272 746H364L324 655Q339 645 348 629Q357 613 357 593Z" glyph-name="gcommaaccent" horiz-adv-x="576" unicode="ģ" /><glyph d="M490 0 490 297H212V0H73V700H212V416H490V700H629V0ZM277 942 424 942L526 769H390L350 846L312 769H176Z" glyph-name="Hcircumflex" horiz-adv-x="702" unicode="Ĥ" /><glyph d="M182 404Q208 436 245 453Q282 470 321 470Q358 470 389.5 458.5Q421 447 443.5 425Q466 403 478.5 371.5Q491 340 491 300V0H361V267Q361 311 337.5 330Q314 349 283 349Q254 349 229.5 334.5Q205 320 186 297V0H56V700H184V440Q184 434 183.5 427.5Q183 421 183 416Q183 410 182 404ZM198 942 345 942L447 769H311L271 846L233 769H97Z" glyph-name="hcircumflex" horiz-adv-x="542" unicode="ĥ" /><glyph d="M9 616 82 616V700H221V616H499V700H638V616H711V497H638V0H499V297H221V0H82V497H9ZM499 416 499 497H221V416Z" glyph-name="Hbar" horiz-adv-x="720" unicode="Ħ" /><glyph d="M0 646 56 646V700H184V646H317V536H184V440Q184 434 183.5 427.5Q183 421 183 416Q183 410 182 404Q208 436 245 453Q282 470 321 470Q358 470 389.5 458.5Q421 447 443.5 425Q466 403 478.5 371.5Q491 340 491 300V0H361V267Q361 311 337.5 330Q314 349 283 349Q254 349 229.5 334.5Q205 320 186 297V0H56V536H0Z" glyph-name="hbar" horiz-adv-x="542" unicode="ħ" /><glyph d="M73 700 212 700V0H73ZM-29 765Q-29 779 -27 803Q-25 827 -15 850Q-5 873 16.5 890Q38 907 77 907Q95 907 112.5 901Q130 895 145 888Q160 881 172 875Q184 869 191 869Q213 869 213 898V904H314V897Q314 883 312 859.5Q310 836 300 813Q290 790 268.5 773Q247 756 208 756Q190 756 172.5 762Q155 768 140 775Q125 782 113 788Q101 794 94 794Q72 794 72 765V758H-29Z" glyph-name="Itilde" horiz-adv-x="285" unicode="Ĩ" /><glyph d="M213 0 83 0V348H19V458H213ZM-38 523Q-38 537 -36 561Q-34 585 -24 608Q-14 631 7.5 648Q29 665 68 665Q86 665 103.5 659Q121 653 136 646Q151 639 163 633Q175 627 182 627Q204 627 204 656V662H305V655Q305 641 303 617.5Q301 594 291 571Q281 548 259.5 531Q238 514 199 514Q181 514 163.5 520Q146 526 131 533Q116 540 104 546Q92 552 85 552Q63 552 63 523V516H-38Z" glyph-name="itilde" horiz-adv-x="269" unicode="ĩ" /><glyph d="M73 700 212 700V0H73ZM-14 885 300 885V774H-14Z" glyph-name="Imacron" horiz-adv-x="285" unicode="Ī" /><glyph d="M213 0 83 0V348H19V458H213ZM-24 643 290 643V532H-24Z" glyph-name="imacron" horiz-adv-x="269" unicode="ī" /><glyph d="M73 700 212 700V0H73ZM182 923 287 923V872Q287 838 275.5 812.5Q264 787 244.5 770.5Q225 754 199 745.5Q173 737 143 737Q113 737 87 745.5Q61 754 41.5 770.5Q22 787 10.5 812.5Q-1 838 -1 872V923H103V871Q103 854 113 843Q123 832 143 832Q163 832 172.5 843Q182 854 182 871Z" glyph-name="Ibreve" horiz-adv-x="285" unicode="Ĭ" /><glyph d="M213 0 83 0V348H19V458H213ZM172 681 277 681V630Q277 596 265.5 570.5Q254 545 234.5 528.5Q215 512 189 503.5Q163 495 133 495Q103 495 77 503.5Q51 512 31.5 528.5Q12 545 0.5 570.5Q-11 596 -11 630V681H93V629Q93 612 103 601Q113 590 133 590Q153 590 162.5 601Q172 612 172 629Z" glyph-name="ibreve" horiz-adv-x="269" unicode="ĭ" /><glyph d="M73 700 212 700V0H197Q177 -18 161.5 -41Q146 -64 146 -81Q146 -95 158.5 -104Q171 -113 188 -113Q207 -113 227 -108Q247 -103 261 -98L248 -175Q224 -185 199 -192Q174 -199 137 -199Q86 -199 54.5 -176.5Q23 -154 23 -110Q23 -73 52.5 -45Q82 -17 122 0H73Z" glyph-name="Iogonek" horiz-adv-x="285" unicode="Į" /><glyph d="M213 0 190 0Q170 -18 154.5 -41Q139 -64 139 -81Q139 -95 151.5 -104Q164 -113 181 -113Q200 -113 220 -108Q240 -103 254 -98L241 -175Q217 -185 192 -192Q167 -199 130 -199Q79 -199 47.5 -176.5Q16 -154 16 -110Q16 -73 45.5 -45Q75 -17 115 0H83V348H19V458H213ZM59 616Q59 651 83 675.5Q107 700 142 700Q177 700 201.5 675.5Q226 651 226 616Q226 581 201.5 557Q177 533 142 533Q107 533 83 557Q59 581 59 616Z" glyph-name="iogonek" horiz-adv-x="269" unicode="į" /><glyph d="M73 700 212 700V0H73ZM55 856Q55 893 80.5 918.5Q106 944 142 944Q179 944 204.5 918.5Q230 893 230 856Q230 820 204.5 794.5Q179 769 142 769Q106 769 80.5 794.5Q55 820 55 856Z" glyph-name="Idotaccent" horiz-adv-x="285" unicode="İ" /><glyph d="M213 0 83 0V348H19V458H213Z" glyph-name="dotlessi" horiz-adv-x="269" unicode="ı" /><glyph d="M73 700 212 700V0H73ZM446 299 446 245Q446 188 477 152Q508 116 570 116Q632 116 663 152Q694 188 694 245V700H833V232Q833 181 816 136.5Q799 92 765.5 59Q732 26 682.5 7Q633 -12 568 -12Q503 -12 454 7Q405 26 372.5 59Q340 92 323.5 136.5Q307 181 307 232V299Z" glyph-name="IJ" horiz-adv-x="900" unicode="Ĳ" /><glyph d="M213 0 83 0V348H19V458H213ZM59 616Q59 651 83 675.5Q107 700 142 700Q177 700 201.5 675.5Q226 651 226 616Q226 581 201.5 557Q177 533 142 533Q107 533 83 557Q59 581 59 616ZM352 348 288 348V458H482V-65Q482 -103 468.5 -125Q455 -147 434 -158Q413 -169 387 -172.5Q361 -176 337 -176H268V-66H313Q333 -66 342.5 -60Q352 -54 352 -37ZM328 616Q328 651 352 675.5Q376 700 411 700Q446 700 470.5 675.5Q495 651 495 616Q495 581 470.5 557Q446 533 411 533Q376 533 352 557Q328 581 328 616Z" glyph-name="ij" horiz-adv-x="538" unicode="ĳ" /><glyph d="M161 299 161 245Q161 188 192 152Q223 116 285 116Q347 116 378 152Q409 188 409 245V700H548V232Q548 181 531 136.5Q514 92 480.5 59Q447 26 397.5 7Q348 -12 283 -12Q218 -12 169 7Q120 26 87.5 59Q55 92 38.5 136.5Q22 181 22 232V299ZM215 942 362 942L464 769H328L288 846L250 769H114Z" glyph-name="Jcircumflex" horiz-adv-x="615" unicode="Ĵ" /><glyph d="M83 348 19 348V458H213V-65Q213 -103 199.5 -125Q186 -147 165 -158Q144 -169 118 -172.5Q92 -176 68 -176H-1V-66H44Q64 -66 73.5 -60Q83 -54 83 -37ZM59 700 206 700L308 527H172L132 604L94 527H-42Z" glyph-name="jcircumflex" horiz-adv-x="269" unicode="ĵ" /><glyph d="M212 424 248 424L473 700H645L366 368L634 0H462L244 306H212V0H73V700H212ZM252 -117Q252 -85 274.5 -63Q297 -41 329 -41Q362 -41 385 -63Q408 -85 408 -117Q408 -126 404 -141Q400 -156 395 -164L337 -270H245L285 -179Q270 -169 261 -153Q252 -137 252 -117Z" glyph-name="Kcommaaccent" horiz-adv-x="635" unicode="Ķ" /><glyph d="M185 299 216 299L342 458H499L322 248L504 0H348L216 189H185V0H56V700H185ZM188 -117Q188 -85 210.5 -63Q233 -41 265 -41Q298 -41 321 -63Q344 -85 344 -117Q344 -126 340 -141Q336 -156 331 -164L273 -270H181L221 -179Q206 -169 197 -153Q188 -137 188 -117Z" glyph-name="kcommaaccent" horiz-adv-x="507" unicode="ķ" /><glyph d="M185 289 226 289L358 458H509L332 238L514 0H353L226 179H185V0H56V458H185Z" glyph-name="kgreenlandic" horiz-adv-x="517" unicode="ĸ" /><glyph d="M73 0 73 700H212V119H509V0ZM226 942 392 942L300 769H176Z" glyph-name="Lacute" horiz-adv-x="521" unicode="Ĺ" /><glyph d="M185 0 56 0V700H185ZM113 942 279 942L187 769H63Z" glyph-name="lacute" horiz-adv-x="241" unicode="ĺ" /><glyph d="M73 0 73 700H212V119H509V0ZM194 -117Q194 -85 216.5 -63Q239 -41 271 -41Q304 -41 327 -63Q350 -85 350 -117Q350 -126 346 -141Q342 -156 337 -164L279 -270H187L227 -179Q212 -169 203 -153Q194 -137 194 -117Z" glyph-name="Lcommaaccent" horiz-adv-x="521" unicode="Ļ" /><glyph d="M185 0 56 0V700H185ZM55 -117Q55 -85 77.5 -63Q100 -41 132 -41Q165 -41 188 -63Q211 -85 211 -117Q211 -126 207 -141Q203 -156 198 -164L140 -270H48L88 -179Q73 -169 64 -153Q55 -137 55 -117Z" glyph-name="lcommaaccent" horiz-adv-x="241" unicode="ļ" /><glyph d="M73 0 73 700H212V119H509V0ZM323 636Q323 668 345.5 690Q368 712 400 712Q433 712 456 690Q479 668 479 636Q479 627 475 612Q471 597 466 589L408 483H316L356 574Q341 584 332 600Q323 616 323 636Z" glyph-name="Lcaron" horiz-adv-x="523" unicode="Ľ" /><glyph d="M185 0 56 0V700H185ZM239 636Q239 668 261.5 690Q284 712 316 712Q349 712 372 690Q395 668 395 636Q395 627 391 612Q387 597 382 589L324 483H232L272 574Q257 584 248 600Q239 616 239 636Z" glyph-name="lcaron" horiz-adv-x="241" unicode="ľ" /><glyph d="M73 0 73 700H212V119H509V0ZM309 355Q309 392 334.5 417.5Q360 443 396 443Q433 443 458.5 417.5Q484 392 484 355Q484 319 458.5 293.5Q433 268 396 268Q360 268 334.5 293.5Q309 319 309 355Z" glyph-name="Ldot" horiz-adv-x="522" unicode="Ŀ" /><glyph d="M185 0 56 0V700H185ZM245 362Q245 399 270.5 424.5Q296 450 332 450Q369 450 394.5 424.5Q420 399 420 362Q420 326 394.5 300.5Q369 275 332 275Q296 275 270.5 300.5Q245 326 245 362Z" glyph-name="ldot" horiz-adv-x="424" unicode="ŀ" /><glyph d="M28 327 77 344V700H216V394L396 459V363L216 298V119H513V0H77V248L28 231Z" glyph-name="Lslash" horiz-adv-x="525" unicode="Ł" /><glyph d="M193 414 249 450V349L193 314V0H64V233L12 201V301L64 333V700H193Z" glyph-name="lslash" horiz-adv-x="264" unicode="ł" /><glyph d="M210 0 73 0V700H256L492 234V700H629V0H460L210 486ZM342 941 508 941L416 768H292Z" glyph-name="Nacute" horiz-adv-x="702" unicode="Ń" /><glyph d="M181 404Q207 436 244 453Q281 470 321 470Q358 470 389.5 458.5Q421 447 443.5 425Q466 403 478.5 371.5Q491 340 491 300V0H361V267Q361 311 337.5 330Q314 349 283 349Q254 349 229.5 334.5Q205 320 186 297V0H56V458H183V440Q183 434 182.5 427.5Q182 421 182 416Q182 410 181 404ZM273 700 439 700L347 527H223Z" glyph-name="nacute" horiz-adv-x="542" unicode="ń" /><glyph d="M210 0 73 0V700H256L492 234V700H629V0H460L210 486ZM280 -117Q280 -85 302.5 -63Q325 -41 357 -41Q390 -41 413 -63Q436 -85 436 -117Q436 -126 432 -141Q428 -156 423 -164L365 -270H273L313 -179Q298 -169 289 -153Q280 -137 280 -117Z" glyph-name="Ncommaaccent" horiz-adv-x="702" unicode="Ņ" /><glyph d="M181 404Q207 436 244 453Q281 470 321 470Q358 470 389.5 458.5Q421 447 443.5 425Q466 403 478.5 371.5Q491 340 491 300V0H361V267Q361 311 337.5 330Q314 349 283 349Q254 349 229.5 334.5Q205 320 186 297V0H56V458H183V440Q183 434 182.5 427.5Q182 421 182 416Q182 410 181 404ZM188 -117Q188 -85 210.5 -63Q233 -41 265 -41Q298 -41 321 -63Q344 -85 344 -117Q344 -126 340 -141Q336 -156 331 -164L273 -270H181L221 -179Q206 -169 197 -153Q188 -137 188 -117Z" glyph-name="ncommaaccent" horiz-adv-x="542" unicode="ņ" /><glyph d="M210 0 73 0V700H256L492 234V700H629V0H460L210 486ZM177 941 313 941L351 864L391 941H527L425 768H278Z" glyph-name="Ncaron" horiz-adv-x="702" unicode="Ň" /><glyph d="M181 404Q207 436 244 453Q281 470 321 470Q358 470 389.5 458.5Q421 447 443.5 425Q466 403 478.5 371.5Q491 340 491 300V0H361V267Q361 311 337.5 330Q314 349 283 349Q254 349 229.5 334.5Q205 320 186 297V0H56V458H183V440Q183 434 182.5 427.5Q182 421 182 416Q182 410 181 404ZM100 700 236 700L274 623L314 700H450L348 527H201Z" glyph-name="ncaron" horiz-adv-x="542" unicode="ň" /><glyph d="M181 404Q207 436 244 453Q281 470 321 470Q358 470 389.5 458.5Q421 447 443.5 425Q466 403 478.5 371.5Q491 340 491 300V0H361V267Q361 311 337.5 330Q314 349 283 349Q254 349 229.5 334.5Q205 320 186 297V0H56V458H183V440Q183 434 182.5 427.5Q182 421 182 416Q182 410 181 404ZM45 664Q45 696 67.5 718Q90 740 122 740Q155 740 178 718Q201 696 201 664Q201 655 197 640Q193 625 188 617L130 511H38L78 602Q63 612 54 628Q45 644 45 664Z" glyph-name="napostrophe" horiz-adv-x="542" unicode="ŉ" /><glyph d="M210 0 73 0V700H256L492 234V700H629V-34Q629 -103 596.5 -139Q564 -175 482 -175H396V-55H442Q471 -55 480 -43.5Q489 -32 490 0H460L210 486Z" glyph-name="Eng" horiz-adv-x="702" unicode="Ŋ" /><glyph d="M181 404Q207 436 244 453Q281 470 321 470Q358 470 389.5 458.5Q421 447 443.5 425Q466 403 478.5 371.5Q491 340 491 300V-65Q491 -103 477.5 -125Q464 -147 443 -158Q422 -169 396 -172.5Q370 -176 346 -176H277V-66H322Q342 -66 351.5 -60Q361 -54 361 -37V267Q361 311 337.5 330Q314 349 283 349Q254 349 229.5 334.5Q205 320 186 297V0H56V458H183V440Q183 434 182.5 427.5Q182 421 182 416Q182 410 181 404Z" glyph-name="eng" horiz-adv-x="542" unicode="ŋ" /><glyph d="M398 712Q474 712 541 685Q608 658 657.5 610Q707 562 735.5 495.5Q764 429 764 350Q764 271 735.5 204.5Q707 138 657.5 90Q608 42 541 15Q474 -12 398 -12Q322 -12 255 15Q188 42 138.5 90Q89 138 60.5 204.5Q32 271 32 350Q32 429 60.5 495.5Q89 562 138.5 610Q188 658 255 685Q322 712 398 712ZM398 116Q448 116 488.5 133.5Q529 151 558 182.5Q587 214 603 257Q619 300 619 350Q619 400 603 443Q587 486 558 517.5Q529 549 488.5 566.5Q448 584 398 584Q349 584 308 566.5Q267 549 238 517.5Q209 486 193 443Q177 400 177 350Q177 300 193 257Q209 214 238 182.5Q267 151 308 133.5Q349 116 398 116ZM240 909 554 909V798H240Z" glyph-name="Omacron" horiz-adv-x="796" unicode="Ō" /><glyph d="M272 -12Q221 -12 176.5 6Q132 24 98.5 56Q65 88 46 132.5Q27 177 27 229Q27 282 46 326Q65 370 98.5 402Q132 434 176.5 452Q221 470 272 470Q323 470 367.5 452Q412 434 445.5 402Q479 370 498 326Q517 282 517 229Q517 177 498 132.5Q479 88 445.5 56Q412 24 367.5 6Q323 -12 272 -12ZM272 354Q221 354 189 318.5Q157 283 157 229Q157 175 189 139.5Q221 104 272 104Q323 104 354.5 139.5Q386 175 386 229Q386 283 354.5 318.5Q323 354 272 354ZM113 643 427 643V532H113Z" glyph-name="omacron" horiz-adv-x="544" unicode="ō" /><glyph d="M398 712Q474 712 541 685Q608 658 657.5 610Q707 562 735.5 495.5Q764 429 764 350Q764 271 735.5 204.5Q707 138 657.5 90Q608 42 541 15Q474 -12 398 -12Q322 -12 255 15Q188 42 138.5 90Q89 138 60.5 204.5Q32 271 32 350Q32 429 60.5 495.5Q89 562 138.5 610Q188 658 255 685Q322 712 398 712ZM398 116Q448 116 488.5 133.5Q529 151 558 182.5Q587 214 603 257Q619 300 619 350Q619 400 603 443Q587 486 558 517.5Q529 549 488.5 566.5Q448 584 398 584Q349 584 308 566.5Q267 549 238 517.5Q209 486 193 443Q177 400 177 350Q177 300 193 257Q209 214 238 182.5Q267 151 308 133.5Q349 116 398 116ZM434 947 539 947V896Q539 862 527.5 836.5Q516 811 496.5 794.5Q477 778 451 769.5Q425 761 395 761Q365 761 339 769.5Q313 778 293.5 794.5Q274 811 262.5 836.5Q251 862 251 896V947H355V895Q355 878 365 867Q375 856 395 856Q415 856 424.5 867Q434 878 434 895Z" glyph-name="Obreve" horiz-adv-x="796" unicode="Ŏ" /><glyph d="M272 -12Q221 -12 176.5 6Q132 24 98.5 56Q65 88 46 132.5Q27 177 27 229Q27 282 46 326Q65 370 98.5 402Q132 434 176.5 452Q221 470 272 470Q323 470 367.5 452Q412 434 445.5 402Q479 370 498 326Q517 282 517 229Q517 177 498 132.5Q479 88 445.5 56Q412 24 367.5 6Q323 -12 272 -12ZM272 354Q221 354 189 318.5Q157 283 157 229Q157 175 189 139.5Q221 104 272 104Q323 104 354.5 139.5Q386 175 386 229Q386 283 354.5 318.5Q323 354 272 354ZM310 681 415 681V630Q415 596 403.5 570.5Q392 545 372.5 528.5Q353 512 327 503.5Q301 495 271 495Q241 495 215 503.5Q189 512 169.5 528.5Q150 545 138.5 570.5Q127 596 127 630V681H231V629Q231 612 241 601Q251 590 271 590Q291 590 300.5 601Q310 612 310 629Z" glyph-name="obreve" horiz-adv-x="544" unicode="ŏ" /><glyph d="M398 712Q474 712 541 685Q608 658 657.5 610Q707 562 735.5 495.5Q764 429 764 350Q764 271 735.5 204.5Q707 138 657.5 90Q608 42 541 15Q474 -12 398 -12Q322 -12 255 15Q188 42 138.5 90Q89 138 60.5 204.5Q32 271 32 350Q32 429 60.5 495.5Q89 562 138.5 610Q188 658 255 685Q322 712 398 712ZM398 116Q448 116 488.5 133.5Q529 151 558 182.5Q587 214 603 257Q619 300 619 350Q619 400 603 443Q587 486 558 517.5Q529 549 488.5 566.5Q448 584 398 584Q349 584 308 566.5Q267 549 238 517.5Q209 486 193 443Q177 400 177 350Q177 300 193 257Q209 214 238 182.5Q267 151 308 133.5Q349 116 398 116ZM262 941 429 941L336 768H212ZM463 941 629 941L538 768H413Z" glyph-name="Ohungarumlaut" horiz-adv-x="796" unicode="Ő" /><glyph d="M272 -12Q221 -12 176.5 6Q132 24 98.5 56Q65 88 46 132.5Q27 177 27 229Q27 282 46 326Q65 370 98.5 402Q132 434 176.5 452Q221 470 272 470Q323 470 367.5 452Q412 434 445.5 402Q479 370 498 326Q517 282 517 229Q517 177 498 132.5Q479 88 445.5 56Q412 24 367.5 6Q323 -12 272 -12ZM272 354Q221 354 189 318.5Q157 283 157 229Q157 175 189 139.5Q221 104 272 104Q323 104 354.5 139.5Q386 175 386 229Q386 283 354.5 318.5Q323 354 272 354ZM152 700 319 700L226 527H102ZM353 700 519 700L428 527H303Z" glyph-name="ohungarumlaut" horiz-adv-x="544" unicode="ő" /><glyph d="M1015 580 633 580V416H856V297H633V119H1015V0H397Q311 0 243.5 25.5Q176 51 129.5 97Q83 143 58.5 207.5Q34 272 34 350Q34 428 58.5 492.5Q83 557 129.5 603Q176 649 243.5 674.5Q311 700 397 700H1015ZM176 350Q176 291 193 247.5Q210 204 240.5 175.5Q271 147 312 133Q353 119 401 119H494V580H401Q353 580 312 566Q271 552 240.5 523.5Q210 495 193 451.5Q176 408 176 350Z" glyph-name="OE" horiz-adv-x="1050" unicode="Œ" /><glyph d="M272 351Q222 351 190.5 316.5Q159 282 159 229Q159 176 190.5 141Q222 106 272 106Q322 106 353 141Q384 176 384 229Q384 283 353 317Q322 351 272 351ZM627 470Q674 470 717 454.5Q760 439 793 406Q826 373 845.5 321Q865 269 865 196V191H524Q529 153 557 126Q585 99 629 99Q658 99 682.5 111Q707 123 721 146L856 132Q825 58 765 23Q705 -12 628 -12Q568 -12 521.5 11.5Q475 35 448 77Q419 35 372 11.5Q325 -12 266 -12Q215 -12 171.5 6Q128 24 95.5 56Q63 88 45 132.5Q27 177 27 229Q27 282 45 326Q63 370 95.5 402Q128 434 171.5 452Q215 470 266 470Q325 470 372 446.5Q419 423 448 381Q474 422 521 446Q568 470 627 470ZM627 362Q585 362 557.5 338.5Q530 315 522 278H726Q721 313 694.5 337.5Q668 362 627 362Z" glyph-name="oe" horiz-adv-x="886" unicode="œ" /><glyph d="M310 269 212 269V0H73V700H336Q393 700 438.5 684Q484 668 515 639.5Q546 611 562.5 572Q579 533 579 487Q579 462 573 435Q567 408 552 382Q537 356 511.5 333.5Q486 311 446 295L625 0H465ZM440 486Q440 533 408 556.5Q376 580 318 580H212V390H318Q376 390 408 415.5Q440 441 440 486ZM291 941 457 941L365 768H241Z" glyph-name="Racute" horiz-adv-x="630" unicode="Ŕ" /><glyph d="M337 330 282 330Q232 330 209 304.5Q186 279 186 219V0H56V458H182V385Q196 422 227 443Q258 464 301 464Q321 464 337 460ZM193 700 359 700L267 527H143Z" glyph-name="racute" horiz-adv-x="354" unicode="ŕ" /><glyph d="M310 269 212 269V0H73V700H336Q393 700 438.5 684Q484 668 515 639.5Q546 611 562.5 572Q579 533 579 487Q579 462 573 435Q567 408 552 382Q537 356 511.5 333.5Q486 311 446 295L625 0H465ZM440 486Q440 533 408 556.5Q376 580 318 580H212V390H318Q376 390 408 415.5Q440 441 440 486ZM227 -117Q227 -85 249.5 -63Q272 -41 304 -41Q337 -41 360 -63Q383 -85 383 -117Q383 -126 379 -141Q375 -156 370 -164L312 -270H220L260 -179Q245 -169 236 -153Q227 -137 227 -117Z" glyph-name="Rcommaaccent" horiz-adv-x="630" unicode="Ŗ" /><glyph d="M337 330 282 330Q232 330 209 304.5Q186 279 186 219V0H56V458H182V385Q196 422 227 443Q258 464 301 464Q321 464 337 460ZM43 -117Q43 -85 65.5 -63Q88 -41 120 -41Q153 -41 176 -63Q199 -85 199 -117Q199 -126 195 -141Q191 -156 186 -164L128 -270H36L76 -179Q61 -169 52 -153Q43 -137 43 -117Z" glyph-name="rcommaaccent" horiz-adv-x="354" unicode="ŗ" /><glyph d="M310 269 212 269V0H73V700H336Q393 700 438.5 684Q484 668 515 639.5Q546 611 562.5 572Q579 533 579 487Q579 462 573 435Q567 408 552 382Q537 356 511.5 333.5Q486 311 446 295L625 0H465ZM440 486Q440 533 408 556.5Q376 580 318 580H212V390H318Q376 390 408 415.5Q440 441 440 486ZM131 941 267 941L305 864L345 941H481L379 768H232Z" glyph-name="Rcaron" horiz-adv-x="630" unicode="Ř" /><glyph d="M337 330 282 330Q232 330 209 304.5Q186 279 186 219V0H56V458H182V385Q196 422 227 443Q258 464 301 464Q321 464 337 460ZM3 700 139 700L177 623L217 700H353L251 527H104Z" glyph-name="rcaron" horiz-adv-x="354" unicode="ř" /><glyph d="M433 514Q401 546 361.5 566Q322 586 285 586Q250 586 223.5 569Q197 552 197 520Q197 496 214 476.5Q231 457 273 437L331 410Q373 391 406 369.5Q439 348 462 322.5Q485 297 497 265.5Q509 234 509 195Q509 156 492.5 118.5Q476 81 445 52Q414 23 369 5.5Q324 -12 266 -12Q186 -12 125.5 16.5Q65 45 15 93L92 197Q131 157 177 135.5Q223 114 263 114Q308 114 334 136Q360 158 360 190Q360 226 330.5 249.5Q301 273 250 296L201 319Q130 352 89 400.5Q48 449 48 515Q48 561 67 597.5Q86 634 118.5 659.5Q151 685 193.5 698.5Q236 712 282 712Q343 712 402.5 685Q462 658 513 614ZM283 941 449 941L357 768H233Z" glyph-name="Sacute" horiz-adv-x="544" unicode="Ś" /><glyph d="M326 318Q298 345 267 355Q236 365 213 365Q187 365 177 355Q167 345 167 334Q167 310 201 299L277 275Q348 252 375.5 215Q403 178 403 133Q403 108 392 82Q381 56 358.5 35Q336 14 302 1Q268 -12 221 -12Q183 -12 152 -5.5Q121 1 96.5 11.5Q72 22 52.5 35Q33 48 19 60L88 150Q113 127 152 110Q191 93 223 93Q246 93 259.5 103Q273 113 273 127Q273 144 261 153.5Q249 163 221 171L143 194Q87 212 62 247.5Q37 283 37 328Q37 356 49.5 382Q62 408 85 427.5Q108 447 141 458.5Q174 470 215 470Q260 470 309.5 455Q359 440 400 402ZM215 700 381 700L289 527H165Z" glyph-name="sacute" horiz-adv-x="430" unicode="ś" /><glyph d="M433 514Q401 546 361.5 566Q322 586 285 586Q250 586 223.5 569Q197 552 197 520Q197 496 214 476.5Q231 457 273 437L331 410Q373 391 406 369.5Q439 348 462 322.5Q485 297 497 265.5Q509 234 509 195Q509 156 492.5 118.5Q476 81 445 52Q414 23 369 5.5Q324 -12 266 -12Q186 -12 125.5 16.5Q65 45 15 93L92 197Q131 157 177 135.5Q223 114 263 114Q308 114 334 136Q360 158 360 190Q360 226 330.5 249.5Q301 273 250 296L201 319Q130 352 89 400.5Q48 449 48 515Q48 561 67 597.5Q86 634 118.5 659.5Q151 685 193.5 698.5Q236 712 282 712Q343 712 402.5 685Q462 658 513 614ZM196 941 343 941L445 768H309L269 845L231 768H95Z" glyph-name="Scircumflex" horiz-adv-x="544" unicode="Ŝ" /><glyph d="M326 318Q298 345 267 355Q236 365 213 365Q187 365 177 355Q167 345 167 334Q167 310 201 299L277 275Q348 252 375.5 215Q403 178 403 133Q403 108 392 82Q381 56 358.5 35Q336 14 302 1Q268 -12 221 -12Q183 -12 152 -5.5Q121 1 96.5 11.5Q72 22 52.5 35Q33 48 19 60L88 150Q113 127 152 110Q191 93 223 93Q246 93 259.5 103Q273 113 273 127Q273 144 261 153.5Q249 163 221 171L143 194Q87 212 62 247.5Q37 283 37 328Q37 356 49.5 382Q62 408 85 427.5Q108 447 141 458.5Q174 470 215 470Q260 470 309.5 455Q359 440 400 402ZM144 700 291 700L393 527H257L217 604L179 527H43Z" glyph-name="scircumflex" horiz-adv-x="430" unicode="ŝ" /><glyph d="M187 -3Q136 8 94 33Q52 58 16 93L93 197Q132 157 178 135.5Q224 114 264 114Q309 114 335 136Q361 158 361 190Q361 226 331.5 249.5Q302 273 251 296L202 319Q131 352 90 400.5Q49 449 49 515Q49 561 68 597.5Q87 634 119.5 659.5Q152 685 194.5 698.5Q237 712 283 712Q344 712 403.5 685Q463 658 514 614L434 514Q402 546 362.5 566Q323 586 286 586Q251 586 224.5 569Q198 552 198 520Q198 496 215 476.5Q232 457 274 437L332 410Q374 391 407 369.5Q440 348 463 322.5Q486 297 498 265.5Q510 234 510 195Q510 162 498.5 130Q487 98 464.5 71Q442 44 409 24Q376 4 334 -5L250 -174H117Z" glyph-name="Scedilla" horiz-adv-x="546" unicode="Ş" /><glyph d="M134 -1Q94 10 66 26.5Q38 43 19 60L88 150Q113 127 152 110Q191 93 223 93Q246 93 259.5 103Q273 113 273 127Q273 144 261 153.5Q249 163 221 171L143 194Q87 212 62 247.5Q37 283 37 328Q37 356 49.5 382Q62 408 85 427.5Q108 447 141 458.5Q174 470 215 470Q260 470 309.5 455Q359 440 400 402L326 318Q298 345 267 355Q236 365 213 365Q187 365 177 355Q167 345 167 334Q167 310 201 299L277 275Q348 252 375.5 215Q403 178 403 133Q403 112 395.5 90.5Q388 69 373 50Q358 31 334.5 16.5Q311 2 279 -5L196 -174H63Z" glyph-name="scedilla" horiz-adv-x="431" unicode="ş" /><glyph d="M433 514Q401 546 361.5 566Q322 586 285 586Q250 586 223.5 569Q197 552 197 520Q197 496 214 476.5Q231 457 273 437L331 410Q373 391 406 369.5Q439 348 462 322.5Q485 297 497 265.5Q509 234 509 195Q509 156 492.5 118.5Q476 81 445 52Q414 23 369 5.5Q324 -12 266 -12Q186 -12 125.5 16.5Q65 45 15 93L92 197Q131 157 177 135.5Q223 114 263 114Q308 114 334 136Q360 158 360 190Q360 226 330.5 249.5Q301 273 250 296L201 319Q130 352 89 400.5Q48 449 48 515Q48 561 67 597.5Q86 634 118.5 659.5Q151 685 193.5 698.5Q236 712 282 712Q343 712 402.5 685Q462 658 513 614ZM93 942 229 942L267 865L307 942H443L341 769H194Z" glyph-name="Scaron" horiz-adv-x="544" unicode="Š" /><glyph d="M326 318Q298 345 267 355Q236 365 213 365Q187 365 177 355Q167 345 167 334Q167 310 201 299L277 275Q348 252 375.5 215Q403 178 403 133Q403 108 392 82Q381 56 358.5 35Q336 14 302 1Q268 -12 221 -12Q183 -12 152 -5.5Q121 1 96.5 11.5Q72 22 52.5 35Q33 48 19 60L88 150Q113 127 152 110Q191 93 223 93Q246 93 259.5 103Q273 113 273 127Q273 144 261 153.5Q249 163 221 171L143 194Q87 212 62 247.5Q37 283 37 328Q37 356 49.5 382Q62 408 85 427.5Q108 447 141 458.5Q174 470 215 470Q260 470 309.5 455Q359 440 400 402ZM37 700 173 700L211 623L251 700H387L285 527H138Z" glyph-name="scaron" horiz-adv-x="430" unicode="š" /><glyph d="M570 700 570 576H361V0H223V576H14V700ZM214 -117Q214 -85 236.5 -63Q259 -41 291 -41Q324 -41 347 -63Q370 -85 370 -117Q370 -126 366 -141Q362 -156 357 -164L299 -270H207L247 -179Q232 -169 223 -153Q214 -137 214 -117Z" glyph-name="Tcommaaccent" horiz-adv-x="584" unicode="Ţ" /><glyph d="M220 632 220 458H319V348H220V141Q220 119 234 113.5Q248 108 263 108Q275 108 286 108.5Q297 109 305 110Q315 110 323 111V0Q305 -2 287 -3Q270 -4 253 -5Q236 -6 222 -6Q198 -6 174 -3Q150 0 131.5 11Q113 22 101.5 42.5Q90 63 90 97V348H18V458H90V632ZM117 -117Q117 -85 139.5 -63Q162 -41 194 -41Q227 -41 250 -63Q273 -85 273 -117Q273 -126 269 -141Q265 -156 260 -164L202 -270H110L150 -179Q135 -169 126 -153Q117 -137 117 -117Z" glyph-name="tcommaaccent" horiz-adv-x="353" unicode="ţ" /><glyph d="M570 700 570 576H361V0H223V576H14V700ZM117 941 253 941L291 864L331 941H467L365 768H218Z" glyph-name="Tcaron" horiz-adv-x="584" unicode="Ť" /><glyph d="M220 632 220 458H319V348H220V141Q220 119 234 113.5Q248 108 263 108Q275 108 286 108.5Q297 109 305 110Q315 110 323 111V0Q305 -2 287 -3Q270 -4 253 -5Q236 -6 222 -6Q198 -6 174 -3Q150 0 131.5 11Q113 22 101.5 42.5Q90 63 90 97V348H18V458H90V632ZM280 664Q280 696 302.5 718Q325 740 357 740Q390 740 413 718Q436 696 436 664Q436 655 432 640Q428 625 423 617L365 511H273L313 602Q298 612 289 628Q280 644 280 664Z" glyph-name="tcaron" horiz-adv-x="353" unicode="ť" /><glyph d="M573 700 573 576H364V416H485V298H364V0H226V298H105V416H226V576H17V700Z" glyph-name="Tbar" horiz-adv-x="590" unicode="Ŧ" /><glyph d="M19 298 91 298V348H19V458H91V632H221V458H320V348H221V298H320V188H221V141Q221 119 235 113.5Q249 108 264 108Q276 108 287 108.5Q298 109 306 110Q316 110 324 111V0Q306 -2 288 -3Q271 -4 254 -5Q237 -6 223 -6Q199 -6 175 -3Q151 0 132.5 11Q114 22 102.5 42.5Q91 63 91 97V188H19Z" glyph-name="tbar" horiz-adv-x="355" unicode="ŧ" /><glyph d="M330 116Q392 116 423 152Q454 188 454 245V700H590V232Q590 181 573.5 136.5Q557 92 524 59Q491 26 442 7Q393 -12 328 -12Q263 -12 214 7Q165 26 132.5 59Q100 92 83.5 136.5Q67 181 67 232V700H206V245Q206 188 237 152Q268 116 330 116ZM155 765Q155 779 157 803Q159 827 169 850Q179 873 200.5 890Q222 907 261 907Q279 907 296.5 901Q314 895 329 888Q344 881 356 875Q368 869 375 869Q397 869 397 898V904H498V897Q498 883 496 859.5Q494 836 484 813Q474 790 452.5 773Q431 756 392 756Q374 756 356.5 762Q339 768 324 775Q309 782 297 788Q285 794 278 794Q256 794 256 765V758H155Z" glyph-name="Utilde" horiz-adv-x="657" unicode="Ũ" /><glyph d="M267 -12Q215 -12 174 2.5Q133 17 105.5 42Q78 67 63.5 99.5Q49 132 49 168V458H179V192Q179 144 205.5 124Q232 104 267 104Q302 104 328.5 124Q355 144 355 192V458H484V168Q484 132 470 99.5Q456 67 428.5 42Q401 17 360.5 2.5Q320 -12 267 -12ZM96 523Q96 537 98 561Q100 585 110 608Q120 631 141.5 648Q163 665 202 665Q220 665 237.5 659Q255 653 270 646Q285 639 297 633Q309 627 316 627Q338 627 338 656V662H439V655Q439 641 437 617.5Q435 594 425 571Q415 548 393.5 531Q372 514 333 514Q315 514 297.5 520Q280 526 265 533Q250 540 238 546Q226 552 219 552Q197 552 197 523V516H96Z" glyph-name="utilde" horiz-adv-x="533" unicode="ũ" /><glyph d="M330 116Q392 116 423 152Q454 188 454 245V700H590V232Q590 181 573.5 136.5Q557 92 524 59Q491 26 442 7Q393 -12 328 -12Q263 -12 214 7Q165 26 132.5 59Q100 92 83.5 136.5Q67 181 67 232V700H206V245Q206 188 237 152Q268 116 330 116ZM171 885 485 885V774H171Z" glyph-name="Umacron" horiz-adv-x="657" unicode="Ū" /><glyph d="M267 -12Q215 -12 174 2.5Q133 17 105.5 42Q78 67 63.5 99.5Q49 132 49 168V458H179V192Q179 144 205.5 124Q232 104 267 104Q302 104 328.5 124Q355 144 355 192V458H484V168Q484 132 470 99.5Q456 67 428.5 42Q401 17 360.5 2.5Q320 -12 267 -12ZM111 643 425 643V532H111Z" glyph-name="umacron" horiz-adv-x="533" unicode="ū" /><glyph d="M330 116Q392 116 423 152Q454 188 454 245V700H590V232Q590 181 573.5 136.5Q557 92 524 59Q491 26 442 7Q393 -12 328 -12Q263 -12 214 7Q165 26 132.5 59Q100 92 83.5 136.5Q67 181 67 232V700H206V245Q206 188 237 152Q268 116 330 116ZM369 947 474 947V896Q474 862 462.5 836.5Q451 811 431.5 794.5Q412 778 386 769.5Q360 761 330 761Q300 761 274 769.5Q248 778 228.5 794.5Q209 811 197.5 836.5Q186 862 186 896V947H290V895Q290 878 300 867Q310 856 330 856Q350 856 359.5 867Q369 878 369 895Z" glyph-name="Ubreve" horiz-adv-x="657" unicode="Ŭ" /><glyph d="M267 -12Q215 -12 174 2.5Q133 17 105.5 42Q78 67 63.5 99.5Q49 132 49 168V458H179V192Q179 144 205.5 124Q232 104 267 104Q302 104 328.5 124Q355 144 355 192V458H484V168Q484 132 470 99.5Q456 67 428.5 42Q401 17 360.5 2.5Q320 -12 267 -12ZM306 681 411 681V630Q411 596 399.5 570.5Q388 545 368.5 528.5Q349 512 323 503.5Q297 495 267 495Q237 495 211 503.5Q185 512 165.5 528.5Q146 545 134.5 570.5Q123 596 123 630V681H227V629Q227 612 237 601Q247 590 267 590Q287 590 296.5 601Q306 612 306 629Z" glyph-name="ubreve" horiz-adv-x="533" unicode="ŭ" /><glyph d="M330 116Q392 116 423 152Q454 188 454 245V700H590V232Q590 181 573.5 136.5Q557 92 524 59Q491 26 442 7Q393 -12 328 -12Q263 -12 214 7Q165 26 132.5 59Q100 92 83.5 136.5Q67 181 67 232V700H206V245Q206 188 237 152Q268 116 330 116ZM331 761Q305 761 282 770Q259 779 242 795.5Q225 812 215 834Q205 856 205 881Q205 908 215 930Q225 952 242 968Q259 984 282 993Q305 1002 331 1002Q357 1002 380 993Q403 984 420 968Q437 952 447 930Q457 908 457 881Q457 856 447 834Q437 812 420 795.5Q403 779 380 770Q357 761 331 761ZM331 831Q351 831 365 845.5Q379 860 379 881Q379 903 365 917.5Q351 932 331 932Q311 932 297 917.5Q283 903 283 881Q283 860 297 845.5Q311 831 331 831Z" glyph-name="Uring" horiz-adv-x="657" unicode="Ů" /><glyph d="M267 -12Q215 -12 174 2.5Q133 17 105.5 42Q78 67 63.5 99.5Q49 132 49 168V458H179V192Q179 144 205.5 124Q232 104 267 104Q302 104 328.5 124Q355 144 355 192V458H484V168Q484 132 470 99.5Q456 67 428.5 42Q401 17 360.5 2.5Q320 -12 267 -12ZM269 495Q243 495 220 504Q197 513 180 529.5Q163 546 153 568Q143 590 143 615Q143 642 153 664Q163 686 180 702Q197 718 220 727Q243 736 269 736Q295 736 318 727Q341 718 358 702Q375 686 385 664Q395 642 395 615Q395 590 385 568Q375 546 358 529.5Q341 513 318 504Q295 495 269 495ZM269 565Q289 565 303 579.5Q317 594 317 615Q317 637 303 651.5Q289 666 269 666Q249 666 235 651.5Q221 637 221 615Q221 594 235 579.5Q249 565 269 565Z" glyph-name="uring" horiz-adv-x="533" unicode="ů" /><glyph d="M330 116Q392 116 423 152Q454 188 454 245V700H590V232Q590 181 573.5 136.5Q557 92 524 59Q491 26 442 7Q393 -12 328 -12Q263 -12 214 7Q165 26 132.5 59Q100 92 83.5 136.5Q67 181 67 232V700H206V245Q206 188 237 152Q268 116 330 116ZM200 941 367 941L274 768H150ZM401 941 567 941L476 768H351Z" glyph-name="Uhungarumlaut" horiz-adv-x="657" unicode="Ű" /><glyph d="M267 -12Q215 -12 174 2.5Q133 17 105.5 42Q78 67 63.5 99.5Q49 132 49 168V458H179V192Q179 144 205.5 124Q232 104 267 104Q302 104 328.5 124Q355 144 355 192V458H484V168Q484 132 470 99.5Q456 67 428.5 42Q401 17 360.5 2.5Q320 -12 267 -12ZM144 700 311 700L218 527H94ZM345 700 511 700L420 527H295Z" glyph-name="uhungarumlaut" horiz-adv-x="533" unicode="ű" /><glyph d="M330 116Q392 116 423 152Q454 188 454 245V700H590V232Q590 187 577 147Q564 107 538.5 75.5Q513 44 475.5 22.5Q438 1 388 -7Q369 -24 356.5 -45Q344 -66 344 -81Q344 -95 356.5 -104Q369 -113 386 -113Q405 -113 425 -108Q445 -103 459 -98L446 -175Q422 -185 397 -192Q372 -199 335 -199Q284 -199 252.5 -176.5Q221 -154 221 -110Q221 -78 243 -53Q265 -28 298 -10Q240 -6 197 14.5Q154 35 125 67Q96 99 81.5 141.5Q67 184 67 232V700H206V245Q206 188 237 152Q268 116 330 116Z" glyph-name="Uogonek" horiz-adv-x="657" unicode="Ų" /><glyph d="M486 168Q486 135 474.5 105.5Q463 76 440.5 52Q418 28 384.5 12Q351 -4 307 -9Q290 -26 278 -46.5Q266 -67 266 -81Q266 -95 278.5 -104Q291 -113 308 -113Q327 -113 347 -108Q367 -103 381 -98L368 -175Q344 -185 319 -192Q294 -199 257 -199Q206 -199 174.5 -176.5Q143 -154 143 -110Q143 -78 166.5 -52Q190 -26 224 -8Q182 -2 149.5 14Q117 30 95.5 53.5Q74 77 62.5 106.5Q51 136 51 168V458H181V192Q181 144 207.5 124Q234 104 269 104Q304 104 330.5 124Q357 144 357 192V458H486Z" glyph-name="uogonek" horiz-adv-x="537" unicode="ų" /><glyph d="M556 700 690 199H691L803 700H945L774 0H613L481 503L352 0H191L18 700H168L276 199H277L411 700ZM407 941 554 941L656 768H520L480 845L442 768H306Z" glyph-name="Wcircumflex" horiz-adv-x="964" unicode="Ŵ" /><glyph d="M516 160 586 458H720L601 0H447L367 286L285 0H132L20 458H160L221 164L306 458H433ZM293 700 440 700L542 527H406L366 604L328 527H192Z" glyph-name="wcircumflex" horiz-adv-x="737" unicode="ŵ" /><glyph d="M-1 700 165 700L336 434H341L510 700H670L405 307V0H267V304ZM265 941 412 941L514 768H378L338 845L300 768H164Z" glyph-name="Ycircumflex" horiz-adv-x="671" unicode="Ŷ" /><glyph d="M201 0 168 0L11 458H156L253 132L351 458H492L309 -72Q292 -123 260.5 -149Q229 -175 166 -175H76V-66H140Q160 -66 172 -58Q184 -50 191 -30ZM179 700 326 700L428 527H292L252 604L214 527H78Z" glyph-name="ycircumflex" horiz-adv-x="502" unicode="ŷ" /><glyph d="M-1 700 165 700L336 434H341L510 700H670L405 307V0H267V304ZM165 826Q165 858 188 881Q211 904 243 904Q275 904 298.5 881Q322 858 322 826Q322 794 298.5 771Q275 748 243 748Q211 748 188 771Q165 794 165 826ZM356 826Q356 858 379 881Q402 904 434 904Q466 904 489.5 881Q513 858 513 826Q513 794 489.5 771Q466 748 434 748Q402 748 379 771Q356 794 356 826Z" glyph-name="Ydieresis" horiz-adv-x="671" unicode="Ÿ" /><glyph d="M41 576 41 700H596V581L212 123H596V0H33V114L421 576ZM303 941 469 941L377 768H253Z" glyph-name="Zacute" horiz-adv-x="633" unicode="Ź" /><glyph d="M431 351 195 109H431V0H36V107L273 348H38V458H431ZM218 700 384 700L292 527H168Z" glyph-name="zacute" horiz-adv-x="468" unicode="ź" /><glyph d="M41 576 41 700H596V581L212 123H596V0H33V114L421 576ZM230 856Q230 893 255.5 918.5Q281 944 317 944Q354 944 379.5 918.5Q405 893 405 856Q405 820 379.5 794.5Q354 769 317 769Q281 769 255.5 794.5Q230 820 230 856Z" glyph-name="Zdotaccent" horiz-adv-x="633" unicode="Ż" /><glyph d="M431 351 195 109H431V0H36V107L273 348H38V458H431ZM151 614Q151 651 176.5 676.5Q202 702 238 702Q275 702 300.5 676.5Q326 651 326 614Q326 578 300.5 552.5Q275 527 238 527Q202 527 176.5 552.5Q151 578 151 614Z" glyph-name="zdotaccent" horiz-adv-x="468" unicode="ż" /><glyph d="M41 576 41 700H596V581L212 123H596V0H33V114L421 576ZM142 941 278 941L316 864L356 941H492L390 768H243Z" glyph-name="Zcaron" horiz-adv-x="633" unicode="Ž" /><glyph d="M431 351 195 109H431V0H36V107L273 348H38V458H431ZM59 700 195 700L233 623L273 700H409L307 527H160Z" glyph-name="zcaron" horiz-adv-x="468" unicode="ž" /><glyph d="M217 0 87 0V348H15V458H87V588Q87 622 97.5 645Q108 668 126 682.5Q144 697 167.5 703Q191 709 217 709Q230 709 246.5 708Q263 707 278 706Q295 705 312 703V584Q301 585 290 587Q281 588 272 588.5Q263 589 258 589Q239 589 228 582Q217 575 217 551Z" glyph-name="longs" horiz-adv-x="293" unicode="ſ" /><glyph d="M256 329 341 329V213H256V-31Q256 -59 250 -85Q244 -111 228 -131.5Q212 -152 184.5 -164Q157 -176 114 -176H18V-54H53Q65 -54 77 -53Q89 -52 99 -47Q109 -42 115 -32Q121 -22 121 -4V213H37V329H121V565Q121 592 128 616Q135 640 151.5 659Q168 678 195.5 689Q223 700 263 700H359V578H324Q312 578 300 577Q288 576 278 571Q268 566 262 556Q256 546 256 528Z" glyph-name="florin" horiz-adv-x="384" unicode="ƒ" /><glyph d="M433 514Q401 546 361.5 566Q322 586 285 586Q250 586 223.5 569Q197 552 197 520Q197 496 214 476.5Q231 457 273 437L331 410Q373 391 406 369.5Q439 348 462 322.5Q485 297 497 265.5Q509 234 509 195Q509 156 492.5 118.5Q476 81 445 52Q414 23 369 5.5Q324 -12 266 -12Q186 -12 125.5 16.5Q65 45 15 93L92 197Q131 157 177 135.5Q223 114 263 114Q308 114 334 136Q360 158 360 190Q360 226 330.5 249.5Q301 273 250 296L201 319Q130 352 89 400.5Q48 449 48 515Q48 561 67 597.5Q86 634 118.5 659.5Q151 685 193.5 698.5Q236 712 282 712Q343 712 402.5 685Q462 658 513 614ZM196 -117Q196 -85 218.5 -63Q241 -41 273 -41Q306 -41 329 -63Q352 -85 352 -117Q352 -126 348 -141Q344 -156 339 -164L281 -270H189L229 -179Q214 -169 205 -153Q196 -137 196 -117Z" glyph-name="Scommaaccent" horiz-adv-x="544" unicode="Ș" /><glyph d="M326 318Q298 345 267 355Q236 365 213 365Q187 365 177 355Q167 345 167 334Q167 310 201 299L277 275Q348 252 375.5 215Q403 178 403 133Q403 108 392 82Q381 56 358.5 35Q336 14 302 1Q268 -12 221 -12Q183 -12 152 -5.5Q121 1 96.5 11.5Q72 22 52.5 35Q33 48 19 60L88 150Q113 127 152 110Q191 93 223 93Q246 93 259.5 103Q273 113 273 127Q273 144 261 153.5Q249 163 221 171L143 194Q87 212 62 247.5Q37 283 37 328Q37 356 49.5 382Q62 408 85 427.5Q108 447 141 458.5Q174 470 215 470Q260 470 309.5 455Q359 440 400 402ZM129 -117Q129 -85 151.5 -63Q174 -41 206 -41Q239 -41 262 -63Q285 -85 285 -117Q285 -126 281 -141Q277 -156 272 -164L214 -270H122L162 -179Q147 -169 138 -153Q129 -137 129 -117Z" glyph-name="scommaaccent" horiz-adv-x="430" unicode="ș" /><glyph d="M570 700 570 576H361V0H223V576H14V700ZM214 -117Q214 -85 236.5 -63Q259 -41 291 -41Q324 -41 347 -63Q370 -85 370 -117Q370 -126 366 -141Q362 -156 357 -164L299 -270H207L247 -179Q232 -169 223 -153Q214 -137 214 -117Z" glyph-name="uni021A" horiz-adv-x="584" unicode="Ț" /><glyph d="M220 632 220 458H319V348H220V141Q220 119 234 113.5Q248 108 263 108Q275 108 286 108.5Q297 109 305 110Q315 110 323 111V0Q305 -2 287 -3Q270 -4 253 -5Q236 -6 222 -6Q198 -6 174 -3Q150 0 131.5 11Q113 22 101.5 42.5Q90 63 90 97V348H18V458H90V632ZM100 -117Q100 -85 122.5 -63Q145 -41 177 -41Q210 -41 233 -63Q256 -85 256 -117Q256 -126 252 -141Q248 -156 243 -164L185 -270H93L133 -179Q118 -169 109 -153Q100 -137 100 -117Z" glyph-name="uni021B" horiz-adv-x="353" unicode="ț" /><glyph d="M83 348 19 348V458H213V-65Q213 -103 199.5 -125Q186 -147 165 -158Q144 -169 118 -172.5Q92 -176 68 -176H-1V-66H44Q64 -66 73.5 -60Q83 -54 83 -37Z" glyph-name="dotlessj" horiz-adv-x="269" unicode="ȷ" /><glyph d="M195 664Q195 696 217.5 718Q240 740 272 740Q305 740 328 718Q351 696 351 664Q351 655 347 640Q343 625 338 617L280 511H188L228 602Q213 612 204 628Q195 644 195 664Z" glyph-name="apostrophe" horiz-adv-x="524" unicode="ʼ" /><glyph d="M129 700 276 700L378 527H242L202 604L164 527H28Z" glyph-name="circumflex" horiz-adv-x="407" unicode="ˆ" /><glyph d="M28 700 164 700L202 623L242 700H378L276 527H129Z" glyph-name="caron" horiz-adv-x="407" unicode="ˇ" /><glyph d="M29 643 343 643V532H29Z" glyph-name="uni02C9" horiz-adv-x="372" unicode="ˉ" /><glyph d="M213 681 318 681V630Q318 596 306.5 570.5Q295 545 275.5 528.5Q256 512 230 503.5Q204 495 174 495Q144 495 118 503.5Q92 512 72.5 528.5Q53 545 41.5 570.5Q30 596 30 630V681H134V629Q134 612 144 601Q154 590 174 590Q194 590 203.5 601Q213 612 213 629Z" glyph-name="breve" horiz-adv-x="348" unicode="˘" /><glyph d="M24 614Q24 651 49.5 676.5Q75 702 111 702Q148 702 173.5 676.5Q199 651 199 614Q199 578 173.5 552.5Q148 527 111 527Q75 527 49.5 552.5Q24 578 24 614Z" glyph-name="dotaccent" horiz-adv-x="223" unicode="˙" /><glyph d="M160 495Q134 495 111 504Q88 513 71 529.5Q54 546 44 568Q34 590 34 615Q34 642 44 664Q54 686 71 702Q88 718 111 727Q134 736 160 736Q186 736 209 727Q232 718 249 702Q266 686 276 664Q286 642 286 615Q286 590 276 568Q266 546 249 529.5Q232 513 209 504Q186 495 160 495ZM160 565Q180 565 194 579.5Q208 594 208 615Q208 637 194 651.5Q180 666 160 666Q140 666 126 651.5Q112 637 112 615Q112 594 126 579.5Q140 565 160 565Z" glyph-name="ring" horiz-adv-x="320" unicode="˚" /><glyph d="M216 7Q193 -11 174.5 -37Q156 -63 156 -81Q156 -95 168.5 -104Q181 -113 198 -113Q217 -113 237 -108Q257 -103 271 -98L258 -175Q234 -185 209 -192Q184 -199 147 -199Q96 -199 64.5 -176.5Q33 -154 33 -110Q33 -86 46.5 -66Q60 -46 81 -29.5Q102 -13 128.5 -1.5Q155 10 182 17L217 10Z" glyph-name="ogonek" horiz-adv-x="304" unicode="˛" /><glyph d="M36 523Q36 537 38 561Q40 585 50 608Q60 631 81.5 648Q103 665 142 665Q160 665 177.5 659Q195 653 210 646Q225 639 237 633Q249 627 256 627Q278 627 278 656V662H379V655Q379 641 377 617.5Q375 594 365 571Q355 548 333.5 531Q312 514 273 514Q255 514 237.5 520Q220 526 205 533Q190 540 178 546Q166 552 159 552Q137 552 137 523V516H36Z" glyph-name="tilde" horiz-adv-x="415" unicode="˜" /><glyph d="M75 700 242 700L149 527H25ZM276 700 442 700L351 527H226Z" glyph-name="hungarumlaut" horiz-adv-x="468" unicode="˝" /><glyph d="M658 122 658 0H31V122L269 700H420ZM344 542 177 120H511Z" glyph-name="Delta" horiz-adv-x="689" unicode="∆" /><glyph d="M360 712Q429 712 487.5 691.5Q546 671 589.5 633.5Q633 596 657.5 543.5Q682 491 682 428Q682 372 666 329.5Q650 287 624.5 257Q599 227 566.5 209Q534 191 502 184V118H637V0H384V259Q413 264 440 276Q467 288 487.5 308.5Q508 329 520.5 358Q533 387 533 426Q533 467 518 497Q503 527 479 546.5Q455 566 424 575.5Q393 585 360 585Q327 585 296 575.5Q265 566 241 546.5Q217 527 202 497Q187 467 187 426Q187 387 199.5 358Q212 329 232.5 308.5Q253 288 280 276Q307 264 336 259V0H83V118H218V184Q186 191 153.5 209Q121 227 95.5 257Q70 287 54 329.5Q38 372 38 428Q38 491 62.5 543.5Q87 596 130.5 633.5Q174 671 232.5 691.5Q291 712 360 712Z" glyph-name="Omega" horiz-adv-x="720" unicode="Ω" /><glyph d="M480 140Q480 118 493 113Q506 108 521 108Q529 108 536.5 108.5Q544 109 550 110Q557 110 563 111V0Q548 -1 533 -3Q519 -4 504 -4.5Q489 -5 474 -5Q454 -5 432 -2Q410 1 392 12Q374 23 362 43.5Q350 64 350 98V348H216V0H87V348H18V458H554V348H480Z" glyph-name="pi" horiz-adv-x="595" unicode="π" /><glyph d="M556 700 690 199H691L803 700H945L774 0H613L481 503L352 0H191L18 700H168L276 199H277L411 700ZM534 768 410 768L318 941H484Z" glyph-name="Wgrave" horiz-adv-x="964" unicode="Ẁ" /><glyph d="M516 160 586 458H720L601 0H447L367 286L285 0H132L20 458H160L221 164L306 458H433ZM419 527 295 527L203 700H369Z" glyph-name="wgrave" horiz-adv-x="737" unicode="ẁ" /><glyph d="M556 700 690 199H691L803 700H945L774 0H613L481 503L352 0H191L18 700H168L276 199H277L411 700ZM479 941 645 941L553 768H429Z" glyph-name="Wacute" horiz-adv-x="964" unicode="Ẃ" /><glyph d="M516 160 586 458H720L601 0H447L367 286L285 0H132L20 458H160L221 164L306 458H433ZM383 700 549 700L457 527H333Z" glyph-name="wacute" horiz-adv-x="737" unicode="ẃ" /><glyph d="M556 700 690 199H691L803 700H945L774 0H613L481 503L352 0H191L18 700H168L276 199H277L411 700ZM307 826Q307 858 330 881Q353 904 385 904Q417 904 440.5 881Q464 858 464 826Q464 794 440.5 771Q417 748 385 748Q353 748 330 771Q307 794 307 826ZM498 826Q498 858 521 881Q544 904 576 904Q608 904 631.5 881Q655 858 655 826Q655 794 631.5 771Q608 748 576 748Q544 748 521 771Q498 794 498 826Z" glyph-name="Wdieresis" horiz-adv-x="964" unicode="Ẅ" /><glyph d="M516 160 586 458H720L601 0H447L367 286L285 0H132L20 458H160L221 164L306 458H433ZM193 584Q193 616 216 639Q239 662 271 662Q303 662 326.5 639Q350 616 350 584Q350 552 326.5 529Q303 506 271 506Q239 506 216 529Q193 552 193 584ZM384 584Q384 616 407 639Q430 662 462 662Q494 662 517.5 639Q541 616 541 584Q541 552 517.5 529Q494 506 462 506Q430 506 407 529Q384 552 384 584Z" glyph-name="wdieresis" horiz-adv-x="737" unicode="ẅ" /><glyph d="M-1 700 165 700L336 434H341L510 700H670L405 307V0H267V304ZM404 768 280 768L188 941H354Z" glyph-name="Ygrave" horiz-adv-x="671" unicode="Ỳ" /><glyph d="M201 0 168 0L11 458H156L253 132L351 458H492L309 -72Q292 -123 260.5 -149Q229 -175 166 -175H76V-66H140Q160 -66 172 -58Q184 -50 191 -30ZM314 527 190 527L98 700H264Z" glyph-name="ygrave" horiz-adv-x="502" unicode="ỳ" /><glyph d="M40 323 460 323V213H40Z" glyph-name="endash" horiz-adv-x="500" unicode="–" /><glyph d="M40 323 960 323V213H40Z" glyph-name="emdash" horiz-adv-x="1000" unicode="—" /><glyph d="M218 514Q218 477 192.5 451.5Q167 426 130 426Q92 426 65.5 451.5Q39 477 39 514Q39 525 43 539.5Q47 554 52 564L132 712H237L180 585Q197 574 207.5 555.5Q218 537 218 514Z" glyph-name="quoteleft" horiz-adv-x="271" unicode="‘" /><glyph d="M66 624Q66 661 91 686.5Q116 712 153 712Q191 712 217.5 686.5Q244 661 244 624Q244 613 240 598Q236 583 231 573L152 426H46L103 553Q86 564 76 582.5Q66 601 66 624Z" glyph-name="quoteright" horiz-adv-x="280" unicode="’" /><glyph d="M48 74Q48 111 73 136.5Q98 162 135 162Q173 162 199.5 136.5Q226 111 226 74Q226 63 222 48.5Q218 34 213 24L134 -124H28L85 3Q68 14 58 32.5Q48 51 48 74Z" glyph-name="quotesinglbase" horiz-adv-x="274" unicode="‚" /><glyph d="M218 514Q218 477 192.5 451.5Q167 426 131 426Q93 426 66 451.5Q39 477 39 514Q39 525 43.5 539.5Q48 554 53 564L132 712H238L180 585Q197 574 207.5 555.5Q218 537 218 514ZM442 514Q442 477 417 451.5Q392 426 355 426Q317 426 290.5 451.5Q264 477 264 514Q264 525 268 539.5Q272 554 277 564L356 712H462L404 585Q442 561 442 514Z" glyph-name="quotedblleft" horiz-adv-x="495" unicode="“" /><glyph d="M66 624Q66 661 91.5 686.5Q117 712 153 712Q191 712 218 686.5Q245 661 245 624Q245 613 240.5 598Q236 583 231 573L152 426H46L104 553Q87 564 76.5 582.5Q66 601 66 624ZM290 624Q290 661 315.5 686.5Q341 712 377 712Q415 712 442 686.5Q469 661 469 624Q469 613 464.5 598Q460 583 455 573L377 426H270L328 553Q311 564 300.5 582.5Q290 601 290 624Z" glyph-name="quotedblright" horiz-adv-x="505" unicode="”" /><glyph d="M48 74Q48 111 73.5 136.5Q99 162 136 162Q174 162 200.5 136.5Q227 111 227 74Q227 63 222.5 48.5Q218 34 213 24L135 -124H28L86 3Q69 14 58.5 32.5Q48 51 48 74ZM273 74Q273 111 298.5 136.5Q324 162 360 162Q398 162 424.5 136.5Q451 111 451 74Q451 63 447 48.5Q443 34 438 24L359 -124H253L311 3Q273 27 273 74Z" glyph-name="quotedblbase" horiz-adv-x="499" unicode="„" /><glyph d="M36 516 195 516V700H323V516H483V397H323V0H195V397H36Z" glyph-name="dagger" horiz-adv-x="520" unicode="†" /><glyph d="M36 516 195 516V700H323V516H483V397H323V316H483V197H323V0H195V197H36V316H195V397H36Z" glyph-name="daggerdbl" horiz-adv-x="520" unicode="‡" /><glyph d="M68 359Q68 384 77.5 406Q87 428 103.5 444.5Q120 461 142 470.5Q164 480 189 480Q214 480 236 470.5Q258 461 274.5 444.5Q291 428 300.5 406Q310 384 310 359Q310 334 300.5 312Q291 290 274.5 273.5Q258 257 236 247.5Q214 238 189 238Q164 238 142 247.5Q120 257 103.5 273.5Q87 290 77.5 312Q68 334 68 359Z" glyph-name="bullet" horiz-adv-x="378" unicode="•" /><glyph d="M48 75Q48 111 73 136.5Q98 162 134 162Q171 162 196.5 136.5Q222 111 222 75Q222 39 196.5 13.5Q171 -12 134 -12Q98 -12 73 13.5Q48 39 48 75ZM378 75Q378 111 403.5 136.5Q429 162 465 162Q502 162 527.5 136.5Q553 111 553 75Q553 39 527.5 13.5Q502 -12 465 -12Q429 -12 403.5 13.5Q378 39 378 75ZM709 75Q709 111 734.5 136.5Q760 162 796 162Q833 162 858 136.5Q883 111 883 75Q883 39 858 13.5Q833 -12 796 -12Q760 -12 734.5 13.5Q709 39 709 75Z" glyph-name="ellipsis" horiz-adv-x="930" unicode="…" /><glyph d="M52 547Q52 581 65 611Q78 641 101 663.5Q124 686 154.5 699Q185 712 220 712Q254 712 284.5 699Q315 686 337.5 663.5Q360 641 373 611Q386 581 386 547Q386 513 373 483.5Q360 454 337.5 431.5Q315 409 284.5 396Q254 383 220 383Q185 383 154.5 396Q124 409 101 431.5Q78 454 65 483.5Q52 513 52 547ZM154 547Q154 518 173.5 497Q193 476 220 476Q246 476 265.5 497Q285 518 285 547Q285 577 265.5 597.5Q246 618 220 618Q193 618 173.5 597.5Q154 577 154 547ZM684 151Q684 117 671 87.5Q658 58 635.5 36Q613 14 582.5 1Q552 -12 517 -12Q482 -12 451.5 1Q421 14 398.5 36Q376 58 363 87.5Q350 117 350 151Q350 185 363 215Q376 245 398.5 267.5Q421 290 451.5 303Q482 316 517 316Q552 316 582.5 303Q613 290 635.5 267.5Q658 245 671 215Q684 185 684 151ZM583 151Q583 181 563 201.5Q543 222 517 222Q491 222 471 201.5Q451 181 451 151Q451 122 471 101Q491 80 517 80Q543 80 563 101Q583 122 583 151ZM97 87 47 157L633 607L686 540ZM1055 151Q1055 117 1042 87.5Q1029 58 1006.5 36Q984 14 953.5 1Q923 -12 888 -12Q853 -12 822.5 1Q792 14 769.5 36Q747 58 734 87.5Q721 117 721 151Q721 185 734 215Q747 245 769.5 267.5Q792 290 822.5 303Q853 316 888 316Q923 316 953.5 303Q984 290 1006.5 267.5Q1029 245 1042 215Q1055 185 1055 151ZM954 151Q954 181 934 201.5Q914 222 888 222Q862 222 842 201.5Q822 181 822 151Q822 122 842 101Q862 80 888 80Q914 80 934 101Q954 122 954 151Z" glyph-name="perthousand" horiz-adv-x="1087" unicode="‰" /><glyph d="M35 238 154 413H289L178 238L289 62H154Z" glyph-name="guilsinglleft" horiz-adv-x="332" unicode="‹" /><glyph d="M179 62 43 62L154 238L43 413H179L298 238Z" glyph-name="guilsinglright" horiz-adv-x="333" unicode="›" /><glyph d="M475 686 -198 -37L-256 18L417 741Z" glyph-name="fraction" horiz-adv-x="220" unicode="⁄" /><glyph d="M215 707Q249 707 278.5 693.5Q308 680 329.5 653Q351 626 363 584Q375 542 375 485Q375 428 363 386Q351 344 329.5 316.5Q308 289 278.5 275.5Q249 262 215 262Q181 262 151.5 275.5Q122 289 100.5 316.5Q79 344 66.5 386Q54 428 54 485Q54 542 66.5 584Q79 626 100.5 653Q122 680 151.5 693.5Q181 707 215 707ZM162 485Q162 364 215 364Q267 364 267 485Q267 545 254 576.5Q241 608 215 608Q189 608 175.5 576.5Q162 545 162 485Z" glyph-name="zerosuperior" horiz-adv-x="430" unicode="⁰" /><glyph d="M47 466 191 700H321V456H372V365H321V269H218V365H47ZM134 456 218 456V589H216Z" glyph-name="foursuperior" horiz-adv-x="430" unicode="⁴" /><glyph d="M369 415Q369 349 332 305.5Q295 262 219 262Q144 262 106 298.5Q68 335 68 395V414H178V398Q178 382 185.5 366.5Q193 351 216 351Q239 351 247.5 367.5Q256 384 256 409Q256 435 246 451.5Q236 468 213 468Q200 468 190.5 463Q181 458 175 452L83 461V700H352V604H178V540L180 539Q190 547 206 551.5Q222 556 241 556Q301 556 335 517Q369 478 369 415Z" glyph-name="fivesuperior" horiz-adv-x="430" unicode="⁵" /><glyph d="M353 700 344 692Q332 682 312 663.5Q292 645 269.5 623Q247 601 225 577Q203 553 188 532L191 530Q199 535 213 539.5Q227 544 244 544Q271 544 295 534.5Q319 525 337 508Q355 491 365.5 466Q376 441 376 410Q376 377 364.5 350Q353 323 332.5 303.5Q312 284 283.5 273Q255 262 221 262Q184 262 154 274.5Q124 287 103 308.5Q82 330 70.5 359.5Q59 389 59 423Q59 471 74.5 512Q90 553 111.5 586.5Q133 620 157.5 645.5Q182 671 200 688L213 700ZM166 405Q166 382 179 366Q192 350 218 350Q244 350 256 366Q268 382 268 405Q268 428 256 444.5Q244 461 218 461Q192 461 179 444.5Q166 428 166 405Z" glyph-name="sixsuperior" horiz-adv-x="430" unicode="⁶" /><glyph d="M103 269 253 602H66V700H363V607L224 269Z" glyph-name="sevensuperior" horiz-adv-x="430" unicode="⁷" /><glyph d="M215 352Q239 352 251.5 366Q264 380 264 399Q264 417 251.5 431.5Q239 446 215 446Q189 446 177 431.5Q165 417 165 399Q165 380 177 366Q189 352 215 352ZM215 707Q284 707 324 672Q364 637 364 586Q364 558 348.5 532Q333 506 301 493Q335 480 353.5 451.5Q372 423 372 391Q372 333 329.5 297.5Q287 262 215 262Q143 262 99.5 297.5Q56 333 56 391Q56 423 75 451.5Q94 480 128 493Q96 506 80.5 532Q65 558 65 586Q65 637 105 672Q145 707 215 707ZM215 531Q237 531 247.5 544.5Q258 558 258 575Q258 592 247.5 605.5Q237 619 215 619Q192 619 181 605.5Q170 592 170 575Q170 558 181 544.5Q192 531 215 531Z" glyph-name="eightsuperior" horiz-adv-x="430" unicode="⁸" /><glyph d="M77 269 86 277Q98 287 118 305.5Q138 324 160.5 346Q183 368 204.5 392Q226 416 241 437L238 439Q230 434 216.5 429.5Q203 425 185 425Q159 425 135 434.5Q111 444 93 461Q75 478 64.5 503Q54 528 54 559Q54 625 96.5 666Q139 707 208 707Q246 707 276 694.5Q306 682 327 660.5Q348 639 359.5 609.5Q371 580 371 546Q371 498 355.5 457Q340 416 318 383Q296 350 271.5 324.5Q247 299 229 282L216 269ZM263 565Q263 587 250.5 603.5Q238 620 212 620Q186 620 173.5 603.5Q161 587 161 565Q161 542 173.5 525Q186 508 212 508Q238 508 250.5 525Q263 542 263 565Z" glyph-name="ninesuperior" horiz-adv-x="430" unicode="⁹" /><glyph d="M215 436Q249 436 278.5 422.5Q308 409 329.5 382Q351 355 363 313Q375 271 375 214Q375 157 363 115Q351 73 329.5 45.5Q308 18 278.5 4.5Q249 -9 215 -9Q181 -9 151.5 4.5Q122 18 100.5 45.5Q79 73 66.5 115Q54 157 54 214Q54 271 66.5 313Q79 355 100.5 382Q122 409 151.5 422.5Q181 436 215 436ZM162 214Q162 93 215 93Q267 93 267 214Q267 274 254 305.5Q241 337 215 337Q189 337 175.5 305.5Q162 274 162 214Z" glyph-name="zeroinferior" horiz-adv-x="430" unicode="₀" /><glyph d="M93 431 277 431V93H359V0H86V93H168V338H93Z" glyph-name="oneinferior" horiz-adv-x="430" unicode="₁" /><glyph d="M64 98Q88 116 111 134Q133 151 155.5 168.5Q178 186 197 203Q233 235 243.5 256Q254 277 254 297Q254 317 241 329.5Q228 342 208 342Q190 342 176.5 331Q163 320 163 300Q163 294 164.5 285.5Q166 277 171 263L73 248Q63 269 60 284.5Q57 300 57 315Q57 338 67 360Q77 382 96.5 399.5Q116 417 144.5 427.5Q173 438 209 438Q249 438 278 426Q307 414 326.5 395.5Q346 377 355.5 353Q365 329 365 305Q365 280 358 258Q351 236 336 214Q321 192 297 169.5Q273 147 238 121L205 95H368V0H64Z" glyph-name="twoinferior" horiz-adv-x="430" unicode="₂" /><glyph d="M209 -9Q134 -9 97 27.5Q60 64 60 124V143H170V127Q170 111 177.5 95.5Q185 80 208 80Q230 80 239.5 94Q249 108 249 131Q249 155 236 170.5Q223 186 193 186Q182 186 168 184.5Q154 183 147 181V273L232 336H78V429H349V327L251 256Q299 252 330.5 217.5Q362 183 362 134Q362 68 321 29.5Q280 -9 209 -9Z" glyph-name="threeinferior" horiz-adv-x="430" unicode="₃" /><glyph d="M47 197 191 431H321V187H372V96H321V0H218V96H47ZM134 187 218 187V320H216Z" glyph-name="fourinferior" horiz-adv-x="430" unicode="₄" /><glyph d="M369 144Q369 78 332 34.5Q295 -9 219 -9Q144 -9 106 27.5Q68 64 68 124V143H178V127Q178 111 185.5 95.5Q193 80 216 80Q239 80 247.5 96.5Q256 113 256 138Q256 164 246 180.5Q236 197 213 197Q200 197 190.5 192Q181 187 175 181L83 190V429H352V333H178V269L180 268Q190 276 206 280.5Q222 285 241 285Q301 285 335 246Q369 207 369 144Z" glyph-name="fiveinferior" horiz-adv-x="430" unicode="₅" /><glyph d="M353 429 344 421Q332 411 312 392.5Q292 374 269.5 352Q247 330 225 306Q203 282 188 261L191 259Q199 264 213 268.5Q227 273 244 273Q271 273 295 263.5Q319 254 337 237Q355 220 365.5 195Q376 170 376 139Q376 106 364.5 79Q353 52 332.5 32.5Q312 13 283.5 2Q255 -9 221 -9Q184 -9 154 3.5Q124 16 103 37.5Q82 59 70.5 88.5Q59 118 59 152Q59 200 74.5 241Q90 282 111.5 315.5Q133 349 157.5 374.5Q182 400 200 417L213 429ZM166 134Q166 111 179 95Q192 79 218 79Q244 79 256 95Q268 111 268 134Q268 157 256 173.5Q244 190 218 190Q192 190 179 173.5Q166 157 166 134Z" glyph-name="sixinferior" horiz-adv-x="430" unicode="₆" /><glyph d="M105 0 255 333H68V431H365V338L226 0Z" glyph-name="seveninferior" horiz-adv-x="430" unicode="₇" /><glyph d="M215 81Q239 81 251.5 95Q264 109 264 128Q264 146 251.5 160.5Q239 175 215 175Q189 175 177 160.5Q165 146 165 128Q165 109 177 95Q189 81 215 81ZM215 436Q284 436 324 401Q364 366 364 315Q364 287 348.5 261Q333 235 301 222Q335 209 353.5 180.5Q372 152 372 120Q372 62 329.5 26.5Q287 -9 215 -9Q143 -9 99.5 26.5Q56 62 56 120Q56 152 75 180.5Q94 209 128 222Q96 235 80.5 261Q65 287 65 315Q65 366 105 401Q145 436 215 436ZM215 260Q237 260 247.5 273.5Q258 287 258 304Q258 321 247.5 334.5Q237 348 215 348Q192 348 181 334.5Q170 321 170 304Q170 287 181 273.5Q192 260 215 260Z" glyph-name="eightinferior" horiz-adv-x="430" unicode="₈" /><glyph d="M77 0 86 8Q98 18 118 36.5Q138 55 160.5 77Q183 99 204.5 123Q226 147 241 168L238 170Q230 165 216.5 160.5Q203 156 185 156Q159 156 135 165.5Q111 175 93 192Q75 209 64.5 234Q54 259 54 290Q54 356 96.5 397Q139 438 208 438Q246 438 276 425.5Q306 413 327 391.5Q348 370 359.5 340.5Q371 311 371 277Q371 229 355.5 188Q340 147 318 114Q296 81 271.5 55.5Q247 30 229 13L216 0ZM263 296Q263 318 250.5 334.5Q238 351 212 351Q186 351 173.5 334.5Q161 318 161 296Q161 273 173.5 256Q186 239 212 239Q238 239 250.5 256Q263 273 263 296Z" glyph-name="nineinferior" horiz-adv-x="430" unicode="₉" /><glyph d="M37 478 101 478Q117 531 145.5 574Q174 617 214.5 648Q255 679 305.5 695.5Q356 712 415 712Q474 712 524.5 694Q575 676 615 642.5Q655 609 683 561Q711 513 725 453H572Q556 512 519 548Q482 584 412 584Q350 584 310 555.5Q270 527 250 478H472V385H228Q227 376 227 367.5Q227 359 227 350Q227 340 227 331Q227 322 228 314H472V222H249Q269 172 309.5 143Q350 114 413 114Q482 114 519 151Q556 188 572 246H726Q712 186 683.5 138Q655 90 615 57Q575 24 524.5 6Q474 -12 415 -12Q356 -12 305.5 4.5Q255 21 214.5 51.5Q174 82 145.5 125.5Q117 169 101 222H37V314H85Q84 323 84 331.5Q84 340 84 350Q84 359 84 367.5Q84 376 85 385H37Z" glyph-name="Euro" horiz-adv-x="763" unicode="€" /><glyph d="M328 588Q328 548 316.5 512.5Q305 477 286.5 445Q268 413 243 384.5Q218 356 191 330V99Q191 55 212.5 36.5Q234 18 260 18Q321 18 332 91H352Q348 59 334 39Q320 19 302.5 8Q285 -3 267 -7Q249 -11 235 -11Q208 -11 183 -3Q158 5 138.5 25Q119 45 107 79Q95 113 95 164V250Q85 243 76 235Q68 229 59 222Q50 215 43 210L26 229Q39 238 51.5 247Q64 256 73.5 264Q83 272 89 276.5Q95 281 95 281V541Q95 620 128 666.5Q161 713 226 713Q277 713 302.5 680Q328 647 328 588ZM189 360Q243 414 272.5 472.5Q302 531 302 594Q302 609 299 626Q296 643 288.5 657.5Q281 672 269 681Q257 690 240 690Q221 690 205 675Q189 660 189 620Z" glyph-name="afii61289" horiz-adv-x="378" unicode="ℓ" /><glyph d="M891 700 1053 700V268H927V544L845 345H766L684 543V268H561V700H726L808 489ZM485 700 485 584H332V268H208V584H56V700Z" glyph-name="trademark" horiz-adv-x="1123" unicode="™" /><glyph d="M191 160Q191 128 218 102Q245 76 283.5 58Q322 40 364.5 30Q407 20 438 20Q516 20 585.5 48Q655 76 703 131H750Q696 63 616 26Q536 -11 438 -11Q357 -11 285 17.5Q213 46 159.5 95.5Q106 145 74.5 211Q43 277 43 353Q43 427 74 492.5Q105 558 158 607Q211 656 283.5 684Q356 712 438 712Q529 712 602.5 683Q676 654 727.5 604.5Q779 555 807 488Q835 421 835 344H200Q191 344 191 332ZM677 375Q686 375 686 384V552Q686 585 659.5 609.5Q633 634 595 650Q557 666 514 674Q471 682 438 682Q408 682 365.5 674Q323 666 284.5 650Q246 634 218.5 609.5Q191 585 191 552V384Q191 375 200 375Z" glyph-name="estimated" horiz-adv-x="869" unicode="℮" /><glyph d="M93 700 277 700V362H359V269H86V362H168V607H93ZM861 -9Q786 -9 749 27.5Q712 64 712 124V143H822V127Q822 111 829.5 95.5Q837 80 860 80Q882 80 891.5 94Q901 108 901 131Q901 155 888 170.5Q875 186 845 186Q834 186 820 184.5Q806 183 799 181V273L884 336H730V429H1001V327L903 256Q951 252 982.5 217.5Q1014 183 1014 134Q1014 68 973 29.5Q932 -9 861 -9ZM914 686 241 -37L183 18L856 741Z" glyph-name="onethird" horiz-adv-x="1080" unicode="⅓" /><glyph d="M75 367Q99 385 122 403Q144 420 166.5 437.5Q189 455 208 472Q244 504 254.5 525Q265 546 265 566Q265 586 252 598.5Q239 611 219 611Q201 611 187.5 600Q174 589 174 569Q174 563 175.5 554.5Q177 546 182 532L84 517Q74 538 71 553.5Q68 569 68 584Q68 607 78 629Q88 651 107.5 668.5Q127 686 155.5 696.5Q184 707 220 707Q260 707 289 695Q318 683 337.5 664.5Q357 646 366.5 622Q376 598 376 574Q376 549 369 527Q362 505 347 483Q332 461 308 438.5Q284 416 249 390L216 364H379V269H75ZM914 686 241 -37L183 18L856 741ZM861 -9Q786 -9 749 27.5Q712 64 712 124V143H822V127Q822 111 829.5 95.5Q837 80 860 80Q882 80 891.5 94Q901 108 901 131Q901 155 888 170.5Q875 186 845 186Q834 186 820 184.5Q806 183 799 181V273L884 336H730V429H1001V327L903 256Q951 252 982.5 217.5Q1014 183 1014 134Q1014 68 973 29.5Q932 -9 861 -9Z" glyph-name="twothirds" horiz-adv-x="1080" unicode="⅔" /><glyph d="M93 700 277 700V362H359V269H86V362H168V607H93ZM851 81Q875 81 887.5 95Q900 109 900 128Q900 146 887.5 160.5Q875 175 851 175Q825 175 813 160.5Q801 146 801 128Q801 109 813 95Q825 81 851 81ZM851 436Q920 436 960 401Q1000 366 1000 315Q1000 287 984.5 261Q969 235 937 222Q971 209 989.5 180.5Q1008 152 1008 120Q1008 62 965.5 26.5Q923 -9 851 -9Q779 -9 735.5 26.5Q692 62 692 120Q692 152 711 180.5Q730 209 764 222Q732 235 716.5 261Q701 287 701 315Q701 366 741 401Q781 436 851 436ZM851 260Q873 260 883.5 273.5Q894 287 894 304Q894 321 883.5 334.5Q873 348 851 348Q828 348 817 334.5Q806 321 806 304Q806 287 817 273.5Q828 260 851 260ZM914 686 241 -37L183 18L856 741Z" glyph-name="oneeighth" horiz-adv-x="1080" unicode="⅛" /><glyph d="M239 262Q164 262 127 298.5Q90 335 90 395V414H200V398Q200 382 207.5 366.5Q215 351 238 351Q260 351 269.5 365Q279 379 279 402Q279 426 266 441.5Q253 457 223 457Q212 457 198 455.5Q184 454 177 452V544L262 607H108V700H379V598L281 527Q329 523 360.5 488.5Q392 454 392 405Q392 339 351 300.5Q310 262 239 262ZM914 686 241 -37L183 18L856 741ZM851 81Q875 81 887.5 95Q900 109 900 128Q900 146 887.5 160.5Q875 175 851 175Q825 175 813 160.5Q801 146 801 128Q801 109 813 95Q825 81 851 81ZM851 436Q920 436 960 401Q1000 366 1000 315Q1000 287 984.5 261Q969 235 937 222Q971 209 989.5 180.5Q1008 152 1008 120Q1008 62 965.5 26.5Q923 -9 851 -9Q779 -9 735.5 26.5Q692 62 692 120Q692 152 711 180.5Q730 209 764 222Q732 235 716.5 261Q701 287 701 315Q701 366 741 401Q781 436 851 436ZM851 260Q873 260 883.5 273.5Q894 287 894 304Q894 321 883.5 334.5Q873 348 851 348Q828 348 817 334.5Q806 321 806 304Q806 287 817 273.5Q828 260 851 260Z" glyph-name="threeeighths" horiz-adv-x="1080" unicode="⅜" /><glyph d="M396 415Q396 349 359 305.5Q322 262 246 262Q171 262 133 298.5Q95 335 95 395V414H205V398Q205 382 212.5 366.5Q220 351 243 351Q266 351 274.5 367.5Q283 384 283 409Q283 435 273 451.5Q263 468 240 468Q227 468 217.5 463Q208 458 202 452L110 461V700H379V604H205V540L207 539Q217 547 233 551.5Q249 556 268 556Q328 556 362 517Q396 478 396 415ZM914 686 241 -37L183 18L856 741ZM851 81Q875 81 887.5 95Q900 109 900 128Q900 146 887.5 160.5Q875 175 851 175Q825 175 813 160.5Q801 146 801 128Q801 109 813 95Q825 81 851 81ZM851 436Q920 436 960 401Q1000 366 1000 315Q1000 287 984.5 261Q969 235 937 222Q971 209 989.5 180.5Q1008 152 1008 120Q1008 62 965.5 26.5Q923 -9 851 -9Q779 -9 735.5 26.5Q692 62 692 120Q692 152 711 180.5Q730 209 764 222Q732 235 716.5 261Q701 287 701 315Q701 366 741 401Q781 436 851 436ZM851 260Q873 260 883.5 273.5Q894 287 894 304Q894 321 883.5 334.5Q873 348 851 348Q828 348 817 334.5Q806 321 806 304Q806 287 817 273.5Q828 260 851 260Z" glyph-name="fiveeighths" horiz-adv-x="1080" unicode="⅝" /><glyph d="M156 269 306 602H119V700H416V607L277 269ZM914 686 241 -37L183 18L856 741ZM851 81Q875 81 887.5 95Q900 109 900 128Q900 146 887.5 160.5Q875 175 851 175Q825 175 813 160.5Q801 146 801 128Q801 109 813 95Q825 81 851 81ZM851 436Q920 436 960 401Q1000 366 1000 315Q1000 287 984.5 261Q969 235 937 222Q971 209 989.5 180.5Q1008 152 1008 120Q1008 62 965.5 26.5Q923 -9 851 -9Q779 -9 735.5 26.5Q692 62 692 120Q692 152 711 180.5Q730 209 764 222Q732 235 716.5 261Q701 287 701 315Q701 366 741 401Q781 436 851 436ZM851 260Q873 260 883.5 273.5Q894 287 894 304Q894 321 883.5 334.5Q873 348 851 348Q828 348 817 334.5Q806 321 806 304Q806 287 817 273.5Q828 260 851 260Z" glyph-name="seveneighths" horiz-adv-x="1080" unicode="⅞" /><glyph d="M286 700Q313 676 353.5 633.5Q394 591 431.5 534Q469 477 496 407Q523 337 523 256Q523 204 506.5 155.5Q490 107 458 70Q426 33 379.5 10.5Q333 -12 273 -12Q222 -12 177 6Q132 24 98.5 55.5Q65 87 46 131.5Q27 176 27 228Q27 280 44 323.5Q61 367 91 398.5Q121 430 162 447.5Q203 465 251 465Q281 465 308.5 455.5Q336 446 353 427L358 432Q334 471 298 513Q262 555 225.5 591.5Q189 628 157.5 657Q126 686 111 700ZM274 350Q225 350 193.5 316Q162 282 162 229Q162 177 193.5 142Q225 107 274 107Q324 107 355 142Q386 177 386 229Q386 282 355 316Q324 350 274 350Z" glyph-name="partialdiff" horiz-adv-x="553" unicode="∂" /><glyph d="M442 363Q473 363 488.5 378Q504 393 504 419Q504 445 488.5 460Q473 475 442 475H375V363ZM415 723Q494 723 562.5 695Q631 667 682 617Q733 567 762.5 498.5Q792 430 792 348Q792 266 762.5 197.5Q733 129 682 79.5Q631 30 562.5 2Q494 -26 415 -26Q336 -26 267.5 2Q199 30 148 79.5Q97 129 67.5 197.5Q38 266 38 348Q38 430 67.5 498.5Q97 567 148 617Q199 667 267.5 695Q336 723 415 723ZM415 52Q478 52 531 74Q584 96 621.5 135.5Q659 175 680 229.5Q701 284 701 348Q701 412 680 466Q659 520 621.5 559.5Q584 599 531 621Q478 643 415 643Q352 643 299.5 621Q247 599 209.5 559.5Q172 520 151 466Q130 412 130 348Q130 284 151 229.5Q172 175 209.5 135.5Q247 96 299.5 74Q352 52 415 52ZM375 149 277 149V558H443Q484 558 513.5 547Q543 536 563 517Q583 498 592.5 472.5Q602 447 602 419Q602 391 592.5 365.5Q583 340 563 321Q543 302 513.5 291Q484 280 443 280H375Z" glyph-name="product" horiz-adv-x="830" unicode="∏" /><glyph d="M579 580 216 580L377 387V332L212 119H579V0H45V110L240 355L45 590V700H579Z" glyph-name="summation" horiz-adv-x="629" unicode="∑" /><glyph d="M483 297 36 297V416H483Z" glyph-name="minus" horiz-adv-x="520" unicode="−" /><glyph d="M725 686 52 -37L-6 18L667 741Z" glyph-name="uni2215" horiz-adv-x="719" unicode="∕" /><glyph d="M246 134 412 700H551L328 0H160L18 458H158Z" glyph-name="radical" horiz-adv-x="552" unicode="√" /><glyph d="M670 120Q606 120 555.5 149.5Q505 179 472 236Q439 179 388.5 149.5Q338 120 274 120Q232 120 192.5 134.5Q153 149 122.5 178Q92 207 73.5 250Q55 293 55 350Q55 407 73.5 450Q92 493 122.5 522Q153 551 192.5 565.5Q232 580 274 580Q405 580 472 464Q538 580 670 580Q712 580 751.5 565.5Q791 551 821.5 522Q852 493 870.5 450Q889 407 889 350Q889 293 870.5 250Q852 207 821.5 178Q791 149 751.5 134.5Q712 120 670 120ZM751 350Q751 382 741.5 403Q732 424 717.5 436Q703 448 687 452.5Q671 457 657 457Q640 457 623.5 453Q607 449 590.5 437.5Q574 426 558 405Q542 384 526 350Q542 316 558 295Q574 274 590.5 262.5Q607 251 623.5 247Q640 243 657 243Q671 243 687 247.5Q703 252 717.5 264Q732 276 741.5 297Q751 318 751 350ZM193 350Q193 318 202.5 297Q212 276 226.5 264Q241 252 257.5 247.5Q274 243 287 243Q304 243 320.5 247Q337 251 353.5 262.5Q370 274 386 295Q402 316 418 350Q402 384 386 405Q370 426 353.5 437.5Q337 449 320.5 453Q304 457 287 457Q274 457 257.5 452.5Q241 448 226.5 436Q212 424 202.5 403Q193 382 193 350Z" glyph-name="infinity" horiz-adv-x="944" unicode="∞" /><glyph d="M257 -41Q257 -67 250 -91.5Q243 -116 227.5 -134.5Q212 -153 186 -164.5Q160 -176 121 -176H18V-55H53Q65 -55 77 -54Q89 -53 99 -47.5Q109 -42 115 -32Q121 -22 121 -4V565Q121 591 128 615.5Q135 640 150.5 658.5Q166 677 192 688.5Q218 700 257 700H360V578H325Q313 578 301 577Q289 576 279 571Q269 566 263 556Q257 546 257 528Z" glyph-name="integral" horiz-adv-x="377" unicode="∫" /><glyph d="M381 377Q364 377 333 383.5Q302 390 270.5 398.5Q239 407 213 413.5Q187 420 179 420Q165 420 159.5 413Q154 406 154 395V379H37V427Q37 439 38.5 459Q40 479 49.5 498.5Q59 518 80 532.5Q101 547 140 547Q157 547 188 540.5Q219 534 250.5 525.5Q282 517 308 510.5Q334 504 342 504Q356 504 361 511Q366 518 366 529V545H484V497Q484 485 482.5 465Q481 445 471.5 425.5Q462 406 441 391.5Q420 377 381 377ZM381 172Q364 172 333 178.5Q302 185 270.5 193.5Q239 202 213 208.5Q187 215 179 215Q165 215 159.5 208Q154 201 154 190V174H37V222Q37 234 38.5 254Q40 274 49.5 293.5Q59 313 80 327.5Q101 342 140 342Q157 342 188 335.5Q219 329 250.5 320.5Q282 312 308 305.5Q334 299 342 299Q356 299 361 306Q366 313 366 324V340H484V292Q484 280 482.5 260Q481 240 471.5 220.5Q462 201 441 186.5Q420 172 381 172Z" glyph-name="approxequal" horiz-adv-x="520" unicode="≈" /><glyph d="M197 135 197 197H36V316H197V397H36V516H197V578H321V516H483V397H321V316H483V197H321V135Z" glyph-name="notequal" horiz-adv-x="520" unicode="≠" /><glyph d="M479 0 32 0V119H479ZM479 172 32 331V480L479 639V507L159 406L479 304Z" glyph-name="lessequal" horiz-adv-x="520" unicode="≤" /><glyph d="M40 304 360 406L40 507V639L487 480V331L40 172ZM40 119 487 119V0H40Z" glyph-name="greaterequal" horiz-adv-x="520" unicode="≥" /><glyph d="M515 350 348 0H202L33 350L202 700H348ZM275 561 179 350L275 137L369 350Z" glyph-name="lozenge" horiz-adv-x="549" unicode="◊" /><glyph d="M380 348 217 348V0H87V348H15V458H87V588Q87 622 97.5 645Q108 668 126 682.5Q144 697 167.5 703Q191 709 217 709Q230 709 246.5 708Q263 707 278 706Q295 705 312 703V584Q301 585 290 587Q281 588 272 588.5Q263 589 258 589Q239 589 228 582Q217 575 217 551V458H510V-65Q510 -103 496.5 -125Q483 -147 462 -158Q441 -169 415 -172.5Q389 -176 365 -176H296V-66H341Q361 -66 370.5 -60Q380 -54 380 -37ZM356 616Q356 651 380 675.5Q404 700 439 700Q474 700 498.5 675.5Q523 651 523 616Q523 581 498.5 557Q474 533 439 533Q404 533 380 557Q356 581 356 616Z" glyph-name="f_j" horiz-adv-x="564" unicode="" /><glyph d="M380 588Q380 622 390.5 645Q401 668 419 682.5Q437 697 460.5 703Q484 709 510 709Q523 709 539.5 708Q556 707 571 706Q588 705 605 703V584Q594 585 583 587Q574 588 565 588.5Q556 589 551 589Q532 589 521 582Q510 575 510 551V458H598V348H510V0H380V348H217V0H87V348H15V458H87V588Q87 622 97.5 645Q108 668 126 682.5Q144 697 167.5 703Q191 709 217 709Q230 709 246.5 708Q263 707 278 706Q295 705 312 703V584Q301 585 290 587Q281 588 272 588.5Q263 589 258 589Q239 589 228 582Q217 575 217 551V458H380Z" glyph-name="ff" horiz-adv-x="615" unicode="" /><glyph d="M803 0 673 0V348H510V0H380V348H217V0H87V348H15V458H87V588Q87 622 97.5 645Q108 668 126 682.5Q144 697 167.5 703Q191 709 217 709Q230 709 246.5 708Q263 707 278 706Q295 705 312 703V584Q301 585 290 587Q281 588 272 588.5Q263 589 258 589Q239 589 228 582Q217 575 217 551V458H380V588Q380 622 390.5 645Q401 668 419 682.5Q437 697 460.5 703Q484 709 510 709Q523 709 539.5 708Q556 707 571 706Q588 705 605 703V584Q594 585 583 587Q574 588 565 588.5Q556 589 551 589Q532 589 521 582Q510 575 510 551V458H803ZM649 616Q649 651 673 675.5Q697 700 732 700Q767 700 791.5 675.5Q816 651 816 616Q816 581 791.5 557Q767 533 732 533Q697 533 673 557Q649 581 649 616Z" glyph-name="ffi" horiz-adv-x="857" unicode="ﬃ" /><glyph d="M802 0 673 0V348H510V0H380V348H217V0H87V348H15V458H87V588Q87 622 97.5 645Q108 668 126 682.5Q144 697 167.5 703Q191 709 217 709Q230 709 246.5 708Q263 707 278 706Q295 705 312 703V584Q301 585 290 587Q281 588 272 588.5Q263 589 258 589Q239 589 228 582Q217 575 217 551V458H380V588Q380 622 390.5 645Q401 668 419 682.5Q437 697 460.5 703Q484 709 510 709Q523 709 539.5 708Q556 707 571 706Q588 705 605 703V584Q594 585 583 587Q574 588 565 588.5Q556 589 551 589Q532 589 521 582Q510 575 510 551V458H673V700H802Z" glyph-name="ffl" horiz-adv-x="858" unicode="" /><glyph d="M510 0 380 0V348H217V0H87V348H15V458H87V588Q87 622 97.5 645Q108 668 126 682.5Q144 697 167.5 703Q191 709 217 709Q230 709 246.5 708Q263 707 278 706Q295 705 312 703V584Q301 585 290 587Q281 588 272 588.5Q263 589 258 589Q239 589 228 582Q217 575 217 551V458H510ZM356 616Q356 651 380 675.5Q404 700 439 700Q474 700 498.5 675.5Q523 651 523 616Q523 581 498.5 557Q474 533 439 533Q404 533 380 557Q356 581 356 616Z" glyph-name="fi" horiz-adv-x="564" unicode="ﬁ" /><glyph d="M509 0 380 0V348H217V0H87V348H15V458H87V588Q87 622 97.5 645Q108 668 126 682.5Q144 697 167.5 703Q191 709 217 709Q230 709 246.5 708Q263 707 278 706Q295 705 312 703V584Q301 585 290 587Q281 588 272 588.5Q263 589 258 589Q239 589 228 582Q217 575 217 551V458H380V700H509Z" glyph-name="fl" horiz-adv-x="565" unicode="ﬂ" /><glyph d="M367 55Q338 20 300 5Q262 -10 217 -10Q181 -10 148.5 2Q116 14 91.5 35.5Q67 57 53 87Q39 117 39 153Q39 201 64.5 240.5Q90 280 137 312Q114 338 104 365Q94 392 94 421Q94 443 103.5 469Q113 495 134 517.5Q155 540 188.5 555Q222 570 271 570Q305 570 334 559.5Q363 549 384 531.5Q405 514 417 490.5Q429 467 429 441Q429 427 426 408Q423 389 410 370L302 378Q311 398 311 414Q311 436 299.5 448.5Q288 461 268 461Q245 461 233 445.5Q221 430 221 412Q221 377 260 338Q265 334 280.5 318Q296 302 313 284Q330 266 344.5 251Q359 236 361 234Q371 253 379.5 274.5Q388 296 393 314H536Q515 261 492.5 218Q470 175 451 147L571 25V0H422ZM224 103Q241 103 257.5 112Q274 121 284 138Q281 142 269.5 154Q258 166 244.5 179.5Q231 193 219.5 205Q208 217 204 221Q170 187 170 156Q170 132 187 117.5Q204 103 224 103Z" glyph-name="ampersand.smcp" horiz-adv-x="581" unicode="" /><glyph d="M60 -117Q60 -85 82.5 -63Q105 -41 137 -41Q170 -41 193 -63Q216 -85 216 -117Q216 -126 212 -141Q208 -156 203 -164L145 -270H53L93 -179Q78 -169 69 -153Q60 -137 60 -117Z" glyph-name="commaaccent" horiz-adv-x="273" unicode="" /><glyph d="M243 570Q287 570 323.5 552.5Q360 535 387 499Q414 463 429 409Q444 355 444 281Q444 206 429 151.5Q414 97 387 61Q360 25 323.5 7.5Q287 -10 243 -10Q199 -10 161.5 7.5Q124 25 97 61Q70 97 55 151.5Q40 206 40 281Q40 355 55 409Q70 463 97 499Q124 535 161.5 552.5Q199 570 243 570ZM171 281Q171 196 188.5 153Q206 110 243 110Q278 110 295.5 153Q313 196 313 281Q313 451 243 451Q171 451 171 281Z" glyph-name="zero.smcp" horiz-adv-x="484" unicode="" /><glyph d="M87 560 318 560V113H425V0H79V113H187V447H87Z" glyph-name="one.smcp" horiz-adv-x="484" unicode="" /><glyph d="M52 114Q82 138 112 163Q139 186 167.5 210.5Q196 235 221 258Q245 281 260.5 299Q276 317 284.5 332.5Q293 348 296 362.5Q299 377 299 392Q299 417 282.5 435Q266 453 235 453Q208 453 189.5 437.5Q171 422 171 396Q171 387 173.5 374.5Q176 362 184 343L65 323Q51 349 47 370.5Q43 392 43 412Q43 442 56 470Q69 498 93.5 520.5Q118 543 154.5 556.5Q191 570 237 570Q287 570 324 555Q361 540 385 516Q409 492 421 461.5Q433 431 433 400Q433 373 426.5 346Q420 319 402 289.5Q384 260 352.5 226.5Q321 193 270 153L222 114H438V0H52Z" glyph-name="two.smcp" horiz-adv-x="484" unicode="" /><glyph d="M236 -10Q141 -10 92.5 37.5Q44 85 44 162V187H177V165Q177 141 189.5 119.5Q202 98 234 98Q264 98 279 119Q294 140 294 172Q294 206 275.5 228Q257 250 215 250Q201 250 182.5 248Q164 246 156 244V364L268 447H66V560H417V434L278 338Q312 337 340 323.5Q368 310 388.5 288Q409 266 420 237Q431 208 431 176Q431 91 379 40.5Q327 -10 236 -10Z" glyph-name="three.smcp" horiz-adv-x="484" unicode="" /><glyph d="M30 241 216 560H376V240H438V131H376V0H251V131H30ZM140 240 251 240V428H249Z" glyph-name="four.smcp" horiz-adv-x="484" unicode="" /><glyph d="M437 188Q437 145 424.5 109Q412 73 388 46.5Q364 20 328 5Q292 -10 244 -10Q149 -10 100.5 37.5Q52 85 52 162V187H185V165Q185 141 197 119.5Q209 98 241 98Q274 98 287.5 122Q301 146 301 181Q301 217 287 241Q273 265 238 265Q219 265 205 258.5Q191 252 183 244L73 254V560H416V447H187V353L189 351Q204 361 227 366.5Q250 372 270 372Q309 372 340 358.5Q371 345 392.5 320.5Q414 296 425.5 262.5Q437 229 437 188Z" glyph-name="five.smcp" horiz-adv-x="484" unicode="" /><glyph d="M418 560 404 549Q389 536 363 513.5Q337 491 308.5 463Q280 435 252 403Q224 371 203 339L208 337Q216 342 231.5 348Q247 354 274 354Q306 354 337 343.5Q368 333 392 311.5Q416 290 430.5 257Q445 224 445 179Q445 137 430.5 102Q416 67 390 42Q364 17 328 3.5Q292 -10 248 -10Q201 -10 162.5 5.5Q124 21 97 48Q70 75 55 112.5Q40 150 40 194Q40 256 60.5 310Q81 364 110 409Q139 454 172 488Q205 522 229 544L247 560ZM171 176Q171 144 189 121Q207 98 243 98Q278 98 295.5 121Q313 144 313 176Q313 208 295.5 231.5Q278 255 243 255Q207 255 189 231.5Q171 208 171 176Z" glyph-name="six.smcp" horiz-adv-x="484" unicode="" /><glyph d="M74 181 64 560H201L191 181ZM56 67Q56 99 78.5 122Q101 145 133 145Q165 145 187.5 122Q210 99 210 67Q210 35 187.5 12.5Q165 -10 133 -10Q101 -10 78.5 12.5Q56 35 56 67Z" glyph-name="exclam.smcp" horiz-adv-x="266" unicode="" /><glyph d="M56 493Q56 525 78.5 547.5Q101 570 133 570Q165 570 187.5 547.5Q210 525 210 493Q210 461 187.5 438Q165 415 133 415Q101 415 78.5 438Q56 461 56 493ZM191 379 201 0H64L74 379Z" glyph-name="exclamdown.smcp" horiz-adv-x="266" unicode="" /><glyph d="M66 0 80 11Q95 24 121 46.5Q147 69 175.5 97Q204 125 232 157Q260 189 281 221L276 223Q268 218 252.5 212Q237 206 210 206Q178 206 147 216.5Q116 227 92 248.5Q68 270 53.5 303Q39 336 39 381Q39 423 53.5 458Q68 493 94 518Q120 543 156.5 556.5Q193 570 237 570Q284 570 322.5 554.5Q361 539 388 512Q415 485 429.5 447.5Q444 410 444 366Q444 305 423.5 250.5Q403 196 374 151Q345 106 312 72Q279 38 255 16L238 0ZM313 384Q313 416 295 439Q277 462 241 462Q206 462 188.5 439Q171 416 171 384Q171 352 188.5 328.5Q206 305 241 305Q277 305 295 328.5Q313 352 313 384Z" glyph-name="nine.smcp" horiz-adv-x="484" unicode="" /><glyph d="M392 404Q392 384 387.5 359.5Q383 335 369.5 312Q356 289 332.5 270Q309 251 271 242L267 171H150L141 321L174 322Q198 323 214.5 330Q231 337 241 347.5Q251 358 255 370.5Q259 383 259 395Q259 420 244.5 435.5Q230 451 205 451Q178 451 166.5 433.5Q155 416 155 395V388H30V403Q30 481 79.5 525.5Q129 570 210 570Q250 570 283.5 558Q317 546 341 524Q365 502 378.5 471.5Q392 441 392 404ZM132 67Q132 99 154.5 122Q177 145 209 145Q241 145 264 122Q287 99 287 67Q287 35 264 12.5Q241 -10 209 -10Q177 -10 154.5 12.5Q132 35 132 67Z" glyph-name="question.smcp" horiz-adv-x="432" unicode="" /><glyph d="M40 156Q40 176 44.5 200.5Q49 225 62.5 248Q76 271 99.5 290Q123 309 161 318L165 389H282L291 239L258 238Q234 237 217.5 230Q201 223 191 212.5Q181 202 177 189.5Q173 177 173 165Q173 140 187.5 124.5Q202 109 227 109Q254 109 265.5 126.5Q277 144 277 165V172H402V157Q402 79 352.5 34.5Q303 -10 222 -10Q182 -10 148.5 2Q115 14 91 36Q67 58 53.5 88.5Q40 119 40 156ZM300 493Q300 461 277.5 438Q255 415 223 415Q191 415 168 438Q145 461 145 493Q145 525 168 547.5Q191 570 223 570Q255 570 277.5 547.5Q300 525 300 493Z" glyph-name="questiondown.smcp" horiz-adv-x="432" unicode="" /><glyph d="M221 560 333 560L143 0H31Z" glyph-name="slash.smcp" horiz-adv-x="364" unicode="" /><glyph d="M333 0 221 0L31 560H143Z" glyph-name="backslash.smcp" horiz-adv-x="364" unicode="" /><glyph d="M70 608 161 608V-74H70Z" glyph-name="bar.smcp" horiz-adv-x="231" unicode="" /><glyph d="M70 309 70 608H161V309ZM70 -74 70 224H161V-74Z" glyph-name="brokenbar.smcp" horiz-adv-x="231" unicode="" /><glyph d="M25 -15Q55 -15 64 -3Q73 9 73 42V700H212V6Q212 -63 179.5 -99Q147 -135 65 -135H-21V-15Z" glyph-name="J.alt" horiz-adv-x="285" unicode="" /><glyph d="M36 351Q36 470 83 572.5Q130 675 206 769H323V753Q290 714 262 667.5Q234 621 214 570Q194 519 182.5 463.5Q171 408 171 351Q171 294 182.5 236Q194 178 214 123Q234 68 262 19Q290 -30 323 -69V-84H206Q130 9 83 120Q36 231 36 351Z" glyph-name="parenleft.cap" horiz-adv-x="342" unicode="" /><glyph d="M306 351Q306 231 259 120Q212 9 136 -84H19V-69Q52 -30 80 19Q108 68 128 123Q148 178 159.5 236Q171 294 171 351Q171 408 159.5 463.5Q148 519 128 570Q108 621 80 667.5Q52 714 19 753V769H136Q212 675 259 572.5Q306 470 306 351Z" glyph-name="parenright.cap" horiz-adv-x="342" unicode="" /><glyph d="M211 658 211 38H344V-78H75V775H344V658Z" glyph-name="bracketleft.cap" horiz-adv-x="383" unicode="" /><glyph d="M39 658 39 775H308V-78H39V39H172V658Z" glyph-name="bracketright.cap" horiz-adv-x="383" unicode="" /><glyph d="M241 468Q241 456 239.5 442Q238 428 232.5 414Q227 400 216 388Q205 376 185 368Q205 360 216 348Q227 336 232.5 322Q238 308 239.5 294Q241 280 241 268V39H357V-78H105V307H30V426H105V775H357V658H241Z" glyph-name="braceleft.cap" horiz-adv-x="396" unicode="" /><glyph d="M155 658 39 658V775H291V426H366V307H291V-78H39V39H155V268Q155 280 156.5 294Q158 308 163.5 322Q169 336 180.5 348Q192 360 211 368Q192 376 180.5 388Q169 400 163.5 414Q158 428 156.5 442Q155 456 155 468Z" glyph-name="braceright.cap" horiz-adv-x="396" unicode="" /><glyph d="M161 284Q161 239 170 192.5Q179 146 194.5 102Q210 58 231.5 18.5Q253 -21 278 -52V-64H170Q110 10 72.5 100Q35 190 35 284Q35 379 72.5 461Q110 543 170 618H278V605Q253 575 231.5 537.5Q210 500 194.5 458.5Q179 417 170 373Q161 329 161 284Z" glyph-name="parenleft.smcp" horiz-adv-x="305" unicode="" /><glyph d="M144 284Q144 329 135 373Q126 417 110.5 458.5Q95 500 73.5 537.5Q52 575 27 605V618H135Q195 543 232.5 461Q270 379 270 284Q270 190 232.5 100Q195 10 135 -64H27V-52Q52 -21 73.5 18.5Q95 58 110.5 102Q126 146 135 192.5Q144 239 144 284Z" glyph-name="parenright.smcp" horiz-adv-x="305" unicode="" /><glyph d="M197 508 197 45H301V-64H70V618H301V508Z" glyph-name="bracketleft.smcp" horiz-adv-x="340" unicode="" /><glyph d="M39 508 39 618H270V-64H39V45H143V508Z" glyph-name="bracketright.smcp" horiz-adv-x="340" unicode="" /><glyph d="M218 365Q218 349 210 326.5Q202 304 171 292Q202 280 210 258Q218 236 218 219V45H302V-64H91V235H32V346H91V618H302V508H218Z" glyph-name="braceleft.smcp" horiz-adv-x="343" unicode="" /><glyph d="M125 508 41 508V618H252V346H311V235H252V-64H41V45H125V219Q125 236 133 258Q141 280 172 292Q141 304 133 326.5Q125 349 125 365Z" glyph-name="braceright.smcp" horiz-adv-x="343" unicode="" /><glyph d="M100 0 303 447H50V560H427V447L243 0Z" glyph-name="seven.smcp" horiz-adv-x="484" unicode="" /><glyph d="M242 99Q277 99 294.5 119.5Q312 140 312 166Q312 192 294.5 212.5Q277 233 242 233Q207 233 189 212.5Q171 192 171 166Q171 140 189 119.5Q207 99 242 99ZM242 570Q286 570 320.5 558Q355 546 380 524.5Q405 503 418 474Q431 445 431 412Q431 376 410.5 342Q390 308 350 291Q394 274 418 237.5Q442 201 442 158Q442 119 427.5 88Q413 57 387 35Q361 13 324 1.5Q287 -10 242 -10Q151 -10 96 35Q41 80 41 158Q41 201 65.5 238Q90 275 133 291Q93 308 72.5 342Q52 376 52 412Q52 445 65 474Q78 503 103 524.5Q128 546 163 558Q198 570 242 570ZM242 337Q274 337 288.5 355.5Q303 374 303 400Q303 426 288.5 444.5Q274 463 242 463Q209 463 194.5 444.5Q180 426 180 400Q180 374 194.5 355.5Q209 337 242 337Z" glyph-name="eight.smcp" horiz-adv-x="484" unicode="" /><glyph d="M73 700 212 700V0H73ZM310 -15Q340 -15 349 -3Q358 9 358 42V700H497V6Q497 -63 464.5 -99Q432 -135 350 -135H264V-15Z" glyph-name="IJ.alt" horiz-adv-x="570" unicode="" /><glyph d="M49 321 85 321Q78 338 73.5 357.5Q69 377 69 397Q69 434 82 465.5Q95 497 120 520.5Q145 544 181.5 557Q218 570 265 570Q304 570 338.5 558Q373 546 398.5 524Q424 502 438.5 471Q453 440 453 401V389H323Q323 416 309 436Q295 456 263 456Q240 456 222 439.5Q204 423 204 390Q204 373 207.5 357Q211 341 219 321H383V231H247Q249 220 251 210Q253 200 253 189Q253 164 242.5 144.5Q232 125 215 112H438V0H49V112H106Q106 112 111 116Q116 120 122 127.5Q128 135 133 146Q138 157 138 170Q138 188 133.5 202Q129 216 121 231H49Z" glyph-name="sterling.smcp" horiz-adv-x="491" unicode="" /><glyph d="M102 149 37 149V259H102V452Q102 473 107.5 492.5Q113 512 125.5 527Q138 542 159.5 551Q181 560 212 560H311V444H283Q274 444 264 443.5Q254 443 246.5 439Q239 435 234 427.5Q229 420 229 405V259H294V149H229V-30Q229 -51 224 -71Q219 -91 206 -106.5Q193 -122 172 -131.5Q151 -141 119 -141H19V-24H47Q57 -24 66.5 -23.5Q76 -23 84 -19.5Q92 -16 97 -8.5Q102 -1 102 14Z" glyph-name="florin.smcp" horiz-adv-x="353" unicode="" /><glyph d="M235 240 94 240V329H179L28 560H184L299 365H304L418 560H569L419 329H507V240H365V181H507V91H365V0H235V91H94V181H235Z" glyph-name="yen.smcp" horiz-adv-x="598" unicode="" /><glyph d="M51 421 121 421V536H217V421H270V536H366V421H437V330H366V262H437V171H366V55H270V171H217V55H121V171H51V262H121V330H51ZM217 262 270 262V330H217Z" glyph-name="numbersign.smcp" horiz-adv-x="487" unicode="" /><glyph d="M48 436Q48 464 58.5 488.5Q69 513 88 531Q107 549 132 559.5Q157 570 186 570Q214 570 238.5 559.5Q263 549 281.5 531Q300 513 311 488.5Q322 464 322 436Q322 408 311 383.5Q300 359 281.5 341Q263 323 238.5 312.5Q214 302 186 302Q157 302 132 312.5Q107 323 88 341Q69 359 58.5 383.5Q48 408 48 436ZM140 436Q140 415 153.5 400.5Q167 386 186 386Q204 386 217 400.5Q230 415 230 436Q230 456 217 470.5Q204 485 186 485Q167 485 153.5 470.5Q140 456 140 436ZM558 124Q558 96 547.5 71.5Q537 47 518 29Q499 11 474.5 0.5Q450 -10 421 -10Q393 -10 368 0.5Q343 11 324 29Q305 47 294.5 71.5Q284 96 284 124Q284 151 294.5 175.5Q305 200 324 218Q343 236 368 246.5Q393 257 421 257Q450 257 474.5 246.5Q499 236 518 218Q537 200 547.5 175.5Q558 151 558 124ZM466 124Q466 145 452 159Q438 173 421 173Q403 173 389 159Q375 145 375 124Q375 103 389 88.5Q403 74 421 74Q438 74 452 88.5Q466 103 466 124ZM87 67 44 128L513 488L559 430Z" glyph-name="percent.smcp" horiz-adv-x="597" unicode="" /><glyph d="M56 436Q56 464 66.5 488.5Q77 513 96 531Q115 549 140 559.5Q165 570 194 570Q222 570 246.5 559.5Q271 549 289.5 531Q308 513 319 488.5Q330 464 330 436Q330 408 319 383.5Q308 359 289.5 341Q271 323 246.5 312.5Q222 302 194 302Q165 302 140 312.5Q115 323 96 341Q77 359 66.5 383.5Q56 408 56 436ZM148 436Q148 415 161.5 400.5Q175 386 194 386Q212 386 225 400.5Q238 415 238 436Q238 456 225 470.5Q212 485 194 485Q175 485 161.5 470.5Q148 456 148 436ZM566 124Q566 96 555.5 71.5Q545 47 526 29Q507 11 482.5 0.5Q458 -10 429 -10Q401 -10 376 0.5Q351 11 332 29Q313 47 302.5 71.5Q292 96 292 124Q292 151 302.5 175.5Q313 200 332 218Q351 236 376 246.5Q401 257 429 257Q458 257 482.5 246.5Q507 236 526 218Q545 200 555.5 175.5Q566 151 566 124ZM474 124Q474 145 460 159Q446 173 429 173Q411 173 397 159Q383 145 383 124Q383 103 397 88.5Q411 74 429 74Q446 74 460 88.5Q474 103 474 124ZM95 67 52 128L521 488L567 430ZM863 124Q863 96 852.5 71.5Q842 47 823 29Q804 11 779.5 0.5Q755 -10 726 -10Q698 -10 673 0.5Q648 11 629 29Q610 47 599.5 71.5Q589 96 589 124Q589 151 599.5 175.5Q610 200 629 218Q648 236 673 246.5Q698 257 726 257Q755 257 779.5 246.5Q804 236 823 218Q842 200 852.5 175.5Q863 151 863 124ZM771 124Q771 145 757 159Q743 173 726 173Q708 173 694 159Q680 145 680 124Q680 103 694 88.5Q708 74 726 74Q743 74 757 88.5Q771 103 771 124Z" glyph-name="perthousand.smcp" horiz-adv-x="892" unicode="" /><glyph d="M287 377 406 377V266H287V144H169V266H49V377H169V499H287ZM49 111 406 111V0H49Z" glyph-name="plusminus.smcp" horiz-adv-x="456" unicode="" /><glyph d="M238 362 343 468L425 389L318 283L425 175L343 97L238 203L133 97L50 175L158 283L50 389L133 468Z" glyph-name="multiply.smcp" horiz-adv-x="476" unicode="" /><glyph d="M406 230 49 230V341H406ZM150 133Q150 165 172.5 187.5Q195 210 227 210Q259 210 282 187.5Q305 165 305 133Q305 101 282 78.5Q259 56 227 56Q195 56 172.5 78.5Q150 101 150 133ZM150 437Q150 469 172.5 492Q195 515 227 515Q259 515 282 492Q305 469 305 437Q305 405 282 382.5Q259 360 227 360Q195 360 172.5 382.5Q150 405 150 437Z" glyph-name="divide.smcp" horiz-adv-x="456" unicode="" /><glyph d="M49 424 169 424V464H286V424H406V312H286V258H406V147H286V107H169V147H49V258H169V312H49Z" glyph-name="notequal.smcp" horiz-adv-x="456" unicode="" /><glyph d="M136 448Q149 448 171 443Q193 438 214.5 432Q236 426 254 421Q272 416 278 416Q297 416 297 433V447H407V392Q407 381 406 364.5Q405 348 397 333Q389 318 371.5 307Q354 296 322 296Q309 296 287 301Q265 306 243 312.5Q221 319 203 324Q185 329 179 329Q160 329 160 312V298H50V352Q50 363 51.5 379.5Q53 396 61 411Q69 426 86.5 437Q104 448 136 448ZM136 275Q149 275 171 270Q193 265 214.5 259Q236 253 254 248Q272 243 278 243Q297 243 297 260V274H407V219Q407 208 406 191.5Q405 175 397 160Q389 145 371.5 134Q354 123 322 123Q309 123 287 128Q265 133 243 139Q221 145 203 150Q185 155 179 155Q160 155 160 139V125H50V179Q50 190 51.5 206.5Q53 223 61 238Q69 253 86.5 264Q104 275 136 275Z" glyph-name="approxequal.smcp" horiz-adv-x="456" unicode="" /><glyph d="M545 227 260 227L361 111L280 33L45 285L280 539L361 461L260 345H545Z" glyph-name="less.smcp" horiz-adv-x="600" unicode="" /><glyph d="M54 345 339 345L239 461L319 539L554 285L319 33L239 111L339 227H54Z" glyph-name="greater.smcp" horiz-adv-x="600" unicode="" /><glyph d="M399 146 42 274V421L399 549V428L147 348L399 267ZM42 0 42 111H399V0Z" glyph-name="lessequal.smcp" horiz-adv-x="456" unicode="" /><glyph d="M57 0 57 111H414V0ZM57 267 309 348L57 428V549L414 421V274L57 146Z" glyph-name="greaterequal.smcp" horiz-adv-x="456" unicode="" /><glyph d="M289 712Q344 712 389 690Q434 668 466 623.5Q498 579 515.5 511Q533 443 533 351Q533 258 515.5 189.5Q498 121 466 76Q434 31 389 9.5Q344 -12 289 -12Q234 -12 188.5 9.5Q143 31 111 76Q79 121 61.5 189.5Q44 258 44 351Q44 443 61.5 511Q79 579 111 623.5Q143 668 188.5 690Q234 712 289 712ZM187 351Q187 233 211.5 174.5Q236 116 289 116Q391 116 391 351Q391 467 366 526Q341 585 289 585Q236 585 211.5 526Q187 467 187 351Z" glyph-name="zero.alt" horiz-adv-x="577" unicode="" /><glyph d="M51 700 319 700V120H454V0H43V120H178V580H51Z" glyph-name="one.alt" horiz-adv-x="474" unicode="" /><glyph d="M52 120Q86 150 122 183Q155 212 190 244Q225 276 259 308Q292 339 313 365Q334 391 345.5 413.5Q357 436 361.5 457Q366 478 366 499Q366 535 342 562Q318 589 273 589Q233 589 206.5 566.5Q180 544 180 506Q180 492 183.5 474.5Q187 457 198 433L70 410Q54 441 49 466.5Q44 492 44 518Q44 555 59 590Q74 625 103.5 652Q133 679 176 695.5Q219 712 275 712Q332 712 376 694.5Q420 677 449.5 648.5Q479 620 494 583Q509 546 509 506Q509 475 502 443Q495 411 474 374.5Q453 338 414 293.5Q375 249 311 193L228 120H518V0H52Z" glyph-name="two.alt" horiz-adv-x="562" unicode="" /><glyph d="M268 -12Q212 -12 168.5 4Q125 20 95.5 48Q66 76 50.5 115Q35 154 35 200V231H177V201Q177 182 181.5 164.5Q186 147 196.5 133.5Q207 120 223.5 111.5Q240 103 265 103Q313 103 335 134.5Q357 166 357 214Q357 262 329 294Q301 326 244 326Q228 326 205 324Q182 322 171 319V443L331 580H68V700H488V567L307 422Q350 421 385.5 404Q421 387 447 359.5Q473 332 487.5 295Q502 258 502 216Q502 166 485 124Q468 82 437.5 52Q407 22 364 5Q321 -12 268 -12Z" glyph-name="three.alt" horiz-adv-x="547" unicode="" /><glyph d="M25 295 261 700H439V294H527V179H439V0H304V179H25ZM145 294 304 294V560H299Z" glyph-name="four.alt" horiz-adv-x="555" unicode="" /><glyph d="M183 201Q183 182 187.5 164.5Q192 147 202 133.5Q212 120 229 111.5Q246 103 270 103Q321 103 341.5 137.5Q362 172 362 224Q362 277 340.5 311.5Q319 346 268 346Q241 346 220.5 337Q200 328 188 316L71 329V700H482V580H193V435H198Q216 449 245.5 455Q275 461 298 461Q348 461 387 444Q426 427 452.5 396.5Q479 366 493 324Q507 282 507 232Q507 179 492 134Q477 89 447.5 56.5Q418 24 374.5 6Q331 -12 274 -12Q218 -12 174.5 4Q131 20 101.5 48Q72 76 56.5 115Q41 154 41 200V231H183Z" glyph-name="five.alt" horiz-adv-x="547" unicode="" /><glyph d="M219 410Q227 418 250.5 428.5Q274 439 312 439Q352 439 390 425.5Q428 412 457.5 385Q487 358 505 317Q523 276 523 220Q523 168 505.5 125Q488 82 456.5 51.5Q425 21 381.5 4.5Q338 -12 285 -12Q229 -12 183.5 6Q138 24 105.5 57Q73 90 55.5 135.5Q38 181 38 236Q38 312 63 379.5Q88 447 124 503.5Q160 560 200 604.5Q240 649 271 679L293 700H477L463 688Q444 672 413 643Q382 614 347 577Q312 540 276.5 498Q241 456 214 412ZM178 214Q178 168 203.5 134.5Q229 101 281 101Q331 101 356.5 134.5Q382 168 382 214Q382 261 356.5 295Q331 329 281 329Q229 329 203.5 295Q178 261 178 214Z" glyph-name="six.alt" horiz-adv-x="553" unicode="" /><glyph d="M91 0 340 580H25V700H475V580L245 0Z" glyph-name="seven.alt" horiz-adv-x="495" unicode="" /><glyph d="M286 712Q338 712 380 697.5Q422 683 451.5 656.5Q481 630 497 594Q513 558 513 515Q513 468 487 426Q461 384 413 363Q465 343 496.5 296.5Q528 250 528 195Q528 147 510.5 108.5Q493 70 461 43.5Q429 17 384.5 2.5Q340 -12 286 -12Q232 -12 187.5 2.5Q143 17 111 43.5Q79 70 61.5 108.5Q44 147 44 195Q44 250 75.5 296.5Q107 343 159 363Q110 384 84 426Q58 468 58 515Q58 558 74 594Q90 630 120 656.5Q150 683 192 697.5Q234 712 286 712ZM286 412Q334 412 355 439.5Q376 467 376 505Q376 543 355 570Q334 597 286 597Q238 597 216.5 570Q195 543 195 505Q195 467 216.5 439.5Q238 412 286 412ZM286 103Q337 103 362.5 133Q388 163 388 202Q388 240 362 270.5Q336 301 286 301Q235 301 209 270.5Q183 240 183 202Q183 163 209 133Q235 103 286 103Z" glyph-name="eight.alt" horiz-adv-x="571" unicode="" /><glyph d="M334 290Q326 282 302.5 271.5Q279 261 241 261Q201 261 163 274.5Q125 288 95.5 315Q66 342 48 383Q30 424 30 480Q30 533 47.5 575.5Q65 618 96.5 648.5Q128 679 171.5 695.5Q215 712 268 712Q324 712 369.5 694Q415 676 447.5 643Q480 610 497.5 564.5Q515 519 515 464Q515 388 490 320.5Q465 253 429 196.5Q393 140 353 95.5Q313 51 282 21L260 0H76L90 12Q109 29 140 57.5Q171 86 206 123Q241 160 276.5 202.5Q312 245 339 288ZM375 486Q375 532 349.5 565.5Q324 599 272 599Q222 599 196.5 565.5Q171 532 171 486Q171 440 196.5 405.5Q222 371 272 371Q324 371 349.5 405.5Q375 440 375 486Z" glyph-name="nine.alt" horiz-adv-x="553" unicode="" /><glyph d="M275 510Q325 510 368 494Q411 478 443 446Q475 414 493.5 365Q512 316 512 250Q512 183 493.5 133.5Q475 84 443 51.5Q411 19 368 3.5Q325 -12 275 -12Q226 -12 182.5 3.5Q139 19 106.5 51.5Q74 84 55.5 133.5Q37 183 37 250Q37 316 55.5 365Q74 414 106.5 446Q139 478 182.5 494Q226 510 275 510ZM177 250Q177 177 203.5 140.5Q230 104 275 104Q318 104 346 140.5Q374 177 374 250Q374 322 346 358Q318 394 275 394Q230 394 203.5 358Q177 322 177 250Z" glyph-name="zero.posf" horiz-adv-x="549" unicode="" /><glyph d="M51 495 287 495V114H394V0H45V114H151V381H51Z" glyph-name="one.posf" horiz-adv-x="418" unicode="" /><glyph d="M48 120 199 199Q236 219 262.5 234Q289 249 305.5 263Q322 277 329.5 292.5Q337 308 337 328Q337 339 332.5 351.5Q328 364 318.5 374.5Q309 385 293.5 392Q278 399 256 399Q219 399 197 378Q175 357 175 328Q175 316 178.5 302.5Q182 289 191 275L69 256Q55 279 50 300Q45 321 45 344Q45 377 60 407Q75 437 103 460Q131 483 171 496.5Q211 510 261 510Q311 510 350 495.5Q389 481 417 457Q445 433 459.5 401Q474 369 474 334Q474 298 463.5 271Q453 244 434 222Q415 200 388.5 183Q362 166 329 150L254 114H473V0H48Z" glyph-name="two.posf" horiz-adv-x="519" unicode="" /><glyph d="M246 -55Q290 -55 310.5 -26.5Q331 2 331 46Q331 90 304.5 115.5Q278 141 226 141Q211 141 189 139Q167 137 156 133V251L308 381H58V495H457V370L293 239Q332 237 364.5 221Q397 205 420.5 179.5Q444 154 457 120Q470 86 470 48Q470 2 454 -37Q438 -76 409 -104.5Q380 -133 339.5 -148.5Q299 -164 249 -164Q196 -164 155 -149.5Q114 -135 86.5 -108.5Q59 -82 44.5 -46Q30 -10 30 33V64H167V34Q167 17 171 1Q175 -15 184 -27.5Q193 -40 208.5 -47.5Q224 -55 246 -55Z" glyph-name="three.posf" horiz-adv-x="506" unicode="" /><glyph d="M20 122 243 495H414V122H496V13H414V-152H282V13H20ZM140 122 282 122V362H280Z" glyph-name="four.posf" horiz-adv-x="519" unicode="" /><glyph d="M170 34Q170 17 174 1Q178 -15 187 -27.5Q196 -40 211.5 -47.5Q227 -55 249 -55Q295 -55 314.5 -23.5Q334 8 334 56Q334 103 313.5 134.5Q293 166 247 166Q221 166 202 157.5Q183 149 172 138L60 150V495H450V381H178V250Q197 264 225.5 270Q254 276 275 276Q322 276 359 260Q396 244 421.5 216Q447 188 460 149Q473 110 473 63Q473 14 458.5 -27.5Q444 -69 416.5 -99.5Q389 -130 348 -147Q307 -164 253 -164Q200 -164 159 -149.5Q118 -135 90 -108.5Q62 -82 47.5 -46Q33 -10 33 33V64H170Z" glyph-name="five.posf" horiz-adv-x="506" unicode="" /><glyph d="M213 381Q222 389 244.5 398Q267 407 302 407Q340 407 375.5 394.5Q411 382 439 357Q467 332 483.5 293.5Q500 255 500 203Q500 155 483.5 115Q467 75 437.5 47Q408 19 367 3.5Q326 -12 276 -12Q223 -12 179.5 5Q136 22 105.5 52.5Q75 83 58 125.5Q41 168 41 219Q41 289 64.5 351.5Q88 414 122.5 466.5Q157 519 195.5 560.5Q234 602 264 629L283 647H461L443 632Q425 616 396 589.5Q367 563 334 530Q301 497 268.5 459Q236 421 211 382ZM177 200Q177 159 200.5 129Q224 99 272 99Q318 99 341.5 129Q365 159 365 200Q365 243 341.5 274Q318 305 272 305Q224 305 200.5 274Q177 243 177 200Z" glyph-name="six.posf" horiz-adv-x="535" unicode="" /><glyph d="M79 -147 314 378H20V495H445V382L230 -147Z" glyph-name="seven.posf" horiz-adv-x="463" unicode="" /><glyph d="M275 656Q325 656 364.5 642.5Q404 629 432 605Q460 581 475 547.5Q490 514 490 475Q490 433 466.5 393.5Q443 354 400 334Q448 314 476 272Q504 230 504 180Q504 135 487.5 99.5Q471 64 440.5 39.5Q410 15 368 1.5Q326 -12 275 -12Q224 -12 181.5 1.5Q139 15 109 39.5Q79 64 62 99.5Q45 135 45 180Q45 230 73.5 272Q102 314 150 334Q107 354 83.5 393.5Q60 433 60 475Q60 514 75 547.5Q90 581 118 605Q146 629 186 642.5Q226 656 275 656ZM275 382Q320 382 339 406Q358 430 358 465Q358 499 339 523.5Q320 548 275 548Q230 548 211 523.5Q192 499 192 465Q192 430 211 406Q230 382 275 382ZM275 97Q323 97 346.5 124Q370 151 370 186Q370 221 346.5 248Q323 275 275 275Q227 275 203.5 248Q180 221 180 186Q180 151 203.5 124Q227 97 275 97Z" glyph-name="eight.posf" horiz-adv-x="550" unicode="" /><glyph d="M312 117Q303 109 280.5 100Q258 91 223 91Q185 91 149 103.5Q113 116 85.5 141Q58 166 41 204.5Q24 243 24 295Q24 343 40.5 383Q57 423 86.5 451Q116 479 157.5 494.5Q199 510 249 510Q302 510 345.5 493Q389 476 419.5 445.5Q450 415 466.5 372.5Q483 330 483 279Q483 209 459.5 146.5Q436 84 401.5 31.5Q367 -21 329 -62.5Q291 -104 261 -131L242 -149H64L82 -134Q100 -118 129 -91.5Q158 -65 191 -32Q224 1 256.5 39Q289 77 314 116ZM348 298Q348 339 324.5 369Q301 399 253 399Q207 399 183.5 369Q160 339 160 298Q160 255 183.5 224Q207 193 253 193Q301 193 324.5 224Q348 255 348 298Z" glyph-name="nine.posf" horiz-adv-x="511" unicode="" /><glyph d="M215 843Q249 843 278.5 829.5Q308 816 329.5 789Q351 762 363 720Q375 678 375 621Q375 564 363 522Q351 480 329.5 452.5Q308 425 278.5 411.5Q249 398 215 398Q181 398 151.5 411.5Q122 425 100.5 452.5Q79 480 66.5 522Q54 564 54 621Q54 678 66.5 720Q79 762 100.5 789Q122 816 151.5 829.5Q181 843 215 843ZM162 621Q162 500 215 500Q267 500 267 621Q267 681 254 712.5Q241 744 215 744Q189 744 175.5 712.5Q162 681 162 621Z" glyph-name="zero.sups" horiz-adv-x="430" unicode="" /><glyph d="M93 836 277 836V498H359V405H86V498H168V743H93Z" glyph-name="one.sups" horiz-adv-x="430" unicode="" /><glyph d="M64 503Q88 521 111 539Q133 556 155.5 573.5Q178 591 197 608Q233 640 243.5 661Q254 682 254 702Q254 722 241 734.5Q228 747 208 747Q190 747 176.5 736Q163 725 163 705Q163 699 164.5 690.5Q166 682 171 668L73 653Q63 674 60 689.5Q57 705 57 720Q57 743 67 765Q77 787 96.5 804.5Q116 822 144.5 832.5Q173 843 209 843Q249 843 278 831Q307 819 326.5 800.5Q346 782 355.5 758Q365 734 365 710Q365 685 358 663Q351 641 336 619Q321 597 297 574.5Q273 552 238 526L205 500H368V405H64Z" glyph-name="two.sups" horiz-adv-x="430" unicode="" /><glyph d="M209 398Q134 398 97 434.5Q60 471 60 531V550H170V534Q170 518 177.5 502.5Q185 487 208 487Q230 487 239.5 501Q249 515 249 538Q249 562 236 577.5Q223 593 193 593Q182 593 168 591.5Q154 590 147 588V680L232 743H78V836H349V734L251 663Q299 659 330.5 624.5Q362 590 362 541Q362 475 321 436.5Q280 398 209 398Z" glyph-name="three.sups" horiz-adv-x="430" unicode="" /><glyph d="M47 604 191 838H321V594H372V503H321V407H218V503H47ZM134 594 218 594V727H216Z" glyph-name="four.sups" horiz-adv-x="430" unicode="" /><glyph d="M369 551Q369 485 332 441.5Q295 398 219 398Q144 398 106 434.5Q68 471 68 531V550H178V534Q178 518 185.5 502.5Q193 487 216 487Q239 487 247.5 503.5Q256 520 256 545Q256 571 246 587.5Q236 604 213 604Q200 604 190.5 599Q181 594 175 588L83 597V836H352V740H178V676L180 675Q190 683 206 687.5Q222 692 241 692Q301 692 335 653Q369 614 369 551Z" glyph-name="five.sups" horiz-adv-x="430" unicode="" /><glyph d="M353 836 344 828Q332 818 312 799.5Q292 781 269.5 759Q247 737 225 713Q203 689 188 668L191 666Q199 671 213 675.5Q227 680 244 680Q271 680 295 670.5Q319 661 337 644Q355 627 365.5 602Q376 577 376 546Q376 513 364.5 486Q353 459 332.5 439.5Q312 420 283.5 409Q255 398 221 398Q184 398 154 410.5Q124 423 103 444.5Q82 466 70.5 495.5Q59 525 59 559Q59 607 74.5 648Q90 689 111.5 722.5Q133 756 157.5 781.5Q182 807 200 824L213 836ZM166 541Q166 518 179 502Q192 486 218 486Q244 486 256 502Q268 518 268 541Q268 564 256 580.5Q244 597 218 597Q192 597 179 580.5Q166 564 166 541Z" glyph-name="six.sups" horiz-adv-x="430" unicode="" /><glyph d="M100 405 250 738H63V836H360V743L221 405Z" glyph-name="seven.sups" horiz-adv-x="430" unicode="" /><glyph d="M215 488Q239 488 251.5 502Q264 516 264 535Q264 553 251.5 567.5Q239 582 215 582Q189 582 177 567.5Q165 553 165 535Q165 516 177 502Q189 488 215 488ZM215 843Q284 843 324 808Q364 773 364 722Q364 694 348.5 668Q333 642 301 629Q335 616 353.5 587.5Q372 559 372 527Q372 469 329.5 433.5Q287 398 215 398Q143 398 99.5 433.5Q56 469 56 527Q56 559 75 587.5Q94 616 128 629Q96 642 80.5 668Q65 694 65 722Q65 773 105 808Q145 843 215 843ZM215 667Q237 667 247.5 680.5Q258 694 258 711Q258 728 247.5 741.5Q237 755 215 755Q192 755 181 741.5Q170 728 170 711Q170 694 181 680.5Q192 667 215 667Z" glyph-name="eight.sups" horiz-adv-x="430" unicode="" /><glyph d="M77 405 86 413Q98 423 118 441.5Q138 460 160.5 482Q183 504 204.5 528Q226 552 241 573L238 575Q230 570 216.5 565.5Q203 561 185 561Q159 561 135 570.5Q111 580 93 597Q75 614 64.5 639Q54 664 54 695Q54 761 96.5 802Q139 843 208 843Q246 843 276 830.5Q306 818 327 796.5Q348 775 359.5 745.5Q371 716 371 682Q371 634 355.5 593Q340 552 318 519Q296 486 271.5 460.5Q247 435 229 418L216 405ZM263 701Q263 723 250.5 739.5Q238 756 212 756Q186 756 173.5 739.5Q161 723 161 701Q161 678 173.5 661Q186 644 212 644Q238 644 250.5 661Q263 678 263 701Z" glyph-name="nine.sups" horiz-adv-x="430" unicode="" /><glyph d="M215 244Q249 244 278.5 230.5Q308 217 329.5 190Q351 163 363 121Q375 79 375 22Q375 -35 363 -77Q351 -119 329.5 -146.5Q308 -174 278.5 -187.5Q249 -201 215 -201Q181 -201 151.5 -187.5Q122 -174 100.5 -146.5Q79 -119 66.5 -77Q54 -35 54 22Q54 79 66.5 121Q79 163 100.5 190Q122 217 151.5 230.5Q181 244 215 244ZM162 22Q162 -99 215 -99Q267 -99 267 22Q267 82 254 113.5Q241 145 215 145Q189 145 175.5 113.5Q162 82 162 22Z" glyph-name="zero.sinf" horiz-adv-x="430" unicode="" /><glyph d="M93 237 277 237V-101H359V-194H86V-101H168V144H93Z" glyph-name="one.sinf" horiz-adv-x="430" unicode="" /><glyph d="M65 -96Q89 -78 112 -60Q134 -43 156.5 -25.5Q179 -8 198 9Q234 41 244.5 62Q255 83 255 103Q255 123 242 135.5Q229 148 209 148Q191 148 177.5 137Q164 126 164 106Q164 100 165.5 91.5Q167 83 172 69L74 54Q64 75 61 90.5Q58 106 58 121Q58 144 68 166Q78 188 97.5 205.5Q117 223 145.5 233.5Q174 244 210 244Q250 244 279 232Q308 220 327.5 201.5Q347 183 356.5 159Q366 135 366 111Q366 86 359 64Q352 42 337 20Q322 -2 298 -24.5Q274 -47 239 -73L206 -99H369V-194H65Z" glyph-name="two.sinf" horiz-adv-x="430" unicode="" /><glyph d="M209 -201Q134 -201 97 -164.5Q60 -128 60 -68V-49H170V-65Q170 -81 177.5 -96.5Q185 -112 208 -112Q230 -112 239.5 -98Q249 -84 249 -61Q249 -37 236 -21.5Q223 -6 193 -6Q182 -6 168 -7.5Q154 -9 147 -11V81L232 144H78V237H349V135L251 64Q299 60 330.5 25.5Q362 -9 362 -58Q362 -124 321 -162.5Q280 -201 209 -201Z" glyph-name="three.sinf" horiz-adv-x="430" unicode="" /><glyph d="M47 5 191 239H321V-5H372V-96H321V-192H218V-96H47ZM134 -5 218 -5V128H216Z" glyph-name="four.sinf" horiz-adv-x="430" unicode="" /><glyph d="M369 -48Q369 -114 332 -157.5Q295 -201 219 -201Q144 -201 106 -164.5Q68 -128 68 -68V-49H178V-65Q178 -81 185.5 -96.5Q193 -112 216 -112Q239 -112 247.5 -95.5Q256 -79 256 -54Q256 -28 246 -11.5Q236 5 213 5Q200 5 190.5 0Q181 -5 175 -11L83 -2V237H352V141H178V77L180 76Q190 84 206 88.5Q222 93 241 93Q301 93 335 54Q369 15 369 -48Z" glyph-name="five.sinf" horiz-adv-x="430" unicode="" /><glyph d="M353 237 344 229Q332 219 312 200.5Q292 182 269.5 160Q247 138 225 114Q203 90 188 69L191 67Q199 72 213 76.5Q227 81 244 81Q271 81 295 71.5Q319 62 337 45Q355 28 365.5 3Q376 -22 376 -53Q376 -86 364.5 -113.5Q353 -141 332.5 -160.5Q312 -180 283.5 -190.5Q255 -201 221 -201Q184 -201 154 -188.5Q124 -176 103 -154.5Q82 -133 70.5 -103.5Q59 -74 59 -40Q59 8 74.5 49Q90 90 111.5 123.5Q133 157 157.5 182.5Q182 208 200 225L213 237ZM166 -58Q166 -81 179 -97Q192 -113 218 -113Q244 -113 256 -97Q268 -81 268 -58Q268 -35 256 -18.5Q244 -2 218 -2Q192 -2 179 -18.5Q166 -35 166 -58Z" glyph-name="six.sinf" horiz-adv-x="430" unicode="" /><glyph d="M100 -194 250 139H63V237H360V144L221 -194Z" glyph-name="seven.sinf" horiz-adv-x="430" unicode="" /><glyph d="M215 -111Q239 -111 251.5 -97Q264 -83 264 -64Q264 -46 251.5 -31.5Q239 -17 215 -17Q189 -17 177 -31.5Q165 -46 165 -64Q165 -83 177 -97Q189 -111 215 -111ZM215 244Q284 244 324 209Q364 174 364 123Q364 95 348.5 69Q333 43 301 30Q335 17 353.5 -11.5Q372 -40 372 -72Q372 -130 329.5 -165.5Q287 -201 215 -201Q143 -201 99.5 -165.5Q56 -130 56 -72Q56 -40 75 -11.5Q94 17 128 30Q96 43 80.5 69Q65 95 65 123Q65 174 105 209Q145 244 215 244ZM215 68Q237 68 247.5 81.5Q258 95 258 112Q258 129 247.5 142.5Q237 156 215 156Q192 156 181 142.5Q170 129 170 112Q170 95 181 81.5Q192 68 215 68Z" glyph-name="eight.sinf" horiz-adv-x="430" unicode="" /><glyph d="M77 -194 86 -186Q98 -176 118 -157.5Q138 -139 160.5 -117Q183 -95 204.5 -71Q226 -47 241 -26L238 -24Q230 -29 216.5 -33.5Q203 -38 185 -38Q159 -38 135 -28.5Q111 -19 93 -2Q75 15 64.5 40Q54 65 54 96Q54 162 96.5 203Q139 244 208 244Q246 244 276 231.5Q306 219 327 197.5Q348 176 359.5 146.5Q371 117 371 83Q371 35 355.5 -6Q340 -47 318 -80Q296 -113 271.5 -138.5Q247 -164 229 -181L216 -194ZM263 102Q263 124 250.5 140.5Q238 157 212 157Q186 157 173.5 140.5Q161 124 161 102Q161 79 173.5 62Q186 45 212 45Q238 45 250.5 62Q263 79 263 102Z" glyph-name="nine.sinf" horiz-adv-x="430" unicode="" /><glyph d="M93 700 277 700V362H359V269H86V362H168V607H93ZM1015 144Q1015 78 978 34.5Q941 -9 865 -9Q790 -9 752 27.5Q714 64 714 124V143H824V127Q824 111 831.5 95.5Q839 80 862 80Q885 80 893.5 96.5Q902 113 902 138Q902 164 892 180.5Q882 197 859 197Q846 197 836.5 192Q827 187 821 181L729 190V429H998V333H824V269L826 268Q836 276 852 280.5Q868 285 887 285Q947 285 981 246Q1015 207 1015 144ZM914 686 241 -37L183 18L856 741Z" glyph-name="onefifth" horiz-adv-x="1080" unicode="" /><glyph d="M75 367Q99 385 122 403Q144 420 166.5 437.5Q189 455 208 472Q244 504 254.5 525Q265 546 265 566Q265 586 252 598.5Q239 611 219 611Q201 611 187.5 600Q174 589 174 569Q174 563 175.5 554.5Q177 546 182 532L84 517Q74 538 71 553.5Q68 569 68 584Q68 607 78 629Q88 651 107.5 668.5Q127 686 155.5 696.5Q184 707 220 707Q260 707 289 695Q318 683 337.5 664.5Q357 646 366.5 622Q376 598 376 574Q376 549 369 527Q362 505 347 483Q332 461 308 438.5Q284 416 249 390L216 364H379V269H75ZM914 686 241 -37L183 18L856 741ZM1015 144Q1015 78 978 34.5Q941 -9 865 -9Q790 -9 752 27.5Q714 64 714 124V143H824V127Q824 111 831.5 95.5Q839 80 862 80Q885 80 893.5 96.5Q902 113 902 138Q902 164 892 180.5Q882 197 859 197Q846 197 836.5 192Q827 187 821 181L729 190V429H998V333H824V269L826 268Q836 276 852 280.5Q868 285 887 285Q947 285 981 246Q1015 207 1015 144Z" glyph-name="twofifths" horiz-adv-x="1080" unicode="" /><glyph d="M239 262Q164 262 127 298.5Q90 335 90 395V414H200V398Q200 382 207.5 366.5Q215 351 238 351Q260 351 269.5 365Q279 379 279 402Q279 426 266 441.5Q253 457 223 457Q212 457 198 455.5Q184 454 177 452V544L262 607H108V700H379V598L281 527Q329 523 360.5 488.5Q392 454 392 405Q392 339 351 300.5Q310 262 239 262ZM914 686 241 -37L183 18L856 741ZM1015 144Q1015 78 978 34.5Q941 -9 865 -9Q790 -9 752 27.5Q714 64 714 124V143H824V127Q824 111 831.5 95.5Q839 80 862 80Q885 80 893.5 96.5Q902 113 902 138Q902 164 892 180.5Q882 197 859 197Q846 197 836.5 192Q827 187 821 181L729 190V429H998V333H824V269L826 268Q836 276 852 280.5Q868 285 887 285Q947 285 981 246Q1015 207 1015 144Z" glyph-name="threefifths" horiz-adv-x="1080" unicode="" /><glyph d="M60 466 204 700H334V456H385V365H334V269H231V365H60ZM147 456 231 456V589H229ZM914 686 241 -37L183 18L856 741ZM1015 144Q1015 78 978 34.5Q941 -9 865 -9Q790 -9 752 27.5Q714 64 714 124V143H824V127Q824 111 831.5 95.5Q839 80 862 80Q885 80 893.5 96.5Q902 113 902 138Q902 164 892 180.5Q882 197 859 197Q846 197 836.5 192Q827 187 821 181L729 190V429H998V333H824V269L826 268Q836 276 852 280.5Q868 285 887 285Q947 285 981 246Q1015 207 1015 144Z" glyph-name="fourfifths" horiz-adv-x="1080" unicode="" /><glyph d="M93 700 277 700V362H359V269H86V362H168V607H93ZM986 429 977 421Q965 411 945 392.5Q925 374 902.5 352Q880 330 858 306Q836 282 821 261L824 259Q832 264 846 268.5Q860 273 877 273Q904 273 928 263.5Q952 254 970 237Q988 220 998.5 195Q1009 170 1009 139Q1009 106 997.5 79Q986 52 965.5 32.5Q945 13 916.5 2Q888 -9 854 -9Q817 -9 787 3.5Q757 16 736 37.5Q715 59 703.5 88.5Q692 118 692 152Q692 200 707.5 241Q723 282 744.5 315.5Q766 349 790.5 374.5Q815 400 833 417L846 429ZM799 134Q799 111 812 95Q825 79 851 79Q877 79 889 95Q901 111 901 134Q901 157 889 173.5Q877 190 851 190Q825 190 812 173.5Q799 157 799 134ZM914 686 241 -37L183 18L856 741Z" glyph-name="onesixth" horiz-adv-x="1080" unicode="" /><glyph d="M396 415Q396 349 359 305.5Q322 262 246 262Q171 262 133 298.5Q95 335 95 395V414H205V398Q205 382 212.5 366.5Q220 351 243 351Q266 351 274.5 367.5Q283 384 283 409Q283 435 273 451.5Q263 468 240 468Q227 468 217.5 463Q208 458 202 452L110 461V700H379V604H205V540L207 539Q217 547 233 551.5Q249 556 268 556Q328 556 362 517Q396 478 396 415ZM914 686 241 -37L183 18L856 741ZM986 429 977 421Q965 411 945 392.5Q925 374 902.5 352Q880 330 858 306Q836 282 821 261L824 259Q832 264 846 268.5Q860 273 877 273Q904 273 928 263.5Q952 254 970 237Q988 220 998.5 195Q1009 170 1009 139Q1009 106 997.5 79Q986 52 965.5 32.5Q945 13 916.5 2Q888 -9 854 -9Q817 -9 787 3.5Q757 16 736 37.5Q715 59 703.5 88.5Q692 118 692 152Q692 200 707.5 241Q723 282 744.5 315.5Q766 349 790.5 374.5Q815 400 833 417L846 429ZM799 134Q799 111 812 95Q825 79 851 79Q877 79 889 95Q901 111 901 134Q901 157 889 173.5Q877 190 851 190Q825 190 812 173.5Q799 157 799 134Z" glyph-name="fivesixths" horiz-adv-x="1080" unicode="" /><glyph d="M93 700 277 700V362H359V269H86V362H168V607H93ZM757 0 907 333H720V431H1017V338L878 0ZM914 686 241 -37L183 18L856 741Z" glyph-name="oneseventh" horiz-adv-x="1080" unicode="" /><glyph d="M75 367Q99 385 122 403Q144 420 166.5 437.5Q189 455 208 472Q244 504 254.5 525Q265 546 265 566Q265 586 252 598.5Q239 611 219 611Q201 611 187.5 600Q174 589 174 569Q174 563 175.5 554.5Q177 546 182 532L84 517Q74 538 71 553.5Q68 569 68 584Q68 607 78 629Q88 651 107.5 668.5Q127 686 155.5 696.5Q184 707 220 707Q260 707 289 695Q318 683 337.5 664.5Q357 646 366.5 622Q376 598 376 574Q376 549 369 527Q362 505 347 483Q332 461 308 438.5Q284 416 249 390L216 364H379V269H75ZM914 686 241 -37L183 18L856 741ZM757 0 907 333H720V431H1017V338L878 0Z" glyph-name="twosevenths" horiz-adv-x="1080" unicode="" /><glyph d="M239 262Q164 262 127 298.5Q90 335 90 395V414H200V398Q200 382 207.5 366.5Q215 351 238 351Q260 351 269.5 365Q279 379 279 402Q279 426 266 441.5Q253 457 223 457Q212 457 198 455.5Q184 454 177 452V544L262 607H108V700H379V598L281 527Q329 523 360.5 488.5Q392 454 392 405Q392 339 351 300.5Q310 262 239 262ZM914 686 241 -37L183 18L856 741ZM757 0 907 333H720V431H1017V338L878 0Z" glyph-name="threesevenths" horiz-adv-x="1080" unicode="" /></font>
</defs>
</svg>
