<?xml version="1.0" encoding="utf-8"?>
<!-- Generated by IcoMoon.io -->
<!DOCTYPE svg PUBLIC "-//W3C//DTD SVG 1.1//EN" "http://www.w3.org/Graphics/SVG/1.1/DTD/svg11.dtd">
<svg version="1.1" xmlns="http://www.w3.org/2000/svg" xmlns:xlink="http://www.w3.org/1999/xlink" width="16" height="16" viewBox="0 0 16 16">
<path fill="#444" d="M10 14c-0.2 0-0.4 0-0.6 0v-0.7c0-0.1-0.1-0.2-0.2-0.2h-2.3c-0.1 0-0.2 0.1-0.2 0.2v0.7c-0.2 0-0.4 0-0.7 0-1.1-0.1-3.9-0.3-3.9-1.3 0-1.1 4-2.6 5.9-2.6 1.8 0 5.9 1.5 5.9 2.6 0 1-2.8 1.2-3.9 1.3zM13.1 5.6c0-0.3 0-0.5-0.1-0.8-0.2-1.8-2.4-3.2-4-3.6v-1c0-0.1-0.1-0.2-0.2-0.2h-1.6c-0.1 0-0.2 0.1-0.2 0.2v0.9c-1.7 0.5-4 2.2-4 4.3v0.1c0 3.5-2 2.5-2 7.1 0 1.2 1.7 2.2 5.3 2.5 0.1 0 0.2 0 0.4 0v0.6c0 0.1 0.1 0.2 0.2 0.2h2.3c0.1 0 0.2-0.1 0.2-0.2v-0.6c0.1 0 0.3 0 0.4 0 3.6-0.3 5.3-1.3 5.3-2.5v0 0c0-4.5-2-3.5-2-7z"></path>
</svg>
