<?xml version="1.0" encoding="utf-8"?>
<!-- Generated by IcoMoon.io -->
<!DOCTYPE svg PUBLIC "-//W3C//DTD SVG 1.1//EN" "http://www.w3.org/Graphics/SVG/1.1/DTD/svg11.dtd">
<svg version="1.1" xmlns="http://www.w3.org/2000/svg" xmlns:xlink="http://www.w3.org/1999/xlink" width="32" height="32" viewBox="0 0 32 32">
<path fill="#444" d="M16 0c-8.8 0-16 7.2-16 16s7.2 16 16 16c8.8 0 16-7.2 16-16s-7.2-16-16-16zM16 30c-7.8 0-14-6.2-14-14 0-3.8 1.6-7.2 4-9.6 0.2 0.4 0.4 0.8 0.2 1.2-0.4 0.6-0.6 1.2-0.4 2 0.4 0.4 0.8 1.6 1 2s0.6 1.2 0.8 1.2c0.2-0.2-0.8-1.4-0.4-1.6s0.6 0.2 0.8 0.8c0.2 0.6 0 1.6 0.6 2s1.4 1.2 2 1 0.8 0.2 1.2 0.6c0.4 0.2 0.2 1 0.8 1s1-0.4 1 0.4c0 0.8-1 1.2-0.4 2.6 0.4 1.4 1.8 2.2 1.8 3.4s-0.2 3.6-0.6 4.2 0 1-0.2 1.6c-0.2 0.4-0.2 0.8-0.4 1 0.4 0 0.8 0.2 1.2 0.2 0.2-0.2 0.2-0.4 0.4-0.6 0.8-1 0.6-1.4 2-2s2-1 2-1.8c0-0.8 0.8-0.6 1.4-1.6 0.8-1 0.8-2.6 1.6-3s0.4-1.4-1-1.4c-1.4 0-1.8-0.8-2.2-0.6s0.8-1-0.4-1.2c-0.8-0.4-1.2 0-1.4-0.4-0.2-0.2 0.6-1.4-0.6-1.4-1 0-2.2-0.2-2.6 0-0.6 0.2-1.2 0-1.4-0.2s0.2-1-0.4-1c-0.4 0-0.8-0.6-0.6-0.8 0.2-0.4 0.4-0.8 0-0.6-0.6 0.2-1.2 0.8-1.4 0.4s-0.8-2.6 0.4-2.6 1.8-0.4 2.2 0.6 0.6 0.6 0.4-0.2 1-3.6 1.6-3.4c0.6 0.2 1.2 0.4 1.2 0s-1.4-0.8-0.6-1 1.6 0.6 1-0.4c-0.8-1.2-2.4-2.8-2.8-1.8s0.6 1.8-0.4 1.8-2.4-0.8-2-1.6 1.6-1.4 0.2-1.4c-0.6 0-1.4 0-2.2 0 1.2-0.8 2.6-1.4 4.2-1.6 0.2 0 0.6 0.2 1.4 0.8 0.8 0.8 1 1.6 1.8 1.6 0.8 0.2 0.6 0.6 1 0.4 0.4 0-0.2-0.6 0.4-1s0.8-0.6 0.4-1.2c-0.2 0-0.4-0.4-0.4-0.6 4.8 0.8 8.8 4 10.6 8.2-0.2 0.2-0.4 0.4-0.6 0.8-0.6 1.2-1.6 1.6-2 2.4s-1.4 2-0.2 3c1.2 1 2 1 3 0.8 0.4 0 0.8 0 1 0 0-0.6 0-1 0-1.6 0 8-6.2 14.2-14 14.2z"></path>
</svg>
