<svg xmlns="http://www.w3.org/2000/svg" viewBox="0 0 16 16">
    <path fill="#444" d="M15 6.8c0 .1-.1.2-.2.2h-3.6c-.1 0-.2-.1-.2-.2V4.2c0-.1.1-.2.2-.2h3.6c.1 0 .2.1.2.2v2.6zm0 4c0 .1-.1.2-.2.2h-3.6c-.1 0-.2-.1-.2-.2V8.2c0-.2.1-.2.2-.2h3.6c.1 0 .2 0 .2.2v2.6zm0 4c0 .1-.1.2-.2.2h-3.6c-.1 0-.2-.1-.2-.2v-2.5c0-.1.1-.2.2-.2h3.6c.1 0 .2.1.2.2v2.5zm-5-8c0 .1-.1.2-.2.2H6.2c-.1 0-.2-.1-.2-.2V4.2c0-.1.1-.2.2-.2h3.6c.1 0 .2.1.2.2v2.6zm0 4c0 .1-.1.2-.2.2H6.2c-.1 0-.2-.1-.2-.2V8.2c0-.2.1-.2.2-.2h3.6c.1 0 .2 0 .2.2v2.6zm0 4c0 .1-.1.2-.2.2H6.2c-.1 0-.2-.1-.2-.2v-2.5c0-.2.1-.3.2-.3h3.6c.1 0 .2.1.2.2v2.6zm-5-8c0 .1-.1.2-.2.2H1.2c-.1 0-.2-.1-.2-.2V4.2c0-.1.1-.2.2-.2h3.6c.1 0 .2.1.2.2v2.6zm0 4c0 .1-.1.2-.2.2H1.2c-.1 0-.2-.1-.2-.2V8.2c0-.2.1-.2.2-.2h3.6c.1 0 .2 0 .2.2v2.6zm0 4c0 .1-.1.2-.2.2H1.2c-.1 0-.2-.1-.2-.2v-2.5c0-.2.1-.3.2-.3h3.6c.1 0 .2.1.2.2v2.6zM15.8 0H.2C.1 0 0 .1 0 .2v15.5c0 .2.1.3.2.3h15.6c.1 0 .2-.1.2-.2V.2c0-.1-.1-.2-.2-.2z"/>
</svg>
