<?xml version="1.0" encoding="utf-8"?>
<!-- Generated by IcoMoon.io -->
<!DOCTYPE svg PUBLIC "-//W3C//DTD SVG 1.1//EN" "http://www.w3.org/Graphics/SVG/1.1/DTD/svg11.dtd">
<svg version="1.1" xmlns="http://www.w3.org/2000/svg" xmlns:xlink="http://www.w3.org/1999/xlink" width="16" height="16" viewBox="0 0 16 16">
<path fill="#444" d="M15 6.8c0 0.1-0.1 0.2-0.2 0.2h-3.6c-0.1 0-0.2-0.1-0.2-0.2v-2.6c0-0.1 0.1-0.2 0.2-0.2h3.6c0.1 0 0.2 0.1 0.2 0.2v2.6zM15 10.8c0 0.1-0.1 0.2-0.2 0.2h-3.6c-0.1 0-0.2-0.1-0.2-0.2v-2.6c0-0.2 0.1-0.2 0.2-0.2h3.6c0.1 0 0.2 0 0.2 0.2v2.6zM15 14.8c0 0.1-0.1 0.2-0.2 0.2h-3.6c-0.1 0-0.2-0.1-0.2-0.2v-2.5c0-0.1 0.1-0.2 0.2-0.2h3.6c0.1 0 0.2 0.1 0.2 0.2v2.5zM10 6.8c0 0.1-0.1 0.2-0.2 0.2h-3.6c-0.1 0-0.2-0.1-0.2-0.2v-2.6c0-0.1 0.1-0.2 0.2-0.2h3.6c0.1 0 0.2 0.1 0.2 0.2v2.6zM10 10.8c0 0.1-0.1 0.2-0.2 0.2h-3.6c-0.1 0-0.2-0.1-0.2-0.2v-2.6c0-0.2 0.1-0.2 0.2-0.2h3.6c0.1 0 0.2 0 0.2 0.2v2.6zM10 14.8c0 0.1-0.1 0.2-0.2 0.2h-3.6c-0.1 0-0.2-0.1-0.2-0.2v-2.5c0-0.2 0.1-0.3 0.2-0.3h3.6c0.1 0 0.2 0.1 0.2 0.2v2.6zM5 6.8c0 0.1-0.1 0.2-0.2 0.2h-3.6c-0.1 0-0.2-0.1-0.2-0.2v-2.6c0-0.1 0.1-0.2 0.2-0.2h3.6c0.1 0 0.2 0.1 0.2 0.2v2.6zM5 10.8c0 0.1-0.1 0.2-0.2 0.2h-3.6c-0.1 0-0.2-0.1-0.2-0.2v-2.6c0-0.2 0.1-0.2 0.2-0.2h3.6c0.1 0 0.2 0 0.2 0.2v2.6zM5 14.8c0 0.1-0.1 0.2-0.2 0.2h-3.6c-0.1 0-0.2-0.1-0.2-0.2v-2.5c0-0.2 0.1-0.3 0.2-0.3h3.6c0.1 0 0.2 0.1 0.2 0.2v2.6zM15.8 0h-15.6c-0.1 0-0.2 0.1-0.2 0.2v15.5c0 0.2 0.1 0.3 0.2 0.3h15.6c0.1 0 0.2-0.1 0.2-0.2v-15.6c0-0.1-0.1-0.2-0.2-0.2z"></path>
</svg>
