<?xml version="1.0" encoding="utf-8"?>
<!-- Generated by IcoMoon.io -->
<!DOCTYPE svg PUBLIC "-//W3C//DTD SVG 1.1//EN" "http://www.w3.org/Graphics/SVG/1.1/DTD/svg11.dtd">
<svg version="1.1" xmlns="http://www.w3.org/2000/svg" xmlns:xlink="http://www.w3.org/1999/xlink" width="16" height="16" viewBox="0 0 16 16">
<path fill="#444" d="M15.7 12.7l-2.5-2.5c-0.5-0.5-1.3-0.5-1.8 0l-1.2 1.2c-0.1 0-0.2-0.1-0.2-0.1-0.8-0.4-1.9-1-3-2.2-1.3-1.1-1.9-2.2-2.3-3 0-0.1-0.1-0.2-0.1-0.2l1.2-1.2c0.5-0.5 0.5-1.3 0-1.8l-2.4-2.5c-0.5-0.5-1.3-0.5-1.8 0l-0.8 0.7c-0.2 0.3-0.4 0.6-0.6 1 0 0.4-0.1 0.7-0.2 1.1-0.3 2.7 0.9 5.2 4.3 8.6 4.7 4.6 8.4 4.2 8.6 4.2 0.4 0 0.7-0.1 1-0.3 0.4-0.1 0.7-0.3 1-0.6v0l0.7-0.7c0.5-0.4 0.6-1.3 0.1-1.7z"></path>
</svg>
