<?xml version="1.0" encoding="utf-8"?>
<!-- Generated by IcoMoon.io -->
<!DOCTYPE svg PUBLIC "-//W3C//DTD SVG 1.1//EN" "http://www.w3.org/Graphics/SVG/1.1/DTD/svg11.dtd">
<svg version="1.1" xmlns="http://www.w3.org/2000/svg" xmlns:xlink="http://www.w3.org/1999/xlink" width="16" height="16" viewBox="0 0 16 16">
<path fill="#444" d="M16 8c0 4.4-3.6 8-8 8s-8-3.6-8-8c0-4.4 3.6-8 8-8s8 3.6 8 8zM14.4 8c0-3.6-2.9-6.4-6.4-6.4-3.6 0-6.4 2.8-6.4 6.4s2.9 6.4 6.4 6.4c3.6 0 6.4-2.8 6.4-6.4zM11.2 4.6l-4.5 4.5-2-2-1.4 1.5 3.4 3.4 6-6-1.5-1.4z"></path>
</svg>
