<?xml version="1.0" encoding="utf-8"?>
<!-- Generated by IcoMoon.io -->
<!DOCTYPE svg PUBLIC "-//W3C//DTD SVG 1.1//EN" "http://www.w3.org/Graphics/SVG/1.1/DTD/svg11.dtd">
<svg version="1.1" xmlns="http://www.w3.org/2000/svg" xmlns:xlink="http://www.w3.org/1999/xlink" width="32" height="32" viewBox="0 0 32 32">
<path fill="#444" d="M30 4v18h-16.8l-5.2 5.2v-5.2h-6v-18h28zM30 2h-28c-1.2 0-2 0.8-2 2v18c0 1.2 0.8 2 2 2h4v8l8-8h16c1.2 0 2-0.8 2-2v-18c0-1.2-0.8-2-2-2v0z"></path>
<path fill="#444" d="M8 12h16v2h-16v-2z"></path>
<path fill="#444" d="M8 8h16v2h-16v-2z"></path>
<path fill="#444" d="M8 16h16v2h-16v-2z"></path>
</svg>
