<?xml version="1.0" encoding="utf-8"?>
<!-- Generated by IcoMoon.io -->
<!DOCTYPE svg PUBLIC "-//W3C//DTD SVG 1.1//EN" "http://www.w3.org/Graphics/SVG/1.1/DTD/svg11.dtd">
<svg version="1.1" xmlns="http://www.w3.org/2000/svg" xmlns:xlink="http://www.w3.org/1999/xlink" width="32" height="32" viewBox="0 0 32 32">
<path fill="#444" d="M2.8 16l5-5c0.2-0.4 0.2-1 0-1.2-0.4-0.4-1-0.4-1.4 0l-6.4 6.2 6.4 6.4c0.2 0.2 0.4 0.2 0.8 0.2s0.6 0 0.8-0.2c0.4-0.4 0.4-1 0-1.4l-5.2-5z"></path>
<path fill="#444" d="M29.2 16l-5-5c-0.2-0.4-0.2-1 0-1.2 0.4-0.4 1-0.4 1.4 0l6.4 6.2-6.4 6.4c-0.2 0.2-0.4 0.2-0.8 0.2s-0.6 0-0.8-0.2c-0.4-0.4-0.4-1 0-1.4l5.2-5z"></path>
<path fill="#444" d="M17.099 4.008l1.97 0.347-4.166 23.635-1.97-0.347 4.166-23.635z"></path>
</svg>
