<?xml version="1.0" encoding="utf-8"?>
<!-- Generated by IcoMoon.io -->
<!DOCTYPE svg PUBLIC "-//W3C//DTD SVG 1.1//EN" "http://www.w3.org/Graphics/SVG/1.1/DTD/svg11.dtd">
<svg version="1.1" xmlns="http://www.w3.org/2000/svg" xmlns:xlink="http://www.w3.org/1999/xlink" width="16" height="16" viewBox="0 0 16 16">
<path fill="#444" d="M0.2 3.8c-0.1-0.1-0.2-0.1-0.2 0.1v8.9c0 0.1 0.1 0.2 0.2 0.1l4.8-5c0.1-0.1 0.1-0.2 0-0.3l-4.8-3.8zM15.8 2.1c0.1-0.1 0.1-0.2-0.1-0.2h-15.4c-0.1 0-0.2 0.1 0 0.2l7.5 6c0.1 0.1 0.3 0.1 0.4 0l7.6-6zM10.4 8.4c-0.1-0.1-0.3-0.1-0.4 0l-1.8 1.4c-0.1 0.1-0.3 0.1-0.4 0l-1.9-1.5c-0.1-0.1-0.3-0.1-0.4 0l-5.4 5.6c-0.1 0.1-0.1 0.2 0.1 0.2h15.5c0.1 0 0.2-0.1 0.1-0.2l-5.4-5.5zM11 7.6c-0.1 0.1-0.1 0.2 0 0.3l4.8 4.9c0.1 0.1 0.2 0.1 0.2-0.1v-7.8c0-0.1 0-0.4 0-0.5v-0.5c0-0.1-0.1-0.2-0.2-0.1l-0.3 0.2c-0.1 0.1-0.3 0.2-0.4 0.3l-4.1 3.3z"></path>
</svg>
