<?xml version="1.0" encoding="utf-8"?>
<!-- Generated by IcoMoon.io -->
<!DOCTYPE svg PUBLIC "-//W3C//DTD SVG 1.1//EN" "http://www.w3.org/Graphics/SVG/1.1/DTD/svg11.dtd">
<svg version="1.1" xmlns="http://www.w3.org/2000/svg" xmlns:xlink="http://www.w3.org/1999/xlink" width="32" height="32" viewBox="0 0 32 32">
<path fill="#444" d="M16 2c7.8 0 14 6.2 14 14s-6.2 14-14 14-14-6.2-14-14 6.2-14 14-14zM16 0c-8.8 0-16 7.2-16 16s7.2 16 16 16c8.8 0 16-7.2 16-16s-7.2-16-16-16v0z"></path>
<path fill="#444" d="M18 16c0 1.105-0.895 2-2 2s-2-0.895-2-2c0-1.105 0.895-2 2-2s2 0.895 2 2z"></path>
<path fill="#444" d="M15 11.2l-7.4-3.6 3.6 7.4c0.4-2 1.8-3.4 3.8-3.8z"></path>
<path fill="#444" d="M20.8 17c-0.4 1.8-1.8 3.4-3.8 3.8l7.4 3.6-3.6-7.4z"></path>
</svg>
