<?xml version="1.0" encoding="utf-8"?>
<!-- Generated by IcoMoon.io -->
<!DOCTYPE svg PUBLIC "-//W3C//DTD SVG 1.1//EN" "http://www.w3.org/Graphics/SVG/1.1/DTD/svg11.dtd">
<svg version="1.1" xmlns="http://www.w3.org/2000/svg" xmlns:xlink="http://www.w3.org/1999/xlink" width="16" height="16" viewBox="0 0 16 16">
<path fill="#444" d="M5.6 6.4c0.4 0 0.7 0.2 1 0.5 0 0.1 0.1 0.1 0.2 0l0.7-0.6c0.1 0 0-0.1 0-0.2-0.5-0.5-1.1-0.8-1.9-0.8-1.1 0-1.9 0.5-2.2 1.5 0 0.3-0.1 0.7-0.1 1.3s0.1 1 0.2 1.3c0.3 0.9 1.1 1.5 2.2 1.5 0.8 0 1.4-0.3 1.8-0.8 0-0.1 0-0.1 0-0.2l-0.7-0.6c-0.1 0-0.1 0-0.2 0-0.3 0.3-0.5 0.5-1 0.5s-0.8-0.2-1-0.7c-0.1-0.3-0.1-0.6-0.1-1s0-0.7 0.1-1c0.2-0.4 0.6-0.7 1-0.7z"></path>
<path fill="#444" d="M15.9 13.2h-3.7c-0.1 0-0.1 0-0.1 0.1v1c0 0.1 0 0.1 0.1 0.1h3.7c0.1 0 0.1 0 0.1-0.1v-1c0-0.1 0-0.1-0.1-0.1z"></path>
<path fill="#444" d="M11 1.7v0c-0.1-0.1-0.1-0.1 0 0v0h-10.9c0 0 0 0 0 0s0 0 0 0 0 0 0 0v0c-0.1-0.1-0.1 0-0.1 0v0 12.5c0 0 0 0.1 0 0.1s0 0 0 0v0c0 0 0 0 0.1 0h10.8c0 0 0.1 0 0.1 0s0 0 0-0.1v0-12.5c0 0 0 0 0 0s0 0 0 0zM9.8 13c0 0.1-0.1 0.1 0 0-0.1 0.1-0.1 0.1-0.1 0.1s0 0 0 0 0 0 0 0 0 0 0 0h-8.4c0 0 0 0 0 0s0 0 0 0 0 0 0 0v0c0 0-0.1-0.1-0.1-0.1v-10c0 0 0-0.1 0.1-0.1 0 0 0 0 0 0s0 0 0 0 0 0 0 0h8.3c0 0 0 0 0 0s0 0 0 0 0 0 0 0 0 0 0 0 0.1 0.1 0.1 0.1v10z"></path>
</svg>
