<?xml version="1.0" encoding="utf-8"?>
<!-- Generated by IcoMoon.io -->
<!DOCTYPE svg PUBLIC "-//W3C//DTD SVG 1.1//EN" "http://www.w3.org/Graphics/SVG/1.1/DTD/svg11.dtd">
<svg version="1.1" xmlns="http://www.w3.org/2000/svg" xmlns:xlink="http://www.w3.org/1999/xlink" width="32" height="32" viewBox="0 0 32 32">
<path fill="#444" d="M22 0h-10c-2.2 0-4 1.8-4 4v11.6l2-2v-9.6c0-1.2 0.8-2 2-2h8v10h10v16c0 1.2-0.8 2-2 2h-16c-1.2 0-2-0.8-2-2v-0.4l-1.8 1.8c0.6 1.6 2 2.6 3.8 2.6h16c2.2 0 4-1.8 4-4v-18l-10-10z"></path>
<path fill="#444" d="M14.566 20.258l-8.202 8.202-4.243-4.243 8.202-8.202 4.243 4.243z"></path>
<path fill="#444" d="M17.4 17.4c0.8-0.8 0.8-2 0-2.8l-1.4-1.4c-0.8-0.8-2-0.8-2.8 0l-1.4 1.4 4.2 4.2 1.4-1.4z"></path>
<path fill="#444" d="M0 30.6l5-0.8-4.2-4.2z"></path>
</svg>
