<?xml version="1.0" encoding="utf-8"?>
<!-- Generator: Adobe Illustrator 19.2.1, SVG Export Plug-In . SVG Version: 6.00 Build 0)  -->
<svg version="1.1" id="Layer_1" xmlns="http://www.w3.org/2000/svg" xmlns:xlink="http://www.w3.org/1999/xlink" x="0px" y="0px"
	 viewBox="0 0 32 32"  xml:space="preserve">
<path class="st0" d="M18,0H8C5.8,0,4,1.8,4,4v24c0,2.2,1.8,4,4,4h16c2.2,0,4-1.8,4-4V10L18,0z M26,28c0,1.2-0.8,2-2,2H8
	c-1.2,0-2-0.8-2-2V4c0-1.2,0.8-2,2-2h8v10h10V28z"/>
<path class="st0" d="M10,24h12v2H10V24z"/>
<path class="st0" d="M10,20h12v2H10V20z"/>
<path class="st0" d="M10,16h12v2H10V16z"/>
</svg>
