<?xml version="1.0" encoding="utf-8"?>
<!-- Generated by IcoMoon.io -->
<!DOCTYPE svg PUBLIC "-//W3C//DTD SVG 1.1//EN" "http://www.w3.org/Graphics/SVG/1.1/DTD/svg11.dtd">
<svg version="1.1" xmlns="http://www.w3.org/2000/svg" xmlns:xlink="http://www.w3.org/1999/xlink" width="32" height="32" viewBox="0 0 32 32">
<path fill="#444" d="M28 0h-24c-2.2 0-4 1.8-4 4v24c0 2.2 1.8 4 4 4h24c2.2 0 4-1.8 4-4v-24c0-2.2-1.8-4-4-4zM30 28c0 1.2-0.8 2-2 2h-24c-1.2 0-2-0.8-2-2v-24c0-1.2 0.8-2 2-2h24c1.2 0 2 0.8 2 2v24z"></path>
<path fill="#444" d="M21 9.4c-0.2 0-0.6 0-0.8 0.2-0.4 0.4-0.4 1 0 1.4l4 4h-16.4l4-4c0.4-0.4 0.4-1 0-1.4s-1-0.4-1.4 0l-6.4 6.4 6.4 6.4c0.2 0.2 0.4 0.2 0.8 0.2s0.6 0 0.8-0.2c0.4-0.4 0.4-1 0-1.4l-4-4h16.4l-4 4c-0.4 0.4-0.4 1 0 1.4s1 0.4 1.4 0l6.2-6.4-6.4-6.4c-0.2-0.2-0.4-0.2-0.6-0.2z"></path>
</svg>
