<?xml version="1.0" encoding="utf-8"?>
<!-- Generated by IcoMoon.io -->
<!DOCTYPE svg PUBLIC "-//W3C//DTD SVG 1.1//EN" "http://www.w3.org/Graphics/SVG/1.1/DTD/svg11.dtd">
<svg version="1.1" xmlns="http://www.w3.org/2000/svg" xmlns:xlink="http://www.w3.org/1999/xlink" width="32" height="32" viewBox="0 0 32 32">
<path fill="#444" d="M30 6.4h-14v-2c0-1.2-0.8-2-2-2h-8c-1.2 0-2 0.8-2 2v14h-4v8h5v5.6h8v-5.6h17c1.2 0 2-0.8 2-2v-16c0-1-0.8-2-2-2zM16 24.4h-5v5.6h-4v-5.6h-5v-4h5v-4.8h4v5h5v3.8zM30 10.4h-24v-6h8v4h16v2z"></path>
</svg>
