<?xml version="1.0" encoding="utf-8"?>
<!-- Generated by IcoMoon.io -->
<!DOCTYPE svg PUBLIC "-//W3C//DTD SVG 1.1//EN" "http://www.w3.org/Graphics/SVG/1.1/DTD/svg11.dtd">
<svg version="1.1" xmlns="http://www.w3.org/2000/svg" xmlns:xlink="http://www.w3.org/1999/xlink" width="32" height="32" viewBox="0 0 32 32">
<path fill="#444" d="M30 6.8h-14v-2c0-1.2-0.8-2-2-2h-8c-1.2 0-2 0.8-2 2v13.6l7.6-7.6h-5.6v-6h8v4h16v2h-12.2l1.2 1.2c0.6 0.6 1 1.6 1 2.6s-0.4 2-1.2 2.8l-2.8 3-6.4 6.4h20.4c1.2 0 2-0.8 2-2v-16c0-1.2-0.8-2-2-2z"></path>
<path fill="#444" d="M2.222 22.931l8.202-8.202 4.243 4.243-8.202 8.202-4.243-4.243z"></path>
<path fill="#444" d="M17.4 16c0.8-0.8 0.8-2 0-2.8l-1.4-1.4c-0.8-0.8-2-0.8-2.8 0l-1.4 1.4 4.2 4.4 1.4-1.6z"></path>
<path fill="#444" d="M0 29.2l5-0.6-4.2-4.2z"></path>
</svg>
