<?xml version="1.0" encoding="utf-8"?>
<!-- Generated by IcoMoon.io -->
<!DOCTYPE svg PUBLIC "-//W3C//DTD SVG 1.1//EN" "http://www.w3.org/Graphics/SVG/1.1/DTD/svg11.dtd">
<svg version="1.1" xmlns="http://www.w3.org/2000/svg" xmlns:xlink="http://www.w3.org/1999/xlink" width="16" height="16" viewBox="0 0 16 16">
<path fill="#444" d="M15.8 12.1l-3.6-3.3c-0.2 0-0.2-0.1-0.2-0.1-0.1 0-0.2 0-0.3 0.1v2.3h-0.4c-0.5 0-0.9-0.2-1.2-0.5l-4.6-4.6c-0.8-0.9-2-1.3-3.2-1.3h-2c-0.1 0-0.2 0.1-0.2 0.3v2c0 0.2 0.1 0.3 0.2 0.3h2c0.5 0 1 0.2 1.4 0.6l4.5 4.6c0.8 0.8 1.8 1.2 3 1.3h0.5v2.3c0.1 0.1 0.2 0.1 0.3 0 0 0 0.1 0 0.2-0.1l3.6-3.3c0.1-0.3 0.1-0.4 0-0.6z"></path>
<path fill="#444" d="M15.8 3.4v0l-3.6-3.3c-0.2-0.1-0.2-0.1-0.2-0.1-0.1 0-0.2 0-0.3 0v2.3h-0.5c-1.1 0-2.2 0.5-3 1.3l-0.8 1c-0.1 0.1-0.1 0.2 0 0.3l1.4 1.5c0.1 0.1 0.2 0.1 0.3 0l0.9-0.9c0.3-0.3 0.8-0.5 1.2-0.6h0.4v2.3c0.1 0.1 0.2 0.1 0.3 0 0 0 0.1 0 0.2-0.1l3.6-3.3c0.2-0.1 0.2-0.2 0.1-0.4z"></path>
</svg>
