<?xml version="1.0" encoding="utf-8"?>
<!-- Generated by IcoMoon.io -->
<!DOCTYPE svg PUBLIC "-//W3C//DTD SVG 1.1//EN" "http://www.w3.org/Graphics/SVG/1.1/DTD/svg11.dtd">
<svg version="1.1" xmlns="http://www.w3.org/2000/svg" xmlns:xlink="http://www.w3.org/1999/xlink" width="16" height="16" viewBox="0 0 16 16">
<path fill="#444" d="M8 9.9c-1.1 0-1.9-0.8-1.9-1.9s0.9-1.9 1.9-1.9 1.9 0.8 1.9 1.9c0 1.1-0.8 1.9-1.9 1.9zM15.8 6.9c0-0.1-0.1-0.2-0.2-0.2h-2.1c-0.1-0.6-0.4-1.2-0.7-1.7l1.5-1.5c0.1-0.1 0.1-0.2 0-0.3l-1.5-1.5c-0.1-0.1-0.2-0.1-0.3 0l-1.5 1.4c-0.5-0.3-1.1-0.6-1.7-0.7v-2c0-0.1-0.1-0.2-0.2-0.2h-2.2c-0.1 0-0.2 0.1-0.2 0.2v2c-0.6 0.1-1.2 0.4-1.7 0.7l-1.5-1.4c-0.1-0.1-0.2-0.1-0.3 0l-1.5 1.5c-0.1 0.1-0.1 0.2 0 0.3l1.5 1.5c-0.3 0.5-0.5 1-0.6 1.6h-2.2c-0.1 0-0.2 0.1-0.2 0.2v2.2c0 0.1 0.1 0.2 0.2 0.2h2.2c0.1 0.6 0.4 1.1 0.7 1.6l-1.6 1.6c-0.1 0.1-0.1 0.2 0 0.3l1.5 1.5c0.1 0.1 0.2 0.1 0.3 0l1.5-1.5c0.5 0.3 1 0.5 1.6 0.7v2.2c0 0.1 0.1 0.2 0.2 0.2h2.2c0.1 0 0.2-0.1 0.2-0.2v-2.2c0.6-0.1 1.1-0.4 1.6-0.7l1.5 1.5c0.1 0.1 0.2 0.1 0.3 0l1.5-1.5c0.1-0.1 0.1-0.2 0-0.3l-1.5-1.5c0.3-0.5 0.5-1 0.7-1.6h2.1c0.1 0 0.2-0.1 0.2-0.2v-2.2z"></path>
</svg>
