<?xml version="1.0" encoding="utf-8"?>
<!-- Generated by IcoMoon.io -->
<!DOCTYPE svg PUBLIC "-//W3C//DTD SVG 1.1//EN" "http://www.w3.org/Graphics/SVG/1.1/DTD/svg11.dtd">
<svg version="1.1" xmlns="http://www.w3.org/2000/svg" xmlns:xlink="http://www.w3.org/1999/xlink" width="16" height="16" viewBox="0 0 16 16">
<path fill="#444" d="M16 7.8v-0.1c-0.9-0.1-1.8-0.1-2.6 0 0.1-0.4 0.2-0.9 0.2-1.5 0-1.2-0.4-2.1-1-2.9 0.1-0.7 0-1.5-0.2-2.2-0.9 0.1-1.7 0.4-2.4 0.9-1.3-0.3-2.7-0.3-4 0-1-0.7-1.8-1-2.6-1-0.3 0.8-0.3 1.6-0.1 2.4-0.7 0.8-1 1.7-1 2.7 0 0.6 0.1 1.1 0.3 1.6-0.9-0.1-1.7-0.1-2.6-0.1v0.1c0.9-0.1 1.8-0.1 2.6 0 0 0.1 0.1 0.2 0.1 0.2-0.9 0.1-1.7 0.1-2.5 0.3v0.1c0.8-0.1 1.7-0.2 2.6-0.2 0.6 1.1 1.8 1.8 3.6 2-0.4 0.3-0.6 0.7-0.7 1.2 0 0-0.2 0-0.9 0-1.3 0-1.6-1.6-2.9-1.4 1.3 0.6 1 2.6 3 2.6 0.7 0 0.8 0 0.8 0v1.8c0 0.3-0.1 0.5-0.3 0.6 0.7 0.1 1.3-0.3 1.3-0.7s0-2.2 0-2.4c0-0.2 0.2-0.2 0.2-0.2v2.8c0 0.3-0.1 0.4-0.3 0.6 0.6 0 1.2-0.1 1.3-0.6 0 0 0-2.6 0-2.7s0.2-0.1 0.2 0c0 0.1 0 2.6 0 2.6 0 0.5 0.4 0.8 1.2 0.8-0.2-0.2-0.3-0.4-0.3-0.6 0-0.3 0-2.8 0-2.8s0.2 0 0.2 0.2c0 0.2 0 2 0 2.4 0 0.5 0.6 0.7 1.4 0.7-0.2-0.2-0.4-0.4-0.4-0.7v-2.8c0-0.4-0.2-0.8-0.5-1.2 1.6-0.2 2.8-0.9 3.4-2.1 1 0 1.8 0 2.6 0.2v-0.1c-0.7-0.3-1.5-0.3-2.5-0.3 0-0.1 0.1-0.1 0.1-0.2 0.9-0.1 1.8-0.1 2.7 0zM2.5 10.1c-0.1 0-0.1 0 0 0-0.1-0.1 0-0.1 0-0.1s0.1 0 0 0.1c0.1 0 0 0 0 0zM2.7 10.3c0 0-0.1-0.1 0 0-0.1-0.1 0-0.1 0-0.1 0.1-0.1 0.1 0 0 0.1 0.1-0.1 0.1 0 0 0zM2.9 10.5c0 0-0.1-0.1 0 0-0.1-0.1-0.1-0.1 0-0.1 0.1-0.1 0.1-0.1 0 0.1 0.1-0.1 0.1 0 0 0zM3.2 10.7c-0.1 0-0.1 0-0.1-0.1 0 0 0-0.1 0.1-0.1s0.1 0 0.1 0.1-0.1 0.1-0.1 0.1zM3.4 11c-0.1 0-0.1 0-0.1-0.1s0.1-0.1 0.1-0.1 0.1 0 0.1 0.1 0 0.1-0.1 0.1zM3.7 11.2c-0.1 0-0.1 0-0.1-0.1s0.1-0.1 0.1-0.1 0.1 0 0.1 0.1 0 0.1-0.1 0.1zM4.1 11.5c-0.1 0-0.2 0-0.2-0.1s0.1-0.1 0.2-0.1c0.1 0 0.2 0 0.2 0.1-0.1 0.1-0.1 0.1-0.2 0.1zM4.6 11.6c-0.1 0-0.2 0-0.2-0.1s0.1-0.1 0.2-0.1c0.1 0 0.2 0 0.2 0.1-0.1 0.1-0.2 0.1-0.2 0.1zM5.1 11.7c-0.1 0-0.2 0-0.2-0.1s0.1-0.1 0.2-0.1 0.2 0 0.2 0.1c-0.1 0-0.2 0.1-0.2 0.1zM5.6 11.7c-0.1 0-0.2 0-0.2-0.1s0.1-0.1 0.2-0.1c0.1 0 0.2 0 0.2 0.1-0.1 0-0.2 0.1-0.2 0.1z"></path>
</svg>
