<?xml version="1.0" encoding="utf-8"?>
<!-- Generated by IcoMoon.io -->
<!DOCTYPE svg PUBLIC "-//W3C//DTD SVG 1.1//EN" "http://www.w3.org/Graphics/SVG/1.1/DTD/svg11.dtd">
<svg version="1.1" xmlns="http://www.w3.org/2000/svg" xmlns:xlink="http://www.w3.org/1999/xlink" width="16" height="16" viewBox="0 0 16 16">
<path fill="#444" d="M8 0c-4.4 0-8 3.6-8 8s3.6 8 8 8c4.4 0 8-3.6 8-8s-3.6-8-8-8zM9 11.9c0 0.1-0.1 0.1-0.1 0.1h-1.7c-0.1 0-0.2 0-0.2-0.1v-0.8c0-0.1 0-0.1 0.1-0.1h1.7c0.1 0 0.1 0 0.1 0.1v0.8zM9.8 7.6l-0.7 1.1c-0.2 0.2-0.2 0.5-0.2 0.9v0.3c0 0.1 0 0.1-0.1 0.1h-1.6c-0.1 0-0.2-0.1-0.2-0.2v-0.5c0-0.5 0.2-0.9 0.5-1.2l0.8-1.1c0.3-0.4 0.5-0.7 0.5-1 0-0.5-0.3-0.8-0.8-0.8s-0.8 0.4-0.9 0.9c0 0.1-0.1 0.1-0.2 0.1l-1.3-0.2c0 0-0.1 0-0.1-0.1 0.2-1.2 1.1-2 2.5-2s2.4 0.9 2.4 2.2c0.1 0.5-0.2 1-0.6 1.5z"></path>
</svg>
