<?xml version="1.0" encoding="utf-8"?>
<!-- Generated by IcoMoon.io -->
<!DOCTYPE svg PUBLIC "-//W3C//DTD SVG 1.1//EN" "http://www.w3.org/Graphics/SVG/1.1/DTD/svg11.dtd">
<svg version="1.1" xmlns="http://www.w3.org/2000/svg" xmlns:xlink="http://www.w3.org/1999/xlink" width="16" height="16" viewBox="0 0 16 16">
<path fill="#444" d="M14 16h-12c-1.1 0-2-0.9-2-2v-12c0-1.1 0.9-2 2-2h12c1.1 0 2 0.9 2 2v12c0 1.1-0.9 2-2 2zM8 4.9c-1.2 0-2.3 0.7-2.8 1.8v0c0 0 0 0 0 0 0 0.1-0.1 0.1-0.1 0.2 0 0 0 0.1 0 0.1-0.1 0.1-0.1 0.2-0.1 0.2s0 0.1 0 0.1 0 0.2 0 0.2c0 0 0 0.1 0 0.1 0 0.1 0 0.2 0 0.3 0 1.7 1.4 3.1 3.1 3.1s3.1-1.4 3.1-3.1c0-0.1 0-0.2 0-0.3 0 0 0-0.1 0-0.1 0-0.1 0-0.2 0-0.2s0-0.1 0-0.1 0-0.1-0.1-0.2c0 0 0-0.1 0-0.1 0-0.1-0.1-0.1-0.1-0.2 0 0 0 0 0 0v0c-0.7-1.1-1.8-1.8-3-1.8zM14.2 2.6c0-0.4-0.4-0.8-0.8-0.8h-1.6c-0.4 0-0.8 0.4-0.8 0.8v1.6c0 0.4 0.4 0.8 0.8 0.8h1.6c0.4 0 0.8-0.4 0.8-0.8v-1.6zM14.2 6.7h-1.5c0.1 0.4 0.2 0.8 0.2 1.3 0 2.7-2.2 4.9-4.9 4.9s-4.9-2.2-4.9-4.9c0-0.5 0.1-0.9 0.2-1.3h-1.5v6.7c0 0.4 0.4 0.8 0.8 0.8h10.8c0.4 0 0.8-0.4 0.8-0.8v-6.7z"></path>
</svg>
