<?xml version="1.0" encoding="utf-8"?>
<!-- Generated by IcoMoon.io -->
<!DOCTYPE svg PUBLIC "-//W3C//DTD SVG 1.1//EN" "http://www.w3.org/Graphics/SVG/1.1/DTD/svg11.dtd">
<svg version="1.1" xmlns="http://www.w3.org/2000/svg" xmlns:xlink="http://www.w3.org/1999/xlink" width="32" height="32" viewBox="0 0 32 32">
<path fill="#444" d="M26 4c1.2 0 2 0.8 2 2v20c0 1.2-0.8 2-2 2h-20c-1.2 0-2-0.8-2-2v-20c0-1.2 0.8-2 2-2h20zM26 2h-20c-2.2 0-4 1.8-4 4v20c0 2.2 1.8 4 4 4h20c2.2 0 4-1.8 4-4v-20c0-2.2-1.8-4-4-4v0z"></path>
<path fill="#444" d="M12.6 24l-5.4-5.2 1.6-1.6 3.8 4 10.6-10.6 1.6 1.4z"></path>
</svg>
