<?xml version="1.0" encoding="utf-8"?>
<!-- Generated by IcoMoon.io -->
<!DOCTYPE svg PUBLIC "-//W3C//DTD SVG 1.1//EN" "http://www.w3.org/Graphics/SVG/1.1/DTD/svg11.dtd">
<svg version="1.1" xmlns="http://www.w3.org/2000/svg" xmlns:xlink="http://www.w3.org/1999/xlink" width="32" height="32" viewBox="0 0 32 32">
<path fill="#444" d="M15 7c0 0-5-4-15-4v22c11.4 0 15 4 15 4s3.6-4 15-4v-22c-10 0-15 4-15 4zM2 5c6.8 0 10.4 3 12 4.8v16c-2.2-1.2-6-2.4-12-2.8v-18zM28 23c-6.2 0.2-9.8 1.6-12 2.8v-16c1.6-1.8 5.2-4.8 12-4.8v18z"></path>
</svg>
