<?xml version="1.0" encoding="utf-8"?>
<!-- Generated by IcoMoon.io -->
<!DOCTYPE svg PUBLIC "-//W3C//DTD SVG 1.1//EN" "http://www.w3.org/Graphics/SVG/1.1/DTD/svg11.dtd">
<svg version="1.1" xmlns="http://www.w3.org/2000/svg" xmlns:xlink="http://www.w3.org/1999/xlink" width="16" height="16" viewBox="0 0 16 16">
<path fill="#444" d="M9 10.9c-0.1-0.1-0.3-0.1-0.4 0l-2.3 2.3-3.4-3.6 2.3-2.3c0.1-0.1 0.1-0.3 0-0.4l-1.2-1c-0.1-0.1-0.3-0.1-0.4 0l-3.5 3.5c-0.1 0.1-0.1 0.3 0 0.4l6.1 6.1c0.1 0.1 0.3 0.1 0.4 0l3.6-3.6c0.1-0.1 0.1-0.2 0-0.3l-1.2-1.1z"></path>
<path fill="#444" d="M6.7 5.4c0.1 0.1 0.3 0.1 0.4 0l2.5-2.5 3.5 3.5-2.5 2.5c-0.1 0.1-0.1 0.3 0 0.4l1.1 1.1c0.1 0.1 0.3 0.1 0.4 0l3.9-3.9c0.1-0.1 0.1-0.3 0-0.4l-6.2-6c-0.1-0.1-0.3-0.1-0.4 0l-3.8 3.8c-0.1 0.1-0.1 0.3 0 0.4l1.1 1.1z"></path>
<path fill="#444" d="M10.2 7.3c0.1-0.1 0.1-0.2 0-0.4l-1.1-1.1c-0.1-0.1-0.3-0.1-0.4 0l-2.9 2.9c-0.1 0.1-0.1 0.3 0 0.4l1.1 1.1c0.1 0.1 0.3 0.1 0.4 0l2.9-2.9z"></path>
</svg>
