<?xml version="1.0" encoding="utf-8"?>
<!-- Generated by IcoMoon.io -->
<!DOCTYPE svg PUBLIC "-//W3C//DTD SVG 1.1//EN" "http://www.w3.org/Graphics/SVG/1.1/DTD/svg11.dtd">
<svg version="1.1" xmlns="http://www.w3.org/2000/svg" xmlns:xlink="http://www.w3.org/1999/xlink" width="32" height="32" viewBox="0 0 32 32">
<path fill="#444" d="M26 4.6l-6 6v-5.6c0-0.6-0.4-1-1-1s-1 0.4-1 1v9h9c0.2 0 0.6-0.2 0.8-0.2 0-0.2 0.2-0.6 0.2-0.8 0-0.6-0.4-1-1-1h-5.6l6-6c0.4-0.4 0.4-1 0-1.4s-1-0.4-1.4 0z"></path>
<path fill="#444" d="M6 27.4l6-6v5.6c0 0.6 0.4 1 1 1s1-0.4 1-1v-9h-9c-0.2 0-0.6 0.2-0.8 0.2 0 0.2-0.2 0.6-0.2 0.8 0 0.6 0.4 1 1 1h5.6l-6 6c-0.4 0.4-0.4 1 0 1.4s1 0.4 1.4 0z"></path>
</svg>
