<?xml version="1.0" encoding="utf-8"?>
<!-- Generator: Adobe Illustrator 19.1.0, SVG Export Plug-In . SVG Version: 6.00 Build 0)  -->
<!DOCTYPE svg PUBLIC "-//W3C//DTD SVG 1.1//EN" "http://www.w3.org/Graphics/SVG/1.1/DTD/svg11.dtd">
<svg version="1.1" xmlns="http://www.w3.org/2000/svg" xmlns:xlink="http://www.w3.org/1999/xlink" x="0px" y="0px"
	 viewBox="0 0 16 16" enable-background="new 0 0 16 16" xml:space="preserve">
<g id="BG">
</g>
<g id="CONTENT">
	<path d="M13,7.1c-0.3,0.2-1.5,1-4,0.8c-3-0.3-3.6,0-3.6,0L6,13.8c0,0.3-0.2,0.6-0.5,0.7h0c-0.3,0-0.6-0.2-0.7-0.5L3.7,2.7
		c0-0.1,0-0.1,0.1-0.1c1.8-1,3.2-0.8,4.8-0.6c1.4,0.2,3-0.3,3.5-0.5c0,0,0.1,0,0.1,0.1l-1.2,3L13,7C13,7,13,7.1,13,7.1z"/>
</g>
<g id="GRID">
</g>
</svg>
