<?xml version="1.0" encoding="utf-8"?>
<!-- Generator: Adobe Illustrator 19.1.0, SVG Export Plug-In . SVG Version: 6.00 Build 0)  -->
<!DOCTYPE svg PUBLIC "-//W3C//DTD SVG 1.1//EN" "http://www.w3.org/Graphics/SVG/1.1/DTD/svg11.dtd">
<svg version="1.1" xmlns="http://www.w3.org/2000/svg" xmlns:xlink="http://www.w3.org/1999/xlink" x="0px" y="0px"
	 viewBox="0 0 16 16" enable-background="new 0 0 16 16" xml:space="preserve">
<g id="BG">
</g>
<g id="CONTENT">
	<path d="M10.1,13.2L6.5,3.8c0,0,0-0.1-0.1-0.1C4.8,3.7,4,4.3,3,4.9C2.1,5.5,0.8,5.7,0.5,5.8c0,0,0,0,0,0.1l1.8,1.6L1.6,9.9
		c0,0,0,0.1,0.1,0.1C2,10,3,10.1,4.6,9.1c1.9-1.2,2.4-1.2,2.4-1.2l2.1,5.6c0.1,0.2,0.3,0.3,0.6,0.3l0.1,0
		C10.1,13.7,10.2,13.4,10.1,13.2z M2.6,9.1l0.5-2L2,6.2c1.5-0.4,2.6-1.5,3.8-1.6l0.5,1.3l0.5,1.2C5.4,7.4,3.9,8.9,2.6,9.1z"/>
	<path d="M9.5,3.8l-3.6,9.4c-0.1,0.2,0,0.5,0.2,0.6l0.1,0c0.2,0.1,0.5,0,0.6-0.2l2.1-5.6c0,0,0.5,0,2.4,1.2c1.6,1,2.7,0.9,3,0.8
		c0,0,0.1-0.1,0.1-0.1l-0.7-2.4l1.9-1.6c0,0,0-0.1,0-0.1c-0.3,0-1.6-0.3-2.5-0.9C12,4.3,11.2,3.7,9.5,3.8C9.5,3.7,9.5,3.8,9.5,3.8z"
		/>
</g>
<g id="GRID">
</g>
</svg>
