<?xml version="1.0" encoding="utf-8"?>
<!-- Generated by IcoMoon.io -->
<!DOCTYPE svg PUBLIC "-//W3C//DTD SVG 1.1//EN" "http://www.w3.org/Graphics/SVG/1.1/DTD/svg11.dtd">
<svg version="1.1" xmlns="http://www.w3.org/2000/svg" xmlns:xlink="http://www.w3.org/1999/xlink" width="16" height="16" viewBox="0 0 16 16">
<path fill="#444" d="M7.8 8.5c-0.1-0.2-0.1-0.6-0.1-0.9 0.1-0.3 0.2-0.3 0.3 0 0 0.2-0.1 0.7-0.2 0.9zM5.5 12.5c-0.2 0.3-0.1 0.5 0.2 0.2 0.1-0.1 0.3-0.4 0.5-0.7-0.2 0.2-0.5 0.4-0.7 0.5zM7.4 11c0.3-0.1 0.9-0.2 1-0.3 0 0-0.4-0.5-0.6-0.7 0 0.3-0.4 0.9-0.4 1zM10.6 0v3.9h3.9l-3.9-3.9zM10.6 11.1c-0.2 0-0.4 0-0.7 0 0.2 0.1 0.5 0.3 0.8 0.3 0.3-0.1 0.3-0.3-0.1-0.3zM14.5 5.3v10.7h-13v-16h7.7v5.3h5.3zM10.7 10.5c-0.4-0.1-1.1 0-1.5 0.1-0.3-0.3-0.7-0.7-1-1.2 0.2-0.5 0.3-1 0.4-1.3 0.3-1.6-1.7-1.7-1.4 0 0.1 0.5 0.2 0.9 0.4 1.3-0.3 0.6-0.6 1.2-1 1.8-0.6 0.3-1.1 0.5-1.4 0.8-1 1 0.2 2.2 1.2 0.8 0.2-0.3 0.5-0.8 0.7-1.2 0.6-0.2 1.3-0.4 1.9-0.5 0.4 0.3 1.1 0.7 1.6 0.7 1.1 0.1 1.2-1.2 0.1-1.3z"></path>
</svg>
