<?xml version="1.0" encoding="utf-8"?>
<!-- Generated by IcoMoon.io -->
<!DOCTYPE svg PUBLIC "-//W3C//DTD SVG 1.1//EN" "http://www.w3.org/Graphics/SVG/1.1/DTD/svg11.dtd">
<svg version="1.1" xmlns="http://www.w3.org/2000/svg" xmlns:xlink="http://www.w3.org/1999/xlink" width="16" height="16" viewBox="0 0 16 16">
<path fill="#444" d="M13.7 2.3c-1.6-1.5-3.6-2.3-5.7-2.3s-4.1 0.8-5.7 2.3c-1.5 1.6-2.3 3.6-2.3 5.7s0.8 4.1 2.3 5.7c1.6 1.5 3.6 2.3 5.7 2.3s4.1-0.8 5.7-2.3c1.5-1.6 2.3-3.6 2.3-5.7s-0.8-4.1-2.3-5.7zM12.9 12.8c0-1.1 0-1.7-1.3-2-1.4-0.3-2.7-0.6-2.1-1.8 2-3.6 0.5-5.5-1.5-5.5-2.1 0-3.4 2-1.5 5.6 0.6 1.2-0.7 1.5-2.1 1.8-1.3 0.3-1.3 0.9-1.3 2-1.2-1.2-2-3-2-4.9 0-3.8 3.1-6.9 6.9-6.9s6.9 3.1 6.9 6.9c0 1.9-0.8 3.6-2 4.8z"></path>
</svg>
