<?xml version="1.0" encoding="utf-8"?>
<!-- Generated by IcoMoon.io -->
<!DOCTYPE svg PUBLIC "-//W3C//DTD SVG 1.1//EN" "http://www.w3.org/Graphics/SVG/1.1/DTD/svg11.dtd">
<svg version="1.1" xmlns="http://www.w3.org/2000/svg" xmlns:xlink="http://www.w3.org/1999/xlink" width="32" height="32" viewBox="0 0 32 32">
<path fill="#444" d="M26.4 21.6l5.6-5.6-7.2-7.2-1.2 1.4v2l-1.6 1.6h-2.2l-1.6-1.6v-2.2l1.6-1.6h2l1.4-1.2-4.2-4.2-1.2 1.2 2.6 2.6h-1.2l-2.6 2.4v3.6l2.6 2.6h3.6l2.4-2.6v-1.2l4.4 4.4-5.8 6 1.2 1.2h2l1.6 1.6v2.2l-1.6 1.6h-2.2l-1.6-1.6v-2l-1.2-1.2-6 5.8-4.4-4.4h1.2l2.6-2.4v-3.6l-2.6-2.6h-3.6l-2.4 2.6v1.2l-4.4-4.4 5.8-6-1.2-1.2h-2l-1.6-1.6v-2.2l1.6-1.6h2.2l1.6 1.6v2l1.2 1.2 7.2-7-1.2-1.2-5.6 5.6v-1.2l-2.4-2.6h-3.6l-2.6 2.6v3.6l2.6 2.4h1.2l-5.6 5.6 7.2 7.2 1.2-1.4v-2l1.6-1.6h2.2l1.6 1.6v2.2l-1.6 1.6h-2l-1.4 1.2 7.2 7.2 5.6-5.6v1.4l2.6 2.4h3.6l2.4-2.4v-3.6l-2.4-2.6z"></path>
</svg>
