<?xml version="1.0" encoding="utf-8"?>
<!-- Generated by IcoMoon.io -->
<!DOCTYPE svg PUBLIC "-//W3C//DTD SVG 1.1//EN" "http://www.w3.org/Graphics/SVG/1.1/DTD/svg11.dtd">
<svg version="1.1" xmlns="http://www.w3.org/2000/svg" xmlns:xlink="http://www.w3.org/1999/xlink" width="16" height="16" viewBox="0 0 16 16">
<path fill="#444" d="M11.4 8.6c0 0.1 0.1 0.2 0.1 0.3 0 0.2-0.1 0.4-0.2 0.6s-0.3 0.3-0.5 0.4v0c0 0 0 0 0 0s0 0 0 0c-0.1 0-0.2 0-0.3 0-0.2 0-0.5-0.1-0.6-0.2-0.2-0.1-0.4-0.3-0.4-0.6v0c0 0 0 0 0 0s0 0 0 0v0c0-0.1 0-0.1 0-0.2 0-0.2 0.1-0.4 0.2-0.6 0.1-0.1 0.2-0.3 0.4-0.3 0 0 0 0 0 0s0 0 0 0c0.1 0 0.2-0.1 0.3-0.1 0.2 0 0.4 0.1 0.6 0.2s0.4 0.3 0.4 0.5c0 0 0 0 0 0s0 0 0 0v0zM10.8 11.2c-0.1-0.1-0.2-0.1-0.3-0.1s-0.2 0-0.2 0.1v0c-0.7 0.4-1.5 0.7-2.4 0.7-0.6 0-1.2-0.1-1.8-0.4v0 0c-0.1 0-0.2-0.1-0.3-0.2-0.1 0-0.1-0.1-0.2-0.1s-0.1 0-0.2 0-0.1 0-0.2 0c0 0 0 0 0 0v0c-0.1 0-0.2 0.1-0.2 0.2 0 0 0 0.1 0 0.2s0 0.2 0.1 0.3c0 0.1 0.1 0.1 0.2 0.2 0.7 0.5 1.7 0.7 2.6 0.7 0.8 0 1.7-0.2 2.5-0.6v0 0c0.1-0.1 0.2-0.1 0.4-0.2 0.1 0 0.1-0.1 0.2-0.1 0.1-0.1 0.1-0.1 0.1-0.2v0c0 0 0-0.1 0-0.1 0-0.1 0-0.1 0-0.2-0.1-0.1-0.2-0.2-0.3-0.2zM5.2 9.9c0 0 0 0 0 0 0.1 0 0.2 0.1 0.3 0.1 0.3 0 0.5-0.1 0.7-0.3s0.3-0.5 0.3-0.7c0 0 0 0 0 0s0 0 0 0c0-0.3-0.1-0.5-0.3-0.7-0.2-0.3-0.4-0.4-0.7-0.4-0.1 0-0.1 0-0.2 0 0 0 0 0 0 0s0 0 0 0c-0.3 0.1-0.6 0.4-0.7 0.7v0 0c0 0 0 0 0 0 0 0.1 0 0.2 0 0.3 0 0.2 0.1 0.4 0.2 0.6 0 0.2 0.2 0.3 0.4 0.4 0 0 0 0 0 0zM16 7.4v0c0 0 0 0.1 0 0.1 0 0.4-0.1 0.8-0.3 1.1s-0.5 0.5-0.8 0.7c0 0.2 0 0.3 0 0.5 0 0.8-0.3 1.7-0.8 2.3v0 0c-0.9 1.2-2.4 2-3.8 2.3v0 0c-0.8 0.2-1.6 0.3-2.4 0.3-1.2 0-2.4-0.2-3.5-0.7v0 0c-1.1-0.5-2.2-1.2-2.9-2.3-0.4-0.6-0.6-1.3-0.6-2 0-0.2 0-0.3 0-0.5-0.1-0.1-0.4-0.3-0.5-0.6-0.3-0.3-0.4-0.7-0.4-1.1v0 0 0c0-0.5 0.2-1 0.6-1.4s0.8-0.6 1.4-0.6c0 0 0 0 0 0 0.1 0 0.1 0 0.2 0 0.3 0 0.5 0 0.8 0.1v0 0c0.2 0.1 0.4 0.2 0.6 0.4 0.1 0 0.1-0.1 0.2-0.1 1.2-0.7 2.5-0.9 3.8-1 0-0.6 0.1-1.3 0.4-1.9 0.3-0.5 0.7-0.9 1.3-1v0 0c0.2 0 0.4-0.1 0.6-0.1 0.6 0 1.1 0.1 1.6 0.3 0.2-0.3 0.5-0.6 0.9-0.8v0 0c0.2-0.1 0.5-0.1 0.7-0.1s0.5 0 0.7 0.2v0c0 0 0 0 0 0s0 0 0 0c0.3 0.1 0.6 0.4 0.8 0.7s0.3 0.7 0.3 1c0 0.1 0 0.1 0 0.2v0c0 0 0 0 0 0 0 0.5-0.3 0.9-0.6 1.2s-0.8 0.5-1.2 0.5c-0.1 0-0.1 0-0.2 0-0.5 0-0.9-0.3-1.2-0.6s-0.5-0.8-0.5-1.2c0 0 0 0 0-0.1-0.4-0.2-0.9-0.4-1.3-0.4-0.1 0-0.1 0-0.2 0v0c-0.3 0.1-0.7 0.3-0.8 0.6v0 0c-0.2 0.4-0.3 1-0.3 1.5 1.3 0.1 2.6 0.4 3.7 1v0 0c0 0 0.1 0 0.1 0.1 0.1-0.1 0.2-0.1 0.3-0.2 0.3-0.2 0.8-0.3 1.2-0.3 0.2 0 0.4 0 0.5 0.1v0 0c0 0 0 0 0 0v0c0.4 0.1 0.8 0.3 1.1 0.7 0.3 0.2 0.5 0.6 0.5 1.1v0zM12.2 3.2c0 0 0 0 0 0v0 0c0 0.3 0.1 0.5 0.3 0.6 0.1 0.1 0.4 0.2 0.6 0.2v0 0c0 0 0 0 0 0 0.2 0 0.4-0.1 0.6-0.2 0.2-0.2 0.3-0.4 0.3-0.6v0 0c0 0 0 0 0-0.1 0-0.2-0.1-0.5-0.3-0.6-0.2-0.2-0.4-0.3-0.6-0.3-0.1 0-0.1 0-0.2 0v0 0c-0.2 0-0.4 0.2-0.5 0.3-0.1 0.3-0.2 0.5-0.2 0.7zM2.7 6.6c-0.2-0.1-0.4-0.1-0.5-0.1 0 0-0.1 0-0.1 0v0 0c-0.3 0-0.5 0.1-0.7 0.3-0.2 0.1-0.4 0.4-0.4 0.6v0 0c0 0 0 0 0 0.1 0 0.2 0 0.3 0.1 0.5 0.1 0.1 0.1 0.2 0.2 0.3 0.4-0.7 0.9-1.2 1.4-1.7zM13.9 9.8c0-0.6-0.2-1.2-0.5-1.6-0.7-0.9-1.7-1.5-2.8-1.9v0c-0.2-0.1-0.4-0.1-0.6-0.2-0.7-0.2-1.3-0.2-2-0.2-0.9 0-1.7 0.1-2.6 0.4-1.1 0.3-2.1 0.9-2.8 1.8v0c-0.3 0.5-0.5 1-0.5 1.6 0 0.2 0 0.4 0.1 0.6v0c0.1 0.5 0.4 0.9 0.7 1.2 0.3 0.4 0.7 0.7 1.1 0.9 0.1 0.1 0.2 0.1 0.3 0.2 1.2 0.6 2.5 0.9 3.8 0.9 0.2 0 0.4 0 0.7 0 1.3-0.1 2.7-0.5 3.7-1.3v0c0.3-0.3 0.7-0.6 0.9-0.9 0.3-0.4 0.4-0.7 0.5-1.2v0 0c0 0 0-0.2 0-0.3zM15 7.5c0-0.1 0-0.3-0.1-0.4v0 0c-0.1-0.2-0.2-0.3-0.4-0.4s-0.4-0.2-0.6-0.2c-0.2 0-0.4 0-0.5 0.1 0.5 0.5 1 1 1.3 1.7 0.1-0.1 0.2-0.2 0.2-0.3 0-0.2 0.1-0.4 0.1-0.5z"></path>
</svg>
