<?xml version="1.0" encoding="utf-8"?>
<!-- Generated by IcoMoon.io -->
<!DOCTYPE svg PUBLIC "-//W3C//DTD SVG 1.1//EN" "http://www.w3.org/Graphics/SVG/1.1/DTD/svg11.dtd">
<svg version="1.1" xmlns="http://www.w3.org/2000/svg" xmlns:xlink="http://www.w3.org/1999/xlink" width="32" height="32" viewBox="0 0 32 32">
<path fill="#444" d="M16.4 29.4c-6-0.6-10.4-6.2-9.8-12.2s6.2-10.4 12.2-9.8c1.8 0.2 3.4 0.8 4.6 1.6l-5.8 3.2 1 1.8 9-4.6-4.6-9-1.8 1 3 6c-1.6-1-3.4-1.6-5.2-1.8-7.2-0.8-13.6 4.4-14.4 11.4-0.8 7.2 4.4 13.6 11.4 14.4 4 0.4 7.8-1 10.4-3.6-0.4-0.4-1-1-1.4-1.4-2.2 2.2-5.4 3.4-8.6 3z"></path>
</svg>
