<?xml version="1.0" encoding="utf-8"?>
<!-- Generated by IcoMoon.io -->
<!DOCTYPE svg PUBLIC "-//W3C//DTD SVG 1.1//EN" "http://www.w3.org/Graphics/SVG/1.1/DTD/svg11.dtd">
<svg version="1.1" xmlns="http://www.w3.org/2000/svg" xmlns:xlink="http://www.w3.org/1999/xlink" width="32" height="32" viewBox="0 0 32 32">
<path fill="#444" d="M22.2 0.2l-1.8 1 2 4c-2-1.2-4.2-1.8-6.6-1.8-7.2 0-13 5.8-13 13 0 2.6 0.8 5 2 7l1.8-1c-1.2-1.8-1.8-3.8-1.8-6 0-6 5-11 11-11 1.8 0 3.6 0.4 5.2 1.4 0.2 0.2 0.6 0.4 0.8 0.6l-4 2 1 1.8 5.2-3 1.8-1-3.6-7zM22.4 5.2c0 0 0 0 0 0v0 0z"></path>
<path fill="#444" d="M27.2 8.8l-1.8 1c1.2 1.8 1.8 3.8 1.8 6 0 6-5 11-11 11-1.8 0-3.6-0.4-5.2-1.4-0.2-0.2-0.6-0.4-0.8-0.6l4-2-1-1.8-5.2 2.8-1.8 1 3.6 7.2 1.8-1-2-4c2 1.2 4.2 1.8 6.6 1.8 7.2 0 13-5.8 13-13 0-2.6-0.8-5-2-7zM9.6 26.8v0 0c0 0 0 0 0 0z"></path>
</svg>
