<?xml version="1.0" encoding="utf-8"?>
<!-- Generated by IcoMoon.io -->
<!DOCTYPE svg PUBLIC "-//W3C//DTD SVG 1.1//EN" "http://www.w3.org/Graphics/SVG/1.1/DTD/svg11.dtd">
<svg version="1.1" xmlns="http://www.w3.org/2000/svg" xmlns:xlink="http://www.w3.org/1999/xlink" width="16" height="16" viewBox="0 0 16 16">
<path fill="#444" d="M4.3 13.8c0 1.2-1 2.2-2.2 2.2-1.1 0-2.1-1-2.1-2.2s1-2.2 2.2-2.2c1.2 0.1 2.1 1 2.1 2.2zM0 5.5v3.2c4 0 7.3 3.3 7.3 7.3h3.2c0-5.8-4.7-10.5-10.5-10.5zM0 3.2c3.4 0 6.6 1.3 9 3.8 2.4 2.4 3.7 5.6 3.8 9h3.2c0-8.8-7.2-16-16-16v3.2z"></path>
</svg>
