<?xml version="1.0" encoding="utf-8"?>
<!-- Generated by IcoMoon.io -->
<!DOCTYPE svg PUBLIC "-//W3C//DTD SVG 1.1//EN" "http://www.w3.org/Graphics/SVG/1.1/DTD/svg11.dtd">
<svg version="1.1" xmlns="http://www.w3.org/2000/svg" xmlns:xlink="http://www.w3.org/1999/xlink" width="32" height="32" viewBox="0 0 32 32">
<path fill="#444" d="M26 21c-1.6 0-3 0.8-4 2l-11.2-5.8c0.2-0.4 0.2-0.8 0.2-1.2s0-0.8-0.2-1.2l11.2-5.8c1 1.2 2.4 2 4 2 2.8 0 5-2.2 5-5s-2.2-5-5-5-5 2.2-5 5c0 0.4 0 0.8 0.2 1.2l-11.2 5.8c-1-1.2-2.4-2-4-2-2.8 0-5 2.2-5 5s2.2 5 5 5c1.6 0 3-0.8 4-2l11.2 5.6c-0.2 0.4-0.2 0.8-0.2 1.2 0 2.8 2.2 5 5 5s5-2.2 5-5-2.2-4.8-5-4.8zM26 3c1.6 0 3 1.4 3 3s-1.4 3-3 3-3-1.4-3-3 1.4-3 3-3zM6 19c-1.6 0-3-1.4-3-3s1.4-3 3-3 3 1.4 3 3-1.4 3-3 3zM26 29c-1.6 0-3-1.4-3-3s1.4-3 3-3 3 1.4 3 3-1.4 3-3 3z"></path>
</svg>
