<?xml version="1.0" encoding="utf-8"?>
<!-- Generated by IcoMoon.io -->
<!DOCTYPE svg PUBLIC "-//W3C//DTD SVG 1.1//EN" "http://www.w3.org/Graphics/SVG/1.1/DTD/svg11.dtd">
<svg version="1.1" xmlns="http://www.w3.org/2000/svg" xmlns:xlink="http://www.w3.org/1999/xlink" width="32" height="32" viewBox="0 0 32 32">
<path fill="#444" d="M32 5.2c0-2.2-7.2-4-16-4s-16 1.8-16 4v7c0 0.2 0 0.4 0 0.4v0 14c0 3.6 8.6 5 16 5s16-1.4 16-5v-13.8c0-0.2 0-0.4 0-0.4v-7.2zM30 7.2v5c0 0.8-4.2 3-14 3s-14-2-14-3v-5c2.8 1.2 8 2 14 2s11.2-0.8 14-2zM16 29.8c-9.8 0-14-2.2-14-3v-4.4c3 1.6 8.8 2.4 14 2.4s11-0.6 14-2.4v4.4c0 0.8-4.2 3-14 3zM16 22.8c-9.8 0-14-2.2-14-3v-4.8c3 1.6 8.8 2.4 14 2.4s11-0.6 14-2.4v4.8c0 0.8-4.2 3-14 3z"></path>
</svg>
