<?xml version="1.0" encoding="utf-8"?>
<!-- Generated by IcoMoon.io -->
<!DOCTYPE svg PUBLIC "-//W3C//DTD SVG 1.1//EN" "http://www.w3.org/Graphics/SVG/1.1/DTD/svg11.dtd">
<svg version="1.1" xmlns="http://www.w3.org/2000/svg" xmlns:xlink="http://www.w3.org/1999/xlink" width="16" height="16" viewBox="0 0 16 16">
<path fill="#444" d="M6.9 0.1c0 0 0 0 0 0s0 0 0 0c-0.1-0.1-0.1-0.1-0.1-0.1v0h-6.6c0 0-0.1 0-0.1 0s0 0-0.1 0c0 0 0 0 0 0.1 0 0 0 0.1 0 0.1v0 6.5c0 0 0 0.1 0 0.1s0 0 0 0.1c0 0 0 0 0.1 0 0 0 0.1 0 0.1 0v0h6.5c0 0 0.1 0 0.1 0s0 0 0.1 0c0 0 0 0 0-0.1 0 0 0-0.1 0-0.1v0-6.5c0.1 0 0.1 0 0-0.1z"></path>
<path fill="#444" d="M15.9 0.1c0 0 0 0 0 0s0 0 0 0c-0.1-0.1-0.1-0.1-0.1-0.1v0h-6.5c0 0-0.1 0-0.1 0s0 0-0.1 0c0 0 0 0 0 0.1 0 0 0 0.1 0 0.1v0 6.5c0 0 0 0.1 0 0.1s0 0 0 0.1c0 0 0 0 0.1 0 0 0 0.1 0 0.1 0v0h6.5c0 0 0.1 0 0.1 0s0 0 0.1 0c0 0 0 0 0-0.1 0 0 0-0.1 0-0.1v0-6.5c0 0 0 0-0.1-0.1z"></path>
<path fill="#444" d="M6.9 9.1c0 0 0 0 0 0s0 0 0 0c-0.1-0.1-0.1-0.1-0.1-0.1v0h-6.6c0 0-0.1 0-0.1 0s0 0-0.1 0c0 0 0 0 0 0.1 0 0 0 0.1 0 0.1v0 6.5c0 0 0 0.1 0 0.1s0 0 0 0.1c0 0 0 0 0.1 0 0 0 0.1 0 0.1 0v0h6.5c0 0 0.1 0 0.1 0s0 0 0.1 0c0 0 0 0 0-0.1 0 0 0-0.1 0-0.1v0-6.5c0.1 0 0.1 0 0-0.1z"></path>
<path fill="#444" d="M15.9 9.1c0 0 0 0 0 0s0 0 0 0c-0.1-0.1-0.1-0.1-0.1-0.1v0h-6.5c0 0-0.1 0-0.1 0s0 0-0.1 0c0 0 0 0 0 0.1 0 0 0 0.1 0 0.1v0 6.5c0 0 0 0.1 0 0.1s0 0 0 0.1c0 0 0 0 0.1 0 0 0 0.1 0 0.1 0v0h6.5c0 0 0.1 0 0.1 0s0 0 0.1 0c0 0 0 0 0-0.1 0 0 0-0.1 0-0.1v0-6.5c0 0 0 0-0.1-0.1z"></path>
</svg>
