<?xml version="1.0" encoding="utf-8"?>
<!-- Generated by IcoMoon.io -->
<!DOCTYPE svg PUBLIC "-//W3C//DTD SVG 1.1//EN" "http://www.w3.org/Graphics/SVG/1.1/DTD/svg11.dtd">
<svg version="1.1" xmlns="http://www.w3.org/2000/svg" xmlns:xlink="http://www.w3.org/1999/xlink" width="32" height="32" viewBox="0 0 32 32">
<path fill="#444" d="M28 8v20h-20v-20h20zM28 6h-20c-1.2 0-2 0.8-2 2v20c0 1.2 0.8 2 2 2h20c1.2 0 2-0.8 2-2v-20c0-1.2-0.8-2-2-2v0z"></path>
<path fill="#444" d="M21 0h-19c-1.2 0-2 0.8-2 2v19c0 0.6 0.4 1 1 1s1-0.4 1-1v-19h19c0.6 0 1-0.4 1-1s-0.4-1-1-1z"></path>
</svg>
