<?xml version="1.0" encoding="utf-8"?>
<!-- Generated by IcoMoon.io -->
<!DOCTYPE svg PUBLIC "-//W3C//DTD SVG 1.1//EN" "http://www.w3.org/Graphics/SVG/1.1/DTD/svg11.dtd">
<svg version="1.1" xmlns="http://www.w3.org/2000/svg" xmlns:xlink="http://www.w3.org/1999/xlink" width="32" height="32" viewBox="0 0 32 32">
<path fill="#444" d="M16 2c7.8 0 14 6.2 14 14s-6.2 14-14 14-14-6.2-14-14 6.2-14 14-14zM16 0c-8.8 0-16 7.2-16 16s7.2 16 16 16c8.8 0 16-7.2 16-16s-7.2-16-16-16v0z"></path>
<path fill="#444" d="M18 23.8c0 0.2-0.2 0.2-0.2 0.2h-3.4c-0.2 0-0.4 0-0.4-0.2v-1.6c0-0.2 0-0.2 0.2-0.2h3.4c0.2 0 0.2 0 0.2 0.2v1.6z"></path>
<path fill="#444" d="M19.6 15.2l-1.4 2.2c-0.4 0.4-0.4 1-0.4 1.8v0.6c0 0.2 0 0.2-0.2 0.2h-3.2c-0.2 0-0.4-0.2-0.4-0.4v-1c0-1 0.4-1.8 1-2.4l1.6-2.2c0.6-0.8 1-1.4 1-2 0-1-0.6-1.6-1.6-1.6s-1.6 0.8-1.8 1.8c0 0.2-0.2 0.2-0.4 0.2l-2.6-0.4c0 0-0.2 0-0.2-0.2 0.4-2.4 2.2-4 5-4s4.8 1.8 4.8 4.4c0.2 1-0.4 2-1.2 3z"></path>
</svg>
