<?xml version="1.0" encoding="utf-8"?>
<!-- Generated by IcoMoon.io -->
<!DOCTYPE svg PUBLIC "-//W3C//DTD SVG 1.1//EN" "http://www.w3.org/Graphics/SVG/1.1/DTD/svg11.dtd">
<svg version="1.1" xmlns="http://www.w3.org/2000/svg" xmlns:xlink="http://www.w3.org/1999/xlink" width="16" height="16" viewBox="0 0 16 16">
<path fill="#444" d="M8 12.4c-3.5 0-5.2-3.3-6.1-4.4 0.9-1.1 2.6-4.4 6.1-4.4s5.2 3.3 6.1 4.4c-0.9 1.1-2.6 4.4-6.1 4.4zM15.8 6.9h-0.7c-1.2-1.4-3.1-4.8-7.1-4.8s-5.9 3.4-7.2 4.9h-0.6c-0.1-0.1-0.2 0-0.2 0.1v1.8c0 0.1 0.1 0.2 0.2 0.2h0.7c1.2 1.4 3.1 4.8 7.1 4.8s5.9-3.4 7.2-4.9h0.7c0 0.1 0.1 0 0.1-0.1v-1.8c0-0.1-0.1-0.2-0.2-0.2z"></path>
<path fill="#444" d="M10.4 8c0 1.3-1.1 2.4-2.4 2.4s-2.4-1.1-2.4-2.4c0-1.3 1.1-2.4 2.4-2.4s2.4 1.1 2.4 2.4z"></path>
</svg>
