<?xml version="1.0" encoding="utf-8"?>
<!-- Generated by IcoMoon.io -->
<!DOCTYPE svg PUBLIC "-//W3C//DTD SVG 1.1//EN" "http://www.w3.org/Graphics/SVG/1.1/DTD/svg11.dtd">
<svg version="1.1" xmlns="http://www.w3.org/2000/svg" xmlns:xlink="http://www.w3.org/1999/xlink" width="16" height="16" viewBox="0 0 16 16">
<path fill="#444" d="M12.6 11.7h-0.9v-0.5c0-0.2 0.2-0.4 0.4-0.4h0.1c0.2 0 0.4 0.2 0.4 0.4v0.5zM9.3 10.6c-0.2 0-0.4 0.1-0.4 0.3v2.5c0 0.2 0.2 0.3 0.4 0.3s0.4-0.1 0.4-0.3v-2.5c0-0.1-0.2-0.3-0.4-0.3zM14.7 9.2v4.7c0 1.1-1 2.1-2.2 2.1h-9c-1.2 0-2.2-0.9-2.2-2.1v-4.7c0-1.1 1-2.1 2.2-2.1h9c1.2 0.1 2.2 1 2.2 2.1zM4.1 14.5v-5h1.1v-0.8h-3v0.7h0.9v5h1zM7.4 10.2h-0.9v2.7c0 0.4 0 0.6 0 0.6-0.1 0.2-0.4 0.4-0.5 0 0-0.1 0-0.3 0-0.6v-2.7h-1v2.6c0 0.4 0 0.7 0 0.8 0 0.2 0 0.5 0.2 0.7 0.4 0.3 1.2 0 1.4-0.5v0.5h0.7v-4.1zM10.4 13.3v-2.2c0-0.8-0.6-1.3-1.5-0.7v-1.6l-0.9-0.1v5.7h0.8l0.1-0.4c0.9 0.9 1.5 0.3 1.5-0.7zM13.3 13h-0.7c0 0 0 0.1 0 0.1v0.4c0 0.2-0.2 0.4-0.4 0.4h-0.1c-0.2 0-0.4-0.2-0.4-0.4v0-1.1h1.6v-0.6c0-0.4 0-0.9 0-1.1-0.1-0.8-1.2-0.9-1.8-0.5-0.2 0.1-0.3 0.3-0.4 0.5-0.1 0.3-0.1 0.6-0.1 1v1.3c0 2.2 2.6 1.9 2.3 0zM9.7 5.8c0.1 0.1 0.2 0.2 0.3 0.3s0.2 0.1 0.4 0.1c0.1 0 0.3 0 0.4-0.1 0-0.1 0.1-0.2 0.2-0.3v0.4h1v-4.5h-0.8v3.4c0 0.2-0.2 0.3-0.3 0.3-0.2 0-0.3-0.2-0.3-0.3v-3.4h-1v3c0 0.4 0 0.6 0 0.8 0.1 0.1 0.1 0.2 0.1 0.3zM6.6 3.3c0-0.4 0-0.8 0.1-1s0.2-0.4 0.4-0.6c0.2-0.1 0.4-0.2 0.7-0.2 0.2 0 0.4 0 0.6 0.1s0.3 0.2 0.4 0.4c0.1 0.2 0.2 0.4 0.2 0.5 0 0.2 0.1 0.4 0.1 0.7v1.1c0 0.4 0 0.7 0 0.9s-0.1 0.4-0.2 0.5c-0.2 0.2-0.3 0.4-0.5 0.4-0.2 0.1-0.3 0.2-0.6 0.2-0.2 0-0.4 0-0.6-0.1-0.1-0.1-0.2-0.2-0.3-0.3-0.1-0.2-0.2-0.3-0.2-0.5s-0.1-0.5-0.1-0.9v-1.2zM7.4 5.1c0 0.2 0.2 0.5 0.4 0.5s0.4-0.2 0.4-0.5v-2.4c0-0.2-0.2-0.5-0.4-0.5s-0.4 0.2-0.4 0.5v2.4zM4.6 6.3h1v-3.4l1.1-2.9h-1.1l-0.6 2.2-0.6-2.2h-1.1l1.2 2.9 0.1 3.4z"></path>
</svg>
