<?xml version="1.0" encoding="utf-8"?>
<!-- Generated by IcoMoon.io -->
<!DOCTYPE svg PUBLIC "-//W3C//DTD SVG 1.1//EN" "http://www.w3.org/Graphics/SVG/1.1/DTD/svg11.dtd">
<svg version="1.1" xmlns="http://www.w3.org/2000/svg" xmlns:xlink="http://www.w3.org/1999/xlink" width="16" height="16" viewBox="0 0 16 16">
<path fill="#444" d="M15.9 14.4l-4.1-4.1c0.8-1.1 1.2-2.4 1.2-3.8 0-3.6-2.9-6.5-6.4-6.5-3.6 0-6.5 2.9-6.5 6.5s2.9 6.5 6.5 6.5c1.4 0 2.6-0.4 3.7-1.1l4.2 4.2 1.4-1.7zM2 6.5c0-2.5 2-4.6 4.6-4.6 2.5 0 4.6 2.1 4.6 4.6s-2.1 4.6-4.6 4.6c-2.6 0-4.6-2.1-4.6-4.6z"></path>
</svg>
