<?xml version="1.0" encoding="utf-8"?>
<!-- Generator: Adobe Illustrator 15.1.0, SVG Export Plug-In . SVG Version: 6.00 Build 0)  -->
<!DOCTYPE svg PUBLIC "-//W3C//DTD SVG 1.1//EN" "http://www.w3.org/Graphics/SVG/1.1/DTD/svg11.dtd">
<svg version="1.1" id="Layer_1" xmlns="http://www.w3.org/2000/svg" xmlns:xlink="http://www.w3.org/1999/xlink" x="0px" y="0px"
	 width="86px" height="100px" viewBox="0 0 86 100" enable-background="new 0 0 86 100" xml:space="preserve">
<path fill-rule="evenodd" clip-rule="evenodd" fill="#454545" d="M72,8c-3,0-5-1-6-3l-6-5H26l-6,5c-1,2-3,3-6,3H0v92h86V8H72z
	 M76,90H10V17h15l6,6h25l6-6h14V90z M18,43l2-2c3,2,4,3,7,5c6-7,9-10,16-14l1,2c-6,5-10,10-16,20C25,50,22,47,18,43z M18,69l2-2
	c3,2,4,3,7,5c6-7,9-10,16-14l1,2c-6,5-10,10-16,20C25,76,22,73,18,69z M68,41H51v-4h17V41z M68,46H51v4h17V46z M68,70H51v-5h17V70z
	 M68,74H51v5h17V74z"/>
</svg>
