<?xml version="1.0" encoding="utf-8"?>
<!-- Generator: Adobe Illustrator 15.1.0, SVG Export Plug-In . SVG Version: 6.00 Build 0)  -->
<!DOCTYPE svg PUBLIC "-//W3C//DTD SVG 1.1//EN" "http://www.w3.org/Graphics/SVG/1.1/DTD/svg11.dtd">
<svg version="1.1" id="Layer_1" xmlns="http://www.w3.org/2000/svg" xmlns:xlink="http://www.w3.org/1999/xlink" x="0px" y="0px"
	 width="120px" height="60px" viewBox="0 0 120 60" enable-background="new 0 0 120 60" xml:space="preserve">
<g id="Group_x5F_25">
	<rect fill="#233A76" width="120" height="60"/>
	<g id="Group_x5F_26">
		<polygon fill="#FFFFFF" points="52,36 0,36 0,40 25,40 0,52 0,60 0,60 0,60 40,40 50,40 10,60 14,60 50,42 50,60 52,60 		"/>
		<polygon fill="#FFFFFF" points="52,24 52,0 50,0 50,18 15,0 0,0 0,0 39,20 29,20 0,5 0,8 25,20 0,20 0,24 		"/>
		<polygon fill="#FFFFFF" points="67,24 120,24 120,20 96,20 120,7 120,0 81,20 71,20 110,0 106,0 70,18 70,0 67,0 		"/>
		<polygon fill="#FFFFFF" points="80,40 90,40 120,55 120,52 95,40 120,40 120,36 67,36 67,60 70,60 70,42 105,60 119,60 		"/>
		<polygon fill="#E03A3E" points="50,40 40,40 0,60 0,60 10,60 		"/>
		<polygon fill="#E03A3E" points="80,40 119,60 120,60 120,55 90,40 		"/>
		<polygon fill="#E03A3E" points="29,20 39,20 0,0 0,5 		"/>
		<polygon fill="#E03A3E" points="110,0 71,20 81,20 120,0 120,0 		"/>
		<polygon fill="#E03A3E" points="67,24 67,0 52,0 52,24 0,24 0,36 52,36 52,60 67,60 67,36 120,36 120,24 		"/>
	</g>
</g>
</svg>
