<?xml version="1.0" encoding="utf-8"?>
<!-- Generator: Adobe Illustrator 15.1.0, SVG Export Plug-In . SVG Version: 6.00 Build 0)  -->
<!DOCTYPE svg PUBLIC "-//W3C//DTD SVG 1.1//EN" "http://www.w3.org/Graphics/SVG/1.1/DTD/svg11.dtd">
<svg version="1.1" id="Layer_1" xmlns="http://www.w3.org/2000/svg" xmlns:xlink="http://www.w3.org/1999/xlink" x="0px" y="0px"
	 width="120px" height="60px" viewBox="0 0 120 60" enable-background="new 0 0 120 60" xml:space="preserve">
<g id="Group_x5F_17">
	<rect fill="#231F1F" width="120" height="60"/>
	<polygon fill="#FFFFFF" points="52.487,36 0,36 0,40 25.234,40 0,52 0,60 0,60 0,60 39.366,40 49.459,40 10.094,60 13.122,60 
		49.459,42 49.459,60 52.487,60 	"/>
	<polygon fill="#FFFFFF" points="67.628,24 120.115,24 120.115,20 95.891,20 120.115,7 120.115,0 80.75,20 70.656,20 110.021,0 
		105.984,0 69.646,18 69.646,0 67.628,0 	"/>
	<polygon fill="#FFFFFF" points="79.74,40 90.844,40 120.115,55 120.115,52 95.891,40 120.115,40 120.115,36 67.628,36 67.628,60 
		69.646,60 69.646,42 105.984,60 120.115,60 	"/>
	<polygon fill="#565656" points="49.459,40 39.366,40 0,60 0,60 10.094,60 	"/>
	<polygon fill="#565656" points="79.74,40 120.115,60 120.115,60 120.115,55 90.844,40 	"/>
	<polygon fill="#565656" points="29.272,20 39.366,20 0,0 0,5 	"/>
	<polygon fill="#565656" points="110.021,0 70.656,20 80.75,20 120.115,0 120.115,0 	"/>
	<polygon fill="#565656" points="67.628,24 67.628,0 52.487,0 52.487,24 0,24 0,36 52.487,36 52.487,60 67.628,60 67.628,36 
		120.115,36 120.115,24 	"/>
	<polygon fill="#FFFFFF" points="52.487,24 52.487,0 49.459,0 49.459,18 14.131,0 0,0 0,0 39.366,20 29.272,20 0,5 0,8 24.225,20 
		0,20 0,24 	"/>
</g>
</svg>
