<?xml version="1.0" encoding="utf-8"?>
<!-- Generator: Adobe Illustrator 15.1.0, SVG Export Plug-In . SVG Version: 6.00 Build 0)  -->
<!DOCTYPE svg PUBLIC "-//W3C//DTD SVG 1.1//EN" "http://www.w3.org/Graphics/SVG/1.1/DTD/svg11.dtd">
<svg version="1.1" id="Layer_1" xmlns="http://www.w3.org/2000/svg" xmlns:xlink="http://www.w3.org/1999/xlink" x="0px" y="0px"
	 width="94px" height="94px" viewBox="0 0 94 94" enable-background="new 0 0 94 94" xml:space="preserve">
<path fill-rule="evenodd" clip-rule="evenodd" fill="#454545" d="M51,33v-1c1,0,1,0,1,0l0,0l0,0l0,0l0,0c0,0,0,0,1,0l0,0l0,0l0,0
	l0,0v1l0,0l0,0l0,0c-1,0-1,0-1,0l0,0l0,0C51,33,51,33,51,33L51,33L51,33z M43,21L43,21L43,21L43,21L43,21L43,21L43,21h1l0,0l0,0l0,0
	H43L43,21c0,0,0,0,1,0l0,0l0,0c0,1,0,1,0,0l0,0l0,0c0,1,0,1,0,1l0,0l0,0l0,0l0,0c0,0,0,0-1,0l0,0l0,0l0,0l0,0c0,0,0,0,0,1l0,0l0,0
	l0,0l0,0l0,0c1,0,0,0,0,0l0,0l0,0l0,0l0,0l0,0c0,0,0,0,1,0l0,0l0,0l0,0l0,0l0,0l0,0c0,0,0,1,0,0h-1c0,1,0,1,0,1l0,0l0,0l0,0l0,0l0,0
	l0,0l0,0c0,0,0,0,1,0l0,0l0,0l0,0c1,0,1,0,1,0l0,0l0,0l0,0l0,0h1l0,0l0,0c-1,0-1-1-1-1l0,0l0,0l0,0h1l0,0l0,0l0,0l0,0h-1l0,0l0,0
	c0-1,0-1,0-1l0,0l0,0l0,0l0,0l0,0l0,0l0,0l0,0l0,0l0,0v-1l0,0c0,0,0,0,0-1l0,0h-1l0,0l0,0l0,0c0,0,0,0,1,0c0,0,0,0-1,0l0,0l0,0l0,0
	l0,0l0,0c0,0,0,0-1,0l0,0l0,0l0,0l0,0l0,0l0,0l0,0l0,0l0,0l0,0l0,0l0,0V21L43,21L43,21z M94,47c0,26-21,47-47,47S0,73,0,47
	S21,0,47,0S94,21,94,47z M61,27L61,27c0-1,0-1,0-1l0,0l0,0l0,0l0,0l0,0l0,0l0,0h-1l0,0l0,0c0,1-1,1-1,1l0,0l0,0l0,0v1l0,0l0,0l0,0v1
	l0,0l0,0l0,0l0,0l0,0l0,0l0,0c0,0,0,0,1,1l0,0l0,0c0,0,0,0,1,0l0,0v-1l0,0l0,0c0,0,0,0,1,0l0,0h1l0,0h1l0,0l0,0c1,0,1,0,1,0h1
	c0-1-1-1-1-1l-1-1h-1l0,0l0,0v-1l0,0l0,0l0,0l0,0v-1l0,0v1l0,0l0,0l0,0h-1l0,0l0,0c0,1,0,1,0,1l0,0l0,0l0,0C61,27,61,27,61,27L61,27
	L61,27L61,27z M85,47c0-4-1-8-2-10c0-1,0-1-1-1c-1-1-1-1-2,0c-2,1-1,1-2,1c0,0-1,0-2,0c0-1,0-1-1,0h-1c-1-1-2-2-2-2l0,0l0,0
	c0,0-1,0,0,1c2,3,2,3,2,3l0,0c1,0,1,0,1,0s0,0,0-1l0,0c1,0,1,0,1,0s0,0,1,0l0,0c0,0,0,0,1,0c1,1,0,2,0,2c0,1,0,1,0,1l0,0
	c0-1,0,0,0,0s0,0,0,1l0,0l0,0c-1,0-1,0-1,1v1h-1c0,1-1,1-1,2c0,0-1,0-1,1c0,0-1,1-2,1c0,0,0,0-1,0l0,0c0-1,0-2-1-3c0-1-2-1-2-3
	c0-1,0-1-1-1c0-1-1-1-1-1c0-1-1-1-1-2l0,0c0-1-1-1-1,0c0,0,1,0,0,0l0,0l-1-1l0,0l0,0c1,1,4,6,4,6c1,3,3,4,4,5l0,0c0,1,0,1,1,1
	c0,0,0,0,1,0h1l1-1l0,0c1,0,1-1,1,0l0,0c0,2,0,2,0,2l-1,1c0,1-1,3-2,4l0,0c0,1-1,2-2,3c0,1-1,2-2,3c0,0,0,0,0,1c0,0,1,2,1,4
	s-1,2-1,2c-1,1-2,2-2,2c-1,0-1,1-1,2c0,0,0,0-1,1l0,0l-1,1l0,0l0,0c0,1-4,4-5,4s-2,0-3,1l-2-1l0,0l-1-2v-1c-1-1,0-1-1-2l0,0l-1-2
	c0,0-1,0-1-1l0,0l1-2l0,0l0,0c1-1,1-1,1-2c0,0,0,0-1-1c0-1-1-2-1-3c0,0-1,0-2-1c0,0,0,0,0-1c1,0,1,0,1-2l0,0l0,0l0,0l0,0l0,0
	c0,0,0,0,0-1l0,0l0,0c-1,0-1,0-1,0l0,0l0,0l0,0c-1,0-2,0-2-1s-1-1-2-1s-2,2-4,2v-1c-1,0-3,0-4,0l-1-1l-2-2l0,0c-1-1-1-3-1-3l0,0
	l-1-1l0,0l0,0c0,0,0-1,0-2l1-2l0,0l0,0c0-2,0-2,0-2c0-1,0-1,1-2c1-3,2-3,2-3l0,0l0,0c1,0,2-1,2-1c0-1,0-1,1-1c0-1,0-1,0-1l2-1
	c0-1,1-1,1,0l0,0c0,0,0,0,1,0l0,0c1-1,2-1,7-1c1,0,1,0,1,0l0,0c0,0,0,0,0,1c1,0,0,0,0,1l0,0c0,0,0,0,1,0l1,1c0,0,1,0,1,1
	c0,0,3,1,3-1l0,0c1-1,2,0,2,0s0,0,1,0l0,0l0,0c0,0,0,0,1,0s2,0,3,0s1,0,1,0c1-1,0-3,0-4l0,0l0,0l0,0c0,0-1,0-1,1c0,0,0,0-1,0
	c0,0,0,0-1-1c0,0,0,0,0,1l0,0c0,0-1,0-2-1l0,0l0,0l0,0c0-1,0-1-1-1c0-1,1-1,1-1l0,0l0,0l0,0l0,0c-1,0-1,0-1,0l0,0c-1,0-1,0-1,0l0,0
	l0,0l0,0l0,0v1l0,0l0,0l0,0c-1,1-1,0-1,0l0,0l0,0l0,0l0,0h-1l0,0l0,0c0,0,0,0,0-1l0,0l0,0c0,0,0,0,0-1c-1,0-1,0-1,0l0,0l0,0l0,0
	l-2-1l0,0l0,0c-1-1-1-1-1-1l0,0v1l0,0l1,1c0,0,0,1,1,1l0,0l0,0c1,0,1,0,1,1l0,0l0,0l0,0l0,0l0,0l0,0l0,0l0,0c0,0,0,0-1,0l0,0l0,0
	c0,0,0,0,1,0l0,0c0,1,0,1,0,1s0,0-1,0l0,0l0,0l0,0l0,0v-1l0,0l0,0l-1-1c-1,0-1-1-2-2l0,0h-1c0,0-1,0-1,1c-1,0-1-1-1,0c-1,0-1,0-1,1
	c-1,0-1,0-2,0v1l0,0l0,0v1l0,0l0,0c-1,0-1,0-1,0v1c-1,0-1,0-1,0c-1,0-1,0-1,0l0,0c-1,0-1,0-1-1l0,0c0,0,0,0-1,0l0,0l0,0c0,0,0,0,0-1
	l0,0l0,0l0,0v-1l0,0c1-1,1-1,1-2l0,0l0,0l0,0h1c0,0,1,0,2,0c0,0,0,0,0,1c1,0,1-1,1-1l0,0c0-1,0-1,0-1l0,0l0,0l0,0l0,0v-1
	c-1,0-1,0-1,0v-1l0,0c1,0,1,0,1,0l0,0l0,0l0,0l0,0c1,0,1,0,1,0l0,0l0,0c1-1,1-1,1-1l0,0c1,0,1-1,1-1h1l0,0l0,0l0,0c0,0,0,0,1,0l0,0
	c0-1,0-1,0-1s0,1,0,0s0-1,1-2l0,0v1l0,0l0,0c-1,1,0,1,0,1l0,0l0,0l0,0h1l0,0l0,0c1,0,1,0,1,0c1,0,1,0,2,0v-1l0,0l0,0c0-1,0-1,0-1h1
	l0,0l0,0l0,0l0,0c0,0,0,0,0-1l0,0c1,0,1,0,1,0c1,0,1,0,1,0h-1l0,0c0-1,0,0-1,0l0,0l0,0l0,0l0,0c0,0,0,0-1,0c0,0,0,0,0-1v-1
	c0,0,0,0,0-1l0,0l0,0c-1,0-1,1-1,1l0,0c0,1-1,1,0,1c0,1,0,1-1,2l0,0c0,0,1,0,0,1l0,0c-1,1-1,0-1,0s0,0,0-1h-1c-1-1-1,0-1,0
	c-1,0-1-1-1-1c0-1,0-1,1-1l0,0c1-1,1-2,2-2l0,0l0,0l0,0l0,0c0-1,0-1,0-1h1l0,0c0,0,0-1,1-1c1-1,1-1,1-1s0,0,1,1l0,0l0,0c0,0,0,0,1,0
	h1c1,0,1,1,1,1h-1l0,0c0,1,0,1,0,1s0,0,1,0l0,0l0,0l0,0c-1,0,0,0,0,0s1,0,0,0v-1l0,0c0,0,0,0,1,0l0,0l0,0l0,0l0,0v-1h1l0,0l0,0l0,0
	c0,0,0-1,1-1l0,0l0,0l0,0l0,0v-1l0,0c-4-1-8-2-12-3c-1,1-1,1-2,2c-3,2-6,3-6,3c-1,0-1,0-1,0l0,0l0,0c0,0,0,0,0-1l-1,1l0,0l0,0
	c-1,0-1,0-1,0l0,0c-1,0-1,0-1,0h1c0,0,0,0-1,0l0,0c0,0,0,0-1,0c0,0,0,1,0,0c0,0,0,0,0,1h-1l0,0l0,0l-1,1l0,0c0,0,0,0-1,0l0,0
	c0,0,1,0,0,0l0,0l1-1c-1,0-1,0-1,0l0,0c0,0,0,0,1,0l0,0v-1c0,0,0,0,1,0l0,0c0-1-1-1,0-1l0,0c1,0,1-1,1-1s0,0,1,0l0,0l1-1l0,0l0,0
	l0,0c1,0,1,0,1,0l0,0l0,0h-1l0,0l0,0c1,0,1,0,1,0c0-1,0-1,0-1c-1,0-3,1-4,1l0,0l0,0v1l0,0l0,0l0,0l0,0l0,0l0,0l0,0h-1l0,0h-1
	c1,0,1,0,1,0l0,0l0,0c-1,0-1,0-1,0s0,1-1,1l0,0l0,0c0,0,0,0,0-1l0,0l0,0v1h-1l0,0c0,0-1,0-1,1h-1l0,0l0,0l0,0c0,0,0,0,1,0l0,0v1l0,0
	c-1,0-1,0-1,0s0,0,0,1c-1,0-1,2-2,2l0,0c0,1-1,0-1,1h-1v-1l0,0c0,0,0,0-1,0l0,0l0,0l0,0h-1c0,0,2,0,1,1l0,0l0,0l0,0l0,0l0,0
	c-1,0-1,0-1,0c1,0,1,0,1,0c-1,0-1,0-1,0c0,1,0,1,0,1l0,0h-1c0,0,0,0-1,0c0,0,0,0-1,1l0,0l0,0c-5,5-8,11-10,18l0,0c0,0,0,1,0,2l0,0
	l0,0h1c0,1,0,1,0,1l0,0l0,0c1,0,1,1,1,1s0,0-1,0l0,0c1,1,1,4,1,4c1,0,1,0,1,0c1,1,3,4,3,5c-1,0-1,0,0,1c0,0,0,0,0,1l0,0c0,0,0,0,1,0
	l0,0l0,0c1,1,1,1,1,2c0,0,0,0,1,0c1,1,3,4,4,5l-1,1c0,0-1,1-1,2l0,0v1c0,1,0,2,0,3c0,0,0,0,0,1l0,0c-1,0-1,0-1,0l0,0c0,1-2,1-1,1
	c0,1,0,1,0,1s0,0,0,1c0,0,0,1,1,1c7,7,16,12,27,12C68,85,85,68,85,47z M41,23c1,0,1,0,1,0l0,0l0,0l1-1l0,0l0,0l0,0l0,0v-1
	c-1,0-1,1-1,1l0,0l0,0h-1l0,0l0,0V23L41,23L41,23z"/>
</svg>
