<?xml version="1.0" encoding="utf-8"?>
<!-- Generator: Adobe Illustrator 15.1.0, SVG Export Plug-In . SVG Version: 6.00 Build 0)  -->
<!DOCTYPE svg PUBLIC "-//W3C//DTD SVG 1.1//EN" "http://www.w3.org/Graphics/SVG/1.1/DTD/svg11.dtd">
<svg version="1.1" id="Layer_1" xmlns="http://www.w3.org/2000/svg" xmlns:xlink="http://www.w3.org/1999/xlink" x="0px" y="0px"
	 width="125px" height="100px" viewBox="0 0 125 100" enable-background="new 0 0 125 100" xml:space="preserve">
<path fill-rule="evenodd" clip-rule="evenodd" fill="#454545" d="M0,35V22h125v13C125,63,0,62,0,35z M46,10c0-1,1-2,2-2h29
	c1,0,2,1,2,2v6h9V6c0-3-3-6-6-6H43c-3,0-6,3-6,6v10h9V10z M123,52v48H2V52C26,68,99,69,123,52z M69,70H56v6c0,4,3,7,7,7c3,0,6-3,6-7
	V70L69,70z"/>
</svg>
