<?xml version="1.0" encoding="utf-8"?>
<!-- Generator: Adobe Illustrator 15.1.0, SVG Export Plug-In . SVG Version: 6.00 Build 0)  -->
<!DOCTYPE svg PUBLIC "-//W3C//DTD SVG 1.1//EN" "http://www.w3.org/Graphics/SVG/1.1/DTD/svg11.dtd">
<svg version="1.1" id="Layer_1" xmlns="http://www.w3.org/2000/svg" xmlns:xlink="http://www.w3.org/1999/xlink" x="0px" y="0px"
	 width="100px" height="100px" viewBox="0 0 100 100" enable-background="new 0 0 100 100" xml:space="preserve">
<path fill-rule="evenodd" clip-rule="evenodd" fill="#454545" d="M73,64c-1,0-3-1-5-1l2-5c1,0,2,1,3,1s2-1,3-1l2,5
	C76,63,75,64,73,64z M27,64c-2,0-3-1-5-1l2-5c1,0,2,0,3,0s2,0,3,0l2,5C30,63,29,64,27,64z M64,60l-7-4l2-4l7,4L64,60z M36,60l-2-4
	l7-4l2,4L36,60z M53,54c-1,0-2-1-3-1s-2,1-3,1l-2-5c2,0,3-1,5-1s3,1,5,1L53,54z M84,53c-2,0-4,2-4,5c0,2,2,4,4,4c3,0,4-2,4-4
	C88,55,87,53,84,53z M16,53c-2,0-4,2-4,5c0,2,2,4,4,4s4-2,4-4C20,55,18,53,16,53z M100,16c0-9-7-16-16-16S68,7,68,16
	c0,13,13,14,16,34C88,30,100,29,100,16z M79,15c0-3,2-5,5-5s6,2,6,5c0,4-3,6-6,6S79,19,79,15z M93,46v35l-18,9V69h-4v21L51,77V59h-3
	v18L28,90V69h-3v21L7,81V25l18,10v18h3V35l20-10v19h3V25l17,9c-2-4-5-7-6-12l-13-6L27,27L0,13v72l27,15l22-15l24,15l27-15V34l0,0
	C97,38,94,41,93,46z"/>
</svg>
