<?xml version="1.0" encoding="utf-8"?>
<!-- Generator: Adobe Illustrator 15.1.0, SVG Export Plug-In . SVG Version: 6.00 Build 0)  -->
<!DOCTYPE svg PUBLIC "-//W3C//DTD SVG 1.1//EN" "http://www.w3.org/Graphics/SVG/1.1/DTD/svg11.dtd">
<svg version="1.1" id="Layer_1" xmlns="http://www.w3.org/2000/svg" xmlns:xlink="http://www.w3.org/1999/xlink" x="0px" y="0px"
   width="900px" height="741px" viewBox="0 0 900 741" enable-background="new 0 0 900 741" xml:space="preserve">
<g id="iMac_1_">
  <g>
    <g id="Stand">
      <g>
        <path fill="#DCDFE2" d="M555.954,703.717c-2.144-11.117-11.967-101.735-11.967-101.735H356.012c0,0-9.824,90.618-11.96,101.735
          c-4.896,25.475-13.669,28.404-13.669,28.404h239.236C569.618,732.12,560.845,729.19,555.954,703.717z"/>
      </g>
    </g>
    <g id="Rectangle_1">
      <g>
        <rect x="293.682" y="726.265" fill="#D1D6DA" width="315.007" height="15.235"/>
      </g>
    </g>
    <g id="Shadow_1_">
      <g>
        <polygon fill="#D1D6DA" points="544.741,607.841 355.259,607.841 351.708,638.326 548.292,638.326         "/>
      </g>
    </g>
    <g id="Chin">
      <g>
        <path fill="#DCDFE2" d="M0,531.618v60.971c0,19.42,15.904,35.188,35.528,35.188h828.952c19.615,0,35.521-15.768,35.521-35.188
          v-60.971H0z"/>
      </g>
    </g>
    <g id="Dark_Area">
      <g>
        <path fill="#323843" d="M864.479,0.5H35.528C15.904,0.5,0,16.247,0,35.669v512.368h899.998V35.669
          C899.998,16.247,884.095,0.5,864.479,0.5z"/>
      </g>
    </g>
    <g id="Camera">
      <g>
        <path fill="#474C55" d="M450,12.226c-4.574,0-8.281,3.67-8.281,8.2c0,4.539,3.707,8.209,8.281,8.209
          c4.574,0,8.281-3.671,8.281-8.209C458.28,15.896,454.573,12.226,450,12.226z"/>
      </g>
    </g>
    <g id="Display">
      <g>
        <rect x="39.08" y="38.02" fill="#FFFFFF" width="821.848" height="468.981"/>
      </g>
    </g>
  </g>
</g>
</svg>
