<svg xmlns="http://www.w3.org/2000/svg" x="0px" y="0px" width="100" height="100" viewBox="0 0 100 100">
<path d="M 54.501953 1.9921875 A 0.50005 0.50005 0 0 0 54.001953 2.5410156 L 54.460938 8.1777344 C 53.890372 8.6862677 53.211224 9 51.5 9 C 49.774453 9 49.203154 8.6819183 48.519531 8.140625 L 48.976562 2.5410156 A 0.50005 0.50005 0 0 0 48.460938 1.9941406 A 0.50005 0.50005 0 0 0 47.980469 2.4589844 L 47.535156 7.9335938 C 46.252555 8.1692938 45.193409 9.1085363 44.419922 10.087891 C 43.989646 10.632686 43.645675 11.196943 43.402344 11.697266 C 43.327093 11.851992 43.277617 11.983298 43.220703 12.121094 C 33.365451 15.035573 27 22.538902 27 31.25 L 27 36.279297 L 21.683594 38.050781 C 19.595594 38.746781 17.281368 39.502823 15.394531 40.708984 C 13.507695 41.915147 12 43.733784 12 46.228516 L 12 55.625 C 12 60.23847 15.76153 64 20.375 64 L 25 64 L 25 66.851562 L 25.21875 67.125 C 25.21875 67.125 25.504746 67.446929 25.955078 67.734375 C 26.40541 68.021821 27.09334 68.366488 28.130859 68.701172 C 29.086862 69.00956 30.357802 69.307222 32 69.541016 L 32 73.417969 A 0.50005 0.50005 0 0 0 32 73.566406 L 32 79.417969 A 0.50005 0.50005 0 0 0 32 79.574219 L 32 80 C 28.045 80 27 82.29 27 83.5 L 27 88 C 27 89.002 27.983875 94 47.421875 94 C 72.371875 94 75.807406 85.211891 75.941406 84.837891 L 76 84.673828 L 76 31.25 C 76 22.036429 68.972951 13.885516 59.876953 12.404297 C 59.613451 11.306081 58.649708 8.5257883 55.429688 7.7695312 L 54.998047 2.4589844 A 0.50005 0.50005 0 0 0 54.501953 1.9921875 z M 55.28125 8.7929688 C 58.408435 9.594496 58.901964 12.588496 58.943359 12.886719 C 58.905719 12.933609 58.920769 12.930259 58.816406 13.03125 C 58.607684 13.233239 58.257238 13.51603 57.705078 13.806641 C 56.600759 14.387861 54.685897 15 51.5 15 C 48.314103 15 46.399241 14.387861 45.294922 13.806641 C 44.742762 13.51603 44.392316 13.233239 44.183594 13.03125 C 44.069465 12.920802 44.080878 12.919196 44.044922 12.873047 C 44.068342 12.757005 44.121832 12.502715 44.300781 12.134766 C 44.510575 11.703401 44.822854 11.192939 45.205078 10.708984 C 45.945183 9.7718981 46.943728 9.0063261 47.929688 8.9101562 C 48.715899 9.5125716 49.621824 10 51.5 10 C 53.363354 10 54.334127 9.5110714 55.064453 8.8867188 A 0.50005 0.50005 0 0 0 55.28125 8.7929688 z M 43.841797 14.044922 C 44.098688 14.250928 44.40443 14.469334 44.830078 14.693359 C 46.100761 15.362139 48.185897 16 51.5 16 C 54.814103 16 56.899241 15.362139 58.169922 14.693359 C 58.445227 14.548462 58.666627 14.404731 58.869141 14.263672 L 59.058594 14.283203 C 67.436594 15.370203 74 22.823 74 31.25 L 74 84.28125 C 73.47 85.26525 69.019875 92 47.421875 92 C 30.236875 92 29.013 88 29 88 L 29 83.5 C 29 83.083 29.539 82 32 82 L 32 83.630859 C 31.999848 83.630774 31.986328 83.625 31.986328 83.625 A 1.0010694 1.0010694 0 1 0 31.013672 85.375 C 31.013672 85.375 32.280041 86.067346 34.675781 86.714844 C 37.071521 87.362341 40.662281 88 45.5 88 C 57.82483 88 63.859639 86.702535 67.041016 84.298828 C 68.631704 83.096975 69.426311 81.566553 69.751953 80.035156 C 70.077595 78.50376 70 76.972222 70 75.5 C 70 71.073529 68.787965 68.567067 67.111328 67.271484 C 65.434691 65.975901 63.5 66 62.5 66 C 61.833333 66 60.978738 66.136092 59.740234 66.324219 C 58.50173 66.512346 56.918705 66.759734 54.996094 67.007812 C 51.150871 67.50397 45.948718 68 39.5 68 C 33.822464 68 30.544102 67.379461 28.744141 66.798828 C 27.84416 66.508512 27.31334 66.228179 27.029297 66.046875 C 26.996161 66.025724 27.025022 66.043633 27 66.027344 L 27 64 L 53 64 C 57.110208 64 60.997207 63.34047 63.96875 61.767578 C 66.940293 60.194686 69 57.544665 69 54 L 69 45 C 69 39.2 62.447266 36.105469 62.447266 36.105469 A 1.0001 1.0001 0 0 0 61.503906 36.130859 C 61.503906 36.130859 61.408766 36.195369 60.90625 36.365234 C 60.403733 36.535099 59.557913 36.774972 58.253906 37.017578 C 55.645893 37.50279 51.204023 38 44 38 C 38.055556 38 34.119884 37.504445 31.695312 37.019531 C 30.208083 36.722085 29.46185 36.487665 29 36.318359 L 29 31.25 C 29 23.462 34.779375 16.721734 43.734375 14.052734 L 43.841797 14.044922 z M 28.048828 38.039062 C 28.32214 38.160646 29.069961 38.533524 31.304688 38.980469 C 33.880114 39.495555 37.944444 40 44 40 C 51.295977 40 55.854107 39.49721 58.621094 38.982422 C 60.004587 38.725028 60.940017 38.464901 61.546875 38.259766 C 61.754018 38.189746 61.728661 38.185946 61.871094 38.126953 C 62.436296 38.441981 67 41.045831 67 45 L 67 54 C 67 56.810335 65.559707 58.661642 63.03125 60 C 60.502793 61.338358 56.889792 62 53 62 L 26.154297 62 A 1.0001 1.0001 0 0 0 25.984375 61.986328 A 1.0001 1.0001 0 0 0 25.839844 62 L 20.375 62 C 16.84247 62 14 59.15753 14 55.625 L 14 46.228516 C 14 44.494247 14.903493 43.395667 16.472656 42.392578 C 18.04182 41.38949 20.228406 40.645219 22.316406 39.949219 L 28.048828 38.039062 z M 21.5 43 C 18.468687 43 16 45.468687 16 48.5 L 16 51.5 L 16 54.5 C 16 57.531313 18.468687 60 21.5 60 L 53.5 60 C 53.689457 60 53.875951 59.989524 54.060547 59.970703 C 56.82949 59.688384 59 57.341856 59 54.5 L 59 51.5 L 59 50.5 C 59 50.241486 58.986584 49.986221 58.960938 49.734375 C 58.576234 45.95668 55.377705 43 51.5 43 L 21.5 43 z M 21.5 44 L 26.048828 44 C 23.601839 45.821577 22 48.717784 22 52 C 22 54.730047 23.107943 57.19672 24.884766 59 L 21.5 59 C 19.009313 59 17 56.990687 17 54.5 L 17 51.5 L 17 48.5 C 17 46.009313 19.009313 44 21.5 44 z M 27.919922 44 L 33.28125 44 C 34.946023 44.746493 36.982573 45.957643 39.03125 47.669922 C 38.391341 48.979576 38 50.437539 38 52 C 38 52.337428 38.023423 52.668672 38.058594 52.996094 C 38.069228 53.10267 38.079778 53.208892 38.09375 53.314453 C 38.098906 53.350766 38.107712 53.385698 38.113281 53.421875 C 38.301387 54.73158 38.745024 55.954644 39.390625 57.048828 C 38.887652 57.780734 38.289112 58.442396 37.59375 59 L 26.404297 59 C 24.344137 57.349985 23 54.845858 23 52 C 23 48.499386 25.007049 45.489802 27.919922 44 z M 35.470703 44 L 45.71875 44 C 43.514983 45.038149 41.938774 45.79364 40.876953 46.324219 L 40.929688 46.228516 L 39.679688 46.910156 C 38.232257 45.699647 36.79787 44.746699 35.470703 44 z M 48.056641 44 L 51.5 44 C 54.871045 44 57.634562 46.552085 57.966797 49.833984 C 57.988946 50.052778 58 50.275264 58 50.5 L 58 51.5 L 58 54.5 C 58 56.679351 56.461364 58.489556 54.408203 58.908203 C 54.114894 58.96801 53.811336 59 53.5 59 L 42.404297 59 C 41.422136 58.213372 40.61011 57.228731 40.021484 56.109375 C 39.988213 56.045393 39.949733 55.984773 39.917969 55.919922 C 39.826309 55.734832 39.748804 55.541662 39.669922 55.349609 C 39.598819 55.174578 39.528881 54.998651 39.46875 54.818359 C 39.412712 54.652111 39.362672 54.483036 39.316406 54.3125 C 39.255051 54.083871 39.205358 53.850814 39.162109 53.615234 C 39.135585 53.472256 39.105482 53.330937 39.085938 53.185547 C 39.034274 52.797142 39 52.403335 39 52 C 39 51.62019 39.026581 51.246828 39.074219 50.880859 C 39.218365 49.800219 39.565637 48.786159 40.056641 47.853516 C 40.403654 47.676721 43.899769 45.904747 48.056641 44 z M 31.5 50 C 31.224 50 31 50.224 31 50.5 L 31 53.5 C 31 53.776 31.224 54 31.5 54 L 34.5 54 C 34.776 54 35 53.776 35 53.5 L 35 50.5 C 35 50.224 34.776 50 34.5 50 L 31.5 50 z M 52.5 50 C 52.224 50 52 50.224 52 50.5 L 52 53.5 C 52 53.776 52.224 54 52.5 54 L 55.5 54 C 55.776 54 56 53.776 56 53.5 L 56 50.5 C 56 50.224 55.776 50 55.5 50 L 52.5 50 z M 63 68.011719 C 63.915512 68.034133 64.982864 68.153574 65.888672 68.853516 C 66.507447 69.33166 67.108547 70.133249 67.511719 71.490234 C 66.61104 71.964327 65.5397 72.381226 64.353516 72.744141 A 0.50005 0.50005 0 1 0 64.646484 73.699219 C 65.779638 73.352529 66.824627 72.956143 67.748047 72.492188 C 67.902398 73.32369 68 74.300716 68 75.5 C 68 76.210008 68.00657 76.885529 67.992188 77.533203 C 66.575916 78.324457 64.620958 78.963406 62.392578 79.449219 A 0.50005 0.50005 0 1 0 62.607422 80.425781 C 64.629319 79.984985 66.457156 79.432118 67.931641 78.703125 C 67.900639 79.021396 67.857244 79.328006 67.794922 79.621094 C 67.542439 80.808447 67.055796 81.778025 65.833984 82.701172 C 65.165751 83.206059 64.222734 83.677217 63 84.101562 L 63 82.5 A 0.50005 0.50005 0 0 0 62.492188 81.992188 A 0.50005 0.50005 0 0 0 62 82.5 L 62 84.412109 C 59.516757 85.124351 55.960651 85.648131 51 85.871094 L 51 81.796875 C 52.820294 81.700541 54.691628 81.573314 56.554688 81.371094 A 0.50006985 0.50006985 0 1 0 56.445312 80.376953 C 54.62331 80.574717 52.788378 80.699502 51 80.794922 L 51 75.775391 C 53.830045 75.608369 56.802054 75.327764 59.582031 74.863281 A 0.50005 0.50005 0 1 0 59.417969 73.876953 C 56.705688 74.330125 53.788558 74.605432 51 74.771484 L 51 69.455078 C 52.542172 69.309607 53.996142 69.15448 55.253906 68.992188 C 57.206295 68.740266 58.81077 68.487654 60.041016 68.300781 C 60.926681 68.16625 61.546192 68.088546 62 68.044922 L 62 77.5 A 0.50005 0.50005 0 1 0 63 77.5 L 63 68.011719 z M 50 69.542969 L 50 74.818359 C 47.434219 74.948403 44.993233 75 43 75 C 39.041667 75 36.466376 74.504528 34.896484 74.021484 C 33.65088 73.638222 33.186856 73.350603 33 73.222656 L 33 69.666016 C 34.402959 69.826952 36.055133 69.939302 38 69.978516 L 38 72.5 A 0.50005 0.50005 0 1 0 39 72.5 L 39 69.992188 C 39.171202 69.993314 39.324555 70 39.5 70 C 43.498065 70 46.967311 69.803784 50 69.542969 z M 33 74.349609 C 33.38837 74.540034 33.894466 74.760346 34.603516 74.978516 C 36.283624 75.495472 38.958333 76 43 76 C 44.993281 76 47.431979 75.949176 50 75.820312 L 50 80.851562 C 47.601808 80.960353 45.347977 81.000533 43.5 81 C 41.834742 80.999505 40.326251 80.875888 39 80.691406 L 39 77.5 A 0.50005 0.50005 0 0 0 38.492188 76.992188 A 0.50005 0.50005 0 0 0 38 77.5 L 38 80.521484 C 35.141198 80.024643 33.45592 79.361564 33 79.164062 L 33 74.349609 z M 60.5 79.824219 A 0.50005 0.50005 0 0 0 60.416016 79.833984 C 60.093026 79.888964 59.758974 79.939212 59.423828 79.990234 A 0.50005 0.50005 0 1 0 59.576172 80.978516 C 59.911026 80.927536 60.248974 80.875382 60.583984 80.818359 A 0.50005 0.50005 0 0 0 60.5 79.824219 z M 33 80.242188 C 33.878489 80.576408 35.590506 81.123843 38 81.53125 L 38 85.378906 C 36.940575 85.193599 35.972004 84.994017 35.199219 84.785156 C 34.220515 84.520642 33.520699 84.272192 33 84.068359 L 33 80.242188 z M 39 81.693359 C 40.340574 81.875719 41.844061 81.999508 43.5 82 C 45.348667 82.000531 47.600006 81.961518 50 81.853516 L 50 85.921875 C 48.603671 85.970617 47.116662 86 45.5 86 C 42.951339 86 40.811698 85.811211 39 85.546875 L 39 81.693359 z"></path>
</svg>
