<svg xmlns="http://www.w3.org/2000/svg" x="0px" y="0px" width="100" height="100" viewBox="0 0 64 64">
    <path d="M 32 6 C 9.852 6 4 21.699 4 30 L 4 35 C 4 37.757 6.243 40 9 40 L 10 40 L 10 55 C 10 56.654 11.346 58 13 58 L 51 58 C 52.654 58 54 56.654 54 55 L 54 40 L 55 40 C 57.757 40 60 37.757 60 35 L 60 30 C 60 21.699 54.148 6 32 6 z M 32 8 C 52.566 8 58 22.391 58 30 L 58 35 C 58 36.654 56.654 38 55 38 L 54 38 L 54 33 C 54 32.448 53.553 32 53 32 C 52.447 32 52 32.448 52 33 L 52 55 C 52 55.551 51.552 56 51 56 L 13 56 C 12.448 56 12 55.551 12 55 L 12 33 C 12 32.448 11.553 32 11 32 C 10.447 32 10 32.448 10 33 L 10 38 L 9 38 C 7.346 38 6 36.654 6 35 L 6 30 C 6 22.391 11.434 8 32 8 z M 22 16 C 19.791 16 18 17.791 18 20 C 18 22.056 19.556734 23.729078 21.552734 23.955078 C 20.573734 25.395078 20 27.132 20 29 L 20 33 C 20 33.286 20.014062 33.568656 20.039062 33.847656 C 20.334063 37.002656 22.905578 38.318656 25.142578 38.222656 C 27.556578 38.109656 30 36.353797 30 33.216797 L 30 29.583984 C 30.59 29.841984 31.268 30 32 30 C 32.732 30 33.41 29.841984 34 29.583984 L 34 33.216797 C 34 36.352797 36.443422 38.108703 38.857422 38.220703 C 38.940422 38.224703 39.022469 38.226562 39.105469 38.226562 C 41.292469 38.226562 43.674984 36.887609 43.958984 33.849609 C 43.985984 33.569609 44 33.286 44 33 L 44 29 C 44 27.132 43.426266 25.395078 42.447266 23.955078 C 44.443266 23.729078 46 22.056 46 20 C 46 17.791 44.209 16 42 16 C 39.791 16 38 17.791 38 20 C 38 20.187 38.029687 20.364922 38.054688 20.544922 C 37.098687 20.198922 36.074 20 35 20 L 29 20 C 27.926 20 26.901312 20.198922 25.945312 20.544922 C 25.970312 20.364922 26 20.187 26 20 C 26 17.791 24.209 16 22 16 z M 29 22 L 35 22 C 38.859 22 42 25.14 42 29 L 42 33 C 42 33.223 41.98975 33.442156 41.96875 33.660156 C 41.78275 35.647156 40.216172 36.282609 38.951172 36.224609 C 37.482172 36.155609 36 35.198797 36 33.216797 L 36 27 C 36 25.343 34.209 24 32 24 C 29.791 24 28 25.343 28 27 L 28 33.216797 C 28 35.197797 26.517828 36.154656 25.048828 36.222656 C 23.770828 36.279656 22.216297 35.647156 22.029297 33.660156 C 22.009297 33.443156 22 33.223 22 33 L 22 29 C 22 25.14 25.141 22 29 22 z M 11 24 C 10.447 24 10 24.448 10 25 L 10 29 C 10 29.552 10.447 30 11 30 C 11.553 30 12 29.552 12 29 L 12 25 C 12 24.448 11.553 24 11 24 z M 53 24 C 52.447 24 52 24.448 52 25 L 52 29 C 52 29.552 52.447 30 53 30 C 53.553 30 54 29.552 54 29 L 54 25 C 54 24.448 53.553 24 53 24 z M 16 50 C 15.447 50 15 50.448 15 51 L 15 53 C 15 53.552 15.447 54 16 54 C 16.553 54 17 53.552 17 53 L 17 51 C 17 50.448 16.553 50 16 50 z M 21 50 C 20.447 50 20 50.448 20 51 L 20 53 C 20 53.552 20.447 54 21 54 C 21.553 54 22 53.552 22 53 L 22 51 C 22 50.448 21.553 50 21 50 z M 26 50 C 25.447 50 25 50.448 25 51 L 25 53 C 25 53.552 25.447 54 26 54 C 26.553 54 27 53.552 27 53 L 27 51 C 27 50.448 26.553 50 26 50 z M 31 50 C 30.447 50 30 50.448 30 51 L 30 53 C 30 53.552 30.447 54 31 54 C 31.553 54 32 53.552 32 53 L 32 51 C 32 50.448 31.553 50 31 50 z M 36 50 C 35.447 50 35 50.448 35 51 L 35 53 C 35 53.552 35.447 54 36 54 C 36.553 54 37 53.552 37 53 L 37 51 C 37 50.448 36.553 50 36 50 z M 41 50 C 40.447 50 40 50.448 40 51 L 40 53 C 40 53.552 40.447 54 41 54 C 41.553 54 42 53.552 42 53 L 42 51 C 42 50.448 41.553 50 41 50 z M 46 50 C 45.447 50 45 50.448 45 51 L 45 53 C 45 53.552 45.447 54 46 54 C 46.553 54 47 53.552 47 53 L 47 51 C 47 50.448 46.553 50 46 50 z"></path>
</svg>
