<svg xmlns="http://www.w3.org/2000/svg"  viewBox="0 0 24 24" id="Technology-Privacy-Consent-Profile-Information--Streamline-Ultimate" height="24" width="24">
  <desc>
    Technology Privacy Consent Profile Information Streamline Icon: https://streamlinehq.com
  </desc>
  <path fill="none" stroke="#000000" stroke-linecap="round" stroke-linejoin="round" d="M17.440559999999998 15.759899999999998c1.43352 0 2.5955999999999997 -1.1620799999999998 2.5955999999999997 -2.5955999999999997 0 -1.4334299999999998 -1.1620799999999998 -2.5955999999999997 -2.5955999999999997 -2.5955999999999997s-2.5955999999999997 1.1621699999999997 -2.5955999999999997 2.5955999999999997c0 1.43352 1.1620799999999998 2.5955999999999997 2.5955999999999997 2.5955999999999997Z" stroke-width="1.5"></path>
  <path fill="none" stroke="#000000" stroke-linecap="round" stroke-linejoin="round" d="M13.390559999999997 20.91771c0 -1.07406 0.42668999999999996 -2.1042 1.1862 -2.8637099999999998 0.7595999999999999 -0.7595999999999999 1.7896499999999997 -1.1862899999999998 2.8637999999999995 -1.1862899999999998s2.1042899999999998 0.42668999999999996 2.8637999999999995 1.1862899999999998c0.7595099999999999 0.7595099999999999 1.1862 1.7896499999999997 1.1862 2.8637099999999998h-8.1Z" stroke-width="1.5"></path>
  <path fill="none" stroke="#000000" stroke-linecap="round" stroke-linejoin="round" d="M5.3283689999999995 9.45h8.099991" stroke-width="1.5"></path>
  <path fill="none" stroke="#000000" stroke-linecap="round" stroke-linejoin="round" d="M5.3283689999999995 12.825h6.074991" stroke-width="1.5"></path>
  <path fill="none" stroke="#000000" stroke-linecap="round" stroke-linejoin="round" d="M5.3283689999999995 16.2h6.074991" stroke-width="1.5"></path>
  <path fill="none" stroke="#000000" stroke-linecap="round" stroke-linejoin="round" d="M10.27836 20.924999999999997H2.6283779999999997c-0.358047 0 -0.7014239999999999 -0.1422 -0.9545939999999998 -0.39537 -0.253179 -0.25316999999999995 -0.395406 -0.59661 -0.395406 -0.9546299999999999V5.3999999999999995c0 -0.35803799999999997 0.142227 -0.7014239999999999 0.395406 -0.9545939999999998 0.25316999999999995 -0.25316999999999995 0.5965469999999999 -0.395406 0.9545939999999998 -0.395406h3.3749999999999996c0 -0.8951039999999999 0.355581 -1.7535509999999999 0.9885149999999998 -2.386485S8.483274 0.6749999999999999 9.378359999999999 0.6749999999999999c0.8951399999999999 0 1.7535599999999998 0.355581 2.3865299999999996 0.9885149999999998 0.63288 0.6329339999999999 0.98847 1.4913809999999998 0.98847 2.386485h3.3749999999999996c0.35801999999999995 0 0.7014599999999999 0.142236 0.9546299999999999 0.395406s0.39537 0.596556 0.39537 0.9545939999999998v2.4749999999999996" stroke-width="1.5"></path>
  <path fill="none" stroke="#000000" d="M9.378359999999999 4.05c-0.18639 0 -0.33749999999999997 -0.15110099999999999 -0.33749999999999997 -0.33749999999999997s0.15110999999999997 -0.33749999999999997 0.33749999999999997 -0.33749999999999997" stroke-width="1.5"></path>
  <path fill="none" stroke="#000000" d="M9.378359999999999 4.05c0.18639 0 0.33749999999999997 -0.15110099999999999 0.33749999999999997 -0.33749999999999997s-0.15110999999999997 -0.33749999999999997 -0.33749999999999997 -0.33749999999999997" stroke-width="1.5"></path>
</svg>