<svg xmlns="http://www.w3.org/2000/svg" width="24" height="24" fill="none" viewBox="0 0 24 24">
    <g clip-path="url(#clip0_135_4439)" transform="scale(1.5)">
        <path fill="#000" fill-rule="evenodd" d="M12.9467 0.781284C12.9244 0.667527 12.8633 0.565051 12.7738 0.491385C12.6843 0.417719 12.5719 0.377441 12.456 0.377441C12.3401 0.377441 12.2278 0.417719 12.1383 0.491385C12.0488 0.565051 11.9876 0.667527 11.9653 0.781284C11.7307 1.97595 10.792 2.92128 9.64135 3.15262C9.52832 3.17557 9.4267 3.23689 9.35371 3.32619C9.28072 3.41549 9.24084 3.52728 9.24084 3.64262C9.24084 3.75795 9.28072 3.86974 9.35371 3.95904C9.4267 4.04834 9.52832 4.10967 9.64135 4.13262C10.7927 4.36395 11.7307 5.30795 11.9653 6.50262C11.988 6.61601 12.0492 6.71805 12.1386 6.79138C12.228 6.8647 12.3401 6.90478 12.4557 6.90478C12.5713 6.90478 12.6834 6.8647 12.7728 6.79138C12.8622 6.71805 12.9234 6.61601 12.946 6.50262C13.1807 5.30795 14.1193 4.36395 15.27 4.13262C15.383 4.10967 15.4847 4.04834 15.5577 3.95904C15.6306 3.86974 15.6705 3.75795 15.6705 3.64262C15.6705 3.52728 15.6306 3.41549 15.5577 3.32619C15.4847 3.23689 15.383 3.17557 15.27 3.15262C14.1193 2.92128 13.1813 1.97595 12.9467 0.781284ZM8.52468 2.50262C8.32154 2.71921 8.17997 2.98615 8.11459 3.27581C8.04921 3.56547 8.06241 3.86733 8.15282 4.15018C8.24323 4.43303 8.40756 4.68659 8.62882 4.88463C8.85009 5.08267 9.12024 5.218 9.41135 5.27662C10.0893 5.41262 10.6747 5.98528 10.82 6.72728C10.8797 7.03167 11.0232 7.31336 11.2342 7.54065C11.4453 7.76795 11.7156 7.93182 12.0148 8.01385C12.3139 8.09588 12.63 8.09279 12.9275 8.00495C13.225 7.9171 13.4921 7.74798 13.6987 7.51662V11.0646C13.6987 11.5066 13.5231 11.9306 13.2105 12.2431C12.898 12.5557 12.474 12.7313 12.032 12.7313H7.35201C7.30587 12.7313 7.26024 12.7409 7.21801 12.7595C7.17578 12.7781 7.13787 12.8053 7.10668 12.8393L4.85335 15.2966C4.23668 15.968 3.11601 15.532 3.11601 14.62V12.732H1.99601C1.55398 12.732 1.13006 12.5564 0.817501 12.2438C0.50494 11.9312 0.329346 11.5073 0.329346 11.0653V4.16928C0.329346 3.72726 0.50494 3.30333 0.817501 2.99077C1.13006 2.67821 1.55398 2.50262 1.99601 2.50262H8.52468Z" clip-rule="evenodd"/>
    </g>
    <defs>
        <clipPath id="clip0_135_4439">
            <path fill="#fff" d="M0 0H24V24H0z"/>
        </clipPath>
    </defs>
</svg>
