<svg width="16" height="16" viewBox="0 0 16 16" fill="none" xmlns="http://www.w3.org/2000/svg"><path d="M11.757.917c-.239.085-.355.25-.451.639a2.386 2.386 0 0 1-.676 1.206 3.126 3.126 0 0 1-.39.327 2.18 2.18 0 0 1-.76.298c-.212.028-.282.058-.416.178a.697.697 0 0 0-.227.48c-.049.465.205.803.644.858.391.049.846.304 1.195.669.329.345.496.645.622 1.117.085.32.14.43.267.535.141.116.331.175.568.175.38.001.553-.169.678-.667.128-.514.328-.866.695-1.225.323-.316.838-.598 1.096-.6a.653.653 0 0 0 .485-.223c.166-.176.203-.294.187-.604-.012-.255-.047-.342-.199-.491-.139-.136-.214-.171-.436-.202-.525-.075-1.131-.49-1.479-1.014a2.588 2.588 0 0 1-.345-.798c-.08-.3-.165-.45-.307-.544-.203-.135-.547-.187-.751-.114M2.493 2.604a1.841 1.841 0 0 0-.64.182A1.96 1.96 0 0 0 .795 4.041l-.062.212V7.68c0 3.856-.016 3.542.207 4 .092.19.154.27.379.494.434.434.755.559 1.512.59l.422.018v.688c0 .399.013.747.03.829.1.48.477.878.97 1.023.227.067.567.062.774-.013.342-.123.39-.167 1.5-1.376l1.052-1.146 2.244-.015c2.197-.014 2.248-.016 2.451-.073.355-.098.614-.251.888-.525.205-.203.262-.28.368-.494.2-.406.203-.431.202-2.013-.001-1.491-.001-1.494-.141-1.678a.68.68 0 0 0-.197-.153c-.109-.054-.167-.063-.407-.063-.264 0-.289.005-.427.083a.467.467 0 0 0-.227.238l-.08.155-.013 1.349c-.013 1.328-.014 1.35-.071 1.442a.541.541 0 0 1-.147.147c-.086.052-.149.053-2.422.067l-2.333.014-.158.059c-.339.128-.414.199-1.605 1.499l-.744.813-.014-.96c-.011-.819-.02-.973-.058-1.053a.633.633 0 0 0-.315-.303c-.111-.051-.181-.056-.988-.069l-.869-.014-.094-.072c-.195-.149-.182.112-.182-3.508V4.408l.061-.09a.672.672 0 0 1 .15-.151l.09-.06 2.336-.001c1.333-.001 2.421-.012 2.534-.027.4-.052.578-.247.608-.667.027-.376-.096-.624-.372-.749l-.14-.063-2.467-.003c-1.357-.002-2.503.001-2.547.007M12.409 3.8c.331.332.355.364.309.396-.084.058-.35.317-.51.495l-.152.169-.072-.09a7.137 7.137 0 0 0-.349-.362l-.277-.273.101-.091c.055-.05.137-.121.181-.158.044-.036.152-.152.24-.256.088-.104.162-.189.165-.189.003-.001.167.161.364.359" fill-rule="evenodd" fill="#000"/></svg>