<svg xmlns="http://www.w3.org/2000/svg" width="24" height="24" viewBox="0 0 24 24" version="1.1">
	<path d="M 1913.736 147.087 C 1897.584 148.914, 1881.259 160.585, 1873.994 175.500 C 1872.206 179.172, 1869.476 188.630, 1866.959 199.874 C 1844.242 301.370, 1789.837 391.865, 1710.871 459.499 C 1652.981 509.082, 1586.630 542.434, 1512 559.464 C 1493.022 563.795, 1485.835 567.121, 1477.590 575.392 C 1456.298 596.749, 1456.887 630.966, 1478.895 651.166 C 1486.750 658.376, 1494.082 661.648, 1511.172 665.572 C 1564.322 677.774, 1608.884 696.027, 1654.166 724.144 C 1718.924 764.355, 1776.283 823.855, 1814.477 890.440 C 1839.801 934.589, 1855.783 976.665, 1869.005 1034 C 1871.868 1046.415, 1875.864 1054.664, 1882.445 1061.746 C 1892.959 1073.060, 1904.933 1078.276, 1920.500 1078.323 C 1932.602 1078.360, 1940.067 1076.096, 1950.329 1069.278 C 1962.035 1061.501, 1968.284 1051.768, 1972.094 1035.377 C 1981.034 996.920, 1987.097 976.805, 1997.642 950.616 C 2028.728 873.410, 2079.652 805.665, 2146.500 752.587 C 2185.051 721.977, 2236.005 694.512, 2284.500 678.203 C 2296.775 674.075, 2313.909 669.364, 2335.865 664.080 C 2350.531 660.551, 2356.620 657.251, 2365.060 648.257 C 2385.315 626.673, 2384.082 593.898, 2362.264 573.958 C 2354.100 566.497, 2348.783 564.280, 2325.009 558.423 C 2247.030 539.214, 2184.325 506.686, 2125.500 454.929 C 2049.381 387.955, 1997.907 301.244, 1974.641 200.798 C 1969.544 178.792, 1966.586 171.701, 1959.172 163.715 C 1947.440 151.078, 1931.150 145.116, 1913.736 147.087 M 1917.111 364.750 C 1902.261 394.961, 1872.802 439.058, 1846.444 470.533 C 1800.517 525.375, 1741.841 573.521, 1680.617 606.600 C 1673.131 610.645, 1670.198 612.707, 1671.139 613.266 C 1671.887 613.711, 1679.689 618.149, 1688.476 623.127 C 1735.849 649.968, 1776.144 681.055, 1815.533 721.146 C 1855.533 761.859, 1885.810 802.789, 1913.282 853.287 L 1920.783 867.075 1926.864 855.596 C 1979.541 756.161, 2061.894 672.813, 2161.183 618.446 L 2171.866 612.597 2162.683 607.672 C 2150.039 600.892, 2130.827 589.249, 2116.500 579.682 C 2038.521 527.611, 1970.453 452.313, 1927.398 370.492 C 1923.783 363.621, 1920.736 358, 1920.627 358 C 1920.518 358, 1918.936 361.038, 1917.111 364.750 M 355 428.661 C 340.513 430.070, 331.116 431.350, 322.500 433.087 C 285.554 440.535, 250.777 456.238, 220.129 479.312 C 209.214 487.529, 188.069 507.629, 179.437 517.991 C 148.464 555.174, 130.309 596.425, 122.244 647.942 C 120.725 657.641, 120.563 701.157, 120.249 1182.500 C 120.022 1530.814, 120.250 1712.535, 120.928 1724.500 C 122.593 1753.856, 127.845 1778.968, 137.462 1803.566 C 170.248 1887.415, 243.735 1946.520, 334 1961.638 C 343.332 1963.201, 355.235 1963.458, 441 1963.948 L 537.500 1964.500 538.036 2116 L 538.573 2267.500 540.797 2277.199 C 551.546 2324.082, 581.651 2361.931, 624.045 2381.861 C 659.509 2398.533, 696.701 2401.440, 734.500 2390.494 C 753.014 2385.133, 776.008 2372.039, 790.855 2358.402 C 794.900 2354.687, 875.032 2267.914, 968.927 2165.573 C 1062.822 2063.233, 1141.582 1977.762, 1143.949 1975.638 C 1146.317 1973.514, 1151.234 1970.364, 1154.877 1968.638 L 1161.500 1965.500 1528.500 1964.885 C 1730.350 1964.546, 1897.300 1963.963, 1899.500 1963.588 C 1901.700 1963.213, 1908.225 1962.218, 1914 1961.378 C 1982.410 1951.422, 2046.367 1910.208, 2085.635 1850.775 C 2102.585 1825.122, 2116.031 1792.548, 2121.867 1763 C 2126.651 1738.776, 2126.500 1746.441, 2126.500 1528.500 L 2126.500 1322.500 2124.119 1316 C 2116.398 1294.919, 2096.959 1281, 2075.237 1281 C 2053.124 1281, 2034.400 1293.935, 2025.652 1315.255 L 2023.500 1320.500 2022.945 1524 C 2022.450 1705.963, 2022.219 1728.409, 2020.769 1736.093 C 2014.796 1767.740, 2001.247 1794.317, 1980.272 1815.529 C 1958.903 1837.140, 1935.350 1850.064, 1904.374 1857.175 L 1894.500 1859.442 1525 1860.039 C 1192.035 1860.577, 1154.754 1860.794, 1147.952 1862.231 C 1113.570 1869.498, 1086.854 1883.934, 1063.877 1907.661 C 1060.235 1911.423, 984.687 1993.700, 895.993 2090.500 C 807.300 2187.300, 730.855 2270.460, 726.116 2275.301 C 710.455 2291.297, 695.640 2295.843, 676.730 2290.455 C 664.493 2286.968, 651.984 2276.879, 647.151 2266.598 C 641.821 2255.258, 642.031 2262.974, 642.015 2077.799 C 642.004 1956.691, 641.675 1904.537, 640.898 1900.799 C 637.486 1884.387, 623.927 1869.039, 607.249 1862.710 L 601.500 1860.529 478 1859.933 C 346.845 1859.301, 351.980 1859.490, 333.399 1854.621 C 316.753 1850.260, 297.727 1840.899, 283.516 1830.079 C 253.416 1807.162, 233.423 1774.070, 227.008 1736.549 C 225.014 1724.886, 225 1721.011, 225.018 1196.651 C 225.037 629.959, 224.754 662.225, 229.883 642.500 C 240.520 601.594, 268.586 567.151, 306.849 548.047 C 315.908 543.524, 331.107 538.185, 343 535.349 C 350.119 533.651, 370.550 533.533, 745 533.030 L 1139.500 532.500 1146.150 530.241 C 1178.778 519.155, 1192.626 481.172, 1174.492 452.500 C 1167.286 441.106, 1153.215 431.394, 1140.566 429.084 C 1136.361 428.316, 1021.608 428.047, 746.566 428.160 C 533.130 428.248, 356.925 428.473, 355 428.661" stroke="none" fill="#000" fill-rule="evenodd" transform="scale(0.01)"></path>
</svg>