<svg xmlns="http://www.w3.org/2000/svg" width="140" height="140" version="1.1" viewBox="0 0 24 24">
    <path fill="none" stroke="#000" stroke-linecap="round" stroke-linejoin="round" d="M0.504 3.500 L23.504 3.500 L23.504 20.500 L0.504 20.500 Z"/>
    <path fill="none" stroke="#000" stroke-linecap="round" stroke-linejoin="round" d="M4.5 14.5v-4a1 1 0 0 1 2 0v4M4.504 12.5 6.504 12.5M11.504 14.5 11.504 9.5 10.004 12 8.504 9.5 8.504 14.5M17.504 9.5 19.504 14.5M19.504 9.5 17.504 14.5M15.5 14.5h-1a1 1 0 0 1-1-1v-3a1 1 0 0 1 1-1h1M13.504 12.5 15.504 12.5"/>
</svg>
