<svg xmlns="http://www.w3.org/2000/svg" viewBox="0 0 24 24"><defs><style>.a{fill:none;stroke:#000;stroke-linecap:round;stroke-linejoin:round;stroke-width:1.5px;}</style></defs><title>credit-card-amex</title><rect class="a" x="0.75" y="3.75" width="22.5" height="16.5" rx="1.5" ry="1.5"/><polyline class="a" points="12 15 12 9 10.5 12 9 9 9 15"/><line class="a" x1="18" y1="9" x2="20.25" y2="15"/><line class="a" x1="20.25" y1="9" x2="18" y2="15"/><path class="a" d="M15.75,15h-.3a1.2,1.2,0,0,1-1.2-1.2V10.2A1.2,1.2,0,0,1,15.45,9h.3"/><line class="a" x1="14.25" y1="12.75" x2="15.75" y2="12.75"/><line class="a" x1="3.75" y1="12.75" x2="6.75" y2="12.75"/><path class="a" d="M6.75,15V10.5a1.5,1.5,0,0,0-3,0V15"/></svg>