<svg xmlns="http://www.w3.org/2000/svg" version="1.1" xmlns:xlink="http://www.w3.org/1999/xlink" xmlns:svgjs="http://svgjs.com/svgjs" viewBox="0 0 24 24" width="140" height="140"><title>amex</title><path d="M0.504 3.500 L23.504 3.500 L23.504 20.500 L0.504 20.500 Z" fill="none" stroke="#000000" stroke-linecap="round" stroke-linejoin="round"></path><path d="M4.5,14.5v-4a1,1,0,0,1,2,0v4" fill="none" stroke="#000000" stroke-linecap="round" stroke-linejoin="round"></path><path d="M4.504 12.5L6.504 12.5" fill="none" stroke="#000000" stroke-linecap="round" stroke-linejoin="round"></path><path d="M11.504 14.5L11.504 9.5 10.004 12 8.504 9.5 8.504 14.5" fill="none" stroke="#000000" stroke-linecap="round" stroke-linejoin="round"></path><path d="M17.504 9.5L19.504 14.5" fill="none" stroke="#000000" stroke-linecap="round" stroke-linejoin="round"></path><path d="M19.504 9.5L17.504 14.5" fill="none" stroke="#000000" stroke-linecap="round" stroke-linejoin="round"></path><path d="M15.5,14.5h-1a1,1,0,0,1-1-1v-3a1,1,0,0,1,1-1h1" fill="none" stroke="#000000" stroke-linecap="round" stroke-linejoin="round"></path><path d="M13.504 12.5L15.504 12.5" fill="none" stroke="#000000" stroke-linecap="round" stroke-linejoin="round"></path></svg>
