<svg xmlns="http://www.w3.org/2000/svg" viewBox="0 0 140 140">
    <path fill="none" stroke="#000" stroke-linecap="round" stroke-linejoin="round" stroke-width="8.75" d="M4.37 135.625h126.874M16.036 109.375h16.047A2.917 2.917 0 0135 112.292v23.333h0-21.88 0v-23.333a2.917 2.917 0 012.916-2.917zM59.786 56.875h16.047a2.917 2.917 0 012.917 2.917v75.833h0-21.88 0V59.792a2.917 2.917 0 012.916-2.917zM103.536 83.125h16.047a2.917 2.917 0 012.917 2.917v49.583h0-21.875 0V86.042a2.917 2.917 0 012.91-2.917zM40.15 29.873L16.719 53.282M83.48 36.896l-27.264-7.292M118.953 16.852L98.064 33.186M39.37 26.256a8.75 8.75 0 1017.5 0 8.75 8.75 0 10-17.5 0zM118.125 13.125a8.75 8.75 0 1017.5 0 8.75 8.75 0 10-17.5 0zM83.125 39.375a8.75 8.75 0 1017.5 0 8.75 8.75 0 10-17.5 0zM4.37 61.256a8.75 8.75 0 1017.5 0 8.75 8.75 0 10-17.5 0z"/>
</svg>
