<svg width="48" height="49" viewBox="0 0 48 49" fill="none" xmlns="http://www.w3.org/2000/svg">
<g clip-path="url(#clip0_1023_26084)">
<g clip-path="url(#clip1_1023_26084)">
<path fill-rule="evenodd" clip-rule="evenodd" d="M25.7818 4.70473C28.964 0.596142 33.3871 0.572754 33.3871 0.572754C33.3871 0.572754 34.0474 4.43966 30.8812 8.15843C27.5081 12.1345 23.6737 11.4796 23.6737 11.4796C23.6737 11.4796 22.9497 8.35334 25.7818 4.70473Z" fill="white"/>
<path fill-rule="evenodd" clip-rule="evenodd" d="M24.0791 14.1936C25.718 14.1936 28.7568 11.9873 32.7106 11.9873C39.5203 11.9873 42.1933 16.7351 42.1933 16.7351C42.1933 16.7351 36.9587 19.3624 36.9587 25.7241C36.9587 32.9044 43.482 35.3836 43.482 35.3836C43.482 35.3836 38.9237 47.9667 32.7584 47.9667C29.9263 47.9667 27.7306 46.0955 24.7473 46.0955C21.7085 46.0955 18.6934 48.0368 16.7285 48.0368C11.1041 48.029 4 36.1008 4 26.5038C4 17.0626 10.0142 12.112 15.6544 12.112C19.3219 12.1198 22.1699 14.1936 24.0791 14.1936Z" fill="white"/>
</g>
</g>
<defs>
<clipPath id="clip0_1023_26084">
<rect width="48" height="48" fill="white" transform="translate(0 0.572754)"/>
</clipPath>
<clipPath id="clip1_1023_26084">
<rect width="40" height="48" fill="white" transform="translate(4 0.572754)"/>
</clipPath>
</defs>
</svg>
