<svg xmlns="http://www.w3.org/2000/svg" viewBox="0 0 24 24" id="Archive--Streamline-Ultimate" height="24" width="24"><desc>Archive Streamline Icon: https://streamlinehq.com</desc><g><path d="M21.75 9.75v9.5a3 3 0 0 1 -3 3H5.25a3 3 0 0 1 -3 -3v-9.5" fill="none" stroke="currentColor" stroke-linecap="round" stroke-linejoin="round" stroke-width="1.5"></path><path d="M21.75 1.75H2.25a1.5 1.5 0 0 0 -1.5 1.5v3h22.5v-3a1.5 1.5 0 0 0 -1.5 -1.5Z" fill="none" stroke="currentColor" stroke-linecap="round" stroke-linejoin="round" stroke-width="1.5"></path><path d="M10 10.25h4s1.5 0 1.5 1.5v1s0 1.5 -1.5 1.5h-4s-1.5 0 -1.5 -1.5v-1s0 -1.5 1.5 -1.5" fill="none" stroke="currentColor" stroke-linecap="round" stroke-linejoin="round" stroke-width="1.5"></path></g></svg>