<svg viewBox="0 0 24 24" xmlns="http://www.w3.org/2000/svg" stroke-width="1.5"><title>arrow-thick-circle-up</title><path d="M0.750 12.000 A11.250 11.250 0 1 0 23.250 12.000 A11.250 11.250 0 1 0 0.750 12.000 Z" fill="none" stroke="#000000" stroke-linecap="round" stroke-linejoin="round"></path><path d="M12.586,5.982l4.439,5.549a.75.75,0,0,1-.585,1.219H14.25V18a.75.75,0,0,1-.75.75h-3A.75.75,0,0,1,9.75,18V12.75H7.56a.75.75,0,0,1-.585-1.219l4.439-5.549A.751.751,0,0,1,12.586,5.982Z" fill="none" stroke="#000000" stroke-linecap="round" stroke-linejoin="round"></path></svg>
