<svg xmlns="http://www.w3.org/2000/svg" width="24" height="24" viewBox="0 0 24 24">
    <path fill="none" stroke="#000" stroke-linecap="round" stroke-linejoin="round" stroke-width="1.5" d="M0.75 12a11.25 11.25 0 1 0 22.5 0 11.25 11.25 0 1 0 -22.5 0Z"/>
    <path fill="none" stroke="#000" stroke-linecap="round" stroke-linejoin="round" stroke-width="1.5" d="m18.018 12.586 -5.549 4.439a0.75 0.75 0 0 1 -1.219 -0.585v-2.19H6a0.75 0.75 0 0 1 -0.75 -0.75v-3A0.75 0.75 0 0 1 6 9.75h5.25V7.56a0.75 0.75 0 0 1 1.219 -0.585l5.549 4.439a0.751 0.751 0 0 1 0 1.172Z"/>
</svg>
