<svg xmlns="http://www.w3.org/2000/svg" width="24" height="24" viewBox="0 0 24 24" version="1.1" id="Diagram-Arrow-Dash-Right--Streamline-Ultimate.svg">
  <desc>Diagram Arrow Dash Right Streamline Icon: https://streamlinehq.com</desc>
  <title>diagram-arrow-dash-right</title>
	<path d="M16.446024 5.027712C16.2546 5.081352000000001 16.15008 5.143416 16.02372 5.278488C15.893808 5.4174 15.803832000000002 5.595024 15.768192 5.783040000000001C15.753912000000001 5.858304 15.744 6.415488000000001 15.744 7.142976000000001L15.744 8.3754 13.014000000000001 8.381688L10.284 8.388 10.176 8.444016C9.90372 8.585232000000001 9.758856000000002 8.819976 9.758856000000002 9.120000000000001C9.758856000000002 9.3588 9.8256 9.512088 9.998304000000001 9.669936C10.22772 9.8796 9.946344 9.864 13.5 9.864C16.327176 9.864 16.658952000000003 9.860088 16.760568 9.825456C16.914528 9.772992 17.115047999999998 9.585312 17.186832000000003 9.42648C17.243472 9.301152 17.24412 9.290735999999999 17.256 8.278176L17.268 7.256352000000001 19.876272 9.670176C21.310848 10.997784 22.485336 12.090648 22.486272 12.09876C22.488120000000002 12.114576 17.290032 16.656 17.270112 16.656C17.263584 16.656 17.25504 16.264512 17.251128 15.786C17.244096000000003 14.928312000000002 17.243208 14.914464 17.188008 14.808C17.102352 14.64276 16.929047999999998 14.47884 16.781712000000002 14.423712000000002C16.656816 14.376984000000002 16.589328 14.376 13.493088 14.37624L10.332 14.376479999999999 10.21044 14.433072000000001C9.96504 14.547336000000001 9.815712 14.733744 9.770664 14.982000000000001C9.709608000000001 15.318624 9.867504 15.635664 10.176 15.795912000000001L10.284 15.852 13.014000000000001 15.858312000000002L15.744 15.8646 15.744192000000002 16.878312C15.744288 17.460624 15.754944 17.958384 15.769248000000001 18.048000000000002C15.822216000000001 18.380184 16.02024 18.660864 16.291296 18.78792C16.411224 18.844152 16.457808 18.852 16.671 18.852C17.086584000000002 18.852 16.864584 19.02456 20.237256000000002 16.080000000000002C21.862560000000002 14.661 23.294328 13.409328 23.418936 13.29852C23.678520000000002 13.067664 23.84124 12.839304 23.92644 12.5862C24.002472 12.360336 24.02112 11.976792000000001 23.966592 11.759712C23.909736000000002 11.533224 23.776488 11.277936 23.633232 11.121C23.476416 10.949232 17.406408000000003 5.322888 17.247672 5.202168C17.020968 5.0298 16.693176 4.958448000000001 16.446024 5.027712M0.465624 8.425176C0.317904 8.482488 0.14448 8.647008 0.06789600000000001 8.802504C-0.011904 8.964528 -0.012096 9.275088 0.067512 9.43668C0.13416 9.57204 0.285624 9.728664 0.41877600000000004 9.799944C0.515232 9.851592 0.52668 9.852 1.872 9.852L3.228 9.852 3.330984 9.797016000000001C3.4626 9.72672 3.6067919999999996 9.582504 3.6769439999999998 9.450984C3.723096 9.36444 3.731856 9.311592000000001 3.731856 9.120000000000001C3.731856 8.928408 3.723096 8.87556 3.6769439999999998 8.789016C3.6067919999999996 8.657496 3.4626 8.51328 3.330984 8.442984000000001L3.228 8.388 1.9080000000000001 8.382840000000002C0.64332 8.377896 0.582864 8.379672000000001 0.465624 8.425176M4.95444 8.43276C4.707168 8.54856 4.555536 8.741232 4.515359999999999 8.990712C4.490256 9.146544 4.515791999999999 9.347328 4.57536 9.462504000000001C4.641768000000001 9.590928 4.78788 9.72744 4.932 9.79572L5.0760000000000005 9.863952 6.361728 9.863976000000001C7.826136 9.864 7.783872 9.868992 8.001696 9.669936C8.1744 9.512088 8.241144 9.3588 8.241144 9.120000000000001C8.241144 8.819976 8.09628 8.585232000000001 7.824 8.444016L7.716 8.388 6.396 8.381904L5.0760000000000005 8.375832 4.95444 8.43276M0.465624 14.425176C0.317904 14.482488 0.14448 14.647008000000001 0.06789600000000001 14.802503999999999C-0.011904 14.964528000000001 -0.012096 15.275088 0.067512 15.43668C0.13416 15.572040000000001 0.285624 15.728664 0.41877600000000004 15.799944C0.515232 15.851591999999998 0.52668 15.852 1.872 15.852L3.228 15.852 3.330984 15.797016C3.4626 15.72672 3.6067919999999996 15.582504 3.6769439999999998 15.450984000000002C3.723096 15.364439999999998 3.731856 15.311592 3.731856 15.120000000000001C3.731856 14.928408000000001 3.723096 14.875560000000002 3.6769439999999998 14.789015999999998C3.6067919999999996 14.657496000000002 3.4626 14.513280000000002 3.330984 14.442984000000001L3.228 14.388 1.9080000000000001 14.38284C0.64332 14.377896 0.582864 14.379672000000001 0.465624 14.425176M4.95444 14.43276C4.707168 14.548560000000002 4.555536 14.741232 4.515359999999999 14.990712000000002C4.490256 15.146544 4.515791999999999 15.347328 4.57536 15.462504C4.641768000000001 15.590928 4.78788 15.72744 4.932 15.79572L5.0760000000000005 15.863952000000001 6.361728 15.863976000000001C7.826136 15.864 7.783872 15.868992 8.001696 15.669936C8.1744 15.512088 8.241144 15.358800000000002 8.241144 15.120000000000001C8.241144 14.819976 8.09628 14.585232 7.824 14.444016L7.716 14.388 6.396 14.381904L5.0760000000000005 14.375832 4.95444 14.43276" stroke="none" fill="currentColor" fill-rule="evenodd"></path>
</svg>
