<svg xmlns="http://www.w3.org/2000/svg" width="24" height="24" viewBox="0 0 24 24">
  <title>artificial-intelligence-robot</title>
	<path d="M18.605328 0.289128C18.437664 0.372912 18.33012 0.484392 18.249072 0.65844L18.19248 0.78 18.19224 1.782L18.192 2.7840000000000003 17.329728 2.7840000000000003C16.849392 2.7840000000000003 16.385856 2.795352 16.283208 2.809632C15.127704000000001 2.970336 14.350704 3.717432 14.048448 4.9583759999999995C14.013288 5.102736 14.00688 5.327472 13.998672000000001 6.708C13.988952000000001 8.344488 13.995624 8.5068 14.087352 8.865504000000001C14.339856000000001 9.852744 15.17652 10.571568000000001 16.294224 10.761552C16.4916 10.795104 16.832928 10.799976000000001 18.970224 10.799856C21.581208 10.799712 21.663408 10.796520000000001 22.035336 10.681152C22.363224000000002 10.57944 22.585992 10.460472000000001 22.872 10.234368C23.327448 9.87432 23.638752 9.349968 23.800800000000002 8.669928L23.868000000000002 8.388 23.868000000000002 6.744C23.868000000000002 5.13828 23.866775999999998 5.0946240000000005 23.815392 4.868832C23.614392 3.9856559999999996 23.072015999999998 3.347088 22.236816 3.01032C21.752544 2.8150320000000004 21.522336 2.785056 20.502 2.78448L19.68 2.7840000000000003 19.68 1.800912C19.68 0.866856 19.677528000000002 0.8111999999999999 19.630536 0.685608C19.568928 0.520944 19.410384 0.35352 19.241688 0.274992C19.050072 0.185784 18.801072 0.191304 18.605328 0.289128M7.5840000000000005 2.799888C6.880416000000001 2.86872 6.346536 3.0539039999999997 5.797464000000001 3.419544C5.2164 3.8064960000000005 4.771224 4.323696 4.474968 4.956C4.247448 5.441544 4.153992 5.839056 4.1349599999999995 6.402C4.127712 6.616512 4.120464 6.792024 4.11888 6.792024C4.1172960000000005 6.792048 4.0296 6.807408 3.924 6.826175999999999C3.0318720000000003 6.9846960000000005 2.29908 7.534248000000001 1.9064159999999999 8.339232C1.720608 8.72016 1.655448 8.979552 1.6387440000000002 9.405048C1.622328 9.822792 1.653864 10.068528 1.7681040000000001 10.412664C1.813512 10.54944 1.847352 10.6644 1.8433200000000003 10.66812C1.839288 10.671864000000001 1.777296 10.709352 1.70556 10.751448C1.1712719999999999 11.064960000000001 0.640584 11.663472 0.399696 12.22416C-0.212256 13.648655999999999 0.22327200000000003 15.262272 1.464 16.167432C1.5366000000000002 16.2204 1.6500000000000001 16.294512 1.716 16.332144C1.782 16.369752 1.839432 16.402944 1.843632 16.405896C1.8478080000000001 16.408824 1.818792 16.508064 1.779144 16.626408C1.7395200000000002 16.744752 1.6901760000000001 16.930608 1.669536 17.039448C1.6266000000000003 17.26584 1.620264 17.743776 1.657128 17.976C1.80492 18.906816 2.4654 19.736376 3.336 20.084664C3.527856 20.161416 3.828888 20.242848 4.0107360000000005 20.26716L4.121448 20.281968 4.150752000000001 20.502984C4.2627120000000005 21.347112 4.6310400000000005 22.099176 5.221944 22.690056C5.933592 23.401728000000002 6.858288 23.783136000000002 7.872 23.783136000000002C8.910576 23.783136000000002 9.833496 23.393568 10.567776 22.645224000000002C10.684248 22.52652 10.797288 22.399368000000003 10.81896 22.362696C10.840608 22.326024 10.864128000000001 22.296072000000002 10.871184000000001 22.296167999999998C10.87824 22.296264 10.909248000000002 22.333416 10.940112000000001 22.378728C10.970976 22.424064 11.0874 22.553352 11.198832 22.666032C11.92284 23.398248000000002 12.843863999999998 23.783136000000002 13.872 23.783136000000002C14.89704 23.783136000000002 15.824616 23.39664 16.545168 22.669296C17.105472 22.103688 17.464560000000002 21.376896 17.583336 20.568C17.605632 20.4162 17.624807999999998 20.290296 17.625936 20.288208C17.627064 20.28612 17.727048 20.267376000000002 17.848104000000003 20.246544C19.147728 20.022888000000002 20.114016 18.878064000000002 20.116608 17.558880000000002C20.11728 17.213832 20.078736000000003 16.965528000000003 19.978344 16.668C19.884816 16.390800000000002 19.864752 16.435968 20.167776 16.241424000000002C20.757264 15.862944 21.228072 15.25212 21.457032 14.568768C21.5604 14.2602 21.631344000000002 13.812936 21.618912 13.548C21.6072 13.298015999999999 21.54588 13.150968 21.392064 13.004040000000002C21.200400000000002 12.820944 20.920224 12.747 20.671704000000002 12.813936C20.520696 12.854591999999998 20.35056 12.981336 20.250096 13.128C20.172648000000002 13.241112 20.156136 13.289208 20.134800000000002 13.464C20.079912 13.913352 20.057592 14.033760000000001 20.004456 14.166696C19.827096 14.610408000000001 19.458912 14.984015999999999 19.032 15.153456C18.9462 15.187512 18.769992 15.236496 18.640416 15.262344C18.371328 15.315984000000002 18.23844 15.38388 18.104328 15.536232C17.93676 15.7266 17.88492 15.998232 17.964816 16.267272000000002C17.994048 16.365696 18.04416 16.436808 18.207984000000003 16.612272C18.446184000000002 16.867392 18.55644 17.069784 18.600912 17.333448C18.651 17.6304 18.58776 17.949264 18.430056 18.195024C18.328512 18.35328 18.078336 18.58164 17.923536 18.65736C17.737272 18.748488000000002 17.469863999999998 18.799296 17.281008 18.779424C16.98024 18.747768 16.543104000000003 18.585792 16.248 18.396648000000003C15.897816 18.1722 15.670895999999999 17.903616 15.487464000000001 17.49648C15.353712000000002 17.199648 15.256920000000001 17.085984000000003 15.056351999999999 16.990248C14.908944 16.919904 14.882976000000001 16.915128 14.70264 16.925016C14.478768 16.937328 14.353871999999999 16.990128000000002 14.211143999999999 17.132856C14.058888000000001 17.285111999999998 14.003928 17.4264 14.004503999999999 17.664C14.004959999999999 17.848632 14.014464000000002 17.890439999999998 14.104536 18.10416C14.430696000000001 18.87828 15.02712 19.495872 15.820008000000001 19.88052L16.124015999999997 20.028 16.112424 20.172C16.04808 20.971608 15.621863999999999 21.644592 14.952 22.004256C14.641368 22.171032 14.420832 22.238784 14.088912 22.269408000000002C12.815591999999999 22.386912000000002 11.733216 21.466272 11.639496 20.185968C11.610744 19.793136 11.610552 6.811296 11.639280000000001 6.396C11.678112 5.83488 11.832792000000001 5.468832 12.227736 5.003256C12.389016 4.8131520000000005 12.444408000000001 4.670424 12.442608 4.449648C12.440280000000001 4.16496 12.291456 3.9321840000000003 12.01908 3.7872000000000003C11.93364 3.741744 11.879016 3.73236 11.700000000000001 3.7323839999999997C11.512992 3.732432 11.467824 3.740952 11.363520000000001 3.795816C11.2488 3.856176 11.121599999999999 3.97656 10.94916 4.188L10.870872 4.284 10.80648 4.2C10.589184000000001 3.916488 10.165704000000002 3.542184 9.828 3.3351840000000004C9.18036 2.9381760000000003 8.305032 2.7293760000000002 7.5840000000000005 2.799888M16.564895999999997 4.297512C16.229568 4.330344 16.03524 4.415736 15.850439999999999 4.611384C15.712848000000001 4.75704 15.624792000000001 4.927128 15.553199999999999 5.185512C15.506088 5.35548 15.504 5.42496 15.504 6.818232000000001C15.504 7.6843200000000005 15.513672000000001 8.324496 15.527904 8.39952C15.611016 8.837784 15.925584 9.13104 16.44924 9.258456C16.605287999999998 9.296424 16.824696 9.3 18.996 9.3C21.193344 9.3 21.383544 9.296808 21.52548 9.257616C21.85464 9.16668 22.072872 8.983152 22.211424 8.680728C22.365816 8.343792 22.368000000000002 8.316624000000001 22.368000000000002 6.737112000000001C22.368000000000002 5.411832 22.364784 5.299176 22.322136 5.13384C22.214064 4.7147760000000005 21.977304 4.4922 21.477888 4.34016L21.3 4.286016 19.032 4.282008C17.7846 4.2798 16.674408000000003 4.286784000000001 16.564895999999997 4.297512M7.455191999999999 4.331664C7.001568000000001 4.426200000000001 6.6528 4.607616 6.326976000000001 4.918536C5.867064 5.3574 5.63772 5.891808 5.63628 6.5280000000000005C5.635608 6.8262480000000005 5.666568 7.014984 5.764272 7.308C5.874792 7.639392 5.85912 7.870368000000001 5.710944 8.094048C5.588904 8.278296 5.314488000000001 8.424 5.089464 8.424C5.04228 8.424 4.906536 8.397143999999999 4.787832 8.364288C4.378944 8.2512 4.010616000000001 8.294448 3.7062720000000002 8.49132C3.1764 8.834088 2.981376 9.505872 3.248424 10.06848C3.356376 10.295928 3.3840480000000004 10.32 3.5374800000000004 10.32C3.847416 10.32 4.396824 10.458768 4.7052000000000005 10.614912C5.11332 10.821576 5.478528 11.140248000000001 5.756832 11.532576C5.975664 11.841000000000001 6.0095279999999995 11.924568 6.010511999999999 12.158328C6.011256 12.327744 6.00216 12.370655999999999 5.939616 12.492936C5.750808 12.862104000000002 5.305656 13.011672 4.940472000000001 12.8286C4.7728079999999995 12.744576 4.744848 12.717863999999999 4.600512 12.504C4.260648 12.000432 3.9266639999999997 11.827704 3.2880000000000003 11.825256C3.0371040000000002 11.824272 2.962464 11.832936 2.832 11.878104C2.2913040000000002 12.065280000000001 1.9004159999999999 12.455544 1.712304 12.996C1.6509600000000002 13.172256 1.6455359999999999 13.216512 1.6460160000000001 13.536C1.6465200000000002 13.848384 1.65312 13.903656 1.7106720000000002 14.076C1.7980800000000001 14.337816 1.924344 14.5434 2.124 14.748936C2.40024 15.033336 2.6715359999999997 15.175008000000002 3.1080959999999997 15.262824C3.3744720000000004 15.316416 3.5064960000000003 15.38496 3.643824 15.54096C3.7619759999999998 15.675168 3.8160000000000003 15.825503999999999 3.8160000000000003 16.02C3.8160000000000003 16.25748 3.7639200000000006 16.368144 3.538584 16.609512C3.4033919999999998 16.754328 3.3111840000000003 16.879656 3.253008 16.997688C3.086808 17.33484 3.08712 17.73144 3.253824 18.086856C3.3430560000000002 18.277104 3.634416 18.568728 3.824232 18.657743999999997C4.139616 18.805656 4.40928 18.8184 4.807704 18.704136000000002C5.195568 18.592920000000003 5.495664 18.432024 5.765016 18.190872C6.012696 17.969136000000002 6.11724 17.817624 6.294576 17.42352C6.400656000000001 17.18772 6.498 17.080776 6.6897839999999995 16.98924C6.8347679999999995 16.920047999999998 6.861576 16.915152 7.04136 16.924944C7.3355760000000005 16.941 7.5430079999999995 17.071056 7.667832 17.317776C7.799615999999999 17.578224000000002 7.776936 17.819424 7.581312 18.238656C7.2521759999999995 18.944015999999998 6.66612 19.522152000000002 5.900976 19.896312C5.764392 19.963128 5.645904000000001 20.02548 5.637696 20.034888000000002C5.605704 20.071584 5.666064 20.49048 5.734896 20.709432C6.154728 22.044888 7.666872 22.669992 8.915184 22.024152C9.492312 21.725592 9.912216 21.177336 10.071912000000001 20.513904C10.11096 20.35164 10.114296 19.973592 10.121616 14.860128000000001C10.127976 10.411704 10.12368 9.38376 10.09872 9.398760000000001C10.081824000000001 9.408936 10.011048 9.453479999999999 9.941448 9.497736C9.463128000000001 9.801816 8.857224 9.99372 8.552976000000001 9.937464C8.310384 9.892631999999999 8.088576 9.715896 7.987152 9.486648C7.927392 9.351528 7.920960000000001 9.051696 7.9752 8.928C8.089704000000001 8.666784 8.274912 8.523576 8.592912 8.450352C9.293112 8.289144 9.900072 7.667088 10.065096 6.941568000000001C10.088712000000001 6.837719999999999 10.104000000000001 6.662808000000001 10.104000000000001 6.496344C10.104000000000001 5.911752 9.878928 5.3722080000000005 9.46392 4.961952C9.173544 4.674912 8.86572 4.492392 8.478768 4.37784C8.213928000000001 4.299456 7.71732 4.27704 7.455191999999999 4.331664M17.231688 5.696016C17.010432 5.744568 16.834704000000002 5.8830480000000005 16.724088000000002 6.096C16.670856 6.198504000000001 16.667640000000002 6.231888 16.660728 6.751992C16.652160000000002 7.398816 16.6656 7.463856000000001 16.849536 7.66512C17.007936 7.838424 17.160912 7.905143999999999 17.400000000000002 7.905143999999999C17.700024 7.905143999999999 17.934768000000002 7.760280000000001 18.075984000000002 7.488C18.128952 7.38588 18.132384 7.351056 18.139272000000002 6.847272C18.147288 6.25992 18.136488 6.185592000000001 18.017664 6.009024C17.839944 5.744928000000001 17.544672000000002 5.627328 17.231688 5.696016M20.325672 5.6878079999999995C20.186736 5.711952 20.08716 5.763192 19.96524 5.873352000000001C19.756992 6.061488000000001 19.70436 6.246840000000001 19.70436 6.792C19.70436 7.322592 19.750728 7.502496 19.935648 7.689288C20.080248 7.835376 20.256 7.9063680000000005 20.472 7.90596C20.764128 7.905431999999999 21.003072000000003 7.760736 21.139872 7.501512C21.202944000000002 7.381992000000001 21.20412 7.371288 21.211632 6.848592C21.219912 6.270864 21.209496 6.194808000000001 21.097848 6.018768000000001C20.938416 5.767392 20.62956 5.635008 20.325672 5.6878079999999995" stroke="none" fill="#000" fill-rule="evenodd"></path>
</svg>
