<svg xmlns="http://www.w3.org/2000/svg" width="24" height="24" viewBox="0 0 24 24"><path d="M3.227.037a3.628 3.628 0 0 0-1.523.575 3.729 3.729 0 0 0-1.67 2.651c-.05.382-.05 17.86.001 18.181a2.994 2.994 0 0 0 2.057 2.413c.448.147.4.145 3.524.138l2.844-.007.121-.064a.752.752 0 0 0-.032-1.36l-.137-.064-2.868-.012-2.868-.012-.177-.065a1.562 1.562 0 0 1-.918-.931c-.047-.131-.055-.205-.056-.468 0-.266.007-.338.057-.488.136-.416.493-.78.917-.935l.177-.065 3.24-.013c2.282-.008 3.262-.02 3.314-.039a.771.771 0 0 0 .466-1 .83.83 0 0 0-.379-.404l-.113-.056-3.216-.006c-3.53-.008-3.447-.01-3.893.136a4.45 4.45 0 0 0-.565.237c-.01.005-.016-3.375-.012-7.51l.006-7.521.066-.21c.243-.774.774-1.305 1.547-1.548l.211-.066 7.326-.006 7.325-.006.007 3.846.006 3.846.058.114a.756.756 0 0 0 .998.358.836.836 0 0 0 .357-.335c.087-.167.09-.304.081-4.241-.008-4.272.004-3.94-.16-4.27-.195-.394-.629-.727-1.044-.804-.228-.042-14.787-.031-15.075.01m17.629 10.477a2.846 2.846 0 0 0-1.44.554c-.107.08-1.781 1.739-4.131 4.092-3.705 3.71-3.954 3.964-3.99 4.077-.02.066-.21.994-.423 2.061-.295 1.48-.384 1.965-.372 2.04a.844.844 0 0 0 .443.603c.193.098.237.092 2.317-.323 1.407-.28 1.977-.404 2.064-.446.175-.084 8.014-7.93 8.184-8.192.58-.89.65-1.976.185-2.897a2.927 2.927 0 0 0-1.867-1.496c-.156-.04-.702-.108-.754-.094a6.438 6.438 0 0 1-.216.021m-.024 1.524a1.82 1.82 0 0 0-.336.122c-.176.085-.275.182-3.99 3.894l-3.81 3.807-.24 1.2c-.132.659-.24 1.205-.24 1.214 0 .008.546-.094 1.212-.228l1.213-.242L18.44 18c3.544-3.55 3.805-3.815 3.886-3.974.115-.224.161-.409.16-.645 0-.402-.119-.685-.407-.973a1.306 1.306 0 0 0-1.248-.37" fill="currentColor" fill-rule="evenodd"/></svg>