<svg width="16" height="16" viewBox="0 0 16 16" fill="none" xmlns="http://www.w3.org/2000/svg"><title>assessments</title><g clip-path="url(#a)" stroke="currentColor" stroke-linecap="round" stroke-linejoin="round"><path d="M5.5 15.5H2A1.5 1.5 0 0 1 .5 14M12.5 6V1a.501.501 0 0 0-.5-.5H2.5a2 2 0 0 0-2 2V14A1.5 1.5 0 0 1 2 12.5h4M15.086 9.914 10 15l-2.5.5L8 13l5.087-5.086a1.409 1.409 0 0 1 1.994 0l.006.005a1.41 1.41 0 0 1-.001 1.995Z"/></g><defs><clipPath id="a"><path fill="#fff" d="M0 0h16v16H0z"/></clipPath></defs></svg>
