<svg xmlns="http://www.w3.org/2000/svg" viewBox="0 0 24 24"><defs><style>.a{fill:none;stroke:#000;stroke-linecap:round;stroke-linejoin:round;stroke-width:1.5px;}</style></defs><title>backpack icon</title><path class="a" d="M8.5,3.75h7a4,4,0,0,1,4,4v15.5a0,0,0,0,1,0,0H4.5a0,0,0,0,1,0,0V7.75a4,4,0,0,1,4-4Z"/><path class="a" d="M9,3.75a2.792,2.792,0,0,1,2.935-3,2.815,2.815,0,0,1,2.935,3"/><path class="a" d="M2.707,14.25H4.5a0,0,0,0,1,0,0v9a0,0,0,0,1,0,0H2.707A1.957,1.957,0,0,1,.75,21.293V16.207A1.957,1.957,0,0,1,2.707,14.25Z"/><path class="a" d="M19.5,14.446h1.793A1.957,1.957,0,0,1,23.25,16.4v4.891a1.957,1.957,0,0,1-1.957,1.957H19.5a0,0,0,0,1,0,0v-8.8A0,0,0,0,1,19.5,14.446Z"/><rect class="a" x="7.5" y="13.5" width="9" height="6.75" rx="1" ry="1"/><line class="a" x1="7.5" y1="16.5" x2="16.5" y2="16.5"/><line class="a" x1="12.75" y1="16.5" x2="12.75" y2="18"/><line class="a" x1="0.75" y1="17.185" x2="4.5" y2="17.185"/><path class="a" d="M19.5,17.25h3.75"/></svg>
