<svg xmlns="http://www.w3.org/2000/svg" width="24" height="24" viewBox="0 0 24 24">
  <title>terminal</title>
	<path d="M1.968 1.263984C1.474728 1.341576 1.02072 1.571424 0.672072 1.920072C0.31692000000000004 2.2752 0.098616 2.696832 0.025272 3.169272C0.004536 3.30276 -0.000648 5.565504 0.004752 12.108C0.01164 20.427048 0.014159999999999999 20.875248000000003 0.05474400000000001 21.012C0.2124 21.543072000000002 0.465456 21.933936 0.8540160000000001 22.246536C1.071 22.421088 1.492896 22.632168 1.752 22.695792C1.9254 22.738368 2.301216 22.740000000000002 12 22.740000000000002C21.698784 22.740000000000002 22.0746 22.738368 22.248 22.695792C22.504416 22.632816000000002 22.929096 22.421015999999998 23.141448 22.250184C23.437704 22.011864 23.680848 21.693504 23.82132 21.360024C23.89932 21.174816 23.976 20.90412 23.976 20.81388C23.976 20.785800000000002 23.986800000000002 20.75616 24 20.748C24.03012 20.729376000000002 24.033552 3.216 24.003408 3.216C23.992104 3.216 23.975976000000003 3.150312 23.967576 3.0700320000000003C23.948520000000002 2.887728 23.829312 2.527464 23.73012 2.352504C23.477856000000003 1.907448 23.052623999999998 1.534464 22.617504 1.37652C22.240272 1.239576 22.92696 1.247712 12.038856000000001 1.2512640000000002C6.532896 1.253064 2.001 1.258776 1.968 1.263984M1.9978080000000003 2.811C1.837776 2.872512 1.64952 3.05364 1.5715439999999998 3.2211119999999998L1.51248 3.348 1.51248 12L1.51248 20.652 1.5715439999999998 20.778888000000002C1.651776 20.951232 1.83756 21.127655999999998 2.0046239999999997 21.190176L2.1378 21.240000000000002 12 21.240000000000002L21.862199999999998 21.240000000000002 21.995376 21.190176C22.150152000000002 21.132264 22.334568 20.965224000000003 22.419456 20.806032000000002L22.476 20.7 22.476 11.964L22.476 3.228 22.424304 3.117408C22.355808 2.97084 22.221263999999998 2.84376 22.08564 2.797536C21.986352 2.76372 20.99304 2.76012 12.049728 2.761248C2.148984 2.762496 2.123688 2.762616 1.9978080000000003 2.811M0.01188 12C0.01188 16.8246 0.01464 18.798288 0.018000000000000002 16.386C0.02136 13.973688 0.02136 10.026288000000001 0.018000000000000002 7.614C0.01464 5.201688 0.01188 7.175400000000001 0.01188 12M4.781592 4.694856C4.645056 4.744728 4.434504 4.940808 4.365864 5.081976C4.286808 5.244624 4.286688 5.555136 4.365624 5.717496000000001C4.438992 5.86836 4.539456 5.958528 5.79036 6.996C6.3792480000000005 7.484400000000001 6.859032 7.891704000000001 6.856536000000001 7.901088C6.8540399999999995 7.910496 6.319488000000001 8.362008 5.668632000000001 8.904432C4.827 9.605832 4.46544 9.921888 4.416672 9.998808C4.17432 10.380936 4.325375999999999 10.88892 4.74 11.086248000000001C4.915848 11.169960000000001 5.172264 11.169 5.352 11.083992C5.440872000000001 11.041968 5.970288 10.616159999999999 6.972 9.781104C7.790400000000001 9.098832 8.503824 8.498832 8.557416000000002 8.447735999999999C8.610984 8.396664 8.686344 8.29752 8.724864 8.22744C8.785656000000001 8.116871999999999 8.794968 8.074584 8.795352000000001 7.908C8.795712 7.74756 8.785152 7.694304 8.731056 7.5840000000000005C8.695464 7.511400000000001 8.625312 7.412424000000001 8.575175999999999 7.364064000000001C8.34768 7.144656 5.472168 4.770096 5.376 4.72224C5.2374 4.653264 4.933776000000001 4.639272 4.781592 4.694856M10.152000000000001 9.670224C9.645192 9.826872 9.438960000000002 10.42308 9.745296 10.845984C9.845136 10.983792000000001 10.038024 11.103408 10.210416 11.134392C10.407072 11.169744 14.792928 11.169744 14.989584 11.134392C15.079032 11.118312 15.178872 11.078064000000001 15.258047999999999 11.026128000000002C15.745056 10.706688000000002 15.70284 10.002456 15.18 9.723936L15.06 9.66 12.636000000000001 9.655824C11.3028 9.653544 10.185 9.660024 10.152000000000001 9.670224" stroke="none" fill="#000" fill-rule="evenodd"></path>
</svg>
