<svg xmlns="http://www.w3.org/2000/svg" width="24" height="24" viewBox="0 0 24 24">
    <path fill="none" stroke="#000" stroke-linecap="round" stroke-linejoin="round" stroke-width="1.5" d="m11.25 3.8034375000000002 0 16.576874999999998M14.521875 2.9850000000000003a15.511875 15.511875 0 0 0-2.7628125.733125 1.5093750000000001 1.5093750000000001 0 0 1-1.0171875 0 13.0134375 13.0134375 0 0 0-8.9878125-.1875A1.5065625 1.5065625 0 0 0 .703125 4.96875v13.4409375A1.5065625 1.5065625 0 0 0 2.5837499999999998 19.875a12.8090625 12.8090625 0 0 1 8.15625.42 1.5 1.5 0 0 0 1.0171875 0 12.80625 12.80625 0 0 1 8.15625-.42 1.5075 1.5075 0 0 0 1.8806249999999998-1.4615624999999999V4.96875a1.5065625 1.5065625 0 0 0-1.0481250000000002-1.434375 15.85125 15.85125 0 0 0-2.2171875-.5399999999999999"/>
    <path fill="none" stroke="#000" stroke-linecap="round" stroke-linejoin="round" stroke-width="1.5" d="m18.6328125 10.5571875 -2.109375 -2.109375 -2.109375 2.109375v-7.03125a1.40625 1.40625 0 0 1 1.40625 -1.40625h1.40625a1.40625 1.40625 0 0 1 1.40625 1.40625Z"/>
</svg>
