<svg xmlns="http://www.w3.org/2000/svg" width="24" height="24" viewBox="0 0 24 24" version="1.1">
  <title>book-library-2</title>
  <path d="M3.2817600000000002 0.037992C2.553648 0.169632 2.004528 0.610032 1.698264 1.308C1.614168 1.4996639999999999 1.54236 1.787472 1.512648 2.052C1.479576 2.346504 1.478928 16.403832 1.511976 16.752336C1.525128 16.891128000000002 1.5563040000000001 17.078232 1.581216 17.168136C1.6133520000000001 17.284032 1.6186079999999998 17.334456 1.599264 17.341392C1.584264 17.346792 1.52364 17.36796 1.464528 17.388456C1.405416 17.408952000000003 1.277736 17.46852 1.180752 17.52084C0.041184 18.135504 -0.343608 19.576680000000003 0.336672 20.682096C0.705384 21.281208 1.350384 21.681432 2.04 21.738984000000002L2.244 21.756 2.2560000000000002 22.62C2.269536 23.595384 2.265096 23.571456 2.4713760000000002 23.777736C2.63028 23.93664 2.759424 23.988 3 23.988C3.240576 23.988 3.36972 23.93664 3.528624 23.777736C3.7349040000000002 23.571456 3.7304640000000004 23.595384 3.744 22.62L3.7560000000000002 21.756 12 21.756L20.244 21.756 20.256 22.62C20.269536 23.595384 20.265096 23.571456 20.471376000000003 23.777736C20.630280000000003 23.93664 20.759424 23.988 21 23.988C21.240576 23.988 21.36972 23.93664 21.528624 23.777736C21.734904 23.571456 21.730464 23.595384 21.744 22.62L21.756 21.756 21.96 21.738984000000002C22.896984000000003 21.660792 23.703912 20.966544 23.93652 20.038464C23.95824 19.951824000000002 23.976 19.85256 23.976 19.81788C23.976 19.7832 23.986800000000002 19.748160000000002 24 19.740000000000002C24.013536 19.731624 24.024 19.615272 24.024 19.473167999999998C24.024 19.311287999999998 24.015408 19.226471999999998 24 19.236C23.986128 19.244568 23.976 19.221743999999997 23.976 19.181928C23.976 19.144032 23.953896 19.028664 23.926896 18.925536C23.721336 18.14076 23.092728 17.51844 22.308 17.322864C22.1892 17.293248000000002 22.088448 17.26704 22.084128 17.26464C22.079784 17.262216000000002 22.102608 17.186376000000003 22.13484 17.096111999999998C22.2252 16.842959999999998 22.258128000000003 16.624296 22.257144 16.284C22.256304 16.001856 22.167336000000002 15.362136000000001 21.327432 9.6C20.816616 6.0954 20.377296 3.14928 20.35116 3.0530880000000002C20.241264 2.64852 20.066112 2.3356079999999997 19.807536 2.0819520000000002C19.615944000000002 1.8940320000000002 19.52784 1.8265200000000001 19.332 1.717632C19.006968 1.536864 18.604824 1.44 18.179544 1.44C17.904936 1.44 16.434336000000002 1.6438080000000002 16.080000000000002 1.7309759999999998C15.728688 1.8174 15.396984000000002 1.993992 15.133368 2.234928L15.007248 2.3502 14.992512 2.0810880000000003C14.958552000000001 1.461096 14.729832000000002 0.9698399999999999 14.293776 0.580368C14.022552000000001 0.33811199999999997 13.706952000000001 0.17625600000000002 13.287336 0.064176C13.094712000000001 0.01272 13.065959999999999 0.012 11.22 0.012C9.348336 0.012 9.347952 0.012 9.132 0.066912C8.874792000000001 0.132312 8.58564 0.268008 8.389584 0.41534400000000005L8.247168 0.52236 8.113584 0.43154400000000004C7.823328 0.234216 7.482672000000001 0.09684000000000001 7.1308560000000005 0.035232C6.84336 -0.01512 3.5624880000000005 -0.012768000000000002 3.2817600000000002 0.037992M3.422256 1.559904C3.206136 1.6448880000000001 3.0832319999999998 1.8200880000000002 3.024864 2.126304C3.0051360000000003 2.22984 2.9997599999999998 4.21668 3.00492 9.504L3.012 16.740000000000002 3.062976 16.850232C3.127968 16.990728 3.2180640000000005 17.076696000000002 3.384 17.15652L3.516 17.22 5.249808 17.226744C6.979992000000001 17.233488 6.983856000000001 17.233392 7.103976 17.18172C7.252584 17.117784 7.3460160000000005 17.014248000000002 7.419528 16.831968L7.476 16.692 7.482144 9.384672C7.489007999999999 1.2354 7.5031680000000005 1.9111680000000002 7.3218 1.7298C7.271039999999999 1.6790399999999999 7.16616 1.6119600000000003 7.088760000000001 1.58076L6.948 1.524 5.244 1.5187920000000001C3.61068 1.5138 3.535104 1.515504 3.422256 1.559904M9.422256 1.559904C9.206136 1.6448880000000001 9.083232 1.8200880000000002 9.024864 2.126304C9.005136 2.22984 8.99976 4.21668 9.00492 9.504L9.012 16.740000000000002 9.062976 16.850232C9.127968 16.990728 9.218064 17.076696000000002 9.384 17.15652L9.516 17.22 11.249808 17.226744C12.979992 17.233488 12.983856000000001 17.233392 13.103976000000001 17.18172C13.252584 17.117784 13.346015999999999 17.014248000000002 13.419528000000001 16.831968L13.476 16.692 13.482144 9.384672C13.489008000000002 1.2354 13.503167999999999 1.9111680000000002 13.321800000000001 1.7298C13.271040000000001 1.6790399999999999 13.166160000000001 1.6119600000000003 13.08876 1.58076L12.948 1.524 11.244 1.5187920000000001C9.61068 1.5138 9.535104 1.515504 9.422256 1.559904M17.232 3.063936C16.8294 3.124272 16.44312 3.1947840000000003 16.373616000000002 3.2206799999999998C16.132512 3.310464 16.030128 3.4460640000000002 15.979175999999999 3.7431840000000003C15.950520000000001 3.9103440000000003 15.96336 4.004112 16.87848 10.302384C17.38908 13.816680000000002 17.823768 16.748856 17.844456 16.818336000000002C17.917368 17.063328 18.089568 17.191848 18.402264 17.234688C18.572616 17.25804 18.652608 17.250984000000003 19.368000000000002 17.149488C19.797 17.088624 20.219472 17.017608 20.306832 16.991688C20.588448 16.908096 20.723328 16.71864 20.75076 16.368000000000002C20.760504 16.243512 20.576064000000002 14.927736000000001 19.83732 9.852C19.328208 6.354 18.895464 3.4431119999999997 18.875664 3.3833520000000004C18.816672 3.2051760000000002 18.734376 3.10656 18.582792 3.0324C18.362351999999998 2.924544 18.125496000000002 2.9300640000000002 17.232 3.063936M14.99748 12.396L14.988 16.86 14.934000000000001 17.04984C14.904312000000001 17.15424 14.88 17.243351999999998 14.88 17.24784C14.88 17.252328 15.220920000000001 17.256 15.637608 17.256C16.348008 17.256 16.394448 17.253384 16.382496 17.214C16.34136 17.078376000000002 16.258872 16.52964 15.672792000000001 12.4932C15.31812 10.050528 15.023232 8.025 15.017448 7.992C15.011688 7.9590000000000005 15.002712000000002 9.9408 14.99748 12.396M2.133984 18.771168C1.900056 18.804624 1.701768 18.946824 1.588368 19.162488C1.53288 19.267968 1.524432 19.312488000000002 1.524432 19.5C1.524432 19.688112 1.532784 19.731888 1.589088 19.838952000000003C1.6716000000000002 19.995912 1.841352 20.145384 1.999896 20.200704C2.11872 20.242152 2.5435920000000003 20.244 12 20.244C21.456408000000003 20.244 21.88128 20.242152 22.000104 20.200704C22.158648000000003 20.145384 22.328400000000002 19.995912 22.410912 19.838952000000003C22.467216 19.731888 22.475568 19.688112 22.475568 19.5C22.475568 19.311888 22.467216 19.268112 22.410912 19.161048C22.332072 19.011072000000002 22.164024 18.858648000000002 22.012680000000003 18.7998C21.904248000000003 18.757656 21.52884 18.756 12.069984 18.756C6.66348 18.756 2.1922800000000002 18.762816 2.133984 18.771168M0.008976 19.5C0.009024 19.6452 0.012984 19.701504 0.01776 19.625111999999998C0.022536 19.548744 0.022488 19.429944000000003 0.017664 19.361112C0.01284 19.292304 0.008928 19.3548 0.008976 19.5" stroke="none" fill="currentColor" fill-rule="evenodd" stroke-width="0.024"></path>
</svg>