<?xml version="1.0" encoding="utf-8"?>
<!-- Generator: Adobe Illustrator 22.1.0, SVG Export Plug-In . SVG Version: 6.00 Build 0)  -->
<svg version="1.1" id="Layer_1" xmlns="http://www.w3.org/2000/svg" xmlns:xlink="http://www.w3.org/1999/xlink" x="0px" y="0px"
	 viewBox="0 0 24 24" style="enable-background:new 0 0 24 24;" xml:space="preserve">
<title>browser-page-layout</title>
<g>
	<path d="M3,22.5c-1.241,0-2.25-1.009-2.25-2.25V3.75C0.75,2.509,1.759,1.5,3,1.5h18c1.241,0,2.25,1.009,2.25,2.25v16.5
		c0,1.241-1.009,2.25-2.25,2.25H3z M21,21c0.414,0,0.75-0.336,0.75-0.75V15h-12v6H21z M2.25,20.25C2.25,20.664,2.586,21,3,21h5.25
		V7.5h-6V20.25z M21.75,13.5v-6h-12v6H21.75z M21.75,6V3.75C21.75,3.336,21.414,3,21,3H3C2.586,3,2.25,3.336,2.25,3.75V6H21.75z"/>
</g>
</svg>
