<svg xmlns="http://www.w3.org/2000/svg" viewBox="-0.75 -0.75 24 24">
    <path fill="none" stroke="#000" stroke-linecap="round" stroke-linejoin="round" stroke-width="1.5" d="M16.171875 7.03125a4.921875 4.921875 0 0 0-9.84375 0v.703125h9.84375ZM6.328125 16.875a4.921875 4.921875 0 0 0 9.84375 0V7.734375H6.328125Z"/>
    <path fill="none" stroke="#000" stroke-linecap="round" stroke-linejoin="round" stroke-width="1.5" d="M15.556875000000002 4.649062499999999A4.21875 4.21875 0 0 0 18.28125.703125M6.943124999999999 4.649062499999999A4.21875 4.21875 0 0 1 4.21875.703125M16.171875 11.953125l5.625 0M21.796875 17.578125a5.625 5.625 0 0 1 0-11.25M6.328125 11.953125l-5.625 0M.703125 17.578125a5.625 5.625 0 0 0 0-11.25"/>
</svg>
