<svg viewBox="-0.75 -0.75 24 24" xmlns="http://www.w3.org/2000/svg">
<title>bug</title>
<path d="M16.171875 7.03125a4.921875 4.921875 0 0 0 -9.84375 0v0.703125h9.84375Z" fill="none" stroke="#000000" stroke-linecap="round" stroke-linejoin="round" stroke-width="1.5"/>
<path d="M6.328125 16.875a4.921875 4.921875 0 0 0 9.84375 0V7.734375H6.328125Z" fill="none" stroke="#000000" stroke-linecap="round" stroke-linejoin="round" stroke-width="1.5"/>
<path d="M15.556875000000002 4.649062499999999A4.21875 4.21875 0 0 0 18.28125 0.703125" fill="none" stroke="#000000" stroke-linecap="round" stroke-linejoin="round" stroke-width="1.5"/>
<path d="M6.943124999999999 4.649062499999999A4.21875 4.21875 0 0 1 4.21875 0.703125" fill="none" stroke="#000000" stroke-linecap="round" stroke-linejoin="round" stroke-width="1.5"/>
<path d="m16.171875 11.953125 5.625 0" fill="none" stroke="#000000" stroke-linecap="round" stroke-linejoin="round" stroke-width="1.5"/>
<path d="M21.796875 17.578125a5.625 5.625 0 0 1 0 -11.25" fill="none" stroke="#000000" stroke-linecap="round" stroke-linejoin="round" stroke-width="1.5"/>
<path d="m6.328125 11.953125 -5.625 0" fill="none" stroke="#000000" stroke-linecap="round" stroke-linejoin="round" stroke-width="1.5"/>
<path d="M0.703125 17.578125a5.625 5.625 0 0 0 0 -11.25" fill="none" stroke="#000000" stroke-linecap="round" stroke-linejoin="round" stroke-width="1.5"/>
</svg>
