<svg xmlns="http://www.w3.org/2000/svg" width="24" height="24" viewBox="0 0 24 24">
    <path fill="#000" fill-rule="evenodd" stroke="none" d="M11.754264000000001 0.043056000000000004C11.596656000000001 0.099792 1.5761040000000002 5.730192000000001 1.466856 5.823384C1.4182320000000002 5.8648560000000005 1.346424 5.956656 1.3072320000000002 6.027384L1.236 6.156 1.229808 11.963232000000001C1.222752 18.568584 1.200576 17.910024 1.438032 18.14376C1.5563040000000001 18.260184 2.174712 18.613416 6.6064799999999995 21.096C9.37524 22.647000000000002 11.691744 23.934432 11.754288 23.956944C11.899464 24.009240000000002 12.100536 24.009240000000002 12.24564 23.956944C12.30816 23.934432 14.624640000000001 22.647000000000002 17.393424 21.096C21.859752 18.594048 22.442928 18.260856 22.564032 18.141648C22.798344 17.911032000000002 22.777248 18.544968 22.770192 11.951184L22.764 6.156 22.692768 6.027384C22.653576 5.956656 22.581744 5.8648560000000005 22.53312 5.823384C22.423824 5.7302159999999995 12.403248000000001 0.099816 12.245664 0.043056000000000004C12.183144 0.02052 12.0726 0.0021119999999999997 12 0.0021119999999999997C11.9274 0.0021119999999999997 11.816808 0.02052 11.754264000000001 0.043056000000000004M7.337952 4.230192000000001L2.7118800000000003 6.827496 2.7179520000000004 12.008088L2.724 17.188704 7.344 19.777992C9.885 21.20208 11.9802 22.367256 12 22.367231999999998C12.0198 22.367208 14.115 21.202008000000003 16.656 19.777896L21.276 17.188584000000002 21.282048 12.008136L21.28812 6.827688000000001 16.660104 4.229832C14.114688 2.801016 12.016752 1.6322160000000001 11.998032 1.6324560000000001C11.979312 1.6327200000000002 9.882264000000001 2.801688 7.337952 4.230192000000001M12.24 4.406352C9.692664 4.545504 7.456320000000001 5.859768000000001 6.124944 8.000088C5.893968 8.371416 5.579928000000001 9.018 5.435304 9.42C5.286144 9.834528 5.129352000000001 10.46208 5.0605199999999995 10.92C5.011608 11.245248 5.004576 11.380992 5.004576 12C5.004576 12.619008000000001 5.011608 12.754752 5.0605199999999995 13.08C5.280048000000001 14.540232 5.896224 15.88176 6.858624000000001 16.994808C7.835903999999999 18.125040000000002 9.189384 18.966576 10.632 19.340927999999998C11.356176 19.528848 11.86008 19.592256000000003 12.624 19.591632C14.346623999999998 19.59024 15.893328 19.051416 17.304000000000002 17.961288C17.941104000000003 17.468952 18.808728000000002 16.489296 18.979656 16.069224000000002C19.085208 15.809856000000002 19.020456 15.492456 18.821352 15.293351999999999C18.711552 15.183552 15.658176 13.429775999999999 15.48 13.374168C15.323184000000001 13.325232 15.121680000000001 13.348775999999999 14.942568 13.436952000000002C14.825856000000002 13.494408000000002 14.757384 13.553208 14.621712000000002 13.712544C14.24304 14.157264 13.764624 14.4516 13.18416 14.597015999999998C12.904224000000001 14.667144 12.295752 14.674464 12.036 14.61084C11.626968 14.510664 11.244816 14.33712 10.974168 14.128632C10.898184 14.070096000000001 10.751856 13.934064000000001 10.649016 13.826352C10.292952 13.453344000000001 10.068144 13.0206 9.955896000000001 12.492C9.916416000000002 12.30612 9.916416000000002 11.69388 9.955896000000001 11.508000000000001C10.06812 10.979592 10.292664 10.547232000000001 10.649016 10.17336C10.983672 9.822288 11.329704000000001 9.604992000000001 11.784 9.460656C12.10212 9.359568000000001 12.359304 9.326712 12.705863999999998 9.342864C13.460160000000002 9.378048 14.127528000000002 9.707088 14.621712000000002 10.287456C14.757384 10.446792 14.825856000000002 10.505592 14.942568 10.563048C15.121656 10.651224 15.323184000000001 10.674768 15.48 10.625832C15.610632 10.585080000000001 18.643656 8.859624 18.780816 8.748048C18.835776 8.703336 18.908016 8.608488000000001 18.947928 8.528640000000001C19.009152 8.406191999999999 19.018248 8.361624 19.0182 8.184000000000001C19.018152 7.9521120000000005 18.9942 7.891751999999999 18.7866 7.599912000000001C18.271079999999998 6.875256 17.558376000000003 6.181176 16.824 5.6886C15.825023999999999 5.018544 14.707032 4.603872 13.494792 4.4538C13.197552000000002 4.417008 12.516504 4.391256 12.24 4.406352M11.952 5.938344000000001C9.089088 6.275615999999999 6.908136 8.418168 6.539904 11.255136C6.488808000000001 11.648856 6.488808000000001 12.351144 6.539904 12.744864C6.776568000000001 14.568167999999998 7.787328 16.166112 9.324 17.146296C9.600264000000001 17.322528000000002 10.190904 17.612832 10.5 17.724312C11.753616 18.17652 13.095 18.211992 14.364 17.826552C15.335664 17.531424 16.251912 16.974072 16.95 16.253496000000002C17.052312 16.147896 17.135736 16.05216 17.1354 16.04076C17.134608 16.013736 15.473976 15.072000000000001 15.427152 15.072000000000001C15.407496000000002 15.072000000000001 15.370872 15.094992 15.34572 15.123096C15.320568 15.151176 15.219000000000001 15.235848 15.120000000000001 15.311231999999999C14.246112 15.976704000000002 13.093416 16.287888000000002 12.051120000000001 16.139736000000003C10.633752 15.93828 9.471 15.107928 8.84016 13.846656C8.361384000000001 12.889464 8.27952 11.728463999999999 8.617992000000001 10.695599999999999C8.977416000000002 9.598752 9.826080000000001 8.654424 10.861536000000001 8.199168C12.01416 7.6923840000000006 13.245743999999998 7.704768 14.373024 8.234496C14.727072000000001 8.400864 15.198072000000002 8.711928 15.34572 8.876904C15.370872 8.905007999999999 15.407208 8.928 15.42648 8.928C15.472895999999999 8.928 17.134632 7.986 17.1354 7.95924C17.13636 7.925784 16.781424 7.569312 16.56 7.3813200000000005C15.661536 6.618552000000001 14.655576 6.157824000000001 13.488 5.974344C13.090416 5.911872 12.32832 5.894016000000001 11.952 5.938344000000001"/>
</svg>
