<svg xmlns="http://www.w3.org/2000/svg" width="24" height="24" viewBox="0 0 24 24">
    <path fill="#000" fill-rule="evenodd" stroke="none" d="M11.754264000000001 0.043056000000000004C11.596656000000001 0.099792 1.5761040000000002 5.730192000000001 1.466856 5.823384C1.4182320000000002 5.8648560000000005 1.346424 5.956656 1.3072320000000002 6.027384L1.236 6.156 1.229808 11.963232000000001C1.222752 18.568584 1.200576 17.910024 1.438032 18.14376C1.5563040000000001 18.260184 2.174712 18.613416 6.6064799999999995 21.096C9.37524 22.647000000000002 11.691744 23.934432 11.754288 23.956944C11.899464 24.009240000000002 12.100536 24.009240000000002 12.24564 23.956944C12.30816 23.934432 14.624640000000001 22.647000000000002 17.393424 21.096C21.859752 18.594048 22.442928 18.260856 22.564032 18.141648C22.798344 17.911032000000002 22.777248 18.544968 22.770192 11.951184L22.764 6.156 22.692768 6.027384C22.653576 5.956656 22.581744 5.8648560000000005 22.53312 5.823384C22.423824 5.7302159999999995 12.403248000000001 0.099816 12.245664 0.043056000000000004C12.183144 0.02052 12.0726 0.0021119999999999997 12 0.0021119999999999997C11.9274 0.0021119999999999997 11.816808 0.02052 11.754264000000001 0.043056000000000004M7.337952 4.230192000000001L2.7118800000000003 6.827496 2.7179520000000004 12.008088L2.724 17.188704 7.344 19.777992C9.885 21.20208 11.9802 22.367256 12 22.367231999999998C12.0198 22.367208 14.115 21.202008000000003 16.656 19.777896L21.276 17.188584000000002 21.282048 12.008136L21.28812 6.827688000000001 16.660104 4.229832C14.114688 2.801016 12.016752 1.6322160000000001 11.998032 1.6324560000000001C11.979312 1.6327200000000002 9.882264000000001 2.801688 7.337952 4.230192000000001M11.628 4.382304C11.005416 4.429824 10.690824000000001 4.475448 10.224 4.585872C8.369448 5.024616 6.734256 6.168648 5.659152 7.779599999999999C4.523064000000001 9.481896 4.126320000000001 11.623824 4.57512 13.632C5.179104 16.334568 7.220352 18.508272 9.8796 19.280640000000002C10.560648 19.478448 11.208143999999999 19.567992 11.964 19.568856C12.855144 19.569912000000002 13.541568 19.465848 14.34 19.20864C15.227376000000001 18.922800000000002 16.289232 18.340512 16.741056 17.892C16.904927999999998 17.729328 16.968 17.582064 16.968 17.362152000000002C16.968 17.110848 16.932072 17.05596 15.948264 15.804C15.440015999999998 15.1572 14.970672 14.577912000000001 14.90532 14.516688C14.761992 14.382408000000002 14.614944000000001 14.32764 14.401728 14.329056C14.194032 14.330448 14.121336000000001 14.359296 13.837871999999999 14.55288C13.328304000000001 14.900832000000001 12.878328 15.0654 12.2868 15.120144C10.83732 15.254280000000001 9.470496 14.350992 9.016224 12.958728C8.897112 12.59364 8.867928000000001 12.398807999999999 8.869032 11.976C8.869632 11.751888 8.883312 11.517504 8.900544 11.436C8.990376 11.011464 9.17904 10.538640000000001 9.376512 10.24308C9.841032 9.547848 10.602096000000001 9.037152 11.412 8.877191999999999C11.673336 8.825568 12.39444 8.83248 12.636000000000001 8.888904C13.115952000000002 9.001056 13.508376000000002 9.18456 13.898688 9.4794C14.186928 9.697152 14.294592 9.744 14.506752 9.744C14.696376 9.744 14.847936 9.692064 14.974584000000002 9.583632C15.06144 9.509304 16.844736 7.4084639999999995 17.020224000000002 7.173744C17.232408000000003 6.889968 17.194224000000002 6.464472000000001 16.933248000000003 6.204288C16.879776 6.15096 16.7118 6.015048 16.56 5.9022239999999995C15.42876 5.0616 14.189208 4.571352 12.804 4.4167440000000004C12.564192000000002 4.389984 11.814864 4.368024 11.628 4.382304M11.544 5.8950000000000005C10.991424 5.94708 10.378872 6.07908 9.924 6.244104C9.328896 6.460007999999999 8.634576000000001 6.852264000000001 8.14548 7.248888C7.889448 7.456512 7.468128000000001 7.882944 7.244904 8.160432C6.702144 8.835048 6.3052079999999995 9.635352000000001 6.084552 10.5C5.94864 11.032512 5.916552 11.313864 5.916264 11.976C5.916096 12.343512 5.928 12.645 5.948016 12.780000000000001C6.111408 13.882704 6.547488 14.905728 7.223592 15.772535999999999C7.459608 16.075128 7.993512 16.595424 8.316 16.837104C9.15084 17.46276 10.107864000000001 17.860560000000003 11.148 18.014304C11.499744 18.066288 12.204456 18.084528000000002 12.530712000000001 18.050112C13.368839999999999 17.961648 14.109072000000001 17.7468 14.784 17.396160000000002C14.935800000000002 17.317296 15.073920000000001 17.2392 15.090912000000001 17.222616000000002C15.115968 17.19816 15.041664 17.090472 14.698800000000002 16.654224000000003C14.466144 16.358208 14.268 16.107816 14.258496000000001 16.097808C14.248992 16.0878 14.18244 16.111296 14.110608000000001 16.150008C13.718904 16.361064 13.109496000000002 16.542528 12.56808 16.60932C12.232152000000001 16.650744 11.43528 16.625448 11.136000000000001 16.56384C10.683552 16.470696 10.340328 16.35348 9.951744 16.159344C8.974295999999999 15.671064000000001 8.21604 14.892479999999999 7.782504 13.932C7.41648 13.121088 7.277376 12.256392 7.382256 11.444208C7.518432 10.3896 7.970784 9.437448 8.670048 8.733431999999999C9.863592 7.5318 11.490864 7.062696 13.104000000000001 7.455264000000001C13.439688 7.5369600000000005 13.751208 7.653840000000001 14.097503999999999 7.828032C14.372568 7.966368 14.384544 7.97004 14.424384 7.927824000000001C14.447136000000002 7.903728 14.641824000000002 7.673400000000001 14.857032 7.416C15.07224 7.1586 15.263784 6.9296880000000005 15.282696 6.90732C15.313728000000001 6.870576 15.303528000000002 6.857976000000001 15.177384 6.777288C14.548368 6.374904 13.632984000000002 6.05136 12.804 5.938368C12.542088 5.90268 11.751312 5.875464 11.544 5.8950000000000005M14.936760000000001 10.296719999999999C14.806199999999999 10.337016 14.632392 10.471392 14.540928 10.602768C14.448167999999999 10.735968 14.4 10.920984 14.4 11.143968L14.4 11.256 14.19984 11.256C14.02476 11.256 13.981319999999998 11.265168000000001 13.853328 11.329128C13.402248 11.554536 13.293888 12.127248000000002 13.629936 12.509976C13.67232 12.55824 13.772856 12.630648 13.853328 12.670872C13.981319999999998 12.734832 14.02476 12.744 14.19984 12.744L14.4 12.744 14.4 12.856032C14.4 13.196256000000002 14.516592 13.448376000000001 14.744807999999999 13.601664C14.896032 13.703256000000001 15.024287999999999 13.735872 15.218448 13.72212C15.62748 13.693176 15.912 13.365383999999999 15.912 12.923088L15.912 12.744 16.099728 12.744C16.346256 12.744 16.482888000000003 12.695064 16.641696 12.549936C16.8144 12.392088 16.881144 12.2388 16.881144 12C16.881144 11.7612 16.8144 11.607912 16.641696 11.450064000000001C16.482888000000003 11.304936 16.346256 11.256 16.099728 11.256L15.912 11.256 15.912 11.076912C15.912 10.750896000000001 15.753576 10.4772 15.488136 10.344648C15.36036 10.280832 15.070056 10.255608 14.936760000000001 10.296719999999999M18.816 10.293023999999999C18.599832000000003 10.364112 18.417768000000002 10.525536 18.330000000000002 10.723968C18.298560000000002 10.795032 18.2772 10.907544 18.269496 11.042688L18.257592 11.251584 18.038808 11.259960000000001C17.778792 11.269919999999999 17.643048 11.327256 17.492256 11.49084C17.349504 11.645712 17.297688 11.781288 17.297688 12C17.297688 12.218712 17.349504 12.354287999999999 17.492256 12.509160000000001C17.643048 12.672744 17.778792 12.73008 18.038808 12.74004L18.257592 12.748415999999999 18.269496 12.957312000000002C18.288456 13.289591999999999 18.422448 13.51488 18.682488 13.651632C18.787968 13.70712 18.832488 13.715568 19.02 13.715568C19.207512 13.715568 19.252032 13.70712 19.357512 13.651632C19.618224 13.514520000000001 19.751544 13.289736000000001 19.770623999999998 12.955104000000002L19.782648000000002 12.744 19.977336 12.743976C20.141448 12.743976 20.194608000000002 12.733248000000001 20.316 12.67572C20.459952 12.607512 20.606208 12.470952000000002 20.6724 12.34296C20.69172 12.305591999999999 20.71896 12.213144 20.732952 12.13752C20.79492 11.802336 20.63664 11.484408 20.328 11.324088C20.243351999999998 11.28012 20.172696000000002 11.266224 20.001192 11.259792000000001L19.782408 11.251584 19.770504 11.042688C19.751496000000003 10.709664 19.6158 10.48212 19.357512 10.350216000000001C19.227743999999998 10.283928000000001 18.937056 10.253232 18.816 10.293023999999999"/>
</svg>
