<svg xmlns="http://www.w3.org/2000/svg" width="32" height="32" fill="none" viewBox="0 0 32 32">
    <path fill="#000" fill-rule="evenodd" d="M17.3445 6.17967C15.4938 5.92452 13.6088 6.19912 11.9078 6.97162C10.2068 7.74412 8.75967 8.98289 7.73403 10.5443C6.70839 12.1058 6.14629 13.9259 6.11291 15.7938C6.07952 17.6616 6.57621 19.5007 7.54539 21.0978C8.51458 22.6949 9.91656 23.9846 11.5888 24.8174C13.2611 25.6502 15.1351 25.9919 16.9937 25.8031C18.8523 25.6143 20.6193 24.9025 22.0899 23.7504C22.2467 23.6275 22.3482 23.4474 22.372 23.2496C22.3958 23.0518 22.3399 22.8527 22.2167 22.6962L19.8034 19.6295C19.5486 19.3057 19.0802 19.2481 18.7545 19.5006C18.1937 19.9354 17.5374 20.2302 16.8399 20.3606C16.1424 20.491 15.4239 20.4532 14.744 20.2504C14.064 20.0476 13.4422 19.6857 12.9301 19.1945C12.418 18.7033 12.0304 18.0972 11.7994 17.4263C11.5684 16.7553 11.5007 16.039 11.6019 15.3367C11.7031 14.6344 11.9703 13.9664 12.3813 13.388C12.7923 12.8096 13.3353 12.3375 13.9652 12.0109C14.5949 11.6844 15.2933 11.5127 16.0025 11.51C17.0505 11.509 18.0639 11.8846 18.858 12.5684C19.0099 12.6991 19.2078 12.7637 19.4076 12.7476C19.6074 12.7315 19.7925 12.6361 19.9214 12.4826L22.4548 9.4693C22.7211 9.15252 22.6805 8.67989 22.364 8.41318C20.9356 7.20924 19.1951 6.43481 17.3445 6.17967ZM12.5281 8.33737C13.9709 7.68211 15.5698 7.44919 17.1396 7.66561C18.461 7.84779 19.7162 8.34208 20.803 9.10306L19.23 10.9741C18.2753 10.3469 17.1531 10.0086 15.9998 10.01L15.998 10.01C15.05 10.0134 14.1164 10.2429 13.2748 10.6792C12.4332 11.1156 11.7077 11.7463 11.1586 12.5191C10.6094 13.2919 10.2525 14.1845 10.1173 15.1228C9.98205 16.0611 10.0725 17.0182 10.3811 17.9146C10.6897 18.8109 11.2076 19.6208 11.8918 20.2771C12.576 20.9333 13.4068 21.4169 14.3153 21.6879C15.2237 21.9588 16.1837 22.0093 17.1156 21.8351C17.802 21.7067 18.4586 21.4592 19.0562 21.1056L20.5523 23.0066C19.4395 23.7274 18.1683 24.176 16.8421 24.3108C15.2656 24.471 13.676 24.181 12.2575 23.4746C10.839 22.7682 9.64984 21.6743 8.82774 20.3196C8.00565 18.9649 7.58435 17.4049 7.61267 15.8206C7.64099 14.2362 8.11777 12.6923 8.98775 11.3678C9.85773 10.0434 11.0853 8.99263 12.5281 8.33737Z" clip-rule="evenodd"/>
    <path fill="#000" fill-rule="evenodd" d="M20.3008 14.65C20.3008 14.2358 20.6366 13.9 21.0508 13.9H21.7548L21.9642 12.8529C22.0454 12.4467 22.4405 12.1833 22.8467 12.2646C23.2529 12.3458 23.5163 12.7409 23.435 13.1471L23.2845 13.9H23.9559L24.1653 12.8529C24.2466 12.4467 24.6417 12.1833 25.0479 12.2646C25.454 12.3458 25.7175 12.7409 25.6362 13.1471L25.4856 13.9H26.0008C26.415 13.9 26.7508 14.2358 26.7508 14.65C26.7508 15.0642 26.415 15.4 26.0008 15.4H25.1856L25.0456 16.1H25.45C25.8642 16.1 26.2 16.4358 26.2 16.85C26.2 17.2642 25.8642 17.6 25.45 17.6H24.7456L24.5362 18.6471C24.455 19.0533 24.0599 19.3167 23.6537 19.2354C23.2475 19.1542 22.9841 18.7591 23.0653 18.3529L23.2159 17.6H22.5445L22.335 18.6471C22.2538 19.0533 21.8587 19.3167 21.4525 19.2354C21.0464 19.1542 20.7829 18.7591 20.8642 18.3529L21.0148 17.6H20.5C20.0858 17.6 19.75 17.2642 19.75 16.85C19.75 16.4358 20.0858 16.1 20.5 16.1H21.3148L21.4548 15.4H21.0508C20.6366 15.4 20.3008 15.0642 20.3008 14.65ZM23.5159 16.1L23.6559 15.4H22.9845L22.8445 16.1H23.5159Z" clip-rule="evenodd"/>
    <path fill="#000" fill-rule="evenodd" d="M16.3674 0.345988C16.1394 0.218004 15.8612 0.218004 15.6332 0.345988L2.25985 7.85265C2.02336 7.9854 1.87695 8.23547 1.87695 8.50667V23.5067C1.87695 23.7781 2.02358 24.0283 2.26034 24.161L15.6337 31.6543C15.8614 31.7819 16.1391 31.7819 16.3669 31.6543L29.7402 24.161C29.977 24.0283 30.1236 23.7781 30.1236 23.5067V8.50667C30.1236 8.23547 29.9772 7.9854 29.7407 7.85265L16.3674 0.345988ZM3.37695 8.94576L16.0003 1.86008L28.6236 8.94576V23.0672L16.0003 30.1403L3.37695 23.0672V8.94576Z" clip-rule="evenodd"/>
</svg>
