<svg xmlns="http://www.w3.org/2000/svg" viewBox="0 0 24 24">
    <defs>
        <style>
            .a{fill:none;stroke:currentColor;stroke-linecap:round;stroke-linejoin:round;stroke-width:1.5px}
        </style>
    </defs>
    <rect width="22.5" height="19.5" x=".75" y="3.75" class="a" rx="1.5" ry="1.5"/>
    <path d="M.75 9.75 23.25 9.75M6.75 6 6.75.75M17.25 6 17.25.75M5.625 13.5 5.625 13.5M5.625 13.5A.375.375 0 1 0 6 13.875a.375.375 0 0 0-.375-.375M5.625 18.75 5.625 18.75M5.625 18.75A.375.375 0 1 0 6 19.125a.375.375 0 0 0-.375-.375M12 13.5 12 13.5M12 13.5a.375.375 0 1 0 .375.375A.375.375 0 0 0 12 13.5M12 18.75 12 18.75M12 18.75a.375.375 0 1 0 .375.375A.375.375 0 0 0 12 18.75M18.375 13.5 18.375 13.5M18.375 13.5a.375.375 0 1 0 .375.375.375.375 0 0 0-.375-.375M18.375 18.75 18.375 18.75M18.375 18.75a.375.375 0 1 0 .375.375.375.375 0 0 0-.375-.375" class="a"/>
</svg>
