<svg xmlns="http://www.w3.org/2000/svg" viewBox="0 0 24 24">
<title>closed-caption-disabled</title>
<path fill="#000000" d="m9.0252 9.02505 1.25 1.25h-3.025v3.45h2.55c0 -0.16665 0.05475 -0.30415 0.16425 -0.4125 0.1095 -0.10835 0.2464 -0.1625 0.41075 -0.1625h0.1c0.16435 0 0.30125 0.05475 0.41075 0.16425 0.1095 0.1095 0.16425 0.2464 0.16425 0.41075v0.5c0 0.2125 -0.07185 0.3906 -0.2155 0.53425 -0.14385 0.14385 -0.322 0.21575 -0.5345 0.21575h-3.55c-0.2125 0 -0.3906 -0.0719 -0.53425 -0.21575 -0.14385 -0.14365 -0.21575 -0.32175 -0.21575 -0.53425v-4.45c0 -0.2125 0.0719 -0.39065 0.21575 -0.5345 0.14365 -0.14365 0.32175 -0.2155 0.53425 -0.2155h2.275Zm11.975 -3.525v11.85c0 0.24385 -0.07935 0.42985 -0.238 0.558 -0.15865 0.128 -0.3295 0.192 -0.5125 0.192 -0.183 0 -0.35365 -0.064 -0.512 -0.192 -0.15835 -0.12815 -0.2375 -0.31415 -0.2375 -0.558v-11.85h-11.85c-0.25 0 -0.4375 -0.07765 -0.5625 -0.233 -0.125 -0.15535 -0.1875 -0.32617 -0.1875 -0.5125 0 -0.186335 0.0625 -0.35867 0.1875 -0.517 0.125 -0.158335 0.3125 -0.2375 0.5625 -0.2375h11.85c0.38335 0 0.72915 0.154165 1.0375 0.4625 0.30835 0.30833 0.4625 0.65415 0.4625 1.0375Zm-2.975 8.65c0 0.21665 -0.07085 0.39585 -0.2125 0.5375s-0.32085 0.2125 -0.5375 0.2125h-0.225l-1.175 -1.175h0.9c0 -0.16665 0.05475 -0.30415 0.16425 -0.4125 0.1095 -0.10835 0.2464 -0.1625 0.41075 -0.1625h0.1c0.16435 0 0.30125 0.05475 0.41075 0.16425 0.1095 0.1095 0.16425 0.2464 0.16425 0.41075v0.425Zm-0.75 -5.125c0.2125 0 0.39065 0.07185 0.5345 0.2155 0.14365 0.14385 0.2155 0.322 0.2155 0.5345v0.5c0 0.16435 -0.05475 0.30125 -0.16425 0.41075 -0.1095 0.1095 -0.2464 0.16425 -0.41075 0.16425h-0.1c-0.16435 0 -0.30125 -0.05475 -0.41075 -0.16425 -0.1095 -0.1095 -0.16425 -0.2464 -0.16425 -0.41075h-2.55v1.8l-1.25 -1.25v-1.05c0 -0.2125 0.0719 -0.39065 0.21575 -0.5345 0.14365 -0.14365 0.32175 -0.2155 0.53425 -0.2155h3.55Zm-12.775005 10.975c-0.4 0 -0.75 -0.15 -1.05 -0.45 -0.3 -0.3 -0.45 -0.65 -0.45 -1.05v-13c0 -0.332 0.104165 -0.6275 0.3125 -0.8865s0.4625 -0.4385 0.7625 -0.5385l1.425005 1.425H4.500195v13H16.3502l-15.175005 -15.15c-0.15 -0.15117 -0.225 -0.330585 -0.225 -0.53825 0 -0.207835 0.075415 -0.38675 0.22625 -0.53675 0.151 -0.15 0.330165 -0.225 0.5375 -0.225 0.2075 0 0.38625 0.075 0.53625 0.225l19.100005 19.1c0.15 0.15115 0.225 0.3306 0.225 0.53825 0 0.20785 -0.0754 0.38675 -0.22625 0.53675 -0.151 0.15 -0.33015 0.225 -0.5375 0.225 -0.2075 0 -0.38625 -0.075 -0.53625 -0.225l-2.425 -2.45H4.500195Z" stroke-width="1.5"></path>
</svg>