<svg xmlns="http://www.w3.org/2000/svg" viewBox="0 0 24 24">
<title>closed-caption</title>
<path fill="#000000" d="M4.5 20c-0.4 0 -0.75 -0.15 -1.05 -0.45 -0.3 -0.3 -0.45 -0.65 -0.45 -1.05V5.5c0 -0.4 0.15 -0.75 0.45 -1.05C3.75 4.15 4.1 4 4.5 4h15c0.4 0 0.75 0.15 1.05 0.45 0.3 0.3 0.45 0.65 0.45 1.05v13c0 0.4 -0.15 0.75 -0.45 1.05 -0.3 0.3 -0.65 0.45 -1.05 0.45H4.5Zm0 -1.5h15V5.5H4.5v13Zm2.25 -3.525h3.55c0.2125 0 0.39065 -0.0719 0.5345 -0.21575 0.14365 -0.14365 0.2155 -0.32175 0.2155 -0.53425v-0.5c0 -0.16435 -0.05475 -0.30125 -0.16425 -0.41075 -0.1095 -0.1095 -0.2464 -0.16425 -0.41075 -0.16425h-0.1c-0.16435 0 -0.30125 0.05475 -0.41075 0.16425 -0.1095 0.1095 -0.16425 0.2464 -0.16425 0.41075h-2.55v-3.45h2.55c0 0.16665 0.05475 0.30415 0.16425 0.4125 0.1095 0.10835 0.2464 0.1625 0.41075 0.1625h0.1c0.16435 0 0.30125 -0.05475 0.41075 -0.16425 0.1095 -0.1095 0.16425 -0.2464 0.16425 -0.41075v-0.5c0 -0.2125 -0.07185 -0.39065 -0.2155 -0.5345 -0.14385 -0.14365 -0.322 -0.2155 -0.5345 -0.2155h-3.55c-0.2125 0 -0.3906 0.07185 -0.53425 0.2155 -0.14385 0.14385 -0.21575 0.322 -0.21575 0.5345v4.45c0 0.2125 0.0719 0.3906 0.21575 0.53425 0.14365 0.14385 0.32175 0.21575 0.53425 0.21575Zm10.525 -5.95h-3.55c-0.2125 0 -0.3906 0.07185 -0.53425 0.2155 -0.14385 0.14385 -0.21575 0.322 -0.21575 0.5345v4.45c0 0.2125 0.0719 0.3906 0.21575 0.53425 0.14365 0.14385 0.32175 0.21575 0.53425 0.21575h3.55c0.2125 0 0.39065 -0.0719 0.5345 -0.21575 0.14365 -0.14365 0.2155 -0.32175 0.2155 -0.53425v-0.5c0 -0.16435 -0.05475 -0.30125 -0.16425 -0.41075 -0.1095 -0.1095 -0.2464 -0.16425 -0.41075 -0.16425h-0.1c-0.16435 0 -0.30125 0.05475 -0.41075 0.16425 -0.1095 0.1095 -0.16425 0.2464 -0.16425 0.41075h-2.55v-3.45h2.55c0 0.16665 0.05475 0.30415 0.16425 0.4125 0.1095 0.10835 0.2464 0.1625 0.41075 0.1625h0.1c0.16435 0 0.30125 -0.05475 0.41075 -0.16425 0.1095 -0.1095 0.16425 -0.2464 0.16425 -0.41075v-0.5c0 -0.2125 -0.07185 -0.39065 -0.2155 -0.5345 -0.14385 -0.14365 -0.322 -0.2155 -0.5345 -0.2155Z" stroke-width="1.5"></path></svg>