<svg xmlns="http://www.w3.org/2000/svg" width="24" height="24" viewBox="0 0 24 24">
    <path fill="#000" fill-rule="evenodd" stroke="none" d="M7.788 3.7589040000000002C6.238968 3.8606160000000003 4.833936 4.336320000000001 3.60336 5.175744C1.549176 6.576936 0.252288 8.781456 0.022176 11.263200000000001C-0.019464000000000002 11.712408 0.0064080000000000005 12.760584000000001 0.06912 13.164C0.219528 14.131608 0.46178400000000003 14.897471999999999 0.87828 15.721992C1.305216 16.567176 1.7938560000000001 17.228424 2.499624 17.916C3.238032 18.6354 4.0444320000000005 19.177224000000002 4.964136 19.571904C5.728464000000001 19.899912 6.370056 20.073456 7.296 20.20272C7.541112000000001 20.23692 8.178792000000001 20.242224 12.996 20.25C16.781688 20.256096 18.528744 20.250792 18.78 20.232384C20.838648000000003 20.081688 22.645008 18.830208 23.49792 16.963728C23.739216000000003 16.435704 23.915136 15.7956 23.978472 15.215352C24.013056 14.89848 23.992536 14.030520000000001 23.943888 13.752C23.539344 11.436456 21.889632 9.66732 19.647696 9.14484C18.85632 8.9604 17.965944 8.956416 17.161991999999998 9.133704000000002C16.906176 9.190104 16.411008000000002 9.347664 16.193448 9.441888C16.122744 9.472512 16.100616000000002 9.474408 16.092456000000002 9.450552C15.847992 8.736456 15.585743999999998 8.18124 15.211176 7.584672C14.235408000000001 6.030600000000001 12.691056 4.808952 10.936368 4.203072C10.370232000000001 4.007592 9.707688000000001 3.858552 9.108 3.7917600000000005C8.870136 3.765264 8.015232000000001 3.744 7.788 3.7589040000000002M7.74 5.2715760000000005C7.700400000000001 5.2762080000000005 7.5654 5.291616 7.44 5.305848C7.098864 5.344536 6.626352000000001 5.440872000000001 6.313896000000001 5.535432C3.731688 6.31692 1.886904 8.500440000000001 1.545288 11.179704000000001C1.491528 11.601408 1.491096 12.419471999999999 1.5444 12.824015999999999C1.748904 14.375448 2.419056 15.730728000000001 3.515088 16.80948C4.5368640000000005 17.815152 5.774808 18.433176 7.26 18.679128000000002L7.572 18.730776 13.115712000000002 18.737928C19.166520000000002 18.745752 18.889416 18.75132 19.430976 18.610632C20.253024 18.397032 21.022199999999998 17.902608 21.575688 17.232C22.225776 16.444368 22.585392 15.299760000000001 22.492512 14.314032000000001C22.41684 13.511208 22.141536 12.7692 21.698496000000002 12.174072C21.024336 11.268431999999999 19.997736 10.671216000000001 18.87996 10.53444C18.5436 10.49328 17.888088 10.517256 17.5746 10.5822C17.086104000000002 10.683384 16.572167999999998 10.89192 16.160376000000003 11.156088C15.890592 11.329152 15.807456 11.360232 15.612 11.361144C15.404904 11.362104 15.219000000000001 11.284608 15.076751999999999 11.13804C14.948088 11.00544 14.899032 10.890312 14.822328 10.541016C14.437008 8.785872 13.379664 7.282344 11.837136000000001 6.296112000000001C10.777776000000001 5.618808 9.488256 5.249376 8.22 5.259816C7.9956 5.261688 7.779599999999999 5.266968 7.74 5.2715760000000005"/>
</svg>
