<svg xmlns="http://www.w3.org/2000/svg" width="24" height="24" fill="none" viewBox="0 0 24 24">
    <path fill="currentColor" fill-rule="evenodd" d="M15.178 6.57932C15.0033 6.47663 14.8232 6.38216 14.6382 6.29638C13.5001 5.76865 12.23 5.59407 10.9917 5.79515C9.7534 5.99624 8.60378 6.56378 7.69116 7.42453C6.77854 8.28528 6.14479 9.39976 5.87167 10.6242C5.86273 10.6687 5.83949 10.709 5.80549 10.7391C5.77149 10.7692 5.7286 10.7874 5.68334 10.7908C4.73927 10.8616 3.85675 11.2863 3.21242 11.98C2.56809 12.6736 2.20947 13.5849 2.20834 14.5317C2.18836 15.0157 2.26782 15.4986 2.44183 15.9507C2.61583 16.4027 2.88068 16.8143 3.22001 17.16C4.01959 17.8792 5.0554 18.2798 6.13084 18.2858H17.4525C17.4885 18.2859 17.5244 18.2833 17.56 18.2783C18.7229 18.1507 19.7978 17.5983 20.5787 16.7272C21.3596 15.8561 21.7915 14.7274 21.7917 13.5575C21.7901 12.9216 21.6611 12.2925 21.4122 11.7074C21.1633 11.1222 20.7995 10.593 20.3425 10.1508C20.3 10.1096 20.2567 10.0693 20.2128 10.0298L19.0293 11.2133C19.0833 11.2586 19.1358 11.3057 19.1866 11.3547C19.4827 11.6401 19.7181 11.9823 19.8788 12.3608C20.0395 12.7393 20.1221 13.1463 20.1217 13.5575C20.1202 14.3137 19.8414 15.043 19.3381 15.6073C18.8348 16.1716 18.1419 16.5316 17.3908 16.6192H6.145C5.50232 16.615 4.88137 16.386 4.39001 15.9717C4.20992 15.7798 4.07126 15.553 3.98266 15.3053C3.89406 15.0575 3.85741 14.7942 3.87501 14.5317C3.87523 13.978 4.0952 13.4471 4.48661 13.0555C4.87802 12.664 5.40886 12.4438 5.96251 12.4433C6.10728 12.4435 6.25166 12.4585 6.39334 12.4883C6.5104 12.5124 6.63128 12.5111 6.74777 12.4844C6.86427 12.4577 6.97365 12.4062 7.0685 12.3335C7.16336 12.2608 7.24146 12.1685 7.2975 12.0629C7.35355 11.9574 7.38624 11.841 7.39334 11.7217C7.45364 10.6989 7.85286 9.72539 8.52797 8.95476C9.20308 8.18413 10.1156 7.6603 11.1215 7.46596C12.0767 7.28143 13.0643 7.40393 13.9437 7.81371L15.178 6.57932Z" clip-rule="evenodd"/>
    <path fill="currentColor" fill-rule="evenodd" d="M18.2071 7.79289C18.5976 8.18342 18.5976 8.81658 18.2071 9.20711L13.2071 14.2071C13.0196 14.3946 12.7652 14.5 12.5 14.5C12.2348 14.5 11.9804 14.3946 11.7929 14.2071L9.79289 12.2071C9.40237 11.8166 9.40237 11.1834 9.79289 10.7929C10.1834 10.4024 10.8166 10.4024 11.2071 10.7929L12.5 12.0858L16.7929 7.79289C17.1834 7.40237 17.8166 7.40237 18.2071 7.79289Z" clip-rule="evenodd"/>
</svg>
