<svg xmlns="http://www.w3.org/2000/svg" id="Seal-Shape--Streamline-Ultimate" width="24" height="24" version="1.1" viewBox="0 0 24 24">
  <title>seal-shape</title>
  <path fill-rule="evenodd" d="M11.772.085a9.349 9.349 0 0 1-.18.038c-.18.036-.388.126-.563.243-.087.058-.663.613-1.442 1.39L8.291 3.047h-1.8c-1.087 0-1.858.01-1.947.024-.4.065-.67.205-.968.504-.303.303-.446.582-.504.983-.013.087-.023.951-.024 1.944V8.29L1.755 9.587c-.776.78-1.33 1.355-1.39 1.442-.201.302-.28.576-.28.971s.079.669.28.97c.06.088.614.664 1.39 1.443l1.293 1.296v1.788c0 .993.011 1.857.024 1.944.058.4.2.68.504.983.303.303.582.446.983.504.087.013.951.023 1.944.024h1.788l1.296 1.293c.78.776 1.355 1.33 1.442 1.39.302.201.576.28.971.28s.669-.079.97-.28c.088-.06.664-.614 1.443-1.39l1.296-1.293h1.788c.993 0 1.857-.011 1.944-.024.4-.058.68-.2.983-.504.299-.299.439-.567.504-.968.014-.09.024-.86.024-1.947v-1.8l1.293-1.296c.776-.78 1.33-1.355 1.39-1.442.201-.302.28-.576.28-.971s-.079-.669-.28-.97c-.06-.088-.614-.664-1.39-1.442l-1.291-1.296-.007-1.896-.008-1.896-.06-.192c-.093-.296-.22-.5-.453-.734a1.655 1.655 0 0 0-.734-.453l-.192-.06-1.896-.008-1.896-.007-1.296-1.291C13.635.98 13.058.425 12.972.367c-.288-.192-.53-.268-.9-.283a2.294 2.294 0 0 0-.3.001m-1.307 2.926C9.311 4.163 9.013 4.448 8.916 4.493l-.12.055-2.045.012-2.046.012-.066.067-.067.066-.012 2.046-.012 2.045-.055.12c-.045.097-.33.395-1.482 1.55l-1.427 1.428v.212l1.427 1.429c1.152 1.154 1.437 1.452 1.482 1.549l.055.12.012 2.045.012 2.046.067.066.066.067 2.046.012 2.045.012.12.055c.097.045.395.33 1.55 1.482l1.428 1.427h.212l1.429-1.427c1.154-1.152 1.452-1.437 1.549-1.482l.12-.055 2.045-.012 2.046-.012.066-.067.067-.066.012-2.046.012-2.045.055-.12c.045-.097.33-.395 1.482-1.55l1.427-1.428v-.212l-1.427-1.429c-1.152-1.154-1.437-1.452-1.482-1.549l-.055-.12-.012-2.045-.012-2.046-.067-.066-.066-.067-2.046-.012-2.045-.012-.12-.055c-.097-.045-.395-.33-1.55-1.482l-1.428-1.427h-.212l-1.429 1.427"/>
</svg>
