<svg xmlns="http://www.w3.org/2000/svg" viewBox="0 0 24 24" id="Task-List-Check--Streamline-Ultimate" height="24" width="24">
  <desc>
    Task List Check Streamline Icon: https://streamlinehq.com
  </desc>
  <path stroke="currentColor" fill="none" stroke-linecap="round" stroke-linejoin="round" d="m16.313 11.26 -5.592 5.592c-0.076 0.0761 -0.1662 0.1365 -0.2656 0.1778 -0.0993 0.0412 -0.2059 0.0624 -0.3134 0.0624 -0.1076 0 -0.21408 -0.0212 -0.31343 -0.0624 -0.09935 -0.0413 -0.1896 -0.1017 -0.26558 -0.1778l-1.875 -1.876" stroke-width="1.5"></path>
  <path stroke="currentColor" fill="none" stroke-linecap="round" stroke-linejoin="round" d="M15.75 4.5h3.75c0.3978 0 0.7794 0.15804 1.0607 0.43934S21 5.60218 21 6v15.75c0 0.3978 -0.158 0.7794 -0.4393 1.0607s-0.6629 0.4393 -1.0607 0.4393h-15c-0.39782 0 -0.77936 -0.158 -1.06066 -0.4393C3.15804 22.5294 3 22.1478 3 21.75V6c0 -0.39782 0.15804 -0.77936 0.43934 -1.06066C3.72064 4.65804 4.10218 4.5 4.5 4.5h3.75c0 -0.99456 0.39509 -1.94839 1.09835 -2.65165C10.0516 1.14509 11.0054 0.75 12 0.75c0.9946 0 1.9484 0.39509 2.6517 1.09835C15.3549 2.55161 15.75 3.50544 15.75 4.5v0Z" stroke-width="1.5"></path>
  <path stroke="currentColor" fill="none" d="M11.9995 4.51056c-0.2071 0 -0.375 -0.16789 -0.375 -0.375s0.1679 -0.375 0.375 -0.375" stroke-width="1.5"></path>
  <path stroke="currentColor" fill="none" d="M11.9995 4.51056c0.2071 0 0.375 -0.16789 0.375 -0.375s-0.1679 -0.375 -0.375 -0.375" stroke-width="1.5"></path>
</svg>
