  <svg xmlns="http://www.w3.org/2000/svg" viewBox="0 0 24 24" height="24" width="24">
    <desc>
      Common File Text Question Streamline Icon: https://streamlinehq.com
    </desc>
    <path fill="none" stroke="currentColor" stroke-linecap="round" stroke-linejoin="round" d="M17.25 23.25a6 6 0 1 0 0-12 6 6 0 0 0 0 12" stroke-width="1.5"/>
    <path fill="none" stroke="currentColor" stroke-linecap="round" stroke-linejoin="round" d="M15.375 16.125A1.875 1.875 0 1 1 17.25 18" stroke-width="1.5"/>
    <path fill="none" stroke="currentColor" d="M17.25 21a.375.375 0 0 1 0-.75m0 .75a.375.375 0 0 0 0-.75" stroke-width="1.5"/>
    <path fill="none" stroke="currentColor" stroke-linecap="round" stroke-linejoin="round" d="M3.75 6.75h10.5m-10.5 4.5h6m-6 4.5H7.5m0 4.5H2.25a1.5 1.5 0 0 1-1.5-1.5V2.25a1.5 1.5 0 0 1 1.5-1.5h10.629a1.5 1.5 0 0 1 1.06.439l2.872 2.872a1.5 1.5 0 0 1 .439 1.06V7.5" stroke-width="1.5"/>
  </svg>
