<svg viewBox="0 0 24 24" xmlns="http://www.w3.org/2000/svg" id="Common-File-Text-Heart--Streamline-Ultimate" height="24" width="24"><desc>Common File Text Heart Streamline Icon: https://streamlinehq.com</desc><path d="m17.25 23.25 -5.114 -5.335a3.025 3.025 0 0 1 -0.567 -3.492h0a3.026 3.026 0 0 1 4.846 -0.786l0.835 0.835 0.835 -0.835a3.026 3.026 0 0 1 4.846 0.786h0a3.025 3.025 0 0 1 -0.567 3.492Z" fill="none" stroke="currentColor" stroke-linecap="round" stroke-linejoin="round" stroke-width="1.5"></path><path d="m3.75 6.75 10.5 0" fill="none" stroke="currentColor" stroke-linecap="round" stroke-linejoin="round" stroke-width="1.5"></path><path d="m3.75 11.25 6 0" fill="none" stroke="currentColor" stroke-linecap="round" stroke-linejoin="round" stroke-width="1.5"></path><path d="m3.75 15.75 3.75 0" fill="none" stroke="currentColor" stroke-linecap="round" stroke-linejoin="round" stroke-width="1.5"></path><path d="M8.25 20.25h-6a1.5 1.5 0 0 1 -1.5 -1.5V2.25a1.5 1.5 0 0 1 1.5 -1.5h10.629a1.5 1.5 0 0 1 1.06 0.439l2.872 2.872a1.5 1.5 0 0 1 0.439 1.06V9.75" fill="none" stroke="currentColor" stroke-linecap="round" stroke-linejoin="round" stroke-width="1.5"></path></svg>