<svg xmlns="http://www.w3.org/2000/svg" fill="none" viewBox="0 0 24 24" id="Common-File-Text-Question--Streamline-Ultimate" height="24" width="24"><desc>Common File Text Question Streamline Icon: https://streamlinehq.com</desc><path stroke="currentColor" stroke-linecap="round" stroke-linejoin="round" d="M17.25 23.25c3.3137 0 6 -2.6863 6 -6s-2.6863 -6 -6 -6 -6 2.6863 -6 6 2.6863 6 6 6Z" stroke-width="1.5"></path><path stroke="currentColor" stroke-linecap="round" stroke-linejoin="round" d="M15.375 16.125c0 -0.3708 0.11 -0.7334 0.316 -1.0417 0.206 -0.3083 0.4989 -0.5487 0.8415 -0.6906 0.3426 -0.1419 0.7196 -0.179 1.0833 -0.1067 0.3637 0.0724 0.6978 0.251 0.96 0.5132s0.4408 0.5963 0.5132 0.96c0.0723 0.3637 0.0352 0.7407 -0.1067 1.0833 -0.1419 0.3426 -0.3823 0.6355 -0.6906 0.8415 -0.3083 0.206 -0.6709 0.316 -1.0417 0.316" stroke-width="1.5"></path><path stroke="currentColor" d="M17.25 21c-0.2071 0 -0.375 -0.1679 -0.375 -0.375s0.1679 -0.375 0.375 -0.375" stroke-width="1.5"></path><path stroke="currentColor" d="M17.25 21c0.2071 0 0.375 -0.1679 0.375 -0.375s-0.1679 -0.375 -0.375 -0.375" stroke-width="1.5"></path><path stroke="currentColor" stroke-linecap="round" stroke-linejoin="round" d="M3.75 6.75h10.5" stroke-width="1.5"></path><path stroke="currentColor" stroke-linecap="round" stroke-linejoin="round" d="M3.75 11.25h6" stroke-width="1.5"></path><path stroke="currentColor" stroke-linecap="round" stroke-linejoin="round" d="M3.75 15.75H7.5" stroke-width="1.5"></path><path stroke="currentColor" stroke-linecap="round" stroke-linejoin="round" d="M7.5 20.25H2.25c-0.39782 0 -0.77936 -0.158 -1.06066 -0.4393C0.908035 19.5294 0.75 19.1478 0.75 18.75V2.25c0 -0.39782 0.158035 -0.77936 0.43934 -1.06066C1.47064 0.908035 1.85218 0.75 2.25 0.75h10.629c0.3975 0.000085 0.7788 0.157982 1.06 0.439l2.872 2.872c0.281 0.2812 0.4389 0.66245 0.439 1.06V7.5" stroke-width="1.5"></path></svg>