<svg xmlns="http://www.w3.org/2000/svg" width="24" height="24" viewBox="0 0 24 24">
  <title>computer-chip</title>
	<path d="M6.550824 0.7752C6.342072 0.8343360000000001 6.179016 0.971424 6.066144 1.182672C6.013296 1.281576 6.011832 1.304448 6.004872 2.139336L5.997768000000001 2.994672 5.404872 3.006048C4.724064 3.019128 4.583640000000001 3.04488 4.212 3.224856C3.6385680000000002 3.502536 3.2598 3.990408 3.067128 4.6995119999999995C3.025176 4.853976 3.015216 4.974672 3.0060000000000002 5.440872000000001L2.9949600000000003 5.997768000000001 2.13948 6.004872C1.3002719999999999 6.011856 1.282032 6.013056000000001 1.18092 6.067032C1.021968 6.151896000000001 0.8959440000000001 6.279 0.822816 6.428136C0.73092 6.6156 0.728088 6.890496 0.8162640000000001 7.064856000000001C0.895776 7.222104 1.0400639999999999 7.362288 1.2 7.437744L1.332 7.5 2.166 7.507896000000001L3 7.515792 3 9.384792000000001L3 11.253767999999999 2.13 11.260871999999999L1.26 11.268 1.1520000000000001 11.332032C0.8897039999999999 11.487528 0.75912 11.70888 0.757944 12C0.75696 12.237288 0.823992 12.3906 0.998304 12.549936C1.2067679999999998 12.740471999999999 1.228248 12.744 2.176272 12.744L3 12.744 3 14.614104000000001L3 16.484208 2.166 16.492104L1.332 16.5 1.2 16.562256C1.0400639999999999 16.637712 0.895776 16.777896 0.8162640000000001 16.935144C0.728088 17.109503999999998 0.73092 17.3844 0.822816 17.571863999999998C0.8959440000000001 17.721 1.021968 17.848104000000003 1.18092 17.932968C1.282032 17.986944 1.3002719999999999 17.988144 2.139336 17.995128L2.994672 18.002232 3.006048 18.595128000000003C3.0157920000000003 19.102056 3.024912 19.21584 3.068976 19.38C3.246888 20.043048 3.7090080000000003 20.560272 4.354056 20.818344C4.71072 20.961024 4.8414 20.982143999999998 5.440872000000001 20.994L5.997768000000001 21.00504 6.004872 21.86052C6.011856 22.699728 6.013056000000001 22.717968 6.067032 22.81908C6.151896000000001 22.978032 6.279 23.104056 6.428136 23.177184C6.6156 23.26908 6.890496 23.271912 7.064856000000001 23.183736C7.222104 23.104224000000002 7.362288 22.959936 7.437744 22.8L7.5 22.668 7.507896000000001 21.834L7.515792 21 9.385896 21L11.256 21 11.256 21.823728C11.256 22.771752 11.259528 22.793232 11.450064000000001 23.001696C11.607912 23.174400000000002 11.7612 23.241144 12 23.241144C12.2388 23.241144 12.392088 23.174400000000002 12.549936 23.001696C12.740471999999999 22.793232 12.744 22.771752 12.744 21.823728L12.744 21 14.614104000000001 21L16.484208 21 16.492104 21.834L16.5 22.668 16.562256 22.8C16.637712 22.959936 16.777896 23.104224000000002 16.935144 23.183736C17.109503999999998 23.271912 17.3844 23.26908 17.571863999999998 23.177184C17.721 23.104056 17.848104000000003 22.978032 17.932968 22.81908C17.986944 22.717968 17.988144 22.699728 17.995128 21.860664L18.002232 21.005328 18.595128000000003 20.993952C19.290408000000003 20.980584 19.42008 20.955528 19.823664 20.756568C20.04708 20.646408 20.102496000000002 20.605296 20.317632 20.390232C20.640624 20.067336 20.802312 19.780944 20.932872 19.300488C20.974824 19.146024 20.984784 19.025328 20.994 18.559128L21.00504 18.002232 21.86052 17.995128C22.699728 17.988144 22.717968 17.986944 22.81908 17.932968C22.978032 17.848104000000003 23.104056 17.721 23.177184 17.571863999999998C23.26908 17.3844 23.271912 17.109503999999998 23.183736 16.935144C23.104224000000002 16.777896 22.959936 16.637712 22.8 16.562256L22.668 16.5 21.834 16.492104L21 16.484208 21 14.614104000000001L21 12.744 21.823728 12.744C22.771752 12.744 22.793232 12.740471999999999 23.001696 12.549936C23.174400000000002 12.392088 23.241144 12.2388 23.241144 12C23.241144 11.7612 23.174400000000002 11.607912 23.001696 11.450064000000001C22.793232 11.259528 22.771752 11.256 21.823728 11.256L21 11.256 21 9.385896L21 7.515792 21.834 7.507896000000001L22.668 7.5 22.8 7.437744C22.959936 7.362288 23.104224000000002 7.222104 23.183736 7.064856000000001C23.271912 6.890496 23.26908 6.6156 23.177184 6.428136C23.104056 6.279 22.978032 6.151896000000001 22.81908 6.067032C22.717968 6.013056000000001 22.699728 6.011856 21.860664 6.004872L21.005328 5.997768000000001 20.993952 5.404872C20.984208 4.897944 20.975088 4.78416 20.931024 4.62C20.753111999999998 3.956952 20.290992 3.439728 19.645944 3.181656C19.28928 3.038976 19.1586 3.017856 18.559128 3.0060000000000002L18.002232 2.9949600000000003 17.995128 2.13948C17.988144 1.3002719999999999 17.986944 1.282032 17.932968 1.18092C17.848104000000003 1.021968 17.721 0.8959440000000001 17.571863999999998 0.822816C17.3844 0.73092 17.109503999999998 0.728088 16.935144 0.8162640000000001C16.777896 0.895776 16.637712 1.0400639999999999 16.562256 1.2L16.5 1.332 16.492104 2.166L16.484208 3 14.614104000000001 3L12.744 3 12.744 2.176272C12.744 1.228248 12.740471999999999 1.2067679999999998 12.549936 0.998304C12.392280000000001 0.8257920000000001 12.238871999999999 0.7589520000000001 12 0.7586160000000001C11.709864 0.758208 11.488032 0.8888640000000001 11.332032 1.1520000000000001L11.268 1.26 11.260871999999999 2.13L11.253767999999999 3 9.384792000000001 3L7.515792 3 7.507896000000001 2.166L7.5 1.332 7.437744 1.2C7.363320000000001 1.042248 7.2220320000000005 0.895488 7.072776 0.820968C6.937944000000001 0.753624 6.700488 0.732792 6.550824 0.7752M4.936968 4.550688C4.78668 4.596888 4.652928 4.732272 4.580760000000001 4.91124L4.524 5.0520000000000005 4.524 12.036L4.524 19.02 4.581192000000001 19.13616C4.6518 19.279608 4.781568 19.376976000000003 4.98648 19.440264C5.139264 19.487448 5.221272 19.488 12.034176 19.488C19.720008 19.488 19.08948 19.50252 19.270560000000003 19.32144C19.321128 19.270872 19.38804 19.16616 19.41924 19.08876L19.476 18.948 19.476 11.964L19.476 4.98 19.418808 4.86384C19.3482 4.720392 19.218432 4.623024 19.01352 4.559736C18.860688 4.512528 18.781152 4.512024 11.95548 4.51368C5.94648 4.51512 5.037096 4.519920000000001 4.936968 4.550688M7.836 6.026376C7.626576 6.056928 7.3839120000000005 6.1354560000000005 7.177175999999999 6.239544C6.626064 6.517104 6.250848 7.013688000000001 6.064176000000001 7.712664L6.0120000000000005 7.908 6.0120000000000005 12.036L6.0120000000000005 16.164 6.066144 16.368000000000002C6.2775360000000004 17.164536 6.843864 17.703792 7.712664 17.935824L7.908 17.988 12.036 17.988L16.164 17.988 16.368000000000002 17.934408C16.4802 17.90496 16.685232 17.824968000000002 16.823664 17.756664C17.04696 17.646456 17.102591999999998 17.6052 17.317632 17.390232C17.64372 17.06424 17.805336 16.775928 17.935824 16.287336L17.988 16.092 17.988 11.964L17.988 7.836 17.933856000000002 7.632000000000001C17.821991999999998 7.210536 17.610768 6.863496 17.293775999999998 6.580368000000001C17.028312 6.343248000000001 16.72464 6.185592000000001 16.300488 6.064656L16.116 6.012072 12.048 6.008736C9.810599999999999 6.006888 7.9152000000000005 6.014832 7.836 6.026376M7.936968 7.550688000000001C7.78668 7.596888 7.652928 7.732272 7.580760000000001 7.91124L7.524 8.052 7.524 12.036L7.524 16.02 7.581192 16.13616C7.6518 16.279608 7.781568000000001 16.376976000000003 7.986479999999999 16.440264C8.138088 16.487088 8.215872 16.488 12.034176 16.488C16.381800000000002 16.488 16.092624 16.499376 16.270560000000003 16.32144C16.321128 16.270872 16.38804 16.16616 16.41924 16.08876L16.476 15.948 16.476 11.964L16.476 7.98 16.418808 7.863840000000001C16.3482 7.720392 16.218432 7.623024 16.01352 7.559736C15.861816 7.512887999999999 15.786576 7.512023999999999 11.95548 7.51368C8.588808 7.5151200000000005 8.036184 7.520208 7.936968 7.550688000000001M11.831688000000002 13.520544000000001C11.595264 13.571472 11.422632 13.715616 11.314416000000001 13.952448C11.257296 14.077464 11.251416 14.114400000000002 11.260968 14.288447999999999C11.273472 14.515920000000001 11.321688 14.628024 11.471376 14.777736C11.525976 14.832336 11.621352 14.901984000000002 11.68332 14.932488000000001L11.796 14.988 13.100520000000001 14.9946L14.405064000000001 15.001199999999999 14.54052 14.939352C14.718552 14.858064 14.845824 14.733047999999998 14.930832000000002 14.556000000000001C15.141192000000002 14.117856000000002 14.858832000000001 13.59204 14.370672 13.512816C14.152272 13.477368 12.001632 13.483920000000001 11.831688000000002 13.520544000000001" stroke="none" fill="#000" fill-rule="evenodd"></path>
</svg>
