<svg xmlns="http://www.w3.org/2000/svg" viewBox="0 0 24 24">
    <defs>
        <style>
            .a{fill:none;stroke:currentColor;stroke-linecap:round;stroke-linejoin:round;stroke-width:1.5px}
        </style>
    </defs>
    <path d="M20.25 8.249v-3a1.5 1.5 0 0 0-1.5-1.5h-4M6.25 3.749h-4a1.5 1.5 0 0 0-1.5 1.5v16.5a1.5 1.5 0 0 0 1.5 1.5h6" class="a"/>
    <path d="M14.421,4.736a.751.751,0,0,1-.712.513H7.291a.751.751,0,0,1-.712-.513l-1-3A.749.749,0,0,1,6.291.749h8.418a.749.749,0,0,1,.712.987Z" class="a"/>
    <rect width="12" height="12" x="11.25" y="11.249" class="a" rx="1.5" ry="1.5"/>
    <path d="M14.25 14.249 20.25 14.249M14.25 17.249 20.25 17.249M14.25 20.249 16.5 20.249" class="a"/>
</svg>
