<svg width="32" height="32" fill="none" xmlns="http://www.w3.org/2000/svg"><title>cube</title>
<path d="M10.267.101c-.136.063-.982.842-2.32 2.137-1.159 1.122-2.198 2.107-2.31 2.19a2.184 2.184 0 0 0-.347.338C5.099 5.015.621 9.326.392 9.482a1.056 1.056 0 0 0-.285.331C.001 10.02 0 10.122 0 20.653v10.631l.12.238c.088.174.184.27.358.358l.238.12h10.631c10.531 0 10.633-.001 10.84-.107.115-.059.264-.187.331-.285.156-.229 4.467-4.707 4.716-4.898.102-.079.254-.235.338-.347.083-.112 1.068-1.151 2.19-2.31 1.295-1.338 2.074-2.184 2.137-2.32.095-.205.099-.608.099-10.64V.667l-.12-.213a1.013 1.013 0 0 0-.332-.332l-.213-.12H20.907c-10.032 0-10.435.004-10.64.099m7.383 2.232c-.157.169-.652.685-1.1 1.147l-.814.841-3.522-.014-3.522-.014L9.867 3.16l1.174-1.133h6.894l-.285.306m9.763.841-1.147 1.147-3.858-.014-3.859-.014 1.086-1.132 1.085-1.132 3.92-.001 3.92-.001-1.147 1.147m1.414 8.932-1.147 1.147V5.734L28.813 4.6l1.134-1.134.013 3.746.014 3.747-1.147 1.147M13.126 7.027c-.355.374-.999 1.047-1.432 1.495l-.787.815-3.702-.015-3.701-.015 1.532-1.48 1.532-1.48h7.204l-.646.68m9.62.813-1.494 1.494-3.767-.014-3.768-.013 1.421-1.48 1.422-1.48h7.68L22.746 7.84m1.414 8.933-1.493 1.493v-7.519l1.48-1.48 1.48-1.481.013 3.746.014 3.747-1.494 1.494M10.347 15.52v4.16h-8.32v-8.32h8.32v4.16m10.293 0v4.16h-8.32v-8.32h8.32v4.16m9.267 5.489c-.037.052-.553.596-1.147 1.209l-1.08 1.114V16.081l1.133-1.134 1.134-1.135.013 3.551c.011 2.784 0 3.572-.053 3.646m-4.254.774v3.649l-1.48 1.532-1.48 1.532-.013-3.701-.014-3.7 1.48-1.481c.814-.814 1.486-1.481 1.494-1.481.007 0 .013 1.642.013 3.65m-15.319 4.044L10.32 30l-4.147.014-4.146.013v-8.374h8.32l-.013 4.174m10.306.013v4.187l-4.147-.013L12.347 30l-.014-4.173-.014-4.174h8.321v4.187" fill-rule="evenodd" fill="#000"/></svg>
