<svg xmlns="http://www.w3.org/2000/svg" width="24" height="24" viewBox="0 0 24 24">
  <title>shield-lock</title>
	<path d="M10.8 0.014568C8.145696000000001 0.15429600000000002 5.826336 0.655992 3.468 1.60056C2.807784 1.864992 2.6108640000000003 1.9619280000000001 2.3789759999999998 2.1366720000000003C1.9748640000000002 2.44116 1.6854 2.884224 1.5542639999999999 3.398952L1.5 3.612 1.5001440000000001 7.896C1.500264 11.77248 1.504224 12.220608 1.5417360000000002 12.606863999999998C1.6173840000000002 13.386192000000001 1.7193120000000002 13.988567999999999 1.8857519999999999 14.64C2.3645519999999998 16.513944000000002 3.211272 18.166704 4.473912 19.692C4.777872 20.059176 5.613984 20.896296 5.988 21.207864C7.308432 22.307904 8.420016 22.918704 10.542408 23.710464C11.100432 23.91864 11.506848 23.999112 12 23.999112C12.493152 23.999112 12.899568 23.91864 13.457591999999998 23.710464C15.347304000000001 23.005512 16.296167999999998 22.515384 17.460624 21.64284C20.101968 19.66356 21.890544000000002 16.649688 22.367184 13.374863999999999C22.501752 12.450263999999999 22.499712000000002 12.53496 22.499856 7.896L22.5 3.612 22.445736 3.398952C22.301424 2.83248 21.936936 2.31948 21.473592 2.030712C21.153864 1.8314400000000002 20.1 1.40988 19.128 1.092456C17.427936 0.537264 15.825528000000002 0.219792 13.908 0.058272C13.481592 0.022344000000000003 11.248704 -0.009048 10.8 0.014568M10.536 1.537488C8.152416 1.6919520000000001 5.9219040000000005 2.20968 3.744 3.114024C3.3626160000000005 3.2723999999999998 3.2575439999999998 3.336456 3.15168 3.4752479999999997C2.99028 3.6868800000000004 3 3.408096 3 7.822776C3 11.918208 3.006072 12.240192 3.096816 12.951768000000001C3.5783280000000004 16.728216 5.973336000000001 20.016863999999998 9.415296 21.62784C9.80988 21.81252 10.834992000000002 22.220112 11.28 22.369272C11.784216 22.538256 12.215784 22.538256 12.72 22.369272C13.165008 22.220112 14.19012 21.81252 14.584704 21.62784C16.892112 20.547888 18.782496000000002 18.676752 19.885896 16.380648C20.52672 15.047160000000002 20.884800000000002 13.659839999999999 20.976336 12.156C20.994096000000003 11.86404 21.00024 10.428576 20.99532 7.728L20.988 3.732 20.920536 3.5946240000000005C20.799024 3.3471840000000004 20.644920000000003 3.2579280000000006 19.728 2.904096C17.83632 2.174064 16.005384 1.7533200000000002 13.92 1.569408C13.406160000000002 1.524096 11.081064000000001 1.5021600000000002 10.536 1.537488M11.808 4.504224C10.366368000000001 4.58484 9.095688 5.477832 8.544072 6.798C8.321136000000001 7.3315920000000006 8.256984 7.713624 8.256408 8.511000000000001L8.256 9.114023999999999 8.047728000000001 9.21396C7.4005920000000005 9.524472000000001 6.964200000000001 10.068768 6.799440000000001 10.770864C6.758952 10.9434 6.756 11.129088 6.756 13.5C6.756 15.870912 6.758952 16.0566 6.799440000000001 16.229136C6.903023999999999 16.670496 7.086456 17.005896 7.3985520000000005 17.324592C7.682424 17.61444 8.051207999999999 17.828544 8.448 17.933856000000002L8.652000000000001 17.988 12 17.988L15.348 17.988 15.552 17.933856000000002C15.6642 17.904072000000003 15.847032 17.836152000000002 15.958272000000001 17.78292C16.598328 17.476608 17.0364 16.928688 17.200560000000003 16.229136C17.241048 16.0566 17.244 15.870912 17.244 13.5C17.244 11.129088 17.241048 10.9434 17.200560000000003 10.770864C17.096976 10.329504 16.913544 9.994104 16.601448 9.675408000000001C16.408368 9.478272 16.211568 9.338376 15.952272 9.21396L15.744 9.114023999999999 15.743592 8.511000000000001C15.743136000000002 7.865016000000001 15.72264 7.668864 15.612336 7.254408C15.307584 6.109392 14.415408000000001 5.138112 13.296000000000001 4.732632000000001C12.827928 4.563072 12.274560000000001 4.478136 11.808 4.504224M11.635871999999999 6.035904C10.72068 6.189935999999999 10.004976000000001 6.8750160000000005 9.802200000000001 7.791143999999999C9.779376 7.894296 9.760344 8.15136 9.751368000000001 8.478L9.737016 9 12 9L14.262984000000001 9 14.248632 8.478C14.230512 7.8186 14.188728000000001 7.615488 13.98948 7.217928000000001C13.563912 6.368904 12.583368 5.876448 11.635871999999999 6.035904M8.783856 10.534416C8.602008 10.589736 8.414424 10.754712 8.323512 10.93932L8.268 11.052 8.268 13.5L8.268 15.948 8.323896 16.061496C8.403096000000001 16.222296 8.573616 16.381680000000003 8.728463999999999 16.439616C8.855736 16.487232 8.908032 16.488 12 16.488C15.091968 16.488 15.144264 16.487232 15.271536 16.439616C15.426383999999999 16.381680000000003 15.596904 16.222296 15.676104000000002 16.061496L15.732000000000001 15.948 15.732000000000001 13.5L15.732000000000001 11.052 15.676104000000002 10.938504C15.596904 10.777704000000002 15.426383999999999 10.61832 15.271536 10.560384C15.144143999999999 10.51272 15.094608000000001 10.512024 11.993088 10.514064000000001C10.261104 10.515191999999999 8.816928 10.52436 8.783856 10.534416M11.658288 12.454608C11.295504000000001 12.570576 10.993776 12.890376000000002 10.909392 13.248336C10.81224 13.660560000000002 10.917888 14.03844 11.211504000000001 14.328912C11.651664 14.764344000000001 12.348336 14.764344000000001 12.788496000000002 14.328912C13.082111999999999 14.03844 13.18776 13.660560000000002 13.090608 13.248336C13.005263999999999 12.886248 12.702456 12.5682 12.333816 12.453479999999999C12.143784 12.394319999999999 11.845296 12.394824000000002 11.658288 12.454608" stroke="none" fill="#000" fill-rule="evenodd"></path>
</svg>
