<svg xmlns="http://www.w3.org/2000/svg" width="24" height="24" viewBox="0 0 24 24">
  <title>data-lake-level-1</title>
	<path d="M19.008 0.014232C18.9618 0.01968 18.816 0.035496 18.684 0.049368C18.036456 0.117432 17.3004 0.322632 16.761888000000003 0.585264C16.054488 0.9302640000000001 15.55524 1.38192 15.299760000000001 1.9080000000000001C15.091944000000002 2.335968 15.108 2.0183999999999997 15.108 5.7L15.108 8.964 15.1632 9.154632C15.454488000000001 10.160688 16.562736 10.961736 18.084 11.265816C18.463392 11.341656 18.812568 11.3772 19.32 11.391648C20.814024 11.434175999999999 22.054944000000003 11.113752 22.98 10.4466C23.170416 10.309272 23.454408 10.030968 23.586768000000003 9.852C23.775792 9.596376 23.964816 9.161808 23.981904 8.94348C23.985167999999998 8.90196 23.993304000000002 11.071200000000001 24 13.764000000000001L24.012168 18.66 24.014952 13.32C24.016488000000003 10.383000000000001 24.010392 6.727200000000001 24.001416 5.196C23.98296 2.05416 24.000144 2.3160960000000004 23.784264 1.883352C23.598696 1.511352 23.249856 1.135032 22.836000000000002 0.860472C22.611912 0.7117920000000001 22.048896 0.44364 21.740351999999998 0.33864C21.100392 0.12084 20.488584 0.024048 19.68 0.012624000000000002C19.3566 0.008064 19.054199999999998 0.008808 19.008 0.014232M19.008 1.526784C18.492048 1.5894 18.22152 1.64556 17.844 1.7684640000000003C17.12856 2.001408 16.610664 2.4171839999999998 16.608528 2.76036C16.607832000000002 2.870928 16.682208 3.008544 16.820304 3.1522319999999997C17.197416 3.5446320000000004 18.011352 3.8605199999999997 18.900000000000002 3.9593520000000004C19.204608 3.993216 19.887144 3.993888 20.184 3.960624C21.126456 3.8549280000000006 21.896688 3.5532239999999997 22.291128 3.135216C22.571544 2.8380240000000003 22.555560000000003 2.60652 22.23384 2.30556C21.968424 2.05728 21.6234 1.879776 21.096 1.7202C20.619888 1.576152 20.297352 1.532184 19.656 1.52388C19.3458 1.5198720000000001 19.054199999999998 1.521192 19.008 1.526784M16.612704 5.374104L16.62 5.898312000000001 16.714296 6.0351360000000005C17.020104 6.47892 17.8728 6.845904 18.863376000000002 6.960071999999999C19.156176 6.9938400000000005 19.939824 6.9938400000000005 20.232623999999998 6.960071999999999C21.318984 6.8348640000000005 22.252584000000002 6.396960000000001 22.452336 5.918880000000001C22.479936 5.852808 22.488 5.722584 22.488 5.342328L22.488 4.85112 22.29 4.9430879999999995C21.696648000000003 5.218656 20.970072000000002 5.40516 20.229912000000002 5.471856C19.89168 5.502336000000001 19.201248 5.50152 18.864 5.470224C18.105024 5.399832 17.41212 5.222040000000001 16.804704 4.94184L16.605408 4.849896 16.612704 5.374104M0.550824 6.776280000000001C0.34500000000000003 6.83256 0.17474399999999998 6.974615999999999 0.072144 7.175712C0.02436 7.269408 0.024 7.311599999999999 0.024 13.0014L0.024 18.73272 0.074328 18.82836C0.144504 18.961752 0.29467200000000005 19.1106 0.427608 19.178544L0.54 19.236 2.203656 19.24248C3.293928 19.246728 3.8990400000000003 19.240416 3.9594240000000003 19.224144C4.214952 19.155336000000002 4.441368 18.897936 4.487328000000001 18.624C4.505832 18.513672 4.51152 16.837439999999997 4.506744 12.9L4.5 7.332 4.437744 7.2C4.362480000000001 7.040448 4.222536 6.896208 4.064856 6.815688000000001L3.948 6.756 2.3040000000000003 6.751224C1.05516 6.7475760000000005 0.633768 6.7536 0.550824 6.776280000000001M16.608 8.296152000000001C16.608 8.817648 16.619232 8.856864 16.829544 9.06864C17.231832 9.47376 17.988984000000002 9.765144 18.893064 9.862824000000002C19.230408 9.899280000000001 19.931136000000002 9.893712 20.292144 9.851735999999999C21.112152000000002 9.756384 21.86712 9.463752 22.245552 9.094608000000001C22.472592 8.873136 22.488 8.823 22.488 8.305848000000001C22.488 7.9637519999999995 22.481376 7.869719999999999 22.458000000000002 7.879824000000001C22.441512 7.886952 22.316736000000002 7.941744 22.180775999999998 8.001576C21.718464 8.205048 21.188328 8.35032 20.580000000000002 8.440248C20.350464000000002 8.474184000000001 20.13852 8.48268 19.536 8.482104C18.876432 8.481456 18.736392 8.474592 18.438072000000002 8.428152C17.811384 8.330616 17.224728 8.156688 16.794 7.940712L16.608 7.847472000000001 16.608 8.296152000000001M1.512 12.996L1.512 17.736 2.2560000000000002 17.736L3 17.736 3 12.996L3 8.256 2.2560000000000002 8.256L1.512 8.256 1.512 12.996M6.4855920000000005 10.792032C6.35088 10.839696 6.146256 11.029128 6.071616000000001 11.175288L6.0120000000000005 11.292 6.0120000000000005 15L6.0120000000000005 18.708000000000002 6.068016 18.816C6.142584 18.95976 6.289632 19.108032 6.427608 19.178544L6.54 19.236 8.203656 19.24248C9.293928000000001 19.246728 9.89904 19.240416 9.959424 19.224144C10.209552 19.1568 10.440048 18.898680000000002 10.486416 18.634032C10.522704000000001 18.427008 10.521984 11.569248 10.485672000000001 11.360736C10.440384 11.100744 10.212744 10.845792000000001 9.964248000000001 10.776792C9.907848 10.76112 9.282864 10.752912 8.232 10.75404C6.8302320000000005 10.755528 6.572903999999999 10.76112 6.4855920000000005 10.792032M7.5120000000000005 15L7.5120000000000005 17.736 8.256 17.736L9 17.736 9 15L9 12.264000000000001 8.256 12.264000000000001L7.5120000000000005 12.264000000000001 7.5120000000000005 15M12.527856000000002 14.278416C12.346008000000001 14.333736000000002 12.158424 14.498712000000001 12.067512 14.683319999999998L12.012 14.796000000000001 12.012 16.752L12.012 18.708000000000002 12.068016 18.816C12.142584 18.95976 12.289632 19.108032 12.427608000000001 19.178544L12.540000000000001 19.236 14.203655999999999 19.24248C15.293928 19.246728 15.899040000000001 19.240416 15.959424 19.224144C16.209552000000002 19.1568 16.440048 18.898680000000002 16.486416 18.634032C16.522032 18.430848 16.521432 15.059832000000002 16.485768 14.866895999999999C16.471344000000002 14.788824 16.44372 14.694408000000001 16.424400000000002 14.65704C16.358208 14.529048 16.211952 14.392488 16.068 14.324280000000002L15.924 14.256048 14.256 14.258088C13.3386 14.259216 12.560927999999999 14.26836 12.527856000000002 14.278416M13.512 16.740000000000002L13.512 17.736 14.256 17.736L15 17.736 15 16.740000000000002L15 15.744 14.256 15.744L13.512 15.744 13.512 16.740000000000002M4.955832 21.047544000000002C4.877496000000001 21.07848 4.756344 21.167352 4.607832 21.302856000000002C4.079184000000001 21.78516 3.635832 22.057824 3.0744480000000003 22.245888C2.57976 22.411632 2.205 22.462656 1.296 22.488048C0.9066 22.498920000000002 0.561 22.516032 0.528 22.526064C0.418176 22.559496000000003 0.24244800000000002 22.682016 0.16617600000000002 22.778304000000002C-0.146472 23.173032 -0.0038640000000000002 23.727768 0.46533599999999997 23.942040000000002L0.606672 24.006576 1.305336 23.992704C2.0414640000000004 23.978112 2.309304 23.957088 2.7600000000000002 23.878536C3.6152159999999998 23.729471999999998 4.314408 23.425800000000002 5.105112 22.859952000000003L5.230248 22.770432 5.405112 22.901927999999998C6.387887999999999 23.640984000000003 7.437672000000001 24 8.616 24C9.333768 24 10.011936 23.864208 10.639872 23.594784C11.070599999999999 23.409959999999998 11.366448 23.237904 11.790000000000001 22.92588L12 22.771176 12.21 22.92588C13.058928 23.551272 13.880784 23.877576 14.852544 23.975064C16.204344000000003 24.110688 17.457528 23.751048 18.594888 22.901112L18.769752 22.770432 18.894888 22.859952000000003C19.685592 23.425800000000002 20.384784 23.729471999999998 21.240000000000002 23.878536C21.690696 23.957088 21.958536 23.978112 22.694664 23.992704L23.393328 24.006576 23.534664 23.942040000000002C23.722656 23.856192 23.843616 23.73516 23.942448 23.53404C24.009384 23.39784 24.024 23.340552000000002 24.024 23.214624C24.024 23.130216 24.014808 23.066856 24.003552000000003 23.073792C23.99232 23.080752 23.970768000000003 23.045208 23.955672 22.994808C23.899896 22.808616 23.670792000000002 22.586592 23.472 22.526064C23.439 22.516032 23.093400000000003 22.498920000000002 22.704 22.488048C22.287672 22.476408000000003 21.882312000000002 22.452072 21.72 22.428936C20.786472 22.29588 20.135448 21.980976000000002 19.39224 21.302927999999998C19.11396 21.049032 18.98628 20.991312 18.732 21.004392C18.508776 21.015888 18.386304 21.078576 18.139104000000003 21.307944C17.740728 21.677592 17.443032 21.8898 17.028 22.100016C15.972576 22.634591999999998 14.676167999999999 22.615872 13.644 22.051152000000002C13.255991999999999 21.838848 13.028376000000002 21.672432 12.638832 21.316152C12.354528000000002 21.056184000000002 12.261768 21.012 12 21.012C11.742072 21.012 11.642184 21.057912 11.383992000000001 21.295152C10.479432 22.126272 9.637176 22.488 8.60664 22.488C7.603224 22.488 6.726719999999999 22.111296 5.860896 21.307944C5.751384 21.206352 5.610984 21.098352 5.548896 21.067992C5.392152 20.991288 5.121864 20.981976 4.955832 21.047544000000002M0.008064 23.256C0.008064 23.355 0.012312 23.395512 0.017472 23.346C0.022656 23.296512 0.022656 23.215512 0.017472 23.166C0.012312 23.116512 0.008064 23.157 0.008064 23.256" stroke="none" fill="#000" fill-rule="evenodd"></path>
</svg>
