<svg xmlns="http://www.w3.org/2000/svg" width="24" height="24" viewBox="0 0 24 24">
  <title>data-lake-diagram-2</title>
	<path d="M20.208000000000002 0.035856C19.741751999999998 0.09259200000000001 19.251408 0.23644800000000002 18.872784 0.42756000000000005C18.372888 0.67992 17.952552 1.1057759999999999 17.797944 1.516536C17.690160000000002 1.802856 17.684352 1.9334879999999999 17.692800000000002 3.876L17.700744 5.7 17.76612 5.893872C18.113447999999998 6.923976000000001 19.558632 7.597008 21.187968 7.487448C21.80892 7.4456880000000005 22.321536 7.311672000000001 22.803816 7.064976000000001C23.389608 6.7653360000000005 23.7786 6.363312 23.930016 5.9010240000000005L23.988 5.724 23.988 3.744L23.988 1.764 23.929416 1.58604C23.779632 1.1310959999999999 23.390808 0.72432 22.830816 0.436656C22.117224 0.07012800000000001 21.146112 -0.078264 20.208000000000002 0.035856M20.316 1.538616C19.934664 1.5935519999999999 19.46508 1.782696 19.291344000000002 1.9513200000000002L19.19496 2.0448239999999998 19.28748 2.140344C19.402296 2.258856 19.746288 2.4300960000000003 19.9998 2.49492C20.540208 2.633136 21.282648000000002 2.6232480000000002 21.78 2.471232C22.110504 2.370216 22.488 2.1471839999999998 22.488 2.052912C22.488 2.002824 22.309824000000003 1.8556799999999998 22.153752 1.7768880000000002C21.945624 1.6718160000000002 21.688248 1.5907200000000001 21.429984 1.54884C21.184056 1.508952 20.561424 1.50324 20.316 1.538616M13.470768000000001 3.00264C13.3254 3.0585120000000003 13.155888000000001 3.2133360000000004 13.075872 3.3632880000000003L13.02 3.468 13.008000000000001 7.356L12.996 11.244 12.012 11.256C11.048208 11.26776 11.025912 11.269104 10.926672 11.322144C10.696704 11.445024 10.558752 11.626128000000001 10.515048 11.862456C10.452864 12.198936 10.608912 12.508056 10.926672 12.677856C11.025912 12.730896 11.048208 12.732240000000001 12.012 12.744L12.996 12.756 13.008000000000001 16.644000000000002L13.02 20.532 13.075872 20.636712000000003C13.158408000000001 20.791415999999998 13.324992 20.94144 13.477608 20.998535999999998C13.604280000000001 21.045936 13.657319999999999 21.048000000000002 14.748648000000001 21.048000000000002C15.814584000000002 21.048000000000002 15.895272 21.045047999999998 16.00908 21.001800000000003C16.295784 20.892864 16.490016 20.621328 16.493088 20.325143999999998C16.495968 20.046408000000003 16.4034 19.857504 16.180704000000002 19.687656C16.016016 19.56204 15.959304000000001 19.553664 15.197928 19.542216L14.495832000000002 19.53168 14.501928 16.14384L14.508000000000001 12.756 15.24 12.744C15.941808 12.732503999999999 15.976176 12.729768000000002 16.073328 12.677856C16.305 12.554064 16.447392 12.365687999999999 16.483536 12.135144C16.538352 11.78568 16.389768 11.491248 16.073328 11.322144C15.976176 11.270232 15.941808 11.267496 15.24 11.256L14.508000000000001 11.244 14.501928 7.856159999999999L14.495832000000002 4.46832 15.197928 4.457784C15.64608 4.45104 15.932328 4.436904 15.989400000000002 4.418664C16.182552 4.356912 16.413864 4.1196 16.466687999999998 3.928992C16.574904 3.538392 16.37832 3.1385039999999997 16.00908 2.9982C15.895056 2.95488 15.81624 2.9520720000000003 14.741736000000001 2.9532480000000003C13.6542 2.954448 13.589640000000001 2.956944 13.470768000000001 3.00264M19.2 4.633944L19.2 5.446224 19.300512 5.5428C19.511808 5.745816 19.993536 5.921208 20.496 5.97804C21.202848 6.057984 22.041456 5.869848 22.39272 5.5524960000000005L22.488 5.466408 22.488 4.653216C22.488 4.205952 22.479912000000002 3.840144 22.47 3.8403120000000004C22.460088 3.8404800000000003 22.36896 3.867144 22.26744 3.899568C21.438048 4.164456 20.282208 4.1651039999999995 19.45044 3.901152L19.2 3.8216639999999997 19.2 4.633944M3.9 6.578928C2.14488 6.712992000000001 0.736224 7.30224 0.23505600000000001 8.112C0.173784 8.211 0.09852000000000001 8.3622 0.06782400000000001 8.448L0.012 8.604000000000001 0.012 12.108L0.012 15.612 0.074952 15.773807999999999C0.10956000000000002 15.862775999999998 0.17436 15.997656 0.21895199999999998 16.073496000000002C0.32939999999999997 16.26144 0.6708480000000001 16.600776 0.9018 16.752144C1.594272 17.205984 2.6568 17.518464 3.8384880000000003 17.615784C4.30056 17.653848 5.291976 17.648544 5.76 17.605512C7.2168719999999995 17.471544 8.390016000000001 17.038536 9.01092 16.405608C9.227832 16.184496000000003 9.333576 16.021704 9.427704 15.764040000000001L9.492 15.588000000000001 9.492 12.108L9.492 8.628 9.437712 8.472C9.255144 7.947336000000001 8.838336 7.536288 8.151096 7.20324C7.454496 6.865656 6.5685839999999995 6.651888 5.556 6.577032C5.1690000000000005 6.548424 4.286112 6.5494319999999995 3.9 6.578928M3.7985279999999997 8.101368C2.827752 8.207304 1.980792 8.481048000000001 1.599504 8.812128000000001L1.5070080000000001 8.892456000000001 1.575504 8.961936C1.750728 9.13968 2.117976 9.320064 2.604 9.467136C3.9217440000000003 9.865896000000001 5.905056 9.833184000000001 7.128 9.392544000000001C7.563096000000001 9.235776000000001 7.968 8.994912000000001 7.968 8.892888C7.968 8.846928 7.741008 8.681712000000001 7.539768 8.581176C7.053384 8.3382 6.447024 8.182008 5.670264 8.099568000000001C5.257752 8.055792 4.20696 8.056799999999999 3.7985279999999997 8.101368M20.256 8.378592000000001C19.011984 8.519400000000001 18.036839999999998 9.136272 17.769648 9.95148L17.7 10.164 17.7 12.108L17.7 14.052 17.774040000000003 14.258832000000002C18.063552 15.06744 19.007616000000002 15.662736 20.244 15.816287999999998C20.554776 15.854904 21.228024 15.849024 21.54 15.805008C22.729848 15.637104 23.651544 15.040296 23.932176 14.256L23.988 14.1 23.995128 12.192C24.000024 10.878143999999999 23.994 10.236096 23.975736 10.130136C23.847936 9.388008 23.084088 8.741496 22.031328 8.48448C21.542304 8.36508 20.778096 8.319504 20.256 8.378592000000001M20.244 9.901128000000002C19.852584 9.973968 19.474272 10.131216 19.297536 10.294488000000001L19.191096 10.392840000000001 19.285536 10.490352C19.401384 10.60992 19.73808 10.77588 20.004 10.844496C20.51676 10.976784 21.173184 10.977912 21.6882 10.847352C22.021128 10.762944000000001 22.488 10.50432 22.488 10.404312C22.488 10.345632 22.287432000000003 10.192872 22.087224000000003 10.099056C21.976488 10.047144 21.781056 9.977136 21.652944 9.94344C21.447456 9.889416 21.362016 9.881207999999999 20.928 9.873792C20.563776 9.8676 20.386128 9.87468 20.244 9.901128000000002M1.512 12.9912L1.512 15.307560000000002 1.63248 15.415872C1.8435840000000001 15.605664 2.384616 15.831959999999999 2.9362559999999998 15.961152C3.943992 16.197192 5.377872 16.20624 6.453431999999999 15.983376000000002C7.068408 15.855936 7.625424 15.6306 7.880544 15.406032L7.992 15.307920000000001 7.992 12.99396C7.992 11.721288 7.987488000000001 10.68 7.981992000000001 10.68C7.976496 10.68 7.922352 10.701264 7.86168 10.72728C6.621840000000001 11.258735999999999 4.488672 11.405016 2.82 11.073024C2.384352 10.986336 1.92156 10.847256 1.554 10.692552000000001C1.5141600000000002 10.675776 1.512 10.794431999999999 1.512 12.9912M19.2 12.982536L19.2 13.792008000000001 19.29 13.882319999999998C19.406688 13.999392 19.80276 14.190192000000001 20.061192000000002 14.253792C20.587128 14.383224000000002 21.233952000000002 14.373624 21.732 14.229000000000001C21.960192000000003 14.16276 22.262256 14.014488 22.386 13.908024L22.488 13.820256000000002 22.488 12.998351999999999L22.488 12.176472 22.314 12.235272C22.03812 12.328488 21.618336 12.40608 21.222144 12.437040000000001C20.612544 12.484704 19.944192 12.412392 19.411800000000003 12.241176L19.2 12.173064 19.2 12.982536M20.472 16.511448C19.21632 16.5996 18.199368 17.142984000000002 17.843376000000003 17.916C17.695992 18.235992 17.7 18.17076 17.7 20.256C17.7 22.003968 17.703552000000002 22.17684 17.742264 22.317024C17.981496 23.182824 19.032072000000003 23.848560000000003 20.364 23.978352C20.741400000000002 24.015144 21.34008 23.993280000000002 21.706344 23.92932C22.667616000000002 23.761488 23.512512 23.246616000000003 23.8242 22.638696C24.006287999999998 22.283568 24.00264 22.336464000000003 23.994888000000003 20.172C23.988024 18.259272 23.987808 18.2514 23.934624 18.096C23.708304000000002 17.434392 23.00712 16.888488000000002 22.071552 16.645560000000003C21.623976000000003 16.529352 20.982864 16.475592 20.472 16.511448M20.42028 18.025584000000002C19.966920000000002 18.081888000000003 19.515912 18.249744 19.304976 18.440736L19.192872 18.542208 19.268208 18.628008C19.355688 18.727656 19.607568 18.866232 19.852800000000002 18.949632C20.528448 19.179432000000002 21.528624 19.130976 22.116096000000002 18.839952C22.332792 18.7326 22.498920000000002 18.584400000000002 22.474344000000002 18.520368C22.45488 18.469632 22.271664 18.33564 22.116 18.258288C21.957216000000003 18.1794 21.723888000000002 18.103848 21.503304 18.059904C21.277872 18.014976 20.662728 17.995488 20.42028 18.025584000000002M19.2 21.138648L19.2 21.954408 19.290864 22.036512000000002C19.493904 22.219944 19.877112 22.378968 20.28924 22.450848C20.563848 22.498728 21.111696000000002 22.498896 21.405984 22.45116C21.806832 22.386143999999998 22.223616 22.214448 22.402656 22.040592L22.488 21.957696000000002 22.488 21.142848C22.488 20.694672 22.484496 20.328 22.4802 20.328C22.475904 20.328 22.394472 20.35452 22.299216 20.386896C22.070232 20.464776 21.7416 20.534112 21.434712 20.569272C21.103656 20.607192 20.268456 20.586816 19.98 20.533776C19.79112 20.499024 19.363512 20.386272 19.242 20.33916C19.202496 20.323824000000002 19.2 20.371512 19.2 21.138648" stroke="none" fill="#000" fill-rule="evenodd"></path>
</svg>
