<svg xmlns="http://www.w3.org/2000/svg" width="24" height="24" viewBox="0 0 24 24">
  <title>analytics-net</title>
	<path d="M1.836 0.02652C1.6269600000000002 0.056808000000000004 1.384152 0.135312 1.177176 0.239544C0.626064 0.517104 0.250848 1.0136880000000001 0.064176 1.7126640000000002L0.012 1.9080000000000001 0.012 12.036L0.012 22.164 0.066144 22.368000000000002C0.277536 23.164536 0.8438640000000001 23.703792 1.7126640000000002 23.935824L1.9080000000000001 23.988 12.036 23.988L22.164 23.988 22.368000000000002 23.934408C22.4802 23.90496 22.682472 23.826336 22.817496000000002 23.759712C23.017176 23.661216 23.103144 23.6004 23.27808 23.433936C23.396376 23.321352 23.53104 23.172192000000003 23.577312000000003 23.102448C23.768352 22.814664 23.934383999999998 22.394351999999998 23.967144 22.115664C23.975568 22.043904 23.991816 21.990936 24.00324 21.997992C24.014904 22.005216 24.024 17.628984000000003 24.024 12.002832C24.024 5.356728 24.015936 1.98984 24 1.98C23.986800000000002 1.97184 23.976 1.9297440000000001 23.976 1.886424C23.976 1.7518319999999998 23.883912000000002 1.437216 23.782128 1.224C23.508816 0.651576 23.021664 0.27036000000000004 22.300488 0.06463200000000001L22.116 0.012 12.048 0.008832C6.451512 0.007056 1.91604 0.014928 1.836 0.02652M1.9369679999999998 1.5506879999999998C1.7866799999999998 1.596888 1.652928 1.732272 1.58076 1.9112400000000003L1.524 2.052 1.517712 5.5440000000000005C1.514256 7.4646 1.514256 9.514944 1.517712 10.100304L1.524 11.164584 3.96 9.215928C5.299799999999999 8.144136 6.477 7.213512 6.5760000000000005 7.147848C7.240512 6.707064000000001 8.076264 6.494327999999999 8.911944 6.5532C9.615528 6.602784 9.685080000000001 6.631104 12.255023999999999 7.915248000000001C13.798656 8.686584 14.534208 9.041664 14.694912 9.093143999999999C15.320927999999999 9.293688000000001 16.066872 9.198960000000001 16.576488 8.854248C16.640016 8.811264000000001 17.99652 7.733232000000001 19.590912 6.458592L22.489824000000002 4.14108 22.482912000000002 3.060552L22.476 1.98 22.418808 1.86384C22.3482 1.7203920000000001 22.218432 1.6230240000000002 22.01352 1.5597360000000002C21.860232 1.5124080000000002 21.775728 1.512024 11.95548 1.5136800000000001C3.3041760000000004 1.51512 2.037456 1.519824 1.9369679999999998 1.5506879999999998M0.01188 12.024000000000001C0.01188 17.535 0.01464 19.789512 0.018000000000000002 17.034C0.02136 14.278512 0.02136 9.769512 0.018000000000000002 7.014C0.01464 4.258512 0.01188 6.513 0.01188 12.024000000000001M20.03256 8.037984C18.701856 9.104064000000001 17.530056 10.030992000000001 17.42856 10.097832C17.214216 10.238976000000001 16.876704 10.410912 16.662 10.488336L16.512 10.542432 16.512 12.015216L16.512 13.488 19.5 13.488L22.488 13.488 22.488 9.792C22.488 7.759200000000001 22.479912000000002 6.096816 22.47 6.097824C22.460088 6.098832 21.36324 6.971903999999999 20.03256 8.037984M9 10.788L9 13.488 12 13.488L15 13.488 15 12.096456L15 10.704912 14.946 10.694016C14.916312000000001 10.688016000000001 14.793576 10.666272 14.673288 10.645704C14.2212 10.568328 14.077464 10.5042 11.730264 9.332616C9.626256 8.282447999999999 9.206088 8.088000000000001 9.040752 8.088000000000001C9.002664 8.088000000000001 9 8.263824000000001 9 10.788M7.259544 8.514456000000001C7.141007999999999 8.603832 5.7993120000000005 9.67308 4.2780000000000005 10.890576L1.512 13.104216000000001 1.512 13.29612L1.512 13.488 4.5 13.488L7.488 13.488 7.488 10.92C7.488 9.5076 7.485096 8.352 7.481544 8.352C7.478016 8.352 7.3781039999999996 8.425104 7.259544 8.514456000000001M1.512 16.5L1.512 18 4.5 18L7.488 18 7.488 16.5L7.488 15 4.5 15L1.512 15 1.512 16.5M9 16.5L9 18 12 18L15 18 15 16.5L15 15 12 15L9 15 9 16.5M16.512 16.5L16.512 18 19.5 18L22.488 18 22.488 16.5L22.488 15 19.5 15L16.512 15 16.512 16.5M1.517184 20.766000000000002L1.524 22.02 1.581192 22.13616C1.6518000000000002 22.279608 1.781568 22.376976000000003 1.98648 22.440264C2.136864 22.486704 2.213664 22.488 4.81452 22.488L7.488 22.488 7.488 21L7.488 19.512 4.4991840000000005 19.512L1.5103680000000002 19.512 1.517184 20.766000000000002M9 21L9 22.488 12 22.488L15 22.488 15 21L15 19.512 12 19.512L9 19.512 9 21M16.512 21L16.512 22.488 19.219632 22.488C22.249128000000002 22.488 22.095624 22.496376 22.270560000000003 22.32144C22.321128 22.270872 22.38804 22.16616 22.41924 22.08876C22.475976 21.948072 22.476 21.947352 22.48284 20.73L22.48968 19.512 19.50084 19.512L16.512 19.512 16.512 21" stroke="none" fill="#000" fill-rule="evenodd"></path>
</svg>
