<svg xmlns="http://www.w3.org/2000/svg" width="24" height="24" viewBox="0 0 24 24">
  <title>presentation-board-graph</title>
	<path d="M2.652 0.016848C1.655544 0.153576 0.9591120000000001 0.8562 0.7803360000000001 1.905144C0.748464 2.092056 0.744 2.964696 0.7440720000000001 8.997143999999999C0.74412 13.777248 0.75204 15.941904 0.7700880000000001 16.092C0.8779680000000001 16.990199999999998 1.4850480000000001 17.666232 2.413704 17.922287999999998L2.652 17.988 6.954 17.994456L11.256 18.000888 11.256 18.966192000000003L11.256 19.931472 9.817224 21.371736000000002C8.215296 22.975296 8.256696 22.925856 8.25624 23.237088C8.255784 23.541096 8.414712 23.800224 8.682504 23.932104000000002C8.846568000000001 24.012912 9.153912 24.012072 9.324 23.930352C9.417792 23.88528 9.722976000000001 23.594664 10.722 22.599072000000003L12 21.32544 13.278 22.599072000000003C14.277023999999999 23.594664 14.582208 23.88528 14.676 23.930352C14.846088 24.012072 15.153432 24.012912 15.317496000000002 23.932104000000002C15.585287999999998 23.800224 15.744216000000002 23.541096 15.74376 23.237088C15.743304 22.925856 15.784704000000001 22.975296 14.182775999999999 21.371736000000002L12.744 19.931472 12.744 18.966168L12.744 18.000888 17.082 17.993976L21.42 17.987064 21.619632 17.93352C22.486824000000002 17.70084 23.063112 17.03676 23.218704000000002 16.090896C23.254584 15.872712000000002 23.257296 15.24576 23.249928 8.856C23.242536 2.43324 23.238623999999998 1.8470160000000002 23.202024 1.701456C23.102256 1.3044 22.945968 1.001568 22.705584 0.739392C22.418664 0.42650400000000005 22.040544 0.202968 21.586296 0.077712L21.348 0.012 12.036 0.00948C6.9144000000000005 0.008112000000000001 2.6916 0.011424 2.652 0.016848M2.686632 1.549056C2.489712 1.609728 2.341656 1.8067440000000001 2.281608 2.088C2.2602960000000003 2.187792 2.255184 3.9010320000000003 2.260704 9.108L2.2680000000000002 15.996 2.334216 16.128C2.414976 16.288992 2.527416 16.377528 2.730888 16.440383999999998C2.8835040000000003 16.48752 2.976984 16.488 12.03252 16.487856C18.520680000000002 16.48776 21.207192000000003 16.480176 21.273552000000002 16.461768000000003C21.474144 16.406064 21.60864 16.266264 21.687816 16.031208C21.73032 15.904968 21.732 15.637056 21.732 8.952L21.732 2.004 21.665784 1.872C21.585024 1.711008 21.472584 1.622472 21.269112 1.559616C21.116448 1.512456 21.025199999999998 1.512024 11.95548 1.5136800000000001C4.16196 1.515096 2.77968 1.520376 2.686632 1.549056M19.248 5.2928880000000005C19.1886 5.31132 19.097904 5.361288 19.046447999999998 5.403888C18.994968 5.446512 18.369648 6.210960000000001 17.6568 7.10268C16.943952000000003 7.994400000000001 16.357008 8.72844 16.352496000000002 8.733864C16.34796 8.739288 15.952704 8.48316 15.474143999999999 8.16468C14.995560000000001 7.8462000000000005 14.560800000000002 7.567152 14.508000000000001 7.544592000000001C14.372304 7.486608 14.108616000000001 7.491840000000001 13.963920000000002 7.555416000000001C13.737336 7.654944 13.695984000000001 7.713288 12.835464000000002 9.147696L12.017088 10.511856000000002 10.816008 8.410224C10.024944000000001 7.026 9.583584 6.277248000000001 9.523128000000002 6.216768C9.371616 6.0652800000000004 9.237767999999999 6.0131760000000005 9 6.0131760000000005C8.832504 6.0131760000000005 8.774712000000001 6.02364 8.677007999999999 6.071568C8.443344 6.186264 8.424456000000001 6.217008 7.704672 7.655088L7.03152 9 5.700648 9C4.42128 9 4.36476 9.001896 4.23936 9.048792C3.7284720000000005 9.239952 3.5879280000000002 9.894504000000001 3.9747120000000002 10.281288C4.0260240000000005 10.3326 4.1274 10.4028 4.2 10.437288L4.332 10.5 6 10.5L7.668 10.5 7.8020640000000006 10.43712C8.040864000000001 10.325136 8.075016 10.273704 8.577 9.270024L9.040632 8.343 9.137328 8.509488000000001C9.190512 8.601072 9.718224 9.523608000000001 10.309968 10.559592C11.06652 11.884032000000001 11.415384000000001 12.472655999999999 11.4852 12.542448C11.69364 12.750888000000002 12.057768 12.80724 12.327 12.67272C12.405456000000001 12.633503999999999 12.498096 12.571392 12.532872 12.53472C12.567648000000002 12.498024 13.021656 11.758392 13.54176 10.891104L14.487432000000002 9.314208 15.301248000000001 9.856896C15.748848 10.155384000000002 16.16292 10.420752 16.221408 10.446624C16.4238 10.536168 16.720824 10.50444 16.917552 10.37232C17.058816 10.277448 20.139648 6.426456 20.200536 6.268631999999999C20.268024 6.093768000000001 20.257535999999998 5.84868 20.175408 5.6808C20.094888 5.516256 19.911863999999998 5.346096 19.759584 5.294208C19.623744 5.247936 19.394688 5.247336000000001 19.248 5.2928880000000005" stroke="none" fill="#000" fill-rule="evenodd"></path>
</svg>
