<svg xmlns="http://www.w3.org/2000/svg" width="24" height="24" viewBox="0 0 24 24">
  <title>tools-box</title>
	<path d="M9.288 0.047184000000000004C9.029568000000001 0.103464 8.912664 0.146208 8.692752 0.26484C8.11932 0.574128 7.723848 1.08504 7.556304 1.732944C7.507584 1.9213680000000002 7.504272 2.000208 7.494288 3.21L7.483728 4.488 5.631864 4.48836C3.686424 4.48872 3.2496240000000003 4.5039359999999995 2.8488 4.585224C2.085 4.740144 1.443456 5.105976 0.94956 5.6682239999999995C0.470136 6.2140320000000004 0.139944 6.995280000000001 0.025056000000000002 7.855728C-0.009384 8.113728 -0.009408 20.470344 0.025032 20.771016C0.17575200000000002 22.08684 0.880176 23.078856000000002 2.04 23.608728C2.2965359999999997 23.725920000000002 2.6643600000000003 23.845008 3.005544 23.921328L3.3000000000000003 23.987184 11.892 23.994312C17.518968 23.998968 20.568216 23.993112 20.728008000000003 23.977344000000002C22.40568 23.811648 23.564544 22.72608 23.915832 20.99112C23.948928 20.82768 23.976768 20.65752 23.977680000000003 20.612976C23.979072000000002 20.545920000000002 23.982912000000002 20.540256000000003 24 20.580000000000002C24.028536 20.646408 24.030264 8.021472000000001 24.001728 7.8903360000000005C23.989488 7.8340559999999995 23.957352 7.6446 23.930352 7.469352000000001C23.677848 5.831616 22.378848 4.705344 20.52 4.51248C20.391168 4.499112 19.470816 4.4886479999999995 18.404016 4.488408L16.516008 4.488 16.505424 3.222C16.493712000000002 1.8225840000000002 16.490472 1.788504 16.332192000000003 1.397568C16.174319999999998 1.00764 15.847488 0.607992 15.496584 0.375792C15.310535999999999 0.252696 15.038687999999999 0.129096 14.812752 0.06489600000000001C14.628432000000002 0.012528000000000001 14.621927999999999 0.012384000000000001 12.06 0.0075840000000000005C9.639792 0.003024 9.480264 0.0053040000000000006 9.288 0.047184000000000004M9.485592 1.552032C9.340656000000001 1.6033200000000003 9.13836 1.796424 9.069168 1.9495200000000001L9.012 2.076 9.004968 3.282L8.997912000000001 4.488 12 4.488L15.002088 4.488 14.995032 3.282L14.988 2.076 14.930832000000002 1.9495200000000001C14.859048 1.7906879999999998 14.658528000000002 1.603008 14.504567999999999 1.550544C14.403504 1.5161040000000001 14.135376 1.5121920000000002 11.989728 1.5138960000000001C9.912384000000001 1.515528 9.574176 1.520688 9.485592 1.552032M3.396288 6.026568C3.13572 6.053976 2.815752 6.149328 2.582112 6.269184C2.434992 6.34464 2.338512 6.4185360000000005 2.18364 6.574368000000001C1.885488 6.8743680000000005 1.730472 7.161432 1.5875519999999999 7.678224L1.524 7.908 1.516728 14.208C1.5114 18.817608 1.516752 20.556288 1.5366720000000003 20.688C1.681704 21.646728 2.2704 22.223208 3.326256 22.440456C3.553992 22.487328 3.678648 22.488 12.05664 22.487976C19.403688 22.487928 20.582040000000003 22.483176 20.748 22.452912C21.68412 22.28208 22.226952 21.711456000000002 22.440456 20.673744C22.487136000000003 20.446944000000002 22.488 20.328792 22.487928 14.19936C22.487832 7.322136 22.497312 7.763256 22.340256 7.329192C22.139688 6.774864 21.685992 6.3636479999999995 21.048000000000002 6.1579440000000005C20.517744 5.986968 21.261768 5.99964 11.965776 6.003192C7.357992000000001 6.004944 3.5017440000000004 6.015456 3.396288 6.026568M11.624640000000001 6.777792000000001C11.401752 6.820392 11.303664 6.853056 11.102328 6.951792C10.885296 7.058208 10.677288 7.2090000000000005 10.503048 7.386216C10.201992 7.692431999999999 10.096392 7.916568000000001 9.81624 8.844C9.696624 9.24 9.581760000000001 9.610344 9.561 9.667008C9.518735999999999 9.782328 9.44496 9.842544 9.343848 9.844224C9.306528 9.844848 8.9466 9.769152 8.544 9.676032000000001C7.599816 9.457608 7.5327839999999995 9.446784 7.225776000000001 9.463104C6.27312 9.513744 5.479872 10.201704000000001 5.289216 11.142624C5.241384 11.378664 5.255352 11.858184 5.316624 12.084C5.372952 12.291576000000001 5.543880000000001 12.638231999999999 5.667768000000001 12.796128000000001C5.726496 12.870984000000002 6.016992 13.193232 6.313272 13.512216C6.609576000000001 13.831199999999999 6.865968 14.124744 6.883056 14.164512C6.906408 14.218872 6.9077280000000005 14.256216 6.888432 14.314728C6.872664 14.362464000000001 6.639648 14.633088 6.28608 15.014304000000001C5.968920000000001 15.356231999999999 5.65584 15.716736000000001 5.590368 15.8154C5.34912 16.178952000000002 5.241912 16.583256000000002 5.26284 17.050416C5.277672 17.381664 5.331672 17.600616000000002 5.46336 17.863704000000002C5.86512 18.666287999999998 6.689328 19.127784 7.547664 19.030728C7.666656000000001 19.017264 8.110848 18.925656 8.53476 18.827136000000003C8.958672 18.728616000000002 9.328416 18.648 9.356376 18.648C9.38436 18.648 9.439464 18.677688 9.478848 18.714C9.54168 18.771888 9.58032 18.878784 9.793392 19.584C9.926976000000002 20.0262 10.0776 20.4744 10.128096000000001 20.580000000000002C10.401648 21.152112 10.947192 21.578424000000002 11.57676 21.71208C11.827728 21.76536 12.361728000000001 21.744504 12.588000000000001 21.672552C12.987648000000002 21.545496 13.370688 21.288048 13.625231999999999 20.975376C13.836264 20.716152 13.94088 20.465952 14.206968 19.584C14.419824 18.878472 14.458295999999999 18.771912 14.521152 18.714C14.560535999999999 18.677688 14.61564 18.648 14.643623999999999 18.648C14.671584000000001 18.648 15.041328 18.728616000000002 15.46524 18.827136000000003C15.889152000000001 18.925656 16.333344 19.017264 16.452336 19.030728C17.310672 19.127784 18.13488 18.666287999999998 18.536640000000002 17.863704000000002C18.668328 17.600616000000002 18.722328 17.381664 18.737160000000003 17.050416C18.758088 16.583256000000002 18.650856 16.178928 18.409632 15.8154C18.344136000000002 15.716736000000001 18.031176 15.356568 17.71416 15.015047999999998C17.3568 14.630064 17.127912000000002 14.364216 17.111832000000003 14.315472C17.092224 14.256120000000001 17.093496000000002 14.219136000000002 17.116944 14.164512C17.134032 14.124744 17.390424 13.831199999999999 17.686728 13.512216C17.983008 13.193232 18.272952 12.871032 18.331056 12.796224C18.456623999999998 12.634512 18.629687999999998 12.285048 18.683736 12.084C18.745224 11.855256 18.758496 11.378088 18.710016 11.138784C18.514344 10.17312 17.646432 9.456 16.673424 9.456C16.424136 9.456 16.358784 9.467832 15.456 9.67632C15.053400000000002 9.769295999999999 14.693472 9.844848 14.656152 9.844224C14.555064 9.842544 14.481264 9.782352000000001 14.438927999999999 9.667008C14.418144 9.610344 14.303232 9.24 14.183544 8.844C13.902888 7.915368000000001 13.797792000000001 7.692216 13.496952000000002 7.386216C13.227048 7.1117040000000005 12.874800000000002 6.902520000000001 12.531264 6.812735999999999C12.293064000000001 6.750504 11.855712 6.733632 11.624640000000001 6.777792000000001M0.011832 14.304C0.011832 17.7954 0.014592 19.223712000000003 0.018000000000000002 17.478C0.021408 15.732312 0.021408 12.875712000000002 0.018000000000000002 11.13C0.014592 9.384312 0.011832 10.8126 0.011832 14.304M11.804064 8.289504C11.695656000000001 8.32824 11.591327999999999 8.411472 11.523935999999999 8.513016C11.495832 8.555376 11.358288 8.965296 11.218272 9.423960000000001C10.959288 10.272359999999999 10.889448 10.449456 10.727304 10.66896C10.518744 10.951248000000001 10.138032 11.200728 9.755688000000001 11.305608000000001C9.594384 11.349864 9.524136 11.35572 9.27732 11.34552C9.024456 11.335056 8.889744 11.310264 8.208 11.148816C7.31844 10.938168000000001 7.2384 10.931664 7.040496 11.05404C6.969887999999999 11.097696000000001 6.897143999999999 11.170752 6.8526240000000005 11.242752C6.788520000000001 11.346456 6.78 11.381544 6.78 11.542128000000002C6.78 11.678184 6.792096000000001 11.746536 6.828 11.813472C6.854400000000001 11.862672 7.119 12.164256 7.416 12.483623999999999C7.713 12.802992 8.003064 13.124544 8.060568 13.198152C8.29728 13.501152000000001 8.40576 13.829664 8.40564 14.243112C8.405544 14.54676 8.363304 14.757144 8.257488 14.981136000000001C8.146992000000001 15.214991999999999 8.071944 15.307584 7.442424 15.986832000000001C7.102320000000001 16.353792000000002 6.838512 16.659096 6.813 16.71528C6.752088 16.849368000000002 6.75408 17.06808 6.817392 17.198904C6.885912 17.340432 7.028784 17.462064 7.178928000000001 17.506656C7.24812 17.5272 7.320792000000001 17.544 7.3404240000000005 17.544C7.360056 17.544 7.75488 17.456904 8.217792000000001 17.35044C8.719176 17.235120000000002 9.13716 17.151888 9.251712 17.144592C9.544488000000001 17.125896 9.803136 17.181504 10.092 17.325216C10.463208 17.509895999999998 10.737648 17.7762 10.893696 18.103152C10.953336 18.22812 11.167224 18.892056 11.421048 19.740000000000002C11.484744000000001 19.952808 11.541408 20.044439999999998 11.664432 20.133552C11.927568 20.324160000000003 12.327552 20.246784 12.486576 19.974504C12.511248 19.932264 12.63744 19.549032 12.767040000000001 19.122864C13.072199999999999 18.119352 13.112328 18.02208 13.326936 17.765808C13.565544000000001 17.480904 13.988807999999999 17.234472 14.352 17.169072C14.666015999999999 17.112503999999998 14.848056 17.135568 15.782208 17.35044C16.24512 17.456904 16.639944 17.544 16.659576 17.544C16.679208 17.544 16.75188 17.5272 16.821072 17.506656C16.971216000000002 17.462064 17.114088 17.340432 17.182608000000002 17.198904C17.245800000000003 17.068344 17.247912 16.84932 17.187264 16.716C17.162208 16.660895999999997 16.893984000000003 16.35048 16.557792 15.987456C15.927719999999999 15.307104 15.852912 15.214775999999999 15.742512 14.981136000000001C15.526176 14.523216000000001 15.541992 13.896096 15.781416 13.440479999999999C15.886992 13.239576 15.932784 13.185024 16.584 12.484176C17.196144 11.825376 17.238096000000002 11.762232000000001 17.226384 11.517144C17.216664 11.313816 17.126424 11.157216 16.959504 11.05404C16.7616 10.931664 16.68156 10.938168000000001 15.792 11.148816C15.110256000000001 11.310264 14.975544 11.335056 14.722680000000002 11.34552C14.475864 11.35572 14.405616000000002 11.349864 14.244312 11.305608000000001C13.930416 11.219496 13.651848000000001 11.05956 13.428168 10.837032C13.146672 10.557 13.087272 10.42704 12.780648000000001 9.42C12.639984000000002 8.958 12.50256 8.5476 12.475248 8.508000000000001C12.365376000000001 8.348616 12.193248 8.258112 12 8.258112C11.9406 8.258112 11.852424000000001 8.272248000000001 11.804064 8.289504M11.63184 12.023568000000001C10.740864 12.185256 10.027728 12.850032 9.811152 13.720775999999999C9.738648 14.012256 9.738624 14.519568 9.811128 14.787503999999998C9.996 15.470903999999999 10.405512 15.9708 11.028 16.272888000000002C11.303495999999999 16.406592 11.472432 16.454496000000002 11.781048 16.486439999999998C12.198648 16.52964 12.586128 16.460160000000002 12.972 16.272888000000002C13.594488 15.9708 14.004 15.470903999999999 14.188872 14.787503999999998C14.261376000000002 14.519568 14.261351999999999 14.012256 14.188848 13.720775999999999C14.08944 13.321056 13.879704 12.950448 13.591920000000002 12.665952C13.39032 12.466655999999999 13.2432 12.359808 13.002768000000001 12.238032C12.691680000000002 12.080496 12.446904 12.020783999999999 12.072000000000001 12.010968C11.8938 12.006288 11.695728 12.011976 11.63184 12.023568000000001M11.721624 13.561584000000002C11.57448 13.618176 11.40012 13.783008 11.326512 13.935072000000002C11.247648 14.097984000000002 11.237808000000001 14.328432000000001 11.302416000000001 14.499528000000002C11.50236 15.028968 12.182328 15.162264 12.550344 14.744184C12.97776 14.258591999999998 12.637896 13.507848000000001 11.993088 13.513248C11.905416 13.513992 11.7936 13.533888000000001 11.721624 13.561584000000002" stroke="none" fill="#000" fill-rule="evenodd"></path>
</svg>
