<svg viewBox="0 0 24 24" height="24" width="24" xmlns="http://www.w3.org/2000/svg" stroke-width="1.5"><title>diamond-icon</title><path d="M19.237,3.225a1.5,1.5,0,0,0-1.2-.6h-12a1.5,1.5,0,0,0-1.2.6L1.5,7.676a1.5,1.5,0,0,0,.048,1.86l9.338,11.3a1.5,1.5,0,0,0,2.3,0l9.338-11.3a1.5,1.5,0,0,0,.048-1.86Z" fill="none" stroke="#000000" stroke-linecap="round" stroke-linejoin="round"></path><path d="M5.349 2.792L12.037 21.375" fill="none" stroke="#000000" stroke-linecap="round" stroke-linejoin="round"></path><path d="M18.724 2.792L12.037 21.375" fill="none" stroke="#000000" stroke-linecap="round" stroke-linejoin="round"></path><path d="M1.198 8.625L22.871 8.625" fill="none" stroke="#000000" stroke-linecap="round" stroke-linejoin="round"></path><path d="M7.537 8.625L12.037 2.625 16.537 8.625" fill="none" stroke="#000000" stroke-linecap="round" stroke-linejoin="round"></path></svg>
