<svg xmlns="http://www.w3.org/2000/svg" width="24" height="24" stroke-width="1.5" viewBox="0 0 24 24">
    <path fill="none" stroke="#000" stroke-linecap="round" stroke-linejoin="round" d="M19.237 3.225a1.5 1.5 0 0 0-1.2-.6h-12a1.5 1.5 0 0 0-1.2.6L1.5 7.676a1.5 1.5 0 0 0 .048 1.86l9.338 11.3a1.5 1.5 0 0 0 2.3 0l9.338-11.3a1.5 1.5 0 0 0 .048-1.86ZM5.349 2.792 12.037 21.375M18.724 2.792 12.037 21.375M1.198 8.625 22.871 8.625"/>
    <path fill="none" stroke="#000" stroke-linecap="round" stroke-linejoin="round" d="M7.537 8.625L12.037 2.625 16.537 8.625"/>
</svg>
