<svg xmlns="http://www.w3.org/2000/svg" width="24" height="24" fill="none" viewBox="0 0 24 24">
    <path fill="currentColor" d="M12 0C9.62663 0 7.30655 0.703788 5.33316 2.02236C3.35977 3.34094 1.8217 5.21508 0.913451 7.4078C0.00519966 9.60051 -0.232441 12.0133 0.230582 14.3411C0.693604 16.6689 1.83649 18.807 3.51472 20.4853C5.19295 22.1635 7.33115 23.3064 9.65892 23.7694C11.9867 24.2324 14.3995 23.9948 16.5922 23.0865C18.7849 22.1783 20.6591 20.6402 21.9776 18.6668C23.2962 16.6934 24 14.3734 24 12C23.9966 8.81843 22.7313 5.76814 20.4816 3.51843C18.2319 1.26873 15.1816 0.00336338 12 0V0ZM12 4.94118C13.3961 4.94118 14.7609 5.35517 15.9217 6.1308C17.0825 6.90643 17.9872 8.00887 18.5215 9.2987C19.0558 10.5885 19.1956 12.0078 18.9232 13.3771C18.6508 14.7464 17.9785 16.0041 16.9913 16.9913C16.0041 17.9785 14.7464 18.6508 13.3771 18.9232C12.0078 19.1956 10.5885 19.0558 9.29871 18.5215C8.00888 17.9872 6.90644 17.0825 6.13081 15.9217C5.35517 14.7609 4.94118 13.3961 4.94118 12C4.94305 10.1285 5.68734 8.3341 7.01073 7.01072C8.33411 5.68734 10.1285 4.94304 12 4.94118V4.94118Z"/>
    <path fill="currentColor" d="M9.35556 12.8539L8.43368 14.9716C8.35731 15.1437 8.33777 15.3358 8.37788 15.5198C8.41798 15.7038 8.51565 15.8703 8.65674 15.9951C8.79833 16.1258 8.978 16.2078 9.16951 16.2291C9.36101 16.2504 9.55432 16.21 9.72121 16.1137L12.0083 14.8261L14.2967 16.1137C14.4641 16.2085 14.657 16.2481 14.8482 16.2268C15.0393 16.2055 15.2188 16.1244 15.3612 15.9951C15.5022 15.8703 15.5998 15.7037 15.6396 15.5196C15.6795 15.3355 15.6596 15.1435 15.5829 14.9716L14.6624 12.8539L16.3269 11.2163C16.4553 11.0936 16.5442 10.9353 16.5822 10.7618C16.6202 10.5882 16.6055 10.4073 16.54 10.2421C16.4728 10.08 16.3581 9.9419 16.2109 9.84614C16.0638 9.75039 15.8911 9.70142 15.7156 9.70567H13.8238L12.8229 7.55556C12.7471 7.40518 12.6308 7.27896 12.4871 7.19116C12.3434 7.10335 12.1781 7.05744 12.0097 7.05862V7.05862C11.8413 7.05754 11.6759 7.10331 11.5321 7.19082C11.3882 7.27833 11.2716 7.40413 11.1951 7.55414V7.56544L10.2069 9.70567H8.30379C8.12679 9.70128 7.95266 9.75094 7.80459 9.84801C7.65652 9.94509 7.54155 10.085 7.475 10.2491C7.40846 10.4131 7.39349 10.5936 7.43209 10.7664C7.4707 10.9392 7.56104 11.0961 7.69109 11.2163L9.35556 12.8539Z"/>
</svg>
