<svg xmlns="http://www.w3.org/2000/svg" width="24" height="24" viewBox="0 0 24 24" version="1.1" id="Discord-Logo--Streamline-Flex.svg">
  <title>discord-outline</title>
	<path d="M7.524 3.242448C7.123056 3.2754 6.65736 3.355992 6.228 3.466752C5.839272 3.567048 4.754784000000001 3.8987999999999996 4.4281440000000005 4.01736C4.069632 4.147488 3.669144 4.439808 3.438024 4.74C3.130728 5.13912 2.571384 6.42324 2.1364560000000004 7.728C1.446072 9.79908 0.9472560000000001 12.297144 0.803808 14.401824000000001C0.783648 14.697624 0.82656 15.218808 0.9024479999999999 15.6C1.056 16.371408000000002 1.439232 17.201712 1.921536 17.808C2.400528 18.41016 3.5555039999999996 19.315512000000002 4.548096 19.866912C5.152200000000001 20.20248 6.032736 20.597112 6.438599999999999 20.714184C6.829872 20.827032 7.362408 20.797344000000002 7.770816 20.63988C8.21076 20.470296 8.468904 20.251272 8.887968 19.692C9.146448 19.347072 9.721464 18.497424 9.894912 18.204144C9.95712 18.098976 9.967272 18.091968 10.038912 18.104784C10.08132 18.112344 10.566648 18.130488 11.117424 18.145056C12.064584 18.170136000000003 13.42764 18.150144 13.88868 18.104400000000002L14.037336 18.08964 14.104680000000002 18.203471999999998C14.278608 18.49752 14.853336 19.34676 15.112032000000001 19.692C15.531096000000002 20.251272 15.78924 20.470296 16.229184 20.63988C16.637591999999998 20.797344000000002 17.170128000000002 20.827032 17.561400000000003 20.714184C17.967264 20.597112 18.847800000000003 20.20248 19.451904 19.866912C20.12604 19.492416 21.102504 18.788832000000003 21.609528 18.31224C22.688928 17.29764 23.295288 15.73656 23.185104000000003 14.255880000000001C22.980456 11.505408000000001 22.230312 8.374944000000001 21.203904 5.988C20.772408000000002 4.984536 20.565024 4.655568 20.177496 4.35996C19.896648000000003 4.1457120000000005 19.686048 4.049040000000001 19.080000000000002 3.8561039999999998C17.697384 3.4159439999999996 17.215680000000003 3.3041039999999997 16.43052 3.2409120000000002C16.031712000000002 3.2087999999999997 15.330984 3.208944 15.074015999999999 3.2411760000000003C14.678927999999999 3.290712 14.220816 3.484248 13.94184 3.7194960000000004L13.830096000000001 3.81372 13.305048 3.788256C12.793872 3.7634640000000004 10.792104 3.776184 10.38 3.8068560000000002L10.188 3.821136 10.060704000000001 3.7194960000000004C9.749784 3.47124 9.321672000000001 3.2907840000000004 8.925984 3.2411760000000003C8.696592 3.2124 7.880496 3.2131440000000002 7.524 3.242448M7.62 4.7435279999999995C7.3107120000000005 4.77348 6.946752 4.839984 6.588 4.932096C6.07236 5.0644800000000005 5.017272 5.398224 4.855872 5.480016C4.674528 5.571912 4.585272 5.695344 4.379208 6.139272C3.339096 8.37996 2.581704 11.364744 2.3261760000000002 14.23008C2.278368 14.766192000000002 2.333832 15.254424 2.4988319999999997 15.749976C2.72568 16.431336 3.111288 16.973592 3.730176 17.481504C4.590408 18.187535999999998 5.443824 18.698304 6.48444 19.129968C6.934463999999999 19.316664 7.178184000000001 19.317432 7.393776000000001 19.132920000000002C7.53744 19.009944 8.279736 17.99172 8.248488 17.960496000000003C8.241384 17.953392 8.113272 17.926728 7.963776 17.90124C7.340208 17.79492 6.982463999999999 17.666352 6.806472 17.485272000000002C6.357311999999999 17.023128 6.693072 16.224 7.336416000000001 16.224C7.419672 16.224 7.555728 16.25112 7.69296 16.295088C7.815023999999999 16.334184 8.042952 16.388424 8.199456 16.415616C8.541792000000001 16.475112 9.330696 16.557192 9.564 16.5576C9.656400000000001 16.557744 9.921 16.571856 10.152000000000001 16.588944C10.724568000000001 16.63128 13.292712000000002 16.631184 13.896 16.588800000000003C14.864208 16.520784 15.426432 16.437576 15.815280000000001 16.304712000000002C16.03596 16.229304 16.088904 16.219824 16.235856000000002 16.229424C16.596432 16.252992 16.878384 16.517064 16.930848 16.880376000000002C16.948439999999998 17.002248 16.915319999999998 17.193072 16.856328 17.309688C16.806984 17.407224000000003 16.68168 17.542344 16.582536 17.604936C16.471344000000002 17.675112 16.148136 17.788968 15.9 17.845344C15.794400000000001 17.869344 15.704088 17.89176 15.699336 17.895167999999998C15.687768000000002 17.9034 16.060464 18.444768 16.30824 18.779616C16.622616 19.204488 16.760496 19.2924 17.070456 19.265544000000002C17.233344000000002 19.251408 17.565936 19.123224 18.110712000000003 18.864576C19.306008000000002 18.297072 20.551464000000003 17.372088 21.021792 16.702512C21.387287999999998 16.18224 21.610512 15.573744 21.675216000000002 14.921544C21.707832000000003 14.592792000000001 21.692064000000002 14.301576 21.5982 13.5C21.289536 10.863672000000001 20.56896 8.181912 19.619952 6.137472000000001C19.405056 5.674488 19.316328 5.557224 19.111392 5.465256C18.909792 5.374776000000001 17.888160000000003 5.054232 17.412 4.932048C16.76796 4.7667600000000006 16.554168 4.74132 15.804 4.740624C15.029376000000001 4.73988 15.036936 4.737792 14.73636 5.036736C14.429687999999999 5.341776 14.359079999999999 5.356296 13.44 5.30352C12.895776 5.272248 11.253696 5.273832 10.656 5.306184C9.82212 5.3513280000000005 9.729864000000001 5.348616000000001 9.569376 5.274288C9.475032 5.230608 9.374088 5.152104 9.253295999999999 5.028552C8.977272 4.746168 8.958624 4.740576 8.28 4.73712C7.9698 4.735536 7.6728 4.738416 7.62 4.7435279999999995M7.968504 9.65328C7.300416000000001 9.722159999999999 6.80232 10.146552000000002 6.657719999999999 10.770096C6.608928000000001 10.980528 6.608928000000001 11.411472 6.657719999999999 11.621903999999999C6.816312 12.305712000000002 7.396751999999999 12.743952000000002 8.148 12.747072000000001C8.6418 12.749136000000002 8.985479999999999 12.618888000000002 9.290184 12.314184000000001C9.593592000000001 12.010776 9.71916 11.683440000000001 9.71916 11.196C9.71916 10.70856 9.593592000000001 10.381224 9.290184 10.077816C8.951976 9.739608 8.509536 9.597504 7.968504 9.65328M15.636408000000001 9.652824C15.239927999999999 9.689856 14.932848 9.835344 14.675568 10.108032C14.403552000000001 10.396320000000001 14.28084 10.734576 14.28084 11.196C14.28084 11.683440000000001 14.406408 12.010776 14.709816 12.314184000000001C15.014520000000001 12.618888000000002 15.3582 12.749136000000002 15.852 12.747072000000001C16.370784 12.744912000000001 16.805952 12.546168 17.074704 12.188616C17.294784 11.895864 17.380704 11.617152 17.380704 11.196C17.380704 10.774848 17.294784 10.496136 17.074704 10.203384000000002C16.76904 9.796728 16.244664 9.596016 15.636408000000001 9.652824M8.112 11.196C8.112 11.218392 8.134656000000001 11.232000000000001 8.172 11.232000000000001C8.209344 11.232000000000001 8.232 11.218392 8.232 11.196C8.232 11.173608 8.209344 11.16 8.172 11.16C8.134656000000001 11.16 8.112 11.173608 8.112 11.196M15.779904 11.184168C15.771672 11.197464 15.784536 11.21532 15.808488 11.223864C15.832416 11.232408 15.860088 11.243784 15.870000000000001 11.249112C15.879912000000001 11.254464 15.888 11.236583999999999 15.888 11.209416000000001C15.888 11.15712 15.808128000000002 11.138472 15.779904 11.184168" stroke="none" fill="#000" fill-rule="evenodd"></path>
</svg>
