<svg xmlns="http://www.w3.org/2000/svg" viewBox="0 0 24 24" height="24" width="24"><desc>Duplicate Streamline Icon: https://streamlinehq.com</desc><path fill="none" stroke="currentColor" stroke-linecap="round" stroke-linejoin="round" d="M16.75 4.5V1.75a1 1 0 0 0-1-1h-14a1 1 0 0 0-1 1v14a1 1 0 0 0 1 1H4.5" stroke-width="1.5"/><path fill="none" stroke="currentColor" stroke-linejoin="round" d="M7.25 8.25a1 1 0 0 1 1-1h14a1 1 0 0 1 1 1v14a1 1 0 0 1-1 1h-14a1 1 0 0 1-1-1z" stroke-width="1.5"/></svg>
