<svg xmlns="http://www.w3.org/2000/svg" width="13" height="12" fill="currentColor" viewBox="0 0 13 12">
    <g fill="currentColor" clip-path="url(#a)">
        <path d="M6.055 7.28a.635.635 0 0 0 .885 0l4.845-4.845a.25.25 0 0 0-.017-.368.255.255 0 0 0-.123-.057L11.5 2H1.355a.25.25 0 0 0-.2.17.24.24 0 0 0 .06.255l4.84 4.855Z"/>
        <path d="M12.445 2.915a.09.09 0 0 0-.1 0l-3.1 3.1a.12.12 0 0 0 0 .18l2.5 2.5a.375.375 0 0 1-.53.53l-2.5-2.5a.125.125 0 0 0-.18 0L7.47 7.79a1.38 1.38 0 0 1-1.945 0l-1.06-1.045a.12.12 0 0 0-.18 0l-2.5 2.5a.375.375 0 0 1-.53-.53l2.5-2.5a.12.12 0 0 0 0-.18l-3.1-3.1a.09.09 0 0 0-.1 0A.09.09 0 0 0 .5 3v6a1 1 0 0 0 1 1h10a1 1 0 0 0 1-1V3a.09.09 0 0 0-.055-.085Z"/>
    </g>
    <defs>
        <clipPath id="a">
            <path fill="none" d="M.5 0h12v12H.5z"/>
        </clipPath>
    </defs>
</svg>
