<svg xmlns="http://www.w3.org/2000/svg" width="24" height="24" viewBox="0 0 24 24">
  <title>award-medal-1</title>
	<path d="M3.552 0.022368000000000002C3.351456 0.083832 3.169704 0.238008 3.0690720000000002 0.432C3.023424 0.519984 3.01296 0.5778 3.012528 0.744L3.012 0.9480000000000001 4.434096 4.677384L5.856216 8.406744 5.574096 8.697912C4.222128 10.093248 3.3646320000000003 11.814288 3.0978239999999997 13.668000000000001C2.4931680000000003 17.869104 4.807488 21.853248 8.748 23.394768000000003C9.760752 23.79096 10.883928000000001 24 12 24C16.1184 24 19.699512 21.216888 20.724048 17.22C20.923512 16.4418 20.985456 15.915888 20.985456 15C20.985456 14.084112 20.923512 13.5582 20.724048 12.780000000000001C20.324784 11.222424 19.565928 9.874488000000001 18.425904 8.697912L18.143808 8.406768 19.564704000000003 4.677384L20.985623999999998 0.9480000000000001 20.986800000000002 0.756C20.987808 0.596808 20.977248 0.54144 20.925048 0.432C20.848368 0.271176 20.741592 0.160632 20.581128 0.075936L20.46 0.012 12.036 0.007992C7.4028 0.005784 3.585 0.012264 3.552 0.022368000000000002M4.882176 1.602C4.986 1.8935760000000001 7.088616 7.406808000000001 7.100976000000001 7.4198640000000005C7.109232 7.428599999999999 7.229400000000001 7.365744 7.368 7.280184C7.825728 6.9976080000000005 8.735208 6.578856000000001 9.162 6.4542C9.218088 6.437808 9.264 6.419688000000001 9.264 6.413928C9.264 6.408168 9.0642 5.307696 8.82 3.968448C8.5758 2.6292 8.376 1.528608 8.376 1.522728C8.376 1.516824 7.58268 1.512 6.613055999999999 1.512L4.850136 1.512 4.882176 1.602M9.91188 1.53C9.91164 1.567488 10.732824 6.0604320000000005 10.74156 6.06936C10.746599999999999 6.074496000000001 10.888704 6.063696 11.057352 6.04536C11.461295999999999 6.001416 12.538704000000001 6.001416 12.942648000000002 6.04536C13.111296 6.063696 13.253448 6.074496000000001 13.258512 6.06936C13.267199999999999 6.060576 14.088000000000001 1.568712 14.088000000000001 1.53C14.088000000000001 1.520088 13.1484 1.512 12 1.512C10.8516 1.512 9.911952 1.520088 9.91188 1.53M15.614208 1.578C15.564768 1.8180720000000001 14.735904 6.41568 14.741280000000001 6.420048C14.744976000000001 6.4230719999999994 14.807400000000001 6.444648 14.88 6.468024C15.36108 6.622848 16.144968 6.985200000000001 16.608 7.266768C16.759800000000002 7.359071999999999 16.890768 7.4277120000000005 16.899024 7.419312C16.910232 7.407888 18.635448 2.8853999999999997 19.090704000000002 1.674L19.151592 1.512 17.389704000000002 1.512L15.627816 1.512 15.614208 1.578M11.376 7.526928000000001C9.854904 7.662288 8.396256 8.256672 7.236 9.213936C5.800968 10.39788 4.872552 12.043175999999999 4.580376 13.92C4.532928 14.224752 4.5262080000000005 14.35896 4.5262080000000005 15C4.5262080000000005 15.641040000000002 4.532928 15.775248000000001 4.580376 16.080000000000002C4.86396 17.901768 5.73708 19.491144 7.1017920000000005 20.669952000000002C8.1846 21.605256 9.46872 22.193712 10.92 22.419624C11.224752 22.467072 11.358960000000002 22.473792 12 22.473792C12.803808 22.473792 13.103184 22.442904 13.716384 22.296696C15.848976 21.78816 17.669736 20.366064 18.654216 18.44004C19.052544 17.660736 19.285248 16.943256 19.419624 16.080000000000002C19.467072 15.775248000000001 19.473792 15.641040000000002 19.473792 15C19.473792 14.195496000000002 19.442928 13.896936 19.296120000000002 13.281287999999998C18.636528000000002 10.515216 16.481928 8.36112 13.718015999999999 7.704479999999999C13.153824 7.5704400000000005 12.817512 7.532592 12.120000000000001 7.5245999999999995C11.7702 7.520592000000001 11.435400000000001 7.521648 11.376 7.526928000000001M11.672328 9.26364C11.362824000000002 9.344784 11.114688000000001 9.50604 10.938312 9.740688C10.878744000000001 9.819936 10.588368000000001 10.360464 10.293000000000001 10.941912L9.756 11.999088 8.82 11.999832C7.794456 12.000648 7.754856000000001 12.00492 7.467696 12.146304C7.279944 12.238728 7.024176 12.484176 6.915624 12.676104000000002C6.6678 13.114296 6.701424 13.704576 6.996936 14.10288C7.04472 14.167296 7.454736 14.5872 7.908048 15.036L8.732304000000001 15.852 8.292984 16.852272C8.051376 17.402424 7.835544 17.904624 7.8133680000000005 17.968272C7.752504000000001 18.14292 7.739016 18.482616 7.785144 18.678216C7.910208 19.208448 8.303352 19.58496 8.84916 19.69716C9.098856000000001 19.748496000000003 9.390504 19.715184 9.61632 19.609512C9.702312 19.569264 10.273776 19.25448 10.886232000000001 18.909984L11.999784 18.283632 13.195224000000001 18.957792C14.249592 19.552392 14.414568 19.638 14.593079999999999 19.683144C15.1962 19.835664 15.824496000000002 19.544184 16.100160000000002 18.984C16.22208 18.736224 16.257672 18.558312 16.240368 18.283032000000002C16.224792 18.034872 16.220664 18.023976 15.662880000000001 16.752L15.268224000000002 15.852 16.116456 15.012C16.909224000000002 14.22696 17.053368 14.067096000000001 17.133648 13.884C17.468904 13.119288 17.043792 12.243528 16.23696 12.036672000000001C16.120800000000003 12.006888 15.920040000000002 11.999976 15.16896 11.999903999999999L14.244 11.999808000000002 13.706376 10.941624000000001C13.410672 10.359624 13.122383999999998 9.82044 13.065696 9.743447999999999C12.893568 9.509616 12.635712000000002 9.343728 12.318216000000001 9.262512C12.09276 9.204864 11.895264000000001 9.2052 11.672328 9.26364M11.423615999999999 12.042C11.117568 12.645912000000001 10.830408 13.185096000000001 10.78548 13.240176C10.736688000000001 13.300008000000002 10.64424 13.370111999999999 10.55604 13.414176L10.408344 13.488 9.448248000000001 13.488L8.488152 13.488 9.390431999999999 14.382C10.24308 15.226848 10.294944000000001 15.283176 10.3338 15.406608C10.35684 15.479784 10.37376 15.605184000000001 10.372296 15.691752C10.36944 15.859104000000002 10.389024 15.809568 9.698712 17.395224000000002C9.438408 17.99316 9.435552000000001 18.001728 9.511175999999999 17.955888C9.833928 17.760264 11.6964 16.728936 11.772264000000002 16.703832000000002C11.894616 16.663344000000002 12.105048 16.663224000000003 12.227016 16.703592C12.294287999999998 16.725839999999998 14.175504 17.769503999999998 14.5524 17.993664C14.563608 18.000336 14.562192000000001 17.9856 14.549256000000002 17.960904C14.53632 17.936208 14.328888000000001 17.463504 14.088312000000002 16.910448C13.632624 15.862872 13.595256000000001 15.749400000000001 13.635312 15.534984000000001C13.677719999999999 15.307991999999999 13.754280000000001 15.217656 14.635655999999999 14.354688L15.484079999999999 13.524000000000001 14.551464000000001 13.512L13.618848 13.5 13.458432 13.420992C13.367351999999999 13.376136000000002 13.263863999999998 13.302024 13.219008 13.249535999999999C13.175544 13.198704000000001 12.887304 12.659160000000002 12.578448 12.050544C12.269592000000001 11.441952 12.008592 10.944 11.998464 10.944C11.988336 10.944 11.72964 11.438088 11.423615999999999 12.042" stroke="none" fill="#000" fill-rule="evenodd"></path>
</svg>
