<?xml version="1.0" encoding="UTF-8"?>
<svg width="28px" height="22px" viewBox="0 0 28 22" version="1.1" xmlns="http://www.w3.org/2000/svg" xmlns:xlink="http://www.w3.org/1999/xlink">
    <title>favicon-solid-icon</title>
    <defs>
        <path d="M19.1955307,0.043956044 C19.1955307,0.043956044 19.1955307,0.0659340659 19.1955307,0.043956044 C19.2178771,0.0879120879 19.2402235,0.131868132 19.2625698,0.197802198 L19.2625698,21.7582418 C19.2625698,21.8241758 19.2402235,21.8681319 19.2178771,21.8901099 C19.1731844,21.9340659 19.1284916,21.956044 19.0614525,21.956044 L0.17877095,21.956044 C0.134078212,21.956044 0.0893854749,21.956044 0.0670391061,21.9340659 C0.0223463687,21.8901099 0,21.8461538 0,21.7802198 L0,0.175824176 C0,0.0879120879 0.0446927374,0.021978022 0.111731844,0 L19.0614525,0 C19.1061453,0 19.1731844,0.021978022 19.1955307,0.043956044 Z M17.0949721,19.6923077 L17.0949721,2.28571429 C17.0949721,2.1978022 17.0502793,2.13186813 16.9832402,2.10989011 L2.23463687,2.10989011 C2.16759777,2.13186813 2.12290503,2.1978022 2.12290503,2.28571429 L2.12290503,19.6923077 C2.12290503,19.7802198 2.16759777,19.8461538 2.23463687,19.8681319 L16.9832402,19.8681319 C17.0502793,19.8461538 17.0949721,19.7802198 17.0949721,19.6923077 Z M27.7988827,19.8681319 C27.9329609,19.8681319 28,19.9340659 28,20.0659341 L28,21.8021978 C28,21.9340659 27.9106145,22 27.7988827,22 L21.273743,22 C21.1396648,22 21.0726257,21.9120879 21.0726257,21.8021978 L21.0726257,20.0659341 C21.0726257,19.9340659 21.1620112,19.8681319 21.273743,19.8681319 L27.7988827,19.8681319 Z M8.08938547,8.08791209 C9.47486034,8.08791209 10.547486,8.63736264 11.2849162,9.51648352 C11.3296089,9.58241758 11.3519553,9.71428571 11.2625698,9.78021978 L10.0558659,10.8351648 C9.96648045,10.9010989 9.8547486,10.8791209 9.7877095,10.7912088 C9.34078212,10.2857143 8.84916201,10 8.08938547,10 C7.26256983,10 6.63687151,10.3956044 6.36871508,11.1648352 C6.2122905,11.6263736 6.16759777,12.1538462 6.16759777,12.8571429 C6.16759777,13.5604396 6.2122905,14.1098901 6.36871508,14.5714286 C6.63687151,15.3626374 7.26256983,15.7582418 8.08938547,15.7582418 C8.84916201,15.7582418 9.31843575,15.4725275 9.7877095,14.967033 C9.8547486,14.8791209 9.96648045,14.8791209 10.0558659,14.9450549 L11.2625698,16 C11.3519553,16.0659341 11.3296089,16.1758242 11.2849162,16.2637363 C10.547486,17.1208791 9.47486034,17.6703297 8.08938547,17.6703297 C6.23463687,17.6703297 4.82681564,16.7692308 4.29050279,15.1428571 C4.08938547,14.5714286 4,13.8461538 4,12.8791209 C4,11.9120879 4.08938547,11.1868132 4.29050279,10.6153846 C4.82681564,8.98901099 6.23463687,8.08791209 8.08938547,8.08791209 Z" id="path-1"></path>
    </defs>
    <g id="Forms-(Spring-2020)" stroke="none" stroke-width="1" fill="none" fill-rule="evenodd">
        <g id="Form-States" transform="translate(-1394.000000, -48.000000)">
            <g id="Group-3" transform="translate(1006.000000, 48.000000)">
                <g id="Branding-/-Logo-/-Box-/-Dark" transform="translate(388.000000, 0.000000)">
                    <g id="C_">
                        <mask id="mask-2" fill="white">
                            <use xlink:href="#path-1"></use>
                        </mask>
                        <use id="Shape" fill="#141E3B" xlink:href="#path-1"></use>
                        <g id="System-/-Color-/-Brand-/-Dark-Blue" mask="url(#mask-2)"></g>
                    </g>
                </g>
            </g>
        </g>
    </g>
</svg>
