<?xml version="1.0" encoding="utf-8"?>
<!-- Generator: Adobe Illustrator 22.1.0, SVG Export Plug-In . SVG Version: 6.00 Build 0)  -->
<svg version="1.1" id="Layer_1" xmlns="http://www.w3.org/2000/svg" xmlns:xlink="http://www.w3.org/1999/xlink" x="0px" y="0px"
	 viewBox="0 0 24 24" style="enable-background:new 0 0 24 24;" xml:space="preserve">
<title>file-code-add-1</title>
<g>
	<path d="M17.238,24.004c-3.722,0-6.75-3.028-6.75-6.75s3.028-6.75,6.75-6.75s6.75,3.028,6.75,6.75S20.96,24.004,17.238,24.004z
		 M17.238,12.004c-2.895,0-5.25,2.355-5.25,5.25s2.355,5.25,5.25,5.25c2.895,0,5.25-2.355,5.25-5.25S20.133,12.004,17.238,12.004z"
		/>
	<path d="M17.238,21.004c-0.414,0-0.75-0.336-0.75-0.75v-2.25h-2.25c-0.414,0-0.75-0.336-0.75-0.75s0.336-0.75,0.75-0.75h2.25v-2.25
		c0-0.414,0.336-0.75,0.75-0.75s0.75,0.336,0.75,0.75v2.25h2.25c0.414,0,0.75,0.336,0.75,0.75s-0.336,0.75-0.75,0.75h-2.25v2.25
		C17.988,20.667,17.652,21.004,17.238,21.004z"/>
	<path d="M2.238,21.004c-1.241,0-2.25-1.009-2.25-2.25v-16.5c0-1.241,1.009-2.25,2.25-2.25h10.628c0.601,0,1.166,0.234,1.591,0.658
		l2.873,2.871c0.419,0.419,0.66,0.999,0.66,1.591v3.129c0,0.414-0.336,0.75-0.75,0.75s-0.75-0.336-0.75-0.75V5.125
		c0-0.197-0.08-0.391-0.22-0.53l-2.873-2.871c-0.142-0.142-0.33-0.219-0.53-0.219H2.238c-0.414,0-0.75,0.336-0.75,0.75v16.5
		c0,0.414,0.336,0.75,0.75,0.75h6c0.414,0,0.75,0.336,0.75,0.75s-0.336,0.75-0.75,0.75H2.238z"/>
	<path d="M8.988,11.254c-0.2,0-0.389-0.078-0.53-0.22c-0.142-0.141-0.22-0.33-0.22-0.53s0.078-0.389,0.22-0.53l1.72-1.72l-1.72-1.72
		c-0.142-0.141-0.22-0.33-0.22-0.53s0.078-0.389,0.22-0.53c0.141-0.142,0.33-0.22,0.53-0.22s0.389,0.078,0.53,0.22l2.25,2.25
		c0.142,0.141,0.22,0.33,0.22,0.53s-0.078,0.389-0.22,0.53l-2.25,2.25C9.377,11.176,9.188,11.254,8.988,11.254z"/>
	<path d="M5.988,11.254c-0.2,0-0.389-0.078-0.53-0.22l-2.25-2.25c-0.142-0.141-0.22-0.33-0.22-0.53s0.078-0.389,0.22-0.53l2.25-2.25
		c0.142-0.142,0.33-0.22,0.53-0.22s0.389,0.078,0.53,0.22c0.142,0.141,0.22,0.33,0.22,0.53s-0.078,0.389-0.22,0.53l-1.72,1.72
		l1.72,1.72c0.142,0.141,0.22,0.33,0.22,0.53s-0.078,0.389-0.22,0.53C6.377,11.176,6.188,11.254,5.988,11.254z"/>
</g>
</svg>
