<svg xmlns="http://www.w3.org/2000/svg" width="24" height="24" viewBox="0 0 24 24" fill="none">
  <path fill-rule="evenodd" clip-rule="evenodd" d="M1.8878 0.0248989C1.02872 0.170387 0.351011 0.777395 0.0793789 1.64471L0.0119629 1.85994V10.4999V19.1399L0.0793789 19.3552C0.325979 20.1425 0.857363 20.6739 1.64473 20.9205L1.85996 20.9879H4.78796H7.71596L7.81904 20.9329C7.97799 20.848 8.10402 20.7209 8.17715 20.5718C8.26904 20.3843 8.27187 20.1094 8.1837 19.9351C8.10419 19.7778 7.9599 19.6377 7.79996 19.5622L7.66796 19.4999L4.85996 19.4879L2.05196 19.4759L1.94039 19.4244C1.80589 19.3622 1.65385 19.2152 1.57895 19.0749L1.52396 18.9719V10.4999V2.02794L1.57895 1.92495C1.64922 1.79339 1.79341 1.64919 1.92498 1.57892L2.02796 1.52394H7.55996C12.9464 1.52394 13.0945 1.52514 13.188 1.56956C13.3279 1.63607 16.3426 4.6472 16.4192 4.79692L16.476 4.90794L16.488 6.28794L16.5 7.66794L16.5622 7.79994C16.6377 7.95988 16.7779 8.10416 16.9351 8.18367C17.1095 8.27185 17.3844 8.26902 17.5718 8.17712C17.721 8.104 17.8481 7.97797 17.9329 7.81902L17.988 7.71594V6.23994C17.988 4.78393 17.9872 4.76118 17.9338 4.56071C17.8651 4.3028 17.7026 3.96867 17.5484 3.76794C17.3643 3.52837 14.2933 0.480299 14.1286 0.373739C13.9388 0.250883 13.6669 0.128003 13.4447 0.0646429L13.26 0.0119389L7.63196 0.00857885C4.53656 0.00675485 1.95169 0.0140989 1.8878 0.0248989ZM3.51596 6.03181C3.21085 6.15145 3.02079 6.39937 3.00383 6.69992C2.98155 7.09393 3.24433 7.42465 3.62929 7.48712C3.83727 7.52087 14.1627 7.52087 14.3706 7.48712C14.8588 7.4079 15.1412 6.88208 14.9308 6.44394C14.8466 6.26862 14.7194 6.14291 14.544 6.06159L14.412 6.00042L8.99996 6.002C4.91142 6.0032 3.57035 6.0105 3.51596 6.03181ZM3.60685 10.5141C3.45263 10.5402 3.26612 10.652 3.16614 10.7782C2.85889 11.1662 2.99075 11.7132 3.44396 11.9308L3.58796 11.9999L6.7377 11.9999C9.76991 11.9999 9.8919 11.9982 10.007 11.9545C10.3479 11.825 10.5451 11.4826 10.4874 11.1207C10.4492 10.8813 10.2777 10.6625 10.044 10.5551L9.92396 10.4999L6.82796 10.4964C5.12516 10.4945 3.67566 10.5025 3.60685 10.5141ZM16.968 10.5042C15.2558 10.5807 13.6844 11.2715 12.478 12.4779C11.111 13.845 10.4027 15.6959 10.512 17.6159C10.5706 18.6459 10.8332 19.5836 11.3083 20.4595C12.2565 22.2077 13.9679 23.4788 15.8924 23.8644C16.4268 23.9714 16.6124 23.9878 17.268 23.9863C17.9245 23.9847 18.2896 23.947 18.7805 23.8305C20.666 23.3827 22.2592 22.1697 23.1765 20.4839C23.5851 19.7329 23.813 19.0415 23.9436 18.1559C23.9972 17.7927 24.0043 16.763 23.9556 16.4159C23.7438 14.9059 23.1301 13.6259 22.116 12.5794C21.7349 12.1861 21.4189 11.9181 21.024 11.653C20.1766 11.0844 19.2252 10.7133 18.252 10.5716C18.0028 10.5353 17.3145 10.4849 17.184 10.4933C17.151 10.4955 17.0538 10.5003 16.968 10.5042ZM16.872 12.0165C14.4163 12.2019 12.416 14.0615 12.0616 16.4885C12.0055 16.8727 11.9905 17.3247 12.0221 17.6759C12.2148 19.8147 13.6318 21.5972 15.6543 22.2449C17.1528 22.7248 18.8314 22.4929 20.1405 21.6249C21.6146 20.6476 22.488 19.0218 22.488 17.255C22.488 15.4617 21.6197 13.8545 20.112 12.8571C19.1904 12.2475 17.9782 11.933 16.872 12.0165ZM16.9445 13.5984C16.7738 13.6443 16.6267 13.7318 16.4677 13.882C16.2384 14.0987 16.128 14.3606 16.128 14.6879C16.128 15.6917 17.3351 16.189 18.046 15.478C18.7548 14.7693 18.2461 13.5541 17.244 13.5618C17.1516 13.5625 17.0168 13.579 16.9445 13.5984ZM3.51596 15.0315C3.20982 15.1527 3.02079 15.3994 3.00383 15.6999C2.98119 16.1002 3.24584 16.4272 3.64218 16.4887C3.74823 16.5051 4.47291 16.5114 5.73618 16.5069L7.66796 16.4999L7.79996 16.4377C7.9599 16.3622 8.10419 16.222 8.1837 16.0648C8.27187 15.8904 8.26904 15.6155 8.17715 15.4281C8.10402 15.2789 7.97799 15.1518 7.81904 15.067L7.71596 15.0119L5.65196 15.0075C4.10607 15.0042 3.56989 15.0102 3.51596 15.0315ZM17.11 16.512C16.8811 16.5512 16.6597 16.7283 16.5551 16.9559L16.5 17.0759L16.4927 18.6479C16.4878 19.7067 16.4939 20.2693 16.5116 20.371C16.5758 20.7415 16.8843 21 17.2622 20.9999C17.5433 20.9999 17.8106 20.8196 17.9383 20.5439L17.9995 20.4119L17.9997 18.7622C17.9999 17.2014 17.9975 17.106 17.9545 16.9929C17.8662 16.7604 17.6408 16.558 17.432 16.5238C17.2539 16.4946 17.219 16.4933 17.11 16.512Z" fill="black"/>
</svg>