<svg xmlns="http://www.w3.org/2000/svg" width="140" height="140" version="1.1" viewBox="0 0 140 140">
    <g fill="none" stroke="#000" stroke-linecap="round" stroke-linejoin="round" stroke-width="1.5">
        <path d="M14.25 15.75 23.25 15.75 23.25 23.25 14.25 23.25ZM18.75 11.25h0a3 3 0 0 0-3 3v1.5h6v-1.5A3 3 0 0 0 18.75 11.25Z" transform="scale(5.83333)"/>
        <path d="M18.75 19.154a.375.375 0 1 1-.375.375.375.375 0 0 1 .375-.375M3.75 6.75 14.25 6.75M3.75 11.25 12 11.25M3.75 15.75 9.75 15.75M11.25 20.25h-9a1.5 1.5 0 0 1-1.5-1.5V2.25A1.5 1.5 0 0 1 2.25.75H12.879a1.5 1.5 0 0 1 1.06.439l2.872 2.872a1.5 1.5 0 0 1 .439 1.06V7.5" transform="scale(5.83333)"/>
    </g>
</svg>
