<?xml version="1.0" encoding="utf-8"?>
<!-- Generator: Adobe Illustrator 22.1.0, SVG Export Plug-In . SVG Version: 6.00 Build 0)  -->
<svg version="1.1" id="Layer_1" xmlns="http://www.w3.org/2000/svg" xmlns:xlink="http://www.w3.org/1999/xlink" x="0px" y="0px"
	 viewBox="0 0 24 24" style="enable-background:new 0 0 24 24;" xml:space="preserve">
<title>file-py</title>
<g>
	<path d="M2.244,24.004c-1.241,0-2.25-1.009-2.25-2.25v-19.5c0-1.241,1.009-2.25,2.25-2.25h10.628c0.601,0,1.166,0.234,1.591,0.658
		l5.867,5.872c0.425,0.424,0.659,0.989,0.659,1.591v0.065c0.003,0.022,0.004,0.043,0.004,0.064c0,0.022-0.002,0.043-0.004,0.065
		v4.435c0,0.414-0.336,0.75-0.75,0.75s-0.75-0.336-0.75-0.75v-3.75h-5.246c-1.241,0-2.25-1.009-2.25-2.25v-5.25h-9.75
		c-0.414,0-0.75,0.336-0.75,0.75v19.5c0,0.414,0.336,0.75,0.75,0.75h9c0.414,0,0.75,0.336,0.75,0.75s-0.336,0.75-0.75,0.75H2.244z
		 M13.494,6.754c0,0.414,0.336,0.75,0.75,0.75h4.935l-5.685-5.689V6.754z"/>
	<path d="M21.744,24.004c-0.414,0-0.75-0.336-0.75-0.75v-3.133c-0.885-0.314-1.5-1.162-1.5-2.121v-2.246
		c0-0.414,0.336-0.75,0.75-0.75s0.75,0.336,0.75,0.75V18c0,0.414,0.336,0.75,0.75,0.75s0.75-0.336,0.75-0.75v-2.25
		c0-0.414,0.336-0.75,0.75-0.75s0.75,0.336,0.75,0.75V18c0,0.96-0.615,1.808-1.5,2.121v3.133
		C22.494,23.667,22.158,24.004,21.744,24.004z"/>
	<path d="M14.244,24.004c-0.414,0-0.75-0.336-0.75-0.75v-7.5c0-0.414,0.336-0.75,0.75-0.75h0.75c1.654,0,3,1.346,3,3s-1.346,3-3,3
		v2.25C14.994,23.667,14.658,24.004,14.244,24.004z M14.994,19.504c0.827,0,1.5-0.673,1.5-1.5s-0.673-1.5-1.5-1.5V19.504z"/>
</g>
</svg>
