<svg xmlns="http://www.w3.org/2000/svg" xml:space="preserve" x="0" y="0" version="1.1" viewBox="0 0 24 24">
    <path d="M17.238,24.004c-3.722,0-6.75-3.028-6.75-6.75s3.028-6.75,6.75-6.75s6.75,3.028,6.75,6.75S20.96,24.004,17.238,24.004z M17.238,12.004c-2.895,0-5.25,2.355-5.25,5.25s2.355,5.25,5.25,5.25c2.895,0,5.25-2.355,5.25-5.25S20.133,12.004,17.238,12.004z"/>
    <path d="M17.238 21.004c-.414 0-.75-.336-.75-.75v-2.25h-2.25c-.414 0-.75-.336-.75-.75s.336-.75.75-.75h2.25v-2.25c0-.414.336-.75.75-.75s.75.336.75.75v2.25h2.25c.414 0 .75.336.75.75s-.336.75-.75.75h-2.25v2.25C17.988 20.667 17.652 21.004 17.238 21.004zM2.238 21.004c-1.241 0-2.25-1.009-2.25-2.25v-16.5c0-1.241 1.009-2.25 2.25-2.25h10.628c.601 0 1.166.234 1.591.658l2.873 2.871c.419.419.66.999.66 1.591v3.129c0 .414-.336.75-.75.75s-.75-.336-.75-.75V5.125c0-.197-.08-.391-.22-.53l-2.873-2.871c-.142-.142-.33-.219-.53-.219H2.238c-.414 0-.75.336-.75.75v16.5c0 .414.336.75.75.75h6c.414 0 .75.336.75.75s-.336.75-.75.75H2.238z"/>
    <path d="M8.988 11.254c-.2 0-.389-.078-.53-.22-.142-.141-.22-.33-.22-.53s.078-.389.22-.53l1.72-1.72-1.72-1.72c-.142-.141-.22-.33-.22-.53s.078-.389.22-.53c.141-.142.33-.22.53-.22s.389.078.53.22l2.25 2.25c.142.141.22.33.22.53s-.078.389-.22.53l-2.25 2.25C9.377 11.176 9.188 11.254 8.988 11.254zM5.988 11.254c-.2 0-.389-.078-.53-.22l-2.25-2.25c-.142-.141-.22-.33-.22-.53s.078-.389.22-.53l2.25-2.25c.142-.142.33-.22.53-.22s.389.078.53.22c.142.141.22.33.22.53s-.078.389-.22.53l-1.72 1.72 1.72 1.72c.142.141.22.33.22.53s-.078.389-.22.53C6.377 11.176 6.188 11.254 5.988 11.254z"/>
</svg>
