<svg xmlns="http://www.w3.org/2000/svg" xml:space="preserve" id="Layer_1" x="0" y="0" version="1.1" viewBox="0 0 24 24">
    <path d="M2.244 24.004c-1.241 0-2.25-1.009-2.25-2.25v-19.5c0-1.241 1.009-2.25 2.25-2.25h10.628c.601 0 1.166.234 1.591.658l5.867 5.872c.425.424.659.989.659 1.591v.065c.003.022.004.043.004.064 0 .022-.002.043-.004.065v4.435c0 .414-.336.75-.75.75s-.75-.336-.75-.75v-3.75h-5.246c-1.241 0-2.25-1.009-2.25-2.25v-5.25h-9.75c-.414 0-.75.336-.75.75v19.5c0 .414.336.75.75.75h9c.414 0 .75.336.75.75s-.336.75-.75.75H2.244zM13.494 6.754c0 .414.336.75.75.75h4.935l-5.685-5.689V6.754zM21.744 24.004c-.414 0-.75-.336-.75-.75v-3.133c-.885-.314-1.5-1.162-1.5-2.121v-2.246c0-.414.336-.75.75-.75s.75.336.75.75V18c0 .414.336.75.75.75s.75-.336.75-.75v-2.25c0-.414.336-.75.75-.75s.75.336.75.75V18c0 .96-.615 1.808-1.5 2.121v3.133C22.494 23.667 22.158 24.004 21.744 24.004z"/>
    <path d="M14.244,24.004c-0.414,0-0.75-0.336-0.75-0.75v-7.5c0-0.414,0.336-0.75,0.75-0.75h0.75c1.654,0,3,1.346,3,3s-1.346,3-3,3 v2.25C14.994,23.667,14.658,24.004,14.244,24.004z M14.994,19.504c0.827,0,1.5-0.673,1.5-1.5s-0.673-1.5-1.5-1.5V19.504z"/>
</svg>
