<svg xmlns="http://www.w3.org/2000/svg" width="24" height="24" viewBox="0 0 24 24" version="1.1" id="Flutter-Logo--Streamline-Ultimate.svg">
<title>flutter</title>
	<path d="M10.593767999999999 0.24976800000000002C10.526544 0.266088 10.434744 0.302472 10.389768 0.330648C10.344792 0.3588 8.28156 2.410032 5.804784000000001 4.888920000000001C0.801432 9.896544 1.211424 9.457728 1.212528 9.804C1.213608 10.14396 1.103136 10.017024 3.3790560000000003 12.292944C5.654688 14.5686 5.525784000000001 14.456424 5.868 14.458824000000002C6.215712 14.461272000000001 5.556432 15.089592 12.750768 7.899216000000001C18.063816 2.5890720000000003 19.236552 1.405632 19.286904 1.303368C19.504800000000003 0.861 19.23888 0.33129600000000003 18.753912 0.24163199999999999C18.54132 0.202344 10.757184 0.210096 10.593767999999999 0.24976800000000002M7.061952 5.7660480000000005L3.023952 9.804096000000001 4.446024 11.226023999999999L5.8680959999999995 12.647952000000002 11.328024 7.187976000000001L16.787952 1.728 13.943952000000001 1.728L11.099952 1.728 7.061952 5.7660480000000005M14.033616 9.55392C13.983912 9.565728 13.897512 9.598152 13.841616000000002 9.625968C13.698096000000001 9.697344 7.73112 15.665088 7.6523520000000005 15.816C7.604159999999999 15.908351999999999 7.596 15.958775999999999 7.596 16.164C7.596 16.369056 7.604184 16.419719999999998 7.652280000000001 16.512C7.691664 16.587576000000002 8.761536000000001 17.67336 11.216280000000001 20.129016C14.392800000000001 23.306712 14.737608 23.644368 14.868 23.705016L15.012 23.772000000000002 18.612000000000002 23.772000000000002L22.212 23.772000000000002 22.34772 23.708376C22.508208 23.633136 22.655688 23.488968 22.732104000000003 23.332632C22.815192 23.162592 22.810992 22.883015999999998 22.722624 22.704C22.66788 22.59312 22.144944000000002 22.0596 19.45284 19.368144L16.248216 16.164288 18.981408000000002 13.428144C21.598584000000002 10.808159999999999 21.71676 10.686096000000001 21.765312 10.553088C21.902112 10.17828 21.728016 9.759888 21.36564 9.592488000000001L21.252 9.540000000000001 17.688 9.536208C15.658224 9.534072 14.085096 9.54168 14.033616 9.55392M11.957952 13.590048C10.555488 14.992560000000001 9.408 16.150896 9.408 16.164144C9.408 16.177368 9.934536000000001 16.714632 10.578048 17.358072L11.74812 18.527928 15.492023999999999 14.783976000000001L19.235952 11.040000000000001 16.871928 11.040000000000001L14.507904 11.040000000000001 11.957952 13.590048M13.997928 18.414072L12.816 19.596168 14.154192000000002 20.934192000000003L15.492408000000001 22.27224 17.85024 22.26612L20.208096 22.26 17.693976 19.745976000000002L15.179856000000001 17.231952000000003 13.997928 18.414072" stroke="none" fill="#000" fill-rule="evenodd"></path>
</svg>
