<svg xmlns="http://www.w3.org/2000/svg" viewBox="0 0 24 24">
    <defs>
        <style>
            .a{fill:none;stroke:currentColor;stroke-linecap:round;stroke-linejoin:round;stroke-width:1.5px}
        </style>
    </defs>
    <path d="M8.25 18.75 2.447 18.75M20.25 8.25v-3a1.5 1.5 0 0 0-1.5-1.5H8.25V2.25A1.5 1.5 0 0 0 6.75.75H2.25a1.5 1.5 0 0 0-1.5 1.5v14.8a1.7 1.7 0 0 0 3.336.438L6.437 9.334A1.5 1.5 0 0 1 7.879 8.25H21.75A1.5 1.5 0 0 1 23.2 10.136" class="a"/>
    <circle cx="17.25" cy="17.25" r="6" class="a"/>
    <path d="M17.25 14.25 17.25 20.25M14.25 17.25 20.25 17.25" class="a"/>
</svg>
