<svg width="28" height="28" viewBox="0 0 28 28" fill="none" xmlns="http://www.w3.org/2000/svg">
<path d="M26 0.5H2C1.17157 0.5 0.5 1.17157 0.5 2V26C0.5 26.8284 1.17157 27.5 2 27.5H26C26.8284 27.5 27.5 26.8284 27.5 26V2C27.5 1.17157 26.8284 0.5 26 0.5Z" fill="currentColor"/>
<path d="M16.8773 5C16.7225 5.13739 16.625 5.33782 16.625 5.56104C16.625 5.97525 16.9608 6.31104 17.375 6.31104H20.6268L6.3125 20.6253V17.3735C6.3125 16.9593 5.97671 16.6235 5.5625 16.6235C5.3385 16.6235 5.13743 16.7217 5 16.8774V22.9321C5.02124 22.9561 5.04399 22.9788 5.06812 23H11.1194C11.2761 22.8625 11.375 22.6608 11.375 22.436C11.375 22.0218 11.0392 21.686 10.625 21.686H7.37316L21.6875 7.37169V10.6235C21.6875 11.0377 22.0233 11.3735 22.4375 11.3735C22.6615 11.3735 22.8626 11.2753 23 11.1196V5.06494C22.9798 5.042 22.9581 5.02031 22.9352 5H16.8773Z" fill="#112"/>
</svg>
