<svg xmlns="http://www.w3.org/2000/svg" width="24" height="24" viewBox="0 0 24 24">
    <path fill="#000" fill-rule="evenodd" stroke="none" d="M5.70216 2.963448C5.248848 3.1498079999999997 5.090231999999999 3.705696 5.377296 4.101984C5.477136 4.239792 5.670024000000001 4.359408 5.842416 4.390392C5.926824 4.405584 6.356928000000001 4.416048 6.898416000000001 4.41612C7.695696 4.41624 7.847592000000001 4.422264 8.091624000000001 4.463472C9.425784 4.688688 10.525824 5.599704 10.992744 6.866016C11.156544 7.3102800000000006 11.204352 7.613688000000001 11.224032000000001 8.334L11.239583999999999 8.904 8.481648 8.904C5.539056 8.904 5.449104 8.907024 4.863336 9.02532C3.968424 9.206064000000001 3.01824 9.653592 2.2680000000000002 10.247664C2.013072 10.449528 1.514424 10.953336 1.314816 11.21076C0.402264 12.387456 -0.038472 13.735776 0.006768 15.212520000000001C0.06295200000000001 17.047008 0.953352 18.757632 2.4296159999999998 19.8672C3.05064 20.333976 3.782688 20.693136000000003 4.498032 20.88204C6.010752 21.281496 7.580112000000001 21.106248 8.952 20.384688C9.40296 20.147496 9.792696 19.871784 10.226208 19.483296L10.408416 19.32 12.023424 19.32L13.638432000000002 19.32 13.809216000000001 19.482167999999998C14.031936 19.693632 14.46744 20.018328 14.784 20.208912C16.766592 21.402576 19.339224 21.350952000000003 21.246000000000002 20.079216000000002C22.595015999999998 19.17948 23.485848 17.895792 23.854776 16.32C23.912808 16.072128 23.976 15.659376000000002 23.976 15.528167999999999C23.976 15.475272 23.986800000000002 15.432 24 15.432C24.015144 15.432 24.024 15.267528000000002 24.024 14.986584C24.024 14.741616 24.014736000000003 14.546904 24.003384 14.553912C23.992056 14.560896 23.975544 14.477856000000001 23.966712 14.369328C23.87724 13.271591999999998 23.410128 12.12804 22.660656 11.172C22.46028 10.916400000000001 21.8814 10.352712 21.611040000000003 10.149887999999999C20.868000000000002 9.592512 20.023728000000002 9.2058 19.15848 9.026496C18.581688 8.906976 18.492984000000003 8.904 15.510144 8.904L12.72 8.904 12.72 8.330207999999999C12.72 7.6612800000000005 12.68364 7.32024 12.561192000000002 6.840624C12.017928000000001 4.712712 10.194864 3.150864 7.995456 2.929056C7.858752 2.91528 7.318752 2.904264 6.795456000000001 2.904576L5.844 2.905128 5.70216 2.963448M5.431223999999999 10.453176C3.6193440000000003 10.718856 2.121144 12.058776 1.6588800000000001 13.827C1.538448 14.287632 1.523928 14.417231999999998 1.5247920000000001 15.024000000000001C1.525536 15.543432000000001 1.530672 15.611712000000002 1.5899520000000003 15.888C1.8982080000000001 17.325216 2.774784 18.469992 4.054224 19.10628C5.45916 19.804992 7.130616 19.73448 8.484 18.919416C8.780496 18.740832 9.02112 18.549864 9.369864 18.216312000000002C9.607728 17.988792 9.71976 17.898792 9.806856000000002 17.865192C9.91836 17.822184 10.025136 17.82 12.024000000000001 17.82L14.124 17.82 14.261904 17.884632C14.358287999999998 17.9298 14.470296 18.019104000000002 14.633904 18.181224C14.892576 18.437544 15.128928 18.637152 15.348 18.784272C15.942072000000001 19.183224000000003 16.658328 19.448208 17.383512 19.537344C17.67636 19.573344000000002 18.415728 19.554503999999998 18.684 19.504224C19.504272 19.350432 20.208432000000002 19.028784 20.81748 18.529656C21.024744 18.359784 21.404088 17.969832 21.558888 17.767488C22.032648000000002 17.148264 22.373856 16.303056 22.464696 15.523800000000001C22.501272 15.209976000000001 22.483392000000002 14.494032 22.432128000000002 14.22C22.291536 13.468272 22.01292 12.821568 21.579144 12.24C21.39816 11.99736 20.983488 11.572296 20.747064 11.387064C20.19564 10.955088 19.502928 10.637016000000001 18.78 10.48392L18.516000000000002 10.428 12.084 10.4244C6.797928000000001 10.421448 5.612664 10.426584 5.431223999999999 10.453176M18.74172 12.452304C18.497544 12.532680000000001 18.275328 12.70896 18.132096 12.935856000000001C17.855448 13.374072000000002 17.952648 14.030304000000001 18.343776 14.365079999999999C18.592728 14.578176 18.807552 14.649312000000002 19.162488 14.63616C19.382016 14.628048 19.423656 14.618832000000001 19.573392000000002 14.545368C19.792944000000002 14.437632 20.016384 14.216088 20.111544 14.011800000000001C20.376383999999998 13.443216000000001 20.139792 12.7806 19.572504 12.502199999999998C19.416384 12.425591999999998 19.387056 12.419592 19.140504 12.414048C18.935832 12.409416 18.845616 12.41808 18.74172 12.452304M5.95008 12.480839999999999C5.721696 12.518256000000001 5.505096 12.68484 5.395488 12.907368C5.342592 13.014768000000002 5.339664 13.048704 5.332536 13.636560000000001L5.325072 14.253120000000001 4.696536 14.260560000000002C3.979464 14.269055999999999 3.9614880000000006 14.273424 3.7544880000000003 14.489448C3.6066000000000003 14.643792000000001 3.544152 14.817744 3.5577360000000002 15.037584C3.571104 15.253752 3.642576 15.400295999999999 3.808752 15.552167999999998C4.005216 15.731712000000002 4.065024 15.744 4.742808 15.744L5.325048000000001 15.744 5.332536 16.362000000000002C5.33976 16.961088 5.341776 16.98348 5.39808 17.093664C5.544936 17.381016 5.801304 17.530848 6.12 17.51556C6.338496 17.505072000000002 6.487248000000001 17.437584 6.627744 17.28516C6.816192 17.080728 6.82632 17.035152 6.835824000000001 16.35L6.844248 15.744 7.429224 15.744C8.12256 15.744 8.193168 15.727992 8.396568 15.524568C8.765664 15.155496000000001 8.653656 14.536584000000001 8.177688 14.314992C8.055 14.257871999999999 8.037552000000002 14.256456 7.448112000000001 14.25624L6.844248 14.256 6.835824000000001 13.65C6.827928000000001 13.079232 6.824232 13.037016 6.7725360000000006 12.924C6.708672000000001 12.784416 6.580272 12.643656 6.444 12.563808C6.359208 12.514152000000001 6.3092880000000005 12.500208 6.1080000000000005 12.470040000000001C6.0816 12.46608 6.010536 12.470952000000002 5.95008 12.480839999999999M0.010008 15.012C0.010032 15.262800000000002 0.013583999999999999 15.362136000000001 0.017904 15.232752C0.022224 15.103368000000001 0.0222 14.898167999999998 0.017856 14.776752C0.013512 14.655336 0.009984 14.761199999999999 0.010008 15.012M16.019688 15.115176C15.534312000000002 15.283008 15.24 15.68688 15.24 16.185096C15.24 16.531464 15.359231999999999 16.80696 15.604584000000001 17.027568C16.0536 17.431272 16.720752 17.411687999999998 17.150232 16.982232C17.410368000000002 16.722072 17.515992 16.405512 17.469552 16.02516C17.41992 15.618744 17.099568 15.241272 16.69836 15.1164C16.512096 15.058416 16.185503999999998 15.057839999999999 16.019688 15.115176"/>
</svg>
