<svg width="24" height="24" viewBox="0 0 24 24" fill="none" xmlns="http://www.w3.org/2000/svg">
<title>gauge-icon</title>
<path d="M12.0003 4.5C10.5115 4.51125 9.0396 4.81565 7.66849 5.39582C6.29738 5.97599 5.05399 6.82056 4.00931 7.88131C2.96463 8.94205 2.13913 10.1982 1.57995 11.578C1.02077 12.9578 0.738868 14.4342 0.750336 15.923V18C0.750336 18.3978 0.908372 18.7794 1.18967 19.0607C1.47098 19.342 1.85251 19.5 2.25033 19.5H21.7503C22.1481 19.5 22.5296 19.342 22.811 19.0607C23.0923 18.7794 23.2503 18.3978 23.2503 18V15.92C23.2727 12.9138 22.1 10.0219 19.9902 7.88025C17.8805 5.73862 15.0065 4.52272 12.0003 4.5Z" stroke="white" stroke-width="1.5" stroke-linecap="round" stroke-linejoin="round"/>
<path d="M9 19.5V18.75C9 17.9544 9.31607 17.1913 9.87868 16.6287C10.4413 16.0661 11.2044 15.75 12 15.75C12.7956 15.75 13.5587 16.0661 14.1213 16.6287C14.6839 17.1913 15 17.9544 15 18.75V19.5" stroke="white" stroke-width="1.5" stroke-linecap="round" stroke-linejoin="round"/>
<path d="M14.25 9.00293L12 15.7529" stroke="white" stroke-width="1.5" stroke-linecap="round" stroke-linejoin="round"/>
<path d="M4.875 15.75C4.66789 15.75 4.5 15.5821 4.5 15.375C4.5 15.1679 4.66789 15 4.875 15" stroke="white" stroke-width="1.5"/>
<path d="M4.875 15.75C5.08211 15.75 5.25 15.5821 5.25 15.375C5.25 15.1679 5.08211 15 4.875 15" stroke="white" stroke-width="1.5"/>
<path d="M6.375 12.0029C6.16789 12.0029 6 11.835 6 11.6279C6 11.4208 6.16789 11.2529 6.375 11.2529" stroke="white" stroke-width="1.5"/>
<path d="M6.375 12.0029C6.58211 12.0029 6.75 11.835 6.75 11.6279C6.75 11.4208 6.58211 11.2529 6.375 11.2529" stroke="white" stroke-width="1.5"/>
<path d="M9.375 9.00293C9.16789 9.00293 9 8.83504 9 8.62793C9 8.42082 9.16789 8.25293 9.375 8.25293" stroke="white" stroke-width="1.5"/>
<path d="M9.375 9.00293C9.58211 9.00293 9.75 8.83504 9.75 8.62793C9.75 8.42082 9.58211 8.25293 9.375 8.25293" stroke="white" stroke-width="1.5"/>
<path d="M17.625 12C17.4179 12 17.25 11.8321 17.25 11.625C17.25 11.4179 17.4179 11.25 17.625 11.25" stroke="white" stroke-width="1.5"/>
<path d="M17.625 12C17.8321 12 18 11.8321 18 11.625C18 11.4179 17.8321 11.25 17.625 11.25" stroke="white" stroke-width="1.5"/>
<path d="M19.125 15.7529C18.9179 15.7529 18.75 15.585 18.75 15.3779C18.75 15.1708 18.9179 15.0029 19.125 15.0029" stroke="white" stroke-width="1.5"/>
<path d="M19.125 15.7529C19.3321 15.7529 19.5 15.585 19.5 15.3779C19.5 15.1708 19.3321 15.0029 19.125 15.0029" stroke="white" stroke-width="1.5"/>
</svg>
