<svg xmlns="http://www.w3.org/2000/svg" id="Gauge-Dashboard--Streamline-Ultimate.svg" width="24" height="24" version="1.1" viewBox="0 0 24 24">
    <path fill="#000" fill-rule="evenodd" stroke="none" d="M11.556000000000001 3.758544C9.177719999999999 3.879504 6.9317519999999995 4.654128 5.064 5.9976C4.4862 6.413232000000001 4.148496000000001 6.69924 3.6037680000000005 7.234296C1.8273840000000001 8.97924 0.62868 11.243016 0.190728 13.68C0.026448000000000003 14.594111999999999 -0.005736 15.156792000000001 0.0048000000000000004 16.932C0.013128 18.334968 0.014736 18.376944 0.066912 18.564C0.096384 18.6696 0.164016 18.847032000000002 0.21720000000000003 18.958272C0.5230319999999999 19.59804 1.071264 20.036376 1.770864 20.200560000000003C1.947984 20.242128 2.391216 20.244 12 20.244C21.608784 20.244 22.052016 20.242128 22.229136 20.200560000000003C22.670496 20.096976 23.005896 19.913544 23.324592 19.601448C23.520816 19.409256000000003 23.661816 19.211376 23.7828 18.958272C23.87628 18.762768 23.976 18.434112 23.976 18.321576C23.976 18.291456 23.986800000000002 18.260160000000003 24 18.252C24.0156 18.242376 24.024 17.707272 24.024 16.725168C24.024 15.893568 24.014808 15.218856 24.003552000000003 15.225792C23.99232 15.232752 23.975856 15.110136000000002 23.967 14.95332C23.936016 14.405184 23.82732 13.691784 23.677896 13.056000000000001C23.295264 11.428056 22.538328 9.829608 21.518472 8.496C20.953536 7.757232000000001 20.12736 6.91692 19.416 6.357576C17.542104000000002 4.8840959999999995 15.314448 3.9994560000000003 12.96 3.7937999999999996C12.648864 3.7666320000000004 11.810832 3.745584 11.556000000000001 3.758544M11.184000000000001 5.293272C9.009384 5.488728 6.967536000000001 6.3258719999999995 5.328 7.694232C3.247608 9.430512 1.944264 11.812704 1.5803760000000002 14.544C1.531608 14.910143999999999 1.526904 15.060408000000002 1.518048 16.53636C1.508592 18.108912 1.5092160000000001 18.134736 1.558632 18.266808C1.6183920000000003 18.426576 1.775472 18.5958 1.938504 18.676104000000002L2.052 18.732 5.154 18.738264L8.256 18.744528000000003 8.256432 18.582264C8.256936 18.395352 8.305007999999999 18.05808 8.3634 17.832C8.6646 16.665528000000002 9.517704 15.696096 10.623456000000001 15.263760000000001C10.848624000000001 15.175728000000001 11.310336000000001 15.048096000000001 11.403912 15.048024C11.435592 15.048 11.665008 14.384664 12.515880000000001 11.832648L13.587936 8.617272 13.699968 8.497968C13.770792 8.422512 13.864944000000001 8.355144 13.956 8.314752C14.081496000000001 8.259096000000001 14.123111999999999 8.25228 14.280000000000001 8.261735999999999C14.683296 8.286071999999999 14.966111999999999 8.560296 14.994528 8.954496C15.005832000000002 9.111288 14.995032 9.145752 14.006976000000002 12.110784C13.457544 13.759560000000002 13.008000000000001 15.115368 13.008000000000001 15.123672000000001C13.008000000000001 15.132 13.037688 15.146184 13.074 15.155208C13.230287999999998 15.194064000000001 13.637208 15.368664 13.836288 15.482304000000001C14.304143999999999 15.749352 14.755224000000002 16.154400000000003 15.055488 16.577136000000003C15.466895999999998 17.156328 15.741912000000001 17.95776 15.743568 18.582264L15.744 18.744528000000003 18.846 18.738264L21.948 18.732 22.061496 18.676104000000002C22.224528000000003 18.5958 22.381608 18.426576 22.441368 18.266808C22.490784 18.134736 22.491408000000003 18.108912 22.481952000000003 16.53636C22.473096 15.059328 22.468439999999998 14.9106 22.419624 14.54664C22.051824 11.804616 20.754264 9.432072 18.672 7.694232C17.356872 6.596616 15.737976000000002 5.819832 14.041224000000001 5.472264C13.079592 5.275272 12.080616 5.21268 11.184000000000001 5.293272M8.999352 7.565376C8.666447999999999 7.68156 8.392536000000002 7.96788 8.29428 8.302368000000001C8.241864 8.480856000000001 8.244696 8.791416000000002 8.300400000000002 8.97036C8.354688000000001 9.144816 8.491584 9.355944000000001 8.623776000000001 9.46908C8.872728 9.682176 9.087552 9.753312 9.442488 9.74016C9.662016 9.732048 9.703656 9.722832 9.853392 9.649368C10.709616 9.2292 10.709088 8.02656 9.852504 7.6062C9.696840000000002 7.529808000000001 9.666336000000001 7.52352 9.420504000000001 7.517352000000001C9.195936 7.511712 9.13236 7.518960000000001 8.999352 7.565376M17.424 10.514592C16.971888 10.592088 16.585608 10.989576 16.51284 11.452176C16.428048 11.991456000000001 16.762056 12.537984000000002 17.272824 12.695736000000002C17.772096 12.84996 18.311016 12.654768 18.585216 12.220416C18.705864 12.029280000000002 18.74988 11.845104 18.738288 11.58C18.725448 11.287056 18.670896 11.132136000000001 18.509712 10.930992000000002C18.247296 10.603463999999999 17.832888 10.444536000000001 17.424 10.514592M5.999352 10.565376C5.666448 10.681560000000001 5.392536 10.967880000000001 5.29428 11.302368000000001C5.2418640000000005 11.480856000000001 5.244696 11.791416000000002 5.3004 11.97036C5.354688 12.144816 5.4915840000000005 12.355944000000001 5.623776 12.46908C5.872992 12.682416 6.088128 12.7536 6.44112 12.739536C6.656832 12.730944000000001 6.7027920000000005 12.720816 6.852 12.648959999999999C7.069224 12.544344 7.2844560000000005 12.331776 7.387536000000001 12.120000000000001C7.658664 11.563056 7.418664 10.884048 6.852504000000001 10.606200000000001C6.696840000000001 10.529808000000001 6.666336 10.523520000000001 6.420504 10.517352C6.195936 10.511712000000001 6.132359999999999 10.51896 5.999352 10.565376M4.590744 14.278032C4.3164240000000005 14.347655999999999 4.018128 14.588712000000001 3.87924 14.853C3.6572159999999996 15.27552 3.7189200000000002 15.768888 4.0374 16.117344000000003C4.2800400000000005 16.382808 4.525296 16.493807999999998 4.872384 16.495176C5.12508 16.496184 5.300064000000001 16.444608 5.50272 16.309344000000003C5.967648 15.999024 6.131976 15.367824 5.8794 14.862383999999999C5.781696 14.66688 5.571144 14.464344 5.353728 14.356704C5.185728 14.273568 5.160792 14.268168 4.921728 14.26344C4.782168 14.26068 4.633248 14.267232 4.590744 14.278032M18.764544 14.311584000000002C18.41316 14.431368 18.128256 14.733576000000001 18.037248 15.08304C17.867424 15.73524 18.289848 16.384008 18.954 16.491C19.690848 16.609704 20.35272 15.953832000000002 20.238816 15.217896C20.172264 14.787863999999999 19.866696 14.42748 19.461816 14.30148C19.255224000000002 14.237184000000001 18.970752 14.241312 18.764544 14.311584000000002M0.011304 16.752C0.011304 17.5902 0.014303999999999999 17.933088 0.017976 17.514C0.021672 17.094888 0.021672 16.409088 0.017976 15.99C0.014303999999999999 15.570912 0.011304 15.913800000000002 0.011304 16.752M11.676 16.525464C11.6496 16.531512 11.569128000000001 16.548432000000002 11.497200000000001 16.563024C11.425248000000002 16.577640000000002 11.26848 16.629576 11.148840000000002 16.678464C10.34928 17.005032 9.83028 17.730287999999998 9.760896 18.618000000000002L9.751056 18.744 12 18.744L14.248944 18.744 14.239104000000001 18.618000000000002C14.189952000000002 17.989008000000002 13.931351999999999 17.467056 13.462632 17.050776C13.226496000000001 16.841064 12.993744 16.715400000000002 12.615816 16.5936C12.449208 16.539888 12.368088 16.52928 12.072000000000001 16.522464000000003C11.8806 16.518048 11.7024 16.519392 11.676 16.525464"/>
</svg>
