<svg xmlns="http://www.w3.org/2000/svg" viewBox="0 0 24 24" id="Git-Logo--Streamline-Ultimate" height="24" width="24">
  <desc>
    Git Logo Streamline Icon: https://streamlinehq.com
  </desc>
  <defs></defs>
  <title>git</title>
  <path d="M0.7494938598 12 11.9995627485 0.7499311113 23.2496316372 12 11.9995627485 23.2500688887Z" fill="none" stroke="currentColor" stroke-linecap="round" stroke-linejoin="round" stroke-width="1.5"></path>
  <path d="m8.125 4.625 2.638 2.638" fill="none" stroke="currentColor" stroke-linecap="round" stroke-linejoin="round" stroke-width="1.5"></path>
  <path d="M14.75 13a1.75 1.75 0 1 0 3.5 0 1.75 1.75 0 1 0 -3.5 0" fill="none" stroke="currentColor" stroke-linecap="round" stroke-linejoin="round" stroke-width="1.5"></path>
  <path d="M10.25 17a1.75 1.75 0 1 0 3.5 0 1.75 1.75 0 1 0 -3.5 0" fill="none" stroke="currentColor" stroke-linecap="round" stroke-linejoin="round" stroke-width="1.5"></path>
  <path d="M10.25 8.5a1.75 1.75 0 1 0 3.5 0 1.75 1.75 0 1 0 -3.5 0" fill="none" stroke="currentColor" stroke-linecap="round" stroke-linejoin="round" stroke-width="1.5"></path>
  <path d="m13.237 9.737 2.026 2.026" fill="none" stroke="currentColor" stroke-linecap="round" stroke-linejoin="round" stroke-width="1.5"></path>
  <path d="m12 10.25 0 5" fill="none" stroke="currentColor" stroke-linecap="round" stroke-linejoin="round" stroke-width="1.5"></path>
</svg>
