<svg xmlns="http://www.w3.org/2000/svg" id="Outline_Version" data-name="Outline Version" viewBox="0 0 24 24">
    <path d="M12,0A12,12,0,0,0,8.59,23.5a1.25,1.25,0,0,0,1.61-1.2V20a.75.75,0,0,0-.91-.73A2,2,0,0,1,6.66,18l-.11-.27.18.13a2.62,2.62,0,0,0,3.06.5.75.75,0,0,0,.44-.58,4.84,4.84,0,0,1,.38-1.36.75.75,0,0,0-.41-1.31c-2.4-.27-3.85-.66-3.85-3.66A3.1,3.1,0,0,1,7.18,9.3a.75.75,0,0,0,.14-.79,2.65,2.65,0,0,1-.06-1.57A5.46,5.46,0,0,1,9,7.81a.76.76,0,0,0,.62.1,8.76,8.76,0,0,1,2.28-.31,8.67,8.67,0,0,1,2.29.31.75.75,0,0,0,.62-.1,5.63,5.63,0,0,1,1.76-.87,2.66,2.66,0,0,1-.05,1.57.75.75,0,0,0,.14.79,3.09,3.09,0,0,1,.82,2.15c0,3-1.46,3.38-3.86,3.65a.75.75,0,0,0-.64.52.74.74,0,0,0,.22.79,3.61,3.61,0,0,1,.43,1.77v4.17a1.25,1.25,0,0,0,1.25,1.25,1.19,1.19,0,0,0,.34,0A12,12,0,0,0,12,0Zm3.16,22V18.18a5.94,5.94,0,0,0-.27-1.72c1.93-.31,4.12-1.18,4.12-5a4.62,4.62,0,0,0-.93-2.83,4.52,4.52,0,0,0-.24-2.73.75.75,0,0,0-.47-.44c-.26-.08-1.24-.25-3.09.92a10.19,10.19,0,0,0-4.7,0c-1.85-1.18-2.83-1-3.09-.92A.75.75,0,0,0,6,5.9a4.51,4.51,0,0,0-.24,2.73,4.62,4.62,0,0,0-.93,2.83c0,3.83,2.21,4.69,4.14,5-.07.24-.13.47-.17.66-.42.11-.65-.06-1.2-.47a7.19,7.19,0,0,0-2.81-1.38.75.75,0,0,0-.74,1.22,5.23,5.23,0,0,1,1.17,2A3.52,3.52,0,0,0,8.7,20.89V22a10.5,10.5,0,1,1,6.46,0Z"/>
</svg>
