<svg xmlns="http://www.w3.org/2000/svg" viewBox="0 0 16 16">
<title>github</title>
    <path fill="#444" d="M16 7.8v-.1c-.9-.1-1.8-.1-2.6 0 .1-.4.2-.9.2-1.5 0-1.2-.4-2.1-1-2.9.1-.7 0-1.5-.2-2.2-.9.1-1.7.4-2.4.9-1.3-.3-2.7-.3-4 0-1-.7-1.8-1-2.6-1-.3.8-.3 1.6-.1 2.4-.7.8-1 1.7-1 2.7 0 .6.1 1.1.3 1.6-.9-.1-1.7-.1-2.6-.1v.1c.9-.1 1.8-.1 2.6 0 0 .1.1.2.1.2-.9.1-1.7.1-2.5.3v.1c.8-.1 1.7-.2 2.6-.2.6 1.1 1.8 1.8 3.6 2-.4.3-.6.7-.7 1.2h-.9c-1.3 0-1.6-1.6-2.9-1.4 1.3.6 1 2.6 3 2.6h.8v1.8c0 .3-.1.5-.3.6.7.1 1.3-.3 1.3-.7v-2.4c0-.2.2-.2.2-.2v2.8c0 .3-.1.4-.3.6.6 0 1.2-.1 1.3-.6v-2.7c0-.1.2-.1.2 0v2.6c0 .5.4.8 1.2.8-.2-.2-.3-.4-.3-.6v-2.8s.2 0 .2.2v2.4c0 .5.6.7 1.4.7-.2-.2-.4-.4-.4-.7v-2.8c0-.4-.2-.8-.5-1.2 1.6-.2 2.8-.9 3.4-2.1 1 0 1.8 0 2.6.2v-.1C15 8 14.2 8 13.2 8c0-.1.1-.1.1-.2.9-.1 1.8-.1 2.7 0zM2.5 10.1c-.1 0-.1 0 0 0-.1-.1 0-.1 0-.1s.1 0 0 .1c.1 0 0 0 0 0zm.2.2s-.1-.1 0 0c-.1-.1 0-.1 0-.1.1-.1.1 0 0 .1.1-.1.1 0 0 0zm.2.2s-.1-.1 0 0c-.1-.1-.1-.1 0-.1.1-.1.1-.1 0 .1.1-.1.1 0 0 0zm.3.2c-.1 0-.1 0-.1-.1 0 0 0-.1.1-.1s.1 0 .1.1-.1.1-.1.1zm.2.3c-.1 0-.1 0-.1-.1s.1-.1.1-.1.1 0 .1.1 0 .1-.1.1zm.3.2c-.1 0-.1 0-.1-.1s.1-.1.1-.1.1 0 .1.1 0 .1-.1.1zm.4.3c-.1 0-.2 0-.2-.1s.1-.1.2-.1.2 0 .2.1c-.1.1-.1.1-.2.1zm.5.1c-.1 0-.2 0-.2-.1s.1-.1.2-.1.2 0 .2.1c-.1.1-.2.1-.2.1zm.5.1c-.1 0-.2 0-.2-.1s.1-.1.2-.1.2 0 .2.1c-.1 0-.2.1-.2.1zm.5 0c-.1 0-.2 0-.2-.1s.1-.1.2-.1.2 0 .2.1c-.1 0-.2.1-.2.1z"/>
</svg>
