<svg xmlns="http://www.w3.org/2000/svg" viewBox="0 0 24 24">
    <defs><style>.a{fill:none;stroke:currentColor;stroke-linecap:round;stroke-linejoin:round;stroke-width:1.5px;}</style></defs>
    <title>go-backward-10-control</title>
    <path class="a" stroke="#000000" stroke-linecap="round" stroke-linejoin="round" d="M7.10998 4.68623C4.21585 6.37208 2.27065 9.50852 2.27065 13.0993c0 5.3734 4.35601 9.7294 9.72945 9.7294 5.3734 0 9.7294 -4.356 9.7294 -9.7294 0 -5.37342 -4.356 -9.72943 -9.7294 -9.72943h-1.9384" stroke-width="1.5"></path>
    <path class="a" stroke="#000000" stroke-linecap="round" stroke-linejoin="round" d="M12 1.17139 9.80151 3.36987 12 5.56836" stroke-width="1.5"></path>
    <path class="a" stroke="#000000" stroke-linecap="round" stroke-linejoin="round" d="m9.13184 9.59937 0 7.00003" stroke-width="1.5"></path>
    <path class="a" stroke="#000000" stroke-linecap="round" stroke-linejoin="round" d="m7.38184 11.3494 0.59996 0c0.63515 0 1.15004 -0.5149 1.15004 -1.1501l0 -0.59993" stroke-width="1.5"></path>
    <path class="a" stroke="#000000" stroke-linecap="round" stroke-linejoin="round" d="m10.8818 16.5994 -3.49996 0" stroke-width="1.5"></path>
    <path class="a" stroke="#000000" stroke-linecap="round" stroke-linejoin="round" d="M13.1182 11.2765v3.6457c0 0.9263 0.7508 1.6772 1.6771 1.6772h0.1457c0.9263 0 1.6772 -0.7509 1.6772 -1.6772v-3.6457c0 -0.9263 -0.7509 -1.67713 -1.6772 -1.67713h-0.1457c-0.9263 0 -1.6771 0.75083 -1.6771 1.67713Z" stroke-width="1.5"></path>
</svg>