<svg xmlns="http://www.w3.org/2000/svg" width="24" height="24" viewBox="0 0 24 24">
    <path fill="#000" fill-rule="evenodd" stroke="none" d="M9.564 6.814656C8.323992 7.0065360000000005 7.310856000000001 7.529688000000001 6.442272 8.426592C5.6085840000000005 9.287495999999999 5.0985119999999995 10.396320000000001 4.966464 11.634912C4.930824 11.969256 4.9494 12.677952000000001 5.00112 12.955464000000001C5.331264 14.727576000000001 6.518928000000001 16.10892 8.192232 16.666992C8.911056 16.906728 9.622608 16.96704 10.428 16.85652C11.914296 16.652568 13.28364 15.807792000000001 14.118792000000001 14.579568L14.270952000000001 14.355792000000001 14.398104000000002 14.611896C15.121872 16.069536 16.485456 17.007096 18.177096000000002 17.210231999999998C18.472872 17.245752 19.172688 17.225736 19.488 17.172768C21.605736 16.816872 23.31972 15.229248 23.841696 13.14C23.990280000000002 12.545352 24.03084 11.765400000000001 23.94348 11.184000000000001C23.638344 9.153672 22.164839999999998 7.591032 20.175648000000002 7.188264000000001C18.160439999999998 6.78024 16.034448 7.672032000000001 14.82672 9.432C14.471015999999999 9.950352 14.193696000000001 10.557648 14.040384 11.154L14.014152000000001 11.256 12.506904 11.256L10.999656 11.256 10.853328 11.329128C10.402248 11.554536 10.293887999999999 12.127248000000002 10.629936 12.509976C10.672320000000001 12.55824 10.772856 12.630648 10.853328 12.670872L10.999656 12.744 12.171840000000001 12.744C13.093584000000002 12.744 13.344 12.750408000000002 13.343976000000001 12.774000000000001C13.343976000000001 12.790512 13.323072000000002 12.858984000000001 13.297536 12.926184000000001C12.856152 14.087448 11.834112000000001 14.987231999999999 10.612944 15.289655999999999C8.729327999999999 15.756120000000001 6.989184000000001 14.728776 6.52356 12.8754C6.475992000000001 12.686112 6.469416000000001 12.598896 6.469224 12.156C6.469032 11.613528 6.496968 11.416464 6.638592 10.961447999999999C6.858096000000001 10.256232 7.323023999999999 9.5898 7.945272 9.08844C8.742456 8.446152 9.916704000000001 8.138856 10.884 8.319408C11.674392 8.466936 12.301560000000002 8.844144 12.859248000000001 9.507432C13.095168 9.788016 13.224576 9.866616 13.477295999999999 9.882840000000002C13.705008000000001 9.897456 13.856376000000001 9.846960000000001 14.016623999999998 9.702888C14.243712000000002 9.498719999999999 14.330304 9.207552000000002 14.247576 8.926272C14.200608 8.766552 13.98276 8.471928 13.694952 8.178936C13.011432000000001 7.483008 12.120144 7.011960000000001 11.132496 6.824592C10.812792 6.763968 9.927864 6.758352 9.564 6.814656M1.68 7.82244C1.453368 7.8916319999999995 1.260504 8.072376 1.1768640000000001 8.293944C1.039248 8.658504 1.212888 9.064128 1.58028 9.236376L1.716 9.3 2.892 9.3C3.9936240000000005 9.3 4.075536 9.297096 4.187328 9.253992C4.3272 9.20004 4.521 9.027504 4.586976 8.898168C4.791384 8.497512 4.599312 8.00664 4.17504 7.845432C4.06344 7.803024 3.978432 7.8001439999999995 2.897736 7.8020640000000006C2.260992 7.803192 1.713 7.81236 1.68 7.82244M18.732 8.62584C18.102096 8.719272 17.59092 8.920872 17.04876 9.289728C16.804608 9.455832000000001 16.274496000000003 9.986832 16.092096 10.248C15.815832000000002 10.643592 15.57444 11.198592 15.471 11.676C15.377328 12.108312 15.376224 12.691968 15.468216 13.14C15.746904 14.497368 16.844496000000003 15.512400000000001 18.23472 15.698400000000001C18.554064 15.741144 19.151688 15.712416 19.464 15.639336C20.604312 15.372504 21.545592 14.631576 22.072536 13.58604C22.527432 12.683424 22.60896 11.713175999999999 22.305984000000002 10.807632C22.024848 9.96732 21.455232 9.314184000000001 20.676000000000002 8.938632C20.371872 8.79204 20.191704 8.730096000000001 19.872 8.662128000000001C19.576824000000002 8.599392 19.02804 8.58192 18.732 8.62584M0.527856 10.078416C0.346008 10.133735999999999 0.158424 10.298712 0.067512 10.48332C-0.012096 10.644912 -0.011904 10.955472 0.06789600000000001 11.117496C0.147096 11.278296 0.317616 11.43768 0.472464 11.495616C0.59748 11.542392 0.6561359999999999 11.544 2.2286159999999997 11.544C4.0752239999999995 11.544 3.988008 11.552544 4.209696 11.349936C4.38324 11.191320000000001 4.450512 11.03772 4.450512 10.8C4.450512 10.562280000000001 4.38324 10.40868 4.209696 10.250064C3.9876479999999996 10.04712 4.076592 10.055712 2.221728 10.058064C1.323168 10.059192 0.560928 10.06836 0.527856 10.078416M2.63016 12.347448C2.0642400000000003 12.580104000000002 1.996416 13.344816 2.512416 13.674888000000001C2.6762639999999998 13.77972 2.871336 13.807319999999999 3.3673200000000003 13.795848C3.749952 13.787016 3.7896 13.781808 3.912 13.724447999999999C4.43436 13.479624 4.514568 12.788712000000002 4.060824 12.442248000000001C3.886152 12.30888 3.7744560000000003 12.287928 3.2416320000000005 12.288576C2.799936 12.289104000000002 2.763552 12.292608000000001 2.63016 12.347448"/>
</svg>
