<svg width="48" height="49" viewBox="0 0 48 49" fill="none" xmlns="http://www.w3.org/2000/svg">
<path fill-rule="evenodd" clip-rule="evenodd" d="M46.0002 25.063C46.0002 23.253 45.8502 21.933 45.5282 20.563H24.4482V28.729H36.8202C36.5722 30.757 35.2262 33.813 32.2322 35.867L32.1902 36.139L38.8542 41.199L39.3142 41.243C43.5582 37.407 46.0002 31.759 46.0002 25.063Z" fill="white"/>
<path fill-rule="evenodd" clip-rule="evenodd" d="M24.4496 46.5729C30.5096 46.5729 35.5976 44.6168 39.3156 41.2428L32.2316 35.8668C30.3356 37.1628 27.7916 38.0669 24.4496 38.0669C21.6325 38.0671 18.886 37.1854 16.5954 35.5455C14.3048 33.9056 12.5851 31.5897 11.6776 28.9229L11.4136 28.9449L4.48355 34.2008L4.39355 34.4489C8.08555 41.6349 15.6696 46.5729 24.4496 46.5729Z" fill="white"/>
<path fill-rule="evenodd" clip-rule="evenodd" d="M11.68 28.9229C11.1881 27.525 10.9332 26.0547 10.926 24.5729C10.926 23.0569 11.202 21.5909 11.648 20.2229L11.636 19.9289L4.62 14.5889L4.39 14.6969C2.82159 17.7528 2.00238 21.1379 2 24.5729C2 28.1169 2.872 31.4669 4.394 34.4489L11.68 28.9229Z" fill="white"/>
<path fill-rule="evenodd" clip-rule="evenodd" d="M24.4496 11.0788C28.6656 11.0788 31.5076 12.8628 33.1296 14.3548L39.4636 8.29275C35.5736 4.74875 30.5096 2.57275 24.4496 2.57275C15.6676 2.57275 8.08555 7.51075 4.39355 14.6968L11.6536 20.2228C12.5689 17.5561 14.2939 15.2417 16.5878 13.6024C18.8817 11.9632 21.6301 11.0809 24.4496 11.0788Z" fill="white"/>
</svg>
