<svg xmlns="http://www.w3.org/2000/svg" xml:space="preserve" id="Layer_1" x="0" y="0" version="1.1" viewBox="0 0 24 24">
    <path d="M0.75,18.75c-0.2,0-0.389-0.078-0.53-0.22C0.078,18.389,0,18.2,0,18s0.078-0.389,0.22-0.53l7.189-7.189 c0.425-0.425,0.99-0.658,1.592-0.658c0.602,0,1.167,0.234,1.591,0.658l3.128,3.128c0.142,0.142,0.331,0.22,0.531,0.22 c0.2,0,0.389-0.078,0.531-0.22l6.659-6.659H16.5c-0.414,0-0.75-0.336-0.75-0.75s0.336-0.75,0.75-0.75h6.75 c0.089,0,0.176,0.016,0.261,0.048c0.011,0.004,0.022,0.008,0.032,0.012c0.176,0.072,0.325,0.221,0.401,0.405 c0.003,0.008,0.007,0.017,0.01,0.026C23.984,5.822,24,5.911,24,6v6.75c0,0.414-0.336,0.75-0.75,0.75s-0.75-0.336-0.75-0.75V7.811 l-6.659,6.659c-0.425,0.425-0.99,0.658-1.592,0.658c-0.601,0-1.166-0.233-1.59-0.658l-3.129-3.129 C9.389,11.2,9.201,11.122,9,11.122c-0.2,0-0.389,0.078-0.53,0.219L1.28,18.53C1.139,18.672,0.95,18.75,0.75,18.75z"/>
</svg>
