<svg xmlns="http://www.w3.org/2000/svg" viewBox="0 0 24 24">
    <path d="M16.64 24c-.585 0-1.129-.261-1.491-.718-.016-.021-.031-.041-.044-.061l-3.018-4.638c-.846-1.076-1.169-2.489-.884-3.824l-1.244-1.227c-.791-.791-.96-1.988-.452-2.953L.226 1.278C-.066.985-.065.51.227.218c.142-.141.33-.219.53-.219.201 0 .389.078.531.22l9.28 9.301c.359-.188.758-.287 1.17-.287.672 0 1.304.261 1.777.735l1.257 1.24c.312-.065.63-.098.949-.098 1.03 0 2.042.351 2.852.988l4.639 3.028c.022.014.042.029.061.044.727.581.924 1.627.457 2.435l-1.917 3.882c-.072.147-.193.268-.341.341l-3.88 1.916C17.304 23.911 16.975 24 16.64 24L16.64 24zM16.339 22.369c.076.083.184.131.299.131.073 0 .146-.02.208-.058.025-.014.043-.024.062-.033l1.457-.72-2.41-2.41c-.292-.292-.292-.768 0-1.061.142-.142.33-.22.53-.22s.389.078.53.22l2.77 2.77.796-.393.639-1.294-2.936-2.201c-.331-.248-.398-.719-.15-1.05.142-.188.366-.3.601-.3.163 0 .318.052.449.149l2.712 2.033.501-1.015c.01-.019.019-.036.029-.053.099-.165.067-.379-.073-.507l-4.63-3.022c-.022-.014-.042-.029-.061-.045-.549-.439-1.241-.682-1.945-.682-.833 0-1.615.325-2.205.914-1.126 1.125-1.225 2.911-.231 4.155.016.02.031.04.044.061L16.339 22.369zM11.735 10.732c-.272 0-.527.105-.719.297-.397.397-.396 1.043 0 1.439l.801.79c.183-.29.395-.557.635-.797.243-.243.512-.457.806-.641l-.799-.788C12.264 10.838 12.007 10.732 11.735 10.732zM18.007 9.748c-.414 0-.75-.336-.75-.75v-1.5h-1.5c-.414 0-.75-.336-.75-.75s.336-.75.75-.75h1.5v-1.5c0-.414.336-.75.75-.75s.75.336.75.75v1.5h1.5c.414 0 .75.336.75.75s-.336.75-.75.75h-1.5v1.5C18.757 9.412 18.421 9.748 18.007 9.748zM10.507 4.498c-.414 0-.75-.336-.75-.75v-.75h-.75c-.414 0-.75-.336-.75-.75s.336-.75.75-.75h.75v-.75c0-.414.336-.75.75-.75s.75.336.75.75v.75h.75c.414 0 .75.336.75.75s-.336.75-.75.75h-.75v.75C11.257 4.162 10.921 4.498 10.507 4.498zM2.257 14.249c-.414 0-.75-.336-.75-.75v-.75h-.75c-.414 0-.75-.336-.75-.75 0-.414.336-.75.75-.75h.75v-.75c0-.414.336-.75.75-.75s.75.336.75.75v.75h.75c.414 0 .75.336.75.75 0 .413-.336.75-.75.75h-.75v.75C3.007 13.912 2.671 14.249 2.257 14.249zM9.007 23.999c-.414 0-.75-.336-.75-.75v-.75h-.75c-.414 0-.75-.336-.75-.75s.336-.75.75-.75h.75v-.75c0-.414.336-.75.75-.75s.75.336.75.75v.75h.75c.414 0 .75.336.75.75s-.336.75-.75.75h-.75v.75C9.757 23.662 9.421 23.999 9.007 23.999zM7.338 17.771c-.044 0-.088-.004-.13-.011-.513-.06-.923-.47-.983-.983-.008-.043-.011-.087-.011-.131s.004-.088.011-.131c.06-.513.47-.922.983-.982.042-.008.086-.011.13-.011s.088.004.13.011c.513.06.923.469.983.982.008.043.011.087.011.131s-.004.088-.011.131c-.06.513-.47.922-.983.983C7.426 17.767 7.383 17.771 7.338 17.771zM2.936 21.683c-.044 0-.088-.004-.13-.011-.513-.06-.923-.47-.983-.982-.008-.043-.011-.087-.011-.131s.004-.088.011-.131c.06-.513.47-.922.983-.983.042-.007.086-.011.13-.011s.088.004.13.011c.513.061.923.47.983.983.008.043.011.087.011.131s-.004.088-.011.131c-.06.513-.47.922-.983.982C3.024 21.679 2.981 21.683 2.936 21.683zM21.034 2.998c-.044 0-.088-.004-.131-.011-.513-.06-.922-.47-.983-.983-.007-.042-.011-.086-.011-.13s.004-.088.011-.13c.06-.513.47-.923.983-.983.043-.008.087-.011.131-.011s.088.004.131.011c.513.06.922.47.982.983.008.042.011.086.011.13s-.004.088-.011.13c-.06.513-.469.923-.982.983C21.122 2.995 21.078 2.998 21.034 2.998z"/>
</svg>
