<?xml version="1.0" encoding="utf-8"?>
<svg version="1.1" id="Regular" xmlns="http://www.w3.org/2000/svg" xmlns:xlink="http://www.w3.org/1999/xlink" x="0px" y="0px"
	 viewBox="0 0 24 24" style="enable-background:new 0 0 24 24;" xml:space="preserve">
<title>halloween-broom</title>
<g>
	<path d="M16.64,24c-0.585,0-1.129-0.261-1.491-0.718c-0.016-0.021-0.031-0.041-0.044-0.061l-3.018-4.638
		c-0.846-1.076-1.169-2.489-0.884-3.824l-1.244-1.227c-0.791-0.791-0.96-1.988-0.452-2.953L0.226,1.278
		C-0.066,0.985-0.065,0.51,0.227,0.218c0.142-0.141,0.33-0.219,0.53-0.219c0.201,0,0.389,0.078,0.531,0.22l9.28,9.301
		c0.359-0.188,0.758-0.287,1.17-0.287c0.672,0,1.304,0.261,1.777,0.735l1.257,1.24c0.312-0.065,0.63-0.098,0.949-0.098
		c1.03,0,2.042,0.351,2.852,0.988l4.639,3.028c0.022,0.014,0.042,0.029,0.061,0.044c0.727,0.581,0.924,1.627,0.457,2.435
		l-1.917,3.882c-0.072,0.147-0.193,0.268-0.341,0.341l-3.88,1.916C17.304,23.911,16.975,24,16.64,24L16.64,24z M16.339,22.369
		c0.076,0.083,0.184,0.131,0.299,0.131c0.073,0,0.146-0.02,0.208-0.058c0.025-0.014,0.043-0.024,0.062-0.033l1.457-0.72l-2.41-2.41
		c-0.292-0.292-0.292-0.768,0-1.061c0.142-0.142,0.33-0.22,0.53-0.22s0.389,0.078,0.53,0.22l2.77,2.77l0.796-0.393l0.639-1.294
		l-2.936-2.201c-0.331-0.248-0.398-0.719-0.15-1.05c0.142-0.188,0.366-0.3,0.601-0.3c0.163,0,0.318,0.052,0.449,0.149l2.712,2.033
		l0.501-1.015c0.01-0.019,0.019-0.036,0.029-0.053c0.099-0.165,0.067-0.379-0.073-0.507l-4.63-3.022
		c-0.022-0.014-0.042-0.029-0.061-0.045c-0.549-0.439-1.241-0.682-1.945-0.682c-0.833,0-1.615,0.325-2.205,0.914
		c-1.126,1.125-1.225,2.911-0.231,4.155c0.016,0.02,0.031,0.04,0.044,0.061L16.339,22.369z M11.735,10.732
		c-0.272,0-0.527,0.105-0.719,0.297c-0.397,0.397-0.396,1.043,0,1.439l0.801,0.79c0.183-0.29,0.395-0.557,0.635-0.797
		c0.243-0.243,0.512-0.457,0.806-0.641l-0.799-0.788C12.264,10.838,12.007,10.732,11.735,10.732z"/>
	<path d="M18.007,9.748c-0.414,0-0.75-0.336-0.75-0.75v-1.5h-1.5c-0.414,0-0.75-0.336-0.75-0.75s0.336-0.75,0.75-0.75h1.5v-1.5
		c0-0.414,0.336-0.75,0.75-0.75s0.75,0.336,0.75,0.75v1.5h1.5c0.414,0,0.75,0.336,0.75,0.75s-0.336,0.75-0.75,0.75h-1.5v1.5
		C18.757,9.412,18.421,9.748,18.007,9.748z"/>
	<path d="M10.507,4.498c-0.414,0-0.75-0.336-0.75-0.75v-0.75h-0.75c-0.414,0-0.75-0.336-0.75-0.75s0.336-0.75,0.75-0.75h0.75v-0.75
		c0-0.414,0.336-0.75,0.75-0.75s0.75,0.336,0.75,0.75v0.75h0.75c0.414,0,0.75,0.336,0.75,0.75s-0.336,0.75-0.75,0.75h-0.75v0.75
		C11.257,4.162,10.921,4.498,10.507,4.498z"/>
	<path d="M2.257,14.249c-0.414,0-0.75-0.336-0.75-0.75v-0.75h-0.75c-0.414,0-0.75-0.336-0.75-0.75c0-0.414,0.336-0.75,0.75-0.75
		h0.75v-0.75c0-0.414,0.336-0.75,0.75-0.75s0.75,0.336,0.75,0.75v0.75h0.75c0.414,0,0.75,0.336,0.75,0.75
		c0,0.413-0.336,0.75-0.75,0.75h-0.75v0.75C3.007,13.912,2.671,14.249,2.257,14.249z"/>
	<path d="M9.007,23.999c-0.414,0-0.75-0.336-0.75-0.75v-0.75h-0.75c-0.414,0-0.75-0.336-0.75-0.75s0.336-0.75,0.75-0.75h0.75v-0.75
		c0-0.414,0.336-0.75,0.75-0.75s0.75,0.336,0.75,0.75v0.75h0.75c0.414,0,0.75,0.336,0.75,0.75s-0.336,0.75-0.75,0.75h-0.75v0.75
		C9.757,23.662,9.421,23.999,9.007,23.999z"/>
	<path d="M7.338,17.771c-0.044,0-0.088-0.004-0.13-0.011c-0.513-0.06-0.923-0.47-0.983-0.983c-0.008-0.043-0.011-0.087-0.011-0.131
		s0.004-0.088,0.011-0.131c0.06-0.513,0.47-0.922,0.983-0.982c0.042-0.008,0.086-0.011,0.13-0.011s0.088,0.004,0.13,0.011
		c0.513,0.06,0.923,0.469,0.983,0.982c0.008,0.043,0.011,0.087,0.011,0.131s-0.004,0.088-0.011,0.131
		c-0.06,0.513-0.47,0.922-0.983,0.983C7.426,17.767,7.383,17.771,7.338,17.771z"/>
	<path d="M2.936,21.683c-0.044,0-0.088-0.004-0.13-0.011c-0.513-0.06-0.923-0.47-0.983-0.982c-0.008-0.043-0.011-0.087-0.011-0.131
		s0.004-0.088,0.011-0.131c0.06-0.513,0.47-0.922,0.983-0.983c0.042-0.007,0.086-0.011,0.13-0.011s0.088,0.004,0.13,0.011
		c0.513,0.061,0.923,0.47,0.983,0.983c0.008,0.043,0.011,0.087,0.011,0.131s-0.004,0.088-0.011,0.131
		c-0.06,0.513-0.47,0.922-0.983,0.982C3.024,21.679,2.981,21.683,2.936,21.683z"/>
	<path d="M21.034,2.998c-0.044,0-0.088-0.004-0.131-0.011c-0.513-0.06-0.922-0.47-0.983-0.983c-0.007-0.042-0.011-0.086-0.011-0.13
		s0.004-0.088,0.011-0.13c0.06-0.513,0.47-0.923,0.983-0.983c0.043-0.008,0.087-0.011,0.131-0.011s0.088,0.004,0.131,0.011
		c0.513,0.06,0.922,0.47,0.982,0.983c0.008,0.042,0.011,0.086,0.011,0.13s-0.004,0.088-0.011,0.13
		c-0.06,0.513-0.469,0.923-0.982,0.983C21.122,2.995,21.078,2.998,21.034,2.998z"/>
</g>
</svg>
