<svg xmlns="http://www.w3.org/2000/svg" width="24" height="24" viewBox="0 0 24 24" version="1.1">
  <title>hammer-wrench</title>
  <path d="M4.585248 0.038976000000000004C3.897408 0.132312 2.9993760000000003 0.450072 2.800128 0.670584C2.642184 0.845424 2.604336 0.9454080000000001 2.604336 1.188C2.604336 1.368288 2.613696 1.421856 2.66088 1.512C2.697072 1.581144 3.008688 1.91352 3.527184 2.436C4.282608000000001 3.1972319999999996 4.340544 3.261672 4.3905840000000005 3.396C4.53336 3.779424 4.360368 4.209936 3.998376 4.372008C3.904536 4.414008 3.8312399999999998 4.42692 3.684 4.4274C3.3717360000000003 4.428384 3.3637919999999997 4.422504 2.446104 3.5123759999999997C1.7563920000000002 2.828328 1.6198800000000002 2.703792 1.499208 2.648544C1.217616 2.51964 0.875424 2.5808880000000003 0.660816 2.798664C0.479544 2.982552 0.20822400000000002 3.6790320000000003 0.07992 4.289736C0.021936 4.56576 0.014616 4.657776 0.005784 5.221944C-0.004656 5.8882319999999995 0.022727999999999998 6.164064000000001 0.146976 6.643584C0.547752 8.190192 1.646496 9.500304 3.084 10.145544C3.8237520000000003 10.477608 4.469064 10.614552000000002 5.292 10.614144C5.897832 10.613856 6.422016 10.532544 6.9238800000000005 10.361016000000001L7.091735999999999 10.303632 7.4847600000000005 10.674479999999999C7.936007999999999 11.10024 8.036136 11.161007999999999 8.2896 11.162952C8.495424 11.164536 8.658288 11.108208 8.794464 10.988328C9.057144 10.757112000000001 9.130824 10.40676 8.984568000000001 10.084224C8.913599999999999 9.927744 7.7598 8.82768 7.571088 8.736576C7.395672 8.651904 7.1464799999999995 8.655432 6.936 8.745576C6.367296 8.989128000000001 5.9462399999999995 9.093072 5.4456240000000005 9.113520000000001C4.283808 9.160944 3.18048 8.688072 2.4213120000000004 7.817328C1.97736 7.30812 1.6934640000000003 6.726936 1.55508 6.043872C1.508184 5.812392 1.5 5.698272 1.5 5.2759920000000005C1.5 5.003184 1.508016 4.771968 1.517808 4.762176C1.5276 4.752408 1.6842 4.889616 1.8658080000000001 5.06712C2.047416 5.2446 2.2554 5.43444 2.328 5.488944C3.255312 6.1851840000000005 4.566648 6.0650640000000005 5.356920000000001 5.211480000000001C5.6064240000000005 4.942008 5.796600000000001 4.5840000000000005 5.894232 4.2C5.961696 3.9346799999999997 5.956296 3.373416 5.883744 3.108C5.76336 2.667768 5.571888 2.365344 5.111832 1.888896L4.776744 1.5418560000000001 4.8513839999999995 1.526928C5.025072 1.492176 5.635104 1.5121920000000002 5.931 1.562328C6.70056 1.69272 7.305168 1.992504 7.913735999999999 2.545392C8.164536 2.773224 8.267784 2.82 8.52 2.82C8.762184 2.82 8.887128 2.76804 9.059544 2.5956C9.197376 2.457792 9.264 2.286168 9.263976000000001 2.0690880000000003C9.263952 1.84152 9.177528 1.668504 8.961216 1.4630880000000002C8.095032 0.640512 7.047 0.16048800000000002 5.82 0.02436C5.518511999999999 -0.009096 4.884072 -0.0015840000000000001 4.585248 0.038976000000000004M15.098712 0.035616C14.75604 0.11320799999999999 14.449079999999999 0.250344 14.189112 0.44198400000000004C14.10612 0.50316 13.504655999999999 1.084848 12.852528000000001 1.7346000000000001C11.598528 2.9840880000000003 11.51568 3.07944 11.344896 3.469752C11.168232000000001 3.8735039999999996 11.120904 4.447176000000001 11.228232 4.884C11.299007999999999 5.172072 11.48028 5.535 11.672736 5.773992C11.758656 5.880672 12.420096000000001 6.55368 13.142616 7.269552000000001L14.456280000000001 8.571144 14.338152000000001 8.68632C14.27316 8.749656 12.934800000000001 10.041144 11.364 11.556264C9.7932 13.071384 8.43012 14.38704 8.334935999999999 14.479968L8.161896 14.648928 7.842936 14.338368000000001C7.4886479999999995 13.993416 7.344744 13.900920000000001 7.041696 13.823400000000001C6.603840000000001 13.71144 6.119352 13.805064 5.7753120000000004 14.068176C5.720688 14.109936 4.566096 15.252 3.209568 16.606056C1.568712 18.243936 0.699504 19.128576 0.612792 19.248984C0.342768 19.623936 0.161304 20.047848000000002 0.084096 20.484096C0.034895999999999996 20.762112 0.034608 21.260352 0.08352 21.536568C0.29508 22.731792000000002 1.229232 23.6862 2.436 23.94012C2.72244 24.000384 3.180792 24.0126 3.4562880000000002 23.967288C3.947088 23.886576 4.316712 23.742984000000003 4.715952 23.477928C4.93212 23.334432 5.197992 23.077392 7.38936 20.893296C8.727696 19.559376 9.864072 18.423936 9.91464 18.370079999999998C10.045944 18.230256 10.169736 18.014592 10.23036 17.82C10.304136 17.583264 10.30404 17.192088000000002 10.23012 16.956C10.140768 16.670544 10.025856000000001 16.507968 9.618504 16.090704000000002L9.241007999999999 15.70404 12.255888 12.790008C13.914072 11.187312 15.329471999999999 9.823128 15.401184 9.758472000000001L15.531576000000001 9.640968 16.867800000000003 10.972536000000002C18.420072 12.519456 18.43584 12.532128 19.028664 12.713016C19.214232 12.769632 19.27632 12.776448 19.62 12.777912C20.033976000000003 12.779688 20.190024 12.750623999999998 20.527584 12.609C20.895072000000003 12.4548 21.017664 12.3486 22.279056 11.09124C23.545848 9.828504 23.65164 9.707256 23.808696 9.338208C24.129552 8.584200000000001 24.023400000000002 7.7130719999999995 23.534064 7.084224C23.475768000000002 7.009295999999999 21.977256 5.499744000000001 20.204040000000003 3.7296479999999996C17.410512 0.941064 16.95276 0.493752 16.776 0.379728C16.540368 0.22773600000000002 16.330008 0.130992 16.092 0.06516C15.866712000000001 0.002856 15.315816 -0.013536 15.098712 0.035616M15.311856 1.534416C15.152232 1.582968 15.006696 1.714776 13.948968 2.7688800000000002C12.69528 4.018248 12.69276 4.02132 12.676319999999999 4.319544C12.669888 4.436304 12.68088 4.512552 12.71964 4.62C12.770351999999999 4.760592 12.847296 4.83948 15.967775999999999 7.949736C19.580496 11.5506 19.296792 11.295192 19.661472 11.275176C19.804176 11.267352 19.89036 11.248896 19.968 11.20956C20.042208 11.171952 20.434224 10.7976 21.220920000000003 10.013064C22.174896 9.061728 22.374672 8.851032 22.418856 8.749656C22.524144 8.508096 22.50096 8.2272 22.359912 8.035295999999999C22.318152 7.9784880000000005 20.863704000000002 6.5152079999999994 19.127807999999998 4.783584C15.623591999999999 1.288008 15.868008000000001 1.510728 15.540000000000001 1.5143039999999999C15.4476 1.515312 15.344928 1.52436 15.311856 1.534416M15.541968 12.946032C15.375552 13.016184 15.222144 13.15776 15.141456 13.315608000000001C15.093432000000002 13.409544 15.084 13.463448 15.084 13.644C15.084 13.957752 15.113952000000001 14.00208 15.756336000000001 14.638728C16.373328 15.250248000000001 16.44348 15.297024 16.738632 15.294047999999998C16.872456 15.29268 16.945776 15.276336 17.088 15.216192000000001C17.786328 14.920848 18.342336 14.821032 18.978216 14.876807999999999C20.013264 14.967576000000001 20.861352 15.391176 21.54696 16.159848C21.9918 16.658544 22.308456 17.314008 22.430112 17.988C22.47612 18.242928 22.501128 18.793608 22.476936 19.019496L22.459848 19.179024 22.143936 18.870696C21.76476 18.500616 21.55716 18.339503999999998 21.296928 18.213312000000002C20.783472 17.964336 20.124048 17.920968 19.596 18.101471999999998C18.952728 18.32136 18.4158 18.834312 18.194928 19.44C18.079272 19.757112 18.061296 19.869648 18.06252 20.268C18.0636 20.613912 18.070104 20.672904 18.127968 20.862768000000003C18.206088 21.118944000000003 18.341616000000002 21.393624 18.487704 21.591792C18.547632 21.67308 18.739176 21.886392 18.913368000000002 22.065792000000002C19.087560000000003 22.245216 19.226015999999998 22.392912 19.221024 22.39404C19.11888 22.417176 18.663072 22.427736000000003 18.446616000000002 22.411968C17.751192 22.361304 17.141832 22.152744 16.558872 21.76584C16.252824 21.562728 15.757272 21.067176 15.554160000000001 20.761128C15.098736 20.074920000000002 14.87472 19.281456000000002 14.910696 18.482112C14.932512000000001 17.997576 15.028272 17.598384 15.243456 17.094816C15.328488 16.895832000000002 15.344040000000001 16.834104 15.345312000000002 16.690296C15.346608 16.545624 15.335351999999999 16.497287999999998 15.268944000000001 16.362384C15.201839999999999 16.226088 15.116832000000002 16.131576 14.655287999999999 15.680088C14.044896 15.082968000000001 13.984872 15.042 13.700424 15.028104C13.540584 15.020304000000001 13.497912000000001 15.027624 13.370472 15.084816C13.086888000000002 15.212088 12.927743999999999 15.457656 12.927743999999999 15.768C12.927743999999999 16.048464000000003 12.974544 16.12848 13.371839999999999 16.527216L13.709807999999999 16.866408 13.647456 17.055216C13.306224000000002 18.088632 13.319496000000001 19.266624 13.684704000000002 20.361336C14.185416 21.862152000000002 15.449304 23.127888000000002 16.956 23.637432C18.23664 24.070512 19.554144 24.02496 20.788415999999998 23.50488C21.083952 23.380344 21.234672 23.262024 21.330912 23.078952C21.387192000000002 22.971912 21.395568 22.928040000000003 21.395616 22.740000000000002C21.39564 22.55964 21.386328 22.506168 21.33912 22.416C21.302927999999998 22.346856000000002 20.991312 22.01448 20.472816 21.492C19.727208 20.740655999999998 19.658952000000003 20.664984 19.611528 20.537088C19.499136 20.234112 19.574016 19.898448 19.799304 19.695287999999998C19.954224 19.555608 20.09136 19.502904 20.304000000000002 19.501344000000003C20.627688 19.498968 20.654208 19.518384 21.563328 20.423688C22.463304 21.319896 22.494456 21.342888000000002 22.810704 21.344904C23.14236 21.34704 23.362368 21.186888 23.534832 20.81784C23.852376000000003 20.138328 24.021192000000003 19.298208 23.992584 18.54C23.937696 17.085696 23.404848 15.858312000000002 22.401576000000002 14.8752C22.105415999999998 14.584992 21.929064 14.443416 21.567576 14.205552C20.730072 13.654512 19.745136000000002 13.366344000000002 18.684 13.361904C18.11076 13.359528000000001 17.640743999999998 13.42836 17.14008 13.588056L16.916184 13.65948 16.588079999999998 13.338696C16.209216 12.968256000000002 16.111079999999998 12.908928 15.85452 12.895248C15.713351999999999 12.887736 15.659544 12.896472 15.541968 12.946032M4.22052 17.731392C2.137272 19.818432 1.7736480000000001 20.192856000000003 1.71048 20.316C1.491096 20.743536 1.486008 21.230448 1.696344 21.669792C1.822152 21.932616000000003 2.102304 22.20852 2.376 22.339224C2.6349600000000004 22.462872 2.8162320000000003 22.497864 3.1143599999999996 22.48176C3.400296 22.466304 3.6110640000000003 22.40256 3.8177280000000002 22.269023999999998C3.926976 22.198415999999998 4.673256 21.471768 6.375336000000001 19.778664L8.778672 17.388 7.851336000000001 16.45644C7.341311999999999 15.944088 6.863856000000001 15.472199999999999 6.790344 15.407832L6.656688000000001 15.29076 4.22052 17.731392" stroke="none" fill="currentColor" fill-rule="evenodd" stroke-width="0.024"></path>
</svg>