<svg viewBox="0 0 24 24" xmlns="http://www.w3.org/2000/svg" id="Human-Resources-Hierarchy--Streamline-Ultimate" height="24" width="24">
  <desc>
    Human Resources Hierarchy Streamline Icon: https://streamlinehq.com
  </desc>
  <path d="M3.749 18.75v-4.023a0.477 0.477 0 0 1 0.477 -0.477h15.546a0.477 0.477 0 0 1 0.477 0.477v4.023" fill="none" stroke="#000000" stroke-linecap="round" stroke-linejoin="round" stroke-width="1.5"></path>
  <path d="m11.999 11.25 0 7.5" fill="none" stroke="#000000" stroke-linecap="round" stroke-linejoin="round" stroke-width="1.5"></path>
  <path d="M1.499 21a2.25 2.25 0 1 0 4.5 0 2.25 2.25 0 1 0 -4.5 0Z" fill="none" stroke="#000000" stroke-linecap="round" stroke-linejoin="round" stroke-width="1.5"></path>
  <path d="M9.749 21a2.25 2.25 0 1 0 4.5 0 2.25 2.25 0 1 0 -4.5 0Z" fill="none" stroke="#000000" stroke-linecap="round" stroke-linejoin="round" stroke-width="1.5"></path>
  <path d="M17.999 21a2.25 2.25 0 1 0 4.5 0 2.25 2.25 0 1 0 -4.5 0Z" fill="none" stroke="#000000" stroke-linecap="round" stroke-linejoin="round" stroke-width="1.5"></path>
  <path d="M8.999 3.75a3 3 0 1 0 6 0 3 3 0 1 0 -6 0Z" fill="none" stroke="#000000" stroke-linecap="round" stroke-linejoin="round" stroke-width="1.5"></path>
  <path d="M16.5 11.25a4.966 4.966 0 0 0 -4.577 -3.75 4.966 4.966 0 0 0 -4.577 3.75" fill="none" stroke="#000000" stroke-linecap="round" stroke-linejoin="round" stroke-width="1.5"></path>
</svg>