<svg xmlns="http://www.w3.org/2000/svg" width="24" height="24" viewBox="0 0 24 24">
  <title>network-browser</title>
	<path d="M1.891824 0.047184000000000004C1.41012 0.14901599999999998 1.038648 0.349704 0.694176 0.694176C0.338256 1.050096 0.13104 1.4448 0.037368 1.9453200000000002C0.0031920000000000004 2.1279600000000003 0.000048 2.945592 0.005712 10.212L0.012 18.276 0.064848 18.461376C0.294912 19.268184 0.8574 19.869432 1.6293840000000002 20.133768C1.979664 20.253696 2.079984 20.257632 4.60236 20.250576L6.948 20.244 7.064856000000001 20.184312000000002C7.3380719999999995 20.044776 7.493328 19.796808 7.493328 19.5C7.493328 19.203192 7.3380719999999995 18.955224 7.064856000000001 18.815687999999998L6.948 18.756 4.5600000000000005 18.743616000000003C2.900424 18.735024 2.1496079999999997 18.72312 2.098608 18.704616C1.878792 18.624888000000002 1.683432 18.447864 1.585944 18.240047999999998L1.524 18.108 1.517856 12.054L1.511712 6 11.254728 6L20.997744 6 21.004872 6.8580000000000005C21.011856 7.699848 21.013032 7.717944 21.067032 7.8190800000000005C21.151896 7.978032000000001 21.279 8.104056 21.428136000000002 8.177184C21.6156 8.26908 21.890496000000002 8.271912 22.064856000000002 8.183736C22.222104 8.104224 22.362288 7.959936 22.437744 7.8L22.5 7.668 22.5 4.884C22.5 2.282184 22.497144 2.086728 22.456319999999998 1.897344C22.334592 1.332528 22.011143999999998 0.823512 21.552 0.47424000000000005C21.358344000000002 0.32695199999999996 20.977968 0.140184 20.724 0.067728L20.532 0.012960000000000001 11.316 0.008064C2.459568 0.0033600000000000006 2.091888 0.0048720000000000005 1.891824 0.047184000000000004M2.088 1.549704C1.9446720000000002 1.59528 1.7716079999999998 1.725912 1.6687440000000002 1.866144C1.5146160000000002 2.076216 1.512 2.101128 1.512 3.357696L1.512 4.488 3.7560000000000002 4.488L6 4.488 6 3L6 1.512 4.098 1.5136800000000001C2.517528 1.515072 2.1777360000000003 1.521144 2.088 1.549704M7.5120000000000005 3L7.5120000000000005 4.488 9 4.488L10.488 4.488 10.488 3L10.488 1.512 9 1.512L7.5120000000000005 1.512 7.5120000000000005 3M12 2.999736L12 4.488 16.501272 4.488L21.002544 4.488 20.995272 3.33L20.988 2.172 20.919024 2.022672C20.838 1.8472559999999998 20.648112 1.655208 20.478024 1.576656L20.364 1.524 16.182 1.517736L12 1.5114720000000001 12 2.999736M15.948 9.014184C15.369743999999999 9.071064 14.963111999999999 9.140880000000001 14.549208 9.254328C13.756248000000001 9.471648 13.049088 9.790752 12.372 10.236768C10.670424 11.35764 9.480216 13.150751999999999 9.122712 15.132C9.027912 15.657312000000001 9.012864 15.844680000000002 9.012864 16.5C9.012864 17.15532 9.027912 17.342688 9.122712 17.868000000000002C9.26172 18.638448 9.564576 19.482456 9.93948 20.144304C11.140104000000001 22.263863999999998 13.193904 23.645592 15.6 23.952504C15.944016 23.996376 16.709352 24.009263999999998 17.1 23.977752C20.4774 23.705280000000002 23.273880000000002 21.184104 23.876928 17.868000000000002C23.971872 17.345952 23.987136000000003 17.156352 23.987136000000003 16.5C23.987136000000003 15.843648000000002 23.971872 15.654048 23.876928 15.132C23.546616 13.315655999999999 22.516896 11.646023999999999 21.036 10.525704000000001C19.958232 9.710352 18.828312 9.250968 17.400000000000002 9.047472C17.218752 9.021647999999999 16.126584 8.996616 15.948 9.014184M15.972 10.524432C15.9456 10.529352000000001 15.862680000000001 10.540032 15.787728 10.548192L15.651456 10.563024 15.590376000000001 10.819512C15.423672000000002 11.519472 15.278832000000001 12.297168 15.193992 12.948C15.166464000000001 13.159199999999998 15.139224000000002 13.367088 15.133464000000002 13.41L15.123024 13.488 16.500912 13.488L17.878800000000002 13.488 17.867928 13.422C17.861952000000002 13.385688 17.845104000000003 13.253400000000001 17.830488 13.128C17.7516 12.451392 17.602439999999998 11.633568 17.4096 10.820496C17.350032 10.569336 17.347728 10.564752 17.272512 10.549848C17.186568 10.532832 16.04664 10.510536 15.972 10.524432M13.684824 11.208096000000001C12.831648000000001 11.658912 12.064272 12.352775999999999 11.517408 13.167864C11.425296 13.305167999999998 11.34384 13.433376 11.336400000000001 13.452744C11.324615999999999 13.483439999999998 11.470368 13.488 12.463968 13.488L13.605048 13.488 13.617792000000001 13.386000000000001C13.736208 12.43788 13.925232 11.251272 13.981008000000001 11.106C13.989888 11.082912 13.987872 11.064168 13.976568 11.064408C13.965264 11.064624 13.83396 11.129280000000001 13.684824 11.208096000000001M19.071384 11.346C19.183848 11.916504 19.392 13.295376000000001 19.392 13.469928C19.392 13.479864 19.906152 13.488 20.534568 13.488C21.529464 13.488 21.675384 13.483439999999998 21.6636 13.452744C21.632544 13.371792000000001 21.299328 12.898536 21.127536 12.691368C20.617032000000002 12.075768 19.949928 11.533392 19.28004 11.189304C19.145880000000002 11.1204 19.03152 11.064 19.025952 11.064C19.02036 11.064 19.040808 11.190912 19.071384 11.346M10.648656 15.186C10.537608 15.708576 10.525608 15.836832000000001 10.525608 16.5C10.525608 17.163168 10.537608 17.291424 10.648656 17.814L10.688184 18 12.151176 18L13.614192000000001 18 13.598784 17.862000000000002C13.53612 17.30088 13.485479999999999 15.931872 13.506024 15.354000000000001L13.518623999999999 15 12.103392 15L10.688184 15 10.648656 15.186M15.011040000000001 15.282C14.982888 15.730896 15.029112 17.012567999999998 15.098904 17.718L15.126792 18 16.500312 18L17.873808 18 17.889120000000002 17.88456C17.954304 17.393232 18.021576 15.596448 17.989248 15.21L17.971680000000003 15 16.500216 15L15.028728000000001 15 15.011040000000001 15.282M19.492752 15.846C19.490496 16.59036 19.446216 17.581848 19.401096000000003 17.898L19.386552000000002 18 20.847504 18L22.308432 18 22.350096 17.814C22.454352 17.348471999999997 22.474056 17.139623999999998 22.474056 16.5C22.474056 15.860376000000002 22.454352 15.651528 22.350096 15.186L22.308432 15 20.901864 15L19.495296 15 19.492752 15.846M11.336400000000001 19.547256C11.367456 19.628208 11.700672 20.101464 11.872463999999999 20.308632C12.425712 20.97576 13.101816 21.508968 13.86 21.876072C14.058 21.971952 14.265552000000001 22.067616 14.321208 22.088688L14.422416 22.126992 14.398032 22.062816C14.29728 21.797832000000003 13.94724 20.308416 13.859160000000001 19.77L13.816968 19.512 12.569927999999999 19.512C11.483136 19.512 11.324592 19.516536 11.336400000000001 19.547256M15.364128000000001 19.626C15.550248000000002 20.577576 15.788952000000002 21.500472 16.071792000000002 22.362000000000002L16.113167999999998 22.488 16.502592 22.488L16.89204 22.488 16.965072000000003 22.266000000000002C17.18448 21.599064000000002 17.44788 20.593632 17.57964 19.92C17.614488 19.7418 17.648471999999998 19.577088 17.65512 19.554000000000002C17.666544000000002 19.514400000000002 17.600472 19.512 16.504535999999998 19.512L15.341807999999999 19.512 15.364128000000001 19.626M19.190472 19.542C19.18608 19.558512 19.141632 19.788 19.091736 20.052C18.995184000000002 20.56284 18.79188 21.425712 18.671184 21.837048C18.630984 21.974016 18.603792000000002 22.091808 18.610775999999998 22.098768C18.628728 22.11672 18.899544 22.000944 19.233743999999998 21.83244C20.112816 21.389208 20.918616 20.672736 21.481416 19.833864C21.574199999999998 19.695624 21.65616 19.566624 21.6636 19.547256C21.675408 19.516536 21.5178 19.512 20.437824000000003 19.512C19.46664 19.512 19.19676 19.51848 19.190472 19.542" stroke="none" fill="#000" fill-rule="evenodd"></path>
</svg>
