<svg width="48" height="49" viewBox="0 0 48 49" fill="none" xmlns="http://www.w3.org/2000/svg">
<g clip-path="url(#clip0_1023_26105)">
<path d="M48.0009 15.9559H40.0094L40.5217 14.5728H48.0009V15.9559Z" fill="white"/>
<path d="M26.6899 14.5728H34.1179L34.5789 15.9559H26.6899V14.5728Z" fill="white"/>
<path d="M20.7983 14.5728C22.0278 14.6752 23.1035 15.1363 23.9744 15.9559H10.5016V14.5728H20.7983Z" fill="white"/>
<path d="M9.32339 14.5728H0V15.9559H9.32339V14.5728Z" fill="white"/>
<path d="M47.9996 18.5172H39.0861L39.5471 17.134H47.9484V18.5172H47.9996Z" fill="white"/>
<path d="M35.5523 18.517H26.6899V17.1851H35.04L35.5523 18.517Z" fill="white"/>
<path d="M25.0502 17.1853C25.2039 17.6464 25.46 18.0049 25.46 18.5684H10.5529V17.1853H25.0502Z" fill="white"/>
<path d="M9.32339 17.1853H0V18.5684H9.32339V17.1853Z" fill="white"/>
<path d="M38.2159 21.1297L38.677 19.7466H45.3878V21.1297H38.2159Z" fill="white"/>
<path d="M35.9617 19.7466L36.474 21.1297H29.3534V19.7466H35.9617Z" fill="white"/>
<path d="M25.5617 19.7466C25.5617 20.2076 25.5105 20.7199 25.3569 21.1297H21.2587V19.7466H25.5617Z" fill="white"/>
<path d="M6.60814 19.7466H2.61243V21.1297H6.60814V19.7466Z" fill="white"/>
<path d="M17.2641 19.7466H13.2684V21.1297H17.2641V19.7466Z" fill="white"/>
<path d="M33.2978 22.6152V23.6397H29.3533V22.2566H36.8837L37.3447 23.5373L37.8058 22.2566H45.3874V23.6397H41.4429V22.6152L41.0844 23.6397H33.6564L33.2978 22.6152Z" fill="white"/>
<path d="M13.2684 22.3079H24.7946C24.5385 22.7689 24.0774 23.3324 23.6676 23.691H13.3196C13.2684 23.6397 13.2684 22.3079 13.2684 22.3079Z" fill="white"/>
<path d="M6.60814 22.3079H2.61243V23.691H6.60814V22.3079Z" fill="white"/>
<path d="M45.3878 24.8691H41.4432V26.2522H45.3878V24.8691Z" fill="white"/>
<path d="M33.2979 24.8691H29.3534V26.2522H33.2979V24.8691Z" fill="white"/>
<path d="M40.6747 24.8691L40.2136 26.2522H34.6298L34.1176 24.8691H40.6747Z" fill="white"/>
<path d="M13.2684 24.8691H23.6163C24.0774 25.2789 24.5384 25.74 24.8458 26.2522H13.2684V24.8691Z" fill="white"/>
<path d="M6.60814 26.2522V24.8691H2.61243V26.2522H6.60814Z" fill="white"/>
<path d="M45.3878 27.4817H41.4432V28.8648H45.3878V27.4817Z" fill="white"/>
<path d="M33.2979 27.4817H29.3534V28.8648H33.2979V27.4817Z" fill="white"/>
<path d="M39.2406 28.8648C39.2406 28.8648 39.7017 27.4817 39.7529 27.4817H34.9888L35.5011 28.8648H39.2406Z" fill="white"/>
<path d="M13.2684 28.8136V27.4304H17.3154V28.8136H13.2684Z" fill="white"/>
<path d="M25.4089 27.4817C25.6138 27.8915 25.6138 28.4038 25.6651 28.8648H21.3619V27.4817H25.4089Z" fill="white"/>
<path d="M6.60814 27.4817H2.61243V28.8648H6.60814V27.4817Z" fill="white"/>
<path d="M48.0004 29.9919H41.4432V31.3751H48.0004V29.9919Z" fill="white"/>
<path d="M33.247 29.9919H26.6899V31.3751H33.247V29.9919Z" fill="white"/>
<path d="M38.369 31.3751H36.3712L35.8589 29.9919H38.8301L38.369 31.3751Z" fill="white"/>
<path d="M0 29.9919V31.3751H9.32339V29.9919H0Z" fill="white"/>
<path d="M25.5111 29.9919C25.4086 30.453 25.3062 31.0165 24.9988 31.3751H24.8963H10.5527V29.9919H25.5111Z" fill="white"/>
<path d="M37.4469 33.9361H37.2933L36.781 32.6042H37.9592L37.4469 33.9361Z" fill="white"/>
<path d="M48.0004 32.6042H41.4432V33.9874H48.0004V32.6042Z" fill="white"/>
<path d="M10.5527 33.9364V32.5532C10.5527 32.5532 24.0255 32.5532 24.0767 32.5532C23.1546 33.4241 21.9252 33.8851 20.5933 33.9364H10.5527Z" fill="white"/>
<path d="M33.247 32.6042H26.6899V33.9874H33.247V32.6042Z" fill="white"/>
<path d="M9.32339 32.6042V33.9874H0V32.6042H9.32339Z" fill="white"/>
</g>
<defs>
<clipPath id="clip0_1023_26105">
<rect width="48" height="19.5165" fill="white" transform="translate(0 14.5728)"/>
</clipPath>
</defs>
</svg>
