<svg width="48" height="49" viewBox="0 0 48 49" fill="none" xmlns="http://www.w3.org/2000/svg">
<g clip-path="url(#clip0_1023_26088)">
<mask id="mask0_1023_26088" style="mask-type:alpha" maskUnits="userSpaceOnUse" x="0" y="0" width="48" height="49">
<path d="M0 0.589111H47.9849V48.5683H0V0.589111Z" fill="white"/>
</mask>
<g mask="url(#mask0_1023_26088)">
<path fill-rule="evenodd" clip-rule="evenodd" d="M23.9925 0.589111C17.4765 0.589111 16.6594 0.61673 14.1004 0.733492C11.5467 0.849968 9.80257 1.25559 8.27648 1.84873C6.69876 2.46178 5.36076 3.28216 4.02686 4.61597C2.69305 5.94987 1.87267 7.28787 1.25962 8.86559C0.666476 10.3917 0.260857 12.1358 0.144381 14.6895C0.0276191 17.2485 0 18.0656 0 24.5816C0 31.0975 0.0276191 31.9145 0.144381 34.4736C0.260857 37.0273 0.666476 38.7714 1.25962 40.2975C1.87267 41.8752 2.69305 43.2132 4.02686 44.5471C5.36076 45.8809 6.69876 46.7013 8.27648 47.3144C9.80257 47.9075 11.5467 48.3131 14.1004 48.4296C16.6594 48.5463 17.4765 48.574 23.9925 48.574C30.5084 48.574 31.3254 48.5463 33.8845 48.4296C36.4382 48.3131 38.1823 47.9075 39.7084 47.3144C41.2861 46.7013 42.6241 45.8809 43.958 44.5471C45.2918 43.2132 46.1122 41.8752 46.7253 40.2975C47.3184 38.7714 47.724 37.0273 47.8405 34.4736C47.9572 31.9145 47.9849 31.0975 47.9849 24.5816C47.9849 18.0656 47.9572 17.2485 47.8405 14.6895C47.724 12.1358 47.3184 10.3917 46.7253 8.86559C46.1122 7.28787 45.2918 5.94987 43.958 4.61597C42.6241 3.28216 41.2861 2.46178 39.7084 1.84873C38.1823 1.25559 36.4382 0.849968 33.8845 0.733492C31.3254 0.61673 30.5084 0.589111 23.9925 0.589111ZM23.9925 4.91206C30.3987 4.91206 31.1575 4.93654 33.6874 5.05197C36.0267 5.15864 37.297 5.54949 38.1425 5.87806C39.2624 6.3133 40.0616 6.83321 40.9011 7.67283C41.7408 8.51235 42.2607 9.31159 42.6959 10.4315C43.0245 11.2769 43.4153 12.5473 43.522 14.8865C43.6374 17.4164 43.6619 18.1753 43.6619 24.5816C43.6619 30.9878 43.6374 31.7466 43.522 34.2765C43.4153 36.6158 43.0245 37.8862 42.6959 38.7316C42.2607 39.8515 41.7408 40.6507 40.9011 41.4903C40.0616 42.3299 39.2624 42.8498 38.1425 43.285C37.297 43.6136 36.0267 44.0044 33.6874 44.1111C31.1579 44.2265 30.3991 44.251 23.9925 44.251C17.5857 44.251 16.827 44.2265 14.2974 44.1111C11.9582 44.0044 10.6878 43.6136 9.84238 43.285C8.72248 42.8498 7.92324 42.3299 7.08371 41.4903C6.24419 40.6507 5.72419 39.8515 5.28895 38.7316C4.96038 37.8862 4.56952 36.6158 4.46286 34.2765C4.34743 31.7466 4.32295 30.9878 4.32295 24.5816C4.32295 18.1753 4.34743 17.4164 4.46286 14.8865C4.56952 12.5473 4.96038 11.2769 5.28895 10.4315C5.72419 9.31159 6.24409 8.51235 7.08371 7.67283C7.92324 6.83321 8.72248 6.3133 9.84238 5.87806C10.6878 5.54949 11.9582 5.15864 14.2974 5.05197C16.8273 4.93654 17.5862 4.91206 23.9925 4.91206Z" fill="white"/>
</g>
<path fill-rule="evenodd" clip-rule="evenodd" d="M23.9943 32.5779C19.5774 32.5779 15.9968 28.9973 15.9968 24.5805C15.9968 20.1635 19.5774 16.583 23.9943 16.583C28.4112 16.583 31.9917 20.1635 31.9917 24.5805C31.9917 28.9973 28.4112 32.5779 23.9943 32.5779ZM23.9943 12.26C17.1898 12.26 11.6738 17.776 11.6738 24.5805C11.6738 31.3849 17.1898 36.9009 23.9943 36.9009C30.7987 36.9009 36.3147 31.3849 36.3147 24.5805C36.3147 17.776 30.7987 12.26 23.9943 12.26Z" fill="white"/>
<path fill-rule="evenodd" clip-rule="evenodd" d="M39.6771 11.7739C39.6771 13.364 38.3881 14.653 36.798 14.653C35.208 14.653 33.9189 13.364 33.9189 11.7739C33.9189 10.1838 35.208 8.89478 36.798 8.89478C38.3881 8.89478 39.6771 10.1838 39.6771 11.7739Z" fill="white"/>
</g>
<defs>
<clipPath id="clip0_1023_26088">
<rect width="48" height="48" fill="white" transform="translate(0 0.572754)"/>
</clipPath>
</defs>
</svg>
