<svg xmlns="http://www.w3.org/2000/svg" width="24" height="24" viewBox="0 0 24 24">
  <title>desktop-monitor-settings</title>
	<path d="M16.897128000000002 0.051311999999999997C16.524192000000003 0.11313600000000001 16.127664 0.31848 15.823824 0.6070800000000001C15.47916 0.934488 15.38496 1.129416 15.073535999999999 2.16C14.860344000000001 2.865456 14.821776 2.9720880000000003 14.758896 3.0300000000000002C14.719488 3.0663120000000004 14.659488000000001 3.096 14.625552 3.096C14.59164 3.096 14.211096000000001 3.0128880000000002 13.779936 2.9113200000000004L12.996 2.72664 12.624 2.7253200000000004C12.224136 2.723904 12.142871999999999 2.73804 11.832 2.863176C11.342304 3.060312 10.96488 3.4199280000000005 10.729464 3.9137280000000003C10.575840000000001 4.235928 10.547952 4.372248 10.54824 4.8C10.548528 5.223072 10.590192 5.419872 10.743936 5.724C10.864848 5.963232 10.956696 6.078072 11.584608000000001 6.7751280000000005C12.088296 7.334304 12.144 7.404456000000001 12.144 7.479648C12.144 7.525583999999999 12.131832 7.585871999999999 12.116976000000001 7.61364C12.10212 7.641408 11.851008 7.9296 11.558976000000001 8.254056C10.923456 8.960136 10.900728 8.988504 10.765152 9.243792000000001C10.591872 9.57012 10.548528 9.761112 10.54824 10.200000000000001C10.547952 10.627752 10.575840000000001 10.764072 10.729464 11.086272000000001C10.995192 11.643648 11.406672 12.00192 12.01548 12.20604C12.165456 12.25632 12.26652 12.271824 12.509736 12.281808C12.861408 12.296232 12.846216 12.298656 13.840032 12.070344C14.23824 11.978856 14.59176 11.904 14.625648000000002 11.904C14.659536 11.904 14.719464 11.933688 14.758824 11.97C14.821296 12.0276 14.862936 12.141408 15.085896 12.864C15.262632 13.436808 15.373848 13.755312000000002 15.446736000000001 13.897392C15.722591999999999 14.435112 16.230192000000002 14.827296 16.825560000000003 14.962728C17.04996 15.013752 17.504736 15.01572 17.716704 14.966567999999999C18.335544 14.823048 18.834288 14.441232 19.113264 13.897392C19.186152 13.755312000000002 19.297368000000002 13.436808 19.474104 12.864C19.697064 12.141408 19.738704000000002 12.0276 19.801176 11.97C19.84056 11.933688 19.900512 11.904 19.934448 11.904C19.96836 11.904 20.348904 11.987112000000002 20.780064 12.08868L21.564 12.27336 21.936 12.27468C22.335864 12.276096 22.417128 12.26196 22.728 12.136824C23.080488 11.994912000000001 23.415504 11.733960000000002 23.629872 11.434272C23.755536 11.258592 23.914056 10.932912 23.961912 10.752C23.993376 10.633056 23.99688 10.792224 23.997168 12.36L23.997504 14.1 23.94936 13.974768000000001C23.887848 13.814736000000002 23.723904 13.645776 23.555208 13.568544C23.406816 13.500623999999998 23.19228 13.486416 23.023008 13.533312C22.833096 13.585944000000001 22.597008000000002 13.815552 22.532232 14.0106C22.510272 14.076744 22.498944 14.562072 22.488599999999998 15.876L22.474656 17.652 22.40916 17.862912C22.169928 18.633408000000003 21.636336 19.16724 20.862912 19.409832L20.652 19.476 12 19.476L3.348 19.476 3.137088 19.409832C2.729664 19.282032 2.407848 19.086503999999998 2.1345359999999998 18.800688C1.949832 18.607536 1.862328 18.483696000000002 1.743336 18.246912000000002C1.593 17.947848 1.53204 17.6976 1.518096 17.322192L1.505856 16.992383999999998 7.370928 16.986192000000003L13.236 16.98 13.333224000000001 16.927944C13.46592 16.856904 13.608576000000001 16.709328 13.680312 16.568856C13.730160000000001 16.471248 13.739952 16.418400000000002 13.739664 16.248C13.739376000000002 16.073616 13.729992 16.026216 13.674984000000002 15.921408000000001C13.639608 15.853992 13.555992 15.749687999999999 13.489199999999999 15.689616000000001C13.262784 15.486072000000002 13.857792 15.504 7.327368000000001 15.504L1.51128 15.504 1.51764 10.926L1.524 6.348 1.5901680000000002 6.137087999999999C1.717968 5.729664 1.913496 5.407848 2.1993120000000004 5.134536C2.472528 4.873272 2.753736 4.71012 3.137088 4.590504L3.348 4.524672 5.88 4.512336L8.412 4.5 8.549280000000001 4.435656C9.138816 4.159344 9.149592 3.3730320000000003 8.568 3.0685439999999997L8.46 3.012 6.024 3.004392C3.3966000000000003 2.996184 3.294576 2.99988 2.82 3.1202159999999997C2.156616 3.288408 1.6011119999999999 3.606888 1.104 4.104C0.50676 4.70124 0.155424 5.4045119999999995 0.0366 6.24072C-0.017136 6.6188400000000005 -0.017136 17.38116 0.0366 17.75928C0.155424 18.595488 0.50676 19.29876 1.104 19.896C1.70124 20.49324 2.404512 20.844576 3.24072 20.9634C3.4487520000000003 20.992968 3.88284 20.999208 5.763072 20.999568L8.034144 21 7.849608 21.738L7.6650480000000005 22.476 6.754536000000001 22.489848000000002C6.2173680000000004 22.498032000000002 5.813664 22.514088 5.769984 22.529040000000002C5.36364 22.668072000000002 5.152368 23.121192 5.304384 23.527536C5.36232 23.682384 5.521704 23.852904 5.682504 23.932104000000002L5.796 23.988 12 23.988L18.204 23.988 18.317496000000002 23.932104000000002C18.764616 23.711904 18.885072 23.136408000000003 18.563712000000002 22.755768C18.488376000000002 22.666536 18.34284 22.567632 18.230016 22.529040000000002C18.186336 22.514088 17.782632 22.498032000000002 17.245464000000002 22.489848000000002L16.334952 22.476 16.150392 21.738L15.965856 21 18.236928 20.999568C20.6562 20.999088 20.738712000000003 20.995728 21.195408 20.879136000000003C21.404784 20.825664 21.75012 20.69652 21.948 20.597640000000002C22.315056 20.414256 22.790136 20.041344000000002 23.072112 19.715328C23.248296 19.511592 23.49876 19.145904 23.597640000000002 18.948C23.776152 18.590688 23.932032 18.07704 23.965752 17.735015999999998C23.974848 17.642568 23.991696 17.561136 24.003144 17.554056C24.01488 17.546808 24.021456 15.103008 24.018168 11.968584C24.014952 8.903664 24.008928 7.157400000000001 24.004800000000003 8.088000000000001L23.997264 9.78 23.943648000000003 9.6C23.87832 9.380592 23.764295999999998 9.151608 23.633760000000002 8.977728C23.579976000000002 8.906064 23.283984 8.567808000000001 22.975992 8.226023999999999C22.470648 7.665288 22.416 7.596431999999999 22.416 7.520735999999999C22.416 7.474583999999999 22.428504 7.413264000000001 22.443816 7.384416000000001C22.459104 7.355592000000001 22.705512 7.0728 22.991376000000002 6.756C23.612232 6.067968 23.673744 5.99124 23.80188 5.744928000000001C23.964336 5.432712 24 5.262504 24 4.79952C24 4.342728 23.976648 4.220784 23.83044 3.9137280000000003C23.595432000000002 3.420216 23.217768000000003 3.06036 22.728 2.863176C22.417128 2.73804 22.335864 2.723904 21.936 2.7253200000000004L21.564 2.72664 20.780064 2.9113200000000004C20.348904 3.0128880000000002 19.967376 3.096 19.932216 3.096C19.79244 3.096 19.753656 3.0172559999999997 19.4652 2.14776C19.176216 1.276704 19.070208 1.036392 18.861336 0.778968C18.560952 0.40872 18.089904 0.13497599999999998 17.605584 0.049224000000000004C17.437968 0.019535999999999998 17.082456 0.020592 16.897128000000002 0.051311999999999997M17.04 1.574208C16.942968 1.61616 16.8102 1.736712 16.764024 1.824792C16.746503999999998 1.858224 16.622256 2.247024 16.487952 2.6887920000000003C16.190687999999998 3.6665039999999998 16.133232 3.790152 15.840096 4.082832C15.663768000000001 4.258896 15.595728000000001 4.308048 15.382488 4.413432C15.021216 4.591968 14.689728 4.645608 14.338415999999999 4.582368C14.260079999999999 4.568256 13.8666 4.480392 13.464 4.387104C13.0614 4.293816 12.6834 4.21704 12.624 4.216488C12.396408000000001 4.214424 12.180719999999999 4.351920000000001 12.089616 4.5572159999999995C12.024696 4.703448 12.025872 4.907664 12.092376 5.042496000000001C12.120984 5.100528 12.393648 5.4234 12.698256 5.76C13.002863999999999 6.0966000000000005 13.288775999999999 6.4218 13.333656 6.4826880000000005C13.606704 6.8532 13.714775999999999 7.3686240000000005 13.621560000000002 7.855848C13.543655999999999 8.262936 13.433424 8.428824 12.709608000000001 9.228C12.398760000000001 9.571200000000001 12.121008 9.899472000000001 12.092376 9.957504C12.056544 10.030128000000001 12.040728 10.105776 12.041616 10.200288C12.044736 10.53216 12.298680000000001 10.786464 12.624 10.783512C12.6834 10.782984 13.0884 10.699032 13.524000000000001 10.596936C14.657736000000002 10.331232 14.861184 10.330152 15.382488 10.586952C15.596160000000001 10.692216 15.663408000000002 10.740744000000001 15.840096 10.917168C16.131432 11.208048 16.18872 11.331216000000001 16.500263999999998 12.336C16.641456 12.791400000000001 16.771104 13.191 16.78836 13.224C16.876152 13.391976000000001 17.066832 13.498392 17.28 13.498392C17.493168 13.498392 17.683848 13.391976000000001 17.77164 13.224C17.788895999999998 13.191 17.918616 12.791400000000001 18.059928 12.336C18.387144 11.281368 18.442776 11.166048 18.771024 10.86216C18.99648 10.653408 19.339224 10.479168 19.632 10.424472C19.952568 10.364568 20.142912 10.387968 21.036 10.597104C21.4716 10.699104 21.8766 10.782984 21.936 10.783512C22.087296 10.784880000000001 22.21416 10.736736 22.326984000000003 10.635096C22.518984000000003 10.462176 22.577064 10.166712 22.461864 9.949104C22.43004 9.889007999999999 22.1772 9.58956 21.900000000000002 9.28368C21.6228 8.9778 21.342984 8.661936 21.278208 8.581776C20.96448 8.193528 20.839152000000002 7.663200000000001 20.93844 7.144152C21.016368 6.73692 21.126888 6.570576 21.8502 5.772C22.161048 5.4288 22.438848 5.100528 22.467528 5.042496000000001C22.50348 4.969776 22.519272 4.8943200000000004 22.518384 4.799712C22.515264 4.46784 22.261319999999998 4.2135359999999995 21.936 4.216488C21.8766 4.217016 21.4716 4.300968 21.036 4.4030640000000005C20.135904 4.614 19.93176 4.638696 19.619856000000002 4.574352C19.1982 4.4873520000000005 18.751128 4.200312 18.524664 3.871152C18.393576 3.680616 18.329616 3.520152 18.046032 2.670096C17.86764 2.135352 17.739792 1.7900399999999999 17.701800000000002 1.740216C17.567856000000003 1.564632 17.247792 1.4843520000000001 17.04 1.574208M16.802712000000003 5.29152C16.121736000000002 5.446128 15.601824 5.8326 15.268464000000002 6.432C15.082584 6.766248000000001 15.013848 7.05456 15.013848 7.5C15.013848 7.769616 15.024503999999999 7.899168 15.056304 8.016C15.286920000000002 8.863007999999999 15.845976 9.438288 16.67052 9.677112000000001C16.929047999999998 9.751992000000001 17.564664 9.756504000000001 17.808 9.6852C18.757392 9.406968 19.388304 8.666328 19.485456 7.716C19.596456 6.630456000000001 18.91932 5.6503440000000005 17.832 5.322744C17.621328 5.259264 17.024568 5.241168 16.802712000000003 5.29152M0.011808 12C0.011808 15.069 0.014592 16.324512 0.018000000000000002 14.790000000000001C0.021408 13.255512 0.021408 10.744512 0.018000000000000002 9.21C0.014592 7.6755119999999994 0.011808 8.931000000000001 0.011808 12M17.113296 6.772848C16.890719999999998 6.8070960000000005 16.694471999999998 6.955512 16.580232 7.176C16.539744 7.254143999999999 16.521912 7.3347359999999995 16.515719999999998 7.467576C16.508256000000003 7.62696 16.515792 7.6704479999999995 16.572816 7.797528C16.639968 7.9471680000000005 16.780296 8.09976 16.914624 8.169216C17.018088 8.222712 17.23716 8.2518 17.37384 8.2302C17.783231999999998 8.165496 18.06012 7.762104 17.975592 7.353504000000001C17.89248 6.951744000000001 17.531352 6.708552000000001 17.113296 6.772848M9.40992 21.714000000000002C9.312408 22.106688 9.22776 22.441512 9.22176 22.458000000000002C9.213072 22.48188 9.778872 22.488 12 22.488C14.221128 22.488 14.786928 22.48188 14.77824 22.458000000000002C14.77224 22.441512 14.687591999999999 22.106688 14.590079999999999 21.714000000000002L14.412816 21 12 21L9.587184 21 9.40992 21.714000000000002" stroke="none" fill="#000" fill-rule="evenodd"></path>
</svg>
