<svg xmlns="http://www.w3.org/2000/svg" width="24" height="24" viewBox="0 0 24 24">
  <title>java</title>
	<path d="M11.493168 0.033144C11.297424 0.10308 11.134848 0.245232 11.04312 0.426672C11.01828 0.4758 10.975512 0.652032 10.948080000000001 0.8183039999999999C10.820424000000001 1.591728 10.494864 2.235456 9.958632 2.77464C9.837072 2.896872 9.649944000000001 3.058896 9.542784 3.1346400000000005C8.989776 3.525696 8.667912000000001 3.808704 8.413008 4.128C7.67472 5.052792 7.276152000000001 6.231144 7.329312 7.332C7.38264 8.437056 7.775232000000001 9.319608 8.547408 10.070376C9.065088 10.573704000000001 9.67848 10.931664 10.485192 11.201232000000001C10.768536000000001 11.295912000000001 10.828704 11.308272 10.956456000000001 11.298C11.32776 11.268216 11.61912 10.987848 11.656656 10.624248000000001C11.674512 10.45116 11.633376 10.290408 11.531640000000001 10.135824000000001C11.421288 9.968112000000001 11.290056 9.884039999999999 10.978488 9.781392C10.64652 9.672024 10.092888 9.398088 9.882864 9.239304C9.22128 8.739096 8.875992 8.09592 8.839536 7.296C8.791295999999999 6.237096 9.317712 5.141784 10.161672000000001 4.545024000000001C10.586400000000001 4.244688 10.725936 4.132824 10.964640000000001 3.9012239999999996C11.397984000000001 3.480816 11.723735999999999 3.030168 11.989080000000001 2.484C12.23292 1.982064 12.380088 1.4932560000000001 12.456072 0.9327359999999999C12.490008000000001 0.682536 12.452136000000001 0.49279200000000006 12.334008 0.32112C12.154152 0.059688000000000005 11.778696 -0.068904 11.493168 0.033144M13.036631999999999 3.8737680000000005C12.5646 4.07112 12.009144 4.453752000000001 11.651159999999999 4.828200000000001C11.307216 5.18796 11.0898 5.524608000000001 10.944840000000001 5.921832C10.690896 6.617616 10.768008 7.5174959999999995 11.143728 8.243136C11.292504000000001 8.530488 11.478864 8.765544 11.86368 9.151272C12.05508 9.343104 12.239976 9.548376 12.274583999999999 9.607416C12.371424000000001 9.772656000000001 12.40752 9.996456 12.401376 10.39344C12.396408000000001 10.713192 12.400295999999999 10.748616 12.451368 10.851264C12.536591999999999 11.022576 12.65976 11.150472 12.810504 11.224224C12.992016 11.313048 13.270631999999999 11.319840000000001 13.444704000000002 11.239728C13.589736 11.172960000000002 13.750224000000001 11.011752 13.820447999999999 10.86228C13.931856000000002 10.625112000000001 13.934520000000001 9.927672000000001 13.825776 9.4698C13.707192000000001 8.970528 13.514976 8.667672000000001 12.973344 8.126832C12.730944000000001 7.884767999999999 12.557976 7.690608 12.511128000000001 7.6080000000000005C12.350208 7.324176 12.26844 6.933719999999999 12.312096 6.657792000000001C12.395280000000001 6.132264 12.808728 5.6796240000000004 13.559424 5.292288C13.90956 5.11164 14.00748 5.021712 14.087807999999999 4.807008C14.270232 4.319448 13.937064000000001 3.8189280000000005 13.416 3.7977600000000002C13.255680000000002 3.791232 13.214208 3.79956 13.036631999999999 3.8737680000000005M19.188 9.108456C18.950232 9.147096000000001 18.572544 9.247848 18.41472 9.314736C18.261312 9.379776 18.111648000000002 9.531744 18.036816 9.698472C17.979696 9.825768 17.97228 9.868776 17.979936 10.028424C17.994648 10.33512 18.136680000000002 10.549992000000001 18.408 10.676088C18.612384 10.771080000000001 18.757512 10.771176 19.080912 10.67652C19.34268 10.599888 19.374576 10.596024 19.740000000000002 10.596264000000001C20.150112 10.596552 20.295144 10.621608 20.600064 10.744824000000001C21.528336 11.120016 22.125792 12.11388 22.010544 13.09116C21.945287999999998 13.644383999999999 21.695064000000002 14.146848 21.301464000000003 14.515056C20.987496 14.808768 20.827104000000002 14.888856 19.848 15.240888000000002C19.4718 15.376152000000001 19.124952 15.506376000000001 19.077216 15.530256000000001C18.510696 15.813816000000001 18.528216 16.623672 19.106472 16.883184C19.234536 16.940640000000002 19.275792 16.947648 19.436424 16.9392C19.595472 16.930824 19.706544 16.898136 20.268 16.694496C21.369312 16.295064 21.594216 16.191888000000002 21.965136 15.915816C22.752072000000002 15.330192000000002 23.230608 14.591376000000002 23.452152 13.620000000000001C23.499864 13.410816 23.506968 13.31376 23.507448 12.864C23.508024 12.322776 23.488848 12.170544 23.369880000000002 11.772C22.970256000000003 10.4334 21.85836 9.423048 20.474448 9.141024C20.160528000000003 9.07704 19.48632 9.059976 19.188 9.108456M5.77512 10.703112C4.436376 10.965048000000001 3.66576 11.267256 3.2910719999999998 11.677224C3.0929280000000006 11.894016 3.000576 12.118704000000001 3.000576 12.384C3.000576 12.956616 3.4457280000000003 13.38696 4.35144 13.689888000000002C6.575448 14.433768 11.956584 14.624160000000002 15.516 14.084904C17.707872 13.752816 18.644448 13.250304 18.653136000000003 12.401664C18.655944 12.12636 18.562464000000002 11.936784 18.340296 11.767344C18.092136 11.578056 17.70744 11.590584 17.437152 11.796744C17.364864 11.851872 17.225448 12.031656 17.2032 12.098400000000002C17.191752 12.132719999999999 16.880688 12.252048 16.593048 12.332496C15.735648000000001 12.572280000000001 14.390016 12.751224 12.744 12.844392000000001C12.063624 12.882888000000001 9.573336000000001 12.882792 8.916 12.844248C7.700832 12.772992 6.95568 12.695352 6.096 12.550392C5.6964 12.483 5.257776000000001 12.393792000000001 5.240328 12.37632C5.228616000000001 12.364632 5.846352 12.223512 6.150864 12.168312C6.509472000000001 12.103296 6.5748240000000004 12.083232 6.7019280000000006 11.999039999999999C6.82632 11.916624 6.964872 11.725152 7.00512 11.58C7.09776 11.245872 6.928944 10.871304 6.612960000000001 10.709928000000001C6.432936 10.617984 6.219072 10.616232 5.77512 10.703112M6.132000000000001 14.471616000000001C5.960208000000001 14.508528000000002 5.608704 14.6424 5.395152 14.752224000000002C4.74912 15.084552 4.453584 15.53448 4.532568 16.065528C4.565112 16.28424 4.619616000000001 16.41216 4.758672 16.596C5.0409120000000005 16.969104 5.613336 17.262456 6.491976000000001 17.484264C7.682448 17.784792 9.071424 17.926872 10.826472 17.927664C12.158928000000001 17.928264 13.23588 17.849064000000002 14.262432 17.674992C15.969144 17.385576 16.855008 16.939608 17.086152000000002 16.253472C17.14668 16.073832000000003 17.151648 15.822456 17.097792000000002 15.664416C17.048376 15.519408000000002 16.874064 15.326616000000001 16.718591999999997 15.245016C16.613784 15.190008 16.566384 15.180624 16.392 15.180336C16.221312 15.180048 16.1688 15.189792 16.070472 15.24C15.919104 15.31728 15.758232 15.481079999999999 15.70332 15.613848C15.665304 15.705744 15.641231999999999 15.727032000000001 15.504048 15.789864C14.927567999999999 16.053984000000003 13.891056 16.255296 12.504 16.37256C11.998776000000001 16.415256000000003 9.652296 16.41564 9.156 16.373112C8.124096 16.284648 7.375584 16.16592 6.699432 15.983471999999999L6.50472 15.930936 6.623304 15.871848C6.765456 15.801024 6.875712 15.68124 6.949848 15.517104000000002C7.036008 15.326328 7.04532 15.196488 6.986736 15.003623999999999C6.873672000000001 14.63136 6.492576000000001 14.394167999999999 6.132000000000001 14.471616000000001M6.551496 18.153096C6.328512 18.239088 5.975496000000001 18.496920000000003 5.820888 18.686712C5.454359999999999 19.136664 5.433936 19.72248 5.769264 20.167896C6.1210320000000005 20.6352 6.8508 20.981352 7.973568000000001 21.213432C9.621672 21.554112 11.957952 21.5592 13.632 21.225744C15.28272 20.896944 16.128 20.302968 16.128 19.471848C16.128 19.053864 15.805439999999999 18.720167999999997 15.3984 18.717048C15.162 18.715224000000003 15.013872 18.774288 14.85408 18.934079999999998C14.757888000000001 19.030272 14.707775999999999 19.104312 14.677824000000001 19.194528000000002C14.636712000000001 19.318272 14.632392 19.322256000000003 14.439984 19.413696C13.229664 19.98888 10.220832 20.146704 8.272608 19.737192C7.8708480000000005 19.65276 7.296 19.481496 7.296 19.44624C7.296 19.440024 7.323528 19.402224 7.357152 19.362264C7.489751999999999 19.204656 7.523136 19.107120000000002 7.523592 18.876C7.523928000000001 18.69444 7.514615999999999 18.641064 7.465128000000001 18.541224C7.391832 18.393408 7.258056 18.261528000000002 7.1096639999999995 18.190800000000003C6.969288000000001 18.123863999999998 6.67824 18.104208 6.551496 18.153096M2.2800000000000002 19.501032000000002C1.331328 19.83108 0.71184 20.310264 0.52788 20.85636C0.467136 21.036696 0.46070400000000006 21.383471999999998 0.514872 21.559128C0.613896 21.880248 0.873 22.1976 1.233288 22.439064000000002C2.258544 23.126136000000002 4.579368 23.644776 7.62 23.866344C8.816688000000001 23.953536 9.152256 23.963688 10.836 23.963568C12.51672 23.963472 12.883920000000002 23.952408000000002 14.064 23.866416C16.785024 23.668104000000003 18.872112 23.251176 20.025528 22.675536C20.690016 22.343904 21.043272 21.97572 21.15612 21.497112C21.224448 21.20736 21.185832 20.97312 21.037752 20.779176C20.76012 20.4156 20.236824000000002 20.380512 19.910832000000003 20.703648C19.817568 20.796096000000002 19.704672000000002 21.000024 19.70424 21.076848000000002C19.703592 21.188304000000002 19.123608 21.467015999999997 18.524208 21.64392C16.906584000000002 22.121328 14.496383999999999 22.41156 11.748000000000001 22.459944C8.508936 22.516968 5.638392 22.272096 3.612 21.765936C2.94756 21.599976 2.1059520000000003 21.28404 2.147808 21.216312000000002C2.172552 21.176256000000002 2.38908 21.073584 2.688 20.960112C3.0388319999999998 20.82696 3.1606799999999997 20.751336000000002 3.2582159999999996 20.60628C3.42816 20.353512 3.44532 20.103168 3.3113520000000003 19.831056C3.191688 19.587984000000002 2.974416 19.445832000000003 2.690712 19.425C2.552448 19.414872 2.499528 19.424664 2.2800000000000002 19.501032000000002" stroke="none" fill="#000" fill-rule="evenodd"></path>
</svg>
