<svg xmlns="http://www.w3.org/2000/svg" width="24" height="24" viewBox="0 0 24 24">
    <path fill="#000" fill-rule="evenodd" stroke="none" d="M1.8792480000000003 0.025344000000000002C0.9953759999999999 0.141072 0.331536 0.746496 0.078024 1.668L0.012 1.9080000000000001 0.004992 11.928C-0.000096 19.193544 0.0053040000000000006 22.000776 0.024696 22.14C0.15480000000000002 23.074632 0.817848 23.751863999999998 1.798512 23.951688C2.033784 23.99964 2.1091919999999997 24 11.996039999999999 24C18.935112 24 22.013472 23.992224 22.144272 23.97432C22.907544 23.869968 23.531328 23.376936 23.816712000000003 22.652472C23.887224 22.473432000000003 23.974704000000003 22.129416 23.977512 22.02C23.97912 21.958008 23.98224 21.954672000000002 24 21.996000000000002C24.011544 22.02288 24.02136 17.63172 24.02232 12.018C24.023424000000002 5.34888 24.01596 1.992 24 1.992C23.986800000000002 1.992 23.975928 1.9568880000000002 23.975832 1.9140000000000001C23.975544 1.7813279999999998 23.884032 1.445568 23.796528000000002 1.256208C23.52336 0.664968 23.0298 0.276888 22.284 0.066888L22.092 0.01284 12.06 0.00936C6.542400000000001 0.00744 1.961064 0.014616 1.8792480000000003 0.025344000000000002M1.9861680000000002 1.53792C1.770432 1.588968 1.629192 1.743264 1.5500399999999999 2.014368C1.5156 2.132424 1.512 3.0789359999999997 1.512 12.051456C1.512 21.904176 1.512264 21.958896 1.5600720000000001 22.086672C1.614264 22.231512 1.69188 22.314576 1.844544 22.391136000000003C2.097672 22.518072 1.514184 22.511184 11.988 22.510848C17.90868 22.510656 21.775848 22.501704 21.881568 22.487976C22.197192 22.44696 22.347576 22.318344 22.441008 22.009439999999998C22.488192 21.853368 22.488552000000002 21.76536 22.482312 11.916L22.476 1.98 22.417416 1.8653520000000001C22.349928 1.733232 22.257696 1.6556879999999998 22.076352 1.578576L21.948 1.524 12.012 1.5203280000000001C6.314208 1.51824 2.037696 1.525752 1.9861680000000002 1.53792M0.01188 12.036C0.01188 17.5536 0.01464 19.807224 0.018000000000000002 17.044032C0.02136 14.280864 0.02136 9.766464 0.018000000000000002 7.0120320000000005C0.01464 4.257624000000001 0.01188 6.518400000000001 0.01188 12.036M10.29588 9.774936C10.0548 9.843312 9.823488000000001 10.082904 9.76968 10.32C9.753696 10.390416 9.74496 11.507544 9.744576 13.529736000000002C9.744024 16.532328 9.742512 16.63536 9.697799999999999 16.75308C9.627144 16.939008 9.502848 17.073743999999998 9.317952 17.164800000000003L9.157152 17.244 8.220576 17.256C7.164384000000001 17.269536 7.195608 17.264376000000002 6.987096 17.459424000000002C6.82524 17.610816 6.758856000000001 17.768040000000003 6.758856000000001 18C6.758856000000001 18.2388 6.8256 18.392088 6.998304 18.549936C7.209816 18.743256000000002 7.215 18.744024 8.290272 18.743807999999998C9.297072 18.743616000000003 9.426096000000001 18.73296 9.739368 18.623952000000003C10.448592 18.377208 11.002128 17.767944 11.189352000000001 17.028L11.244 16.812 11.244 13.56L11.244 10.308 11.185248000000001 10.188624C11.111544 10.038816 10.96368 9.88944 10.820544 9.820128C10.684032 9.754056 10.442784 9.733272 10.29588 9.774936M14.668032 9.771048C13.855008000000002 9.890856000000001 13.1136 10.516176 12.865464000000001 11.291400000000001C12.741216000000001 11.679576 12.717839999999999 11.996184000000001 12.781536 12.428927999999999C12.884447999999999 13.127976 13.213632 13.708464000000001 13.824456 14.268C13.995888 14.425032 14.118552000000001 14.52312 14.777351999999999 15.030000000000001C15.158760000000001 15.323471999999999 15.4752 15.647376000000001 15.580368 15.852C15.870456 16.416336 15.764832000000002 16.94472 15.317952000000002 17.164800000000003L15.157152 17.244 14.220576 17.256C13.164384 17.269536 13.195608 17.264376000000002 12.987096000000001 17.459424000000002C12.82524 17.610816 12.758856000000002 17.768040000000003 12.758856000000002 18C12.758856000000002 18.2388 12.8256 18.392088 12.998304000000001 18.549936C13.209816 18.743256000000002 13.215 18.744024 14.290272 18.743807999999998C15.297072000000002 18.743616000000003 15.426096000000001 18.73296 15.739368 18.623952000000003C16.590312 18.327912 17.177136 17.55204 17.24664 16.631136C17.284872 16.124616 17.122944 15.470088 16.849584 15.026328C16.578744 14.586648000000002 16.260912 14.268888 15.52812 13.705224000000001C14.777952 13.128167999999999 14.532863999999998 12.889439999999999 14.398344000000002 12.604776C14.243640000000001 12.27732 14.215224000000001 11.906952 14.327568 11.682024C14.395368000000001 11.546280000000001 14.543856000000002 11.398776 14.688 11.324016C14.794512 11.268768 14.809104000000001 11.267832 15.744 11.256C16.689816 11.244024 16.692263999999998 11.243856000000001 16.811376000000003 11.185248000000001C16.96392 11.1102 17.110584 10.963368000000001 17.18484 10.811376C17.231784 10.715280000000002 17.243136000000003 10.65456 17.243136000000003 10.5C17.243136000000003 10.34544 17.231784 10.28472 17.18484 10.188624C17.110584 10.036631999999999 16.96392 9.8898 16.811376000000003 9.814752L16.692 9.756 15.756 9.752328C15.2412 9.750312 14.751624 9.758735999999999 14.668032 9.771048"/>
</svg>
