<svg xmlns="http://www.w3.org/2000/svg" width="16" height="16" viewBox="0 0 16 16" version="1.1" id="Keyboard--Streamline-Ultimate.svg">
	<path d="M12.571744 0.48048C12.470208000000001 0.505968 12.391727999999999 0.554704 12.315328 0.6396799999999999C12.220544 0.7451040000000001 12.19616 0.824528 12.177664 1.088C12.16 1.3397919999999999 12.128896000000001 1.5039040000000001 12.060944 1.704C11.951392 2.0265440000000003 11.778624 2.31232 11.545984 2.555776C11.205696 2.911888 10.827232 3.122496 10.328 3.233552C10.171040000000001 3.268464 10.139312 3.2693600000000003 8.656 3.280288C6.978624 3.29264 7.038816 3.2888960000000003 6.621824 3.406768C5.3682240000000006 3.761152 4.42624 4.8463199999999995 4.2487520000000005 6.140544C4.232640000000001 6.258064 4.224 6.443808 4.224 6.672544L4.224 7.024 3.532 7.024032C2.7907840000000004 7.02408 2.4952959999999997 7.038896 2.261424 7.087728C1.683312 7.208448000000001 1.2119680000000002 7.5224 0.9038080000000001 7.992C0.722496 8.268288 0.600784 8.568896 0.51688 8.947696L0.473392 9.144 0.46788799999999997 11.184000000000001C0.461424 13.575168 0.462384 13.595712 0.60016 14.01056C0.854144 14.775360000000001 1.46328 15.278112 2.384 15.482864L2.584 15.527328 7.904 15.532304C13.308192 15.537344 13.443472 15.536096 13.726192 15.478592C14.645520000000001 15.291616 15.261968000000001 14.635312 15.483200000000002 13.608L15.528 13.4 15.528 11.256C15.528 8.901744 15.531392 8.993168 15.430928 8.645424C15.21248 7.889376 14.622624 7.3378239999999995 13.808 7.127904000000001C13.411344 7.025696 13.794048 7.034128 9.3 7.028512L5.216 7.023392 5.2162560000000004 6.811696C5.216944000000001 6.254272 5.292800000000001 5.89416 5.487344 5.524608000000001C5.82024 4.892256000000001 6.395968 4.468256 7.128 4.31632C7.177504 4.306048 7.778224000000001 4.295456000000001 8.704 4.288512C10.322288 4.2764 10.302464 4.2774399999999995 10.678128000000001 4.183776C11.639776 3.944016 12.442176 3.283808 12.872672000000001 2.378144C13.080512 1.940896 13.195024 1.429072 13.181472 0.99792C13.176864 0.851424 13.169792 0.81184 13.136624 0.746928C13.08896 0.653616 12.982304000000001 0.552064 12.888304 0.51048C12.80536 0.473792 12.655072 0.459552 12.571744 0.48048M2.608 8.04904C2.0046559999999998 8.125344 1.6388 8.490528000000001 1.504256 9.150768C1.4729280000000002 9.304432 1.472 9.36688 1.472 11.303456C1.472 12.644096 1.477632 13.335584 1.4892 13.412928C1.578848 14.012464 1.93344 14.361792 2.5877120000000002 14.495120000000002C2.748528 14.527904000000001 2.7652959999999998 14.528 8.023456 14.528C11.70376 14.528 13.33264 14.5228 13.412928 14.5108C14.012464 14.421152000000001 14.361792 14.066559999999999 14.495120000000002 13.412288C14.527263999999999 13.254624 14.528 13.205791999999999 14.527936 11.253487999999999C14.527872 9.117888 14.527808000000002 9.115712 14.448336 8.88C14.393343999999999 8.716912 14.32056 8.5936 14.209904 8.476096C14.029824000000001 8.284848 13.789824000000001 8.15384 13.476799999999999 8.075904000000001L13.336 8.040848 8.024000000000001 8.038368C5.102399999999999 8.037008 2.6652 8.041808 2.608 8.04904M4.5009440000000005 8.960048C4.319520000000001 9.05072 4.22432 9.20488 4.22432 9.408C4.22432 9.55688 4.269247999999999 9.663408 4.3756319999999995 9.766816C4.512096 9.89944 4.539376 9.904 5.196608 9.903984000000001L5.768 9.903968 5.864 9.857888C6.05336 9.766976000000001 6.150416 9.614512000000001 6.150416 9.408C6.150416 9.26192 6.110032 9.160544 6.011232 9.058672000000001C5.873216 8.916368 5.8970400000000005 8.920624 5.207952000000001 8.915296L4.599904 8.910608 4.5009440000000005 8.960048M7.349184 8.938208000000001C7.265488 8.967856 7.147472 9.070512 7.096976 9.157584000000002C7.005248 9.315776 7.014 9.534192 7.118032 9.683616C7.182112 9.775664 7.296672 9.861792 7.389168 9.887472C7.423984000000001 9.897152 7.673376 9.903824 8 9.903824C8.326624 9.903824 8.576016 9.897152 8.610832 9.887472C8.77424 9.842096 8.927952 9.671664000000002 8.95768 9.502912C8.9904 9.317136000000001 8.932336 9.150864 8.791360000000001 9.026784C8.663856 8.914544 8.644784 8.91184 7.993152 8.913264C7.526864 8.914288 7.403168 8.919072 7.349184 8.938208000000001M10.191904000000001 8.926943999999999C10.069808000000002 8.964080000000001 9.9436 9.079664000000001 9.884992 9.208C9.857008 9.269296 9.848624 9.316048 9.849120000000001 9.408C9.850256 9.615248 9.947168 9.767232 10.136000000000001 9.857888L10.232000000000001 9.903968 10.803392 9.903984000000001C11.460624 9.904 11.487904 9.89944 11.624368 9.766816C11.730752 9.663408 11.775680000000001 9.55688 11.775680000000001 9.408C11.775680000000001 9.205456 11.680448 9.050688000000001 11.500448 8.960752000000001L11.402896 8.912 10.817440000000001 8.913376C10.495456 8.914128000000002 10.213951999999999 8.92024 10.191904000000001 8.926943999999999M3.124512 10.817472C3.0274720000000004 10.855103999999999 2.914416 10.958496 2.861296 11.058192C2.8298560000000004 11.117168 2.824096 11.1516 2.824096 11.28C2.824096 11.407727999999999 2.829936 11.44296 2.860704 11.500656000000001C2.912592 11.597952 3.01312 11.692784 3.112656 11.738352L3.1980320000000004 11.77744 3.803024 11.77272C4.386591999999999 11.76816 4.410272 11.766784 4.472 11.733647999999999C4.5581760000000004 11.687376 4.658512 11.583264 4.705456 11.491408C4.758992 11.386672 4.759551999999999 11.196544 4.706671999999999 11.078415999999999C4.663936 10.982959999999999 4.565600000000001 10.882031999999999 4.464 10.829343999999999C4.392768 10.7924 4.385728 10.791968 3.8000000000000003 10.788544C3.2392640000000004 10.785264 3.2036 10.7868 3.124512 10.817472M5.963248 10.807072C5.762207999999999 10.878784 5.630224 11.062144 5.629008 11.271376C5.6278239999999995 11.477712 5.722832 11.636384 5.904 11.73056C5.9751520000000005 11.767552 5.98296 11.768048 6.56616 11.772575999999999C7.247520000000001 11.777840000000001 7.256336 11.776512 7.39808 11.646976C7.512928 11.542 7.55712 11.440176 7.5573440000000005 11.28C7.557616 11.076368 7.456688000000001 10.917024 7.272 10.82952L7.176 10.784032 6.6000000000000005 10.78472C6.157488000000001 10.785248 6.00992 10.790432000000001 5.963248 10.807072M8.728 10.829120000000001C8.543088 10.917487999999999 8.442384 11.076608 8.442656000000001 11.28C8.442879999999999 11.44 8.487088 11.542031999999999 8.601536 11.646624C8.741312 11.774368 8.7516 11.776 9.414848000000001 11.775984000000001L9.992 11.775968 10.088000000000001 11.729936C10.467232000000001 11.548048000000001 10.469280000000001 11.029936 10.091552 10.828096C10.025360000000001 10.792736000000001 10.011888 10.791904 9.424 10.787632L8.824 10.783248 8.728 10.829120000000001M11.569023999999999 10.811584000000002C11.462416 10.849232 11.32464 10.99264 11.2804 11.112C11.194288 11.344384 11.300736 11.611632 11.528 11.733647999999999C11.589728 11.766784 11.613408 11.76816 12.196976000000001 11.77272L12.801968 11.77744 12.887343999999999 11.738352C12.98688 11.692784 13.087408 11.597952 13.139296 11.500656000000001C13.170064 11.44296 13.175904000000001 11.407727999999999 13.175904000000001 11.28C13.175904000000001 11.1516 13.170144 11.117168 13.138704 11.058192C13.083776 10.955104 12.972704 10.855056000000001 12.870928000000001 10.816976C12.787711999999999 10.78584 12.750976000000001 10.784064 12.211392 10.785264C11.73592 10.78632 11.62808 10.790736 11.569023999999999 10.811584000000002M4.5545919999999995 12.680719999999999C4.438912 12.723264 4.326720000000001 12.824352000000001 4.2623999999999995 12.944C4.215232 13.03176 4.219232 13.279424 4.269392 13.376C4.346368000000001 13.524192 4.471344 13.617792 4.630944 13.646768C4.696752000000001 13.658719999999999 5.730352 13.664 8 13.664C10.269648 13.664 11.303248 13.658719999999999 11.369056 13.646768C11.528656000000002 13.617792 11.653632 13.524192 11.730608 13.376C11.762176 13.3152 11.767968000000002 13.280352 11.767792 13.152000000000001C11.767631999999999 13.027296 11.761392 12.988352 11.733088 12.935184C11.685952 12.846608 11.581504 12.74552 11.49112 12.701008L11.416 12.664 8.016 12.661072C5.123312 12.658576 4.606832000000001 12.661504 4.5545919999999995 12.680719999999999" stroke="none" fill="#000" fill-rule="evenodd"></path>
</svg>