<svg xmlns="http://www.w3.org/2000/svg" width="24" height="24" viewBox="0 0 24 24">
    <path fill="#000" fill-rule="evenodd" stroke="none" d="M0.516 0.031824000000000005C0.31675200000000003 0.11008799999999999 0.164544 0.246072 0.06804 0.432L0.012 0.54 0.012 12L0.012 23.46 0.067512 23.572680000000002C0.13833600000000001 23.716488000000002 0.28351200000000004 23.861664 0.42732 23.932488L0.54 23.988 12 23.988L23.46 23.988 23.580000000000002 23.924064C23.74068 23.83848 23.860416 23.708256000000002 23.94996 23.521752L24.024 23.367504 24.024 11.955744000000001C24.024 5.679288000000001 24.017015999999998 0.5509919999999999 24.008471999999998 0.559512C23.999952 0.568056 23.966904 0.518568 23.935056 0.44952000000000003C23.862672 0.29256 23.73552 0.158784 23.580000000000002 0.075936L23.46 0.012 12.024000000000001 0.007776000000000001C3.29388 0.004536 0.57096 0.010248 0.516 0.031824000000000005M0.011904 12C0.011904 18.289800000000003 0.01464 20.862912 0.018000000000000002 17.718C0.02136 14.573112 0.02136 9.426912 0.018000000000000002 6.282C0.01464 3.137112 0.011904 5.7102 0.011904 12M23.943528 1.038C23.902488 1.1562 23.564064000000002 1.499856 18.484056 6.582L13.06836 12 18.483552 17.418C23.570496000000002 22.507535999999998 23.901768 22.843992 23.948136 22.968L23.997504 23.1 23.998752 12.006C23.999448 5.904288 23.997144 0.912 23.99364 0.912C23.990136000000003 0.912 23.967576 0.9686880000000001 23.943528 1.038M1.512 5.837976L1.512 10.163952 5.832 5.844C8.208 3.468024 10.152000000000001 1.521336 10.152000000000001 1.518024C10.152000000000001 1.514712 8.208 1.512 5.832 1.512L1.512 1.512 1.512 5.837976M6.905928 6.906072L1.51188 12.300168 1.517928 16.854096000000002L1.524 21.408024 11.472 11.46L21.419976000000002 1.512 16.859976 1.512L12.299952000000001 1.512 6.905928 6.906072M7.284 17.784L2.580048 22.488 12 22.488L21.419952000000002 22.488 16.716 17.784C14.128824000000002 15.196800000000001 12.006624 13.08 12 13.08C11.993376 13.08 9.871176 15.196800000000001 7.284 17.784"/>
</svg>
