<svg xmlns="http://www.w3.org/2000/svg" viewBox="0 0 24 24" id="Layout-Module-1--Streamline-Ultimate" height="24" width="24"><desc>Layout Module 1 Streamline Icon: https://streamlinehq.com</desc><path stroke="currentColor" stroke-linecap="round" stroke-linejoin="round" d="M10.002 9.1c0 0.23869 -0.09487 0.46761 -0.26365 0.6364 -0.16878 0.16878 -0.3977 0.2636 -0.6364 0.2636h-7.2c-0.23869 0 -0.46761 -0.09482 -0.63639 -0.2636 -0.16879 -0.16879 -0.26361 -0.39771 -0.26361 -0.6364V1.9c0 -0.23869 0.09482 -0.46761 0.26361 -0.6364 0.16878 -0.16878 0.3977 -0.2636 0.63639 -0.2636h7.2c0.2387 0 0.46762 0.09482 0.6364 0.2636 0.16878 0.16879 0.26365 0.39771 0.26365 0.6364v7.2Z" stroke-width="1.5" fill="none"></path><path stroke="currentColor" stroke-linecap="round" stroke-linejoin="round" d="M22.998 9.1c0 0.23869 -0.0948 0.46761 -0.2636 0.6364 -0.1687 0.16878 -0.3977 0.2636 -0.6364 0.2636h-7.2c-0.2386 0 -0.4676 -0.09482 -0.6363 -0.2636 -0.1688 -0.16879 -0.2637 -0.39771 -0.2637 -0.6364V1.9c0 -0.23869 0.0949 -0.46761 0.2637 -0.6364 0.1687 -0.16878 0.3977 -0.2636 0.6363 -0.2636h7.2c0.2387 0 0.4677 0.09482 0.6364 0.2636 0.1688 0.16879 0.2636 0.39771 0.2636 0.6364v7.2Z" stroke-width="1.5" fill="none"></path><path stroke="currentColor" stroke-linecap="round" stroke-linejoin="round" d="M10.002 22.1c0 0.2387 -0.09487 0.4676 -0.26365 0.6364 -0.16878 0.1688 -0.3977 0.2636 -0.6364 0.2636h-7.2c-0.23869 0 -0.46761 -0.0948 -0.63639 -0.2636 -0.16879 -0.1688 -0.26361 -0.3977 -0.26361 -0.6364v-7.2c0 -0.2387 0.09482 -0.4676 0.26361 -0.6364 0.16878 -0.1688 0.3977 -0.2636 0.63639 -0.2636h7.2c0.2387 0 0.46762 0.0948 0.6364 0.2636 0.16878 0.1688 0.26365 0.3977 0.26365 0.6364v7.2Z" stroke-width="1.5" fill="none"></path><path stroke="currentColor" stroke-linecap="round" stroke-linejoin="round" d="M22.998 22.1c0 0.2387 -0.0948 0.4676 -0.2636 0.6364 -0.1687 0.1688 -0.3977 0.2636 -0.6364 0.2636h-7.2c-0.2386 0 -0.4676 -0.0948 -0.6363 -0.2636 -0.1688 -0.1688 -0.2637 -0.3977 -0.2637 -0.6364v-7.2c0 -0.2387 0.0949 -0.4676 0.2637 -0.6364 0.1687 -0.1688 0.3977 -0.2636 0.6363 -0.2636h7.2c0.2387 0 0.4677 0.0948 0.6364 0.2636 0.1688 0.1688 0.2636 0.3977 0.2636 0.6364v7.2Z" stroke-width="1.5" fill="none"></path></svg>