<svg xmlns="http://www.w3.org/2000/svg" viewBox="0 0 24 24" id="Layout-Module--Streamline-Ultimate" height="32" width="32"><desc>Layout Module Streamline Icon: https://streamlinehq.com</desc><g><path d="M2.333333333333333 0.3333333333333333h4.666666666666666s2 0 2 2v4.666666666666666s0 2 -2 2h-4.666666666666666s-2 0 -2 -2v-4.666666666666666s0 -2 2 -2" fill="currentColor" stroke-width="1.3333"></path><path d="M2.333333333333333 11.666666666666666h4.666666666666666s2 0 2 2v4.666666666666666s0 2 -2 2h-4.666666666666666s-2 0 -2 -2v-4.666666666666666s0 -2 2 -2" fill="currentColor" stroke-width="1.3333"></path><path d="M2.333333333333333 23h4.666666666666666s2 0 2 2v4.666666666666666s0 2 -2 2h-4.666666666666666s-2 0 -2 -2v-4.666666666666666s0 -2 2 -2" fill="currentColor" stroke-width="1.3333"></path><path d="M13.666666666666666 0.3333333333333333h4.666666666666666s2 0 2 2v4.666666666666666s0 2 -2 2h-4.666666666666666s-2 0 -2 -2v-4.666666666666666s0 -2 2 -2" fill="currentColor" stroke-width="1.3333"></path><path d="M13.666666666666666 11.666666666666666h4.666666666666666s2 0 2 2v4.666666666666666s0 2 -2 2h-4.666666666666666s-2 0 -2 -2v-4.666666666666666s0 -2 2 -2" fill="currentColor" stroke-width="1.3333"></path><path d="M13.666666666666666 23h4.666666666666666s2 0 2 2v4.666666666666666s0 2 -2 2h-4.666666666666666s-2 0 -2 -2v-4.666666666666666s0 -2 2 -2" fill="currentColor" stroke-width="1.3333"></path><path d="M25 0.3333333333333333h4.666666666666666s2 0 2 2v4.666666666666666s0 2 -2 2h-4.666666666666666s-2 0 -2 -2v-4.666666666666666s0 -2 2 -2" fill="currentColor" stroke-width="1.3333"></path><path d="M25 11.666666666666666h4.666666666666666s2 0 2 2v4.666666666666666s0 2 -2 2h-4.666666666666666s-2 0 -2 -2v-4.666666666666666s0 -2 2 -2" fill="currentColor" stroke-width="1.3333"></path><path d="M25 23h4.666666666666666s2 0 2 2v4.666666666666666s0 2 -2 2h-4.666666666666666s-2 0 -2 -2v-4.666666666666666s0 -2 2 -2" fill="currentColor" stroke-width="1.3333"></path></g></svg>
