<svg xmlns="http://www.w3.org/2000/svg" viewBox="0 0 24 24" height="24" width="24"><desc>Layout Module Streamline Icon: https://streamlinehq.com</desc><path d="M1.75.25h3.5s1.5 0 1.5 1.5v3.5s0 1.5-1.5 1.5h-3.5s-1.5 0-1.5-1.5v-3.5s0-1.5 1.5-1.5m0 8.5h3.5s1.5 0 1.5 1.5v3.5s0 1.5-1.5 1.5h-3.5s-1.5 0-1.5-1.5v-3.5s0-1.5 1.5-1.5m0 8.5h3.5s1.5 0 1.5 1.5v3.5s0 1.5-1.5 1.5h-3.5s-1.5 0-1.5-1.5v-3.5s0-1.5 1.5-1.5m8.5-17h3.5s1.5 0 1.5 1.5v3.5s0 1.5-1.5 1.5h-3.5s-1.5 0-1.5-1.5v-3.5s0-1.5 1.5-1.5m0 8.5h3.5s1.5 0 1.5 1.5v3.5s0 1.5-1.5 1.5h-3.5s-1.5 0-1.5-1.5v-3.5s0-1.5 1.5-1.5m0 8.5h3.5s1.5 0 1.5 1.5v3.5s0 1.5-1.5 1.5h-3.5s-1.5 0-1.5-1.5v-3.5s0-1.5 1.5-1.5m8.5-17h3.5s1.5 0 1.5 1.5v3.5s0 1.5-1.5 1.5h-3.5s-1.5 0-1.5-1.5v-3.5s0-1.5 1.5-1.5m0 8.5h3.5s1.5 0 1.5 1.5v3.5s0 1.5-1.5 1.5h-3.5s-1.5 0-1.5-1.5v-3.5s0-1.5 1.5-1.5m0 8.5h3.5s1.5 0 1.5 1.5v3.5s0 1.5-1.5 1.5h-3.5s-1.5 0-1.5-1.5v-3.5s0-1.5 1.5-1.5" fill="currentColor"/></svg>
