<svg xmlns="http://www.w3.org/2000/svg" width="24" height="24" viewBox="0 0 24 24" version="1.1">
	<path d="M 1616.500 0.642 C 1582.336 4.660, 1560.716 13.612, 1542.134 31.435 C 1530.041 43.034, 1522.303 55.708, 1516.517 73.389 C 1512.297 86.285, 1510.306 97.079, 1509.026 114 C 1508.366 122.729, 1508.004 226.717, 1508.002 408.250 L 1508 689 1184.750 689.009 C 981.168 689.014, 856.317 689.385, 847.500 690.010 C 810.175 692.654, 783.838 702.983, 764.618 722.512 C 745.266 742.175, 735.457 768.165, 733.046 806.159 C 732.391 816.485, 732.008 893.263, 732.005 1014.736 L 732 1206.972 416.750 1207.274 L 101.500 1207.575 92 1209.747 C 68.696 1215.075, 55.886 1220.472, 42.312 1230.679 C 21.305 1246.475, 8.022 1270.192, 2.367 1302 C 0.560 1312.164, 0.500 1329.805, 0.500 1854 C 0.500 2368.867, 0.587 2395.954, 2.278 2404.736 C 7.715 2432.970, 16.836 2451.981, 32.428 2467.572 C 48.019 2483.164, 67.030 2492.285, 95.264 2497.722 C 104.083 2499.420, 156.234 2499.500, 1250 2499.500 C 2343.766 2499.500, 2395.917 2499.420, 2404.736 2497.722 C 2446.170 2489.744, 2472.167 2471.394, 2487.060 2439.613 C 2492.827 2427.306, 2498.985 2403.639, 2498.997 2393.736 C 2498.999 2392.216, 2499.500 2390.172, 2500.112 2389.193 C 2500.927 2387.887, 2500.961 2082.891, 2500.240 1244.956 C 2499.331 189.261, 2499.131 101.876, 2497.605 94.281 C 2492.016 66.469, 2482.846 47.611, 2467.520 32.414 C 2451.802 16.829, 2433.659 8.052, 2405.262 2.296 C 2396.963 0.613, 2375.958 0.513, 2008 0.405 C 1794.325 0.341, 1618.150 0.448, 1616.500 0.642 M 1768 1250 L 1768 2241 2004.500 2241 L 2241 2241 2241 1250 L 2241 259 2004.500 259 L 1768 259 1768 1250 M 992 1595 L 992 2241 1250 2241 L 1508 2241 1508 1595 L 1508 949 1250 949 L 992 949 992 1595 M 0.496 1853.500 C 0.496 2148.850, 0.610 2269.526, 0.750 2121.668 C 0.890 1973.810, 0.890 1732.160, 0.750 1584.668 C 0.610 1437.176, 0.496 1558.150, 0.496 1853.500 M 259 1853.500 L 259 2241 495.500 2241 L 732 2241 732 1853.500 L 732 1466 495.500 1466 L 259 1466 259 1853.500" stroke="none" fill="#000000" fill-rule="evenodd"></path>
</svg>
