<svg xmlns="http://www.w3.org/2000/svg" id="Outline_Version" data-name="Outline Version" viewBox="0 0 24 24">
    <path d="M.81 7.95a.75.75 0 0 0-.75.75V22.63a.75.75 0 0 0 .75.75H5.67a.75.75 0 0 0 .75-.75V8.7a.75.75 0 0 0-.75-.75ZM4.92 21.88H1.56V9.45H4.92ZM17.89 7.94a7.35 7.35 0 0 0-3.53.93V8.7a.75.75 0 0 0-.75-.75H8.51a.75.75 0 0 0-.75.75V22.63a.75.75 0 0 0 .75.75h5.11a.75.75 0 0 0 .75-.75V15.38a1.39 1.39 0 0 1 2.79 0v7.25a.75.75 0 0 0 .75.75h5.36a.75.75 0 0 0 .75-.75V15.5C24 10.83 21.67 7.94 17.89 7.94Zm4.62 13.94H18.65v-6.5a2.89 2.89 0 0 0-5.79 0v6.5H9.26V9.45h3.61v.84a.75.75 0 0 0 1.26.55 6.07 6.07 0 0 1 3.77-1.4c2.93 0 4.62 2.21 4.62 6.06ZM3.24 7.13A3.25 3.25 0 1 0 0 3.88 3.25 3.25 0 0 0 3.24 7.13Zm0-5A1.75 1.75 0 1 1 1.49 3.88 1.75 1.75 0 0 1 3.24 2.13Z"/>
</svg>
