<svg width="24" height="24" viewBox="0 0 24 24" fill="none" xmlns="http://www.w3.org/2000/svg">
<path d="M4.30001 17.017C3.13977 16.0607 2.21637 14.849 1.60197 13.4767C0.987574 12.1044 0.698818 10.6086 0.758267 9.1062C0.817716 7.60381 1.22376 6.13551 1.94467 4.81603C2.66558 3.49656 3.68183 2.36165 4.91401 1.49999M7.55501 14.573C6.84935 13.9554 6.28009 13.1977 5.88349 12.3479C5.4869 11.4982 5.27168 10.5752 5.25155 9.63766C5.23142 8.70016 5.40681 7.76874 5.76656 6.90277C6.12631 6.0368 6.66251 5.25527 7.34101 4.60799M23.149 7.06599C22.9584 5.97422 22.5018 4.94618 21.8197 4.07266C21.1376 3.19914 20.2509 2.50702 19.2379 2.05742C18.2249 1.60782 17.1168 1.41457 16.0114 1.49473C14.906 1.5749 13.8373 1.92602 12.8998 2.51708C11.9623 3.10814 11.1847 3.92095 10.6358 4.88375C10.0868 5.84655 9.78339 6.9297 9.75227 8.03756C9.72116 9.14542 9.96332 10.2439 10.4574 11.236C10.9514 12.2281 11.6821 13.0832 12.585 13.726C13.1794 14.1134 13.6545 14.6584 13.9574 15.3C14.2602 15.9417 14.3788 16.6549 14.3 17.36C14.1322 18.5123 14.4182 19.6847 15.0978 20.6302C15.7774 21.5758 16.7974 22.2206 17.943 22.429C18.5918 22.5473 19.2586 22.5215 19.8963 22.3535C20.534 22.1855 21.127 21.8794 21.6333 21.4569C22.1396 21.0343 22.5469 20.5057 22.8263 19.9083C23.1056 19.3109 23.2503 18.6595 23.25 18M20.058 8.41999C19.9678 7.69622 19.5938 7.03791 19.0183 6.58988C18.4427 6.14186 17.7128 5.94082 16.989 6.03099C16.2652 6.12117 15.6069 6.49517 15.1589 7.07072C14.7109 7.64627 14.5098 8.37622 14.6 9.09999" fill="transparent" stroke="black" stroke-width="1.5" stroke-linecap="round" stroke-linejoin="round"/>
</svg>
