<svg width="24" height="24" viewBox="0 0 24 24" fill="none" xmlns="http://www.w3.org/2000/svg">
<g clip-path="url(#clip0_3606_22693)">
<path d="M4.29998 17.017C3.13973 16.0607 2.21634 14.849 1.60194 13.4767C0.987543 12.1044 0.698788 10.6086 0.758237 9.10621C0.817686 7.60381 1.22373 6.13551 1.94464 4.81604C2.66555 3.49657 3.6818 2.36166 4.91398 1.5" stroke="black" stroke-width="1.5" stroke-linecap="round" stroke-linejoin="round"/>
<path d="M7.55501 14.5734C6.84936 13.9558 6.28009 13.1981 5.8835 12.3483C5.48691 11.4986 5.27169 10.5756 5.25156 9.63807C5.23142 8.70056 5.40682 7.76914 5.76657 6.90317C6.12631 6.0372 6.66252 5.25568 7.34101 4.6084" stroke="black" stroke-width="1.5" stroke-linecap="round" stroke-linejoin="round"/>
<path d="M23.149 7.06648C22.9584 5.97471 22.5019 4.94667 21.8197 4.07315C21.1376 3.19963 20.2509 2.50751 19.2379 2.05791C18.2249 1.60831 17.1168 1.41506 16.0114 1.49522C14.906 1.57539 13.8374 1.9265 12.8998 2.51756C11.9623 3.10862 11.1847 3.92144 10.6358 4.88424C10.0868 5.84704 9.78341 6.93019 9.75229 8.03805C9.72118 9.14591 9.96334 10.2444 10.4574 11.2365C10.9514 12.2286 11.6821 13.0837 12.585 13.7265C13.1794 14.1139 13.6546 14.6588 13.9574 15.3005C14.2602 15.9422 14.3788 16.6553 14.3 17.3605C14.1323 18.5127 14.4183 19.6851 15.0978 20.6307C15.7774 21.5763 16.7974 22.2211 17.943 22.4295C18.5918 22.5477 19.2586 22.522 19.8963 22.354C20.5341 22.186 21.127 21.8799 21.6334 21.4573C22.1397 21.0348 22.5469 20.5061 22.8263 19.9088C23.1057 19.3114 23.2503 18.6599 23.25 18.0005" stroke="black" stroke-width="1.5" stroke-linecap="round" stroke-linejoin="round"/>
<path d="M20.058 8.41987C19.9678 7.6961 19.5938 7.03779 19.0182 6.58976C18.4427 6.14174 17.7127 5.9407 16.989 6.03087C16.2652 6.12105 15.6069 6.49505 15.1589 7.0706C14.7108 7.64615 14.5098 8.3761 14.6 9.09987" stroke="black" stroke-width="1.5" stroke-linecap="round" stroke-linejoin="round"/>
</g>
<defs>
<clipPath id="clip0_3606_22693">
<rect width="24" height="24" fill="white"/>
</clipPath>
</defs>
</svg>
