<svg width="16" height="16" viewBox="0 0 16 16" fill="none" xmlns="http://www.w3.org/2000/svg">
<path d="M7.99975 13.3135C10.658 13.3135 12.813 11.1585 12.813 8.50024C12.813 5.84197 10.658 3.68701 7.99975 3.68701C5.34148 3.68701 3.18652 5.84197 3.18652 8.50024C3.18652 11.1585 5.34148 13.3135 7.99975 13.3135Z" stroke="currentColor" stroke-miterlimit="10" stroke-linecap="round" stroke-linejoin="round" fill="transparent"/>
<path d="M1.14844 8.50024C1.14844 7.68956 1.28923 6.91173 1.54771 6.18992M1.54771 10.8106C2.49572 13.458 5.02679 15.3521 8.00024 15.3521C11.7844 15.3521 14.8521 12.2844 14.8521 8.50024C14.8521 5.93842 13.4461 3.70497 11.3637 2.52941M2.73875 4.11091C3.23706 3.51423 3.83497 3.00361 4.50693 2.6046M6.81056 1.75136C7.19693 1.68371 7.59449 1.64844 8.00024 1.64844C8.40599 1.64844 8.80356 1.68371 9.18993 1.75136" stroke="currentColor" stroke-miterlimit="10" stroke-linecap="round" stroke-linejoin="round" fill="transparent"/>
<path d="M6.45801 10.2528V6.74758C6.45801 6.25605 6.99921 5.95688 7.41546 6.21834L10.2055 7.97095C10.5956 8.21601 10.5956 8.78445 10.2055 9.02945L7.41546 10.7821C6.99921 11.0436 6.45801 10.7444 6.45801 10.2528Z" stroke="currentColor" stroke-linecap="round" stroke-linejoin="round" fill="transparent"/>
</svg>
