<svg xmlns="http://www.w3.org/2000/svg" fill="none" viewBox="0 0 24 24" id="Online-Class-Student--Streamline-Ultimate" height="24" width="24">
  <desc>
    Online Class Student Streamline Icon: https://streamlinehq.com
  </desc>
  <path fill="transparent" stroke="currentColor" stroke-linecap="round" stroke-linejoin="round" stroke-miterlimit="10" stroke-width="1.5" d="M11.3 7.79996c-1.215 0 -2.19999 -0.98497 -2.19999 -2.2 0 -1.21502 0.98499 -2.2 2.19999 -2.2s2.2 0.98498 2.2 2.2c0 1.21503 -0.985 2.2 -2.2 2.2Z"></path>
  <path fill="transparent" stroke="currentColor" stroke-linecap="round" stroke-linejoin="round" stroke-miterlimit="10" stroke-width="1.5" d="M7.89996 12.3c0 -1.9 1.5 -3.40004 3.40004 -3.40004 1.9 0 3.4 1.50004 3.4 3.40004"></path>
  <path fill="transparent" stroke="currentColor" stroke-linecap="round" stroke-linejoin="round" stroke-miterlimit="10" stroke-width="1.5" d="M18.25 16.45s-0.5 -1.4 -4.3 -1.6c-0.4 0 -0.7 0.2 -0.7 0.5v5.8c0 0.3 0.3 0.5 0.6 0.5 3.9 0.1 4.4 1.6 4.4 1.6v-6.8Zm0 0s0.5 -1.4 4.3 -1.6c0.4 0 0.7 0.2 0.7 0.5v5.8c0 0.3 -0.3 0.5 -0.6 0.5 -3.9 0.1 -4.4 1.6 -4.4 1.6"></path>
  <path fill="transparent" stroke="currentColor" stroke-linecap="round" stroke-linejoin="round" stroke-miterlimit="10" stroke-width="1.5" d="M21.35 12.15v-10c0 -0.8 -0.6 -1.4 -1.4 -1.4H2.14998c-0.8 0 -1.399995 0.6 -1.399995 1.4v13.7c0 0.8 0.599995 1.4 1.399995 1.4h7.79997"></path>
  <path fill="transparent" stroke="currentColor" stroke-linecap="round" stroke-linejoin="round" stroke-miterlimit="10" stroke-width="1.5" d="m8.6499 17.25 -0.69999 4"></path>
  <path fill="transparent" stroke="currentColor" stroke-linecap="round" stroke-linejoin="round" stroke-miterlimit="10" stroke-width="1.5" d="M9.69995 21.25H6.94998"></path>
</svg>