<svg xmlns="http://www.w3.org/2000/svg" fill="none" viewBox="0 0 24 24" id="Live-Video--Streamline-Ultimate" height="24" width="24">
  <desc>
    Live Video Streamline Icon: https://streamlinehq.com
  </desc>
  <path fill="transparent" stroke="currentColor" stroke-linecap="round" stroke-linejoin="round" stroke-miterlimit="10" d="M12 19.7012c4.2532 0 7.7012 -3.448 7.7012 -7.7012 0 -4.25324 -3.448 -7.70117 -7.7012 -7.70117 -4.25324 0 -7.70117 3.44793 -7.70117 7.70117 0 4.2532 3.44793 7.7012 7.70117 7.7012Z" stroke-width="1.5"></path>
  <path fill="transparent" stroke="currentColor" stroke-linecap="round" stroke-linejoin="round" stroke-miterlimit="10" d="M1.03711 12c0 -1.2971 0.22527 -2.54162 0.63883 -3.69652m0 7.39302C3.19277 19.9324 7.24248 22.9629 12 22.9629c6.0546 0 10.9629 -4.9083 10.9629 -10.9629 0 -4.09892 -2.2495 -7.67243 -5.5813 -9.55334M3.58161 4.97706c0.7973 -0.95468 1.75395 -1.77168 2.82908 -2.41009m3.68581 -1.36519c0.6182 -0.10824 1.2543 -0.16467 1.9035 -0.16467s1.2853 0.05643 1.9035 0.16467" stroke-width="1.5"></path>
  <path fill="transparent" stroke="currentColor" stroke-linecap="round" stroke-linejoin="round" d="m9.53287 14.8042 0 -5.60839c0 -0.78645 0.86593 -1.26512 1.53193 -0.84679l4.4641 2.80418c0.6241 0.3921 0.6241 1.3016 0 1.6936l-4.4641 2.8042c-0.666 0.4184 -1.53193 -0.0603 -1.53193 -0.8468Z" stroke-width="1.5"></path>
</svg>
