<svg width="24" height="24" viewBox="0 0 24 24" fill="none" xmlns="http://www.w3.org/2000/svg">
  <path d="M11.3001 7.80039C10.0851 7.80039 9.1001 6.81542 9.1001 5.60039C9.1001 4.38537 10.0851 3.40039 11.3001 3.40039C12.5151 3.40039 13.5001 4.38537 13.5001 5.60039C13.5001 6.81542 12.5151 7.80039 11.3001 7.80039Z" stroke="currentColor" stroke-width="1.5" stroke-miterlimit="10" stroke-linecap="round" stroke-linejoin="round"/>
  <path d="M7.8999 12.3004C7.8999 10.4004 9.3999 8.90039 11.2999 8.90039C13.1999 8.90039 14.6999 10.4004 14.6999 12.3004" stroke="currentColor" stroke-width="1.5" stroke-miterlimit="10" stroke-linecap="round" stroke-linejoin="round"/>
  <path d="M18.25 16.4496C18.25 16.4496 17.75 15.0496 13.95 14.8496C13.55 14.8496 13.25 15.0496 13.25 15.3496V21.1496C13.25 21.4496 13.55 21.6496 13.85 21.6496C17.75 21.7496 18.25 23.2496 18.25 23.2496M18.25 16.4496V23.2496M18.25 16.4496C18.25 16.4496 18.75 15.0496 22.55 14.8496C22.95 14.8496 23.25 15.0496 23.25 15.3496V21.1496C23.25 21.4496 22.95 21.6496 22.65 21.6496C18.75 21.7496 18.25 23.2496 18.25 23.2496" stroke="currentColor" stroke-width="1.5" stroke-miterlimit="10" stroke-linecap="round" stroke-linejoin="round"/>
  <path d="M21.35 12.15V2.15C21.35 1.35 20.75 0.75 19.95 0.75H2.15C1.35 0.75 0.75 1.35 0.75 2.15V15.85C0.75 16.65 1.35 17.25 2.15 17.25H9.94997" stroke="currentColor" stroke-width="1.5" stroke-miterlimit="10" stroke-linecap="round" stroke-linejoin="round"/>
  <path d="M8.64994 17.25L7.94995 21.25" stroke="currentColor" stroke-width="1.5" stroke-miterlimit="10" stroke-linecap="round" stroke-linejoin="round"/>
  <path d="M9.69992 21.25H6.94995" stroke="currentColor" stroke-width="1.5" stroke-miterlimit="10" stroke-linecap="round" stroke-linejoin="round"/>
</svg>
