<svg xmlns="http://www.w3.org/2000/svg" width="16" height="16" viewBox="0 0 24 24">
    <path d="M12.768 22.192A9.733 9.733 0 0 1 8.761 17.5h2.031a1 1 0 1 0 0-2H8.106a15 15 0 0 1-.4-3.5A15.263 15.263 0 0 1 8 9c11.014 0 13.746.008 14.486-.018a.942.942 0 0 0 .892-1.375A11.944 11.944 0 0 0 12.147 0C4.635.486.583 6.091.237 11.161A12.012 12.012 0 0 0 12.206 24h.007a.984.984 0 0 0 .957-.809.947.947 0 0 0-.402-.999zM6.062 15.5H2.853A9.888 9.888 0 0 1 2.67 9h3.285a17.823 17.823 0 0 0-.247 3 17.249 17.249 0 0 0 .354 3.5zm6.145-13.331A10.161 10.161 0 0 1 15.849 7H8.564a10.048 10.048 0 0 1 3.643-4.831zM20.873 7h-2.907a12.982 12.982 0 0 0-2.4-4.42A9.908 9.908 0 0 1 20.873 7zM8.82 2.6A12.9 12.9 0 0 0 6.451 7H3.562A10.041 10.041 0 0 1 8.82 2.6zM3.866 17.5h2.741a12.715 12.715 0 0 0 2.213 3.9 10.04 10.04 0 0 1-4.954-3.9z"/>
    <path d="M18.792 11a5.006 5.006 0 0 0-5 5c0 3.171 4.457 7.664 4.646 7.854a.5.5 0 0 0 .707 0c.189-.19 4.647-4.683 4.647-7.854a5.006 5.006 0 0 0-5-5zm0 3.25a1.75 1.75 0 1 1-1.75 1.75 1.753 1.753 0 0 1 1.75-1.752z"/>
</svg>
