<svg xmlns="http://www.w3.org/2000/svg" width="24" height="24" viewBox="0 0 24 24">
  <title>brain-1</title>
	<path d="M7.056 0.016656C6.550608 0.070728 5.926608 0.29560800000000004 5.472 0.587496C4.21164 1.396752 3.540432 2.9243040000000002 3.8020560000000003 4.387992C3.824856 4.5156719999999995 3.826152 4.566576 3.80676 4.573367999999999C3.7920480000000003 4.578504 3.6882 4.611144 3.576 4.645872C3.021576 4.81752 2.438832 5.236344000000001 2.07684 5.723328C1.869696 6.002016 1.6560240000000002 6.469463999999999 1.5738720000000002 6.823728C1.44252 7.390032000000001 1.496736 8.07768 1.715856 8.625456C1.751496 8.714496 1.7768880000000002 8.790792 1.772328 8.795016C1.7677440000000002 8.799216000000001 1.6560000000000001 8.883264 1.524 8.98176C1.17996 9.238512 0.884208 9.548376 0.637896 9.910128C0.357624 10.321824000000001 0.149592 10.825464 0.057192 11.316C-0.006168 11.652504 -0.006168 12.347496000000001 0.057192 12.684000000000001C0.23328000000000002 13.618968 0.8126880000000001 14.526984000000002 1.5728880000000003 15.059304000000001C1.664808 15.123648000000001 1.7492400000000001 15.184224000000002 1.7605439999999999 15.193895999999999C1.771848 15.203567999999999 1.751856 15.284616000000002 1.716096 15.373992C1.494072 15.928968 1.441128 16.6026 1.574352 17.178072C1.6584240000000001 17.541287999999998 1.8742320000000001 18.00816 2.091 18.295728C2.45268 18.775560000000002 3.0252 19.183608 3.576 19.354128C3.6882 19.388856 3.7920480000000003 19.421496 3.80676 19.426632C3.826152 19.433424 3.824856 19.484328 3.8020560000000003 19.612008C3.599424 20.745672000000003 3.961296 21.962040000000002 4.752576 22.80696C5.289359999999999 23.380152 5.910336 23.735784 6.696 23.919984000000003C7.075704000000001 24.008976 7.702368000000001 24.024456 8.108903999999999 23.954856C8.892 23.820792 9.564072 23.476368 10.145112000000001 22.911312000000002L10.318224 22.742952000000002 10.433112000000001 22.809072C10.958592 23.111448 11.430288000000001 23.241696 12 23.241696C12.569712 23.241696 13.041408000000002 23.111448 13.566888 22.809072L13.681776 22.742952000000002 13.854888 22.911312000000002C14.435927999999999 23.476368 15.108 23.820792 15.891096000000001 23.954856C16.297632 24.024456 16.924296 24.008976 17.304000000000002 23.919984000000003C18.089664 23.735784 18.71064 23.380152 19.247424 22.80696C20.037984 21.962808 20.400384 20.744616 20.197944 19.612008C20.175144 19.484328 20.173848 19.433424 20.19324 19.426632C20.207952000000002 19.421496 20.3118 19.388856 20.424 19.354128C20.97828 19.182528 21.556776 18.766896 21.924504 18.276C22.127592 18.004896 22.344 17.530464000000002 22.426128000000002 17.176272C22.557528 16.609728 22.503287999999998 15.922344 22.283904 15.373992C22.248144 15.284616000000002 22.228152 15.203567999999999 22.239456 15.193895999999999C22.25076 15.184224000000002 22.335192000000003 15.123648000000001 22.427112 15.059304000000001C23.032032 14.635704 23.565672 13.916784 23.807232 13.200000000000001C23.889072000000002 12.957144 23.976 12.555672000000001 23.976 12.420576C23.976 12.375623999999998 23.986800000000002 12.332160000000002 24 12.324C24.01416 12.315263999999999 24.024 12.171288 24.024 11.973168000000001C24.024 11.755272 24.015552 11.642376 24 11.652000000000001C23.985744 11.660808000000001 23.976 11.632536 23.976 11.582256C23.976 11.535768 23.955312000000003 11.392007999999999 23.93004 11.26284C23.7552 10.369632 23.228448 9.543264 22.476 8.98176C22.344 8.883264 22.232256000000003 8.799216000000001 22.227672000000002 8.795016C22.223112 8.790792 22.248504 8.714496 22.284144 8.625456C22.503263999999998 8.07768 22.55748 7.390032000000001 22.426128000000002 6.823728C22.343976 6.469463999999999 22.130304 6.002016 21.923160000000003 5.723328C21.561168 5.236344000000001 20.978424 4.81752 20.424 4.645872C20.3118 4.611144 20.207952000000002 4.578504 20.19324 4.573367999999999C20.173848 4.566576 20.175144 4.5156719999999995 20.197944 4.387992C20.249304000000002 4.100712 20.264856 3.6617520000000003 20.233944 3.372C20.0586 1.727856 18.876792000000002 0.41673600000000005 17.256 0.068208C16.89528 -0.00936 16.271832 -0.019848 15.891096000000001 0.045216C15.108384 0.178992 14.436 0.5235839999999999 13.854888 1.088688L13.681776 1.2570480000000002 13.566888 1.190928C13.232016 0.9982320000000001 12.850488 0.8541120000000001 12.504 0.7894559999999999C12.302832000000002 0.7519199999999999 11.697168 0.7519199999999999 11.496 0.7894559999999999C11.149512 0.8541120000000001 10.767984 0.9982320000000001 10.433112000000001 1.190928L10.318224 1.2570480000000002 10.145112000000001 1.088688C9.401448 0.365472 8.490216 -0.007056 7.491624000000001 0.00384C7.2982320000000005 0.005952 7.102200000000001 0.011736 7.056 0.016656M7.176 1.5145199999999999C6.9724319999999995 1.545696 6.63156 1.6607280000000002 6.433536000000001 1.7651040000000002C5.745864 2.1275280000000003 5.2968 2.8458 5.262408 3.6383520000000003C5.247672 3.977808 5.273256 4.153752 5.38968 4.5139439999999995C5.52756 4.940448 5.487192 5.198928 5.247432 5.4247440000000005C4.73436 5.908032 4.65552 5.9591520000000004 4.338624 6.014112C4.064592 6.061656 3.8677200000000003 6.130848 3.70344 6.2373840000000005C3.11808 6.616968 2.87316 7.296143999999999 3.0826080000000005 7.958976000000001C3.151704 8.177688 3.233952 8.315808 3.432384 8.546376C3.603456 8.74512 3.636288 8.805192 3.6674880000000005 8.97648C3.720168 9.265704000000001 3.5990640000000003 9.566832 3.365232 9.728064C3.316152 9.761904 3.1788 9.823751999999999 3.06 9.865512C2.6628000000000003 10.005144 2.425368 10.1514 2.162712 10.418256C1.88016 10.70532 1.690416 11.027976 1.5829440000000001 11.404176C1.519296 11.62704 1.494696 12.107376 1.534032 12.36C1.5942 12.746448 1.7762400000000003 13.141008000000001 2.03484 13.445447999999999C2.312568 13.772400000000001 2.595936 13.965312 3.036 14.127024C3.168 14.175528000000002 3.3142319999999996 14.239296 3.36096 14.26872C3.543168 14.383488 3.680304 14.640792000000001 3.6804 14.868C3.6804720000000004 15.090672000000001 3.620856 15.230712000000002 3.4294800000000003 15.457272C3.2220480000000005 15.702888000000002 3.1645920000000003 15.799752 3.0847680000000004 16.0386C2.867544 16.688568 3.1163520000000005 17.381904 3.70344 17.762616C3.8677200000000003 17.869152 4.064592 17.938344 4.338624 17.985888000000003C4.65552 18.040848 4.73436 18.091968 5.247432 18.575256000000003C5.487192 18.801072 5.52756 19.059552 5.38968 19.486056C5.273256 19.846248 5.247672 20.022192 5.262408 20.361648000000002C5.303184 21.300984000000003 5.901672 22.090775999999998 6.797352 22.3872C7.338768 22.566384 7.8484560000000005 22.542047999999998 8.396688000000001 22.310807999999998C8.828016 22.128912 9.198384 21.79344 9.456576 21.350832C9.68628 20.957064 9.848136 20.844984 10.188 20.84436C10.455072 20.843856000000002 10.594944 20.914368 10.81524 21.160512C10.97532 21.33936 11.19036 21.528 11.23416 21.528C11.247216 21.528 11.256 18.989256 11.256 15.207L11.256 8.885976000000001 11.047728000000001 8.78604C10.788432 8.661624 10.591632 8.521728 10.398552 8.324592C9.961248000000001 7.878048000000001 9.755976 7.371384000000001 9.758208 6.744C9.759432 6.397728 9.798864 6.19068 9.920184 5.893104C10.115472 5.414088 10.467288 5.0235840000000005 10.926936 4.77564C11.281704000000001 4.584288 11.591928000000001 4.506480000000001 12 4.506480000000001C12.408072 4.506480000000001 12.718296 4.584288 13.073064 4.77564C14.17848 5.37192 14.576927999999999 6.757536000000001 13.95876 7.85568C13.847256000000002 8.053752 13.779143999999999 8.143128 13.601448 8.324592C13.408368000000001 8.521728 13.211568 8.661624 12.952272 8.78604L12.744 8.885976000000001 12.744 15.207C12.744 18.989256 12.752784 21.528 12.765839999999999 21.528C12.80964 21.528 13.024680000000002 21.33936 13.18476 21.160512C13.40796 20.911104 13.543488 20.844 13.824 20.844C14.00484 20.844 14.042448 20.852016 14.155296 20.914512C14.319816 21.005664 14.40864 21.1068 14.556072000000002 21.370800000000003C14.70108 21.630552 15.002352 21.958008 15.244224 22.118807999999998C15.553488 22.324416 15.977160000000001 22.47036 16.35648 22.501944C17.034384 22.558416 17.818848 22.214351999999998 18.247128 21.672719999999998C18.550272 21.289344 18.71664 20.844672 18.737592 20.361648000000002C18.752328 20.022192 18.726744 19.846248 18.610319999999998 19.486056C18.472416 19.059504 18.512808 18.800928 18.752568 18.575400000000002C19.291248 18.068687999999998 19.3482 18.032544 19.692312 17.97936C20.360376000000002 17.876064 20.833512 17.42712 20.966616000000002 16.770192C21.016248 16.525296 20.99964 16.291224 20.914632 16.036848C20.836104000000002 15.801816 20.775552 15.699024 20.580768000000003 15.469800000000001C20.393688 15.249648 20.363976 15.196272 20.332512 15.023520000000001C20.279016 14.729832000000002 20.403048 14.427672000000001 20.641920000000002 14.269584000000002C20.694864 14.234544 20.832168 14.17296 20.94708 14.132736000000001C21.745344000000003 13.853280000000002 22.290144 13.238784 22.453056 12.43416C22.508352 12.160968 22.49112 11.656752 22.417824 11.404176C22.307856 11.02512 22.11912 10.7046 21.837287999999997 10.418256C21.576432 10.153224 21.337416 10.005408000000001 20.947344 9.867864C20.832576 9.8274 20.695752 9.767184 20.643264 9.734064C20.453352 9.614184 20.319696 9.365544 20.3196 9.132C20.319528000000002 8.909328 20.379144 8.769288 20.570520000000002 8.542728C20.777664 8.297472 20.835432 8.200175999999999 20.914632 7.963152C21.094968 7.423584 20.957856 6.849648 20.551584000000002 6.443352000000001C20.319528000000002 6.211320000000001 20.053176 6.081816 19.67304 6.016224C19.338383999999998 5.958480000000001 19.286928 5.9253599999999995 18.752568 5.42424C18.512832000000003 5.199432 18.472392 4.9405920000000005 18.610319999999998 4.5139439999999995C18.726744 4.153752 18.752328 3.977808 18.737592 3.6383520000000003C18.696816000000002 2.6990160000000003 18.098328 1.909224 17.202648 1.6128C16.661232 1.433616 16.151544 1.457952 15.603312 1.689192C15.171984000000002 1.871088 14.801616000000001 2.20656 14.543424 2.649168C14.313552000000001 3.043224 14.1516 3.15528 13.812000000000001 3.15528C13.534584 3.15528 13.444848 3.106824 13.131984000000001 2.7882C12.737208 2.386104 12.480623999999999 2.26824 12 2.26824C11.519376 2.26824 11.262792000000001 2.386104 10.868016 2.7882C10.551792 3.110256 10.46676 3.155424 10.176 3.1557600000000003C9.99492 3.155976 9.957696 3.1480799999999998 9.844704 3.0854880000000002C9.680184 2.994336 9.59136 2.8931999999999998 9.443928 2.6292C9.298919999999999 2.369448 8.997648 2.041992 8.755776000000001 1.881192C8.308968 1.584144 7.677912 1.437672 7.176 1.5145199999999999M11.806824 6.031272C11.572944000000001 6.097392 11.391 6.265392 11.304744000000001 6.494856C11.124528 6.974304 11.484143999999999 7.488 12 7.488C12.516383999999999 7.488 12.875471999999998 6.974328 12.694920000000002 6.493944000000001C12.561504 6.138984 12.161976000000001 5.930856 11.806824 6.031272M6.408 8.270184C5.530632000000001 8.423112000000001 4.815264 9.057864 4.584648 9.888C4.405176 10.534080000000001 4.537848 11.296608 4.9187520000000005 11.808C5.156304 12.12696 5.5242 12.425736 5.844 12.559439999999999L5.988 12.619655999999999 6 13.53984L6.0120000000000005 14.46 6.075864 14.58096C6.110976 14.647488000000001 6.186768 14.744688 6.244295999999999 14.796959999999999C6.301824000000001 14.849231999999999 6.778008 15.177216000000001 7.302456 15.525792000000001L8.256 16.159584000000002 8.25624 17.541792L8.25648 18.924 8.313072 19.045560000000002C8.427071999999999 19.290384 8.622552 19.445544 8.864856000000001 19.483536C9.226632 19.540272 9.532416000000001 19.37736 9.686928 19.045560000000002L9.74352 18.924 9.74376 17.265024C9.744024 15.454368 9.748416 15.515687999999999 9.603672000000001 15.305328C9.547224 15.223296 9.334728 15.071112 8.523336 14.531592L7.513272 13.86 7.512624000000001 13.24272L7.5120000000000005 12.625464000000001 7.688928000000001 12.54372C8.220191999999999 12.298248000000001 8.662128000000001 11.827632 8.853072 11.304C8.965656000000001 10.995264 8.986152 10.871448 8.986152 10.5C8.986152 10.128552 8.965656000000001 10.004736 8.853072 9.696C8.662128000000001 9.172416 8.2218 8.702496 7.69332 8.45832C7.383096000000001 8.314992 7.202280000000001 8.275608 6.816 8.267256C6.624599999999999 8.263104 6.441 8.264424 6.408 8.270184M16.802712000000003 8.29152C16.121736000000002 8.446128000000002 15.601824 8.8326 15.268464000000002 9.432C15.082584 9.766248000000001 15.013848 10.05456 15.013848 10.5C15.013848 10.769616 15.024503999999999 10.899168 15.056304 11.016C15.251807999999999 11.734032000000001 15.67572 12.250152 16.311072000000003 12.54372L16.488 12.625464000000001 16.487376 13.24272L16.486728 13.86 15.476664 14.531592C14.665272 15.071112 14.452776 15.223296 14.396328 15.305328C14.251584000000001 15.515687999999999 14.255976 15.454368 14.25624 17.265024L14.25648 18.924 14.313072000000002 19.045560000000002C14.427072 19.290384 14.622552 19.445544 14.864856000000001 19.483536C15.226632 19.540272 15.532416 19.37736 15.686928 19.045560000000002L15.74352 18.924 15.74376 17.541792L15.744 16.159584000000002 16.697544 15.525792000000001C17.221992 15.177216000000001 17.698176 14.849231999999999 17.755704 14.796959999999999C17.813232 14.744688 17.889024 14.647488000000001 17.924136 14.58096L17.988 14.46 18 13.53984L18.012 12.619655999999999 18.156 12.559439999999999C18.475800000000003 12.425736 18.843696 12.12696 19.081248000000002 11.808C19.381752 11.40456 19.539216 10.810944000000001 19.485552000000002 10.284C19.389552000000002 9.341712 18.768288 8.604840000000001 17.832 8.322744C17.621328 8.259264 17.024568 8.241168 16.802712000000003 8.29152M6.621672 9.768912C6.216456 9.835248 5.93436 10.251528 6.023472 10.651656000000001C6.07956 10.903608 6.282408 11.130912 6.521592 11.209848000000001C6.638832 11.248536000000001 6.975288 11.227272000000001 7.07544 11.174856C7.215192 11.101704000000002 7.349544 10.960104 7.41972 10.812C7.555896000000001 10.5246 7.486056 10.165320000000001 7.253184 9.955368C7.102608 9.8196 7.053168 9.798984 6.78 9.75804C6.7536 9.75408 6.682344 9.758976 6.621672 9.768912M17.113296 9.772848C16.890719999999998 9.807096000000001 16.694471999999998 9.955512 16.580232 10.176C16.539744 10.254144 16.521912 10.334736 16.515719999999998 10.467576000000001C16.508256000000003 10.62696 16.515792 10.670448 16.572816 10.797528C16.641336 10.950192 16.77996 11.099207999999999 16.923264 11.174184C17.024712 11.227272000000001 17.36028 11.248824 17.478408 11.209848000000001C17.829984000000003 11.093808000000001 18.050256 10.71444 17.975592 10.353504000000001C17.89248 9.951744 17.531352 9.708552000000001 17.113296 9.772848M0.009528 12C0.009528 12.191400000000002 0.013272 12.269712 0.017832 12.174C0.022368000000000002 12.078288 0.022368000000000002 11.921712 0.017832 11.826C0.013272 11.730288 0.009528 11.8086 0.009528 12" stroke="none" fill="#000" fill-rule="evenodd"></path>
</svg>
