<svg xmlns="http://www.w3.org/2000/svg" width="140" height="140" version="1.1" viewBox="0 0 140 140">
    <g fill="none" stroke="#000" stroke-linecap="round" stroke-linejoin="round" stroke-width="1.5">
        <path d="M23.25 9V4.65a1.5 1.5 0 0 0-.943-1.393l-6-2.4a1.5 1.5 0 0 0-1.114 0L8.807 3.412a1.5 1.5 0 0 1-1.114 0L1.779 1.046a.75.75 0 0 0-1.029.7V16.119a1.5 1.5 0 0 0 .943 1.393l6 2.4a1.5 1.5 0 0 0 1.114 0l2.881-1.153M8.25 3.519 8.25 20.019M15.75.75 15.75 8.25M18.75 15.449a.375.375 0 0 1 .375.375M18.375 15.824a.375.375 0 0 1 .375-.375M18.75 16.2a.375.375 0 0 1-.375-.375M19.125 15.824a.375.375 0 0 1-.375.375" transform="scale(5.83333)"/>
        <path d="M18.75,11.324a4.5,4.5,0,0,1,4.5,4.5c0,1.921-2.688,5.576-3.909,7.138a.75.75,0,0,1-1.182,0c-1.221-1.561-3.909-5.217-3.909-7.138A4.5,4.5,0,0,1,18.75,11.324Z" transform="scale(5.83333)"/>
    </g>
</svg>
