<svg xmlns="http://www.w3.org/2000/svg" version="1.1" xmlns:xlink="http://www.w3.org/1999/xlink" xmlns:svgjs="http://svgjs.com/svgjs" viewBox="0 0 140 140" width="140" height="140"><title>travel-map-finger</title><g transform="matrix(5.833333333333333,0,0,5.833333333333333,0,0)"><path d="M12.743,23.248,9.978,20.139a1.557,1.557,0,1,1,2.328-2.069l1.937,2.178v-9a1.5,1.5,0,1,1,3,0V18h1.5a4.5,4.5,0,0,1,4.5,4.5v.75" fill="none" stroke="#000000" stroke-linecap="round" stroke-linejoin="round" stroke-width="1.5"></path><path d="M2.616,23.142A12.615,12.615,0,0,1,1.4,20.482" fill="none" stroke="#000000" stroke-linecap="round" stroke-linejoin="round" stroke-width="1.5"></path><path d="M.819,17.764a12.9,12.9,0,0,1,.034-2.926" fill="none" stroke="#000000" stroke-linecap="round" stroke-linejoin="round" stroke-width="1.5"></path><path d="M1.519,12.138A12.483,12.483,0,0,1,2.836,9.525" fill="none" stroke="#000000" stroke-linecap="round" stroke-linejoin="round" stroke-width="1.5"></path><path d="M4.6,7.373A12.625,12.625,0,0,1,6.913,5.586" fill="none" stroke="#000000" stroke-linecap="round" stroke-linejoin="round" stroke-width="1.5"></path><path d="M9.439,4.426a9.353,9.353,0,0,1,1.414-.385" fill="none" stroke="#000000" stroke-linecap="round" stroke-linejoin="round" stroke-width="1.5"></path><path d="M14.243 0.748L18.743 5.248" fill="none" stroke="#000000" stroke-linecap="round" stroke-linejoin="round" stroke-width="1.5"></path><path d="M18.743 0.748L14.243 5.248" fill="none" stroke="#000000" stroke-linecap="round" stroke-linejoin="round" stroke-width="1.5"></path></g></svg>
