<svg xmlns="http://www.w3.org/2000/svg" width="140" height="140" version="1.1" viewBox="0 0 140 140">
    <path fill="none" stroke="#000" stroke-linecap="round" stroke-linejoin="round" stroke-width="1.5" d="M12.743 23.248 9.978 20.139a1.557 1.557 0 1 1 2.328-2.069l1.937 2.178v-9a1.5 1.5 0 1 1 3 0V18h1.5a4.5 4.5 0 0 1 4.5 4.5v.75M2.616 23.142A12.615 12.615 0 0 1 1.4 20.482M.819 17.764a12.9 12.9 0 0 1 .034-2.926M1.519 12.138A12.483 12.483 0 0 1 2.836 9.525M4.6 7.373A12.625 12.625 0 0 1 6.913 5.586M9.439 4.426a9.353 9.353 0 0 1 1.414-.385M14.243.748 18.743 5.248M18.743.748 14.243 5.248" transform="scale(5.83333)"/>
</svg>
