<svg xmlns="http://www.w3.org/2000/svg" viewBox="0 0 24 24" id="Markdown-Logo-3--Streamline-Ultimate" height="24" width="24">
  <desc>
    Markdown Logo 3 Streamline Icon: https://streamlinehq.com
  </desc>
  <path fill="none" stroke="currentColor" stroke-linecap="round" stroke-linejoin="round" d="M6.25 19v-6l2.5 3.6 2.5 -3.6v6" stroke-width="1.5"></path>
  <path fill="none" stroke="currentColor" stroke-linecap="round" stroke-linejoin="round" d="M16 13v6" stroke-width="1.5"></path>
  <path fill="none" stroke="currentColor" stroke-linecap="round" stroke-linejoin="round" d="m14 17 2 2 2 -2" stroke-width="1.5"></path>
  <path fill="none" stroke="currentColor" stroke-linecap="round" stroke-linejoin="round" d="M19.8571 23.25H4.32143c-0.28416 0 -0.55668 -0.1129 -0.75762 -0.3138 -0.20093 -0.2009 -0.31381 -0.4735 -0.31381 -0.7576V1.82143c0 -0.28416 0.11288 -0.55668 0.31381 -0.75762C3.76475 0.862882 4.03727 0.75 4.32143 0.75H15.0357l5.8929 5.89286V22.1786c0 0.2841 -0.1129 0.5567 -0.3138 0.7576 -0.201 0.2009 -0.4735 0.3138 -0.7577 0.3138Z" stroke-width="1.5"></path>
  <path fill="none" stroke="currentColor" stroke-linecap="round" stroke-linejoin="round" d="M20.9286 6.64286h-4.8215c-0.2841 0 -0.5566 -0.11289 -0.7576 -0.31382 -0.2009 -0.20093 -0.3138 -0.47345 -0.3138 -0.75761V0.75l5.8929 5.89286Z" stroke-width="1.5"></path>
</svg>
