<svg xmlns="http://www.w3.org/2000/svg" version="1.1" xmlns:xlink="http://www.w3.org/1999/xlink" xmlns:svgjs="http://svgjs.com/svgjs" viewBox="0 0 24 24" width="140" height="140"><title>mastercard</title><path d="M0.504 3.500 L23.504 3.500 L23.504 20.500 L0.504 20.500 Z" fill="none" stroke="#000000" stroke-linecap="round" stroke-linejoin="round"></path><path d="M13.5,12a5,5,0,1,1-5-5A5,5,0,0,1,13.5,12Z" fill="none" stroke="#000000" stroke-linecap="round" stroke-linejoin="round"></path><path d="M13.5,12a5,5,0,1,1-5-5A5,5,0,0,1,13.5,12Z" fill="none" stroke="#000000" stroke-linecap="round" stroke-linejoin="round"></path><path d="M12.018,15.557A4.949,4.949,0,0,0,15.5,17a5,5,0,1,0,0-10,4.945,4.945,0,0,0-3.486,1.444" fill="none" stroke="#000000" stroke-linecap="round" stroke-linejoin="round"></path><path d="M12.5,11.9a.1.1,0,1,0,.1.1.1.1,0,0,0-.1-.1" fill="none" stroke="#000000" stroke-linecap="round" stroke-linejoin="round"></path><path d="M12.5,13.9a.1.1,0,0,0,0,.2.1.1,0,0,0,.092-.056.073.073,0,0,0,.008-.033V14a.1.1,0,0,0-.1-.1" fill="none" stroke="#000000" stroke-linecap="round" stroke-linejoin="round"></path><path d="M12.5,9.9a.1.1,0,1,0,.1.1V9.989a.073.073,0,0,0-.008-.033A.1.1,0,0,0,12.5,9.9" fill="none" stroke="#000000" stroke-linecap="round" stroke-linejoin="round"></path><path d="M6.5,8.9a.1.1,0,1,0,.1.1.1.1,0,0,0-.1-.1" fill="none" stroke="#000000" stroke-linecap="round" stroke-linejoin="round"></path><path d="M10.5,8.9a.1.1,0,1,0,.1.1.1.1,0,0,0-.1-.1" fill="none" stroke="#000000" stroke-linecap="round" stroke-linejoin="round"></path><path d="M10.5,10.9a.1.1,0,1,0,.1.1.1.1,0,0,0-.1-.1" fill="none" stroke="#000000" stroke-linecap="round" stroke-linejoin="round"></path><path d="M10.5,12.9a.1.1,0,1,0,.1.1.1.1,0,0,0-.1-.1" fill="none" stroke="#000000" stroke-linecap="round" stroke-linejoin="round"></path><path d="M10.5,14.9a.1.1,0,1,0,.1.1.1.1,0,0,0-.1-.1" fill="none" stroke="#000000" stroke-linecap="round" stroke-linejoin="round"></path><path d="M6.5,10.9a.1.1,0,1,0,.1.1.1.1,0,0,0-.1-.1" fill="none" stroke="#000000" stroke-linecap="round" stroke-linejoin="round"></path><path d="M6.5,12.9a.1.1,0,1,0,.1.1.1.1,0,0,0-.1-.1" fill="none" stroke="#000000" stroke-linecap="round" stroke-linejoin="round"></path><path d="M6.5,14.9a.1.1,0,1,0,.1.1.1.1,0,0,0-.1-.1" fill="none" stroke="#000000" stroke-linecap="round" stroke-linejoin="round"></path><path d="M8.5,9.9a.1.1,0,1,0,.1.1.1.1,0,0,0-.1-.1" fill="none" stroke="#000000" stroke-linecap="round" stroke-linejoin="round"></path><path d="M8.5,7.9a.1.1,0,1,0,.1.1.1.1,0,0,0-.1-.1" fill="none" stroke="#000000" stroke-linecap="round" stroke-linejoin="round"></path><path d="M8.5,11.9a.1.1,0,1,0,.1.1.1.1,0,0,0-.1-.1" fill="none" stroke="#000000" stroke-linecap="round" stroke-linejoin="round"></path><path d="M8.5,13.9a.1.1,0,1,0,.1.1.1.1,0,0,0-.1-.1" fill="none" stroke="#000000" stroke-linecap="round" stroke-linejoin="round"></path><path d="M8.5,15.9a.1.1,0,1,0,.1.1.1.1,0,0,0-.1-.1" fill="none" stroke="#000000" stroke-linecap="round" stroke-linejoin="round"></path><path d="M4.5,11.9a.1.1,0,1,0,.1.1.1.1,0,0,0-.1-.1" fill="none" stroke="#000000" stroke-linecap="round" stroke-linejoin="round"></path><path d="M4.5,13.9a.1.1,0,0,0-.1.1.118.118,0,0,0,.014.055.084.084,0,0,0,.075.045H4.5a.1.1,0,1,0,0-.2" fill="none" stroke="#000000" stroke-linecap="round" stroke-linejoin="round"></path><path d="M4.5,9.9H4.493a.083.083,0,0,0-.075.045A.118.118,0,0,0,4.4,10a.1.1,0,1,0,.1-.1" fill="none" stroke="#000000" stroke-linecap="round" stroke-linejoin="round"></path></svg>
