<svg xmlns="http://www.w3.org/2000/svg" width="140" height="140" version="1.1" viewBox="0 0 24 24">
    <path fill="none" stroke="#000" stroke-linecap="round" stroke-linejoin="round" d="M0.504 3.500 L23.504 3.500 L23.504 20.500 L0.504 20.500 Z"/>
    <path fill="none" stroke="#000" stroke-linecap="round" stroke-linejoin="round" d="M13.5,12a5,5,0,1,1-5-5A5,5,0,0,1,13.5,12Z"/>
    <path fill="none" stroke="#000" stroke-linecap="round" stroke-linejoin="round" d="M13.5,12a5,5,0,1,1-5-5A5,5,0,0,1,13.5,12Z"/>
    <path fill="none" stroke="#000" stroke-linecap="round" stroke-linejoin="round" d="M12.018,15.557A4.949,4.949,0,0,0,15.5,17a5,5,0,1,0,0-10,4.945,4.945,0,0,0-3.486,1.444"/>
    <path fill="none" stroke="#000" stroke-linecap="round" stroke-linejoin="round" d="M12.5 11.9a.1.1 0 1 0 .1.1.1.1 0 0 0-.1-.1M12.5 13.9a.1.1 0 0 0 0 .2.1.1 0 0 0 .092-.056.073.073 0 0 0 .008-.033V14a.1.1 0 0 0-.1-.1M12.5 9.9a.1.1 0 1 0 .1.1V9.989a.073.073 0 0 0-.008-.033A.1.1 0 0 0 12.5 9.9M6.5 8.9a.1.1 0 1 0 .1.1.1.1 0 0 0-.1-.1M10.5 8.9a.1.1 0 1 0 .1.1.1.1 0 0 0-.1-.1M10.5 10.9a.1.1 0 1 0 .1.1.1.1 0 0 0-.1-.1M10.5 12.9a.1.1 0 1 0 .1.1.1.1 0 0 0-.1-.1M10.5 14.9a.1.1 0 1 0 .1.1.1.1 0 0 0-.1-.1M6.5 10.9a.1.1 0 1 0 .1.1.1.1 0 0 0-.1-.1M6.5 12.9a.1.1 0 1 0 .1.1.1.1 0 0 0-.1-.1M6.5 14.9a.1.1 0 1 0 .1.1.1.1 0 0 0-.1-.1M8.5 9.9a.1.1 0 1 0 .1.1.1.1 0 0 0-.1-.1M8.5 7.9a.1.1 0 1 0 .1.1.1.1 0 0 0-.1-.1M8.5 11.9a.1.1 0 1 0 .1.1.1.1 0 0 0-.1-.1M8.5 13.9a.1.1 0 1 0 .1.1.1.1 0 0 0-.1-.1M8.5 15.9a.1.1 0 1 0 .1.1.1.1 0 0 0-.1-.1M4.5 11.9a.1.1 0 1 0 .1.1.1.1 0 0 0-.1-.1M4.5 13.9a.1.1 0 0 0-.1.1.118.118 0 0 0 .014.055.084.084 0 0 0 .075.045H4.5a.1.1 0 1 0 0-.2M4.5 9.9H4.493a.083.083 0 0 0-.075.045A.118.118 0 0 0 4.4 10a.1.1 0 1 0 .1-.1"/>
</svg>
