<svg xmlns="http://www.w3.org/2000/svg" width="24" height="24" viewBox="0 0 24 24">
    <path fill="#000" fill-rule="evenodd" stroke="none" d="M0.848256 0.26491200000000004C0.708936 0.292584 0.57984 0.363456 0.471648 0.471648C0.084024 0.8592719999999999 0.228072 1.510176 0.74496 1.706568C0.859416 1.750056 0.968832 1.752 3.312264 1.752L5.76 1.752 5.76 1.813416C5.76 1.847184 5.402880000000001 6.618072 4.966392 12.415415999999999C4.4909040000000005 18.730752 4.178088 23.01144 4.186056000000001 23.094288C4.209648 23.339976 4.366392 23.560152000000002 4.599480000000001 23.674968C4.784136 23.765904 5.036472000000001 23.772432000000002 5.22 23.691C5.3773919999999995 23.62116 5.552304 23.446776 5.617920000000001 23.294232C5.666832 23.18052 5.725992 22.433880000000002 6.470952 12.528024C6.911207999999999 6.6738 7.271568000000001 1.8543120000000002 7.271712 1.818L7.272 1.752 11.099544 1.752L14.927088 1.752 14.93544 10.938C14.944416 20.83104 14.936544 20.206896 15.058488 20.688C15.213624 21.299976 15.546432000000001 21.923544 15.972144 22.399872C16.67796 23.189591999999998 17.642832000000002 23.659176 18.717 23.735712000000003C20.546232 23.86608 22.193496000000003 22.827648 22.838448 21.137567999999998C23.04012 20.609088 23.098248 20.228088 23.099232 19.428C23.1 18.809592 23.099472 18.802944 23.040216 18.686927999999998C22.82496 18.265416 22.32504 18.123383999999998 21.944424 18.375576C21.798912 18.471984000000003 21.659688 18.664272 21.625512 18.816C21.61212 18.875400000000003 21.600863999999998 19.14 21.600504 19.404C21.599784 19.92828 21.567456 20.1882 21.464712000000002 20.495352C21.32976 20.89896 21.150047999999998 21.1884 20.845224 21.493224C20.477712 21.86076 20.075208 22.078824 19.556928 22.191216C19.258272 22.255992 18.730800000000002 22.250568 18.444 22.179792C17.428848 21.929256000000002 16.78296 21.287760000000002 16.507056 20.256L16.452503999999998 20.052 16.446 10.902000000000001L16.43952 1.752 19.787496 1.752C23.014176 1.752 23.139816 1.750344 23.25504 1.706568C23.50656 1.611 23.687544 1.395168 23.734824 1.134432C23.796984000000002 0.7916639999999999 23.626944 0.46812 23.304000000000002 0.314712L23.172 0.252 12.06 0.24854400000000001C5.9484 0.24664799999999998 0.90312 0.254016 0.848256 0.26491200000000004"/>
</svg>
