<svg width="24" height="24" viewBox="0 0 24 24" fill="none" xmlns="http://www.w3.org/2000/svg">
<g clip-path="url(#clip0_2047_344)">
<path d="M21.75 9V6C21.75 5.60218 21.592 5.22064 21.3107 4.93934C21.0294 4.65804 20.6478 4.5 20.25 4.5H8.25V3C8.25 2.60218 8.09196 2.22064 7.81066 1.93934C7.52936 1.65804 7.14782 1.5 6.75 1.5H2.25C1.85218 1.5 1.47064 1.65804 1.18934 1.93934C0.908035 2.22064 0.75 2.60218 0.75 3V20.8C0.755644 21.2085 0.908176 21.6012 1.17968 21.9064C1.45119 22.2116 1.82352 22.4089 2.22854 22.462C2.63355 22.5152 3.04418 22.4208 3.38527 22.196C3.72636 21.9712 3.97511 21.6312 4.086 21.238L6.438 10.084C6.5282 9.77152 6.71752 9.49682 6.97743 9.3013C7.23734 9.10578 7.55376 9.00003 7.879 9H21.75ZM21.75 9C21.9799 8.99992 22.2068 9.0527 22.4131 9.15426C22.6194 9.25583 22.7995 9.40345 22.9397 9.58574C23.0798 9.76802 23.1762 9.98009 23.2213 10.2055C23.2665 10.431 23.2592 10.6638 23.2 10.886L21 21.386C20.9149 21.7055 20.7266 21.988 20.4644 22.1895C20.2021 22.391 19.8807 22.5001 19.55 22.5H2.447" stroke="black" stroke-width="1.5" stroke-linecap="round" stroke-linejoin="round"/>
<path d="M12.489 19.41C12.3584 19.475 12.2134 19.5056 12.0677 19.4989C11.922 19.4922 11.7804 19.4485 11.6563 19.3718C11.5323 19.2951 11.4298 19.188 11.3587 19.0606C11.2876 18.9332 11.2502 18.7898 11.25 18.644V12.856C11.2502 12.7101 11.2876 12.5667 11.3587 12.4393C11.4298 12.312 11.5323 12.2049 11.6563 12.1282C11.7804 12.0515 11.922 12.0077 12.0677 12.001C12.2134 11.9943 12.3584 12.025 12.489 12.09L18.277 14.985C18.4192 15.0559 18.5387 15.1651 18.6223 15.3002C18.7059 15.4353 18.7502 15.5911 18.7502 15.75C18.7502 15.9089 18.7059 16.0646 18.6223 16.1997C18.5387 16.3348 18.4192 16.444 18.277 16.515L12.489 19.41Z" stroke="black" stroke-width="1.5" stroke-linecap="round" stroke-linejoin="round"/>
</g>
<defs>
<clipPath id="clip0_2047_344">
<rect width="24" height="24" fill="white"/>
</clipPath>
</defs>
</svg>
