<svg viewBox="0 0 24 24" xmlns="http://www.w3.org/2000/svg" id="Folder-Media-1--Streamline-Ultimate" height="24" width="24">
  <desc>
    Folder Media 1 Streamline Icon: https://streamlinehq.com
  </desc>
  <path d="M21.75 9V6a1.5 1.5 0 0 0 -1.5 -1.5h-12V3a1.5 1.5 0 0 0 -1.5 -1.5h-4.5A1.5 1.5 0 0 0 0.75 3v17.8a1.7 1.7 0 0 0 3.336 0.438l2.352 -11.154A1.5 1.5 0 0 1 7.879 9H21.75a1.5 1.5 0 0 1 1.45 1.886l-2.2 10.5a1.5 1.5 0 0 1 -1.45 1.114H2.447" fill="none" stroke="#000000" stroke-linecap="round" stroke-linejoin="round" stroke-width="1.5"></path>
  <path d="M12.489 19.41a0.857 0.857 0 0 1 -1.239 -0.766v-5.788a0.857 0.857 0 0 1 1.239 -0.766l5.788 2.895a0.855 0.855 0 0 1 0 1.53Z" fill="none" stroke="#000000" stroke-linecap="round" stroke-linejoin="round" stroke-width="1.5"></path>
</svg>