<svg width="48" height="49" viewBox="0 0 48 49" fill="none" xmlns="http://www.w3.org/2000/svg">
<path fill-rule="evenodd" clip-rule="evenodd" d="M13.794 8.57275C17.624 8.57275 20.826 10.4368 24.654 15.3248L25.218 14.5788C25.598 14.0868 25.984 13.6108 26.378 13.1588L27.004 12.4588C29.176 10.1488 31.584 8.57275 34.45 8.57275C36.996 8.57275 39.388 9.68675 41.432 11.6048L41.868 12.0308C45.328 15.5608 47.702 21.4508 47.974 28.0828L47.996 28.8668L48 29.3668C48 32.3688 47.44 34.8848 46.364 36.7668L46.084 37.2268L45.868 37.5328C45.266 38.3728 44.54 39.0488 43.696 39.5508L43.166 39.8348L42.992 39.9148C42.7944 40.0027 42.5929 40.0815 42.388 40.1508C41.5302 40.4344 40.6315 40.575 39.728 40.5668C38.68 40.5668 37.736 40.4328 36.852 40.1368C35.624 39.7288 34.526 39.0168 33.4 37.9048L32.946 37.4348C31.44 35.8108 29.878 33.4828 27.96 30.2628L25.1 25.4428L24.012 23.6528L20.48 29.9128L19.794 31.0968C15.194 38.8848 12.454 40.5728 8.712 40.5728C6.292 40.5728 4.302 39.7328 2.84 38.2088L2.504 37.8408C1.536 36.6948 0.83 35.2188 0.418 33.4628L0.284 32.8228C0.129383 31.972 0.0384634 31.111 0.012 30.2468L0 29.5088C0.004 28.0188 0.12 26.5288 0.348 25.0488L0.548 23.9028C1.144 20.8428 2.204 17.9868 3.62 15.5888L4.038 14.9088C6.392 11.2488 9.616 8.80275 13.268 8.58875L13.794 8.57275ZM13.728 13.8028L13.326 13.8228C11.666 13.9888 10.114 15.1688 8.822 16.9768L8.546 17.3748L8.526 17.4108C7.186 19.4448 6.156 22.1668 5.614 25.1008L5.606 25.1448C5.33294 26.6319 5.19438 28.1407 5.192 29.6528L5.196 30.0288C5.204 30.3888 5.23 30.7488 5.276 31.1088L5.362 31.6908C5.546 32.6968 5.876 33.5068 6.334 34.1068L6.568 34.3808C7.174 35.0268 7.964 35.3648 8.908 35.3648C11.108 35.3648 12.5 34.0128 16.3 28.0828L20.65 21.2828L21.558 19.8808L21.28 19.4848C18.22 15.1728 16.168 13.8048 13.728 13.8048V13.8028ZM34.12 12.6988L33.768 12.7128C32.498 12.8088 31.322 13.4308 30.128 14.5788L29.736 14.9748C28.858 15.8988 27.962 17.1028 27.002 18.5888L27.534 19.3848C27.894 19.9328 28.258 20.5048 28.634 21.1008L29.22 22.0508L32.012 26.7208L33.402 28.9488C34.568 30.8008 35.462 32.1488 36.218 33.1128L36.644 33.6368C37.208 34.2888 37.702 34.7168 38.198 34.9828L38.402 35.0828C38.856 35.2828 39.316 35.3588 39.838 35.3588C40.19 35.3628 40.538 35.3128 40.874 35.2128C41.55 35.0048 42.094 34.5728 42.5 33.9388L42.69 33.6128L42.844 33.2888C43.232 32.3708 43.424 31.1688 43.424 29.7188L43.412 28.8208C43.252 23.0788 41.536 18.0768 39.012 15.2248L38.66 14.8468C37.32 13.4808 35.772 12.6988 34.12 12.6988Z" fill="white"/>
</svg>
