<svg xmlns="http://www.w3.org/2000/svg" width="24" height="24" fill="none" viewBox="0 0 24 24">
    <path fill="transparent" stroke="#000" stroke-linecap="round" stroke-linejoin="round" stroke-width="1.5" d="M12 19.0312V22.5469M11.5312 1.45312H12.4688C12.4688 1.45312 16.2188 1.45312 16.2188 5.20312V12C16.2188 12 16.2188 15.75 12.4688 15.75H11.5312C11.5312 15.75 7.78125 15.75 7.78125 12V5.20312C7.78125 5.20312 7.78125 1.45312 11.5312 1.45312Z"/>
    <path fill="transparent" stroke="#000" stroke-linecap="round" stroke-linejoin="round" stroke-width="1.5" d="M4.5 9.89062V12C4.5 13.8648 5.24079 15.6532 6.55941 16.9718C7.87802 18.2905 9.66645 19.0312 11.5312 19.0312H12.4688C14.3336 19.0312 16.122 18.2905 17.4406 16.9718C18.7592 15.6532 19.5 13.8648 19.5 12V9.89062"/>
</svg>
