<svg width="24" height="24" viewBox="0 0 24 24" fill="none" xmlns="http://www.w3.org/2000/svg">
<mask id="mask0_41159_4206" style="mask-type:alpha" maskUnits="userSpaceOnUse" x="3" y="0" width="18" height="24">
<path d="M12 19.5V23.25" stroke="black" stroke-width="1.5" stroke-linecap="round" stroke-linejoin="round"/>
<path d="M11.5 0.75H12.5C12.5 0.75 16.5 0.75 16.5 4.75V12C16.5 12 16.5 16 12.5 16H11.5C11.5 16 7.5 16 7.5 12V4.75C7.5 4.75 7.5 0.75 11.5 0.75Z" stroke="black" stroke-width="1.5" stroke-linecap="round" stroke-linejoin="round"/>
<path d="M4 9.75V12C4 13.9891 4.79018 15.8968 6.1967 17.3033C7.60322 18.7098 9.51088 19.5 11.5 19.5H12.5C14.4891 19.5 16.3968 18.7098 17.8033 17.3033C19.2098 15.8968 20 13.9891 20 12V9.75" stroke="black" stroke-width="1.5" stroke-linecap="round" stroke-linejoin="round"/>
</mask>
<g mask="url(#mask0_41159_4206)">
<rect width="24" height="24" fill="#10162F"/>
</g>
</svg>
