<svg xmlns="http://www.w3.org/2000/svg" width="27" height="27" fill="none" viewBox="0 0 27 27">
    <path fill="currentColor" fill-rule="evenodd" d="M1.5 0H25.5C26.3284 0 27 0.671573 27 1.5V25.5C27 26.3284 26.3284 27 25.5 27H1.5C0.671573 27 0 26.3284 0 25.5V1.5C0 0.671573 0.671573 0 1.5 0ZM8.35714 17.7856C7.88376 17.7856 7.5 18.1694 7.5 18.6428C7.5 19.1162 7.88376 19.4999 8.35714 19.4999H18.6429C19.1163 19.4999 19.5 19.1162 19.5 18.6428C19.5 18.1694 19.1163 17.7856 18.6429 17.7856H8.35714Z" clip-rule="evenodd"/>
</svg>
