<svg xmlns="http://www.w3.org/2000/svg" width="24" height="24" viewBox="0 0 24 24">
    <path fill="#000" fill-rule="evenodd" stroke="none" d="M4.377216 0.03708C2.981472 0.240792 1.8147360000000001 1.210464 1.360872 2.544C1.2547679999999999 2.8557360000000003 1.2077039999999999 3.0833520000000005 1.176552 3.4353599999999997C1.1434080000000002 3.809736 1.1434080000000002 20.190264 1.176552 20.56464C1.2077039999999999 20.916648000000002 1.2547679999999999 21.144264 1.360872 21.456C1.8298800000000002 22.833984 3.053208 23.815992 4.5 23.975904C4.668768 23.994552000000002 5.950968 24.000048 8.82 23.994384L12.9 23.98632 13.14 23.931936C13.445376000000001 23.862696 13.837752 23.729712000000003 14.046408000000001 23.624712000000002C15.179976000000002 23.054256000000002 15.911280000000001 22.060128000000002 16.117776 20.808864C16.144248 20.648568 16.151784 20.278152000000002 16.152504 19.10628C16.153512 17.40024 16.160591999999998 17.468040000000002 15.958464000000001 17.24688C15.801 17.074608 15.648264 17.008319999999998 15.408 17.007984C15.102552000000001 17.007576 14.863536 17.158968 14.732280000000001 17.436C14.667576 17.572512 14.664048 17.597160000000002 14.664024 17.91L14.664 18.240000000000002 8.664 18.240000000000002L2.664 18.240000000000002 2.6643120000000002 10.89C2.664624 3.7855920000000003 2.666136 3.53268 2.70984 3.3209519999999997C2.884344 2.475384 3.475104 1.83648 4.32 1.5796560000000002L4.5 1.524936 8.28 1.511832C11.234904 1.501608 12.079512 1.492128 12.1494 1.468416C12.3456 1.40184 12.574176 1.166496 12.626688 0.976992C12.673584000000002 0.80772 12.659376000000002 0.593184 12.591456 0.444792C12.512064 0.271392 12.345504 0.11198400000000001 12.178392 0.049464C12.046872 0.00024 12.027336 0.000024 8.321088 0.002568C5.357256 0.004632 4.5512880000000004 0.011688 4.377216 0.03708M17.631072 0.085752C16.601352 0.24588 15.617544 0.83472 14.999952000000002 1.6605359999999998C14.914176 1.7752320000000001 14.44476 2.5276799999999997 13.956816 3.3326160000000002C13.245336 4.506312 13.06236 4.792272 13.032816 4.776528C12.806424 4.65588 12.269184000000001 4.429176 12.113592 4.388616000000001C11.583216 4.2504 10.983431999999999 4.309872 10.5 4.5486C10.105272 4.743552 10.088064000000001 4.76076 8.22204 6.828336C7.954056 7.125288 7.865808 7.284504 7.819871999999999 7.554C7.779432 7.791312 7.81824 8.0106 7.948295999999999 8.28C8.067552000000001 8.527008 8.328648 8.802216000000001 8.556000000000001 8.920584C8.635200000000001 8.961816 9.2076 9.159696 9.828 9.360312L10.956 9.72504 12.050856000000001 10.81728L13.145712000000001 11.90952 13.500816 13.02876C13.696104000000002 13.644336000000001 13.884912 14.212800000000001 13.920383999999999 14.292C14.087664 14.665584 14.429808 14.958936 14.82 15.063336000000001C15.106368000000002 15.139944 15.491928 15.082032 15.725472 14.927328C15.950088000000001 14.778576000000001 18.152328 12.818496000000001 18.29436 12.640944000000001C18.459408000000003 12.43464 18.627624 12.104712000000001 18.69528 11.854656C18.795912 11.482728 18.801672 11.003496 18.709728000000002 10.65336C18.667776 10.493664 18.62604 10.386312 18.445848 9.974784C18.371376 9.804696 18.313488 9.663336000000001 18.317232 9.660624C18.320952000000002 9.657912 18.9126 9.301128 19.632 8.86776C20.3514 8.434392 21.0318 8.014416 21.144000000000002 7.934472C22.087128 7.262496 22.710792 6.168864 22.82196 4.992C22.851 4.684584 22.766712000000002 0.9135599999999999 22.727016 0.744C22.676808 0.5295839999999999 22.49112 0.322416 22.264752 0.228264C22.146912 0.179256 22.100448 0.176544 20.179104000000002 0.10689599999999999C18.36444 0.041112 17.940744 0.037608 17.631072 0.085752M18.072 1.552224C17.444976 1.59612 16.727064000000002 1.9520160000000002 16.331592 2.4150240000000003C16.135152 2.64504 16.128743999999998 2.655144 15.048312000000001 4.44C14.476992 5.3838 13.970184 6.203568000000001 13.92204 6.261672000000001C13.758047999999999 6.459744000000001 13.462439999999999 6.560808000000001 13.212 6.50448C13.146 6.489624 12.798264 6.33708 12.439248000000001 6.165504C11.720496 5.8220160000000005 11.597808 5.783232 11.376 5.829432C11.127984 5.88108 11.06328 5.938728 10.259447999999999 6.824159999999999C9.841944 7.284072 9.503856 7.66368 9.508175999999999 7.66776C9.512472 7.671864 9.997008 7.831416000000001 10.584888 8.022336000000001C11.172792000000001 8.213280000000001 11.691192 8.388336 11.736888 8.4114C11.861496 8.474207999999999 14.382984000000002 10.9986 14.456064000000001 11.133672C14.488871999999999 11.194344 14.668920000000002 11.7246 14.856144 12.312C15.043392 12.8994 15.199968 13.383528000000002 15.204096000000002 13.387824C15.208248000000001 13.39212 15.636503999999999 13.021416 16.155816 12.564048C17.16024 11.679408 17.205552 11.630568 17.258568 11.376C17.301216 11.171280000000001 17.264208 11.043552 16.949184 10.308C16.601928 9.497136 16.598832 9.487872 16.61388 9.302520000000001C16.628328 9.124536 16.69884 8.967696 16.820832000000003 8.842080000000001C16.878192000000002 8.783016 17.504687999999998 8.390784 18.504048 7.7882880000000005C20.216712 6.755736 20.304072 6.699936 20.50212 6.5120640000000005C20.986416 6.052632 21.26184 5.487384 21.324624 4.824C21.337680000000002 4.685904000000001 21.272280000000002 1.680264 21.25584 1.663848C21.252264 1.6602480000000002 20.661312000000002 1.6358880000000002 19.942656 1.6096799999999998C19.224 1.583496 18.5334 1.558152 18.408 1.553376C18.2826 1.548576 18.1314 1.5480720000000001 18.072 1.552224M18.026256 3.5311440000000003C17.627736000000002 3.5972880000000003 17.255352 3.947712 17.148792 4.35684C16.96344 5.068416 17.501256 5.76 18.240000000000002 5.76C18.56544 5.76 18.840072000000003 5.641176000000001 19.061328 5.404656C19.264872 5.187048000000001 19.366848 4.9295279999999995 19.36764 4.6310400000000005C19.369056 4.101528 18.95532 3.6144960000000004 18.432000000000002 3.5296559999999997C18.254568 3.50088 18.207504 3.5010719999999997 18.026256 3.5311440000000003M8.731536 10.381128C8.140848 10.47312 7.56576 10.794912 7.136184 11.273784C6.581904 11.891712 6.294312 12.56808 6.164136 13.56C6.119232 13.90224 6.126456 14.870856000000002 6.176760000000001 15.252C6.2577359999999995 15.865608 6.307824000000001 16.007904 6.505728 16.186704000000002C6.560952 16.2366 6.65064 16.296816 6.7050719999999995 16.320528000000003C7.03488 16.46424 8.411856 16.549056 9.072000000000001 16.466352C10.12752 16.334088 10.855751999999999 16.012128 11.474976000000002 15.403991999999999C11.872128 15.013992 12.12588 14.551968 12.243912 14.004C12.29172 13.782096000000001 12.284904 13.156224000000002 12.232296 12.936C12.099528 12.380304 11.878104 11.992296 11.450616 11.566224C11.310576000000001 11.42664 11.126208 11.239488 11.040912 11.150328C10.454496 10.537320000000001 9.585984 10.248048 8.731536 10.381128M8.85852 11.892456000000001C8.650368 11.950872 8.495904 12.0468 8.309376 12.23352C7.931688 12.611568 7.751952 13.031424 7.664472 13.74C7.6201680000000005 14.0988 7.62972 14.91132 7.6788240000000005 14.960424C7.7171520000000005 14.998752 8.758944000000001 14.996160000000001 9.012 14.957088C9.437928000000001 14.891328 9.804696 14.772072000000001 10.073328 14.611991999999999C10.147152 14.568 10.29168 14.450664 10.394472 14.351256000000001C10.542048000000001 14.208552000000001 10.600104 14.131056 10.670448 13.982952000000001C10.749431999999999 13.816608 10.760808 13.768944000000001 10.770768 13.562136000000002C10.790496 13.152072 10.683696 12.908184 10.352136 12.606432000000002C10.23948 12.503904 10.108536 12.367176 10.061136 12.302616C9.953904 12.156576000000001 9.738048000000001 11.995464 9.557400000000001 11.926656000000001C9.377232000000001 11.858039999999999 9.039984 11.841528 8.85852 11.892456000000001M2.6643120000000002 20.106C2.664696 20.521584 2.711856 20.792184 2.8378080000000003 21.101112C3.100104 21.74448 3.641664 22.222824 4.332 22.420920000000002L4.524 22.476 8.664 22.476C13.280520000000001 22.476 12.865872 22.490832 13.293552 22.310448C13.771439999999998 22.10892 14.188128 21.712152 14.43036 21.228C14.585208 20.918544 14.664 20.506032 14.664 20.004936L14.664 19.752 8.664 19.752L2.664 19.752 2.6643120000000002 20.106"/>
</svg>
