<svg xmlns="http://www.w3.org/2000/svg" fill="none" viewBox="0 0 24 24" height="24" width="24"><title>money-wallet</title><path fill="transparent" stroke="#000000" stroke-linecap="round" stroke-linejoin="round" d="M21.75 18.5V20c0 0.7956 -0.3161 1.5587 -0.8787 2.1213 -0.5626 0.5626 -1.3257 0.8787 -2.1213 0.8787h-15c-0.79565 0 -1.55871 -0.3161 -2.12132 -0.8787C1.06607 21.5587 0.75 20.7956 0.75 20V9.5c0 -0.79565 0.31607 -1.55871 0.87868 -2.12132C2.19129 6.81607 2.95435 6.5 3.75 6.5h15c0.7956 0 1.5587 0.31607 2.1213 0.87868 0.5626 0.56261 0.8787 1.32567 0.8787 2.12132V11" stroke-width="1.5"></path><path fill="transparent" stroke="#000000" stroke-linecap="round" stroke-linejoin="round" d="m18.75 6.49999 -2.329 -4.658c-0.0881 -0.17627 -0.21 -0.33346 -0.3589 -0.46259 -0.1488 -0.12913 -0.3216 -0.22766 -0.5086 -0.28997 -0.1869 -0.06232 -0.3843 -0.08719 -0.5809 -0.07319 -0.1965 0.01399 -0.3884 0.06658 -0.5646 0.15475L3.75 6.49999" stroke-width="1.5"></path><path fill="transparent" stroke="#000000" stroke-linecap="round" stroke-linejoin="round" d="M21.75 18.5c0.3978 0 0.7794 -0.158 1.0607 -0.4393S23.25 17.3978 23.25 17v-4.5c0 -0.3978 -0.158 -0.7794 -0.4393 -1.0607S22.1478 11 21.75 11H18c-0.9946 0 -1.9484 0.3951 -2.6517 1.0983 -0.7032 0.7033 -1.0983 1.6571 -1.0983 2.6517 0 0.9946 0.3951 1.9484 1.0983 2.6517C16.0516 18.1049 17.0054 18.5 18 18.5h3.75Z" stroke-width="1.5"></path><path fill="transparent" stroke="#000000" d="M18 15.125c-0.2071 0 -0.375 -0.1679 -0.375 -0.375s0.1679 -0.375 0.375 -0.375" stroke-width="1.5"></path><path fill="transparent" stroke="#000000" d="M18 15.125c0.2071 0 0.375 -0.1679 0.375 -0.375s-0.1679 -0.375 -0.375 -0.375" stroke-width="1.5"></path></svg>
