<svg
    xmlns="http://www.w3.org/2000/svg"
    width="24"
    height="24"
    fill="none"
    viewBox="0 0 24 24"
  >
    <g fill="currentColor" stroke="currentColor" clipPath="url(#a)">
      <path d="M16.01 16.6c-.47.58-1.1.96-1.89 1.16v1.48h-2.01v-1.45c-.79-.16-1.46-.54-2-1.11a4.12 4.12 0 0 1-1.06-2.02l1.73-1.09c.18.7.45 1.27.83 1.7.38.43.86.64 1.46.64.45 0 .81-.11 1.09-.34.27-.23.41-.57.41-1.03 0-.29-.09-.54-.28-.76-.19-.22-.42-.41-.7-.58-.28-.17-.68-.37-1.19-.63l-.48-.23c-.66-.33-1.19-.74-1.58-1.24-.39-.5-.59-1.14-.59-1.92s.21-1.39.64-1.94c.43-.55 1-.9 1.73-1.06V4.73h2.01v1.5c.98.3 1.67.95 2.09 1.94l-1.73 1.1c-.29-.81-.8-1.22-1.53-1.22-.32 0-.59.1-.82.31-.23.21-.35.45-.35.75s.1.56.31.78c.2.23.45.42.74.58.29.16.71.37 1.26.62.54.25.99.51 1.36.77.37.26.67.61.91 1.03.24.42.35.94.35 1.54 0 .86-.23 1.57-.7 2.15l-.01.02Z" />
      <path d="M23.97 11.18C23.58 5.79 19.28 1.39 13.89.9 7.58.34 2.23 5.06 1.76 11.14L.09 9.24S0 9.22 0 9.27l.03 2.37s0 .03.01.04l2.8 3.02 2.95-3.09s.01-.02.01-.04L5.77 9.2s-.06-.07-.09-.03l-1.75 1.94c.47-4.65 4.5-8.27 9.32-8.06 4.53.2 8.26 3.85 8.55 8.38.33 5.21-3.81 9.55-8.95 9.55-2.79 0-5.29-1.29-6.94-3.3-.42-.52-.79-1.08-1.09-1.68-.77.42-1.43.77-1.86 1.01.3.79 1.31 2.08 1.31 2.08 2.04 2.48 5.13 4.06 8.59 4.06 6.41 0 11.58-5.45 11.11-11.95v-.02Z" />
    </g>
    <defs>
      <clipPath id="a">
        <path fill="none" d="M0 0h24v24H0z" />
      </clipPath>
    </defs>
  </svg>
