<svg xmlns="http://www.w3.org/2000/svg" width="24" height="24" viewBox="0 0 24 24">
    <path d="M16.01 16.6C15.54 17.18 14.91 17.56 14.12 17.76V19.24H12.11V17.79C11.32 17.63 10.65 17.25 10.11 16.68C9.57005 16.11 9.21005 15.43 9.05005 14.66L10.78 13.57C10.96 14.27 11.23 14.84 11.61 15.27C11.99 15.7 12.47 15.91 13.07 15.91C13.52 15.91 13.88 15.8 14.16 15.57C14.43 15.34 14.57 15 14.57 14.54C14.57 14.25 14.48 14 14.29 13.78C14.1 13.56 13.87 13.37 13.59 13.2C13.31 13.03 12.91 12.83 12.4 12.57L11.92 12.34C11.26 12.01 10.73 11.6 10.34 11.1C9.95005 10.6 9.75005 9.95998 9.75005 9.17998C9.75005 8.39998 9.96005 7.78998 10.39 7.23998C10.82 6.68998 11.39 6.33998 12.12 6.17998V4.72998H14.13V6.22998C15.11 6.52998 15.8 7.17998 16.22 8.16998L14.49 9.26998C14.2 8.45998 13.69 8.04998 12.96 8.04998C12.64 8.04998 12.37 8.14998 12.14 8.35998C11.91 8.56998 11.79 8.80998 11.79 9.10998C11.79 9.40998 11.89 9.66998 12.1 9.88998C12.3 10.12 12.55 10.31 12.84 10.47C13.13 10.63 13.55 10.84 14.1 11.09C14.64 11.34 15.09 11.6 15.46 11.86C15.83 12.12 16.13 12.47 16.37 12.89C16.61 13.31 16.72 13.83 16.72 14.43C16.72 15.29 16.49 16 16.02 16.58L16.01 16.6Z"/>
    <path d="M23.97 11.18C23.58 5.79001 19.28 1.39001 13.89 0.900006C7.58 0.340006 2.23 5.06001 1.76 11.14L0.09 9.24001C0.09 9.24001 0 9.22001 0 9.27001L0.03 11.64C0.03 11.64 0.03 11.67 0.04 11.68L2.84 14.7L5.79 11.61C5.79 11.61 5.8 11.59 5.8 11.57L5.77 9.20001C5.77 9.20001 5.71 9.13001 5.68 9.17001L3.93 11.11C4.4 6.46001 8.43 2.84001 13.25 3.05001C17.78 3.25001 21.51 6.90001 21.8 11.43C22.13 16.64 17.99 20.98 12.85 20.98C10.06 20.98 7.56 19.69 5.91 17.68C5.49 17.16 5.12 16.6 4.82 16C4.05 16.42 3.39 16.77 2.96 17.01C3.26 17.8 4.27 19.09 4.27 19.09C6.31 21.57 9.4 23.15 12.86 23.15C19.27 23.15 24.44 17.7 23.97 11.2V11.18Z"/>
</svg>
