<svg xmlns="http://www.w3.org/2000/svg" width="24" height="24" fill="none" viewBox="0 0 24 24">
    <path fill="transparent" stroke="#000" stroke-linecap="round" stroke-linejoin="round" stroke-width="1.5" d="M21.75 18.5V20c0 .7956-.3161 1.5587-.8787 2.1213-.5626.5626-1.3257.8787-2.1213.8787h-15c-.79565 0-1.55871-.3161-2.12132-.8787C1.06607 21.5587.75 20.7956.75 20V9.5c0-.79565.31607-1.55871.87868-2.12132C2.19129 6.81607 2.95435 6.5 3.75 6.5h15c.7956 0 1.5587.31607 2.1213.87868.5626.56261.8787 1.32567.8787 2.12132V11M18.75 6.49999l-2.329-4.658c-.0881-.17627-.21-.33346-.3589-.46259-.1488-.12913-.3216-.22766-.5086-.28997-.1869-.06232-.3843-.08719-.5809-.07319-.1965.01399-.3884.06658-.5646.15475L3.75 6.49999"/>
    <path fill="transparent" stroke="#000" stroke-linecap="round" stroke-linejoin="round" stroke-width="1.5" d="M21.75 18.5c0.3978 0 0.7794 -0.158 1.0607 -0.4393S23.25 17.3978 23.25 17v-4.5c0 -0.3978 -0.158 -0.7794 -0.4393 -1.0607S22.1478 11 21.75 11H18c-0.9946 0 -1.9484 0.3951 -2.6517 1.0983 -0.7032 0.7033 -1.0983 1.6571 -1.0983 2.6517 0 0.9946 0.3951 1.9484 1.0983 2.6517C16.0516 18.1049 17.0054 18.5 18 18.5h3.75Z"/>
    <path fill="transparent" stroke="#000" stroke-width="1.5" d="M18 15.125c-.2071 0-.375-.1679-.375-.375s.1679-.375.375-.375M18 15.125c.2071 0 .375-.1679.375-.375s-.1679-.375-.375-.375"/>
</svg>
