<svg xmlns="http://www.w3.org/2000/svg" viewBox="0 0 140 140">
    <g fill="none" stroke="#000" stroke-linecap="round" stroke-linejoin="round" stroke-width="8.75">
        <path d="M100.625 84.303c0-8.703 15.528-13.726 31.96-14.28a3.296 3.296 0 012.142.66 2.217 2.217 0 01.898 1.75v38.22a2.666 2.666 0 01-2.8 2.385 56.192 56.192 0 00-32.2 9.462 56.192 56.192 0 00-32.2-9.502 2.672 2.672 0 01-2.8-2.386V72.409a2.217 2.217 0 01.898-1.75A3.296 3.296 0 0168.664 70c16.433.583 31.961 5.6 31.961 14.303zM100.625 84.303v38.214"/>
        <path d="M48.125 100.642H10.208a5.903 5.903 0 01-5.833-5.932V23.456a5.91 5.91 0 015.833-5.956h93.334a5.903 5.903 0 015.833 5.938V53.13M27.2 122.517h20.925M48.125 100.642v21.876"/>
        <path d="M21.875 39.392l17.5 13.125-17.5 13.125M56.875 52.517H78.75"/>
    </g>
</svg>
