<svg xmlns="http://www.w3.org/2000/svg" width="24" height="24" viewBox="0 0 24 24" version="1.1">
<title>Move Right Icon</title>
  <path d="M23.02476 0.026136C22.780608 0.096888 22.556808 0.35644800000000004 22.513296 0.61932C22.494 0.735744 22.488528000000002 3.8971920000000004 22.493351999999998 12.096L22.5 23.412 22.563552 23.547552C22.641024 23.712816 22.790928 23.8674 22.940424 23.936184C23.104392 24.01164 23.418336 24.00912 23.568 23.931168C23.714904 23.854656 23.847336000000002 23.724024 23.924064 23.580000000000002L23.988 23.46 24 17.712C24.0066 14.5506 24.0066 9.3936 24 6.252L23.988 0.54 23.928384 0.423288C23.850792000000002 0.271344 23.64828 0.087504 23.504568 0.038544C23.382672 -0.003 23.146344000000003 -0.009096 23.02476 0.026136M14.835528000000002 7.512816C14.630040000000001 7.5551759999999994 14.431488 7.71324 14.324088 7.92C14.276736000000001 8.0112 14.268047999999999 8.063472 14.268312000000002 8.256C14.268576 8.448312 14.277432000000001 8.500896000000001 14.325023999999999 8.592C14.362824000000002 8.664384 14.801616000000001 9.12132 15.655992 9.978L16.930560000000003 11.256 8.747280000000002 11.25624L0.5640000000000001 11.25648 0.439176 11.314584C0.28648799999999996 11.385672000000001 0.11056800000000001 11.564232 0.058248 11.701248000000001C0.029160000000000002 11.7774 0.021456 11.863464 0.027672000000000002 12.042336C0.035592000000000006 12.270024 0.040056 12.287544 0.12 12.404904C0.1662 12.472704 0.249384 12.560856000000001 0.30482400000000004 12.600743999999999C0.5207040000000001 12.756072000000001 -0.19298400000000002 12.744 8.768495999999999 12.744L16.930968 12.744 15.65604 14.022C14.770560000000001 14.909591999999998 14.364432 15.333 14.326560000000002 15.408C14.251968 15.555743999999999 14.233896 15.847199999999999 14.290176 15.994584000000001C14.388096 16.250976 14.615328 16.445208 14.862 16.483368000000002C15.05148 16.512696000000002 15.250656 16.477680000000003 15.383856000000002 16.391616000000003C15.443328 16.353192 16.373616000000002 15.438456 17.451168 14.358863999999999C19.6314 12.174504 19.501776 12.324624 19.498248 11.988C19.494888 11.666904 19.602456 11.789928 17.405184000000002 9.593952C15.839352 8.029008 15.397176 7.599984 15.312000000000001 7.562976000000001C15.179687999999999 7.505520000000001 14.975280000000001 7.483992000000001 14.835528000000002 7.512816" stroke="none" fill="#000000" fill-rule="evenodd" stroke-width="0.024"></path>
</svg>