<svg xmlns="http://www.w3.org/2000/svg" width="24" height="24" viewBox="0 0 24 24" version="1.1">
<title>Move Left Icon</title>
  <path d="M0.485592 0.040032C0.35087999999999997 0.087696 0.146256 0.27712800000000004 0.071616 0.423288L0.012 0.54 0.012 12L0.012 23.46 0.075936 23.580000000000002C0.152664 23.724024 0.285096 23.854656 0.432 23.931168C0.5816640000000001 24.00912 0.8956080000000001 24.01164 1.059576 23.936184C1.209072 23.8674 1.3589760000000002 23.712816 1.436448 23.547552L1.5 23.412 1.506648 12.096C1.5114 4.033464 1.505808 0.735144 1.487232 0.624C1.441824 0.352344 1.2172560000000001 0.095064 0.964248 0.024791999999999998C0.839136 -0.00996 0.6058800000000001 -0.002544 0.485592 0.040032M8.839824 7.512072C8.784744 7.52352 8.703744 7.5508560000000005 8.659824 7.572840000000001C8.615928 7.594824000000001 7.686672000000001 8.504976000000001 6.594816 9.595416C4.3973759999999995 11.789952 4.505112 11.666784 4.501752000000001 11.988C4.498224 12.324624 4.3686 12.174504 6.548832 14.358863999999999C7.626384000000001 15.438456 8.556672 16.353192 8.616144 16.391616000000003C8.749343999999999 16.477680000000003 8.94852 16.512696000000002 9.138 16.483368000000002C9.384672 16.445208 9.611904 16.250976 9.709824000000001 15.994584000000001C9.766104 15.847199999999999 9.748032 15.555743999999999 9.67344 15.408C9.635568000000001 15.333 9.229464 14.909640000000001 8.34408 14.022096000000001L7.069248000000001 12.744216 15.264624 12.738096L23.46 12.732000000000001 23.57088 12.677376C24.030048 12.451152 24.142968 11.85 23.794632 11.486448C23.73468 11.42388 23.629488000000002 11.346552 23.560824 11.314584L23.436 11.25648 15.25272 11.25624L7.06944 11.256 8.344007999999999 9.978C9.198384 9.12132 9.637176 8.664384 9.674976000000001 8.592C9.722568 8.500896000000001 9.731424 8.448312 9.731688 8.256C9.731952 8.060736 9.723528 8.011416 9.672936 7.912392C9.601944000000001 7.773384000000001 9.441336 7.619856 9.304224 7.5599039999999995C9.180504 7.505808000000001 8.972952 7.484424 8.839824 7.512072" stroke="none" fill="#000000" fill-rule="evenodd" stroke-width="0.024"></path>
</svg>