<?xml version="1.0" encoding="utf-8"?>
<!-- Generator: Adobe Illustrator 22.1.0, SVG Export Plug-In . SVG Version: 6.00 Build 0)  -->
<svg version="1.1" xmlns="http://www.w3.org/2000/svg" xmlns:xlink="http://www.w3.org/1999/xlink" x="0px" y="0px"
	 viewBox="0 0 24 24" style="enable-background:new 0 0 24 24;" xml:space="preserve">
<title>multiple-actions-view</title>
<g>
	<path d="M5.999,7.5c-2.068,0-3.75-1.682-3.75-3.75S3.932,0,5.999,0s3.75,1.682,3.75,3.75S8.067,7.5,5.999,7.5z M5.999,1.5
		c-1.241,0-2.25,1.009-2.25,2.25S4.759,6,5.999,6s2.25-1.009,2.25-2.25S7.24,1.5,5.999,1.5z"/>
	<path d="M3.749,24c-0.387,0-0.708-0.29-0.746-0.675L2.321,16.5H0.749c-0.414,0-0.75-0.336-0.75-0.75V13.5
		c0-1.579,0.609-3.069,1.714-4.197c1.121-1.145,2.622-1.785,4.225-1.802l0.071,0c1.574,0,3.062,0.609,4.191,1.714
		c0.143,0.14,0.223,0.328,0.225,0.528s-0.074,0.39-0.214,0.533C10.068,10.42,9.878,10.5,9.675,10.5c0,0,0,0,0,0
		c-0.197,0-0.384-0.076-0.525-0.214C8.304,9.457,7.18,9.001,5.986,9.001l-0.034,0c-1.201,0.013-2.326,0.493-3.167,1.351
		C1.956,11.198,1.5,12.316,1.499,13.5V15h1.5c0.387,0,0.708,0.29,0.746,0.675L4.428,22.5h3.143l0.218-2.175
		c0.039-0.385,0.358-0.676,0.743-0.676c0.027,0,0.055,0.001,0.083,0.004c0.195,0.02,0.375,0.116,0.502,0.271s0.186,0.35,0.166,0.55
		l-0.286,2.85C8.957,23.71,8.636,24,8.249,24H3.749z"/>
	<path d="M23.249,24c-0.2,0-0.389-0.078-0.53-0.22l-3.293-3.294c-1.051,0.817-2.343,1.263-3.677,1.263c-3.308,0-6-2.692-6-6
		s2.692-6,6-6s6,2.692,6,6c0,1.333-0.446,2.625-1.263,3.676l3.293,3.294c0.292,0.292,0.292,0.768,0,1.061
		C23.638,23.922,23.45,24,23.249,24z M15.749,11.25c-2.481,0-4.5,2.019-4.5,4.5s2.019,4.5,4.5,4.5s4.5-2.019,4.5-4.5
		S18.231,11.25,15.749,11.25z"/>
	<path d="M16.499,6.75c-1.861,0-3.375-1.514-3.375-3.375S14.638,0,16.499,0s3.375,1.514,3.375,3.375S18.361,6.75,16.499,6.75z
		 M16.499,1.5c-1.034,0-1.875,0.841-1.875,1.875s0.841,1.875,1.875,1.875s1.875-0.841,1.875-1.875S17.533,1.5,16.499,1.5z"/>
	<path d="M20.4,9.75c-0.267,0-0.516-0.144-0.649-0.375c-0.501-0.868-1.31-1.488-2.278-1.747c-0.321-0.086-0.649-0.129-0.976-0.129
		c-0.651,0-1.298,0.175-1.869,0.505c-0.357,0.207-0.676,0.469-0.948,0.779c-0.143,0.163-0.348,0.256-0.565,0.256l0,0
		c-0.181,0-0.356-0.066-0.493-0.185c-0.312-0.273-0.344-0.748-0.072-1.059c0.381-0.435,0.827-0.802,1.327-1.091
		c0.8-0.462,1.705-0.706,2.618-0.706c0.458,0,0.917,0.061,1.365,0.18c1.355,0.363,2.487,1.231,3.188,2.445
		c0.207,0.358,0.084,0.818-0.274,1.025C20.661,9.715,20.531,9.75,20.4,9.75z"/>
</g>
</svg>
