<svg xmlns="http://www.w3.org/2000/svg" viewBox="0 0 24 24"><defs><style>.a{fill:none;stroke:currentColor;stroke-linecap:round;stroke-linejoin:round;stroke-width:1.5px;}</style></defs><title>book-open-2</title><path class="a" d="M11.458,21.269a1.6,1.6,0,0,0,1.085,0,13.66,13.66,0,0,1,8.7-.448,1.607,1.607,0,0,0,2.006-1.559V4.928A1.607,1.607,0,0,0,22.129,3.4a13.878,13.878,0,0,0-9.586.2,1.61,1.61,0,0,1-1.085,0,13.881,13.881,0,0,0-9.587-.2A1.607,1.607,0,0,0,.75,4.928V19.262a1.607,1.607,0,0,0,2.006,1.559A13.663,13.663,0,0,1,11.458,21.269Z"/><line class="a" x1="12" y1="3.682" x2="12" y2="21.364"/></svg>
