<svg xmlns="http://www.w3.org/2000/svg" width="140" height="140" viewBox="0 0 140 140">
    <g fill="none" stroke="#000" stroke-linecap="round" stroke-linejoin="round" stroke-width="1.5">
        <path d="M9.735,23.023A11.251,11.251,0,1,1,23.153,10.512" transform="scale(5.83333)"/>
        <path d="M9.289 22.922C7.768 20.689 6.75 16.634 6.75 12S7.768 3.312 9.289 1.079M.775 11.251 12.75 11.251M2.999 5.251 21 5.251M2.048 17.251 10.5 17.251M14.711 1.079a16.184 16.184 0 0 1 2.2 6.42M15.375 13.126A2.625 2.625 0 1 0 20.625 13.126 2.625 2.625 0 1 0 15.375 13.126ZM18 16.5a5.25 5.25 0 0 0-5.25 5.25v1.5h10.5v-1.5A5.249 5.249 0 0 0 18 16.5Z" transform="scale(5.83333)"/>
    </g>
</svg>
