<svg width="24" height="24" viewBox="0 0 24 24" fill="none" xmlns="http://www.w3.org/2000/svg">
<path d="M9.73494 23.023C7.71261 22.6071 5.84369 21.6428 4.33286 20.2356C2.82203 18.8284 1.72755 17.0326 1.16926 15.0449C0.610965 13.0572 0.610401 10.9541 1.16762 8.96609C1.72485 6.97805 2.81837 5.18167 4.32845 3.77367C5.83852 2.36567 7.70692 1.40034 9.72903 0.983396C11.7511 0.566449 13.849 0.713961 15.7929 1.40978C17.7367 2.1056 19.4517 3.32289 20.7498 4.92835C22.048 6.53382 22.8794 8.46555 23.1529 10.512" stroke="currentColor" stroke-width="1.5" stroke-linecap="round" stroke-linejoin="round" fill="none" />
<path d="M9.289 22.922C7.768 20.689 6.75 16.634 6.75 12C6.75 7.36598 7.768 3.31198 9.289 1.07898" stroke="currentColor" stroke-width="1.5" stroke-linecap="round" stroke-linejoin="round" fill="none" />
<path d="M0.774902 11.251H12.7499" stroke="currentColor" stroke-width="1.5" stroke-linecap="round" stroke-linejoin="round"/>
<path d="M2.9989 5.25098H20.9999" stroke="currentColor" stroke-width="1.5" stroke-linecap="round" stroke-linejoin="round"/>
<path d="M2.04797 17.251H10.5" stroke="currentColor" stroke-width="1.5" stroke-linecap="round" stroke-linejoin="round"/>
<path d="M14.7109 1.07898C15.8898 3.03945 16.6396 5.22755 16.9109 7.49898" stroke="currentColor" stroke-width="1.5" stroke-linecap="round" stroke-linejoin="round"/>
<path d="M15.375 13.126C15.375 13.8222 15.6516 14.4898 16.1438 14.9821C16.6361 15.4744 17.3038 15.751 18 15.751C18.6962 15.751 19.3639 15.4744 19.8562 14.9821C20.3484 14.4898 20.625 13.8222 20.625 13.126C20.625 12.4298 20.3484 11.7621 19.8562 11.2698C19.3639 10.7775 18.6962 10.501 18 10.501C17.3038 10.501 16.6361 10.7775 16.1438 11.2698C15.6516 11.7621 15.375 12.4298 15.375 13.126V13.126Z" stroke="currentColor" stroke-width="1.5" stroke-linecap="round" stroke-linejoin="round" fill="none" />
<path d="M18 16.5C16.6076 16.5 15.2723 17.0531 14.2877 18.0377C13.3031 19.0223 12.75 20.3576 12.75 21.75V23.25H23.25V21.75C23.2501 21.0605 23.1144 20.3778 22.8506 19.7408C22.5868 19.1037 22.2001 18.5249 21.7126 18.0374C21.2251 17.5499 20.6463 17.1632 20.0092 16.8994C19.3722 16.6356 18.6895 16.4999 18 16.5V16.5Z" stroke="currentColor" stroke-width="1.5" stroke-linecap="round" stroke-linejoin="round" fill="none" />
</svg>
