<svg viewBox="0 0 140 140" height="140" width="140" xmlns="http://www.w3.org/2000/svg"><title>network-user</title><g transform="matrix(5.833333333333333,0,0,5.833333333333333,0,0)"><path d="M9.735,23.023A11.251,11.251,0,1,1,23.153,10.512" fill="none" stroke="#000" stroke-linecap="round" stroke-linejoin="round" stroke-width="1.5"></path><path d="M9.289,22.922C7.768,20.689,6.75,16.634,6.75,12S7.768,3.312,9.289,1.079" fill="none" stroke="#000" stroke-linecap="round" stroke-linejoin="round" stroke-width="1.5"></path><path d="M0.775 11.251L12.75 11.251" fill="none" stroke="#000" stroke-linecap="round" stroke-linejoin="round" stroke-width="1.5"></path><path d="M2.999 5.251L21 5.251" fill="none" stroke="#000" stroke-linecap="round" stroke-linejoin="round" stroke-width="1.5"></path><path d="M2.048 17.251L10.5 17.251" fill="none" stroke="#000" stroke-linecap="round" stroke-linejoin="round" stroke-width="1.5"></path><path d="M14.711,1.079a16.184,16.184,0,0,1,2.2,6.42" fill="none" stroke="#000" stroke-linecap="round" stroke-linejoin="round" stroke-width="1.5"></path><path d="M15.375 13.126 A2.625 2.625 0 1 0 20.625 13.126 A2.625 2.625 0 1 0 15.375 13.126 Z" fill="none" stroke="#000" stroke-linecap="round" stroke-linejoin="round" stroke-width="1.5"></path><path d="M18,16.5a5.25,5.25,0,0,0-5.25,5.25v1.5h10.5v-1.5A5.249,5.249,0,0,0,18,16.5Z" fill="none" stroke="#000" stroke-linecap="round" stroke-linejoin="round" stroke-width="1.5"></path></g></svg>
