<svg xmlns="http://www.w3.org/2000/svg" viewBox="0 0 2500 2500" version="1.1">
	<path d="M 236 73.651 C 210.136 75.444, 188.547 81.160, 166.500 92.054 C 148.960 100.721, 136.564 109.556, 123.055 123.018 C 109.673 136.353, 100.803 148.795, 92.054 166.500 C 83.014 184.796, 78.170 200.570, 74.859 222.500 C 72.797 236.157, 72.830 2358.889, 74.893 2366.928 C 82.217 2395.482, 104.518 2417.783, 133.072 2425.107 C 141.231 2427.201, 2358.769 2427.201, 2366.928 2425.107 C 2395.482 2417.783, 2417.783 2395.482, 2425.107 2366.928 C 2427.158 2358.936, 2427.201 1164.177, 2425.151 1150.500 C 2421.931 1129.010, 2416.283 1110.507, 2407.760 1093.521 C 2381.664 1041.519, 2332.915 1008.727, 2271.789 1002.059 C 2265.233 1001.344, 2185.728 1001, 2027.039 1001 L 1792 1001 1792 619.744 C 1792 209.150, 1792.212 226.680, 1786.991 204.698 C 1774.968 154.075, 1744.296 114.795, 1699 92.011 C 1683.456 84.193, 1667.925 79.270, 1646 75.212 C 1638.326 73.792, 1569.643 73.624, 939 73.489 C 554.825 73.407, 238.475 73.480, 236 73.651 M 237 231.752 C 234.998 232.752, 232.752 234.998, 231.752 237 C 230.090 240.325, 230.003 291.168, 230.002 1255.250 L 230 2270 454.500 2270 L 679 2270 679.031 2138.750 C 679.056 2033.355, 679.335 2005.235, 680.446 1996 C 689.381 1921.732, 729.564 1856.388, 792.029 1814.550 C 804.821 1805.982, 830.374 1793.019, 845.259 1787.548 C 901.359 1766.926, 968.764 1767.643, 1024.547 1789.455 C 1117.497 1825.799, 1179.548 1910.759, 1185.990 2010.500 C 1186.526 2018.797, 1186.968 2080.127, 1186.979 2147.750 L 1187 2270 1411.503 2270 L 1636.006 2270 1635.753 1255.250 C 1635.509 274.806, 1635.438 240.376, 1633.673 236.828 C 1632.394 234.258, 1630.662 232.682, 1627.903 231.578 C 1624.325 230.146, 1559.921 230, 932.230 230.002 C 275.677 230.003, 240.322 230.092, 237 231.752 M 455.660 367.037 C 424.345 372.361, 397.163 398.833, 392.035 429 C 391.246 433.639, 391.012 495.037, 391.215 643.500 L 391.500 851.500 394.153 859.278 C 401.204 879.955, 418.886 899.089, 438.552 907.324 C 452.840 913.308, 445.538 913.087, 619 912.780 L 777.500 912.500 784.500 910.165 C 810.269 901.571, 830.504 880.579, 837.677 855 C 839.414 848.805, 839.500 838.684, 839.500 639.500 L 839.500 430.500 837.149 423 C 828.751 396.204, 809.553 377.047, 782.821 368.783 L 775.500 366.520 618 366.367 C 531.375 366.283, 458.322 366.584, 455.660 367.037 M 1090.831 367.013 C 1060.212 372.249, 1035.008 395.534, 1027.231 425.770 C 1025.617 432.045, 1025.500 446.457, 1025.500 639 C 1025.500 834.137, 1025.599 845.921, 1027.295 853.146 C 1030.610 867.266, 1039.449 882.280, 1050.355 892.314 C 1056.462 897.933, 1068.322 905.603, 1074.447 907.894 C 1088.752 913.247, 1082.670 913.081, 1253.500 912.772 L 1411.500 912.486 1418.993 910.172 C 1439.009 903.991, 1456.816 888.845, 1466.442 869.812 C 1475.194 852.508, 1474.500 872.389, 1474.500 639 C 1474.500 446.457, 1474.383 432.045, 1472.769 425.770 C 1465.845 398.850, 1444.939 377.163, 1417.839 368.788 L 1410.500 366.520 1253 366.367 C 1166.375 366.283, 1093.399 366.573, 1090.831 367.013 M 547 640 L 547 757 615 757 L 683 757 683 640 L 683 523 615 523 L 547 523 547 640 M 1182 640 L 1182 757 1250 757 L 1318 757 1318 640 L 1318 523 1250 523 L 1182 523 1182 640 M 449.223 1100.935 C 427.836 1106.189, 407.925 1122.703, 398.062 1143.367 C 390.468 1159.279, 391 1142.059, 391 1371.882 C 391 1599.911, 390.563 1584.692, 397.547 1599.808 C 407.133 1620.555, 426.464 1636.973, 448.713 1643.265 L 456.500 1645.467 608 1645.783 C 707.861 1645.991, 762.797 1645.745, 769.172 1645.062 C 787.492 1643.099, 801.865 1636.671, 814.625 1624.734 C 825.842 1614.242, 833.119 1602.519, 837.237 1588.309 L 839.500 1580.500 839.500 1372 L 839.500 1163.500 837.237 1155.691 C 829.220 1128.029, 806.211 1106.182, 779.026 1100.418 C 773.620 1099.272, 745.383 1099.044, 614.500 1099.091 C 466.246 1099.144, 456.051 1099.258, 449.223 1100.935 M 1085 1100.551 C 1075.955 1102.488, 1061.811 1109.740, 1053.499 1116.702 C 1041.001 1127.170, 1032.486 1140.367, 1027.812 1156.513 L 1025.500 1164.500 1025.500 1372.500 L 1025.500 1580.500 1028.308 1589.500 C 1036.863 1616.920, 1057.630 1636.529, 1085.786 1643.773 C 1092.008 1645.373, 1104.050 1645.500, 1250 1645.500 C 1395.950 1645.500, 1407.992 1645.373, 1414.214 1643.773 C 1423.582 1641.363, 1431.910 1637.830, 1438.436 1633.499 C 1454.801 1622.636, 1465.960 1607.873, 1471.692 1589.500 L 1474.500 1580.500 1474.500 1372.500 L 1474.500 1164.500 1472.188 1156.513 C 1465.711 1134.138, 1451.087 1116.557, 1430.501 1106.398 C 1414.605 1098.553, 1426.357 1099.027, 1249.500 1099.097 C 1118.458 1099.148, 1090.391 1099.397, 1085 1100.551 M 1792 1713.486 L 1792 2270 2031 2270 L 2270 2270 2270 1719.520 C 2270 1220.481, 2269.853 1168.672, 2268.422 1165.097 C 2267.318 1162.338, 2265.742 1160.606, 2263.172 1159.327 C 2259.652 1157.576, 2249.822 1157.489, 2025.750 1157.236 L 1792 1156.971 1792 1713.486 M 547 1372 L 547 1489 615 1489 L 683 1489 683 1372 L 683 1255 615 1255 L 547 1255 547 1372 M 1182 1372 L 1182 1489 1250 1489 L 1318 1489 1318 1372 L 1318 1255 1250 1255 L 1182 1255 1182 1372 M 912.826 1930.904 C 875.828 1938.988, 848.267 1965.082, 838.263 2001.500 L 835.515 2011.500 835.229 2140.750 L 834.942 2270 932.471 2270 L 1030 2270 1030 2143.407 C 1030 2021.346, 1029.929 2016.468, 1028.028 2007.157 C 1020.283 1969.230, 994.988 1942.591, 956.500 1931.832 C 945.944 1928.881, 924.199 1928.419, 912.826 1930.904" stroke="none" fill="currentColor" fill-rule="evenodd"></path>
</svg>