<svg width="24" height="24" viewBox="0 0 24 24" fill="none" xmlns="http://www.w3.org/2000/svg">
<path fill-rule="evenodd" d="M1 12C1 18.0751 5.92487 23 12 23C18.0751 23 23 18.0751 23 12C23 5.92487 18.0751 1 12 1C5.92487 1 1 5.92487 1 12ZM12 0C5.37258 0 0 5.37258 0 12C0 18.6274 5.37258 24 12 24C18.6274 24 24 18.6274 24 12C24 5.37258 18.6274 0 12 0Z" fill="black"/>
<path d="M8.70598 7.78345C8.28664 8.67878 7.61798 8.82611 6.24664 8.86011V9.57411H8.34331V15.1048H6.24664V16.0001H11.1086V15.1048H9.38598V7.78345H8.70598Z" fill="black"/>
<path d="M18.5715 9.90278H17.4155L15.9875 11.9994L14.5708 9.90278H13.4035L15.3981 12.8721L13.2788 16.0001H14.4575L15.9875 13.7334L17.5175 16.0001H18.6961L16.5655 12.8608L18.5715 9.90278Z" fill="black"/>
</svg>
