<svg xmlns="http://www.w3.org/2000/svg" fill="none" viewBox="-0.25 -0.25 24.5 24.5" height="16" width="16" stroke-width="1.5"><path stroke="#000000" stroke-linejoin="round" d="M12.0188 16.2251L8.35039 14.1288M12.0188 16.2251L15.6684 14.0963M12.0188 16.2251L9.18271 17.8794L3.98655 14.8794C3.73048 14.7315 3.49243 14.5644 3.27317 14.381M8.35039 14.1288L5.49998 12.5V6.5C5.49998 6.20429 5.52565 5.91457 5.57488 5.63295M8.35039 14.1288L8.33158 9.90377M14.3016 3.25213C13.3845 2.17974 12.0216 1.5 10.5 1.5C8.03427 1.5 5.98542 3.2848 5.57488 5.63295M14.3016 3.25213C14.033 3.35031 13.7693 3.47295 13.5131 3.62083L8.31696 6.62083L8.33158 9.90377M14.3016 3.25213C16.5404 2.43368 19.1104 3.31564 20.3432 5.45096C21.1041 6.76876 21.1969 8.28894 20.7267 9.61934M5.57488 5.63295C4.18753 5.8909 2.9173 6.73136 2.15643 8.04923C0.923559 10.1846 1.44484 12.8514 3.27317 14.381M11.9812 7.77496L15.6496 9.87119M11.9812 7.77496L8.33158 9.90377M11.9812 7.77496L14.8169 6.12084L20.0131 9.12084C20.2692 9.26873 20.5074 9.43585 20.7267 9.61934M15.6496 9.87119L18.5 11.5V17.5C18.5 17.7958 18.4743 18.0855 18.425 18.3672M15.6496 9.87119L15.6684 14.0963M9.69836 20.7479C10.6154 21.8203 11.9783 22.5 13.5 22.5C15.9656 22.5 18.0144 20.7153 18.425 18.3672M9.69836 20.7479C9.96691 20.6497 10.2307 20.527 10.4868 20.3792L15.683 17.3792L15.6684 14.0963M9.69836 20.7479C7.45956 21.5663 4.88954 20.6844 3.65671 18.549C2.89594 17.2314 2.80312 15.7113 3.27317 14.381M18.425 18.3672C19.8123 18.1092 21.0824 17.2688 21.8432 15.951C23.0761 13.8156 22.5548 11.149 20.7267 9.61934"></path></svg>