<svg width="74" height="20" viewBox="0 0 74 20" xmlns="http://www.w3.org/2000/svg">
<title>open-ai</title>
<g clip-path="url(#clip0_1823_2105)">
<path d="M22.9648 9.61494C22.9648 12.8849 25.0648 15.1649 27.9748 15.1649C30.8848 15.1649 32.9848 12.8849 32.9848 9.61494C32.9848 6.34494 30.8848 4.06494 27.9748 4.06494C25.0648 4.06494 22.9648 6.34494 22.9648 9.61494ZM31.0648 9.61494C31.0648 11.9549 29.7898 13.4699 27.9748 13.4699C26.1598 13.4699 24.8848 11.9549 24.8848 9.61494C24.8848 7.27494 26.1598 5.75994 27.9748 5.75994C29.7898 5.75994 31.0648 7.27494 31.0648 9.61494Z"/>
<path d="M38.3917 15.1651C40.5967 15.1651 41.8567 13.3051 41.8567 11.0701C41.8567 8.8351 40.5967 6.9751 38.3917 6.9751C37.3717 6.9751 36.6217 7.3801 36.1267 7.9651V7.1251H34.3267V17.7001H36.1267V14.1751C36.6217 14.7601 37.3717 15.1651 38.3917 15.1651ZM36.0817 10.8451C36.0817 9.3601 36.9217 8.5501 38.0317 8.5501C39.3367 8.5501 40.0417 9.5701 40.0417 11.0701C40.0417 12.5701 39.3367 13.5901 38.0317 13.5901C36.9217 13.5901 36.0817 12.7651 36.0817 11.3101V10.8451Z"/>
<path d="M46.7283 15.1651C48.3033 15.1651 49.5483 14.3401 50.1033 12.9601L48.5583 12.3751C48.3183 13.1851 47.6133 13.6351 46.7283 13.6351C45.5733 13.6351 44.7633 12.8101 44.6283 11.4601H50.1483V10.8601C50.1483 8.7001 48.9333 6.9751 46.6533 6.9751C44.3733 6.9751 42.9033 8.7601 42.9033 11.0701C42.9033 13.5001 44.4783 15.1651 46.7283 15.1651ZM46.6383 8.4901C47.7783 8.4901 48.3183 9.2401 48.3333 10.1101H44.7183C44.9883 9.0451 45.7083 8.4901 46.6383 8.4901Z"/>
<path d="M51.4985 15.0001H53.2985V10.3801C53.2985 9.2551 54.1235 8.6551 54.9335 8.6551C55.9235 8.6551 56.3135 9.3601 56.3135 10.3351V15.0001H58.1135V9.8101C58.1135 8.1151 57.1235 6.9751 55.4735 6.9751C54.4535 6.9751 53.7485 7.4401 53.2985 7.9651V7.1251H51.4985V15.0001Z"/>
<path d="M63.3857 4.22998L59.3057 15H61.2107L62.1257 12.54H66.7757L67.7057 15H69.6407L65.5607 4.22998H63.3857ZM64.4357 6.35998L66.1457 10.86H62.7557L64.4357 6.35998Z"/>
<path d="M72.7305 4.26123H70.8105V15.0312H72.7305V4.26123Z"/>
<path d="M18.5664 8.18572C19.0202 6.82384 18.8639 5.33197 18.1383 4.09322C17.0471 2.19322 14.8533 1.21572 12.7108 1.67572C11.7577 0.601968 10.3883 -0.00865724 8.95269 9.27645e-05C6.76269 -0.00490724 4.81956 1.40509 4.14581 3.48884C2.73894 3.77697 1.52456 4.65759 0.813938 5.90572C-0.285437 7.80072 -0.0348116 10.1895 1.43394 11.8145C0.980188 13.1763 1.13644 14.6682 1.86206 15.907C2.95331 17.807 5.14706 18.7845 7.28956 18.3245C8.24206 19.3982 9.61206 20.0088 11.0477 19.9995C13.2389 20.0051 15.1827 18.5938 15.8564 16.5082C17.2633 16.2201 18.4777 15.3395 19.1883 14.0913C20.2864 12.1963 20.0352 9.80947 18.5671 8.18447L18.5664 8.18572ZM11.0489 18.6926C10.1721 18.6938 9.32269 18.387 8.64956 17.8251C8.68019 17.8088 8.73331 17.7795 8.76769 17.7582L12.7502 15.4582C12.9539 15.3426 13.0789 15.1257 13.0777 14.8913V9.27697L14.7608 10.2488C14.7789 10.2576 14.7908 10.2751 14.7933 10.2951V14.9445C14.7908 17.012 13.1164 18.6882 11.0489 18.6926ZM2.99644 15.2532C2.55706 14.4945 2.39894 13.6051 2.54956 12.742C2.57894 12.7595 2.63081 12.7913 2.66769 12.8126L6.65019 15.1126C6.85206 15.2307 7.10206 15.2307 7.30456 15.1126L12.1664 12.3051V14.2488C12.1677 14.2688 12.1583 14.2882 12.1427 14.3007L8.11706 16.6251C6.32394 17.6576 4.03394 17.0438 2.99706 15.2532H2.99644ZM1.94831 6.56009C2.38581 5.80009 3.07644 5.21884 3.89894 4.91697C3.89894 4.95134 3.89706 5.01197 3.89706 5.05447V9.65509C3.89581 9.88884 4.02081 10.1057 4.22394 10.2213L9.08581 13.0282L7.40269 14.0001C7.38581 14.0113 7.36456 14.0132 7.34581 14.0051L3.31956 11.6788C1.53019 10.6426 0.916438 8.35322 1.94769 6.56072L1.94831 6.56009ZM15.7771 9.77822L10.9152 6.97072L12.5983 5.99947C12.6152 5.98822 12.6364 5.98634 12.6552 5.99447L16.6814 8.31884C18.4739 9.35447 19.0883 11.6476 18.0527 13.4401C17.6146 14.1988 16.9246 14.7801 16.1027 15.0826V10.3445C16.1046 10.1107 15.9802 9.89447 15.7777 9.77822H15.7771ZM17.4521 7.25697C17.4227 7.23884 17.3708 7.20759 17.3339 7.18634L13.3514 4.88634C13.1496 4.76822 12.8996 4.76822 12.6971 4.88634L7.83519 7.69384V5.75009C7.83394 5.73009 7.84331 5.71072 7.85894 5.69822L11.8846 3.37572C13.6777 2.34134 15.9702 2.95697 17.0039 4.75072C17.4408 5.50822 17.5989 6.39509 17.4508 7.25697H17.4521ZM6.92019 10.7213L5.23644 9.74947C5.21831 9.74072 5.20644 9.72322 5.20394 9.70322V5.05384C5.20519 2.98384 6.88456 1.30634 8.95456 1.30759C9.83019 1.30759 10.6777 1.61509 11.3508 2.17509C11.3202 2.19134 11.2677 2.22072 11.2327 2.24197L7.25019 4.54197C7.04644 4.65759 6.92144 4.87384 6.92269 5.10822L6.92019 10.7201V10.7213ZM7.83456 8.75009L10.0002 7.49947L12.1658 8.74947V11.2501L10.0002 12.5001L7.83456 11.2501V8.75009Z"/>
</g>
<defs>
<clipPath id="clip0_1823_2105">
<rect width="73.75" height="20"/>
</clipPath>
</defs>
</svg>
