<svg xmlns="http://www.w3.org/2000/svg" width="24" height="24" viewBox="0 0 24 24">
    <path fill="none" stroke="#000" stroke-linecap="round" stroke-linejoin="round" stroke-width="1.5" d="M11.25 17.25a6 6 0 1 0 12 0 6 6 0 1 0 -12 0"/>
    <path fill="none" stroke="#000" stroke-linecap="round" stroke-linejoin="round" stroke-width="1.5" d="m17.25 14.25 0 3.75 2.04 0M19.5 6V1.87A1.13 1.13 0 0 0 18.37.75H1.88A1.12 1.12 0 0 0 .75 1.86v13.52a1.13 1.13 0 0 0 1.13 1.12h6.37M.75 5.5l18.75 0M11.04 10.5 13.29 9M23.04 10.5 20.79 9"/>
</svg>
