<svg xmlns="http://www.w3.org/2000/svg" viewBox="0 0 24 24"><defs><style>.a{fill:none;stroke:currentColor;stroke-linecap:round;stroke-linejoin:round;stroke-width:1.5px;}</style></defs><title>flags</title><line class="a" x1="16.32" y1="3.027" x2="9.035" y2="20.973"/><path class="a" d="M15.756,4.417l7.26,2.948a.375.375,0,0,1,.042.675L20.6,9.418a1.5,1.5,0,0,0-.705,1.737l.8,2.705a.375.375,0,0,1-.5.454l-7.26-2.947"/><line class="a" x1="7.68" y1="3.027" x2="14.965" y2="20.973"/><path class="a" d="M8.244,4.417.984,7.365a.375.375,0,0,0-.042.675L3.4,9.418a1.5,1.5,0,0,1,.705,1.737l-.8,2.705a.375.375,0,0,0,.5.454l7.261-2.947"/></svg>
