<svg xmlns="http://www.w3.org/2000/svg" viewBox="0 0 24 24">
    <defs>
        <style>
            .a{fill:none;stroke:currentColor;stroke-linecap:round;stroke-linejoin:round;stroke-width:1.5px}
        </style>
    </defs>
    <path d="M8.515,6.723a3.954,3.954,0,0,0-.509-1.465A1.569,1.569,0,0,0,6.717,4.5,1.5,1.5,0,0,0,5.392,5.784a2.756,2.756,0,0,0,.487,1.893,42.285,42.285,0,0,0,3.936,3.972,17.631,17.631,0,0,0,5.236,2.929,3.789,3.789,0,0,0,1.664.354,1.379,1.379,0,0,0,1.265-.981,1.311,1.311,0,0,0-.484-1.206,2.752,2.752,0,0,0-1.237-.535,10.789,10.789,0,0,0-5.321.564c-1.622.5-6.362,2.067-6.144,6.052a.858.858,0,0,0,.089.382.758.758,0,0,0,.758.284,2.583,2.583,0,0,0,1.708-1.186c1.093-1.543,1.207-3.51,1.35-5.331A24.062,24.062,0,0,0,8.515,6.723Z" class="a"/>
    <path d="M22.81,5.56a1.5,1.5,0,0,1,.439,1.06V21A2.25,2.25,0,0,1,21,23.249H3A2.25,2.25,0,0,1,.749,21V3A2.25,2.25,0,0,1,3,.749H17.378a1.5,1.5,0,0,1,1.061.439Z" class="a"/>
    <path d="M17.249.749v4.5a1.5,1.5,0,0,0,1.5,1.5h4.5" class="a"/>
</svg>
