<svg width="24" height="24" viewBox="0 0 24 24" fill="none" xmlns="http://www.w3.org/2000/svg">
<path fill-rule="evenodd" clip-rule="evenodd" d="M18.1876 3.68257C18.4682 3.39657 18.9249 3.39839 19.2037 3.68257L21.6815 6.20827C21.9621 6.49428 21.9603 6.95981 21.6815 7.244L19.2037 9.7697C18.9231 10.0557 18.4664 10.0539 18.1876 9.7697L15.7098 7.244C15.4292 6.95799 15.431 6.49246 15.7098 6.20827L18.1876 3.68257Z" fill="currentColor"/>
<path fill-rule="evenodd" clip-rule="evenodd" d="M10.44 4.21319C9.87079 3.63297 8.95325 3.63506 8.38607 4.21319L1.92615 10.7979C1.35693 11.3781 1.35897 12.3134 1.92615 12.8915L8.38607 19.4762C8.9553 20.0565 9.87283 20.0544 10.44 19.4762L16.8999 12.8915C17.4692 12.3113 17.4671 11.376 16.8999 10.7979L10.44 4.21319ZM9.92109 6.00911C9.64229 5.72492 9.18558 5.7231 8.905 6.00911L6.42716 8.53481C6.14836 8.819 6.14657 9.28453 6.42716 9.57053L8.905 12.0962C9.1838 12.3804 9.6405 12.3822 9.92109 12.0962L12.3989 9.57053C12.6777 9.28635 12.6795 8.82082 12.3989 8.53481L9.92109 6.00911Z" fill="currentColor"/>
</svg>
