<svg xmlns="http://www.w3.org/2000/svg" width="16" height="16" viewBox="0 0 16 16" version="1.1" id="People-Woman-6--Streamline-Ultimate.svg">
	<path d="M10.594144 0.479808C9.783856 0.5515359999999999 9.045312000000001 0.958688 8.562752000000001 1.59968C8.435616 1.7685760000000001 8.31128 1.979856 8.225424 2.1729279999999997L8.151776 2.3385439999999997 7.911888 2.345328C7.3122240000000005 2.362256 6.793232 2.494256 6.265536 2.764048C5.241696 3.2875360000000002 4.487232 4.300032 4.2824 5.4254560000000005C4.194192 5.910112 4.202704 6.464688000000001 4.305616 6.939712000000001C4.603680000000001 8.315472 5.6750240000000005 9.427616 7.044912 9.783328C7.408384 9.877711999999999 7.560608 9.895616 8 9.895616C8.439392 9.895616 8.591616 9.877711999999999 8.955088 9.783328C9.68984 9.592544 10.366928 9.171344 10.868416 8.593072000000001L10.95768 8.490144 11.090848 8.576272000000001C11.939472 9.12512 12.82824 9.540976 13.757871999999999 9.824224000000001C14.078032 9.92176 14.18424 9.928656000000002 14.320544 9.860736000000001C14.499968 9.771312 14.608 9.604175999999999 14.608 9.415968000000001C14.608 9.365920000000001 14.570544 9.172624 14.519536 8.959520000000001C14.081631999999999 7.129632 13.805056 5.302976 13.688672 3.472C13.674959999999999 3.2564 13.656016 3.0152 13.646544 2.936C13.59792 2.529072 13.430256 2.0898719999999997 13.18176 1.718528C13.019856 1.4765920000000001 12.667408 1.124144 12.425472 0.96224C12.149632 0.777664 11.823808000000001 0.6318239999999999 11.512 0.553376C11.253904 0.48843200000000003 10.856528 0.456592 10.594144 0.479808M10.590112 1.489104C10.156352000000002 1.552864 9.777984 1.7488 9.487024 2.060368C9.362912 2.193248 9.276095999999999 2.313216 9.211328 2.4412800000000003L9.170208 2.522576 9.349103999999999 2.591296C10.249136 2.93704 10.980688 3.607888 11.399968000000001 4.472C11.664016 5.016176000000001 11.77896 5.525024 11.776752 6.140112C11.77496 6.637840000000001 11.684752000000001 7.108496000000001 11.507264 7.5460959999999995L11.473968000000001 7.628176000000001 11.684992000000001 7.763744C12.056368 8.002352 12.536576 8.265968 12.888 8.424176C13.0924 8.516208 13.397264 8.640064 13.403632 8.633696C13.407328 8.630016 13.381152 8.491328 13.345488 8.325504C13.027360000000002 6.846512 12.785120000000001 5.105136000000001 12.695936 3.656C12.681856 3.4272 12.66048 3.1644 12.648416 3.072C12.570384 2.4737440000000004 12.205632 1.954432 11.670928 1.680304C11.347776 1.514624 10.925184 1.439872 10.590112 1.489104M7.808 3.3536799999999998C6.918095999999999 3.430336 6.16096 3.8745920000000003 5.6754880000000005 4.60496C5.577712000000001 4.752048 5.432464 5.0510720000000005 5.370896 5.232C5.295167999999999 5.454528000000001 5.241984 5.71416 5.268576 5.731472C5.318768 5.764144 5.552864 5.82584 5.691152 5.8428320000000005C6.142656 5.89832 6.68792 5.69312 7.055216000000001 5.3294880000000004C7.25616 5.1305439999999995 7.40008 4.90488 7.49496 4.64C7.549184 4.488624 7.60104 4.399488000000001 7.667680000000001 4.343136C7.843616 4.194336000000001 8.091088 4.180288 8.282512 4.308224C8.37912 4.372768 8.444896 4.4698080000000004 8.502832 4.6332320000000005C8.59832 4.902591999999999 8.741616 5.128336 8.944784 5.3294880000000004C9.31208 5.69312 9.857344 5.89832 10.308848 5.8428320000000005C10.447136 5.82584 10.681232 5.764144 10.731424 5.731472C10.75648 5.715152 10.706672000000001 5.461344 10.638095999999999 5.256C10.581776 5.087359999999999 10.412495999999999 4.735264 10.325072 4.60496C9.880528 3.942304 9.209776 3.509232 8.432928 3.383328C8.29072 3.360272 7.930064000000001 3.3431680000000004 7.808 3.3536799999999998M7.905808 5.892688000000001C7.687232 6.14456 7.335584 6.413952 7.016 6.574368000000001C6.809184 6.678176000000001 6.5216639999999995 6.773359999999999 6.28 6.8180320000000005C6.043296000000001 6.861776 5.66704 6.86568 5.456624 6.826576C5.382176 6.812736 5.3179359999999996 6.804736 5.313872000000001 6.808784C5.300064000000001 6.822608000000001 5.428800000000001 7.188192 5.496128 7.32632C5.857136000000001 8.066976 6.524272 8.61488 7.309152 8.815280000000001C7.520912 8.869344 7.749072 8.896 8 8.896C8.439264 8.896 8.781776 8.820368 9.192 8.632784C9.766976000000001 8.36984 10.286288 7.833696 10.543216000000001 7.237744C10.60824 7.086928 10.696784 6.819456000000001 10.685440000000002 6.808112C10.68176 6.804432 10.617824 6.812736 10.543376 6.826576C10.33296 6.86568 9.956704 6.861776 9.72 6.8180320000000005C9.478335999999999 6.773359999999999 9.190816000000002 6.678176000000001 8.984 6.574368000000001C8.66808 6.415792000000001 8.325248 6.1540159999999995 8.095584 5.896C8.048592 5.8431999999999995 8.006048 5.798512 8.001072 5.7966880000000005C7.99608 5.79488 7.953216 5.83808 7.905808 5.892688000000001M7.68 10.314016C5.271696 10.434415999999999 3.111312 11.742415999999999 1.895856 13.816C1.728912 14.100816000000002 1.4824000000000002 14.618288000000002 1.4003040000000002 14.85624C1.25224 15.285376000000001 1.6857280000000001 15.675808000000002 2.091424 15.478736000000001C2.2026239999999997 15.424719999999999 2.290992 15.320464 2.35232 15.170944C2.709808 14.299392000000001 3.146448 13.645567999999999 3.786096 13.024000000000001C4.1460159999999995 12.674256 4.52736 12.384288000000002 4.95936 12.131872L5.16 12.014624 5.18072 12.139312C5.233408000000001 12.456448 5.3331360000000005 12.778752 5.451536 13.014672000000001C5.82184 13.752448000000001 6.50776 14.305968000000002 7.296 14.503104C7.570832 14.57184 7.676192 14.583936 8 14.583936C8.323808000000001 14.583936 8.429168 14.57184 8.704 14.503104C9.210175999999999 14.376512000000002 9.672144000000001 14.107904000000001 10.041264 13.725567999999999C10.467488 13.28408 10.71184 12.785856 10.819280000000001 12.139312L10.84 12.014624 11.04064 12.131872C11.47264 12.384288000000002 11.853984 12.674256 12.213904000000001 13.024000000000001C12.851904000000001 13.643968000000001 13.293424000000002 14.305040000000002 13.647791999999999 15.170944C13.70896 15.3204 13.797312 15.424688 13.908576 15.478736000000001C14.24448 15.641904 14.626752000000002 15.404031999999999 14.626464 15.032C14.626384 14.925008 14.605200000000002 14.853824000000001 14.500352000000001 14.60824C14.140752 13.766016 13.64624 13.03584 12.993200000000002 12.3828C11.828864 11.218464 10.341728 10.511840000000001 8.704 10.344768C8.466048 10.320495999999999 7.894 10.303312 7.68 10.314016M7.5360000000000005 11.329936C7.1673919999999995 11.356816 6.596544 11.464032 6.24 11.573376L6.168 11.595456 6.163247999999999 11.737727999999999C6.14928 12.15672 6.32024 12.620912 6.610928 12.953263999999999C6.9734240000000005 13.367696 7.449808 13.584 8 13.584C8.5504 13.584 9.011072 13.375072000000001 9.387024 12.954928C9.678048 12.629696000000001 9.85272 12.15408 9.836976 11.729728L9.832 11.59544 9.76 11.573360000000001C9.081312 11.36528 8.269584 11.276432000000002 7.5360000000000005 11.329936" stroke="none" fill="#000" fill-rule="evenodd"></path>
</svg>