<svg xmlns="http://www.w3.org/2000/svg" id="Regular" viewBox="0 0 24 24">
    <defs>
        <style>
            .cls-1{fill:none;stroke:currentColor;stroke-linecap:round;stroke-linejoin:round;stroke-width:1.5px}
        </style>
    </defs>
    <circle cx="7.5" cy="4.875" r="4.125" class="cls-1"/>
    <path d="M8.25 10.558A6.409 6.409 0 0 0 7.5 10.5 6.75 6.75 0 0 0 .75 17.25M21.75 20.25h-3l-4.5 3v-3h-1.5a1.5 1.5 0 0 1-1.5-1.5v-6a1.5 1.5 0 0 1 1.5-1.5h9a1.5 1.5 0 0 1 1.5 1.5v6A1.5 1.5 0 0 1 21.75 20.25ZM14.25 14.25 20.25 14.25M14.25 17.25 20.25 17.25" class="cls-1"/>
</svg>
