<svg xmlns="http://www.w3.org/2000/svg" width="24" height="24" viewBox="0 0 24 24">
    <path fill="#000" fill-rule="evenodd" stroke="none" d="M1.92 0.016728C1.747272 0.035736000000000004 1.4221920000000001 0.127824 1.2518399999999998 0.206016C0.654912 0.48 0.223992 1.0416480000000001 0.05652 1.764C0.013536 1.9493760000000002 0.012 2.304672 0.012 12.06L0.012 22.164 0.077136 22.400088C0.268608 23.093952 0.75744 23.613336 1.444464 23.85288C1.901352 24.012192000000002 1.023768 24 12.040872 24C21.950952 24 22.03848 23.999592 22.272648 23.95188C22.79712 23.844984 23.222064 23.582928 23.518824000000002 23.183328C23.744064 22.880064 23.900856 22.514496 23.958624 22.158C23.974128 22.062312000000002 23.995176 21.984 24.0054 21.984C24.033192 21.984 24.028848 2.086272 24.001032000000002 1.9623359999999999C23.988384 1.906056 23.956368 1.7628000000000001 23.929896 1.6440000000000001C23.856408000000002 1.314408 23.682792 0.988776 23.445072000000003 0.734712C23.143464 0.41234400000000004 22.790471999999998 0.20510399999999998 22.322856 0.075816L22.092 0.012 12.048 0.009744000000000001C6.5238 0.008496 1.9662 0.01164 1.92 0.016728M1.970304 1.539816C1.770936 1.597104 1.640904 1.739568 1.562112 1.9870320000000001L1.510848 2.148 1.517424 12.084648L1.524 22.021272 1.585008 22.140648000000002C1.6544640000000002 22.276560000000003 1.8039600000000002 22.390680000000003 2.000376 22.457784C2.117448 22.497768 2.641416 22.500336 11.88 22.506432C17.990064 22.510464000000002 21.713808 22.504248 21.844176 22.489848000000002C22.168392 22.453992 22.287167999999998 22.37532 22.408608 22.115928L22.476 21.972 22.476 11.976L22.476 1.98 22.418808 1.86384C22.3482 1.7203920000000001 22.218432 1.6230240000000002 22.01352 1.5597360000000002C21.860232 1.5124080000000002 21.776424 1.512024 11.95548 1.5141600000000002C5.578296 1.515552 2.022912 1.524696 1.970304 1.539816M0.01188 12.024000000000001C0.01188 17.521800000000002 0.01464 19.770912 0.018000000000000002 17.022000000000002C0.02136 14.273112 0.02136 9.774912 0.018000000000000002 7.026C0.01464 4.277112 0.01188 6.5262 0.01188 12.024000000000001M4.257696 9.786311999999999C4.01604 9.872856 3.818832 10.09104 3.767808 10.328280000000001C3.7487999999999997 10.416744 3.7433280000000004 11.55288 3.7486080000000004 14.316L3.7560000000000002 18.18 3.8111520000000003 18.3C3.875976 18.441048 4.0314 18.609047999999998 4.157208000000001 18.674064C4.343016 18.770088 4.6572960000000005 18.7698 4.844328 18.673416C5.022936 18.581376000000002 5.179368 18.383232 5.228016 18.187368C5.247384 18.109392 5.256 17.717328 5.256 16.912992L5.256 15.751248 5.49 15.736152C6.161784 15.692832000000001 6.808224 15.402984000000002 7.317816 14.916599999999999C7.72956 14.5236 8.019696 14.031047999999998 8.159304 13.488C8.34924 12.749160000000002 8.225808 11.880768 7.838976000000001 11.234304C7.464816 10.609032000000001 6.881328 10.132464 6.221352 9.913056C5.824968 9.781272 5.700144 9.764736 5.016 9.753216C4.444104 9.743592 4.3676639999999995 9.746928 4.257696 9.786311999999999M10.352256 9.768312C10.124736 9.814896000000001 9.924792 9.97668 9.818712 10.200000000000001L9.756 10.332 9.756 14.244C9.756 18.04236 9.757344 18.159456000000002 9.802007999999999 18.275328C9.855528 18.414047999999998 10.028208 18.608856 10.155096 18.673584C10.343592000000001 18.769752 10.656816 18.77004 10.842792000000001 18.674208C11.022912 18.581400000000002 11.1792 18.383904 11.228016 18.187368C11.247384 18.10944 11.256 17.71932 11.256 16.921368L11.256 15.768 11.998968 15.768L12.741912000000001 15.768 12.748968 16.974C12.755976 18.174072000000002 12.756264 18.1806 12.811152 18.3C12.875976000000001 18.441048 13.031400000000001 18.609047999999998 13.157208 18.674064C13.343015999999999 18.770088 13.657295999999999 18.7698 13.844327999999999 18.673416C14.032392 18.576504 14.185608 18.3756 14.230560000000002 18.166968C14.251704 18.068832 14.256936 17.067456 14.251392000000001 14.172L14.244 10.308 14.188512 10.195368C13.900824 9.611304 13.097088 9.614016 12.818712000000001 10.200000000000001L12.756 10.332 12.749328 12.294L12.742655999999998 14.256 12 14.256L11.257344 14.256 11.250672000000002 12.282L11.244 10.308 11.188512 10.195368C11.035176 9.884064 10.677912000000001 9.701616 10.352256 9.768312M16.257696 9.786311999999999C16.01604 9.872856 15.818832000000002 10.09104 15.767807999999999 10.328280000000001C15.748800000000001 10.416744 15.743328 11.55288 15.748608 14.316L15.756 18.18 15.811152 18.3C15.875976000000001 18.441048 16.0314 18.609047999999998 16.157208 18.674064C16.343016 18.770088 16.657296 18.7698 16.844328 18.673416C17.022936 18.581376000000002 17.179368 18.383232 17.228016 18.187368C17.247384 18.109392 17.256 17.717328 17.256 16.912992L17.256 15.751248 17.490000000000002 15.736152C18.161784 15.692832000000001 18.808224000000003 15.402984000000002 19.317816 14.916599999999999C19.729560000000003 14.5236 20.019696 14.031047999999998 20.159304 13.488C20.34924 12.749160000000002 20.225808 11.880768 19.838976000000002 11.234304C19.464816 10.609032000000001 18.881328 10.132464 18.221352 9.913056C17.824968000000002 9.781272 17.700143999999998 9.764736 17.016000000000002 9.753216C16.444104000000003 9.743592 16.367664 9.746928 16.257696 9.786311999999999M5.256 12.753048L5.256 14.250096000000001 5.37 14.239584C5.915568 14.189208 6.372960000000001 13.870128000000001 6.60216 13.38C6.74532 13.073927999999999 6.7796639999999995 12.76188 6.707904 12.42C6.594143999999999 11.8782 6.1217999999999995 11.405856000000002 5.58 11.292096C5.4876000000000005 11.272704000000001 5.376888 11.256648 5.3340000000000005 11.256408L5.256 11.256 5.256 12.753048M17.256 12.753048L17.256 14.250096000000001 17.37 14.239584C17.915568 14.189208 18.37296 13.870128000000001 18.60216 13.38C18.797712 12.961872 18.791208 12.492984000000002 18.58404 12.072023999999999C18.461232 11.822472000000001 18.177528000000002 11.538768 17.927976 11.41596C17.750016 11.32836 17.485152 11.257224 17.334 11.256408L17.256 11.256 17.256 12.753048"/>
</svg>
