<svg xmlns="http://www.w3.org/2000/svg" viewBox="0 0 24 24">
<title>pip</title><path fill="#000000" d="M2.75 11c-0.2125 0 -0.390585 -0.07235 -0.53425 -0.217C2.071915 10.6385 2 10.4593 2 10.2455c0 -0.2137 0.071915 -0.39135 0.21575 -0.533C2.359415 9.5708 2.5375 9.5 2.75 9.5h3.7l-4.475 -4.475c-0.15 -0.15119 -0.225 -0.33061 -0.225 -0.538275 0 -0.207835 0.075415 -0.38675 0.22625 -0.53675 0.151 -0.15 0.330165 -0.225 0.5375 -0.225 0.2075 0 0.38625 0.075 0.53625 0.225L7.5 8.425V4.749975c0 -0.2125 0.07235 -0.390665 0.217 -0.5345 0.1445 -0.143665 0.32365 -0.2155 0.5375 -0.2155 0.21365 0 0.39135 0.071835 0.533 0.2155 0.14165 0.143835 0.2125 0.322 0.2125 0.5345V10.25c0 0.2125 -0.07185 0.39055 -0.2155 0.53425 -0.14385 0.1438 -0.322 0.21575 -0.5345 0.21575h-5.5ZM3.5 19.99995c-0.4 0 -0.75 -0.15 -1.05 -0.45 -0.3 -0.3 -0.45 -0.65 -0.45 -1.05V13.5c0 -0.2125 0.072335 -0.3907 0.217 -0.53455 0.1445 -0.14365 0.323665 -0.21545 0.5375 -0.21545 0.213665 0 0.391335 0.0718 0.533 0.21545C3.429165 13.1093 3.5 13.2875 3.5 13.5v4.99995h7.75c0.2125 0 0.39065 0.07235 0.5345 0.217 0.14365 0.1445 0.2155 0.3237 0.2155 0.5375 0 0.2137 -0.07185 0.39135 -0.2155 0.533 -0.14385 0.1417 -0.322 0.2125 -0.5345 0.2125H3.5ZM21.2455 13c-0.21365 0 -0.39135 -0.07195 -0.533 -0.2158C20.57085 12.64055 20.5 12.4625 20.5 12.25V5.5H11.5c-0.2125 0 -0.3906 -0.07235 -0.53425 -0.217 -0.14385 -0.1445 -0.21575 -0.32369 -0.21575 -0.537525 0 -0.213665 0.0719 -0.391335 0.21575 -0.533 0.14365 -0.141665 0.32175 -0.2125 0.53425 -0.2125h9c0.4 0 0.75 0.15 1.05 0.45 0.3 0.3 0.45 0.650025 0.45 1.050025v6.75c0 0.2125 -0.07235 0.39055 -0.217 0.5342 -0.1445 0.14385 -0.32365 0.2158 -0.5375 0.2158ZM14.25 19.99995c-0.2125 0 -0.3906 -0.0719 -0.53425 -0.21575 -0.14385 -0.14365 -0.21575 -0.32175 -0.21575 -0.53425v-4c0 -0.2125 0.0719 -0.39065 0.21575 -0.5345 0.14365 -0.14365 0.32175 -0.2155 0.53425 -0.2155h7c0.2125 0 0.39065 0.07185 0.5345 0.2155 0.14365 0.14385 0.2155 0.322 0.2155 0.5345v4c0 0.2125 -0.07185 0.3906 -0.2155 0.53425 -0.14385 0.14385 -0.322 0.21575 -0.5345 0.21575h-7Z" stroke-width="1.5"></path></svg>