<svg xmlns="http://www.w3.org/2000/svg" viewBox="0 0 24 24">
<title>pip-exit</title>
<path fill="#000000" d="M3.5 20c-0.4 0 -0.75 -0.15 -1.05 -0.45 -0.3 -0.3 -0.45 -0.65 -0.45 -1.05V11.75c0 -0.2125 0.072335 -0.39065 0.217 -0.5345 0.1445 -0.14365 0.323665 -0.2155 0.5375 -0.2155 0.213665 0 0.391335 0.07185 0.533 0.2155 0.141665 0.14385 0.2125 0.322 0.2125 0.5345V18.5h17V5.5H11.75c-0.2125 0 -0.3906 -0.07235 -0.53425 -0.217C11.0719 5.1385 11 4.959335 11 4.7455c0 -0.213665 0.0719 -0.391335 0.21575 -0.533C11.3594 4.070835 11.5375 4 11.75 4H20.5c0.4 0 0.75 0.15 1.05 0.45 0.3 0.3 0.45 0.65 0.45 1.05v13c0 0.4 -0.15 0.75 -0.45 1.05 -0.3 0.3 -0.65 0.45 -1.05 0.45H3.5Zm10.175 -7.25 3.225 3.225c0.15 0.15 0.325 0.225 0.525 0.225s0.375 -0.0754 0.525 -0.22625c0.15 -0.151 0.225 -0.33015 0.225 -0.5375 0 -0.2075 -0.075 -0.38625 -0.225 -0.53625l-3.225 -3.225h2.2c0.2125 0 0.39065 -0.07235 0.5345 -0.217 0.14365 -0.1445 0.2155 -0.32365 0.2155 -0.5375 0 -0.21365 -0.07185 -0.39135 -0.2155 -0.533 -0.14385 -0.14165 -0.322 -0.2125 -0.5345 -0.2125h-4c-0.2125 0 -0.3906 0.07185 -0.53425 0.2155 -0.14385 0.14385 -0.21575 0.322 -0.21575 0.5345v4c0 0.2125 0.07235 0.3906 0.217 0.53425 0.1445 0.14385 0.32365 0.21575 0.5375 0.21575 0.21365 0 0.39135 -0.0719 0.533 -0.21575 0.14165 -0.14365 0.2125 -0.32175 0.2125 -0.53425V12.75ZM2.75 9.5c-0.2125 0 -0.390585 -0.0719 -0.53425 -0.21575C2.071915 9.1406 2 8.9625 2 8.75v-4c0 -0.2125 0.071915 -0.390665 0.21575 -0.5345C2.359415 4.071835 2.5375 4 2.75 4h6c0.2125 0 0.39065 0.071835 0.5345 0.2155 0.14365 0.143835 0.2155 0.322 0.2155 0.5345v4c0 0.2125 -0.07185 0.3906 -0.2155 0.53425 -0.14385 0.14385 -0.322 0.21575 -0.5345 0.21575h-6Z" stroke-width="1.5"></path></svg>