<?xml version="1.0" encoding="UTF-8"?>
<svg xmlns="http://www.w3.org/2000/svg" xmlns:xlink="http://www.w3.org/1999/xlink" width="14px" height="14px" viewBox="0 0 14 14" version="1.1">
<g id="surface1">
<path style=" stroke:none;fill-rule:evenodd;fill:rgb(0%,0%,0%);fill-opacity:1;" d="M 6.003906 0.414062 C 5.992188 0.414062 5.953125 0.417969 5.917969 0.421875 C 5.632812 0.445312 5.3125 0.554688 5.066406 0.710938 C 4.917969 0.804688 4.8125 0.886719 4.691406 1.007812 C 4.328125 1.375 4.125 1.839844 4.101562 2.371094 L 4.097656 2.457031 L 2.945312 2.460938 C 1.882812 2.460938 1.785156 2.460938 1.726562 2.472656 C 1.433594 2.515625 1.210938 2.609375 0.984375 2.78125 C 0.914062 2.835938 0.773438 2.984375 0.714844 3.058594 C 0.558594 3.269531 0.464844 3.5 0.421875 3.773438 C 0.414062 3.835938 0.410156 3.929688 0.410156 5.605469 C 0.410156 7.503906 0.410156 7.402344 0.441406 7.523438 C 0.511719 7.800781 0.699219 8.035156 0.960938 8.160156 C 1.011719 8.183594 1.089844 8.214844 1.136719 8.226562 L 1.160156 8.234375 L 1.15625 8.257812 C 1.15625 8.269531 1.019531 9.148438 0.855469 10.210938 C 0.695312 11.273438 0.558594 12.164062 0.554688 12.191406 C 0.546875 12.261719 0.546875 12.414062 0.558594 12.492188 C 0.605469 12.855469 0.808594 13.183594 1.117188 13.386719 C 1.1875 13.429688 1.320312 13.496094 1.402344 13.523438 C 1.472656 13.546875 1.5625 13.570312 1.644531 13.582031 C 1.71875 13.59375 12.28125 13.59375 12.355469 13.582031 C 12.582031 13.546875 12.777344 13.46875 12.953125 13.335938 C 13.019531 13.289062 13.121094 13.191406 13.167969 13.128906 C 13.371094 12.878906 13.472656 12.5625 13.453125 12.253906 C 13.449219 12.207031 13.335938 11.460938 13.144531 10.210938 C 12.976562 9.128906 12.839844 8.242188 12.839844 8.238281 C 12.839844 8.234375 12.851562 8.230469 12.863281 8.226562 C 12.910156 8.214844 12.988281 8.183594 13.039062 8.160156 C 13.300781 8.035156 13.488281 7.800781 13.558594 7.523438 C 13.589844 7.402344 13.589844 7.503906 13.589844 5.605469 C 13.589844 3.933594 13.585938 3.835938 13.578125 3.773438 C 13.527344 3.433594 13.394531 3.15625 13.167969 2.921875 C 12.902344 2.648438 12.558594 2.488281 12.175781 2.464844 C 12.128906 2.460938 11.628906 2.457031 10.996094 2.457031 L 9.902344 2.457031 L 9.898438 2.371094 C 9.882812 1.976562 9.773438 1.640625 9.5625 1.320312 C 9.421875 1.105469 9.222656 0.902344 9.007812 0.757812 C 8.734375 0.574219 8.457031 0.46875 8.113281 0.421875 C 8.050781 0.414062 7.964844 0.410156 7.035156 0.410156 C 6.476562 0.410156 6.015625 0.410156 6.003906 0.414062 M 6.0625 1.289062 C 5.59375 1.3125 5.183594 1.628906 5.035156 2.078125 C 5 2.1875 4.980469 2.304688 4.976562 2.402344 L 4.976562 2.457031 L 9.023438 2.457031 L 9.023438 2.40625 C 9.023438 2.285156 8.988281 2.121094 8.933594 2 C 8.777344 1.617188 8.4375 1.355469 8.027344 1.296875 C 7.972656 1.289062 7.855469 1.289062 7.046875 1.285156 C 6.542969 1.285156 6.097656 1.285156 6.0625 1.289062 M 1.804688 3.347656 C 1.671875 3.371094 1.53125 3.449219 1.445312 3.550781 C 1.378906 3.628906 1.335938 3.707031 1.304688 3.808594 L 1.289062 3.859375 L 1.289062 5.585938 C 1.289062 7.488281 1.285156 7.332031 1.324219 7.363281 L 1.347656 7.378906 L 5.332031 7.378906 L 5.332031 6.96875 C 5.332031 6.535156 5.332031 6.488281 5.355469 6.390625 C 5.414062 6.144531 5.589844 5.925781 5.816406 5.824219 C 5.914062 5.777344 6.007812 5.753906 6.113281 5.746094 C 6.203125 5.738281 7.796875 5.738281 7.886719 5.746094 C 8.058594 5.761719 8.203125 5.816406 8.339844 5.917969 C 8.519531 6.058594 8.636719 6.269531 8.664062 6.503906 C 8.667969 6.535156 8.667969 6.71875 8.667969 6.96875 L 8.667969 7.378906 L 12.652344 7.378906 L 12.675781 7.363281 C 12.714844 7.332031 12.710938 7.488281 12.710938 5.585938 L 12.710938 3.867188 L 12.695312 3.820312 C 12.6875 3.792969 12.671875 3.746094 12.660156 3.71875 C 12.578125 3.523438 12.398438 3.382812 12.1875 3.347656 C 12.144531 3.339844 11.636719 3.335938 6.996094 3.339844 C 2.539062 3.339844 1.84375 3.339844 1.804688 3.347656 M 6.210938 7.277344 C 6.214844 8.007812 6.210938 7.957031 6.25 8.070312 C 6.328125 8.304688 6.511719 8.488281 6.746094 8.570312 C 6.835938 8.597656 6.898438 8.609375 7 8.609375 C 7.101562 8.609375 7.164062 8.597656 7.253906 8.570312 C 7.488281 8.488281 7.671875 8.304688 7.75 8.070312 C 7.789062 7.957031 7.785156 8.007812 7.789062 7.277344 L 7.789062 6.621094 L 6.210938 6.621094 L 6.210938 7.277344 M 2.042969 8.277344 C 2.039062 8.285156 1.902344 9.1875 1.734375 10.28125 C 1.390625 12.496094 1.410156 12.355469 1.441406 12.445312 C 1.460938 12.507812 1.492188 12.554688 1.539062 12.605469 C 1.585938 12.652344 1.65625 12.6875 1.71875 12.703125 C 1.757812 12.710938 2.210938 12.710938 7.019531 12.710938 L 12.277344 12.710938 L 12.320312 12.695312 C 12.382812 12.667969 12.425781 12.640625 12.46875 12.597656 C 12.535156 12.527344 12.578125 12.429688 12.578125 12.332031 C 12.578125 12.308594 11.972656 8.351562 11.957031 8.277344 L 11.957031 8.261719 L 8.609375 8.261719 L 8.582031 8.351562 C 8.5 8.59375 8.375 8.800781 8.183594 8.992188 C 8.039062 9.136719 7.914062 9.226562 7.742188 9.3125 C 7.5625 9.402344 7.402344 9.449219 7.210938 9.476562 C 7.136719 9.484375 6.863281 9.484375 6.789062 9.476562 C 6.597656 9.449219 6.4375 9.402344 6.257812 9.3125 C 6.085938 9.226562 5.960938 9.136719 5.816406 8.992188 C 5.625 8.800781 5.5 8.597656 5.417969 8.351562 L 5.390625 8.261719 L 2.042969 8.261719 L 2.042969 8.277344 "/>
</g>
</svg>
