<svg xmlns="http://www.w3.org/2000/svg" viewBox="0 0 2500 2500" version="1.1">
	<path d="M 1072 73.624 C 1070.075 73.809, 1063.100 74.463, 1056.500 75.077 C 1005.896 79.783, 948.344 99.383, 904.758 126.754 C 878.302 143.368, 859.561 158.289, 837.965 179.931 C 772.719 245.319, 736.467 328.848, 732.381 423.212 L 731.701 438.924 525.601 439.270 C 336.133 439.587, 318.572 439.755, 308 441.351 C 256.295 449.154, 216.221 466.005, 176 496.858 C 163.330 506.576, 137.770 532.672, 127.626 546.246 C 99.417 583.991, 82.664 624.741, 75.310 673.500 C 73.593 684.886, 73.500 701.632, 73.500 1001 C 73.500 1339.801, 73.235 1321.940, 78.570 1343.183 C 91.143 1393.258, 124.882 1434.616, 171.730 1457.383 C 180.525 1461.657, 194.691 1466.956, 202.876 1469.034 L 207.252 1470.145 206.670 1474.322 C 206.350 1476.620, 182.244 1633.750, 153.101 1823.500 C 123.958 2013.250, 99.638 2172.313, 99.057 2176.974 C 97.518 2189.316, 97.763 2217.073, 99.532 2230.699 C 107.996 2295.885, 144.662 2354.409, 199.500 2390.258 C 211.805 2398.302, 236.072 2410.105, 250.152 2414.893 C 262.650 2419.143, 278.991 2423.016, 293.500 2425.166 C 306.901 2427.152, 2193.099 2427.152, 2206.500 2425.166 C 2246.896 2419.180, 2281.958 2404.841, 2313 2381.612 C 2324.617 2372.919, 2343.008 2355.282, 2351.698 2344.500 C 2387.680 2299.855, 2405.979 2243.139, 2402.029 2188.500 C 2401.386 2179.613, 2381.293 2046.319, 2347.008 1823.501 C 2317.304 1630.452, 2293 1471.956, 2293 1471.290 C 2293 1470.623, 2294.912 1469.592, 2297.250 1469 C 2305.302 1466.960, 2319.521 1461.634, 2328.270 1457.383 C 2375.122 1434.614, 2408.856 1393.262, 2421.430 1343.183 C 2426.765 1321.940, 2426.500 1339.801, 2426.500 1001 C 2426.500 702.403, 2426.404 684.857, 2424.702 673.500 C 2415.692 613.386, 2391.678 563.843, 2351.198 521.856 C 2304.003 472.905, 2242.402 444.412, 2174.217 439.995 C 2165.728 439.445, 2076.719 439.032, 1963.894 439.021 L 1768.288 439 1767.601 423.250 C 1764.543 353.185, 1745.200 292.667, 1707.628 235.613 C 1682.242 197.064, 1646.677 161.107, 1608.500 135.394 C 1559.865 102.637, 1510.388 84.011, 1449 75.348 C 1437.465 73.720, 1422.571 73.572, 1256 73.435 C 1156.725 73.354, 1073.925 73.438, 1072 73.624 M 1082.500 230.134 C 998.790 234.553, 925.303 291.027, 899.120 371.059 C 892.702 390.677, 889.055 411.691, 889.020 429.250 L 889 439 1250 439 L 1611 439 1611 429.551 C 1611 407.932, 1604.892 379.052, 1595.626 356.855 C 1567.229 288.830, 1506.992 242.281, 1433.500 231.568 C 1423.813 230.156, 1402.921 229.937, 1258.500 229.732 C 1168.300 229.605, 1089.100 229.785, 1082.500 230.134 M 322.515 597.662 C 298.363 602.029, 273.437 616.144, 257.808 634.304 C 246.013 648.007, 238.706 661.655, 233.266 680.137 L 230.511 689.500 230.244 997.256 C 229.950 1337.359, 229.388 1309.143, 236.566 1314.618 L 240.344 1317.500 596.172 1317.754 L 952 1318.008 952 1244.465 C 952 1167.093, 952.366 1158.784, 956.545 1141.182 C 966.944 1097.378, 998.518 1058.480, 1038.755 1039.901 C 1056.001 1031.938, 1072.567 1027.595, 1091.765 1026.004 C 1107.381 1024.710, 1392.619 1024.710, 1408.235 1026.004 C 1438.829 1028.539, 1464.826 1038.525, 1488.979 1057.017 C 1521.288 1081.754, 1542.492 1119.864, 1546.953 1161.211 C 1547.585 1167.074, 1548 1200.060, 1548 1244.465 L 1548 1318.008 1903.828 1317.754 L 2259.656 1317.500 2263.434 1314.618 C 2270.608 1309.146, 2270.047 1337.289, 2269.750 997.759 L 2269.480 690.500 2267.205 682.039 C 2265.953 677.385, 2263.103 669.285, 2260.870 664.039 C 2246.158 629.463, 2213.940 604.081, 2176.500 597.571 C 2168.375 596.159, 2078.180 596.017, 1249 596.112 C 453.071 596.204, 329.434 596.411, 322.515 597.662 M 1109.266 1299.750 C 1109.612 1429.705, 1109.177 1420.565, 1115.985 1441.048 C 1130.008 1483.236, 1162.648 1515.986, 1205 1530.362 C 1220.430 1535.600, 1231.798 1537.370, 1250 1537.370 C 1268.202 1537.370, 1279.570 1535.600, 1295 1530.362 C 1337.352 1515.986, 1369.992 1483.236, 1384.015 1441.048 C 1390.823 1420.565, 1390.388 1429.705, 1390.734 1299.750 L 1391.048 1182 1250 1182 L 1108.952 1182 1109.266 1299.750 M 364.602 1477.750 C 364.295 1479.263, 339.438 1640.475, 309.363 1836 C 248.503 2231.672, 251.945 2206.114, 257.323 2222.500 C 260.980 2233.643, 266.267 2242.159, 274.808 2250.666 C 283.398 2259.222, 295.528 2265.881, 307.188 2268.441 C 313.877 2269.910, 394.470 2270.024, 1253.500 2269.773 L 2192.500 2269.500 2199.817 2266.679 C 2210.985 2262.374, 2218.786 2257.339, 2226.695 2249.331 C 2238.692 2237.184, 2246 2219.331, 2246 2202.172 C 2246 2197.894, 2138.111 1491.269, 2135.394 1477.750 L 2134.841 1475 1836.171 1475.021 L 1537.500 1475.042 1532.215 1491.271 C 1518.035 1534.813, 1495.246 1571.667, 1461.512 1605.611 C 1435.540 1631.745, 1413.556 1647.716, 1382.500 1663.010 C 1350.378 1678.831, 1321.866 1687.581, 1287.500 1692.166 C 1274.086 1693.955, 1225.914 1693.955, 1212.500 1692.166 C 1178.134 1687.581, 1149.622 1678.831, 1117.500 1663.010 C 1086.444 1647.716, 1064.460 1631.745, 1038.488 1605.611 C 1004.753 1571.666, 982.062 1534.970, 967.795 1491.285 L 962.500 1475.070 663.829 1475.035 L 365.159 1475 364.602 1477.750" stroke="none" fill="#000" fill-rule="evenodd"></path>
</svg>