<svg xmlns="http://www.w3.org/2000/svg" version="1.1" xmlns:xlink="http://www.w3.org/1999/xlink" xmlns:svgjs="http://svgjs.com/svgjs" viewBox="0 0 140 140" width="140" height="140"><title>programming-hold-code</title><g transform="matrix(5.833333333333333,0,0,5.833333333333333,0,0)"><path d="M13.533,16.35l7.545-.575a1.554,1.554,0,0,1,1.509,2.244h0a1.559,1.559,0,0,1-.845.76L11.308,22.691a2.991,2.991,0,0,1-2,.037L1.314,20.064" fill="none" stroke="#000000" stroke-linecap="round" stroke-linejoin="round" stroke-width="1.5"></path><path d="M6.564,17.064h5.788a1.335,1.335,0,0,0,1.266-.912h0a1.335,1.335,0,0,0-.915-1.709L6.765,12.824a4.512,4.512,0,0,0-1.924-.1l-3.527.588" fill="none" stroke="#000000" stroke-linecap="round" stroke-linejoin="round" stroke-width="1.5"></path><path d="M8.73 2.966L5.064 5.716 8.73 8.466" fill="none" stroke="#000000" stroke-linecap="round" stroke-linejoin="round" stroke-width="1.5"></path><path d="M17.897 2.966L21.564 5.716 17.897 8.466" fill="none" stroke="#000000" stroke-linecap="round" stroke-linejoin="round" stroke-width="1.5"></path><path d="M14.23 1.132L12.397 10.299" fill="none" stroke="#000000" stroke-linecap="round" stroke-linejoin="round" stroke-width="1.5"></path></g></svg>
