<svg xmlns="http://www.w3.org/2000/svg" id="Programming-Team-Chat--Streamline-Ultimate.svg" width="24" height="24" viewBox="0 0 24 24">
    <desc>
        Programming Team Chat Streamline Icon: https://streamlinehq.com
    </desc>
    <path fill="none" stroke="#000" stroke-linecap="round" stroke-linejoin="round" stroke-width="1.5" d="M2.25 14.25a3 3 0 1 0 6 0 3 3 0 1 0-6 0M.75 23.25a4.5 4.5 0 0 1 9 0ZM21.349 12.75a3 3 0 1 1-5.6 1.5M14.25 23.25a4.5 4.5 0 0 1 9 0ZM6.75 9.75l5.25 0 0 4.5 4.5-4.5 6 0 0-9-15.75 0 0 9z"/>
    <path fill="none" stroke="#000" stroke-linecap="round" stroke-linejoin="round" stroke-width="1.5" d="M17.596 3 19.5 5.25 17.596 7.5M11.654 3 9.75 5.25l1.904 2.25M15 3l-.75 4.5"/>
</svg>
