<svg xmlns="http://www.w3.org/2000/svg" viewBox="0 0 24 24" id="Programming-Team-Chat--Streamline-Ultimate.svg" height="24" width="24"><desc>Programming Team Chat Streamline Icon: https://streamlinehq.com</desc><defs></defs><title>programming-team-chat</title><path d="M2.25 14.25a3 3 0 1 0 6 0 3 3 0 1 0 -6 0" fill="none" stroke="#000000" stroke-linecap="round" stroke-linejoin="round" stroke-width="1.5"></path><path d="M0.75 23.25a4.5 4.5 0 0 1 9 0Z" fill="none" stroke="#000000" stroke-linecap="round" stroke-linejoin="round" stroke-width="1.5"></path><path d="M21.349 12.75a3 3 0 1 1 -5.6 1.5" fill="none" stroke="#000000" stroke-linecap="round" stroke-linejoin="round" stroke-width="1.5"></path><path d="M14.25 23.25a4.5 4.5 0 0 1 9 0Z" fill="none" stroke="#000000" stroke-linecap="round" stroke-linejoin="round" stroke-width="1.5"></path><path d="m6.75 9.75 5.25 0 0 4.5 4.5 -4.5 6 0 0 -9 -15.75 0 0 9z" fill="none" stroke="#000000" stroke-linecap="round" stroke-linejoin="round" stroke-width="1.5"></path><path d="M17.596 3 19.5 5.25 17.596 7.5" fill="none" stroke="#000000" stroke-linecap="round" stroke-linejoin="round" stroke-width="1.5"></path><path d="M11.654 3 9.75 5.25l1.904 2.25" fill="none" stroke="#000000" stroke-linecap="round" stroke-linejoin="round" stroke-width="1.5"></path><path d="m15 3 -0.75 4.5" fill="none" stroke="#000000" stroke-linecap="round" stroke-linejoin="round" stroke-width="1.5"></path></svg>