<svg xmlns="http://www.w3.org/2000/svg" width="24" height="24" viewBox="0 0 24 24">
    <path fill="#000" fill-rule="evenodd" stroke="none" d="M11.376 0.25416C9.480288 0.342072 8.234112000000001 0.610248 7.2057839999999995 1.151616C6.502224 1.522008 6.138912 1.9168800000000001 5.999232 2.462952C5.954016 2.63976 5.952 2.737416 5.952 4.742496L5.952 6.837312 4.2780000000000005 6.845808000000001C2.3936640000000002 6.855336 2.494992 6.84612 2.1 7.044192C1.802616 7.193304 1.6524240000000001 7.335336000000001 1.310448 7.790903999999999C0.8498640000000001 8.404488 0.65712 8.799336 0.491856 9.468C0.151536 10.844976 0.1632 13.30476 0.516432 14.64C0.606888 14.981976000000001 0.774792 15.393456 0.933144 15.66132C1.1358000000000001 16.004064 1.6143840000000003 16.618392 1.788 16.7586C1.8672 16.822560000000003 2.0183999999999997 16.917336 2.124 16.9692C2.496792 17.152344000000003 2.40828 17.144736 4.277256 17.154192000000002L5.950536 17.162688 5.957304000000001 19.315344L5.964096 21.468 6.024216 21.636C6.225432 22.198176 6.582960000000001 22.542984 7.356 22.920432C8.159400000000002 23.312712 9.091152000000001 23.549927999999998 10.32 23.675064000000003C11.17956 23.762591999999998 12.282504000000001 23.775744 13.248000000000001 23.710032C14.940168 23.594832 16.272912 23.223024 17.188655999999998 22.610688C17.523384 22.386864 17.722176 22.172208 17.864424 21.880992C18.054168 21.49248 18.048000000000002 21.58128 18.048000000000002 19.238592L18.048000000000002 17.162688 19.722 17.154192000000002C21.592416 17.144736 21.504048 17.152344000000003 21.876 16.968768C22.167456 16.824912 22.314048 16.69356 22.613688 16.30764C23.183736 15.573456 23.433384 15.022176 23.591688 14.148C23.726015999999998 13.406328 23.783472 12.330216 23.740008 11.370000000000001C23.693736 10.347312 23.592168 9.66612 23.400312 9.091536000000001C23.228232 8.57616 23.040048 8.24568 22.580976 7.652832C22.318992 7.31448 22.159824 7.174368 21.876 7.03224C21.507696 6.847799999999999 21.593976 6.855288 19.722744 6.845808000000001L18.049464 6.837312 18.042744 4.696656L18.036 2.556 17.973192 2.371992C17.830392 1.953768 17.598744 1.663536 17.188992 1.389528C16.274424 0.7779839999999999 14.980751999999999 0.41642399999999996 13.248000000000001 0.288144C12.902351999999999 0.26256 11.675424 0.24028800000000003 11.376 0.25416M11.268 1.768056C10.093272 1.8249119999999999 9.167184 1.98756 8.403096000000001 2.2711680000000003C8.0976 2.3845680000000002 7.67556 2.60412 7.551504 2.714208L7.452 2.802504 7.4454720000000005 4.8212399999999995L7.438944 6.84 9.475056 6.84C10.843008 6.84 11.557656000000001 6.848592 11.652816 6.8661840000000005C12.027264 6.9354000000000005 12.300504 7.308288 12.255456 7.688616C12.223583999999999 7.957656000000001 12.026232 8.206824000000001 11.768640000000001 8.303208C11.639232 8.351616 11.603424 8.352 7.248672000000001 8.352C4.468008 8.352 2.836656 8.360544 2.797824 8.375304C2.724024 8.40336 2.315808 8.943048000000001 2.198232 9.168000000000001C2.010024 9.52812 1.8842400000000001 10.023168 1.8079679999999998 10.704C1.7485680000000001 11.234376 1.7485680000000001 12.765623999999999 1.8079679999999998 13.296000000000001C1.884264 13.977072000000001 2.009928 14.471568 2.1984719999999998 14.8326C2.3089440000000003 15.044112 2.731224 15.599376000000001 2.80212 15.626327999999999C2.8338959999999997 15.6384 3.542592 15.648 4.40316 15.648L5.9472000000000005 15.648 5.957832 15.042C5.967528 14.488152 5.973696 14.416392 6.029472 14.208C6.114528 13.890096000000002 6.218064 13.632408000000002 6.362159999999999 13.379952000000001C6.8925600000000005 12.45072 7.832447999999999 11.726688000000001 8.916024 11.412648C9.41352 11.26848 9.314712 11.273712 11.88 11.255808C13.943688 11.241408 14.266775999999998 11.234304 14.423304 11.19984C15.385944 10.987968 16.168632 10.363848 16.457184 9.577992L16.524 9.396 16.530408 6.110424C16.536096 3.2016240000000002 16.53264 2.818464 16.500287999999998 2.7690960000000002C16.4166 2.641344 15.902328 2.373624 15.432 2.21292C14.738520000000001 1.9760160000000002 13.911792 1.835472 12.864 1.7763840000000002C12.483096000000002 1.754904 11.631384 1.7504640000000002 11.268 1.768056M9.74268 3.225744C9.567024 3.2926559999999996 9.455184000000001 3.3630959999999996 9.336984 3.481296C9.12432 3.693984 9.031392 3.9520320000000004 9.055032 4.2644400000000005C9.088848 4.711752000000001 9.44724 5.095608 9.888 5.156592C10.220880000000001 5.202672 10.50804 5.109192 10.742472000000001 4.878456C10.901232 4.7222159999999995 10.982976 4.565568 11.0208 4.345008C11.096208 3.905232 10.869528 3.4700879999999996 10.465224 3.27852C10.326048 3.212544 10.280472 3.203376 10.068 3.198624C9.911928000000001 3.195144 9.798168 3.2046240000000004 9.74268 3.225744M18.040848 8.946C18.027672000000003 9.570792 18.011712000000003 9.688296 17.890632 10.051776C17.638248 10.809408 17.018856 11.566992 16.248 12.060912C15.887568 12.291863999999999 15.340848000000001 12.527064000000001 14.916 12.633936C14.497296 12.739296 14.380464000000002 12.744 12.18432 12.744C10.839 12.744 9.99468 12.753432 9.826872 12.770304000000001C8.881176 12.865488000000001 7.987056 13.45896 7.621416000000001 14.234136000000001C7.4423520000000005 14.613743999999999 7.454736 14.326968 7.461023999999999 17.952L7.466688 21.204 7.558848 21.289056C7.673280000000001 21.394632 8.096016 21.614856 8.403096000000001 21.728832C9.271176 22.051056 10.259064 22.206264 11.652000000000001 22.239312C13.6758 22.287312 15.403608 21.96816 16.324464000000003 21.3762C16.556928 21.226776 16.536 21.445032 16.536 19.170648L16.536 17.16 14.512416 17.16C13.16772 17.16 12.441047999999999 17.151312 12.346416 17.13408C11.637744 17.005152 11.518368 16.056672000000002 12.168000000000001 15.716544L12.276 15.66 16.745136000000002 15.648C20.675136000000002 15.63744 21.218591999999997 15.631656 21.249959999999998 15.6C21.34848 15.500592 21.729408000000003 14.970672 21.801264 14.833104000000002C22.081008 14.297471999999999 22.212408000000003 13.54536 22.239672000000002 12.324C22.272216 10.86636 22.129584 9.813864 21.814992 9.190104C21.71784 8.997504000000001 21.277392 8.4138 21.203927999999998 8.380344C21.158184000000002 8.359488 20.733384 8.352 19.59756 8.352L18.053376 8.352 18.040848 8.946M13.788648000000002 18.843408C13.482528000000002 18.886560000000003 13.191168 19.109280000000002 13.049472 19.40844C12.977471999999999 19.560432000000002 12.972 19.589832 12.972 19.824C12.972 20.0562 12.977856000000001 20.08836 13.046616000000002 20.233488C13.09116 20.327448 13.172832000000001 20.442552000000003 13.249152 20.518848000000002C13.325448 20.595167999999997 13.440552 20.67684 13.534512 20.721384C13.681032 20.790816 13.71036 20.796 13.956 20.796C14.201808 20.796 14.230751999999999 20.790864 14.376 20.721504C14.992224000000002 20.427216 15.139968 19.616136 14.665199999999999 19.133832C14.423832 18.888624 14.138471999999998 18.794088 13.788648000000002 18.843408"/>
</svg>
