<svg xmlns="http://www.w3.org/2000/svg" width="24" height="24" viewBox="0 0 24 24">
    <path fill="none" stroke="#000" stroke-linecap="round" stroke-linejoin="round" stroke-width="1.5" d="M5.25 5.25h3v3h-3zM5.25 15.75h3v3h-3zM15.75 5.25h3v3h-3zM5.25 12.75l6 0 0 1.5M14.25 14.25l0 4.5 4.5 0 0-4.5-1.5 0M11.25 17.25l0 1.5M11.25 5.25l0 4.5 1.5 0M15.75 11.25l3 0M.75 6V2.25a1.5 1.5 0 0 1 1.5-1.5H6M18 .75h3.75a1.5 1.5 0 0 1 1.5 1.5V6M23.25 18v3.75a1.5 1.5 0 0 1-1.5 1.5H18M6 23.25H2.25a1.5 1.5 0 0 1-1.5-1.5V18"/>
</svg>
