<svg viewBox="0 0 24 24" xmlns="http://www.w3.org/2000/svg" height="24" width="24"><title>qr-code-scan</title><path d="M5.25 5.25h3v3h-3z" fill="none" stroke="#000000" stroke-linecap="round" stroke-linejoin="round" stroke-width="1.5"></path><path d="M5.25 15.75h3v3h-3z" fill="none" stroke="#000000" stroke-linecap="round" stroke-linejoin="round" stroke-width="1.5"></path><path d="M15.75 5.25h3v3h-3z" fill="none" stroke="#000000" stroke-linecap="round" stroke-linejoin="round" stroke-width="1.5"></path><path d="m5.25 12.75 6 0 0 1.5" fill="none" stroke="#000000" stroke-linecap="round" stroke-linejoin="round" stroke-width="1.5"></path><path d="m14.25 14.25 0 4.5 4.5 0 0 -4.5 -1.5 0" fill="none" stroke="#000000" stroke-linecap="round" stroke-linejoin="round" stroke-width="1.5"></path><path d="m11.25 17.25 0 1.5" fill="none" stroke="#000000" stroke-linecap="round" stroke-linejoin="round" stroke-width="1.5"></path><path d="m11.25 5.25 0 4.5 1.5 0" fill="none" stroke="#000000" stroke-linecap="round" stroke-linejoin="round" stroke-width="1.5"></path><path d="m15.75 11.25 3 0" fill="none" stroke="#000000" stroke-linecap="round" stroke-linejoin="round" stroke-width="1.5"></path><path d="M0.75 6V2.25a1.5 1.5 0 0 1 1.5 -1.5H6" fill="none" stroke="#000000" stroke-linecap="round" stroke-linejoin="round" stroke-width="1.5"></path><path d="M18 0.75h3.75a1.5 1.5 0 0 1 1.5 1.5V6" fill="none" stroke="#000000" stroke-linecap="round" stroke-linejoin="round" stroke-width="1.5"></path><path d="M23.25 18v3.75a1.5 1.5 0 0 1 -1.5 1.5H18" fill="none" stroke="#000000" stroke-linecap="round" stroke-linejoin="round" stroke-width="1.5"></path><path d="M6 23.25H2.25a1.5 1.5 0 0 1 -1.5 -1.5V18" fill="none" stroke="#000000" stroke-linecap="round" stroke-linejoin="round" stroke-width="1.5"></path></svg>
