<svg xmlns="http://www.w3.org/2000/svg" id="Question-Help-Message--Streamline-Ultimate.svg" width="16" height="16" version="1.1" viewBox="0 0 16 16">
    <path fill="#000" fill-rule="evenodd" stroke="none" d="M1.696 0.482704C1.5616320000000001 0.501952 1.328768 0.580208 1.216336 0.643872C0.8556480000000001 0.8480960000000001 0.607136 1.1781920000000001 0.499888 1.595504C0.473664 1.697504 0.47200000000000003 1.99624 0.47200000000000003 6.5840000000000005C0.47200000000000003 11.275568 0.47313600000000006 11.468879999999999 0.5016 11.590256C0.603392 12.02456 0.879008 12.374752 1.272 12.569104C1.555744 12.709424 1.5612000000000001 12.710096 2.475616 12.71624L3.279232 12.721632 3.283616 13.941968000000001L3.2880000000000003 15.162288 3.336048 15.256224000000001C3.392272 15.366144 3.51672 15.476208000000002 3.6197600000000003 15.507104C3.713328 15.535168 3.89808 15.530240000000001 3.9724000000000004 15.497696C4.005616 15.483152 4.855216 14.854016 5.860399999999999 14.099616000000001L7.688 12.728 11.008000000000001 12.72L14.328000000000001 12.712 14.456 12.67616C14.981487999999999 12.529024 15.374272000000001 12.119824000000001 15.4984 11.590256C15.526864 11.468879999999999 15.528 11.275568 15.528 6.5840000000000005C15.528 1.99624 15.526335999999999 1.697504 15.500112 1.595504C15.402415999999999 1.21536 15.19536 0.917136 14.885376 0.710112C14.743888000000002 0.615616 14.620896 0.560304 14.432512000000001 0.506448L14.312000000000001 0.47200000000000003 8.056000000000001 0.469888C4.263712000000001 0.46862400000000004 1.75904 0.473664 1.696 0.482704M1.7714880000000002 1.49496C1.63504 1.543728 1.523216 1.661184 1.487712 1.793056C1.477344 1.831584 1.4732480000000001 3.50592 1.4759200000000001 6.626C1.479952 11.336752 1.480416 11.400848 1.511472 11.463472C1.5487360000000001 11.53864 1.641296 11.634832000000001 1.715152 11.675152C1.764128 11.701888 1.84584 11.704592000000002 2.832 11.712L3.896 11.72 3.984 11.761808C4.095936 11.814976000000001 4.185024 11.904064 4.238192 12.016L4.28 12.104000000000001 4.288 13.060944L4.296 14.017888000000001 5.7833440000000005 12.902576C6.601376 12.289136000000001 7.303376 11.772112 7.343344 11.753616000000001L7.416 11.72 10.824 11.712C14.069248 11.704384000000001 14.234528000000001 11.702624 14.284848 11.675152C14.358704 11.634832000000001 14.451264 11.53864 14.488528 11.463472C14.519616000000001 11.400784 14.52 11.3408 14.52 6.5920000000000005L14.52 1.784 14.484624 1.717856C14.439584000000002 1.6336320000000002 14.366368000000001 1.560416 14.282144 1.515376L14.216000000000001 1.48 8.024000000000001 1.476656C2.855264 1.473872 1.822 1.476896 1.7714880000000002 1.49496M7.77248 2.352448C7.191680000000001 2.403744 6.590848 2.7117440000000004 6.212832000000001 3.152C5.840992 3.5850400000000002 5.636272 4.111408000000001 5.6295519999999994 4.651664C5.627616 4.80736 5.63184 4.836784 5.667296 4.9142399999999995C5.753760000000001 5.103088 5.894656 5.2012160000000005 6.095392 5.2124C6.2522720000000005 5.221152 6.365568000000001 5.180752000000001 6.468368000000001 5.079408000000001C6.573904000000001 4.975359999999999 6.610256000000001 4.889264 6.626032 4.706016C6.65176 4.406975999999999 6.693504 4.255680000000001 6.806976 4.050288C7.146783999999999 3.4352 7.909776 3.180656 8.55648 3.466656C9.28528 3.7889760000000003 9.587424 4.693808 9.196672000000001 5.383888C9.03032 5.6776480000000005 8.815504 5.860863999999999 8.460336 6.011888C8.23952 6.105776 8.127936 6.170672 7.999248 6.28C7.80528 6.444816 7.624464 6.725823999999999 7.551024000000001 6.976624C7.523504 7.07064 7.514464 7.15208 7.508512 7.36C7.501632 7.600144 7.503984000000001 7.632048 7.534544 7.71312C7.574064000000001 7.8179359999999996 7.67712 7.928496 7.7882240000000005 7.9852799999999995C7.850816 8.017264 7.887664 8.024000000000001 8 8.024000000000001C8.158656 8.024000000000001 8.242704 7.9901279999999995 8.353648 7.881456C8.458032 7.779232 8.484176 7.704384 8.497456 7.4698080000000004C8.510784 7.234256 8.537296000000001 7.157520000000001 8.639648 7.058192C8.684976 7.014208 8.74824 6.977264 8.836608 6.9431840000000005C9.207632 6.800112 9.538976 6.572144000000001 9.777296 6.296032C10.131200000000002 5.886 10.323440000000002 5.428176000000001 10.366959999999999 4.8917600000000006C10.402032 4.459376000000001 10.31368 4.0271360000000005 10.108319999999999 3.62664C9.867232 3.1564319999999997 9.500384 2.8054560000000004 9 2.566256C8.633392 2.3909920000000002 8.196896 2.31496 7.77248 2.352448M7.766608000000001 8.941184C7.5355360000000005 9.021056000000002 7.3481440000000005 9.219584000000001 7.288832 9.447360000000002C7.154912 9.961664 7.581792 10.440576 8.108 10.366352000000001C8.393904000000001 10.326032 8.64176 10.104000000000001 8.713424000000002 9.824C8.746672 9.694111999999999 8.736191999999999 9.50048 8.689104 9.374624C8.62064 9.191647999999999 8.406768 8.991760000000001 8.22016 8.936335999999999C8.106736 8.902656 7.870768 8.905168 7.766608000000001 8.941184"/>
</svg>
