<svg xmlns="http://www.w3.org/2000/svg" viewBox="0 0 24 24">
    <defs>
        <style>
            .a{fill:none;stroke:currentColor;stroke-linecap:round;stroke-linejoin:round;stroke-width:1.5px}
        </style>
    </defs>
    <path d="M13.629,23.25H2.25a1.5,1.5,0,0,1-1.5-1.5V2.25A1.5,1.5,0,0,1,2.25.75h19.5a1.5,1.5,0,0,1,1.5,1.5V13.629a1.5,1.5,0,0,1-.439,1.06l-8.122,8.122A1.5,1.5,0,0,1,13.629,23.25Z" class="a"/>
    <path d="M14.25 23.115V15.75a1.5 1.5 0 0 1 1.5-1.5h7.365M15 5.25 9.691 12.328a1.5 1.5 0 0 1-2.211.208L5.25 10.5" class="a"/>
</svg>
