<svg xmlns="http://www.w3.org/2000/svg" width="24" height="24" viewBox="0 0 24 24">
  <title>r</title>
	<path d="M11.184000000000001 0.014808C7.7020800000000005 0.21487199999999998 4.624248 1.4530800000000001 2.5109280000000003 3.504C1.342872 4.637568 0.532872 6.004608 0.193008 7.416C-0.037128 8.37168 -0.05892 9.444264 0.13178399999999998 10.428C0.25696800000000003 11.073648 0.52212 11.817816 0.845808 12.432C1.949448 14.526024 4.000032 16.207079999999998 6.652512 17.192352C7.416912000000001 17.476272 8.392416 17.742552 8.676 17.744664C9.22296 17.748744 9.592992 17.155416 9.344448 16.672800000000002C9.202632 16.397472 9.085080000000001 16.330056 8.484 16.179552C6.525072 15.688968000000001 4.857888 14.807927999999999 3.613128 13.605504C2.2247280000000003 12.264312 1.511352 10.721184000000001 1.5121920000000002 9.060912C1.5126 8.266728 1.654272 7.58208 1.971264 6.8424000000000005C2.51016 5.584872 3.5357520000000005 4.4166 4.896 3.51072C6.472392 2.460888 8.393112 1.8060960000000001 10.585896 1.5710160000000002C11.062584 1.5198960000000001 12.383976 1.49868 12.912 1.5336480000000001C15.956736000000001 1.7352960000000002 18.68772 2.854032 20.474256 4.63152C21.50028 5.652336 22.082856 6.667416000000001 22.36512 7.926096C22.448040000000002 8.295936 22.494936 8.405304000000001 22.625808 8.534016C22.943328 8.846352000000001 23.473224000000002 8.810832 23.738568 8.4594C23.844072 8.319672 23.904 8.157767999999999 23.904 8.012568000000002C23.904 7.889544 23.799792 7.402704000000001 23.699856 7.058832C23.212536 5.382 22.0326 3.7856639999999997 20.388 2.578176C18.459168 1.161984 16.144175999999998 0.326472 13.404 0.057527999999999996C13.061471999999998 0.023928 11.536296 -0.005448000000000001 11.184000000000001 0.014808M12.396 2.904264C8.929008 3.106728 6.0342 4.954632 5.175408 7.513536000000001C4.859424 8.455104 4.844256 9.309648 5.125368 10.335336C5.441328 11.488128000000001 6.180456 12.611808 7.109039999999999 13.35108C7.585104 13.730064 8.335656 14.158728 8.609472 14.207976C9.114528 14.29884 9.568512 13.846512 9.475871999999999 13.344768000000002C9.420672000000001 13.045848 9.290664 12.905280000000001 8.877696 12.697968C8.150232 12.33276 7.612488000000001 11.863512 7.172688000000001 11.210064000000001C6.853752 10.736232000000001 6.619656000000001 10.183704 6.500712 9.624C6.430344 9.292992000000002 6.4230719999999994 8.701968 6.48576 8.412C6.763007999999999 7.129968 7.722048 6.016368 9.193104 5.268336000000001C11.738736 3.9739200000000006 15.186143999999999 4.135272 17.479152 5.6561520000000005C17.828447999999998 5.887848 18.159552 6.163368 18.434904 6.45144C18.811032 6.844992 18.991944 7.104624 19.26972 7.649568000000001C19.438392 7.9804319999999995 19.531272 8.079552000000001 19.750104 8.162184C19.854768 8.201688 19.920672 8.210424 20.052 8.20212C20.44848 8.177064 20.731584 7.888968 20.755560000000003 7.4861759999999995C20.763552 7.3518 20.753664 7.30008 20.68908 7.138176C20.582496000000003 6.870960000000001 20.42772 6.588840000000001 20.19636 6.24C19.08264 4.560744000000001 16.998 3.366696 14.544 3.0023999999999997C13.905432000000001 2.9076000000000004 13.026528 2.867448 12.396 2.904264M11.473512 9.052224C11.315328 9.113424 11.130696 9.289704 11.056488 9.45036L11.004 9.564 11.004 16.5L11.004 23.436 11.056488 23.54964C11.133312 23.71596 11.315016 23.88672 11.481432 23.948976000000002C11.619792 24.000744 11.623608 24.000816 13.533743999999999 23.994408000000004L15.447432000000001 23.988 15.588312000000002 23.915928C15.746064 23.835264 15.913968 23.650632 15.96408 23.502744C15.98796 23.432328 15.996456 22.936776 16.002048 21.291672000000002C16.00884 19.296336 16.011696 19.172256 16.050624 19.186872C16.073376000000003 19.195415999999998 16.1892 19.256232 16.308 19.32204C17.328264 19.88724 18.134424 20.982288 18.391656 22.152383999999998C18.463584 22.479576 18.477192000000002 22.596912 18.50016 23.088C18.514824 23.401848 18.525959999999998 23.477328 18.571416 23.57088C18.639072000000002 23.7102 18.784152 23.855184 18.930888 23.930184L19.044 23.988 21.252 23.988L23.46 23.988 23.568 23.931456C23.819256000000003 23.799912 23.97528 23.570208 23.994192 23.304000000000002C24.003144 23.177832000000002 23.990928 23.098920000000003 23.930304 22.89132C23.694792 22.084775999999998 23.232167999999998 20.901216 22.871736000000002 20.183112C22.573680000000003 19.589304000000002 22.141536 18.897047999999998 21.82188 18.501288C21.730032 18.3876 21.648312 18.283944 21.640272 18.270936C21.632256 18.257928 21.746784 18.162144 21.89484 18.058056C22.243224 17.81316 22.816728 17.243856 23.053392 16.908C23.651736 16.058880000000002 23.953848 15.174816 23.992464000000002 14.16C24.04464 12.788064 23.50536 11.425152 22.527624 10.458096000000001C21.769368 9.708120000000001 20.893368000000002 9.261168 19.776 9.054168C19.596696 9.020952 19.089768000000003 9.015504 15.588000000000001 9.009048L11.604000000000001 9.001728 11.473512 9.052224M12.504 16.5L12.504 22.488 13.49952 22.488L14.495040000000001 22.488 14.501520000000001 20.274L14.508000000000001 18.06 14.57472 17.924136C14.651544 17.767704000000002 14.789832000000002 17.632920000000002 14.949072000000001 17.559288C15.049800000000001 17.512728 15.100871999999999 17.508024 15.504 17.508192L15.948 17.50836 16.236 17.623752C16.614456 17.775384 17.060928 18.009144 17.388 18.22692C18.753864 19.136328 19.684079999999998 20.595312 19.933392 22.2192L19.974648000000002 22.488 21.087336 22.488C21.699288 22.488 22.2 22.479864 22.2 22.469928C22.2 22.460016 22.158528 22.343904 22.107816 22.211928C21.678984000000003 21.095616 21.201648000000002 20.174688 20.727072 19.548000000000002C20.513424 19.26588 20.157624 18.908687999999998 19.947816 18.765719999999998C19.717992 18.60912 19.663824 18.561312 19.596816 18.456C19.377456000000002 18.11124 19.488672 17.616456 19.830384 17.416704C19.886280000000003 17.384040000000002 20.027352 17.323728 20.143895999999998 17.282664C21.250248000000003 16.89288 22.054968 16.02684 22.376448 14.88C22.543224000000002 14.285136000000001 22.516584 13.493712000000002 22.309008000000002 12.876C22.160856000000003 12.435096000000001 21.930312 12.04092 21.605736 11.673576C21.066264 11.063016000000001 20.295504 10.651512 19.478592 10.537872C19.352712 10.520376 18.194448 10.512 15.898272 10.512L12.504 10.512 12.504 16.5M15.007968 11.539848000000001C14.855904 11.593104 14.73144 11.685599999999999 14.63772 11.814936C14.491416 12.016944 14.493936 11.975328 14.501304000000001 14.054544L14.508000000000001 15.948 14.563488000000001 16.060632C14.640648 16.217304000000002 14.788079999999999 16.361256 14.94828 16.436376000000003L15.084 16.5 16.5 16.507416C17.363832000000002 16.511928 18.024768 16.504944000000002 18.194952 16.489512C18.794567999999998 16.435128000000002 19.289376 16.215792 19.712136 15.816984000000001C20.106504 15.44496 20.358408 14.980272 20.460912 14.43576C20.514864 14.149056 20.499648 13.677048 20.427552000000002 13.401312C20.188008 12.484944 19.532400000000003 11.826336000000001 18.608424 11.573856000000001L18.372 11.509248000000001 16.752 11.50284C15.24084 11.496864 15.123672000000001 11.499336000000001 15.007968 11.539848000000001M16.008 14.004L16.008 15 17.023584 15C17.653032 15 18.092904 14.990064 18.18048 14.973888C18.376872 14.937576 18.565848 14.834664 18.712848 14.683968C19.231056 14.152728 18.98892 13.26132 18.266856 13.042152C18.17892 13.015488000000001 17.933927999999998 13.008456 17.082 13.008263999999999L16.008 13.008000000000001 16.008 14.004" stroke="none" fill="#000" fill-rule="evenodd"></path>
</svg>
