<svg xmlns="http://www.w3.org/2000/svg" xml:space="preserve" x="0" y="0" version="1.1" viewBox="0 0 24 24">
    <path d="M12,24.005c-3.203,0-6.215-1.247-8.481-3.511C1.251,18.229,0.001,15.216,0,12.01c0,0,0-0.019,0-0.023 C0.005,8.79,1.252,5.785,3.511,3.523c2.243-2.245,5.224-3.493,8.397-3.517C11.938,0.003,11.969,0,12,0 c0.032,0,0.063,0.002,0.094,0.007c2.903,0.022,5.672,1.084,7.84,2.999L20.47,2.47C20.611,2.328,20.8,2.25,21,2.25 s0.389,0.078,0.53,0.22C21.672,2.611,21.75,2.8,21.75,3s-0.078,0.389-0.22,0.53l-7.72,7.72h9.439c0.051,0,0.102,0.005,0.151,0.015 C23.748,11.337,24,11.646,24,12c0.003,6.616-5.378,12.002-11.995,12.005H12z M1.529,12.75c0.177,2.525,1.251,4.885,3.05,6.683 c1.795,1.794,4.151,2.865,6.671,3.043v-3.013c-0.524-0.053-1.037-0.159-1.529-0.316c-1.909-0.61-3.467-1.926-4.386-3.708 c-0.427-0.827-0.698-1.75-0.793-2.689H1.529z M12.75,22.475c5.186-0.369,9.354-4.539,9.721-9.725h-3.008 c-0.031,0.309-0.08,0.615-0.148,0.915c-0.078,0.344-0.378,0.585-0.731,0.585c-0.056,0-0.112-0.006-0.166-0.019 c-0.194-0.044-0.361-0.161-0.468-0.331c-0.107-0.169-0.142-0.371-0.097-0.566c0.043-0.192,0.077-0.388,0.102-0.585H12.75v5.207 c0.699-0.087,1.372-0.296,2.006-0.624c0.106-0.055,0.225-0.083,0.344-0.083c0.282,0,0.537,0.156,0.667,0.406 c0.092,0.178,0.109,0.381,0.048,0.572c-0.061,0.191-0.193,0.347-0.371,0.438c-0.851,0.439-1.755,0.708-2.694,0.801V22.475z M6.049,12.75c0.087,0.702,0.295,1.374,0.618,2.001c0.735,1.425,1.982,2.479,3.51,2.966c0.351,0.112,0.71,0.192,1.073,0.238V12.75 H6.049z M11.25,11.25V6.048c-0.668,0.083-1.311,0.276-1.917,0.577C9.23,6.675,9.115,6.702,9,6.702c-0.287,0-0.545-0.16-0.672-0.417 C8.144,5.915,8.297,5.464,8.667,5.28c0.813-0.403,1.68-0.651,2.583-0.741V1.534c-2.523,0.178-4.882,1.252-6.678,3.05 C2.78,6.378,1.708,8.732,1.529,11.25H4.54c0.059-0.601,0.189-1.188,0.387-1.75C5.033,9.201,5.317,9,5.634,9 c0.085,0,0.169,0.014,0.25,0.043C6.274,9.181,6.479,9.61,6.341,10c-0.142,0.401-0.24,0.821-0.292,1.25H11.25z M12.75,10.19 l2.926-2.926c-0.847-0.656-1.863-1.077-2.926-1.213V10.19z M12.75,4.542c1.461,0.148,2.856,0.726,3.993,1.655l2.128-2.128 c-1.713-1.485-3.86-2.374-6.121-2.534V4.542z"/>
    <path d="M17.625 17.25c-.044 0-.088-.004-.13-.011-.513-.06-.923-.47-.983-.983-.007-.042-.011-.086-.011-.13s.004-.088.011-.131c.06-.513.47-.923.983-.983C17.537 15.004 17.581 15 17.625 15s.088.004.131.011c.513.06.923.47.983.983.008.042.011.086.011.131s-.004.088-.011.131c-.06.513-.47.923-.983.983C17.713 17.246 17.669 17.25 17.625 17.25zM6.375 8.25c-.044 0-.088-.004-.131-.012-.513-.06-.922-.47-.982-.982C5.254 7.213 5.25 7.169 5.25 7.125s.004-.088.012-.131c.06-.513.47-.922.982-.982C6.287 6.004 6.331 6 6.375 6s.088.004.131.012c.513.06.922.47.982.982C7.496 7.037 7.5 7.081 7.5 7.125S7.496 7.213 7.488 7.256c-.06.513-.47.922-.982.982C6.463 8.246 6.419 8.25 6.375 8.25z"/>
</svg>
