<svg xmlns="http://www.w3.org/2000/svg" width="24" height="24" viewBox="0 0 24 24" version="1.1" id="Ranking-Winner--Streamline-Ultimate.svg">
  <desc>Ranking Winner Streamline Icon: https://streamlinehq.com</desc>
  <title>ranking-winne</title>
	<path d="M8.583192 0.037008C7.802424 0.193344 7.161792 0.73476 6.888912 1.468896C6.750168 1.8421680000000002 6.758496 1.625352 6.75024 5.081352000000001L6.742656 8.254704 4.289328 8.261352L1.836 8.268 1.624872 8.334216000000001C1.137072 8.487216 0.735792 8.76516 0.457896 9.142464C0.25320000000000004 9.420408 0.15513600000000002 9.625464 0.055392 9.984C0.014064 10.13256 0.012 10.425792000000001 0.012 16.14L0.012 22.14 0.07919999999999999 22.354464C0.326856 23.145048 0.8549519999999999 23.673144 1.6455359999999999 23.9208L1.86 23.988 12 23.988L22.14 23.988 22.354464 23.9208C23.011224000000002 23.715048 23.48508 23.317008 23.77584 22.726824C23.862456 22.551000000000002 23.976 22.183368 23.976 22.078728C23.976 22.041384 23.986800000000002 22.004160000000002 24 21.996000000000002C24.015912 21.98616 24.022032 20.000040000000002 24.018192000000003 16.096584C24.014352 12.231311999999999 24.008112 10.990272000000001 24 12.48C23.993208 13.727400000000001 23.985024 14.720016 23.981808 14.685839999999999C23.968056 14.538816 23.872344000000002 14.229000000000001 23.7828 14.041728C23.480591999999998 13.409544 22.963704 12.991344000000002 22.248 12.799944C22.105728 12.761904 21.879168 12.757536 19.674408000000003 12.75024L17.256816 12.742272 17.249784000000002 7.3251360000000005C17.243184 2.24364 17.240136000000003 1.8983279999999998 17.200536 1.752C17.076456 1.293384 16.905024 0.9852960000000001 16.601471999999998 0.675408C16.323408 0.391536 15.95964 0.17796 15.564 0.066312L15.372 0.01212 12.06 0.008064C9.333504000000001 0.004728 8.718864 0.00984 8.583192 0.037008M8.783856 1.534416C8.602008 1.589736 8.414424 1.754712 8.323512 1.9393200000000002L8.268 2.052 8.261928000000001 12.27L8.255832 22.488 12 22.488L15.744167999999998 22.488 15.738072 12.27L15.732000000000001 2.052 15.676104000000002 1.938504C15.596904 1.777704 15.426383999999999 1.6183200000000002 15.271536 1.5603840000000002C15.144143999999999 1.51272 15.094608000000001 1.512024 11.993088 1.514064C10.261104 1.515192 8.816928 1.52436 8.783856 1.534416M10.36608 4.510728C10.07016 4.564896 9.830112000000002 4.80084 9.768384000000001 5.098128C9.693144 5.460552 9.892368000000001 5.821368 10.23936 5.951208C10.353216 5.993784000000001 10.426152 6 10.812912 6L11.256 6 11.256 7.869840000000001L11.256 9.739656 10.782 9.74784C10.336368 9.75552 10.300848 9.759528 10.188624 9.814752C10.03608 9.8898 9.889416 10.036631999999999 9.815159999999999 10.188624C9.73212 10.358640000000001 9.73212 10.64136 9.815159999999999 10.811376C9.889416 10.963368000000001 10.03608 11.1102 10.188624 11.185248000000001L10.308 11.244 12 11.244L13.692 11.244 13.811376000000001 11.185248000000001C13.963920000000002 11.1102 14.110584000000001 10.963368000000001 14.18484 10.811376C14.26788 10.64136 14.26788 10.358640000000001 14.18484 10.188624C14.110584000000001 10.036631999999999 13.963920000000002 9.8898 13.811376000000001 9.814752C13.699152 9.759528 13.663632 9.75552 13.218 9.74784L12.744 9.739656 12.744 7.75488C12.744 5.609136 12.746184000000001 5.649288 12.614232 5.364C12.439824000000002 4.986864 12.054264000000002 4.659936 11.652000000000001 4.54812C11.487888 4.50252 10.558608 4.475472 10.36608 4.510728M2.113296 9.771288C1.888992 9.808488 1.694184 9.956352 1.5800880000000002 10.176L1.524 10.284 1.524 16.128L1.524 21.972 1.594704 22.099656C1.673664 22.242192000000003 1.7756159999999999 22.341144 1.9266720000000002 22.421856000000002L2.028 22.476 4.386 22.482456L6.744 22.488912 6.744 16.116456L6.744 9.744 4.494 9.746808000000001C3.256512 9.748344 2.1851760000000002 9.75936 2.113296 9.771288M0.011808 16.128C0.011808 19.3686 0.014592 20.694288 0.018000000000000002 19.074C0.021408 17.453688 0.021408 14.802287999999999 0.018000000000000002 13.182C0.014592 11.561688 0.011808 12.887400000000001 0.011808 16.128M17.256 18.37212L17.256 22.488912 19.614 22.482456L21.972 22.476 22.099656 22.405296C22.242192000000003 22.326336 22.341144 22.224384 22.421856000000002 22.073328L22.476 21.972 22.482312 18.415728C22.488552000000002 14.893224000000002 22.488167999999998 14.858208 22.439904 14.729280000000001C22.381656 14.573568 22.222704 14.403287999999998 22.061496 14.323896L21.948 14.268 19.602 14.261664L17.256 14.255304 17.256 18.37212" stroke="none" fill="currentColor" fill-rule="evenodd"></path>
</svg>
