<svg viewBox="0 0 24 24" xmlns="http://www.w3.org/2000/svg" stroke-width="1.5" height="24" width="24"><path d="M12,23.251l-8.778-3.34a1.405,1.405,0,0,1-.972-1.337V11.251A1.406,1.406,0,0,1,4.091,9.914L12,12.972Z" fill="none" stroke="#000000" stroke-linecap="round" stroke-linejoin="round"></path><path d="M20.778,19.911,12,23.251V12.972l7.909-3.058a1.406,1.406,0,0,1,1.841,1.337v7.323A1.405,1.405,0,0,1,20.778,19.911Z" fill="none" stroke="#000000" stroke-linecap="round" stroke-linejoin="round"></path><path d="M3.000 4.501 A3.750 3.750 0 1 0 10.500 4.501 A3.750 3.750 0 1 0 3.000 4.501 Z" fill="none" stroke="#000000" stroke-linecap="round" stroke-linejoin="round"></path><path d="M13.500 4.501 A3.750 3.750 0 1 0 21.000 4.501 A3.750 3.750 0 1 0 13.500 4.501 Z" fill="none" stroke="#000000" stroke-linecap="round" stroke-linejoin="round"></path><path d="M10.5,4.572a1.5,1.5,0,1,1,3,0" fill="none" stroke="#000000" stroke-linecap="round" stroke-linejoin="round"></path><path d="M23.25 4.501L21 4.501" fill="none" stroke="#000000" stroke-linecap="round" stroke-linejoin="round"></path><path d="M3 4.501L0.75 4.501" fill="none" stroke="#000000" stroke-linecap="round" stroke-linejoin="round"></path><path d="M15.75 15.751L18 15.001" fill="none" stroke="#000000" stroke-linecap="round" stroke-linejoin="round"></path></svg>