<svg width="48" height="49" viewBox="0 0 48 49" fill="none" xmlns="http://www.w3.org/2000/svg">
<path d="M47.0372 24.962C46.9364 22.23 44.6502 20.0966 41.9186 20.1894C40.7083 20.2316 39.5568 20.7291 38.6827 21.5638C34.8332 18.933 30.3114 17.4912 25.6634 17.3899L27.8571 6.80753L35.0938 8.33381C35.2955 10.1973 36.9597 11.5464 38.8171 11.344C40.6746 11.1417 42.0195 9.47213 41.8178 7.60868C41.6161 5.74511 39.9519 4.39597 38.0944 4.59834C37.0269 4.70792 36.0687 5.33192 35.5392 6.25942L27.2519 4.59834C26.6888 4.47187 26.1257 4.82605 25.9995 5.39938C25.9995 5.40782 25.9995 5.40782 25.9995 5.41627L23.5033 17.1876C18.7965 17.2635 14.2159 18.7138 10.3159 21.3614C8.33237 19.4895 5.2057 19.5823 3.33977 21.5807C1.47388 23.5707 1.56634 26.7074 3.55836 28.5794C3.94497 28.9421 4.39036 29.254 4.88632 29.4733C4.85265 29.9707 4.85265 30.4682 4.88632 30.9658C4.88632 38.563 13.7116 44.7439 24.596 44.7439C35.4804 44.7439 44.3056 38.5715 44.3056 30.9658C44.3393 30.4682 44.3393 29.9707 44.3056 29.4733C46.0034 28.6215 47.0709 26.8677 47.0372 24.962ZM13.2241 28.3602C13.2241 26.4883 14.7454 24.962 16.6112 24.962C18.4771 24.962 19.9985 26.4883 19.9985 28.3602C19.9985 30.2321 18.4771 31.7583 16.6112 31.7583C14.7369 31.7415 13.2241 30.2321 13.2241 28.3602ZM32.8664 37.6861C30.4626 39.4991 27.5209 40.4266 24.5119 40.3001C21.5029 40.4266 18.5612 39.4991 16.1574 37.6861C15.838 37.2983 15.8968 36.7165 16.2835 36.396C16.6197 36.1178 17.0987 36.1178 17.4433 36.396C19.4774 37.8885 21.9569 38.6474 24.4783 38.5294C26.9998 38.6643 29.4877 37.9392 31.5469 36.4634C31.9167 36.1009 32.5218 36.1094 32.8833 36.4803C33.2447 36.8514 33.2362 37.4585 32.8664 37.821V37.6861ZM32.2613 31.8764C30.3954 31.8764 28.8741 30.3502 28.8741 28.4782C28.8741 26.6063 30.3954 25.0801 32.2613 25.0801C34.1273 25.0801 35.6485 26.6063 35.6485 28.4782C35.7241 30.3502 34.2701 31.9269 32.4042 32.0028C32.3453 32.0028 32.2949 32.0028 32.2361 32.0028L32.2613 31.8764Z" fill="white"/>
</svg>
