<svg xmlns="http://www.w3.org/2000/svg" width="24" height="24" viewBox="0 0 24 24">
    <path fill="none" stroke="currentColor" stroke-linecap="round" stroke-linejoin="round" stroke-width="1.5" d="M7 4V2.31034C7 1.96282 7.13409 1.62953 7.37277 1.38379C7.61146 1.13805 7.93518 1 8.27273 1H19.7273C20.0648 1 20.3885 1.13805 20.6272 1.38379C20.8659 1.62953 21 1.96282 21 2.31034V20"/>
    <path fill="currentColor" stroke="currentColor" stroke-linecap="round" stroke-linejoin="round" stroke-width="1.5" d="M16.9895 22.8789L11.7484 19.0854C11.5309 18.928 11.2689 18.8433 11 18.8433C10.7311 18.8433 10.4691 18.928 10.2516 19.0854L5.01055 22.8789C4.9157 22.9476 4.80365 22.9888 4.68677 22.998C4.56988 23.0073 4.4527 22.9842 4.34816 22.9313C4.24362 22.8785 4.15578 22.7979 4.09434 22.6985C4.03291 22.5991 4.00026 22.4847 4 22.368V5.26676C4 4.93079 4.13409 4.60859 4.37277 4.37103C4.61146 4.13346 4.93518 4 5.27273 4H16.7273C17.0648 4 17.3885 4.13346 17.6272 4.37103C17.8659 4.60859 18 4.93079 18 5.26676V22.368C17.9997 22.4847 17.9671 22.5991 17.9057 22.6985C17.8442 22.7979 17.7564 22.8785 17.6518 22.9313C17.5473 22.9842 17.4301 23.0073 17.3132 22.998C17.1963 22.9888 17.0843 22.9476 16.9895 22.8789V22.8789Z"/>
</svg>
