<svg xmlns="http://www.w3.org/2000/svg" width="18" height="24" viewBox="0 0 18 24">
    <path fill="currentColor" stroke="currentColor" stroke-linecap="round" stroke-linejoin="round" stroke-width="1.5" d="M16.059 23.105L9.882 18.613C9.62567 18.4267 9.31691 18.3263 9 18.3263C8.68309 18.3263 8.37433 18.4267 8.118 18.613L1.941 23.105C1.82922 23.1863 1.69716 23.2351 1.5594 23.246C1.42164 23.2569 1.28354 23.2296 1.16033 23.167C1.03712 23.1044 0.933597 23.009 0.86119 22.8913C0.788782 22.7736 0.750303 22.6382 0.75 22.5V2.25C0.75 1.85218 0.908035 1.47064 1.18934 1.18934C1.47064 0.908035 1.85218 0.75 2.25 0.75H15.75C16.1478 0.75 16.5294 0.908035 16.8107 1.18934C17.092 1.47064 17.25 1.85218 17.25 2.25V22.5C17.2497 22.6382 17.2112 22.7736 17.1388 22.8913C17.0664 23.009 16.9629 23.1044 16.8397 23.167C16.7165 23.2296 16.5784 23.2569 16.4406 23.246C16.3028 23.2351 16.1708 23.1863 16.059 23.105Z"/>
</svg>
