<svg xmlns="http://www.w3.org/2000/svg" viewBox="0 0 24 24"><defs><style>.a{fill:none;stroke:currentColor;stroke-linecap:round;stroke-linejoin:round;stroke-width:1.5px}</style></defs><title>roadmap</title><path class="a" d="M.75 6.26a1.5 1.5 0 01.943-1.393l5.381-2.152a3 3 0 012.333.044l4.487 1.994a3 3 0 002.244.078l5.1-1.855a1.5 1.5 0 012.013 1.41v13.308a1.5 1.5 0 01-.987 1.409l-6.125 2.228a3 3 0 01-2.244-.078l-4.488-1.994a3 3 0 00-2.333-.044l-4.267 1.707A1.5 1.5 0 01.75 19.529zM12.375 11.244a.375.375 0 01.375.375M12 11.619a.375.375 0 01.375-.375M12.375 11.994a.375.375 0 01-.375-.375M12.75 11.619a.375.375 0 01-.375.375M9.375 13.75a.375.375 0 01.375.375M9 14.125a.375.375 0 01.375-.375M9.375 14.5A.375.375 0 019 14.125M9.75 14.125a.375.375 0 01-.375.375M6.375 11.5a.375.375 0 01.375.375M6 11.875a.375.375 0 01.375-.375M6.375 12.25A.375.375 0 016 11.875M6.75 11.875a.375.375 0 01-.375.375M4.125 14.5a.375.375 0 01.375.375M3.75 14.875a.375.375 0 01.375-.375M4.125 15.25a.375.375 0 01-.375-.375M4.5 14.875a.375.375 0 01-.375.375M15.75 8.244l4.5 4.5M15.75 12.744l4.5-4.5"/></svg>
