<svg xmlns="http://www.w3.org/2000/svg" fill="none" viewBox="0 0 24 24" stroke-width="1.5" height="16" width="16"><path stroke="#000000" stroke-linecap="round" stroke-linejoin="round" d="M22.25 10.75H17.5L13.75 13.75V10.75H11.25C10.9848 10.75 10.7304 10.6446 10.5429 10.4571C10.3554 10.2696 10.25 10.0152 10.25 9.75V1.75C10.25 1.48478 10.3554 1.23043 10.5429 1.04289C10.7304 0.855357 10.9848 0.75 11.25 0.75H22.25C22.5152 0.75 22.7696 0.855357 22.9571 1.04289C23.1446 1.23043 23.25 1.48478 23.25 1.75V9.75C23.25 10.0152 23.1446 10.2696 22.9571 10.4571C22.7696 10.6446 22.5152 10.75 22.25 10.75Z"></path><path stroke="#000000" stroke-linecap="round" stroke-linejoin="round" d="M13.75 4.25H19.75"></path><path stroke="#000000" stroke-linecap="round" stroke-linejoin="round" d="M13.75 7.25H17.75"></path><path stroke="#000000" stroke-linecap="round" stroke-linejoin="round" d="M11.75 22.25C11.75 22.5152 11.6446 22.7696 11.4571 22.9571C11.2696 23.1446 11.0152 23.25 10.75 23.25H1.75C1.48478 23.25 1.23043 23.1446 1.04289 22.9571C0.855357 22.7696 0.75 22.5152 0.75 22.25V19.75C0.75 18.2913 1.32946 16.8924 2.36091 15.8609C3.39236 14.8295 4.79131 14.25 6.25 14.25C7.70869 14.25 9.10764 14.8295 10.1391 15.8609C11.1705 16.8924 11.75 18.2913 11.75 19.75V22.25Z"></path><path stroke="#000000" d="M4.25 18.875C4.04289 18.875 3.875 18.7071 3.875 18.5C3.875 18.2929 4.04289 18.125 4.25 18.125"></path><path stroke="#000000" d="M4.25 18.875C4.45711 18.875 4.625 18.7071 4.625 18.5C4.625 18.2929 4.45711 18.125 4.25 18.125"></path><path stroke="#000000" d="M8.25 18.875C8.04289 18.875 7.875 18.7071 7.875 18.5C7.875 18.2929 8.04289 18.125 8.25 18.125"></path><path stroke="#000000" d="M8.25 18.875C8.45711 18.875 8.625 18.7071 8.625 18.5C8.625 18.2929 8.45711 18.125 8.25 18.125"></path><path stroke="#000000" stroke-linecap="round" stroke-linejoin="round" d="M6.25 14.25V12.25"></path><path stroke="#000000" stroke-linecap="round" stroke-linejoin="round" d="M6.25 12.25C7.07843 12.25 7.75 11.5784 7.75 10.75C7.75 9.92157 7.07843 9.25 6.25 9.25C5.42157 9.25 4.75 9.92157 4.75 10.75C4.75 11.5784 5.42157 12.25 6.25 12.25Z"></path></svg>