<svg xmlns="http://www.w3.org/2000/svg" fill="none" viewBox="0 0 24 24" stroke-width="1.5" height="16" width="16"><path stroke="#000000" stroke-linecap="round" stroke-linejoin="round" d="M5.5 21.25C4.96957 21.25 4.46086 21.0393 4.08579 20.6642C3.71071 20.2891 3.5 19.7804 3.5 19.25V11.25C3.5 8.99566 4.39553 6.83365 5.98959 5.23959C7.58365 3.64553 9.74566 2.75 12 2.75C14.2543 2.75 16.4163 3.64553 18.0104 5.23959C19.6045 6.83365 20.5 8.99566 20.5 11.25V19.25C20.5 19.7804 20.2893 20.2891 19.9142 20.6642C19.5391 21.0393 19.0304 21.25 18.5 21.25H5.5Z"></path><path stroke="#000000" stroke-linecap="round" stroke-linejoin="round" d="M0.75 12.25V15.75"></path><path stroke="#000000" stroke-linecap="round" stroke-linejoin="round" d="M23.25 12.25V15.75"></path><path stroke="#000000" d="M8.5 12C8.22386 12 8 11.7761 8 11.5C8 11.2239 8.22386 11 8.5 11"></path><path stroke="#000000" d="M8.5 12C8.77614 12 9 11.7761 9 11.5C9 11.2239 8.77614 11 8.5 11"></path><path stroke="#000000" d="M15.5 12C15.2239 12 15 11.7761 15 11.5C15 11.2239 15.2239 11 15.5 11"></path><path stroke="#000000" d="M15.5 12C15.7761 12 16 11.7761 16 11.5C16 11.2239 15.7761 11 15.5 11"></path><path stroke="#000000" stroke-linecap="round" stroke-linejoin="round" d="M3.5 12.75L7 14.75V15.75C7 16.2804 7.21071 16.7891 7.58579 17.1642C7.96086 17.5393 8.46957 17.75 9 17.75H15C15.5304 17.75 16.0391 17.5393 16.4142 17.1642C16.7893 16.7891 17 16.2804 17 15.75V14.75L20.5 12.75"></path></svg>