<svg xmlns="http://www.w3.org/2000/svg" viewBox="0 0 24 24">
    <defs>
        <style>
            .a{fill:none;stroke:currentColor;stroke-linecap:round;stroke-linejoin:round;stroke-width:1.5px}
        </style>
    </defs>
    <path d="m22.5 1.567-2.158.24a7.5 7.5 0 0 0-4.475 2.151L6.06 13.765 10.3 18.007 20.109 8.2A7.494 7.494 0 0 0 22.26 3.725ZM6.06 13.765 2.438 12.557a.749.749 0 0 1-.293-1.241l.232-.232a6 6 0 0 1 6.14-1.45l1.255.418Z" class="a"/>
    <path d="M6.06 13.765 2.438 12.557a.749.749 0 0 1-.293-1.241l.232-.232a6 6 0 0 1 6.14-1.45l1.255.418ZM10.3 18.007l1.208 3.622a.749.749 0 0 0 1.241.293l.233-.232a6 6 0 0 0 1.449-6.14L14.015 14.3Z" class="a"/>
    <path d="m10.3 18.007 1.208 3.622a.749.749 0 0 0 1.241.293l.233-.232a6 6 0 0 0 1.449-6.14L14.015 14.3ZM7.779 18.538a2.243 2.243 0 0 1-.659 1.591c-.878.878-5.3 2.121-5.3 2.121s1.243-4.425 2.121-5.3a2.246 2.246 0 0 1 1.444-.655" class="a"/>
</svg>
