<svg xmlns="http://www.w3.org/2000/svg" id="Pin-1--Streamline-Ultimate.svg" width="16" height="16" version="1.1" viewBox="0 0 16 16">
    <path fill="#000" fill-rule="evenodd" stroke="none" d="M7.872 0.47340800000000005C7.27352 0.525088 6.8911999999999995 0.600592 6.456 0.753088C4.941264 1.2838720000000001 3.772208 2.4588 3.2454400000000003 3.9798080000000002C3.1228000000000002 4.33392 3.0316 4.757024 2.99104 5.16C2.968096 5.387936 2.9687040000000002 5.972656 2.992128 6.208C3.090768 7.198816 3.431968 8.12712 4.021264 9.007952C4.450064 9.64888 4.784816 10.04048 5.847184 11.144C6.118288 11.425600000000001 6.370432 11.6956 6.407520000000001 11.744C6.550015999999999 11.930031999999999 6.732816 12.274032 6.887872000000001 12.648C7.123216 13.2156 7.429472 14.176448 7.609504 14.912C7.650304 15.078704 7.698544 15.236432 7.719952 15.273104C7.8783199999999995 15.544432 8.221312 15.61432 8.461776 15.424256C8.583568 15.327968 8.615008 15.259136000000002 8.711328 14.877712C9.072976 13.445744000000001 9.556096 12.183344 9.914672000000001 11.733360000000001C9.962144 11.673791999999999 10.222576 11.394432 10.493424000000001 11.112528000000001C11.41872 10.149488 11.724752 9.801440000000001 12.097744 9.288C12.784928 8.342048 13.17648 7.384224000000001 13.307472 6.328672C13.346368 6.015312 13.345776 5.2904160000000005 13.306415999999999 5.008C13.1988 4.235968 12.950111999999999 3.537616 12.56024 2.91264C12.191824 2.322032 11.620992000000001 1.731504 11.048 1.348208C10.352992 0.88328 9.612368 0.6090720000000001 8.768 0.5040640000000001C8.573680000000001 0.479904 8.017296 0.460864 7.872 0.47340800000000005M7.832 1.48168C7.443696 1.521504 7.160016 1.580512 6.832064000000001 1.68968C5.508608000000001 2.1302399999999997 4.489136 3.206272 4.120352 4.551808C3.951504 5.1679200000000005 3.9277759999999997 5.828304 4.0502080000000005 6.5040000000000004C4.199936 7.330224 4.5664 8.109904 5.17448 8.89584C5.478848 9.289264 5.78344 9.629264 6.457088 10.327616C7.0289600000000005 10.920464 7.103504 11.001567999999999 7.216208 11.153568C7.510176 11.550048 7.818016 12.19856 8.087504000000001 12.989120000000002L8.154704 13.18624 8.24736 12.925120000000001C8.510704 12.182912 8.754256 11.660639999999999 9.02528 11.256943999999999C9.16888 11.043040000000001 9.202144 11.005504 9.791360000000001 10.392C10.557392 9.594415999999999 10.748415999999999 9.384064 11.050111999999999 9.005888C11.381727999999999 8.590208 11.610624 8.23776 11.811727999999999 7.833184C12.107104 7.2389600000000005 12.252448000000001 6.74 12.321280000000002 6.083888C12.345568 5.852399999999999 12.331760000000001 5.266224 12.296704 5.04C12.131824 3.976064 11.586784 3.038752 10.743120000000001 2.36832C10.187744 1.926992 9.49456 1.626768 8.780944 1.518496C8.576319999999999 1.487456 7.995504 1.4649280000000002 7.832 1.48168M7.872 3.297248C7.0785919999999996 3.3978400000000004 6.386864 3.8862240000000003 6.028624 4.598704C5.943424 4.768176 5.84616 5.067792000000001 5.813712000000001 5.260752C5.779216000000001 5.465856 5.779216000000001 5.846144000000001 5.813712000000001 6.051247999999999C5.890592 6.508432 6.114368000000001 6.953072000000001 6.438048 7.2918080000000005C7.097536 7.981952000000001 8.075664 8.210512000000001 8.976 7.88488C9.695392 7.6246719999999994 10.262224 6.999888 10.457104 6.25232C10.550944 5.892399999999999 10.550944 5.419600000000001 10.457104 5.05968C10.23976 4.225968 9.575088 3.565984 8.737216 3.3519360000000002C8.489951999999999 3.288768 8.122176000000001 3.26552 7.872 3.297248M7.936 4.299088C7.811504 4.320016 7.640544 4.378544 7.513088 4.443872000000001C7.391328000000001 4.506272 7.3409759999999995 4.545392 7.2 4.68712C7.023712000000001 4.864336000000001 6.956112 4.9623360000000005 6.8783199999999995 5.15352C6.696288 5.600816 6.78824 6.174671999999999 7.0986080000000005 6.528144C7.383152 6.85224 7.679376 7.000464 8.08 7.019264000000001C8.442224 7.03624 8.7216 6.951823999999999 8.992 6.743712C9.375152 6.448784 9.562352 6.009984 9.517472 5.5120000000000005C9.463504 4.913344 8.988128000000001 4.400544 8.398416 4.304863999999999C8.299504 4.288816 8.018016 4.285296000000001 7.936 4.299088"/>
</svg>
