<svg xmlns="http://www.w3.org/2000/svg" width="24" height="24" viewBox="0 0 24 24">
    <path fill="#000" fill-rule="evenodd" stroke="none" d="M11.840856 0.037536C9.911352 0.271464 7.62972 1.468272 5.376 3.428544C4.90872 3.834984 3.825984 4.916856 3.426984 5.376C1.5585840000000002 7.526016 0.397464 9.670704 0.06782400000000001 11.580696C-0.00984 12.030719999999999 -0.010128 12.835896 0.067248 13.192512C0.164184 13.639248 0.29592 13.96176 0.51144 14.280000000000001L0.633336 14.46 1.180032 18.648C1.480704 20.9514 1.743552 22.979976 1.764144 23.155920000000002C1.806432 23.517384 1.8472320000000002 23.627592 1.9962480000000002 23.782656C2.250792 24.047568 2.414064 24.05664 3.732 23.878968L4.284 23.804568 13.40076 23.482056C18.41496 23.304672 22.54596 23.152704 22.58076 23.144328C22.81908 23.087064 23.05572 22.867104 23.131968 22.632C23.149464000000002 22.578 23.274624 19.281528 23.482319999999998 13.404C23.787552 4.766640000000001 23.808864 4.23408 23.866992 3.7920000000000003C24.01644 2.655456 24.02628 2.4019440000000003 23.92848 2.207304C23.84916 2.049432 23.660568 1.880784 23.511864 1.834776C23.443728 1.81368 21.37716 1.534512 18.919439999999998 1.214376L14.45088 0.632328 14.281439999999998 0.51864C13.645439999999999 0.09192 12.787368 -0.077232 11.840856 0.037536M11.892 1.54824C10.566576 1.7604 9.025656000000001 2.501496 7.451952 3.683688C6.747144 4.213128 6.240408 4.652424 5.558952 5.324712C4.017672 6.8453040000000005 2.867712 8.414904 2.150544 9.976944000000001C1.691856 10.975992000000002 1.49316 11.783544000000001 1.517328 12.550439999999998C1.5267359999999999 12.84852 1.5378239999999999 12.927672000000001 1.59264 13.087871999999999C1.7979600000000002 13.687944 2.257848 13.968 3.03792 13.968C4.658040000000001 13.968 6.951456 12.80424 9.18 10.851312C9.801072 10.307039999999999 10.764216000000001 9.305760000000001 11.330184000000001 8.615952C12.560448 7.116528 13.48188 5.458896 13.811592 4.152C13.924895999999999 3.702816 13.95312 3.486984 13.95432 3.06C13.955328 2.7020880000000003 13.948560000000002 2.627736 13.899216000000001 2.454408C13.76808 1.9938 13.473384 1.701432 13.006920000000001 1.5691199999999998C12.818976000000001 1.515792 12.170496 1.503672 11.892 1.54824M16.932 2.514192C16.9584 2.540688 17.9844 3.4507440000000003 19.212 4.536528C20.4396 5.622288 21.47808 6.542712 21.519744 6.581856000000001L21.595512 6.6530640000000005 21.728016 6.248520000000001C22.091712 5.1384 22.304088 4.18716 22.33008 3.552L22.345296 3.18 19.686648 2.835048C18.2244 2.645328 16.9956 2.484672 16.956 2.478048L16.884 2.466024 16.932 2.514192M15.456 3.397152C15.456 3.70716 15.326927999999999 4.37412 15.163608 4.908C14.970696 5.538672 14.5776 6.430344 14.200872 7.091808C14.140800000000002 7.197311999999999 14.093712000000002 7.285728000000001 14.09628 7.288272C14.106144 7.298159999999999 19.607496 6.944496 19.618728 6.933264C19.633296 6.9187199999999995 15.530088 3.27912 15.486839999999999 3.268248C15.464424000000001 3.262608 15.456 3.297792 15.456 3.397152M17.393328 8.591520000000001C15.587856 8.706912 14.105808 8.8062 14.099856 8.812128000000001C14.093928 8.81808 14.619 10.17768 15.266736000000002 11.833464C15.914448 13.489272 16.452096 14.863871999999999 16.461528 14.888136000000001C16.475592 14.924424 16.531728 14.873351999999999 16.776384 14.601624C18.173304 13.050192000000001 19.37628 11.330232 20.333351999999998 9.516C20.586168 9.036792 20.88 8.434968 20.88 8.396376C20.88 8.367647999999999 21.007344 8.360520000000001 17.393328 8.591520000000001M21.902496000000003 9.763128C20.362896 12.852167999999999 18.074568 15.761304 15.252 18.217848C13.623624 19.635047999999998 11.861736 20.82744 9.948 21.807456000000002L9.324 22.126992 9.576 22.114224C9.773976000000001 22.104192 20.546400000000002 21.72 20.629896 21.72C20.641512 21.72 20.055072000000003 21.123288 19.326743999999998 20.394000000000002C17.851272 18.916608 17.879448 18.950712000000003 17.877048 18.6384C17.875224000000003 18.402 17.934288 18.253872 18.094079999999998 18.094079999999998C18.253872 17.934288 18.402 17.875224000000003 18.6384 17.877048C18.950712000000003 17.879448 18.916608 17.851272 20.394000000000002 19.326743999999998C21.473976 20.40528 21.720144 20.639952 21.720768 20.591496000000003C21.721176 20.558784 21.811824 18.0156 21.9222 14.94C22.032576 11.864400000000002 22.120944 9.345816 22.118568 9.343128C22.116192 9.340440000000001 22.018944 9.529440000000001 21.902496000000003 9.763128M12.504 9.558576C11.76708 10.483464 10.527792 11.726448 9.607296 12.463944000000001C9.472704 12.571776 9.36228 12.6654 9.361872 12.672C9.361296 12.681768000000002 14.455632 14.680296 14.726160000000002 14.776416L14.806176 14.804856000000001 14.753088 14.664743999999999C14.489111999999999 13.968 12.681216000000001 9.361296 12.672 9.361944000000001C12.6654 9.362424 12.589800000000002 9.450887999999999 12.504 9.558576M7.032 14.23476C5.951664 14.845680000000002 4.776144 15.280704 3.848664 15.412776C3.728016 15.429936 3.6267600000000004 15.453263999999999 3.6236400000000004 15.464592C3.62052 15.475920000000002 4.372632 16.360224000000002 5.295 17.429688L6.972 19.374192 6.989808000000001 19.257096C7.008864 19.13172 7.301736 14.109648000000002 7.290624 14.098752C7.286976000000001 14.095176 7.170599999999999 14.156376000000002 7.032 14.23476M8.80692 14.115432C8.806344 14.133336 8.716152000000001 15.66 8.606544 17.508C8.496912 19.356 8.409408 20.870904 8.412072 20.874456000000002C8.422272 20.888064 9.05268 20.579688 9.513984 20.33544C11.336304 19.370568 12.948936 18.24732 14.51508 16.851984C14.743368 16.648584 14.926968 16.479408000000003 14.923079999999999 16.476048C14.917824000000001 16.471488 11.66316 15.197736 8.838000000000001 14.094576C8.821512 14.088144 8.80752 14.097528000000002 8.80692 14.115432M2.409624 16.44C2.416656 16.473 2.592168 17.8122 2.799648 19.416C3.007128 21.0198 3.17928 22.335504 3.1822080000000006 22.339776C3.185136 22.344048 3.3910560000000003 22.336176 3.639768 22.322280000000003C4.125935999999999 22.295112 4.429296 22.23972 5.22 22.033752C5.8712159999999995 21.86412 6.802944000000001 21.564384 6.813432 21.521136000000002C6.816936 21.506712 2.590056 16.582584 2.4311760000000002 16.416C2.4010320000000003 16.384392000000002 2.3983920000000003 16.387344000000002 2.409624 16.44"/>
</svg>
