<svg xmlns="http://www.w3.org/2000/svg" id="Ruler-Triangle--Streamline-Ultimate.svg" width="16" height="16" version="1.1" viewBox="0 0 16 16">
    <path fill="#000" fill-rule="evenodd" stroke="none" d="M1.576 0.815376C1.21968 0.892304 0.930512 1.166416 0.833024 1.5196800000000001L0.8 1.63936 0.800208 7.77568C0.800416 13.692896000000001 0.8014880000000001 13.917136000000001 0.830144 14.056032C0.92664 14.523504 1.256384 14.916848 1.7026400000000002 15.0968C1.9797280000000002 15.208528000000001 1.44024 15.200000000000001 8.230096 15.200000000000001L14.36064 15.200000000000001 14.48032 15.166976C14.798656000000001 15.079120000000001 15.05224 14.835456 15.161936 14.512C15.184208000000002 14.44632 15.191792 14.377312 15.191840000000001 14.24C15.19192 14.023968000000002 15.157904 13.892144 15.06072 13.731888000000001C14.971568 13.58488 2.407968 1.0216319999999999 2.265552 0.937072C2.119936 0.8506079999999999 1.98632 0.81328 1.8 0.806976C1.712 0.804 1.6112000000000002 0.8077759999999999 1.576 0.815376M1.8083520000000002 7.8640159999999995C1.808704 13.863392 1.808704 13.864 1.841264 13.936C1.881104 14.024144 1.954944 14.103424 2.04 14.149408L2.104 14.184000000000001 8.120000000000001 14.188064L14.136000000000001 14.192144 12.872272 12.928304L11.608544 11.664464 11.288272000000001 11.983312C10.903696 12.366176 10.86176 12.392288 10.650368 12.380688000000001C10.495087999999999 12.372160000000001 10.422224 12.339568 10.3148 12.230608C10.179472 12.093328 10.139552 11.890624 10.210512000000001 11.700976C10.241072 11.619296 10.282144 11.571136000000001 10.569856 11.279664L10.894688 10.950576 10.079568 10.135568L9.264464 9.320575999999999 8.940192 9.643424000000001C8.564048000000001 10.017952 8.532272 10.03848 8.328 10.038928C8.223328 10.039168 8.185776 10.032032 8.121952 9.999744000000002C7.87008 9.872384 7.764112 9.58464 7.877680000000001 9.33656C7.912896 9.259647999999999 7.97792 9.184912 8.235888000000001 8.92488L8.551072 8.607184 7.7358080000000005 7.7918080000000005L6.920560000000001 6.976432 6.600272 7.2952960000000004C6.215696 7.678176000000001 6.173760000000001 7.704288 5.962368000000001 7.692688C5.807088 7.68416 5.734224 7.651568 5.6268 7.542608C5.491472 7.405328000000001 5.4515519999999995 7.202624 5.522512 7.012976C5.553072 6.931296000000001 5.594144 6.883136 5.881856 6.591664L6.206688000000001 6.262576 5.391568 5.447568L4.576464 4.632576 4.252192 4.955424C3.876048 5.3299520000000005 3.844272 5.350479999999999 3.64 5.350928C3.5353280000000002 5.3511679999999995 3.497776 5.344032 3.433952 5.311744C3.250432 5.2189440000000005 3.148448 5.056144000000001 3.148448 4.856C3.148448 4.658336 3.1802240000000004 4.609088 3.547136 4.2380320000000005L3.862784 3.918816 2.8353919999999997 2.891424L1.808 1.864032 1.8083520000000002 7.8640159999999995M3.96 7.186752C3.810896 7.2421120000000005 3.671872 7.386944000000001 3.6324 7.5280000000000005C3.6194720000000005 7.574192 3.615808 8.211088 3.6192480000000002 9.816L3.624 12.040000000000001 3.660656 12.108656000000002C3.707504 12.196368000000001 3.8036320000000003 12.292496 3.891344 12.339343999999999L3.96 12.376 6.224 12.376L8.488 12.376 8.552 12.341648C8.638176 12.295376000000001 8.738512 12.191264 8.785456 12.099408C8.817376000000001 12.036944 8.823936 12.000639999999999 8.823616 11.888C8.82328 11.770816000000002 8.817008 11.739824 8.778176 11.664C8.741168 11.591696 8.347280000000001 11.190288 6.57056 9.414176C4.8139840000000005 7.658176000000001 4.392976 7.245232000000001 4.328 7.214416C4.236896 7.171232 4.041392 7.156544 3.96 7.186752M4.611904000000001 10.14L4.616 11.384 5.86 11.388095999999999C6.544192 11.390352000000002 7.104 11.386736 7.104 11.380064C7.104 11.36424 4.635680000000001 8.896 4.6198559999999995 8.896C4.613232 8.896 4.609648 9.455791999999999 4.611904000000001 10.14"/>
</svg>
