<svg width="26" height="26" viewBox="0 0 26 26"  xmlns="http://www.w3.org/2000/svg">
<path fill-rule="evenodd" clip-rule="evenodd" d="M1.61749 0.149073L10.6953 5.49644C11.4156 5.92017 11.4156 6.97937 10.6953 7.4031L1.61749 12.7505C0.898336 13.1741 0 12.6445 0 11.7971V1.1024C0 0.255067 0.898336 -0.274531 1.61749 0.149073Z" />
<path fill-rule="evenodd" clip-rule="evenodd" d="M16.3828 0.149073L25.4606 5.49644C26.1798 5.92017 26.1798 6.97937 25.4606 7.4031L16.3828 12.7505C15.6637 13.1741 14.7641 12.6445 14.7641 11.7971V1.1024C14.7641 0.255067 15.6637 -0.274531 16.3828 0.149073Z" />
<path fill-rule="evenodd" clip-rule="evenodd" d="M9.0089 13.2499L18.0867 18.5972C18.8058 19.0208 18.8058 20.0801 18.0867 20.5037L9.0089 25.8511C8.28974 26.2747 7.3902 25.7451 7.3902 24.8978V14.2031C7.3902 13.3557 8.28974 12.8261 9.0089 13.2499Z" />
</svg>
