<svg xmlns="http://www.w3.org/2000/svg" width="20" height="20" fill="none" viewBox="0 0 8 7">
    <path fill="#000" d="M2.27194 6.29959C2.09951 6.29727 1.92985 6.2558 1.77578 6.17832C1.62171 6.10084 1.48726 5.98937 1.38257 5.85233L0.126681 4.42463C0.0341179 4.30971 -0.0105124 4.1635 0.00209544 4.01647C0.0147033 3.86945 0.083576 3.73297 0.194353 3.63548C0.305131 3.538 0.449262 3.48704 0.596695 3.49323C0.744128 3.49941 0.883482 3.56227 0.985702 3.66869L2.16256 5.0082C2.17565 5.02307 2.19169 5.03507 2.20965 5.04342C2.22762 5.05178 2.24712 5.05632 2.26693 5.05675C2.28674 5.05718 2.30642 5.05349 2.32473 5.04593C2.34304 5.03836 2.35959 5.02707 2.37331 5.01278L7.01203 0.178203C7.06384 0.123679 7.12589 0.0798948 7.19463 0.0493505C7.26337 0.0188062 7.33745 0.00209998 7.41264 0.000185559C7.48784 -0.00172886 7.56267 0.011186 7.63287 0.0381929C7.70308 0.0651998 7.76727 0.10577 7.8218 0.157586C7.87632 0.209403 7.92011 0.271452 7.95065 0.340189C7.98119 0.408927 7.9979 0.483008 7.99981 0.558202C8.00173 0.633396 7.98881 0.708231 7.96181 0.778434C7.9348 0.848637 7.89423 0.912834 7.84241 0.967358L3.14528 5.91131C3.03775 6.03691 2.90356 6.13694 2.75248 6.20411C2.60139 6.27128 2.43723 6.3039 2.27194 6.29959Z"/>
</svg>
