<svg xmlns="http://www.w3.org/2000/svg" width="14" height="14" version="1.1" viewBox="0 0 14 14">
    <path id="surface1" d="M 3.226562 0.417969 C 3.144531 0.433594 3.070312 0.472656 3.007812 0.527344 C 2.941406 0.589844 2.902344 0.664062 2.871094 0.777344 C 2.675781 1.535156 2.238281 2.226562 1.625 2.738281 C 1.390625 2.9375 1.097656 3.121094 0.824219 3.246094 C 0.597656 3.351562 0.5625 3.375 0.507812 3.441406 C 0.476562 3.480469 0.4375 3.558594 0.421875 3.613281 C 0.40625 3.667969 0.40625 3.78125 0.425781 3.835938 C 0.441406 3.894531 0.476562 3.957031 0.515625 4.003906 C 0.5625 4.058594 0.621094 4.097656 0.726562 4.144531 C 1.164062 4.335938 1.542969 4.59375 1.878906 4.929688 C 2.175781 5.226562 2.402344 5.539062 2.585938 5.90625 C 2.714844 6.160156 2.785156 6.347656 2.878906 6.683594 C 2.90625 6.773438 2.9375 6.832031 2.984375 6.882812 C 3.070312 6.976562 3.1875 7.027344 3.304688 7.027344 C 3.496094 7.027344 3.671875 6.898438 3.726562 6.71875 C 3.734375 6.691406 3.75 6.632812 3.761719 6.589844 C 3.917969 6.027344 4.207031 5.511719 4.609375 5.066406 C 4.96875 4.667969 5.375 4.375 5.886719 4.148438 C 5.996094 4.097656 6.035156 4.070312 6.078125 4.03125 C 6.164062 3.945312 6.21875 3.800781 6.207031 3.691406 C 6.199219 3.589844 6.15625 3.496094 6.09375 3.425781 C 6.039062 3.371094 6 3.339844 5.882812 3.289062 C 5.289062 3.023438 4.816406 2.652344 4.414062 2.140625 C 4.125 1.773438 3.894531 1.316406 3.769531 0.867188 C 3.726562 0.707031 3.710938 0.664062 3.683594 0.621094 C 3.589844 0.464844 3.402344 0.382812 3.226562 0.417969 M 6.796875 0.414062 C 6.207031 0.433594 5.625 0.527344 5.058594 0.703125 C 4.917969 0.746094 4.882812 0.757812 4.839844 0.789062 C 4.6875 0.890625 4.617188 1.082031 4.660156 1.257812 C 4.695312 1.386719 4.769531 1.484375 4.890625 1.542969 C 4.953125 1.574219 4.996094 1.585938 5.058594 1.589844 C 5.128906 1.59375 5.164062 1.585938 5.324219 1.539062 C 5.765625 1.402344 6.164062 1.332031 6.640625 1.296875 C 6.773438 1.289062 7.222656 1.289062 7.355469 1.296875 C 7.832031 1.332031 8.230469 1.40625 8.675781 1.539062 C 8.828125 1.585938 8.835938 1.585938 8.902344 1.585938 C 9.066406 1.585938 9.21875 1.492188 9.289062 1.347656 C 9.324219 1.28125 9.335938 1.226562 9.335938 1.148438 C 9.339844 0.980469 9.246094 0.832031 9.097656 0.757812 C 9.054688 0.734375 8.824219 0.664062 8.644531 0.621094 C 8.050781 0.464844 7.417969 0.394531 6.796875 0.414062 M 10.605469 0.417969 C 10.558594 0.425781 10.492188 0.453125 10.449219 0.480469 C 10.398438 0.515625 10.363281 0.550781 10.328125 0.605469 C 10.292969 0.660156 10.28125 0.6875 10.230469 0.867188 C 10.105469 1.316406 9.875 1.773438 9.585938 2.140625 C 9.183594 2.652344 8.710938 3.023438 8.121094 3.289062 C 8.0625 3.3125 8 3.34375 7.984375 3.355469 C 7.886719 3.421875 7.820312 3.53125 7.796875 3.652344 C 7.769531 3.8125 7.847656 3.992188 7.988281 4.082031 C 8.007812 4.09375 8.0625 4.125 8.117188 4.148438 C 8.328125 4.242188 8.503906 4.339844 8.679688 4.457031 C 9.4375 4.953125 10 5.730469 10.238281 6.589844 C 10.285156 6.765625 10.300781 6.808594 10.351562 6.871094 C 10.40625 6.933594 10.503906 6.996094 10.59375 7.015625 C 10.746094 7.054688 10.921875 6.996094 11.027344 6.867188 C 11.074219 6.8125 11.101562 6.757812 11.136719 6.628906 C 11.210938 6.351562 11.296875 6.132812 11.421875 5.882812 C 11.648438 5.445312 11.953125 5.058594 12.339844 4.730469 C 12.605469 4.5 12.9375 4.289062 13.261719 4.148438 C 13.304688 4.128906 13.359375 4.105469 13.378906 4.09375 C 13.472656 4.039062 13.542969 3.945312 13.574219 3.832031 C 13.59375 3.773438 13.59375 3.667969 13.578125 3.613281 C 13.5625 3.558594 13.527344 3.492188 13.492188 3.445312 C 13.4375 3.375 13.394531 3.347656 13.199219 3.257812 C 12.457031 2.925781 11.804688 2.300781 11.421875 1.554688 C 11.289062 1.292969 11.195312 1.046875 11.125 0.777344 C 11.097656 0.664062 11.058594 0.589844 10.992188 0.527344 C 10.886719 0.433594 10.742188 0.390625 10.605469 0.417969 M 3.269531 2.117188 C 2.960938 2.667969 2.519531 3.167969 2.011719 3.550781 C 1.949219 3.59375 1.875 3.648438 1.839844 3.671875 C 1.804688 3.695312 1.777344 3.714844 1.773438 3.71875 C 1.773438 3.71875 1.777344 3.722656 1.78125 3.722656 C 1.832031 3.75 2.054688 3.917969 2.171875 4.011719 C 2.609375 4.371094 3.003906 4.84375 3.277344 5.339844 C 3.292969 5.363281 3.308594 5.386719 3.308594 5.386719 C 3.3125 5.386719 3.320312 5.371094 3.328125 5.355469 C 3.339844 5.335938 3.375 5.273438 3.410156 5.21875 C 3.75 4.644531 4.222656 4.144531 4.769531 3.769531 C 4.808594 3.742188 4.839844 3.722656 4.839844 3.71875 C 4.839844 3.714844 4.8125 3.699219 4.78125 3.675781 C 4.414062 3.429688 4.054688 3.09375 3.769531 2.738281 C 3.613281 2.542969 3.445312 2.292969 3.339844 2.101562 C 3.324219 2.074219 3.3125 2.050781 3.308594 2.050781 C 3.308594 2.050781 3.289062 2.082031 3.269531 2.117188 M 10.660156 2.101562 C 10.585938 2.234375 10.457031 2.4375 10.347656 2.582031 C 10.039062 3.007812 9.65625 3.378906 9.21875 3.675781 L 9.15625 3.71875 L 9.230469 3.769531 C 9.773438 4.136719 10.25 4.644531 10.589844 5.214844 C 10.625 5.273438 10.660156 5.335938 10.671875 5.355469 C 10.679688 5.371094 10.6875 5.386719 10.691406 5.386719 C 10.691406 5.386719 10.707031 5.363281 10.722656 5.339844 C 10.847656 5.109375 11.03125 4.84375 11.207031 4.632812 C 11.429688 4.363281 11.6875 4.117188 11.96875 3.902344 C 12.027344 3.855469 12.199219 3.734375 12.21875 3.722656 C 12.222656 3.722656 12.226562 3.71875 12.226562 3.71875 C 12.222656 3.714844 12.195312 3.695312 12.160156 3.671875 C 11.792969 3.425781 11.421875 3.078125 11.132812 2.714844 C 10.992188 2.535156 10.828125 2.289062 10.722656 2.097656 C 10.707031 2.070312 10.691406 2.050781 10.691406 2.050781 C 10.6875 2.050781 10.675781 2.074219 10.660156 2.101562 M 12.984375 5.269531 C 12.871094 5.277344 12.773438 5.324219 12.699219 5.402344 C 12.625 5.484375 12.582031 5.574219 12.578125 5.679688 C 12.578125 5.738281 12.578125 5.753906 12.601562 5.875 C 12.648438 6.121094 12.675781 6.316406 12.699219 6.570312 C 12.710938 6.714844 12.714844 7.226562 12.703125 7.378906 C 12.648438 8.105469 12.476562 8.765625 12.179688 9.40625 C 11.824219 10.179688 11.292969 10.863281 10.632812 11.40625 C 9.863281 12.042969 8.921875 12.46875 7.9375 12.632812 C 7.617188 12.6875 7.347656 12.707031 7.003906 12.707031 C 6.78125 12.707031 6.652344 12.703125 6.476562 12.6875 C 4.894531 12.539062 3.453125 11.746094 2.484375 10.496094 C 1.84375 9.667969 1.4375 8.671875 1.320312 7.628906 C 1.296875 7.394531 1.292969 7.296875 1.292969 6.988281 C 1.292969 6.757812 1.292969 6.671875 1.300781 6.578125 C 1.320312 6.332031 1.347656 6.136719 1.394531 5.894531 C 1.425781 5.738281 1.429688 5.6875 1.414062 5.621094 C 1.378906 5.457031 1.257812 5.328125 1.09375 5.285156 C 1.035156 5.269531 0.933594 5.269531 0.878906 5.28125 C 0.769531 5.3125 0.667969 5.386719 0.609375 5.484375 C 0.578125 5.539062 0.566406 5.570312 0.535156 5.714844 C 0.441406 6.199219 0.398438 6.707031 0.414062 7.175781 C 0.421875 7.398438 0.429688 7.535156 0.449219 7.722656 C 0.648438 9.507812 1.574219 11.144531 3.003906 12.238281 C 3.796875 12.839844 4.707031 13.253906 5.683594 13.453125 C 6.3125 13.582031 6.972656 13.617188 7.621094 13.558594 C 9.429688 13.386719 11.105469 12.464844 12.21875 11.023438 C 13.324219 9.585938 13.792969 7.765625 13.511719 5.972656 C 13.484375 5.800781 13.445312 5.605469 13.425781 5.554688 C 13.386719 5.4375 13.285156 5.339844 13.164062 5.292969 C 13.113281 5.273438 13.039062 5.261719 12.984375 5.269531 M 3.457031 7.796875 C 3.378906 7.800781 3.324219 7.8125 3.25 7.835938 C 2.960938 7.933594 2.753906 8.167969 2.6875 8.472656 C 2.675781 8.523438 2.675781 8.550781 2.675781 8.640625 C 2.675781 8.78125 2.683594 8.832031 2.746094 9 C 3.054688 9.820312 3.59375 10.539062 4.296875 11.058594 C 4.960938 11.550781 5.738281 11.851562 6.554688 11.929688 C 6.839844 11.957031 7.164062 11.957031 7.441406 11.929688 C 8.730469 11.804688 9.902344 11.136719 10.664062 10.09375 C 10.910156 9.757812 11.109375 9.386719 11.253906 9 C 11.316406 8.832031 11.324219 8.78125 11.324219 8.640625 C 11.324219 8.550781 11.324219 8.523438 11.3125 8.472656 C 11.289062 8.359375 11.25 8.261719 11.1875 8.171875 C 11.058594 7.980469 10.867188 7.851562 10.632812 7.804688 L 10.574219 7.792969 L 7.042969 7.792969 C 5.101562 7.792969 3.488281 7.792969 3.457031 7.796875 M 3.566406 8.679688 C 3.574219 8.714844 3.636719 8.867188 3.671875 8.945312 C 3.816406 9.257812 4 9.542969 4.234375 9.816406 C 4.300781 9.894531 4.523438 10.113281 4.597656 10.179688 C 4.84375 10.390625 5.085938 10.550781 5.363281 10.6875 C 6.332031 11.175781 7.460938 11.203125 8.460938 10.769531 C 9.171875 10.464844 9.773438 9.929688 10.164062 9.257812 C 10.257812 9.09375 10.402344 8.792969 10.433594 8.679688 L 10.4375 8.667969 L 3.5625 8.667969 L 3.566406 8.679688" style="stroke:none;fill-rule:evenodd;fill:#000;fill-opacity:1"/>
</svg>
