<svg xmlns="http://www.w3.org/2000/svg" viewBox="0 0 2500 2500" version="1.1">
	<path d="M 1212 73.587 C 1113.430 78.086, 1038.922 88.707, 956 110.079 C 711.669 173.053, 495.203 312.559, 333.907 511 C 206.674 667.533, 119.740 862.337, 87.962 1062.119 C 77.731 1126.444, 73.556 1180.891, 73.556 1250 C 73.556 1319.109, 77.731 1373.556, 87.962 1437.881 C 112.348 1591.190, 169.376 1742.581, 252.810 1875.500 C 352.722 2034.670, 493.166 2170.921, 655 2265.682 C 791.782 2345.773, 944.146 2397.737, 1100 2417.448 C 1151.694 2423.986, 1192.823 2426.451, 1250 2426.439 C 1297.044 2426.430, 1316.767 2425.605, 1358 2421.923 C 1528.523 2406.698, 1696.159 2352.918, 1845 2265.689 C 2017.591 2164.542, 2164.542 2017.591, 2265.689 1845 C 2352.918 1696.159, 2406.698 1528.523, 2421.923 1358 C 2425.617 1316.625, 2426.434 1297.073, 2426.434 1250 C 2426.434 1202.927, 2425.617 1183.375, 2421.923 1142 C 2405.630 959.519, 2345.268 780.748, 2247.190 624.500 C 2147.294 465.356, 2006.807 329.064, 1845 234.318 C 1740.114 172.903, 1623.029 126.843, 1506.010 100.964 C 1446.030 87.699, 1389.815 79.790, 1324.500 75.428 C 1303.931 74.054, 1228.726 72.824, 1212 73.587 M 1204 230.601 C 1200.975 230.796, 1190.625 231.434, 1181 232.017 C 1053.034 239.770, 922.243 274.565, 803.320 332.493 C 701.679 382.002, 615.940 442.790, 534.652 522.976 C 500.150 557.010, 478.204 581.265, 450.280 616.225 C 336.395 758.809, 260.340 938.647, 238.076 1118 C 231.653 1169.742, 230.506 1189.776, 230.517 1250 C 230.529 1310.328, 231.686 1330.522, 238.076 1382 C 258.533 1546.794, 324.887 1713.448, 424.322 1849.775 C 478.170 1923.602, 545.402 1993.495, 618.290 2051.419 C 765.126 2168.111, 948.737 2243.612, 1135 2263.891 C 1177.863 2268.558, 1204.863 2269.990, 1250 2269.990 C 1337.869 2269.990, 1416.154 2260.542, 1497.696 2240.095 C 1658.424 2199.793, 1804.048 2122.655, 1929 2011.631 C 1946.410 1996.162, 1996.162 1946.410, 2011.631 1929 C 2090.261 1840.506, 2149.235 1746.236, 2194.188 1637.182 C 2238.069 1530.726, 2262.967 1419.354, 2269.008 1302.500 C 2270.979 1264.369, 2270.051 1202.391, 2266.965 1166 C 2257.857 1058.592, 2234.112 959.674, 2194.188 862.818 C 2149.326 753.984, 2091.172 660.931, 2012.126 571.500 C 1997.294 554.720, 1945.280 502.706, 1928.500 487.874 C 1839.033 408.797, 1746.059 350.692, 1637.182 305.812 C 1536.862 264.460, 1435.564 240.756, 1321.500 231.942 C 1308.154 230.911, 1215.551 229.854, 1204 230.601 M 870.286 843.099 C 832.540 847.494, 799.232 870.653, 781.753 904.658 C 764.869 937.503, 764.883 976.525, 781.790 1009.415 C 817.399 1078.685, 909.937 1093.058, 965.112 1037.888 C 983.601 1019.401, 995.661 993.385, 997.948 967.057 C 1004.242 894.595, 942.543 834.687, 870.286 843.099 M 1602 843.050 C 1548.887 849.605, 1506.698 893.460, 1502.052 946.943 C 1497.188 1002.938, 1533.121 1053.900, 1587.500 1068.131 C 1639.012 1081.611, 1693.734 1057.029, 1718.210 1009.415 C 1752.915 941.901, 1713.437 859.832, 1638.931 844.604 C 1629.179 842.611, 1611.563 841.870, 1602 843.050 M 799 1538.657 C 793.327 1539.548, 787.130 1541.293, 781 1543.724 C 758.823 1552.519, 739.967 1574.362, 734.346 1597.770 C 732.369 1606.001, 732.144 1624.171, 733.917 1632.500 C 740.117 1661.631, 763.990 1685.954, 792.697 1692.387 C 799.261 1693.858, 839.537 1694, 1250 1694 C 1754.269 1694, 1706.414 1694.762, 1723.500 1686.456 C 1744.086 1676.447, 1759.347 1658.016, 1765.178 1636.118 C 1767.778 1626.353, 1768.009 1607.623, 1765.650 1597.770 C 1759.417 1571.740, 1738.725 1549.989, 1711.500 1540.850 L 1704.500 1538.500 1253 1538.382 C 1004.675 1538.318, 800.375 1538.441, 799 1538.657" stroke="none" fill="#000" fill-rule="evenodd"></path>
</svg>