<svg xmlns="http://www.w3.org/2000/svg" viewBox="0 0 2500 2500" version="1.1">
	<path d="M 576 74.496 C 561.227 77.469, 548.172 84.166, 537.272 94.362 C 525.253 105.605, 518.395 118.239, 513.041 139 C 478.117 274.426, 399.628 397.882, 290.500 489.034 C 248.056 524.487, 195.915 557.590, 147.295 579.951 C 106.757 598.596, 100.543 602.392, 90.700 614.524 C 85.055 621.483, 77.888 635.700, 75.337 645 C 72.587 655.027, 72.867 675.152, 75.894 685 C 79.105 695.447, 85.147 706.676, 91.873 714.695 C 100.293 724.736, 110.725 731.703, 130 740.160 C 208.086 774.420, 275.205 820.239, 335.554 880.479 C 388.348 933.178, 429.051 989.186, 462.021 1054.500 C 485.141 1100.300, 497.638 1133.427, 514.399 1193.339 C 518.910 1209.460, 524.272 1219.890, 532.769 1229.068 C 548.014 1245.534, 568.944 1255, 590.108 1255 C 624.556 1255, 655.582 1232.152, 665.473 1199.500 C 666.806 1195.100, 669.754 1184.750, 672.025 1176.500 C 699.526 1076.571, 750.909 984.070, 823.119 904.500 C 887.499 833.558, 960.044 781.306, 1050.852 740.470 C 1070.602 731.589, 1077.990 727.140, 1085.560 719.570 C 1100.621 704.509, 1110.382 678.993, 1108.539 659.500 C 1106.815 641.255, 1099.513 624.118, 1088.308 612.015 C 1078.735 601.676, 1071.121 596.742, 1050.229 587.339 C 944.220 539.625, 859.848 473.623, 788.377 382.500 C 736.681 316.589, 695.381 235.095, 673.085 155 C 665.136 126.447, 662.519 118.899, 657.834 111.007 C 641.387 83.309, 607.449 68.167, 576 74.496 M 1213.500 74.035 C 1108.242 77.222, 1004.509 94.377, 903.500 125.298 C 878.337 133.002, 872.177 135.447, 864.073 140.950 C 837.289 159.139, 824.468 192.935, 832.436 224.346 C 838.365 247.720, 852.040 264.738, 873.500 275.448 C 884.668 281.022, 891.919 283.013, 903.602 283.712 C 915.774 284.441, 922.017 283.226, 951 274.493 C 1029.793 250.749, 1100.575 237.863, 1185.500 231.801 C 1209.280 230.104, 1289.747 230.091, 1313.500 231.782 C 1398.787 237.850, 1470.039 250.812, 1548.906 274.604 C 1576.550 282.943, 1577.577 283.156, 1590 283.119 C 1619.150 283.033, 1646.202 266.346, 1658.957 240.583 C 1664.964 228.449, 1667.250 218.726, 1667.323 205 C 1667.483 175.142, 1651.336 148.763, 1624.685 135.341 C 1616.921 131.431, 1575.857 118.862, 1544 110.645 C 1437.662 83.216, 1324.441 70.674, 1213.500 74.035 M 1893.897 74.504 C 1885.587 76.160, 1873.785 81.039, 1866.280 85.922 C 1857.007 91.954, 1850.333 98.630, 1844.071 108.137 C 1837.699 117.809, 1835.949 122.588, 1826.920 155 C 1804.607 235.090, 1763.273 316.648, 1711.623 382.500 C 1640.241 473.510, 1555.705 539.658, 1449.948 587.259 C 1439.799 591.827, 1428.808 597.348, 1425.523 599.528 C 1408.404 610.891, 1396.192 630.298, 1392.425 652.123 C 1387.419 681.136, 1401.385 712.567, 1426.673 729.196 C 1429.764 731.229, 1439.990 736.353, 1449.397 740.583 C 1487.230 757.595, 1518.826 774.837, 1550.202 795.594 C 1684.971 884.748, 1785.872 1023.126, 1827.949 1176.500 C 1836.705 1208.417, 1839.728 1215.706, 1848.822 1226.843 C 1858.192 1238.317, 1875.803 1249.107, 1891.500 1252.990 C 1919.162 1259.833, 1950.239 1249.256, 1969.285 1226.516 C 1977.783 1216.370, 1982.132 1206.607, 1988.470 1183.441 C 2001.968 1134.105, 2017.135 1094.900, 2039.902 1050.500 C 2079.794 972.704, 2134.655 903.473, 2203.211 844.417 C 2250.829 803.398, 2310.078 766.252, 2368 741.102 C 2375.975 737.639, 2385.526 733.036, 2389.226 730.873 C 2405.845 721.154, 2418.447 704.382, 2424.222 684.299 C 2427.148 674.121, 2427.357 654.894, 2424.648 645 C 2422.048 635.502, 2415.886 623.337, 2409.619 615.327 C 2399.803 602.782, 2391.849 597.751, 2357 582.043 C 2224.342 522.250, 2108.149 410.659, 2039.898 277.500 C 2016.171 231.209, 1999.168 186.743, 1986.937 139 C 1981.630 118.283, 1974.762 105.620, 1962.728 94.362 C 1944.341 77.162, 1918.283 69.644, 1893.897 74.504 M 583.533 378.250 C 528.444 476.242, 449.608 565.997, 358.997 633.887 C 348.270 641.924, 334.545 651.836, 328.497 655.913 C 322.448 659.989, 317.279 663.511, 317.008 663.738 C 316.738 663.964, 317.217 664.542, 318.073 665.021 C 326.908 669.965, 366.581 699.372, 387.500 716.482 C 465.721 780.461, 536.576 865.182, 585.515 953.250 C 588.189 958.063, 590.630 961.999, 590.939 961.998 C 591.247 961.996, 592.848 959.415, 594.496 956.262 C 596.144 953.108, 602.577 942.030, 608.791 931.643 C 669.924 829.462, 754.043 739.967, 851.770 673.136 C 858.496 668.536, 864 664.455, 864 664.068 C 864 663.680, 859.492 660.314, 853.981 656.586 C 788.396 612.219, 724.068 552.637, 673.372 489.302 C 645.294 454.223, 615.352 409.787, 596.500 375.217 C 593.750 370.174, 591.257 366.037, 590.960 366.024 C 590.663 366.011, 587.321 371.512, 583.533 378.250 M 1903.500 375.217 C 1890.377 399.282, 1867.214 435.288, 1848.122 461.302 C 1792.736 536.769, 1724.120 603.090, 1646.215 656.460 L 1634.931 664.190 1648.215 673.216 C 1744.931 738.927, 1830.194 829.586, 1891.139 931.514 C 1897.392 941.972, 1903.856 953.108, 1905.504 956.262 C 1907.152 959.415, 1908.753 961.996, 1909.061 961.998 C 1909.370 961.999, 1911.811 958.062, 1914.485 953.250 C 1937.202 912.370, 1969.966 864.716, 2000.944 827.500 C 2041.281 779.040, 2086.758 735.448, 2137.118 696.972 C 2147.872 688.757, 2178.356 667.020, 2181.927 665.021 C 2182.783 664.542, 2183.262 663.964, 2182.992 663.738 C 2182.721 663.511, 2177.552 659.989, 2171.503 655.913 C 2105.805 611.627, 2039.543 549.778, 1987.860 484.500 C 1962.626 452.627, 1933.265 408.723, 1914.465 374.750 C 1911.802 369.938, 1909.370 366.011, 1909.061 366.024 C 1908.753 366.037, 1906.250 370.174, 1903.500 375.217 M 2318.500 940.684 C 2298.695 942.411, 2280.951 950.889, 2267.666 964.971 C 2254.162 979.286, 2247.140 995.569, 2246.306 1014.500 C 2245.863 1024.566, 2246.209 1027.498, 2250.380 1049.033 C 2258.861 1092.819, 2263.805 1128.245, 2267.680 1173 C 2269.924 1198.919, 2270.254 1290.335, 2268.202 1318 C 2258.630 1447.101, 2228.168 1565.396, 2174.986 1680 C 2111.183 1817.488, 2016.443 1939.876, 1898.500 2037.169 C 1761.351 2150.306, 1593.157 2226.797, 1417.500 2255.916 C 1359.997 2265.449, 1312.144 2269.288, 1250.500 2269.316 C 1211.065 2269.333, 1187.904 2268.378, 1156.500 2265.440 C 874.089 2239.019, 616.861 2097.833, 443.330 1874 C 328.901 1726.400, 256.959 1548.830, 236.098 1362.500 C 231.386 1320.412, 230.540 1302.962, 230.549 1248 C 230.556 1206.611, 230.927 1191.161, 232.303 1175 C 236.101 1130.392, 240.843 1095.769, 249.067 1052.618 C 254.410 1024.583, 255.050 1015.617, 252.548 1003.814 C 246.373 974.675, 224.418 951.600, 195.500 943.856 C 185.124 941.077, 166.643 940.865, 157 943.414 C 137.265 948.630, 119.099 962.089, 108.761 979.155 C 102.925 988.788, 101.080 994.745, 95.890 1020.707 C 78.689 1106.769, 71.005 1197.480, 73.817 1281.307 C 75.164 1321.475, 76.801 1345.430, 80.496 1379.047 C 115.569 1698.083, 280.953 1990.425, 536.500 2185.101 C 678.075 2292.952, 840.671 2366.834, 1014.997 2402.524 C 1127.002 2425.455, 1245.222 2431.754, 1360.930 2420.955 C 1684.160 2390.787, 1983.344 2225.839, 2181.596 1968.499 C 2379.599 1711.483, 2462.803 1386.408, 2412.464 1066.500 C 2407.642 1035.851, 2400.637 1000.633, 2397.663 992.080 C 2390.404 971.209, 2372.691 953.424, 2351 945.231 C 2341.569 941.669, 2328.378 939.823, 2318.500 940.684 M 617 1392.051 C 603.550 1393.028, 593.699 1395.014, 580.654 1399.379 C 528.900 1416.697, 491.559 1458.792, 479.864 1513 C 477.961 1521.823, 477.591 1526.614, 477.553 1543 C 477.494 1567.963, 479.378 1577.307, 490.461 1607 C 545.227 1753.725, 641.787 1882.099, 767 1974.652 C 886.197 2062.758, 1024.700 2116.228, 1170.500 2130.425 C 1221.194 2135.361, 1278.956 2135.376, 1329 2130.466 C 1558.849 2107.916, 1768.165 1988.505, 1904.252 1802.297 C 1947.984 1742.459, 1983.719 1676.174, 2009.539 1607 C 2020.622 1577.307, 2022.506 1567.963, 2022.447 1543 C 2022.409 1526.614, 2022.039 1521.823, 2020.136 1513 C 2015.742 1492.633, 2008.607 1475.584, 1997.554 1459.043 C 1974.834 1425.039, 1940.544 1402.409, 1898.511 1393.678 L 1888.500 1391.598 1258 1391.444 C 911.225 1391.359, 622.775 1391.632, 617 1392.051 M 636.540 1550.250 C 638.234 1555.894, 649.522 1583.252, 655.892 1597.150 C 681.653 1653.357, 714.431 1704.201, 756.366 1753 C 768.088 1766.640, 807.546 1806.080, 821 1817.604 C 864.895 1855.202, 907.988 1883.978, 957.500 1908.752 C 1130.741 1995.437, 1332.599 2000.807, 1511 1923.477 C 1637.539 1868.627, 1744.939 1773.226, 1814.931 1653.500 C 1832.043 1624.229, 1857.297 1570.489, 1863.451 1550.250 L 1864.135 1548 1250 1548 L 635.865 1548 636.540 1550.250" stroke="none" fill="#000" fill-rule="evenodd"></path>
</svg>