<?xml version="1.0" encoding="UTF-8"?>
<svg xmlns="http://www.w3.org/2000/svg" xmlns:xlink="http://www.w3.org/1999/xlink" width="14px" height="14px" viewBox="0 0 14 14" version="1.1">
<g id="surface1">
<path style=" stroke:none;fill-rule:evenodd;fill:rgb(0%,0%,0%);fill-opacity:1;" d="M 6.789062 0.410156 C 6.234375 0.4375 5.816406 0.496094 5.355469 0.617188 C 3.984375 0.96875 2.773438 1.75 1.871094 2.863281 C 1.15625 3.738281 0.671875 4.828125 0.492188 5.949219 C 0.433594 6.308594 0.410156 6.613281 0.410156 7 C 0.410156 7.386719 0.433594 7.691406 0.492188 8.050781 C 0.628906 8.910156 0.949219 9.757812 1.414062 10.503906 C 1.976562 11.394531 2.761719 12.15625 3.667969 12.6875 C 4.433594 13.136719 5.289062 13.425781 6.160156 13.539062 C 6.449219 13.574219 6.679688 13.589844 7 13.589844 C 7.261719 13.589844 7.375 13.582031 7.605469 13.5625 C 8.558594 13.476562 9.5 13.175781 10.332031 12.6875 C 11.296875 12.121094 12.121094 11.296875 12.6875 10.332031 C 13.175781 9.5 13.476562 8.558594 13.5625 7.605469 C 13.582031 7.375 13.589844 7.261719 13.589844 7 C 13.589844 6.738281 13.582031 6.625 13.5625 6.394531 C 13.472656 5.375 13.132812 4.371094 12.585938 3.496094 C 12.023438 2.605469 11.238281 1.84375 10.332031 1.3125 C 9.746094 0.96875 9.089844 0.710938 8.433594 0.566406 C 8.097656 0.492188 7.78125 0.445312 7.417969 0.421875 C 7.300781 0.414062 6.882812 0.40625 6.789062 0.410156 M 6.742188 1.292969 C 6.726562 1.292969 6.667969 1.296875 6.613281 1.300781 C 5.898438 1.34375 5.164062 1.539062 4.5 1.863281 C 3.929688 2.140625 3.449219 2.480469 2.992188 2.929688 C 2.800781 3.121094 2.679688 3.253906 2.523438 3.449219 C 1.882812 4.25 1.457031 5.257812 1.332031 6.261719 C 1.296875 6.550781 1.289062 6.664062 1.289062 7 C 1.289062 7.335938 1.296875 7.449219 1.332031 7.738281 C 1.449219 8.660156 1.820312 9.59375 2.375 10.359375 C 2.679688 10.773438 3.054688 11.164062 3.460938 11.488281 C 4.285156 12.140625 5.3125 12.5625 6.355469 12.679688 C 6.597656 12.703125 6.746094 12.710938 7 12.710938 C 7.492188 12.710938 7.929688 12.660156 8.386719 12.542969 C 9.289062 12.320312 10.101562 11.886719 10.800781 11.265625 C 10.898438 11.179688 11.179688 10.898438 11.265625 10.800781 C 11.707031 10.308594 12.035156 9.777344 12.289062 9.167969 C 12.53125 8.570312 12.671875 7.949219 12.707031 7.292969 C 12.71875 7.082031 12.710938 6.734375 12.695312 6.53125 C 12.644531 5.929688 12.511719 5.375 12.289062 4.832031 C 12.035156 4.222656 11.710938 3.703125 11.269531 3.199219 C 11.183594 3.105469 10.894531 2.816406 10.800781 2.730469 C 10.296875 2.289062 9.777344 1.964844 9.167969 1.710938 C 8.605469 1.480469 8.039062 1.347656 7.402344 1.300781 C 7.324219 1.292969 6.808594 1.289062 6.742188 1.292969 M 4.875 4.722656 C 4.664062 4.746094 4.476562 4.875 4.378906 5.066406 C 4.285156 5.25 4.285156 5.46875 4.378906 5.652344 C 4.578125 6.039062 5.09375 6.121094 5.40625 5.8125 C 5.507812 5.707031 5.574219 5.5625 5.589844 5.414062 C 5.625 5.007812 5.277344 4.675781 4.875 4.722656 M 8.972656 4.722656 C 8.671875 4.757812 8.4375 5.003906 8.410156 5.304688 C 8.382812 5.617188 8.585938 5.902344 8.890625 5.980469 C 9.179688 6.058594 9.484375 5.917969 9.621094 5.652344 C 9.816406 5.273438 9.59375 4.816406 9.179688 4.730469 C 9.125 4.71875 9.023438 4.714844 8.972656 4.722656 M 6.824219 7.792969 C 6.003906 7.835938 5.261719 8.089844 4.601562 8.558594 C 4.40625 8.695312 4.257812 8.820312 4.082031 9 C 3.785156 9.292969 3.570312 9.585938 3.367188 9.953125 C 3.265625 10.136719 3.25 10.1875 3.253906 10.296875 C 3.257812 10.355469 3.261719 10.375 3.273438 10.417969 C 3.320312 10.554688 3.417969 10.648438 3.554688 10.699219 C 3.652344 10.730469 3.773438 10.722656 3.871094 10.679688 C 3.953125 10.640625 4.027344 10.574219 4.070312 10.496094 C 4.082031 10.472656 4.113281 10.417969 4.136719 10.375 C 4.476562 9.742188 5.023438 9.238281 5.679688 8.945312 C 5.996094 8.804688 6.3125 8.722656 6.675781 8.683594 C 6.785156 8.671875 7.085938 8.664062 7.210938 8.671875 C 7.992188 8.726562 8.714844 9.046875 9.265625 9.589844 C 9.535156 9.851562 9.730469 10.113281 9.898438 10.445312 C 9.960938 10.5625 10.011719 10.621094 10.101562 10.667969 C 10.167969 10.703125 10.214844 10.714844 10.289062 10.71875 C 10.371094 10.71875 10.425781 10.707031 10.503906 10.671875 C 10.59375 10.625 10.65625 10.566406 10.699219 10.476562 C 10.734375 10.402344 10.742188 10.363281 10.742188 10.28125 C 10.742188 10.1875 10.734375 10.160156 10.675781 10.039062 C 10.558594 9.804688 10.394531 9.550781 10.214844 9.332031 C 9.519531 8.464844 8.496094 7.914062 7.390625 7.808594 C 7.210938 7.792969 6.976562 7.785156 6.824219 7.792969 "/>
</g>
</svg>
