<svg xmlns="http://www.w3.org/2000/svg" viewBox="0 0 2500 2500" version="1.1">
	<path d="M 1212 73.587 C 1113.430 78.086, 1038.922 88.707, 956 110.079 C 711.669 173.053, 495.203 312.559, 333.907 511 C 206.674 667.533, 119.740 862.337, 87.962 1062.119 C 77.731 1126.444, 73.556 1180.891, 73.556 1250 C 73.556 1319.109, 77.731 1373.556, 87.962 1437.881 C 112.348 1591.190, 169.376 1742.581, 252.810 1875.500 C 352.722 2034.670, 493.166 2170.921, 655 2265.682 C 791.782 2345.773, 944.146 2397.737, 1100 2417.448 C 1151.694 2423.986, 1192.823 2426.451, 1250 2426.439 C 1297.044 2426.430, 1316.767 2425.605, 1358 2421.923 C 1528.523 2406.698, 1696.159 2352.918, 1845 2265.689 C 2017.591 2164.542, 2164.542 2017.591, 2265.689 1845 C 2352.918 1696.159, 2406.698 1528.523, 2421.923 1358 C 2425.617 1316.625, 2426.434 1297.073, 2426.434 1250 C 2426.434 1202.927, 2425.617 1183.375, 2421.923 1142 C 2405.630 959.519, 2345.268 780.748, 2247.190 624.500 C 2147.294 465.356, 2006.807 329.064, 1845 234.318 C 1740.114 172.903, 1623.029 126.843, 1506.010 100.964 C 1446.030 87.699, 1389.815 79.790, 1324.500 75.428 C 1303.931 74.054, 1228.726 72.824, 1212 73.587 M 1204 230.601 C 1200.975 230.796, 1190.625 231.434, 1181 232.017 C 1053.034 239.770, 922.243 274.565, 803.320 332.493 C 701.679 382.002, 615.940 442.790, 534.652 522.976 C 500.150 557.010, 478.204 581.265, 450.280 616.225 C 336.395 758.809, 260.340 938.647, 238.076 1118 C 231.653 1169.742, 230.506 1189.776, 230.517 1250 C 230.529 1310.328, 231.686 1330.522, 238.076 1382 C 258.533 1546.794, 324.887 1713.448, 424.322 1849.775 C 478.170 1923.602, 545.402 1993.495, 618.290 2051.419 C 765.126 2168.111, 948.737 2243.612, 1135 2263.891 C 1177.863 2268.558, 1204.863 2269.990, 1250 2269.990 C 1337.869 2269.990, 1416.154 2260.542, 1497.696 2240.095 C 1658.424 2199.793, 1804.048 2122.655, 1929 2011.631 C 1946.410 1996.162, 1996.162 1946.410, 2011.631 1929 C 2090.261 1840.506, 2149.235 1746.236, 2194.188 1637.182 C 2238.069 1530.726, 2262.967 1419.354, 2269.008 1302.500 C 2270.979 1264.369, 2270.051 1202.391, 2266.965 1166 C 2257.857 1058.592, 2234.112 959.674, 2194.188 862.818 C 2149.326 753.984, 2091.172 660.931, 2012.126 571.500 C 1997.294 554.720, 1945.280 502.706, 1928.500 487.874 C 1839.033 408.797, 1746.059 350.692, 1637.182 305.812 C 1536.862 264.460, 1435.564 240.756, 1321.500 231.942 C 1308.154 230.911, 1215.551 229.854, 1204 230.601 M 870.286 843.099 C 832.540 847.494, 799.232 870.653, 781.753 904.658 C 764.869 937.503, 764.883 976.525, 781.790 1009.415 C 817.399 1078.685, 909.937 1093.058, 965.112 1037.888 C 983.601 1019.401, 995.661 993.385, 997.948 967.057 C 1004.242 894.595, 942.543 834.687, 870.286 843.099 M 1602 843.050 C 1548.887 849.605, 1506.698 893.460, 1502.052 946.943 C 1497.188 1002.938, 1533.121 1053.900, 1587.500 1068.131 C 1639.012 1081.611, 1693.734 1057.029, 1718.210 1009.415 C 1752.915 941.901, 1713.437 859.832, 1638.931 844.604 C 1629.179 842.611, 1611.563 841.870, 1602 843.050 M 651.404 1465.134 C 623.212 1467.654, 597.953 1486.344, 586.919 1512.849 C 582.712 1522.955, 581.038 1531.675, 581.017 1543.590 C 580.988 1560.581, 584.057 1569.534, 600.131 1599.359 C 715.729 1813.840, 928.272 1956.968, 1170.500 1983.449 C 1257.231 1992.931, 1347.665 1986.515, 1431.938 1964.901 C 1607.473 1919.881, 1758.874 1813.515, 1860.240 1664 C 1885.776 1626.334, 1912.374 1578.301, 1916.722 1562 C 1919.111 1553.045, 1919.082 1532.918, 1916.668 1524 C 1913.767 1513.283, 1905.796 1498.318, 1898.972 1490.776 C 1892.662 1483.803, 1880.160 1474.830, 1871.515 1471.072 C 1862.012 1466.940, 1852.253 1465, 1840.972 1465 C 1827.685 1465, 1817.806 1467.347, 1805.500 1473.427 C 1787.601 1482.271, 1779.515 1491.212, 1765.766 1517.364 C 1741.147 1564.191, 1716.219 1600.140, 1681.418 1639 C 1587.757 1743.585, 1457.643 1810.761, 1316.500 1827.401 C 1272.522 1832.586, 1214.916 1832.011, 1171 1825.949 C 1045.702 1808.651, 928.134 1750.323, 839.500 1661.485 C 797.189 1619.076, 764.665 1575.108, 736.692 1522.500 C 724.183 1498.976, 721.287 1494.600, 712.900 1486.556 C 696.513 1470.837, 674.273 1463.090, 651.404 1465.134" stroke="none" fill="#000" fill-rule="evenodd"></path>
</svg>