<svg xmlns="http://www.w3.org/2000/svg" id="Reward-Stars-3--Streamline-Ultimate" width="16" height="16" version="1.1" viewBox="0 0 16 16">
    <desc>
        Reward Stars 3 Streamline Icon: https://streamlinehq.com
    </desc>
    <path fill="#000" fill-rule="evenodd" stroke="none" d="M11.814784 0.864912C11.71464 0.90344 11.612288000000001 0.989136 11.561056 1.077344C11.539776 1.114 11.497088 1.234 11.466224 1.344C11.17608 2.37768 10.833632 2.877632 10.139263999999999 3.281248C9.943584000000001 3.3949920000000002 9.589343999999999 3.553104 9.304 3.654064C8.930656 3.7861439999999997 8.84808 3.843136 8.763904 4.02672C8.709792 4.14472 8.714912 4.313968 8.776335999999999 4.43768C8.842464 4.570912000000001 8.933280000000002 4.642224000000001 9.127536000000001 4.713536C9.663632 4.910336 10.048064 5.086416000000001 10.296 5.248736C10.875664 5.62824 11.181136 6.104672 11.457024 7.059520000000001C11.493120000000001 7.184496 11.533280000000001 7.307264 11.54624 7.332336000000001C11.586672 7.410528 11.682576 7.504704 11.766992 7.549088C11.837216 7.586032 11.867168 7.591728 11.992 7.591856C12.121856 7.591984000000001 12.144416 7.587344 12.221680000000001 7.544544C12.325023999999999 7.487312 12.418384 7.385264 12.452416 7.292384C12.466192 7.254768 12.507024 7.1232 12.543152000000001 7C12.663008 6.591264000000001 12.824432000000002 6.198384 12.963664000000001 5.976512C13.299296 5.441680000000001 13.808031999999999 5.0927039999999995 14.745424000000002 4.754304C14.84144 4.719632 14.945648 4.6802079999999995 14.977008 4.666671999999999C15.061487999999999 4.630208 15.16552 4.521024000000001 15.213456 4.41848C15.297168 4.23944 15.255376 4.008448 15.113664000000002 3.86672C15.0416 3.7946720000000003 14.979632 3.762496 14.775440000000001 3.691136C14.334064000000001 3.536864 13.921952 3.343472 13.656 3.165824C13.456736000000001 3.03272 13.168784 2.75904 13.052256 2.592C12.834719999999999 2.280192 12.650448 1.84288 12.496048000000002 1.272C12.435968 1.049888 12.314032 0.907984 12.13848 0.85584C12.030544 0.8237920000000001 11.913120000000001 0.8270879999999999 11.814784 0.864912M11.906799999999999 2.924224C11.624495999999999 3.4119360000000003 11.238959999999999 3.791584 10.692064 4.120432L10.528144000000001 4.218992 10.692064 4.315632C11.218656000000001 4.626032 11.596544 4.994656 11.893888 5.488C11.944272000000002 5.5716 11.989392 5.6385760000000005 11.994144 5.636816C11.998896 5.635072 12.040576 5.56968 12.086768000000001 5.49152C12.374352000000002 5.004832 12.776768 4.613568 13.308992 4.303136L13.45504 4.217952 13.31112 4.133792000000001C12.777664000000001 3.821872 12.414096 3.469952 12.09456 2.956224L11.987712 2.784448 11.906799999999999 2.924224M5.848 3.461312C5.758112000000001 3.490944 5.718512 3.514208 5.645344000000001 3.5803040000000004C5.5546560000000005 3.662224 5.519216 3.743776 5.424624 4.088C5.138928 5.127664 4.782272 5.931536 4.353712000000001 6.501728C3.818128 7.214288 3.083424 7.737552 1.950592 8.213216000000001C1.733264 8.30448 1.444992 8.414192 0.992 8.578064000000001C0.7610560000000001 8.6616 0.66984 8.7448 0.607616 8.928672C0.5317759999999999 9.152768 0.634496 9.408352 0.844736 9.51864C0.8649439999999999 9.529247999999999 1.037744 9.594192 1.228736 9.662976C1.809232 9.872031999999999 2.096352 9.992688000000001 2.5359520000000004 10.212272C4.1195200000000005 11.003344 4.860816 12.002176 5.442016 14.128C5.542032 14.493824 5.5981440000000005 14.580976000000001 5.790352 14.668976C5.897088 14.717824 6.066479999999999 14.722656 6.168 14.679727999999999C6.25408 14.643328 6.361408000000001 14.553808000000002 6.408624 14.479008C6.429888 14.445343999999999 6.487439999999999 14.275184 6.536544 14.100896C7.021456000000001 12.379520000000001 7.548768 11.492656000000002 8.521696 10.762144000000001C9.055264 10.36152 9.998992000000001 9.902864 10.896 9.608208000000001C11.082304 9.547024 11.173808000000001 9.498528 11.248736000000001 9.421327999999999C11.461312 9.202288000000001 11.426512 8.844576 11.175504000000002 8.668192C11.140576 8.643664000000001 10.9824 8.577584000000002 10.824 8.521376C8.408224 7.664048 7.451328 6.787872 6.768496 4.808C6.7229600000000005 4.676 6.63168 4.380800000000001 6.565648 4.152C6.499600000000001 3.9232 6.432176 3.7144000000000004 6.415792000000001 3.688C6.3668320000000005 3.6090720000000003 6.269056 3.5238080000000003 6.184976 3.4867040000000005C6.088864 3.4442880000000002 5.934832 3.432672 5.848 3.461312M5.970224 5.632C5.843184 5.930032000000001 5.740336 6.153055999999999 5.660352 6.304C5.1274880000000005 7.3095040000000004 4.444656 8.012896 3.424 8.607648C3.2281120000000003 8.721791999999999 2.750352 8.964816 2.576 9.038992L2.488 9.076432 2.544 9.101472C4.149248 9.818896 5.086272 10.674656 5.744064000000001 12.024000000000001C5.82128 12.1824 5.905056 12.364111999999999 5.930224 12.427808C5.955408 12.491488 5.980912 12.543696 5.986928 12.543808C5.992928 12.543904000000001 6.002944 12.527792 6.009168 12.508000000000001C6.042032 12.403552 6.26552 11.931168 6.3744 11.736C6.894432 10.803888 7.522016 10.163248 8.478544 9.588064000000001C8.683152 9.465024 9.166080000000001 9.216239999999999 9.424 9.101008L9.48 9.076 9.36 9.022816C9.102304 8.908592 8.700272000000002 8.699552 8.456 8.552752C7.564208 8.016832 6.945792000000001 7.398848 6.441520000000001 6.539696C6.335824 6.3596319999999995 6.104 5.888096 6.034576 5.712C5.99 5.598912 5.986288 5.594304 5.970224 5.632M12.834352 10.144736000000002C12.738592 10.164208 12.639392 10.2256 12.5624 10.313072C12.49224 10.392768 12.483216 10.414048000000001 12.38432 10.733216C12.148672000000001 11.493664 11.866272 11.79824 11.10816 12.109568C11.004672000000001 12.15208 10.8624 12.206031999999999 10.792 12.229504C10.614176 12.288752 10.518448000000001 12.364863999999999 10.448 12.503024C10.399104 12.598896000000002 10.39208 12.627376 10.392624 12.727360000000001C10.393136 12.82 10.401968 12.859696 10.43888 12.935152C10.523264 13.107632 10.591984 13.153488 10.968 13.28824C11.218512 13.378 11.589616 13.568816000000002 11.752 13.691343999999999C12.032 13.902624 12.2144 14.194144 12.368208000000001 14.67616C12.496576 15.078432000000001 12.493727999999999 15.072111999999999 12.590959999999999 15.169440000000002C12.703776 15.282368 12.799280000000001 15.318064000000001 12.965216 15.309344C13.1004 15.30224 13.20616 15.256976000000002 13.290752000000001 15.170016C13.36848 15.090112 13.380672 15.062912 13.494816 14.714448C13.66808 14.185472 13.820496 13.936064 14.120000000000001 13.691456C14.273536 13.566064 14.619104 13.393376 14.976 13.26368C15.233600000000001 13.17008 15.316688000000001 13.121376 15.39088 13.020496C15.54984 12.804336 15.503632 12.491392 15.288528000000001 12.327312000000001C15.256816 12.303136 15.126576 12.244848000000001 14.999088 12.197792C14.518592000000002 12.020448 14.220272000000001 11.858816000000001 14.009248 11.661472C13.755872 11.424512 13.612608 11.146624 13.433168 10.544C13.378704 10.361120000000001 13.30512 10.265008 13.167392 10.1968C13.053616 10.140464 12.941584 10.122944 12.834352 10.144736000000002M12.836176 12.084864C12.707647999999999 12.2584 12.445568 12.510288000000001 12.268544 12.6304L12.129408 12.724816 12.260704 12.81672C12.500736000000002 12.984736000000002 12.703312 13.181056 12.854896 13.392576C12.889360000000002 13.440656 12.922208000000001 13.485552 12.927904 13.49232C12.933584000000002 13.499103999999999 12.98584 13.440912 13.044016 13.363008C13.175472 13.18696 13.428495999999999 12.944544 13.608176 12.82248C13.683088 12.771600000000001 13.738896 12.725296 13.732192 12.7196C13.725488 12.713888 13.657328 12.664575999999999 13.58072 12.610032C13.399488 12.480992 13.214112 12.305584000000001 13.086352000000002 12.142256C13.030064000000001 12.070288000000001 12.973168 11.997648 12.959936 11.980832000000001C12.937168 11.951872 12.930592 11.957392 12.836176 12.084864"/>
</svg>
