<svg xmlns="http://www.w3.org/2000/svg" fill="none" viewBox="0 0 16 16">
    <path fill-rule="evenodd" d="M11.7733 0.76204C11.8014 0.655113 11.864 0.560487 11.9515 0.492955C12.039 0.425423 12.1465 0.388794 12.257 0.388794C12.3675 0.388794 12.475 0.425423 12.5625 0.492955C12.65 0.560487 12.7127 0.655113 12.7407 0.76204C12.9607 1.60337 13.2027 2.12004 13.564 2.50204C13.928 2.88671 14.46 3.18671 15.3673 3.49137C15.4666 3.52471 15.553 3.58841 15.6141 3.67345C15.6753 3.7585 15.7082 3.86062 15.7082 3.96537C15.7082 4.07013 15.6753 4.17224 15.6141 4.25729C15.553 4.34234 15.4666 4.40603 15.3673 4.43937C14.4607 4.74404 13.9273 5.04404 13.564 5.42871C13.2027 5.81137 12.9613 6.32737 12.7407 7.16871C12.7124 7.27534 12.6497 7.36965 12.5623 7.43693C12.4749 7.50421 12.3677 7.54069 12.2573 7.54069C12.147 7.54069 12.0398 7.50421 11.9524 7.43693C11.865 7.36965 11.8022 7.27534 11.774 7.16871C11.5533 6.32737 11.3113 5.81137 10.95 5.42871C10.5867 5.04404 10.054 4.74404 9.14667 4.43937C9.04736 4.40603 8.96103 4.34234 8.89987 4.25729C8.83871 4.17224 8.80581 4.07013 8.80581 3.96537C8.80581 3.86062 8.83871 3.7585 8.89987 3.67345C8.96103 3.58841 9.04736 3.52471 9.14667 3.49137C10.054 3.18671 10.5867 2.88671 10.95 2.50271C11.3113 2.12004 11.5533 1.60271 11.7733 0.762707V0.76204ZM5.36801 3.54804C5.39603 3.44111 5.45869 3.34649 5.5462 3.27895C5.63371 3.21142 5.74114 3.17479 5.85167 3.17479C5.96221 3.17479 6.06963 3.21142 6.15714 3.27895C6.24465 3.34649 6.30732 3.44111 6.33534 3.54804C6.73201 5.07004 7.18201 6.06404 7.88867 6.81471C8.59667 7.56737 9.61134 8.12604 11.2427 8.67604C11.342 8.70938 11.4283 8.77307 11.4895 8.85812C11.5506 8.94317 11.5835 9.04528 11.5835 9.15004C11.5835 9.2548 11.5506 9.35691 11.4895 9.44196C11.4283 9.52701 11.342 9.5907 11.2427 9.62404C9.61134 10.1734 8.59667 10.7327 7.88867 11.4854C7.18201 12.236 6.73201 13.23 6.33534 14.752C6.30732 14.859 6.24465 14.9536 6.15714 15.0211C6.06963 15.0887 5.96221 15.1253 5.85167 15.1253C5.74114 15.1253 5.63371 15.0887 5.5462 15.0211C5.45869 14.9536 5.39603 14.859 5.36801 14.752C4.97067 13.23 4.52134 12.236 3.81467 11.4854C3.10601 10.7327 2.09201 10.1734 0.460005 9.62404C0.360696 9.5907 0.274366 9.52701 0.213205 9.44196C0.152044 9.35691 0.119141 9.2548 0.119141 9.15004C0.119141 9.04528 0.152044 8.94317 0.213205 8.85812C0.274366 8.77307 0.360696 8.70938 0.460005 8.67604C2.09201 8.12604 3.10667 7.56737 3.81467 6.81471C4.52134 6.06404 4.97067 5.07004 5.36801 3.54804ZM13.268 10.3127C13.1579 10.3126 13.0508 10.3489 12.9634 10.4159C12.876 10.483 12.8132 10.577 12.7847 10.6834C12.6247 11.2834 12.4533 11.6307 12.2093 11.8834C11.9627 12.1394 11.592 12.3487 10.9273 12.5674C10.8273 12.6003 10.7402 12.6639 10.6785 12.7492C10.6167 12.8345 10.5835 12.9371 10.5835 13.0424C10.5835 13.1477 10.6167 13.2503 10.6785 13.3356C10.7402 13.4209 10.8273 13.4845 10.9273 13.5174C11.592 13.7354 11.9627 13.9447 12.2093 14.2007C12.4533 14.454 12.6247 14.8007 12.7847 15.4007C12.8129 15.5073 12.8756 15.6016 12.9631 15.6689C13.0505 15.7362 13.1577 15.7727 13.268 15.7727C13.3783 15.7727 13.4855 15.7362 13.573 15.6689C13.6604 15.6016 13.7231 15.5073 13.7513 15.4007C13.9113 14.8007 14.082 14.454 14.326 14.2007C14.5727 13.9447 14.9433 13.7354 15.608 13.5174C15.708 13.4845 15.7951 13.4209 15.8569 13.3356C15.9186 13.2503 15.9519 13.1477 15.9519 13.0424C15.9519 12.9371 15.9186 12.8345 15.8569 12.7492C15.7951 12.6639 15.708 12.6003 15.608 12.5674C14.9433 12.3487 14.5727 12.1394 14.326 11.8834C14.082 11.6307 13.9113 11.2834 13.7507 10.6834C13.7222 10.5771 13.6595 10.4832 13.5722 10.4162C13.485 10.3491 13.378 10.3128 13.268 10.3127Z" clip-rule="evenodd"/>
</svg>
