<svg width="48" height="49" viewBox="0 0 48 49" fill="none" xmlns="http://www.w3.org/2000/svg">
<g clip-path="url(#clip0_1023_26097)">
<path d="M24 0.572754C37.2548 0.572776 48 11.318 48 24.5728C48 37.8276 37.2548 48.5727 24 48.5728C10.7452 48.5728 2.16242e-05 37.8276 0 24.5728C0 11.318 10.7452 0.572754 24 0.572754ZM34.4385 33.0601C23.7718 26.6371 11.6421 30.2506 11.126 30.394C10.2947 30.6522 9.80743 31.5411 10.0654 32.3726C10.3236 33.2038 11.2125 33.6911 12.0439 33.4331C12.1639 33.3742 23.3719 30.1087 32.832 35.7847C33.0899 35.9279 33.3483 36.0141 33.6348 36.0142C34.1796 36.0142 34.6966 35.7265 34.9834 35.2104C35.413 34.465 35.1837 33.5188 34.4385 33.0601ZM37.2773 26.0347C23.944 18.3787 10.7821 22.7373 10.2373 22.938C9.26255 23.2822 8.7468 24.3431 9.09082 25.3179C9.43485 26.2928 10.4958 26.8094 11.4707 26.4653C11.5894 26.4067 23.5726 22.452 35.4414 29.2749C35.7282 29.447 36.044 29.5327 36.3594 29.5327C37.0189 29.5327 37.6495 29.1886 37.9648 28.5864C38.4808 27.6976 38.166 26.5508 37.2773 26.0347ZM40.373 17.8921C25.0058 9.83589 9.63846 14.5361 8.97559 14.7378C7.77126 15.1106 7.11161 16.4017 7.48438 17.606C7.85722 18.81 9.14751 19.4697 10.3516 19.0972C10.495 19.0398 24.5737 14.7382 38.251 21.9351C38.5951 22.1071 38.9398 22.1938 39.3125 22.1938C40.144 22.1938 40.9472 21.7342 41.3486 20.9888C41.9217 19.8705 41.4911 18.4942 40.373 17.8921Z" fill="white"/>
</g>
<defs>
<clipPath id="clip0_1023_26097">
<rect width="48" height="48" fill="white" transform="translate(0 0.572754)"/>
</clipPath>
</defs>
</svg>
