<svg xmlns="http://www.w3.org/2000/svg" width="24" height="24" viewBox="0 0 24 24">
    <path fill="#000" fill-rule="evenodd" stroke="none" d="M1.8346079999999998 0.03468C0.9584400000000001 0.17135999999999998 0.32939999999999997 0.75636 0.078096 1.6682160000000001L0.012 1.9080000000000001 0.005184 11.916C0.000312 19.061544 0.00588 21.982344 0.024624 22.128C0.145104 23.063544 0.813552 23.750976 1.797792 23.951544000000002C2.037264 24.00036 2.05764 24.000432 12.112872 23.993808C21.620088 23.98752 22.196784 23.984784 22.344 23.94516C23.175192000000003 23.721408 23.710632 23.166096 23.928384 22.302024C23.95416 22.199712 23.975424 22.085664 23.975640000000002 22.048584C23.975832 22.009728 23.986176 21.987456 24.000048 21.996024C24.016128000000002 22.005959999999998 24.021792 18.687863999999998 24.01716 12.00744C24.010512 2.45892 24.008208 1.994184 23.966664 1.788C23.878608 1.350912 23.712072000000003 1.0196880000000001 23.427984000000002 0.716712C23.1414 0.411096 22.792416 0.20858400000000002 22.328688 0.078768L22.092 0.012528000000000001 12.06 0.00852C4.107215999999999 0.005352 1.98792 0.010776 1.8346079999999998 0.03468M1.9861680000000002 1.53792C1.770432 1.588968 1.629192 1.743264 1.5500399999999999 2.014368C1.5156 2.132424 1.512 3.077592 1.512 12.036C1.512 20.82948 1.5160559999999998 21.940968 1.5486000000000002 22.050504C1.595208 22.207488 1.679016 22.306536 1.8299759999999998 22.383024C2.099136 22.519416 1.4454479999999998 22.511184 11.988 22.510848C17.90868 22.510656 21.775848 22.501704 21.881568 22.487976C22.171752 22.450272000000002 22.292064 22.365336 22.408776 22.11576L22.476 21.972 22.482143999999998 12.024624000000001C22.487640000000003 3.112008 22.484424 2.064 22.451208 1.9496879999999999C22.403832 1.786776 22.281336 1.662072 22.0914 1.5834L21.948 1.524 12.012 1.5203280000000001C6.314208 1.51824 2.037696 1.525752 1.9861680000000002 1.53792M0.01188 12.036C0.01188 17.5404 0.01464 19.788624 0.018000000000000002 17.032032C0.02136 14.275464000000001 0.02136 9.771864 0.018000000000000002 7.024032C0.01464 4.276224 0.01188 6.531599999999999 0.01188 12.036M5.668032 9.771048C4.855008 9.890856000000001 4.1136 10.516176 3.8654640000000002 11.291400000000001C3.7412159999999997 11.679576 3.71784 11.996184000000001 3.781536 12.428927999999999C3.8844480000000003 13.127976 4.2136320000000005 13.708464000000001 4.8244560000000005 14.268C4.995888 14.425032 5.118552 14.52312 5.7773520000000005 15.030000000000001C6.15876 15.323471999999999 6.4752 15.647376000000001 6.580368000000001 15.852C6.870456 16.416336 6.764832 16.94472 6.317952 17.164800000000003L6.157152 17.244 5.220576 17.256C4.164384 17.269536 4.195608 17.264376000000002 3.9870959999999998 17.459424000000002C3.82524 17.610816 3.758856 17.768040000000003 3.758856 18C3.758856 18.2388 3.8256 18.392088 3.998304 18.549936C4.209816 18.743256000000002 4.215 18.744024 5.290272 18.743807999999998C6.297072 18.743616000000003 6.426096 18.73296 6.739368000000001 18.623952000000003C7.590312 18.327912 8.177136 17.55204 8.246640000000001 16.631136C8.284872 16.124616 8.122944 15.470088 7.849583999999999 15.026328C7.578744 14.586648000000002 7.260912 14.268888 6.52812 13.705224000000001C5.777952 13.128167999999999 5.532864 12.889439999999999 5.398344000000001 12.604776C5.24364 12.27732 5.215224 11.906952 5.327568 11.682024C5.3953679999999995 11.546280000000001 5.543856 11.398776 5.688 11.324016C5.794512 11.268768 5.809104 11.267832 6.744 11.256C7.6898159999999995 11.244024 7.692264000000001 11.243856000000001 7.811376 11.185248000000001C7.96392 11.1102 8.110584 10.963368000000001 8.184840000000001 10.811376C8.26788 10.64136 8.26788 10.358640000000001 8.184840000000001 10.188624C8.110584 10.036631999999999 7.96392 9.8898 7.811376 9.814752L7.692 9.756 6.756 9.752328C6.2412 9.750312 5.7516240000000005 9.758735999999999 5.668032 9.771048M11.668032 9.771696C10.85844 9.887616 10.113840000000001 10.515864 9.864864 11.293104C9.743112 11.673216 9.741071999999999 11.72772 9.74976 14.376C9.757824000000001 16.835016 9.757848000000001 16.836072 9.811608 17.04C9.883583999999999 17.312928 10.068768 17.682672 10.24644 17.908128C10.531224 18.26952 10.990656000000001 18.565896 11.443632 18.680400000000002L11.667096 18.736871999999998 12.379536 19.445111999999998C13.181591999999998 20.242416 13.183848 20.244 13.512 20.244C13.660728 20.244 13.71588 20.232288 13.829376000000002 20.176536C14.223576 19.982976 14.36988 19.485384 14.141208 19.116C14.10852 19.0632 13.92024 18.856632 13.722792 18.656928L13.363848 18.29388 13.476216 18.200928C13.772112 17.956248000000002 14.078472 17.456832000000002 14.188392 17.04C14.242152 16.836072 14.242176 16.835016 14.25024 14.376C14.258928 11.72772 14.256888000000002 11.673216 14.135136000000001 11.293104C13.927968 10.646400000000002 13.354128000000001 10.072080000000001 12.7086 9.865464C12.352512 9.751488 12.019032000000001 9.721416000000001 11.668032 9.771696M16.29588 9.774936C16.048872 9.844992000000001 15.820488000000001 10.086072 15.768144 10.332C15.750623999999998 10.414392 15.744936 11.452176 15.750024 13.644L15.757416 16.836000000000002 15.811416 17.04C15.883752 17.313288 16.068984 17.682936 16.24644 17.908128C16.515216000000002 18.249216 16.959192 18.54456 17.400000000000002 18.675528C17.571384 18.726432000000003 17.6292 18.729432000000003 18.606936 18.73812C19.789416 18.748608 19.783416 18.749424 20.00112 18.550464C20.174424000000002 18.392064 20.241144 18.239088 20.241144 18C20.241144 17.768040000000003 20.17476 17.610816 20.012904 17.459424000000002C19.804392 17.264376000000002 19.835616 17.269536 18.779424 17.256L17.842848 17.244 17.682047999999998 17.164800000000003C17.510736 17.080416 17.38596 16.953288 17.310503999999998 16.786152C17.270712000000003 16.698024 17.267232 16.488048 17.256 13.5L17.244 10.308 17.185248 10.188624C17.111544 10.038816 16.96368 9.88944 16.820544 9.820128C16.684032000000002 9.754056 16.442784 9.733272 16.29588 9.774936M11.787336 11.282112000000001C11.607024 11.337192 11.4222 11.499144 11.324088 11.688L11.268 11.796 11.261544 14.206439999999999C11.254344 16.90044 11.244744 16.738344 11.425056 16.966488000000002C11.56092 17.138351999999998 11.769528 17.236224 12 17.236224C12.230472 17.236224 12.439079999999999 17.138351999999998 12.574944 16.966488000000002C12.755256000000001 16.738344 12.745655999999999 16.90044 12.738456000000001 14.206439999999999L12.732000000000001 11.796 12.674544000000001 11.683608C12.604415999999999 11.546424 12.455616000000001 11.398344 12.315408000000001 11.326248000000001C12.195912 11.264784 11.919672 11.241696000000001 11.787336 11.282112000000001"/>
</svg>
