<svg xmlns="http://www.w3.org/2000/svg" viewBox="0 0 140 140">
  <title>stacked-squares</title>
  <g fill="none" stroke="#000" stroke-linecap="round" stroke-linejoin="round" stroke-width="1.5">
    <path d="M133.683 36.167L74.13 5.378a9 9 0 00-8.26 0L6.317 36.167a3.593 3.593 0 000 6.381L65.87 73.354a9 9 0 008.26 0l59.553-30.77a3.593 3.593 0 000-6.382z" stroke-width="8.749995"/>
    <path d="M29.75 54.688L6.318 66.808a3.593 3.593 0 000 6.382l59.552 30.806a9 9 0 008.26 0l59.553-30.806a3.593 3.593 0 000-6.382L110.25 54.687" stroke-width="8.749995"/>
    <path d="M29.75 85.313L6.318 97.416a3.593 3.593 0 000 6.381l59.552 30.806a9 9 0 008.26 0l59.553-30.77a3.593 3.593 0 000-6.382l-23.433-12.14" stroke-width="8.749995"/>
  </g>
</svg>
