<svg width="46" height="46" fill="none" xmlns="http://www.w3.org/2000/svg"><path d="M35.145 17.314l-10.89-5.63a1.646 1.646 0 00-1.51 0l-10.89 5.63a.658.658 0 000 1.166l10.89 5.634a1.647 1.647 0 001.51 0l10.89-5.627a.658.658 0 000-1.167v-.006z" stroke="#fff" stroke-width="1.5" stroke-linecap="round" stroke-linejoin="round"/><path d="M16.14 20.7l-4.285 2.217a.658.658 0 000 1.167l10.89 5.633a1.647 1.647 0 001.51 0l10.89-5.633a.658.658 0 000-1.167L30.86 20.7" stroke="#fff" stroke-width="1.5" stroke-linecap="round" stroke-linejoin="round"/><path d="M16.14 26.3l-4.285 2.214a.657.657 0 000 1.166l10.89 5.634a1.646 1.646 0 001.51 0l10.89-5.627a.658.658 0 000-1.167L30.86 26.3" stroke="#fff" stroke-width="1.5" stroke-linecap="round" stroke-linejoin="round"/></svg>
