<svg viewBox="0 0 24 24" fill="none" xmlns="http://www.w3.org/2000/svg">
<title>star-filled-circle</title>
    <path fill-rule="evenodd" clip-rule="evenodd" d="M12 24c6.627 0 12-5.373 12-12S18.627 0 12 0 0 5.373 0 12s5.373 12 12 12zm5.503-13.99a.752.752 0 01.297.804.75.75 0 01-.239.381l-2.597 2.153a.25.25 0 00-.078.271l1.09 3.268a.75.75 0 01-1.157.841l-2.671-1.959a.25.25 0 00-.296 0l-2.673 1.96a.75.75 0 01-1.155-.842l1.089-3.266a.25.25 0 00-.077-.271L6.444 11.2a.75.75 0 01.481-1.325H9.97a.25.25 0 00.235-.168l1.09-3.088.002-.008a.75.75 0 011.405 0l1.093 3.096a.25.25 0 00.236.167h3.043c.154 0 .303.048.429.136z" fill="currentColor"/>
</svg>
