<svg width="24" height="24" viewBox="0 0 24 24" fill="none" xmlns="http://www.w3.org/2000/svg">
<g clip-path="url(#clip0_798_19066)">
<path d="M15.1998 6.40634L12.1998 5.40634C11.7488 5.25577 11.2684 5.21456 10.7983 5.28612C10.3282 5.35768 9.8819 5.53997 9.4961 5.81794C9.1103 6.0959 8.79611 6.4616 8.57942 6.88486C8.36273 7.30813 8.24976 7.77684 8.24982 8.25234V12.7523L6.45882 11.3163C6.33654 11.2184 6.1952 11.1469 6.04381 11.1066C5.89241 11.0662 5.73427 11.0578 5.57945 11.0819C5.42463 11.106 5.27651 11.162 5.14453 11.2464C5.01255 11.3309 4.89958 11.4419 4.81282 11.5723C4.68908 11.7579 4.62305 11.9759 4.62305 12.1988C4.62305 12.4218 4.68908 12.6398 4.81282 12.8253L7.38182 16.6793C7.80644 17.316 8.38162 17.8381 9.05636 18.1992C9.7311 18.5603 10.4845 18.7492 11.2498 18.7493H13.4888C14.4862 18.7497 15.443 18.354 16.1488 17.6493C16.8533 16.9437 17.2489 15.9874 17.2488 14.9903V9.25234C17.249 8.62299 17.0512 8.00953 16.6835 7.49877C16.3158 6.98802 15.7967 6.60585 15.1998 6.40634Z" stroke="black" stroke-width="1.5" stroke-linecap="round" stroke-linejoin="round"/>
<path d="M6.75 23.25H17.25L23.25 17.25V6.75L17.25 0.75H6.75L0.75 6.75V17.25L6.75 23.25Z" stroke="black" stroke-width="1.5" stroke-linecap="round" stroke-linejoin="round"/>
</g>
<defs>
<clipPath id="clip0_798_19066">
<rect width="24" height="24" fill="white"/>
</clipPath>
</defs>
</svg>
