<svg width="24" height="24" viewBox="0 0 24 24" fill="none" xmlns="http://www.w3.org/2000/svg">
<path d="M15.2001 6.40732L12.2001 5.40732C11.749 5.25674 11.2687 5.21554 10.7986 5.2871C10.3285 5.35866 9.88214 5.54094 9.49634 5.81891C9.11055 6.09688 8.79635 6.46257 8.57966 6.88584C8.36298 7.3091 8.25001 7.77781 8.25007 8.25332V12.7533L6.45907 11.3173C6.33678 11.2194 6.19545 11.1479 6.04405 11.1076C5.89266 11.0672 5.73452 11.0588 5.5797 11.0829C5.42487 11.1069 5.27676 11.163 5.14477 11.2474C5.01279 11.3319 4.89983 11.4428 4.81307 11.5733C4.68933 11.7588 4.62329 11.9768 4.62329 12.1998C4.62329 12.4228 4.68933 12.6408 4.81307 12.8263L7.38207 16.6803C7.80668 17.317 8.38187 17.8391 9.05661 18.2001C9.73135 18.5612 10.4848 18.7502 11.2501 18.7503H13.4891C14.4865 18.7507 15.4432 18.355 16.1491 17.6503C16.8535 16.9447 17.2492 15.9884 17.2491 14.9913V9.25332C17.2492 8.62397 17.0514 8.0105 16.6837 7.49975C16.316 6.989 15.797 6.60682 15.2001 6.40732Z" stroke="black" stroke-width="1.5" stroke-linecap="round" stroke-linejoin="round"/>
<path d="M6.75 23.25H17.25L23.25 17.25V6.75L17.25 0.75H6.75L0.75 6.75V17.25L6.75 23.25Z" stroke="black" stroke-width="1.5" stroke-linecap="round" stroke-linejoin="round"/>
</svg>