<svg xmlns="http://www.w3.org/2000/svg" xml:space="preserve" x="0" y="0" version="1.1" viewBox="0 0 24 24">
    <path d="M8.173,18.969c-0.08,0-0.159-0.013-0.236-0.038c-1.875-0.62-3.826-0.964-5.8-1.022C0.93,17.843-0.005,16.855,0,15.661V2.3 c-0.003-1.239,1.004-2.251,2.244-2.254c0.055,0,0.108,0.002,0.161,0.005c5.301,0.277,8.374,1.821,9.626,3.309 c1.578-1.769,5.237-3.047,9.565-3.303c0.05-0.004,0.105-0.006,0.159-0.006c1.169,0,2.152,0.917,2.238,2.087 C23.998,2.195,24,2.25,24,2.306v12.6c0,0.414-0.336,0.75-0.75,0.75s-0.75-0.336-0.75-0.75v-12.6c0-0.02-0.001-0.041-0.002-0.061 c-0.029-0.388-0.356-0.693-0.746-0.693c-0.019,0-0.037,0.001-0.056,0.002c-2.62,0.155-5.022,0.712-6.767,1.568 C13.424,3.86,12.75,4.654,12.75,5.114v3.887c0,0.414-0.336,0.75-0.75,0.75s-0.75-0.336-0.75-0.75V5.114 c0-1.08-2.621-3.234-8.935-3.565C2.286,1.547,2.266,1.546,2.246,1.546C1.834,1.547,1.499,1.885,1.5,2.298v13.366 c-0.002,0.397,0.306,0.724,0.7,0.746c2.103,0.062,4.195,0.431,6.208,1.097c0.19,0.063,0.344,0.196,0.434,0.375 s0.105,0.382,0.042,0.573C8.783,18.762,8.497,18.969,8.173,18.969z"/>
    <path d="M9.342 7.298c-.087 0-.173-.015-.255-.045C7.344 6.624 5.526 6.2 3.684 5.993 3.273 5.947 2.977 5.575 3.023 5.164c.043-.38.363-.666.745-.666.027 0 .055.001.082.005 1.96.22 3.893.671 5.746 1.34.188.068.339.205.424.387.085.182.094.385.026.574C9.941 7.099 9.657 7.298 9.342 7.298zM19.414 9.971c-.37 0-.681-.265-.74-.63-.032-.198.015-.396.132-.558s.291-.27.489-.302c.351-.057.716-.11 1.086-.158.032-.004.066-.007.099-.007.374 0 .693.281.742.653.026.199-.027.396-.149.554-.122.159-.299.26-.498.286-.355.046-.702.097-1.04.152C19.493 9.968 19.453 9.971 19.414 9.971zM9.342 11.113c-.086 0-.172-.015-.253-.044-1.746-.625-3.565-1.049-5.406-1.261-.411-.047-.707-.42-.659-.831.044-.379.364-.664.745-.664.028 0 .056.002.085.005C5.81 8.542 7.741 8.993 9.595 9.657c.189.068.34.204.425.385.086.181.096.385.028.573C9.942 10.913 9.658 11.113 9.342 11.113zM9.342 15.156c-.086 0-.171-.015-.252-.044-1.762-.626-3.598-1.051-5.457-1.261-.199-.022-.377-.121-.502-.278-.125-.157-.181-.353-.159-.552.043-.38.364-.666.745-.666.028 0 .056.002.084.005 1.972.223 3.921.673 5.792 1.339.189.067.34.204.426.385s.096.385.029.573C9.943 14.955 9.659 15.156 9.342 15.156zM14.9 7.305c-.316 0-.6-.2-.707-.499-.138-.39.066-.82.455-.958 1.872-.666 3.822-1.116 5.795-1.339.028-.003.056-.005.083-.005.383 0 .703.286.746.666.022.199-.034.395-.159.552C20.989 5.879 20.811 5.978 20.612 6c-1.86.21-3.697.634-5.461 1.261C15.07 7.29 14.986 7.305 14.9 7.305zM10.349 24.001c-.235 0-.459-.112-.6-.3l-.474-.632c-.604-.807-.604-1.932 0-2.738.429-.572 1.113-.914 1.83-.914.496 0 .969.157 1.366.455l.277.208v-7.705c0-1.447 1.177-2.625 2.625-2.625s2.625 1.177 2.625 2.625v5.141l3.063.68c1.836.408 3.092 2.127 2.922 4l-.1 1.121c-.035.389-.356.683-.748.683l0 0c-.021 0-.042-.001-.064-.003-.414-.037-.719-.402-.682-.814l.1-1.122c.102-1.124-.651-2.156-1.753-2.401l-3.651-.811c-.346-.077-.587-.378-.587-.732v-5.742c0-.62-.505-1.125-1.125-1.125s-1.125.505-1.125 1.125v9.205c0 .286-.159.543-.415.671-.103.052-.219.079-.335.079-.161 0-.321-.053-.45-.15l-1.477-1.108c-.136-.102-.298-.156-.468-.156-.25 0-.479.114-.628.313-.207.276-.207.662 0 .939l.474.631c.12.16.171.358.143.556-.028.198-.132.374-.292.494C10.668 23.949 10.512 24.001 10.349 24.001z"/>
</svg>
