<?xml version="1.0" encoding="utf-8"?>
<!-- Generator: Adobe Illustrator 22.1.0, SVG Export Plug-In . SVG Version: 6.00 Build 0)  -->
<svg version="1.1" xmlns="http://www.w3.org/2000/svg" xmlns:xlink="http://www.w3.org/1999/xlink" x="0px" y="0px"
	 viewBox="0 0 24 24" style="enable-background:new 0 0 24 24;" xml:space="preserve">
<title>study-book</title>
<g>
	<path d="M8.173,18.969c-0.08,0-0.159-0.013-0.236-0.038c-1.875-0.62-3.826-0.964-5.8-1.022C0.93,17.843-0.005,16.855,0,15.661V2.3
		c-0.003-1.239,1.004-2.251,2.244-2.254c0.055,0,0.108,0.002,0.161,0.005c5.301,0.277,8.374,1.821,9.626,3.309
		c1.578-1.769,5.237-3.047,9.565-3.303c0.05-0.004,0.105-0.006,0.159-0.006c1.169,0,2.152,0.917,2.238,2.087
		C23.998,2.195,24,2.25,24,2.306v12.6c0,0.414-0.336,0.75-0.75,0.75s-0.75-0.336-0.75-0.75v-12.6c0-0.02-0.001-0.041-0.002-0.061
		c-0.029-0.388-0.356-0.693-0.746-0.693c-0.019,0-0.037,0.001-0.056,0.002c-2.62,0.155-5.022,0.712-6.767,1.568
		C13.424,3.86,12.75,4.654,12.75,5.114v3.887c0,0.414-0.336,0.75-0.75,0.75s-0.75-0.336-0.75-0.75V5.114
		c0-1.08-2.621-3.234-8.935-3.565C2.286,1.547,2.266,1.546,2.246,1.546C1.834,1.547,1.499,1.885,1.5,2.298v13.366
		c-0.002,0.397,0.306,0.724,0.7,0.746c2.103,0.062,4.195,0.431,6.208,1.097c0.19,0.063,0.344,0.196,0.434,0.375
		s0.105,0.382,0.042,0.573C8.783,18.762,8.497,18.969,8.173,18.969z"/>
	<path d="M9.342,7.298c-0.087,0-0.173-0.015-0.255-0.045C7.344,6.624,5.526,6.2,3.684,5.993C3.273,5.947,2.977,5.575,3.023,5.164
		c0.043-0.38,0.363-0.666,0.745-0.666c0.027,0,0.055,0.001,0.082,0.005c1.96,0.22,3.893,0.671,5.746,1.34
		c0.188,0.068,0.339,0.205,0.424,0.387c0.085,0.182,0.094,0.385,0.026,0.574C9.941,7.099,9.657,7.298,9.342,7.298z"/>
	<path d="M19.414,9.971c-0.37,0-0.681-0.265-0.74-0.63c-0.032-0.198,0.015-0.396,0.132-0.558s0.291-0.27,0.489-0.302
		c0.351-0.057,0.716-0.11,1.086-0.158c0.032-0.004,0.066-0.007,0.099-0.007c0.374,0,0.693,0.281,0.742,0.653
		c0.026,0.199-0.027,0.396-0.149,0.554c-0.122,0.159-0.299,0.26-0.498,0.286c-0.355,0.046-0.702,0.097-1.04,0.152
		C19.493,9.968,19.453,9.971,19.414,9.971z"/>
	<path d="M9.342,11.113c-0.086,0-0.172-0.015-0.253-0.044c-1.746-0.625-3.565-1.049-5.406-1.261
		c-0.411-0.047-0.707-0.42-0.659-0.831c0.044-0.379,0.364-0.664,0.745-0.664c0.028,0,0.056,0.002,0.085,0.005
		C5.81,8.542,7.741,8.993,9.595,9.657c0.189,0.068,0.34,0.204,0.425,0.385c0.086,0.181,0.096,0.385,0.028,0.573
		C9.942,10.913,9.658,11.113,9.342,11.113z"/>
	<path d="M9.342,15.156c-0.086,0-0.171-0.015-0.252-0.044c-1.762-0.626-3.598-1.051-5.457-1.261
		c-0.199-0.022-0.377-0.121-0.502-0.278c-0.125-0.157-0.181-0.353-0.159-0.552c0.043-0.38,0.364-0.666,0.745-0.666
		c0.028,0,0.056,0.002,0.084,0.005c1.972,0.223,3.921,0.673,5.792,1.339c0.189,0.067,0.34,0.204,0.426,0.385
		s0.096,0.385,0.029,0.573C9.943,14.955,9.659,15.156,9.342,15.156z"/>
	<path d="M14.9,7.305c-0.316,0-0.6-0.2-0.707-0.499c-0.138-0.39,0.066-0.82,0.455-0.958c1.872-0.666,3.822-1.116,5.795-1.339
		c0.028-0.003,0.056-0.005,0.083-0.005c0.383,0,0.703,0.286,0.746,0.666c0.022,0.199-0.034,0.395-0.159,0.552
		C20.989,5.879,20.811,5.978,20.612,6c-1.86,0.21-3.697,0.634-5.461,1.261C15.07,7.29,14.986,7.305,14.9,7.305z"/>
	<path d="M10.349,24.001c-0.235,0-0.459-0.112-0.6-0.3l-0.474-0.632c-0.604-0.807-0.604-1.932,0-2.738
		c0.429-0.572,1.113-0.914,1.83-0.914c0.496,0,0.969,0.157,1.366,0.455l0.277,0.208v-7.705c0-1.447,1.177-2.625,2.625-2.625
		s2.625,1.177,2.625,2.625v5.141l3.063,0.68c1.836,0.408,3.092,2.127,2.922,4l-0.1,1.121c-0.035,0.389-0.356,0.683-0.748,0.683l0,0
		c-0.021,0-0.042-0.001-0.064-0.003c-0.414-0.037-0.719-0.402-0.682-0.814l0.1-1.122c0.102-1.124-0.651-2.156-1.753-2.401
		l-3.651-0.811c-0.346-0.077-0.587-0.378-0.587-0.732v-5.742c0-0.62-0.505-1.125-1.125-1.125s-1.125,0.505-1.125,1.125v9.205
		c0,0.286-0.159,0.543-0.415,0.671c-0.103,0.052-0.219,0.079-0.335,0.079c-0.161,0-0.321-0.053-0.45-0.15l-1.477-1.108
		c-0.136-0.102-0.298-0.156-0.468-0.156c-0.25,0-0.479,0.114-0.628,0.313c-0.207,0.276-0.207,0.662,0,0.939l0.474,0.631
		c0.12,0.16,0.171,0.358,0.143,0.556c-0.028,0.198-0.132,0.374-0.292,0.494C10.668,23.949,10.512,24.001,10.349,24.001z"/>
</g>
</svg>
