<svg xmlns="http://www.w3.org/2000/svg" width="24" height="24" viewBox="0 0 24 24">
    <path fill="#000" fill-rule="evenodd" stroke="none" d="M11.040000000000001 0.035904C8.6556 0.237768 6.436751999999999 1.1044559999999999 4.596 2.552928C0.097776 6.092592 -1.29048 12.297192 1.276704 17.388C3.326592 21.452952000000003 7.457352 24 12 24C13.889111999999999 24 15.703296 23.569944 17.388 22.722792000000002C19.507656 21.656928 21.267984000000002 19.983552 22.444584000000003 17.916C23.304456000000002 16.404984000000002 23.866968 14.548704 23.966616000000002 12.89328C23.975592 12.744384 23.992176 12.616848000000001 24.003456 12.609863999999998C24.01476 12.60288 24.023832000000002 12.314304 24.02364 11.968584C24.023424000000002 11.622864 24.014256000000003 11.354208 24.00324 11.37156C23.99148 11.390136 23.976528000000002 11.286336 23.966952000000003 11.11956C23.872152 9.468672000000002 23.307096 7.599624 22.444584000000003 6.0840000000000005C20.588616000000002 2.822664 17.317152 0.606696 13.620000000000001 0.106584C12.849120000000001 0.002304 11.782104 -0.026928000000000004 11.040000000000001 0.035904M11.256 1.5270480000000002C9.797136 1.6568640000000001 8.65356 1.963488 7.427904 2.553528C5.321688 3.5674560000000004 3.5674560000000004 5.321688 2.553528 7.427904C2.027976 8.519616 1.71852 9.584952 1.567056 10.824C1.5064080000000002 11.320152 1.5064080000000002 12.679848 1.567056 13.176C1.81272 15.185736 2.561544 16.996488 3.7758 18.517104000000003C5.399928 20.55108 7.65804 21.8952 10.200000000000001 22.341144C10.841736 22.453704000000002 11.13348 22.475496 12 22.475496C12.866520000000001 22.475496 13.158263999999999 22.453704000000002 13.8 22.341144C16.060752 21.944544 18.15036 20.808624 19.687992 19.140432C21.236616 17.460288 22.148112 15.479424 22.432512 13.176C22.493904 12.67884 22.493904 11.321159999999999 22.432512 10.824C22.183896 8.810256 21.431592 6.989808000000001 20.225808 5.484C18.457656 3.2759280000000004 16.02936 1.9231680000000002 13.200000000000001 1.570032C12.913319999999999 1.534248 11.521080000000001 1.5034800000000001 11.256 1.5270480000000002M14.132904 4.223616000000001C13.953768000000002 4.2551760000000005 13.807944 4.3328880000000005 13.672680000000001 4.468824C13.462536 4.680048 13.367496000000001 4.966368 13.413264 5.250503999999999C13.442424 5.4316320000000005 13.474224000000001 5.50524 13.64376 5.784C14.620536 7.390224 14.945616000000001 9.231143999999999 14.507040000000002 10.672848C14.474112 10.781112 14.438208 10.875216 14.427287999999999 10.881960000000001C14.373984000000002 10.914912000000001 13.273319999999998 9.880992 12.745248 9.301872C11.618592 8.066376 10.817400000000001 6.909048 10.012776 5.3548800000000005C9.76488 4.876056 9.722016 4.807728 9.617784 4.725336C9.245424 4.431024 8.700336 4.552152 8.4762 4.97904C8.42196 5.082312 8.412624000000001 5.130096 8.412336 5.30592L8.412 5.51184 8.575776000000001 5.8459200000000004C9.841536000000001 8.427935999999999 11.701512 10.711032000000001 13.98 12.479568C14.339712000000002 12.75876 14.455319999999999 12.815448 14.665728 12.815760000000001C15.080088 12.816384 15.304272000000001 12.597696000000001 15.663048 11.84292C15.9186 11.305296 16.11072 10.595832 16.176816 9.945696C16.204871999999998 9.669744 16.196424 8.72892 16.163688 8.484C16.153128000000002 8.405088 16.17936 8.443536 16.310952 8.700000000000001C16.5942 9.251928000000001 16.816560000000003 9.844464 16.977408 10.476C17.122512 11.045664 17.183952 11.544072 17.184456 12.156C17.185032 12.809064000000001 17.115216 13.275984000000001 16.929672 13.86C16.804104000000002 14.255304 16.819824 14.485439999999999 16.988064 14.714184000000001C17.076528000000003 14.834496000000001 17.109888 14.859504 17.496 15.095208C17.961912 15.379608000000001 18.058656 15.485040000000001 18.168408000000003 15.828000000000001C18.210408 15.959256000000002 18.22476 16.073424 18.234047999999998 16.35C18.241512 16.572336 18.237216 16.704 18.222504 16.704C18.20964 16.704 18.086784 16.657104 17.949552 16.599792C17.334287999999997 16.342872 16.205232 16.027776 15.768648 15.991176C15.511392 15.9696 15.418895999999998 15.994776 15.106272 16.171392C14.600280000000001 16.457256 14.230464000000001 16.6026 13.728 16.71312C11.832888 17.129976 9.554064 16.516896 7.62 15.069912C7.060128000000001 14.651040000000002 6.392112000000001 14.026752 5.927328 13.488C5.784984 13.323 5.671032 13.18536 5.674104 13.182144C5.6772 13.178927999999999 5.80848 13.26048 5.965848 13.363392C7.0817760000000005 14.093015999999999 8.271312 14.543184 9.588000000000001 14.734079999999999C10.342896 14.843544 11.297903999999999 14.854512 11.559288 14.756712000000002C11.726352 14.694192000000001 11.887176 14.547144 11.967072 14.383872C12.021264 14.273136000000001 12.032832 14.217216 12.032832 14.066544C12.032832 13.780175999999999 11.978568000000001 13.687344000000001 11.551512 13.243032000000001C9.595728000000001 11.208264000000002 8.02248 8.90892 6.899472 6.444C6.785232000000001 6.1932 6.65304 5.903952 6.605735999999999 5.801232C6.455159999999999 5.474328000000001 6.227735999999999 5.317272 5.904 5.316648C5.759808 5.316384 5.697432 5.328744 5.590392 5.378808C5.279832 5.524104 5.1017280000000005 5.8559280000000005 5.161824 6.177264000000001C5.225424 6.517224 6.067944 8.238936 6.695832 9.312C7.1043840000000005 10.010232 7.680312 10.896552000000002 8.079504 11.441424C8.50596 12.023496 8.92524 12.560160000000002 9.276192 12.973128C9.364632 13.077192000000002 9.4266 13.1658 9.413928 13.170024C9.374496 13.183176 8.898528 13.062696 8.578368000000001 12.958535999999999C8.172912 12.826632 7.847784 12.688512 7.407576000000001 12.461184000000001C6.708792000000001 12.100344 6.189744 11.712216 5.556 11.076672C4.9667520000000005 10.485768 4.675536 10.137768 4.272 9.5424C4.001040000000001 9.142631999999999 3.805104 9.018672 3.444216 9.018672C3.2390879999999997 9.018672 3.129624 9.050016 2.9618160000000002 9.156768C2.631912 9.366696 2.449584 9.705888 2.479152 10.054752C2.49468 10.237919999999999 2.7007920000000003 10.889736 2.895744 11.372232C3.2437440000000004 12.233424 3.733032 13.105176 4.286904000000001 13.850783999999999C4.619112 14.298024 4.921728 14.64396 5.398872 15.121968C6.040608000000001 15.764856000000002 6.5850480000000005 16.212048 7.277304 16.66488C8.5266 17.482056 9.805632 18.001968 11.11824 18.226152C11.632992000000002 18.314064000000002 11.984976000000001 18.342816 12.528 18.341256C13.65492 18.338040000000003 14.553648 18.137928 15.46932 17.686392L15.806664 17.520024 16.14132 17.602464C16.80312 17.765472 17.394624 17.972472 17.68632 18.143184C17.76828 18.191136 17.810424 18.240192 17.870160000000002 18.357120000000002C17.96952 18.551664 18.04836 18.632424 18.225 18.72072C18.346032 18.7812 18.395616 18.792 18.552 18.792C18.93972 18.792 19.156056 18.597456 19.421496 18.01008C19.639248000000002 17.528184 19.737816 17.036376 19.738536 16.428C19.739424 15.68412 19.607471999999998 15.188976 19.273704000000002 14.683608000000001C19.072319999999998 14.378688 18.791520000000002 14.110895999999999 18.487896 13.934184C18.48564 13.932863999999999 18.504528 13.845432 18.529872 13.739904C18.650424 13.23792 18.681528 12.914112 18.682008 12.156C18.682488 11.387016000000001 18.662184 11.158656 18.537959999999998 10.536C18.223872 8.961744 17.470560000000003 7.38876 16.380167999999998 6.030432C16.078416 5.65452 15.733464000000001 5.275824 15.201696 4.73664C14.846184000000001 4.376208 14.77968 4.319376 14.664 4.277472C14.504015999999998 4.219536 14.283144 4.19712 14.132904 4.223616000000001M0.010488 12C0.010488 12.349800000000002 0.013848 12.492912 0.017928 12.318C0.022032000000000003 12.143088 0.022032000000000003 11.856912000000001 0.017928 11.682C0.013848 11.507088 0.010488 11.6502 0.010488 12"/>
</svg>
