<svg xmlns="http://www.w3.org/2000/svg" viewBox="0 0 24 24" id="Task-List-Multiple--Streamline-Ultimate" height="24" width="24"><desc>Task List Multiple Streamline Icon: https://streamlinehq.com</desc><defs></defs><title>task-list-multiple</title><path d="M10.75 6.761h11.5s1 0 1 1v14.5s0 1 -1 1h-11.5s-1 0 -1 -1v-14.5s0 -1 1 -1" fill="none" stroke="currentColor" stroke-linecap="round" stroke-linejoin="round" stroke-width="1.5"></path><path d="M9.75 20.261h-3a1.5 1.5 0 0 1 -1.5 -1.5v-13.5a1.5 1.5 0 0 1 1.5 -1.5h10.5a1.5 1.5 0 0 1 1.5 1.5v1.5" fill="none" stroke="currentColor" stroke-linecap="round" stroke-linejoin="round" stroke-width="1.5"></path><path d="M5.25 17.261h-3a1.5 1.5 0 0 1 -1.5 -1.5v-13.5a1.5 1.5 0 0 1 1.5 -1.5h10.5a1.5 1.5 0 0 1 1.5 1.5v1.5" fill="none" stroke="currentColor" stroke-linecap="round" stroke-linejoin="round" stroke-width="1.5"></path><path d="m17.25 11.261 3 0" fill="none" stroke="currentColor" stroke-linecap="round" stroke-linejoin="round" stroke-width="1.5"></path><path d="m12.75 10.511 0.75 0.75 1.5 -1.5" fill="none" stroke="currentColor" stroke-linecap="round" stroke-linejoin="round" stroke-width="1.5"></path><path d="m17.25 15.761 3 0" fill="none" stroke="currentColor" stroke-linecap="round" stroke-linejoin="round" stroke-width="1.5"></path><path d="m12.75 15.011 0.75 0.75 1.5 -1.5" fill="none" stroke="currentColor" stroke-linecap="round" stroke-linejoin="round" stroke-width="1.5"></path><path d="m17.25 20.261 3 0" fill="none" stroke="currentColor" stroke-linecap="round" stroke-linejoin="round" stroke-width="1.5"></path><path d="m12.75 19.511 0.75 0.75 1.5 -1.5" fill="none" stroke="currentColor" stroke-linecap="round" stroke-linejoin="round" stroke-width="1.5"></path></svg>