<svg xmlns="http://www.w3.org/2000/svg" viewBox="0 0 24 24" id="User-Multiple-Half-Female-Male--Streamline-Ultimate" height="24" width="24">
  <desc>
    User Multiple Half Female Male Streamline Icon: https://streamlinehq.com
  </desc>
  <defs></defs>
  <path d="M16.053 10.5a6.025 6.025 0 0 0 -8.106 0" fill="none" stroke="#000000" stroke-linecap="round" stroke-linejoin="round" stroke-width="1.5"></path>
  <path d="m8.635 4.395 -0.009 0.636a4.835 4.835 0 0 1 -0.7 2.677" fill="none" stroke="#000000" stroke-linecap="round" stroke-linejoin="round" stroke-width="1.5"></path>
  <path d="m15.364 4.395 0.009 0.636a4.826 4.826 0 0 0 0.7 2.677" fill="none" stroke="#000000" stroke-linecap="round" stroke-linejoin="round" stroke-width="1.5"></path>
  <path d="M8.635 4.395A4.24 4.24 0 0 0 12 3.166a4.238 4.238 0 0 0 3.364 1.229" fill="none" stroke="#000000" stroke-linecap="round" stroke-linejoin="round" stroke-width="1.5"></path>
  <path d="M8.625 4.125a3.375 3.375 0 1 0 6.75 0 3.375 3.375 0 1 0 -6.75 0" fill="none" stroke="#000000" stroke-linecap="round" stroke-linejoin="round" stroke-width="1.5"></path>
  <path d="M15.125 16.125a3.375 3.375 0 1 0 6.75 0 3.375 3.375 0 1 0 -6.75 0" fill="none" stroke="#000000" stroke-linecap="round" stroke-linejoin="round" stroke-width="1.5"></path>
  <path d="M23.25 23.25a6.026 6.026 0 0 0 -9.5 0" fill="none" stroke="#000000" stroke-linecap="round" stroke-linejoin="round" stroke-width="1.5"></path>
  <path d="M21.875 16.236a6.762 6.762 0 0 1 -6.443 -1.516" fill="none" stroke="#000000" stroke-linecap="round" stroke-linejoin="round" stroke-width="1.5"></path>
  <path d="M2.125 16.125a3.375 3.375 0 1 0 6.75 0 3.375 3.375 0 1 0 -6.75 0" fill="none" stroke="#000000" stroke-linecap="round" stroke-linejoin="round" stroke-width="1.5"></path>
  <path d="M10.249 23.25a6.026 6.026 0 0 0 -9.5 0" fill="none" stroke="#000000" stroke-linecap="round" stroke-linejoin="round" stroke-width="1.5"></path>
  <path d="M8.875 16.236a6.762 6.762 0 0 1 -6.443 -1.516" fill="none" stroke="#000000" stroke-linecap="round" stroke-linejoin="round" stroke-width="1.5"></path>
</svg>