<svg xmlns="http://www.w3.org/2000/svg" width="12" height="12" fill="none" viewBox="0 0 12 12">
    <g clip-path="url(#clip0_1850_6404)">
        <path stroke="#fff" stroke-linecap="round" stroke-linejoin="round" d="M2.66504 4.21289H0.415039V10.9629H2.66504V4.21289Z"/>
        <path fill="#fff" d="M2.66504 10.2105C4.94087 10.2105 5.12629 11.1168 8.20764 11.3019C9.07279 11.3538 9.69364 11.3986 10.2698 10.6599C11.5352 9.03743 12.143 5.17908 10.9157 5.17908H8.40859C7.85634 5.17908 7.40859 4.73135 7.40859 4.17907V2.23407C7.40859 0.724066 5.19964 -0.0683859 5.19964 1.62407C5.19964 2.83786 4.73714 3.67228 3.96451 4.40735C3.58656 4.76692 3.14467 4.95941 2.66504 5.06223"/>
        <path stroke="#fff" stroke-linecap="round" stroke-linejoin="round" d="M2.66504 10.2105C4.94087 10.2105 5.12629 11.1168 8.20764 11.3019C9.07279 11.3538 9.69364 11.3986 10.2698 10.6599C11.5352 9.03743 12.143 5.17908 10.9157 5.17908H8.40859C7.85634 5.17908 7.40859 4.73135 7.40859 4.17907V2.23407C7.40859 0.724066 5.19964 -0.0683859 5.19964 1.62407C5.19964 2.83786 4.73714 3.67228 3.96451 4.40735C3.58656 4.76692 3.14467 4.95941 2.66504 5.06223"/>
    </g>
    <defs>
        <clipPath id="clip0_1850_6404">
            <path fill="#fff" d="M0 0H12V12H0z"/>
        </clipPath>
    </defs>
</svg>
