<svg xmlns="http://www.w3.org/2000/svg" width="12" height="12" fill="none" viewBox="0 0 12 12">
    <g clip-path="url(#clip0_0_11)">
        <path stroke="#fff" stroke-linecap="round" stroke-linejoin="round" d="M9.3349 7.78709H11.5849V1.03711H9.3349V7.78709Z"/>
        <path fill="#fff" d="M9.33454 1.78954C7.05874 1.78954 6.87329 0.883291 3.79196 0.698231C2.9268 0.646266 2.30593 0.601451 1.72976 1.34021C0.464362 2.96266 -0.143433 6.82101 1.0839 6.82101H3.59099C4.14327 6.82101 4.59099 7.26876 4.59099 7.82101V9.76601C4.59099 11.276 6.79994 12.0685 6.79994 10.376C6.79994 9.16221 7.26244 8.32781 8.03509 7.59276C8.41304 7.23316 8.85494 7.04066 9.33454 6.93786"/>
        <path stroke="#fff" stroke-linecap="round" stroke-linejoin="round" d="M9.33454 1.78954C7.05874 1.78954 6.87329 0.883291 3.79196 0.698231C2.9268 0.646266 2.30593 0.601451 1.72976 1.34021C0.464362 2.96266 -0.143433 6.82101 1.0839 6.82101H3.59099C4.14327 6.82101 4.59099 7.26876 4.59099 7.82101V9.76601C4.59099 11.276 6.79994 12.0685 6.79994 10.376C6.79994 9.16221 7.26244 8.32781 8.03509 7.59276C8.41304 7.23316 8.85494 7.04066 9.33454 6.93786"/>
    </g>
    <defs>
        <clipPath id="clip0_0_11">
            <path fill="#fff" d="M0 0H12V12H0z"/>
        </clipPath>
    </defs>
</svg>
