<svg xmlns="http://www.w3.org/2000/svg" fill="none" viewBox="0 0 24 24" stroke-width="1.5"><path stroke="#000000" stroke-linecap="round" stroke-linejoin="round" stroke-miterlimit="10" d="M20.25 11.45h1.2c1 0 1.8-.8 1.8-1.8s-.8-1.8-1.8-1.8h-1.2"></path><path stroke="#000000" stroke-linecap="round" stroke-linejoin="round" stroke-miterlimit="10" d="M20.25 4.25h.3c1 0 1.8.8 1.8 1.8s-.8 1.8-1.8 1.8h-.3"></path><path stroke="#000000" stroke-linecap="round" stroke-linejoin="round" stroke-miterlimit="10" d="M20.25 11.45h.7c1 0 1.8.8 1.8 1.8s-.8 1.8-1.8 1.8h-6l.1.2c1 1.7 1.6 3.7 1.7 5.8.1.7-.2 1.3-.8 1.7-.4.3-.8.3-1.3.2-.5-.1-.9-.4-1.1-.8-2.04-3.569-3.397-8.07-6.9-10.6h-2.4"></path><path stroke="#000000" stroke-linecap="round" stroke-linejoin="round" stroke-miterlimit="10" d="M20.25 4.25h-.7c1.1 0 1.9-.9 1.7-2-.1-.9-.9-1.5-1.8-1.5h-6.5c-.4 0-.9 0-1.3.1l-5.3.9h-2.1"></path><path stroke="#000000" stroke-linecap="round" stroke-linejoin="round" stroke-miterlimit="10" d="M4.25 13.25H.75V.75h3.5v12.5Z"></path></svg>