<svg xmlns="http://www.w3.org/2000/svg" viewBox="0 0 24 24" id="Translate--Streamline-Ultimate" height="24" width="24"><desc>Translate Streamline Icon: https://streamlinehq.com</desc><g><g><path d="M19.65 0.75 15.9 3l2.25 3.75" fill="none" stroke="currentColor" stroke-linecap="round" stroke-linejoin="round" stroke-width="1.5"></path><path d="M23.25 8.19a6.73 6.73 0 0 0 -6.88 -4.42" fill="none" stroke="currentColor" stroke-linecap="round" stroke-linejoin="round" stroke-width="1.5"></path></g><g><path d="M4.35 23.25 8.1 21l-2.25 -3.75" fill="none" stroke="currentColor" stroke-linecap="round" stroke-linejoin="round" stroke-width="1.5"></path><path d="M0.75 15.81a6.73 6.73 0 0 0 6.88 4.42" fill="none" stroke="currentColor" stroke-linecap="round" stroke-linejoin="round" stroke-width="1.5"></path></g><path d="M2.25 0.75h9s1.5 0 1.5 1.5v9s0 1.5 -1.5 1.5h-9s-1.5 0 -1.5 -1.5v-9s0 -1.5 1.5 -1.5" fill="none" stroke="currentColor" stroke-linecap="round" stroke-linejoin="round" stroke-width="1.5"></path><path d="M15.75 11.25h6a1.5 1.5 0 0 1 1.5 1.5v9a1.5 1.5 0 0 1 -1.5 1.5h-9a1.5 1.5 0 0 1 -1.5 -1.5v-6" fill="none" stroke="currentColor" stroke-linecap="round" stroke-linejoin="round" stroke-width="1.5"></path><path d="m15.5 18 3.5 0" fill="none" stroke="currentColor" stroke-linecap="round" stroke-linejoin="round" stroke-width="1.5"></path><g><path d="m6.75 3.75 0 1.5" fill="none" stroke="currentColor" stroke-linecap="round" stroke-linejoin="round" stroke-width="1.5"></path><path d="m3.75 5.25 6 0" fill="none" stroke="currentColor" stroke-linecap="round" stroke-linejoin="round" stroke-width="1.5"></path><path d="M8.25 5.25s-1.5 4.5 -4.5 4.5" fill="none" stroke="currentColor" stroke-linecap="round" stroke-linejoin="round" stroke-width="1.5"></path><path d="M6.75 8a3.92 3.92 0 0 0 3 1.73" fill="none" stroke="currentColor" stroke-linecap="round" stroke-linejoin="round" stroke-width="1.5"></path></g><path d="M15.5 20.25v-4a1.75 1.75 0 0 1 3.5 0v4" fill="none" stroke="currentColor" stroke-linecap="round" stroke-linejoin="round" stroke-width="1.5"></path></g></svg>