<svg xmlns="http://www.w3.org/2000/svg" id="Outline_Version" data-name="Outline Version" viewBox="0 0 24 24">
    <path d="M.09,18.91a.75.75,0,0,0,.43.84,20.55,20.55,0,0,0,8.29,1.93,13.13,13.13,0,0,0,7.26-2.06A12.73,12.73,0,0,0,21.83,9.06V8.61l1.79-1.29A.75.75,0,0,0,23.47,6l-1.39-.6.78-1.7a.75.75,0,0,0-.92-1l-2.17.72a5.2,5.2,0,0,0-3.2-1.11,5.26,5.26,0,0,0-5.25,5.25v.36C8.6,8.24,6,6.85,3.14,3.57a.75.75,0,0,0-1.3.35A7.8,7.8,0,0,0,2.33,9L.94,8.82a.75.75,0,0,0-.85.89,5.38,5.38,0,0,0,2.63,3.92l-.65.24a.75.75,0,0,0-.41,1,4.78,4.78,0,0,0,3.56,2.61,11.82,11.82,0,0,1-4.39.8A.75.75,0,0,0,.09,18.91ZM8,17.67a.75.75,0,0,0-.38-1.35c-2.12-.17-3.37-.43-4.17-1.37l1.87-.68a.75.75,0,0,0-.17-1.45,3.69,3.69,0,0,1-3.29-2.33L4,10.81a.75.75,0,0,0,.61-1.3A4.55,4.55,0,0,1,3.14,5.77c3,3,6,4.17,9.09,3.53a.75.75,0,0,0,.6-.73v-1A3.73,3.73,0,0,1,19.1,4.82a.75.75,0,0,0,.75.16l.93-.31-.38.83a.75.75,0,0,0,0,.59c.09.23.11.28,1.28.79l-1,.74a.75.75,0,0,0-.31.61v.83a11.21,11.21,0,0,1-5.07,9.3c-3,2-6.95,2.33-11.22,1.09A11.11,11.11,0,0,0,8,17.67Z"/>
</svg>
