<svg xmlns="http://www.w3.org/2000/svg" viewBox="0 0 24 24"><defs><style>.a{fill:none;stroke:#000;stroke-linecap:round;stroke-linejoin:round;stroke-width:1.5px;}</style></defs><title>credit-card-visa</title><rect class="a" x="0.75" y="3.75" width="22.5" height="16.5" rx="1.5" ry="1.5"/><line class="a" x1="9.75" y1="15" x2="9.75" y2="9"/><path class="a" d="M3.75,9v2.037A7.488,7.488,0,0,0,5.25,15a7.488,7.488,0,0,0,1.5-3.963V9"/><path class="a" d="M14.4,9H13.2A1.2,1.2,0,0,0,12,10.2c0,1.8,2.4,1.8,2.4,3.6A1.2,1.2,0,0,1,13.2,15H12"/><line class="a" x1="17.25" y1="12.75" x2="20.25" y2="12.75"/><path class="a" d="M20.25,15V10.5a1.5,1.5,0,0,0-3,0V15"/></svg>
