<svg xmlns="http://www.w3.org/2000/svg" width="140" height="140" version="1.1" viewBox="0 0 24 24">
    <path fill="none" stroke="#000" stroke-linecap="round" stroke-linejoin="round" d="M0.504 3.500 L23.504 3.500 L23.504 20.500 L0.504 20.500 Z"/>
    <path fill="none" stroke="#000" stroke-linecap="round" stroke-linejoin="round" d="M4.957 10H6.238L6.6 13.6a.448.448 0 0 0 .85.148L9.3 9.891M11.113 9.969 10.301 14.031M14.832 9.922s-1.375-.36-1.844.422.266 1.281.75 1.578 1.016.75.875 1.281-.734 1.313-2.3.766M16 14.031l1.88-3.789a.436.436 0 0 1 .825.158l.3 3.569M16.598 12.828 18.926 12.828"/>
</svg>
