<svg xmlns="http://www.w3.org/2000/svg" version="1.1" xmlns:xlink="http://www.w3.org/1999/xlink" xmlns:svgjs="http://svgjs.com/svgjs" viewBox="0 0 24 24" width="140" height="140"><title>visa</title><g transform="matrix(5.833333333333333,0,0,5.833333333333333,0,0)"><path d="M0.504 3.500 L23.504 3.500 L23.504 20.500 L0.504 20.500 Z" fill="none" stroke="#000000" stroke-linecap="round" stroke-linejoin="round"></path><path d="M4.957,10H6.238L6.6,13.6a.448.448,0,0,0,.85.148L9.3,9.891" fill="none" stroke="#000000" stroke-linecap="round" stroke-linejoin="round"></path><path d="M11.113 9.969L10.301 14.031" fill="none" stroke="#000000" stroke-linecap="round" stroke-linejoin="round"></path><path d="M14.832,9.922s-1.375-.36-1.844.422.266,1.281.75,1.578,1.016.75.875,1.281-.734,1.313-2.3.766" fill="none" stroke="#000000" stroke-linecap="round" stroke-linejoin="round"></path><path d="M16,14.031l1.88-3.789a.436.436,0,0,1,.825.158l.3,3.569" fill="none" stroke="#000000" stroke-linecap="round" stroke-linejoin="round"></path><path d="M16.598 12.828L18.926 12.828" fill="none" stroke="#000000" stroke-linecap="round" stroke-linejoin="round"></path></g></svg>
