<svg viewBox="0 0 24 24" xmlns="http://www.w3.org/2000/svg">
<defs><style>.a{fill:none;stroke:currentColor;stroke-linecap:round;stroke-linejoin:round;stroke-width:1.5px;}</style></defs>
<title>volume-control-full</title>
<path class="a" d="M14.171 4.658A1.5 1.5 0 0 0 12.6 4.8L6 9H3a1.5 1.5 0 0 0 -1.5 1.5v3A1.5 1.5 0 0 0 3 15h3l6.6 4.2A1.5 1.5 0 0 0 15 18V6a1.5 1.5 0 0 0 -0.829 -1.342Z" fill="none" stroke="#000000" stroke-linecap="round" stroke-linejoin="round" stroke-width="1.5"></path><path class="a" d="M21.463 15.75a6.6 6.6 0 0 0 0 -7.1" fill="none" stroke="#000000" stroke-linecap="round" stroke-linejoin="round" stroke-width="1.5"></path><path class="a" d="M18.562 14.441a3.493 3.493 0 0 0 0 -4.405" fill="none" stroke="#000000" stroke-linecap="round" stroke-linejoin="round" stroke-width="1.5"></path><path class="a" d="m6 9 0 6" fill="none" stroke="#000000" stroke-linecap="round" stroke-linejoin="round" stroke-width="1.5"></path></svg>