<svg xmlns="http://www.w3.org/2000/svg" id="Coding-Apps-Website-Web-Form-Progress-4--Streamline-Ultimate" width="24" height="24" viewBox="0 0 24 24">
    <path fill="none" stroke="currentColor" stroke-linecap="round" stroke-linejoin="round" stroke-width="1.5" d="m5.751 5.525 5.771 5.775a1 1 0 0 1 0 1.408l-5.771 5.767"/>
    <path fill="none" stroke="currentColor" stroke-linecap="round" stroke-linejoin="round" stroke-width="1.5" d="M22.973 11.3a1 1 0 0 1 0 1.408l-4.979 5.48a1 1 0 0 1-.7.291h-5.567L17.5 12.7a1 1 0 0 0 0-1.408l-5.773-5.767h5.562a1 1 0 0 1 .7.291ZM8.489 5.525l-2.738 0M8.489 18.475l-2.738 0M2.765 5.525l-2.03 0M2.765 18.475l-2.03 0"/>
</svg>
