<svg xmlns="http://www.w3.org/2000/svg" width="24" height="24" viewBox="0 0 24 24">
    <path fill="#000" fill-rule="evenodd" stroke="none" d="M7.6080000000000005 0.264264L2.2680000000000002 0.276528 2.0408399999999998 0.343176C1.5636 0.48321600000000003 1.148184 0.72492 0.8157359999999999 1.056C0.5005440000000001 1.369896 0.25992 1.758432 0.134616 2.155896C-0.008592 2.610048 0 2.112696 0.000072 9.957144C0.000144 16.374432000000002 0.0042 17.171232 0.037728000000000005 17.364C0.23976 18.525528 1.151424 19.431912 2.306016 19.61916C2.5006079999999997 19.65072 2.979552 19.655832 5.7540000000000004 19.655904C8.807352 19.656 8.97588 19.658208 8.973864 19.698C8.972688000000002 19.721088 8.829576 20.3016 8.655864 20.988L8.34 22.236 7.764 22.248C7.1097600000000005 22.261632 7.058184000000001 22.273968 6.871512 22.461624C6.728352 22.605504 6.662808000000001 22.753392 6.652392 22.956C6.636191999999999 23.270856000000002 6.805224 23.546064 7.0995360000000005 23.684040000000003L7.236 23.748 12 23.747736L16.764 23.747496 16.900464 23.683775999999998C17.390016 23.455199999999998 17.504832 22.839888000000002 17.128488 22.461624C16.941816 22.273968 16.89024 22.261632 16.236 22.248L15.66 22.236 15.344136000000002 20.988C15.170424 20.3016 15.027312000000002 19.721088 15.026136000000001 19.698C15.02412 19.658208 15.192648000000002 19.656 18.246 19.655904C20.963784 19.655832 21.501792000000002 19.650288 21.684 19.620576C22.497888 19.48788 23.193192 19.013496 23.623224 18.297504C23.753904 18.07992 23.896176 17.704584 23.940648000000003 17.46C23.962248000000002 17.3412 23.989824000000002 17.225256 24.001944 17.202336C24.030432 17.14848 24.031704 2.6803920000000003 24.00324 2.698008C23.991816 2.705064 23.975687999999998 2.653176 23.967408000000002 2.582712C23.945376000000003 2.3951040000000003 23.84232 2.053992 23.745672000000003 1.8486000000000002C23.557536 1.4488320000000001 23.242752 1.063488 22.884 0.7937759999999999C22.666992 0.630648 22.249224 0.42698400000000003 21.96 0.34332L21.732 0.277368 19.368000000000002 0.270672C18.067800000000002 0.267 16.0914 0.261288 14.976 0.258C13.8606 0.254688 10.545 0.25752 7.6080000000000005 0.264264M2.504568 1.785792C2.171208 1.851576 1.8104640000000003 2.117112 1.650792 2.414256C1.5024 2.690376 1.512 2.256384 1.512 8.69304L1.512 14.568 6.888 14.568L12.264000000000001 14.568 12.264000000000001 8.16L12.264000000000001 1.752 7.458 1.754352C3.798408 1.7561520000000002 2.61684 1.76364 2.504568 1.785792M13.776 5.993712L13.776 10.235448 14.154 9.862656000000001C15.406176 8.627784 15.61248 8.435304 15.859704 8.271384000000001C16.28628 7.98852 16.750272 7.801776 17.244 7.714224C17.576424 7.655280000000001 18.213816 7.655136 18.54 7.7139120000000005C19.015848000000002 7.799688000000001 19.537560000000003 8.011704 19.92396 8.276352000000001C20.020775999999998 8.342664 20.6346 8.844696 21.288 9.391992L22.476 10.387056 22.482264 6.615528C22.486608 3.995136 22.480656 2.805768 22.462704000000002 2.718744C22.394592 2.388072 22.114824000000002 2.042376 21.792 1.889928C21.693 1.8431760000000001 21.540912000000002 1.7930160000000002 21.454032 1.7784719999999998C21.343608 1.759968 20.16444 1.752 17.536032000000002 1.752L13.776 1.752 13.776 5.993712M0.011856 9.96C0.011856 13.953 0.014616 15.586488000000001 0.018000000000000002 13.59C0.021384 11.593488 0.021384 8.326488000000001 0.018000000000000002 6.33C0.014616 4.333488 0.011856 5.9670000000000005 0.011856 9.96M16.296 3.9277919999999997C16.13412 3.96012 15.871176 4.116168 15.714 4.2732C15.370655999999999 4.6161840000000005 15.262104 5.075304 15.410688 5.556C15.538319999999999 5.968896 15.957384 6.321672 16.399944 6.388728C17.245008000000002 6.516792000000001 17.974944 5.7847919999999995 17.833416 4.951224C17.765688 4.552416 17.49012 4.190016 17.121384 4.014912000000001C16.940376 3.928944 16.923768000000003 3.9256559999999996 16.644912 3.920832C16.486008 3.9180719999999996 16.329 3.921216 16.296 3.9277919999999997M3.7853520000000005 4.416336C3.574152 4.452936 3.3708720000000003 4.610712 3.2600879999999997 4.824C3.212736 4.9152000000000005 3.2040480000000002 4.967472 3.2043120000000003 5.16C3.204552 5.347056 3.2139120000000005 5.4054720000000005 3.2563679999999997 5.485224C3.327072 5.618088 3.483744 5.76972 3.61932 5.836488L3.732 5.892 5.031504 5.8986C6.313968 5.905104 6.332832 5.904504 6.470088 5.853168C6.636576 5.790864 6.804192 5.633496 6.887447999999999 5.461296C6.932448 5.368224 6.944832 5.3034 6.944832 5.161104C6.944832 4.849992 6.786816 4.601064 6.5040000000000004 4.466712L6.372 4.404 5.136 4.400232C4.4562 4.398144 3.8484 4.405392 3.7853520000000005 4.416336M8.326080000000001 4.4154C8.174664 4.442208000000001 8.046264 4.5132 7.927152 4.636008C7.638048 4.934088 7.650336 5.40168 7.9550399999999994 5.6978159999999995C8.158728 5.895792 8.206056 5.904 9.144 5.904C10.068672000000001 5.904 10.1172 5.896056000000001 10.328184 5.710344C10.491408 5.56668 10.571496 5.385048 10.570824 5.160144C10.569912 4.848312 10.412328 4.60152 10.128 4.466616L9.996 4.404 9.216000000000001 4.399968C8.787 4.397736 8.386536000000001 4.404696 8.326080000000001 4.4154M3.6887520000000005 7.498224C3.38004 7.609824000000001 3.1934880000000003 7.877472 3.192528 8.21016C3.1920719999999996 8.3658 3.2026559999999997 8.413656000000001 3.265128 8.538672C3.349752 8.708016 3.46212 8.815488 3.6394800000000003 8.89668L3.765168 8.954232000000001 4.6485840000000005 8.947104C5.499312000000001 8.940264 5.535552 8.938104 5.628 8.888472C5.757792 8.818776 5.908176 8.662416 5.9774400000000005 8.525112C6.057504 8.3664 6.058752 8.08068 5.980152 7.905624C5.915832 7.762368 5.7683040000000005 7.611 5.6160000000000005 7.5320160000000005C5.5093440000000005 7.4766960000000005 5.497224 7.475928000000001 4.644 7.470599999999999C3.9606000000000003 7.4663520000000005 3.7609200000000005 7.472112000000001 3.6887520000000005 7.498224M7.328592 7.489871999999999C7.131816 7.547688000000001 6.896232 7.788072 6.840816 7.987632C6.827304 8.036232 6.816216000000001 8.147184000000001 6.8161439999999995 8.23416C6.815904 8.519664 6.983808000000001 8.768640000000001 7.26276 8.896344L7.387704000000001 8.953536000000001 8.72784 8.946768C10.050576 8.940096 10.069248 8.939328 10.164 8.887992C10.298856 8.814912 10.45212 8.649288 10.515672 8.508000000000001C10.590624 8.341296 10.590408 8.07624 10.515168000000001 7.905624C10.452192 7.762824000000001 10.304952 7.6113360000000005 10.152000000000001 7.5320160000000005L10.044 7.476 8.724 7.471871999999999C7.974336 7.46952 7.3714319999999995 7.477296 7.328592 7.489871999999999M17.53584 9.19152C17.240616000000003 9.245184 16.904616 9.38148 16.665216 9.544656C16.610904 9.581688000000002 15.938592 10.225656 15.171216000000001 10.975704L13.776 12.339383999999999 13.776 13.453704L13.776 14.568 18.132 14.568L22.488 14.568 22.488 13.465752L22.488 12.363503999999999 20.826 10.974504000000001C19.911912 10.210536000000001 19.112016 9.549984 19.048488 9.506568000000001C18.890424 9.398544 18.666552 9.300072 18.440976000000003 9.239352C18.228624 9.182184000000001 17.731656 9.155928000000001 17.53584 9.19152M3.732 10.545336C3.5814 10.593336 3.4998 10.644 3.3926160000000003 10.75608C3.2286 10.92756 3.204 10.994352000000001 3.204 11.268C3.204 11.48508 3.210144 11.51844 3.2682960000000003 11.617392C3.3561840000000003 11.76684 3.518976 11.91132 3.661416 11.966256C3.775872 12.010392 3.888888 12.012 6.9 12.012L10.02 12.012 10.13448 11.955624C10.281288 11.883336 10.444128000000001 11.720184 10.514424 11.574984C10.59384 11.410919999999999 10.592736 11.1228 10.512048 10.95612C10.438752 10.80468 10.277208 10.642848 10.132704 10.576080000000001L10.02 10.524000000000001 6.924 10.519368C4.471392 10.51572 3.8080560000000006 10.52112 3.732 10.545336M1.512 16.585800000000003C1.512 17.088984 1.5150480000000002 17.124624 1.572768 17.296560000000003C1.707552 17.698056 2.0310479999999997 18.001512 2.437008 18.107256000000003C2.5625280000000004 18.139944 3.617088 18.144000000000002 12 18.144000000000002C20.382912 18.144000000000002 21.437472 18.139944 21.562992 18.107256000000003C21.983136000000002 17.997816 22.32384 17.662152 22.44972 17.233632C22.4796 17.131848 22.488 16.988544 22.488 16.579704L22.488 16.056144 12 16.05612L1.512 16.056072 1.512 16.585800000000003M10.227 20.915832C10.053744 21.608736 9.912 22.186536 9.912 22.199832C9.912 22.215864 10.614408000000001 22.224 12 22.224C13.385591999999999 22.224 14.088000000000001 22.215864 14.088000000000001 22.199832C14.088000000000001 22.186536 13.946256000000002 21.608736 13.773 20.915832L13.458 19.656 12 19.656L10.542 19.656 10.227 20.915832"/>
</svg>
