<svg xmlns="http://www.w3.org/2000/svg" viewBox="0 0 24 24" id="Coding-Apps-Website-Web-Form-Progress-4--Streamline-Ultimate" height="24" width="24"><title>coding-apps-website-web-form-progress-4--9016</title><defs></defs><path d="m5.751 5.525 5.771 5.775a1 1 0 0 1 0 1.408l-5.771 5.767" fill="none" stroke="currentColor" stroke-linecap="round" stroke-linejoin="round" stroke-width="1.5"></path><path d="M22.973 11.3a1 1 0 0 1 0 1.408l-4.979 5.48a1 1 0 0 1 -0.7 0.291h-5.567L17.5 12.7a1 1 0 0 0 0 -1.408l-5.773 -5.767h5.562a1 1 0 0 1 0.7 0.291Z" fill="none" stroke="currentColor" stroke-linecap="round" stroke-linejoin="round" stroke-width="1.5"></path><path d="m8.489 5.525 -2.738 0" fill="none" stroke="currentColor" stroke-linecap="round" stroke-linejoin="round" stroke-width="1.5"></path><path d="m8.489 18.475 -2.738 0" fill="none" stroke="currentColor" stroke-linecap="round" stroke-linejoin="round" stroke-width="1.5"></path><path d="m2.765 5.525 -2.03 0" fill="none" stroke="currentColor" stroke-linecap="round" stroke-linejoin="round" stroke-width="1.5"></path><path d="m2.765 18.475 -2.03 0" fill="none" stroke="currentColor" stroke-linecap="round" stroke-linejoin="round" stroke-width="1.5"></path></svg>
