<svg xmlns="http://www.w3.org/2000/svg" width="24" height="24" viewBox="0 0 24 24">
    <path fill="#000" fill-rule="evenodd" stroke="none" d="M2.118672 1.513632C1.575216 1.566216 1.054104 1.822008 0.6707040000000001 2.224368C0.375408 2.53428 0.179712 2.879544 0.067872 3.2880000000000003L0.012 3.492 0.012 12.048L0.012 20.604 0.06432 20.79996C0.28888800000000003 21.64092 0.954024 22.275696 1.8 22.456416C1.9952400000000001 22.498128 2.431128 22.5 11.952 22.5C21.481199999999998 22.5 21.90852 22.498152 22.102656 22.456319999999998C22.835424 22.2984 23.434128 21.82896 23.760984 21.156C23.872224000000003 20.926944000000002 23.973264 20.601648 23.9784 20.455992L23.980776 20.388 24 20.448C24.01056 20.481 24.02028 16.697664 24.0216 12.040583999999999C24.023208 6.401136 24.015984000000003 3.578112 24 3.588C23.986104 3.5965920000000002 23.976 3.573528 23.976 3.5332559999999997C23.976 3.312768 23.801688 2.855496 23.603496 2.556C23.210568 1.962288 22.587432 1.588536 21.864 1.51272C21.588288 1.483824 2.4176159999999998 1.484712 2.118672 1.513632M2.19252 3.0249360000000003C1.950936 3.0727680000000004 1.6848720000000001 3.285744 1.5791279999999999 3.516C1.5243360000000001 3.63528 1.523952 3.643008 1.517136 4.8180000000000005L1.510272 6 11.999784 6L22.489296 6 22.482648 4.8180000000000005L22.476 3.636 22.413936 3.504C22.299456 3.260568 22.058448 3.0745199999999997 21.792144 3.0240240000000003C21.636744 2.994552 2.3415120000000003 2.995464 2.19252 3.0249360000000003M0.011856 12.06C0.011856 16.7196 0.014616 18.622224000000003 0.018000000000000002 16.288056C0.021384 13.953888000000001 0.021384 10.141488 0.018000000000000002 7.816056C0.014616 5.490624 0.011856 7.4004 0.011856 12.06M1.512 13.951728000000001C1.512 21.205488 1.492176 20.511672 1.706064 20.745696C1.7776079999999999 20.82396 1.872168 20.895888000000003 1.9495200000000001 20.930832000000002L2.076 20.988 11.856 20.995032000000002C19.081176 21.000216 21.673416 20.994936 21.779208 20.974800000000002C21.857952 20.9598 21.971568 20.922624 22.031664 20.892167999999998C22.168896 20.822616 22.355256 20.625384 22.423704 20.477208L22.476 20.364 22.482167999999998 13.938L22.48836 7.5120000000000005 12.000168 7.5120000000000005L1.512 7.5120000000000005 1.512 13.951728000000001M7.36608 10.512912C7.305648 10.522776 7.208448 10.554696 7.150080000000001 10.583808000000001C7.075608 10.621008 6.571752 11.10972 5.45868 12.224400000000001C4.20744 13.47744 3.8611920000000004 13.837296 3.815592 13.932C3.7708079999999997 14.025048 3.7576320000000005 14.092416 3.7569120000000003 14.232000000000001C3.7551360000000003 14.579927999999999 3.6584640000000004 14.464056 5.442888 16.252296C6.580896 17.392752 7.074864 17.872056 7.161887999999999 17.920296C7.2705839999999995 17.98056 7.307735999999999 17.987976 7.5 17.987832C7.678728 17.987688 7.733784 17.978184 7.8190800000000005 17.9328C7.977816 17.848296 8.103984 17.72112 8.177184 17.571863999999998C8.2686 17.38536 8.271696 17.111328 8.184432 16.932C8.139216000000001 16.83912 7.837128000000001 16.521816 6.847320000000001 15.527591999999999L5.568624000000001 14.243208 6.841056 12.971592C8.280792 11.53284 8.24412 11.577984 8.243304 11.244C8.24292 11.08824 8.231664 11.029944 8.183736 10.935144C8.027256 10.625736 7.702488000000001 10.458024 7.36608 10.512912M13.349352 10.512792000000001C13.206456000000001 10.541928 13.016352 10.650432 12.931655999999998 10.751184C12.892464 10.79784 12.162048 12.231792 11.30856 13.937736000000001L9.75672 17.039472 9.756359999999999 17.237736C9.756048 17.40684 9.765912 17.45616 9.823344 17.573136C10.057272 18.049488 10.701528 18.144768000000003 11.053583999999999 17.75508C11.108544 17.69424 11.661840000000002 16.612464000000003 12.690312 14.555064L14.244 11.446944 14.243208 11.249472C14.242512 11.07168 14.234352 11.036928000000001 14.161296 10.900896000000001C14.002632 10.60548 13.671408000000001 10.447152 13.349352 10.512792000000001M16.36608 10.512912C16.141176 10.549608000000001 15.928728 10.712760000000001 15.816264 10.935144C15.768336 11.029944 15.75708 11.08824 15.756696 11.244C15.755880000000001 11.577984 15.719208 11.53284 17.158944 12.971592L18.431376 14.243208 17.15268 15.527591999999999C16.162872 16.521816 15.860784 16.83912 15.815567999999999 16.932C15.728304 17.111328 15.7314 17.38536 15.822816 17.571863999999998C15.896016 17.72112 16.022184 17.848296 16.18092 17.9328C16.266216 17.978184 16.321272 17.987688 16.5 17.987832C16.692263999999998 17.987976 16.729416 17.98056 16.838112 17.920296C16.925136000000002 17.872056 17.419104 17.392752 18.557112 16.252296C20.341535999999998 14.464056 20.244864 14.579927999999999 20.243088 14.232000000000001C20.242368000000003 14.092416 20.229192 14.025048 20.184408 13.932C20.138856 13.837368000000001 19.791576 13.476168 18.54132 12.223104C17.156328 10.834968 16.93932 10.626816 16.824 10.575768C16.671048 10.508064000000001 16.521552 10.487544 16.36608 10.512912"/>
</svg>
