<svg xmlns="http://www.w3.org/2000/svg" width="13" height="12" fill="none" viewBox="0 0 13 12">
    <path fill="currentColor" d="M6.5.03a6 6 0 0 0-6 5.955A5.865 5.865 0 0 0 1.57 9.37l-.68 2a.255.255 0 0 0 .06.255.25.25 0 0 0 .255.06L3.3 11.02A5.97 5.97 0 1 0 6.5.03Zm3.6 8.36a1.95 1.95 0 0 1-1.75 1.045 5.405 5.405 0 0 1-1.73-.5 6.94 6.94 0 0 1-2.97-2.58c-.96-1.265-1-2.45-.085-3.43a1.105 1.105 0 0 1 .96-.28.765.765 0 0 1 .6.44l.195.46.315.755a.55.55 0 0 1 0 .5 2.595 2.595 0 0 1-.5.685c.26.388.561.747.9 1.07a4.5 4.5 0 0 0 1.365.82c.14-.185.41-.5.5-.64a.5.5 0 0 1 .67-.175c.19.065 1.255.59 1.255.59.136.044.255.13.34.245a1 1 0 0 1-.065.995Z"/>
</svg>
