<svg xmlns="http://www.w3.org/2000/svg" viewBox="0 0 24 24">
    <path d="M5.9 5.12V9.38a.75.75 0 0 0 1.5 0V5.12l2.85-3.8A.75.75 0 1 0 9 .42l-2.4 3.2L4.25.42a.75.75 0 1 0-1.2.9ZM9.45 4.88v3a2.25 2.25 0 0 0 4.5 0v-3a2.25 2.25 0 1 0-4.5 0Zm1.5 0a.75.75 0 1 1 1.5 0v3a.75.75 0 0 1-1.5 0ZM15.81 9.32a2.73 2.73 0 0 0 1.94.8h0a2.72 2.72 0 0 0 1.36-.38.74.74 0 0 0 .64.38.75.75 0 0 0 .75-.75v-2h0v-4a.75.75 0 0 0-1.5 0v4a1.25 1.25 0 0 1-1.25 1.25h0A1.25 1.25 0 0 1 16.5 7.37v-4a.75.75 0 1 0-1.5 0v4A2.73 2.73 0 0 0 15.81 9.32ZM18.5 17.37a.5.5 0 0 0-1 0v.5h1ZM14 16.87a.5.5 0 0 0-.5.5v2a.5.5 0 0 0 1 0v-2A.5.5 0 0 0 14 16.87Z"/>
    <path d="M19,11.87H5a4.5,4.5,0,0,0-4.5,4.5v3A4.5,4.5,0,0,0,5,23.87H19a4.5,4.5,0,0,0,4.5-4.5v-3A4.5,4.5,0,0,0,19,11.87Zm-11,4H6.5v4.48a.5.5,0,0,1-1,0V15.87H4a.5.5,0,0,1,0-1H8a.5.5,0,1,1,0,1Zm3.48,3.5v1a.5.5,0,0,1-.86.35,1.48,1.48,0,0,1-.64.15,1.5,1.5,0,0,1-1.5-1.5v-3a.5.5,0,0,1,1,0v3a.5.5,0,0,0,1,0v-3a.5.5,0,0,1,1,0Zm4,0a1.5,1.5,0,0,1-1.5,1.5,1.48,1.48,0,0,1-.66-.16.5.5,0,0,1-.84-.36v-6a.5.5,0,0,1,1,0V16a1.48,1.48,0,0,1,.5-.09,1.5,1.5,0,0,1,1.5,1.5Zm2.59,1.5a1.69,1.69,0,0,1-1.59-1.62V17.37a1.5,1.5,0,0,1,3,0v1a.5.5,0,0,1-.5.5H17.5v.38a.7.7,0,0,0,.59.62c.23,0,.59-.1.59-.37a.5.5,0,0,1,1,0A1.46,1.46,0,0,1,18.09,20.87Z"/>
</svg>
