<?xml version="1.0" encoding="utf-8"?>
<!-- Generator: Adobe Illustrator 22.1.0, SVG Export Plug-In . SVG Version: 6.00 Build 0)  -->
<svg version="1.1" id="Layer_1" xmlns="http://www.w3.org/2000/svg" xmlns:xlink="http://www.w3.org/1999/xlink" x="0px" y="0px"
	 viewBox="0 0 24 24" style="enable-background:new 0 0 24 24;" xml:space="preserve">
<title>accounting-coins</title>
<g>
	<path d="M15.753,16.497c-4.549,0-8.25-3.701-8.25-8.25s3.701-8.25,8.25-8.25s8.25,3.701,8.25,8.25S20.302,16.497,15.753,16.497z
		 M15.753,1.497c-3.722,0-6.75,3.028-6.75,6.75s3.028,6.75,6.75,6.75c3.722,0,6.75-3.028,6.75-6.75S19.475,1.497,15.753,1.497z"/>
	<path d="M8.253,20.997c-0.414,0-0.75-0.336-0.75-0.75v-0.75h-0.75c-0.414,0-0.75-0.336-0.75-0.75s0.336-0.75,0.75-0.75h2.032
		c0.242,0,0.458-0.146,0.548-0.371c0.059-0.146,0.057-0.307-0.005-0.453c-0.062-0.146-0.177-0.259-0.323-0.317L6.943,16.03
		c-0.798-0.319-1.314-1.081-1.314-1.941c0-0.414,0.336-0.75,0.75-0.75c0.414,0,0.75,0.336,0.75,0.75
		c0,0.243,0.146,0.458,0.372,0.549l2.064,0.826c0.519,0.208,0.925,0.607,1.144,1.121c0.219,0.514,0.225,1.083,0.017,1.601
		c-0.293,0.728-0.955,1.221-1.722,1.3v0.761C9.003,20.661,8.667,20.997,8.253,20.997z"/>
	<path d="M8.257,24.004c-3.307,0-6.286-1.959-7.589-4.991c-1.797-4.179,0.141-9.041,4.32-10.838
		c0.095-0.041,0.194-0.061,0.296-0.061c0.3,0,0.571,0.178,0.689,0.454C6.136,8.948,5.96,9.39,5.58,9.553
		c-1.656,0.712-2.936,2.027-3.604,3.702c-0.668,1.675-0.643,3.509,0.069,5.166c1.067,2.481,3.505,4.084,6.21,4.084c0,0,0,0,0,0
		c0.916,0,1.81-0.185,2.657-0.549c1.594-0.686,2.85-1.941,3.535-3.536c0.118-0.276,0.389-0.454,0.689-0.454
		c0.102,0,0.202,0.021,0.297,0.061c0.38,0.163,0.556,0.605,0.393,0.985c-0.837,1.948-2.372,3.483-4.32,4.321
		C10.47,23.778,9.378,24.004,8.257,24.004L8.257,24.004z"/>
	<path d="M15.753,13.497c-0.414,0-0.75-0.336-0.75-0.75v-0.75h-0.75c-0.414,0-0.75-0.336-0.75-0.75s0.336-0.75,0.75-0.75h2.031
		c0.242,0,0.458-0.146,0.548-0.371c0.059-0.147,0.057-0.308-0.004-0.453c-0.062-0.145-0.177-0.258-0.324-0.317L14.441,8.53
		c-0.797-0.321-1.312-1.082-1.312-1.94c0-0.558,0.217-1.084,0.612-1.479c0.344-0.344,0.785-0.553,1.262-0.603V3.747
		c0-0.414,0.336-0.75,0.75-0.75c0.414,0,0.75,0.336,0.75,0.75v0.75h0.75c0.414,0,0.75,0.336,0.75,0.75s-0.336,0.75-0.75,0.75H15.22
		c-0.158,0-0.306,0.062-0.418,0.174c-0.112,0.112-0.174,0.261-0.173,0.419c0,0.243,0.146,0.458,0.371,0.549l2.063,0.826
		c0.519,0.209,0.926,0.607,1.145,1.121c0.219,0.515,0.225,1.083,0.016,1.601c-0.293,0.727-0.954,1.22-1.721,1.299v0.761
		C16.503,13.161,16.167,13.497,15.753,13.497z"/>
</g>
</svg>
