<?xml version="1.0" encoding="utf-8"?>
<!-- Generator: Adobe Illustrator 22.1.0, SVG Export Plug-In . SVG Version: 6.00 Build 0)  -->
<svg version="1.1" id="Layer_1" xmlns="http://www.w3.org/2000/svg" xmlns:xlink="http://www.w3.org/1999/xlink" x="0px" y="0px"
	 viewBox="0 0 24 24" style="enable-background:new 0 0 24 24;" xml:space="preserve">
<title>alarm-clock</title>
<g>
	<path d="M18,24c-0.286,0-0.543-0.159-0.671-0.415l-1.04-2.081C14.96,22.157,13.486,22.5,12,22.5c-1.486,0-2.96-0.343-4.289-0.995
		L6.67,23.585C6.543,23.841,6.286,24,6,24c-0.115,0-0.231-0.027-0.335-0.079c-0.37-0.185-0.521-0.636-0.336-1.006l1.089-2.177
		C3.802,18.906,2.25,15.945,2.25,12.75C2.25,7.374,6.624,3,12,3s9.75,4.374,9.75,9.75c0,3.195-1.552,6.156-4.168,7.987l1.089,2.177
		c0.185,0.37,0.034,0.821-0.335,1.006C18.231,23.973,18.115,24,18,24z M12,4.5c-4.549,0-8.25,3.701-8.25,8.25S7.451,21,12,21
		s8.25-3.701,8.25-8.25S16.549,4.5,12,4.5z"/>
	<path d="M8.609,13.5c-0.414,0-0.75-0.336-0.75-0.75S8.195,12,8.609,12h2.641V7.5c0-0.414,0.336-0.75,0.75-0.75
		s0.75,0.336,0.75,0.75v5.25c0,0.414-0.336,0.75-0.75,0.75H8.609z"/>
	<path d="M1.5,4.5c-0.229,0-0.443-0.103-0.586-0.281C0.656,3.896,0.708,3.423,1.031,3.164l3.75-3C4.914,0.058,5.08,0,5.25,0
		c0.229,0,0.443,0.103,0.586,0.282c0.258,0.323,0.206,0.796-0.117,1.054l-3.75,3C1.836,4.442,1.67,4.5,1.5,4.5z"/>
	<path d="M22.5,4.5c-0.169,0-0.335-0.058-0.468-0.164l-3.75-3c-0.323-0.258-0.375-0.731-0.117-1.054C18.307,0.103,18.521,0,18.75,0
		c0.169,0,0.335,0.058,0.468,0.164l3.751,3c0.323,0.258,0.375,0.731,0.117,1.054C22.942,4.397,22.729,4.5,22.5,4.5z"/>
</g>
</svg>
