<?xml version="1.0" encoding="utf-8"?>
<!-- Generator: Adobe Illustrator 22.1.0, SVG Export Plug-In . SVG Version: 6.00 Build 0)  -->
<svg version="1.1" id="Regular" xmlns="http://www.w3.org/2000/svg" xmlns:xlink="http://www.w3.org/1999/xlink" x="0px" y="0px"
	 viewBox="0 0 24 24" style="enable-background:new 0 0 24 24;" xml:space="preserve">
<title>arrow-down-1</title>
<g>
	<path d="M12,18.999c-0.4,0-0.776-0.156-1.059-0.438L0.22,7.841C0.078,7.699,0,7.511,0,7.31c0-0.2,0.078-0.389,0.22-0.53
		c0.142-0.142,0.33-0.22,0.53-0.22s0.389,0.078,0.53,0.22L12,17.499L22.72,6.78c0.142-0.142,0.33-0.22,0.53-0.22
		s0.389,0.078,0.53,0.22C23.922,6.922,24,7.11,24,7.31c0,0.2-0.078,0.389-0.22,0.53L13.06,18.56
		C12.778,18.843,12.401,18.999,12,18.999z"/>
</g>
</svg>
