<?xml version="1.0" encoding="utf-8"?>
<!-- Generator: Adobe Illustrator 22.1.0, SVG Export Plug-In . SVG Version: 6.00 Build 0)  -->
<svg version="1.1" id="Regular" xmlns="http://www.w3.org/2000/svg" xmlns:xlink="http://www.w3.org/1999/xlink" x="0px" y="0px"
	 viewBox="0 0 24 24" style="enable-background:new 0 0 24 24;" xml:space="preserve">
<title>arrow-left-1</title>
<g>
	<path d="M16.25,24c-0.2,0-0.389-0.078-0.53-0.22L5,13.06c-0.283-0.283-0.439-0.659-0.439-1.059c0-0.4,0.155-0.777,0.438-1.06
		L15.72,0.22C15.861,0.078,16.05,0,16.25,0s0.389,0.078,0.53,0.22C16.922,0.361,17,0.55,17,0.75s-0.078,0.389-0.22,0.53L6.06,12
		L16.78,22.72c0.142,0.142,0.22,0.33,0.22,0.53s-0.078,0.389-0.22,0.53S16.45,24,16.25,24z"/>
</g>
</svg>
