<?xml version="1.0" encoding="utf-8"?>
<!-- Generator: Adobe Illustrator 22.1.0, SVG Export Plug-In . SVG Version: 6.00 Build 0)  -->
<svg version="1.1" id="Layer_1" xmlns="http://www.w3.org/2000/svg" xmlns:xlink="http://www.w3.org/1999/xlink" x="0px" y="0px"
	 viewBox="0 0 24 24" style="enable-background:new 0 0 24 24;" xml:space="preserve">
<title>newspaper-fold</title>
<g>
	<path d="M3,23.25c-1.654,0-3-1.346-3-3V3c0-1.241,1.009-2.25,2.25-2.25h15c1.241,0,2.25,1.009,2.25,2.25v17.25
		c0,0.827,0.673,1.5,1.5,1.5s1.5-0.673,1.5-1.5V6c0-0.414,0.336-0.75,0.75-0.75S24,5.586,24,6v14.25c0,1.654-1.346,3-3,3H3z
		 M2.25,2.25C1.836,2.25,1.5,2.586,1.5,3v17.25c0,0.827,0.673,1.5,1.5,1.5h15.401C18.139,21.299,18,20.786,18,20.25V3
		c0-0.414-0.336-0.75-0.75-0.75H2.25z"/>
	<path d="M4.5,15.75c-0.414,0-0.75-0.336-0.75-0.75s0.336-0.75,0.75-0.75H15c0.414,0,0.75,0.336,0.75,0.75s-0.336,0.75-0.75,0.75
		H4.5z"/>
	<path d="M4.5,18.75c-0.414,0-0.75-0.336-0.75-0.75s0.336-0.75,0.75-0.75h6c0.414,0,0.75,0.336,0.75,0.75s-0.336,0.75-0.75,0.75H4.5
		z"/>
	<path d="M5.25,12c-0.827,0-1.5-0.673-1.5-1.5V6c0-0.827,0.673-1.5,1.5-1.5h9c0.827,0,1.5,0.673,1.5,1.5v4.5
		c0,0.827-0.673,1.5-1.5,1.5H5.25z M5.25,10.5h9V6h-9V10.5z"/>
</g>
</svg>
