<?xml version="1.0" encoding="utf-8"?>
<!-- Generator: Adobe Illustrator 22.1.0, SVG Export Plug-In . SVG Version: 6.00 Build 0)  -->
<svg version="1.1" id="Layer_1" xmlns="http://www.w3.org/2000/svg" xmlns:xlink="http://www.w3.org/1999/xlink" x="0px" y="0px"
	 viewBox="0 0 24 24" style="enable-background:new 0 0 24 24;" xml:space="preserve">
<title>layout-5</title>
<g>
	<path d="M3,23.247c-1.241,0-2.25-1.009-2.25-2.25v-18c0-1.241,1.009-2.25,2.25-2.25h18c1.241,0,2.25,1.009,2.25,2.25v18
		c0,1.241-1.009,2.25-2.25,2.25H3z M21,21.747c0.414,0,0.75-0.336,0.75-0.75v-5.25H8.25v6H21z M2.25,20.997
		c0,0.414,0.336,0.75,0.75,0.75h3.75v-13.5h-4.5V20.997z M21.75,14.247v-6H8.25v6H21.75z M21.75,6.747v-3.75
		c0-0.414-0.336-0.75-0.75-0.75H3c-0.414,0-0.75,0.336-0.75,0.75v3.75H21.75z"/>
</g>
</svg>
