<?xml version="1.0" encoding="utf-8"?>
<!-- Generator: Adobe Illustrator 22.1.0, SVG Export Plug-In . SVG Version: 6.00 Build 0)  -->
<svg version="1.1" id="Layer_1" xmlns="http://www.w3.org/2000/svg" xmlns:xlink="http://www.w3.org/1999/xlink" x="0px" y="0px"
	 viewBox="0 0 24 24" style="enable-background:new 0 0 24 24;" xml:space="preserve">
<title>briefcase</title>
<g>
	<path d="M2.25,23.25C1.009,23.25,0,22.241,0,21V7.5c0-1.241,1.009-2.25,2.25-2.25H3V4.5c0-0.414,0.336-0.75,0.75-0.75
		S4.5,4.086,4.5,4.5v0.75h2.459l0.987-2.962c0.307-0.92,1.165-1.538,2.134-1.538h3.838c0.97,0,1.827,0.618,2.135,1.538l0.987,2.962
		H19.5V4.5c0-0.414,0.336-0.75,0.75-0.75S21,4.086,21,4.5v0.75h0.75C22.991,5.25,24,6.259,24,7.5V21c0,1.241-1.009,2.25-2.25,2.25
		H2.25z M2.25,6.75C1.836,6.75,1.5,7.086,1.5,7.5V21c0,0.414,0.336,0.75,0.75,0.75h19.5c0.414,0,0.75-0.336,0.75-0.75V7.5
		c0-0.414-0.336-0.75-0.75-0.75H2.25z M15.459,5.25l-0.829-2.488c-0.102-0.306-0.388-0.512-0.711-0.512h-3.838
		c-0.323,0-0.609,0.206-0.711,0.513L8.541,5.25H15.459z"/>
	<path d="M5.25,12c-0.414,0-0.75-0.336-0.75-0.75s0.336-0.75,0.75-0.75h13.5c0.414,0,0.75,0.336,0.75,0.75S19.164,12,18.75,12H5.25z
		"/>
	<path d="M5.25,18c-0.414,0-0.75-0.336-0.75-0.75s0.336-0.75,0.75-0.75h13.5c0.414,0,0.75,0.336,0.75,0.75S19.164,18,18.75,18H5.25z
		"/>
</g>
</svg>
