<svg xmlns="http://www.w3.org/2000/svg" viewBox="0 0 32 32">
    <path fill="#444" d="M16 0C7.2 0 0 7.2 0 16s7.2 16 16 16 16-7.2 16-16S24.8 0 16 0zm0 30C8.2 30 2 23.8 2 16c0-3.8 1.6-7.2 4-9.6.2.4.4.8.2 1.2-.4.6-.6 1.2-.4 2 .4.4.8 1.6 1 2s.6 1.2.8 1.2c.2-.2-.8-1.4-.4-1.6s.6.2.8.8c.2.6 0 1.6.6 2s1.4 1.2 2 1 .8.2 1.2.6c.4.2.2 1 .8 1s1-.4 1 .4-1 1.2-.4 2.6C13.6 21 15 21.8 15 23s-.2 3.6-.6 4.2 0 1-.2 1.6c-.2.4-.2.8-.4 1 .4 0 .8.2 1.2.2.2-.2.2-.4.4-.6.8-1 .6-1.4 2-2s2-1 2-1.8.8-.6 1.4-1.6c.8-1 .8-2.6 1.6-3s.4-1.4-1-1.4-1.8-.8-2.2-.6.8-1-.4-1.2c-.8-.4-1.2 0-1.4-.4-.2-.2.6-1.4-.6-1.4-1 0-2.2-.2-2.6 0-.6.2-1.2 0-1.4-.2s.2-1-.4-1c-.4 0-.8-.6-.6-.8.2-.4.4-.8 0-.6-.6.2-1.2.8-1.4.4s-.8-2.6.4-2.6 1.8-.4 2.2.6.6.6.4-.2 1-3.6 1.6-3.4c.6.2 1.2.4 1.2 0s-1.4-.8-.6-1 1.6.6 1-.4C15.8 5.6 14.2 4 13.8 5s.6 1.8-.4 1.8-2.4-.8-2-1.6 1.6-1.4.2-1.4H9.4c1.2-.8 2.6-1.4 4.2-1.6.2 0 .6.2 1.4.8.8.8 1 1.6 1.8 1.6.8.2.6.6 1 .4.4 0-.2-.6.4-1s.8-.6.4-1.2c-.2 0-.4-.4-.4-.6 4.8.8 8.8 4 10.6 8.2-.2.2-.4.4-.6.8-.6 1.2-1.6 1.6-2 2.4s-1.4 2-.2 3 2 1 3 .8h1v-1.6c0 8-6.2 14.2-14 14.2z"/>
</svg>
