<?xml version="1.0" encoding="utf-8"?>
<!-- Generator: Adobe Illustrator 22.1.0, SVG Export Plug-In . SVG Version: 6.00 Build 0)  -->
<svg version="1.1" id="Layer_1" xmlns="http://www.w3.org/2000/svg" xmlns:xlink="http://www.w3.org/1999/xlink" x="0px" y="0px"
	 viewBox="0 0 24 24" style="enable-background:new 0 0 24 24;" xml:space="preserve">
<title>calendar-3</title>
<g>
	<path d="M2.25,24C1.009,24,0,22.991,0,21.75V5.25C0,4.009,1.009,3,2.25,3H6V0.75C6,0.336,6.336,0,6.75,0S7.5,0.336,7.5,0.75V3h9
		V0.75C16.5,0.336,16.836,0,17.25,0S18,0.336,18,0.75V3h3.75C22.991,3,24,4.009,24,5.25v16.5c0,1.241-1.009,2.25-2.25,2.25H2.25z
		 M1.5,21.75c0,0.414,0.336,0.75,0.75,0.75h19.5c0.414,0,0.75-0.336,0.75-0.75V10.5h-21V21.75z M22.5,9V5.25
		c0-0.414-0.336-0.75-0.75-0.75H18V6c0,0.414-0.336,0.75-0.75,0.75S16.5,6.414,16.5,6V4.5h-9V6c0,0.414-0.336,0.75-0.75,0.75
		S6,6.414,6,6V4.5H2.25C1.836,4.5,1.5,4.836,1.5,5.25V9H22.5z"/>
	<circle cx="5.625" cy="13.875" r="1.125"/>
	<circle cx="5.625" cy="19.125" r="1.125"/>
	<circle cx="12" cy="13.875" r="1.125"/>
	<circle cx="12" cy="19.125" r="1.125"/>
	<circle cx="18.375" cy="13.875" r="1.125"/>
	<path d="M18.375,20.25c-0.62,0-1.125-0.505-1.125-1.125S17.755,18,18.375,18c0.014,0,0.03,0.001,0.046,0.003
		c0.01,0.001,0.019,0.002,0.027,0.003c0.583,0.029,1.052,0.521,1.052,1.12C19.5,19.745,18.995,20.25,18.375,20.25z"/>
</g>
</svg>
