<?xml version="1.0" encoding="utf-8"?>
<!-- Generator: Adobe Illustrator 22.1.0, SVG Export Plug-In . SVG Version: 6.00 Build 0)  -->
<svg version="1.1" id="Layer_1" xmlns="http://www.w3.org/2000/svg" xmlns:xlink="http://www.w3.org/1999/xlink" x="0px" y="0px"
	 viewBox="0 0 24 24" style="enable-background:new 0 0 24 24;" xml:space="preserve">
<title>phone</title>
<g>
	<path d="M18.023,24.039c-1.193,0-2.362-0.343-3.382-0.992c-0.003-0.002-0.026-0.017-0.029-0.018
		C9.219,19.383,4.637,14.8,0.993,9.406C-0.613,6.882-0.266,3.659,1.833,1.56l0.774-0.774c0.49-0.489,1.141-0.758,1.835-0.758
		c0.694,0,1.345,0.269,1.834,0.758c0,0,3.262,3.266,3.262,3.266c1.01,1.012,1.009,2.657-0.002,3.667
		C9.11,8.146,9.11,8.841,9.537,9.268c0,0,5.228,5.229,5.232,5.233c0.193,0.192,0.468,0.306,0.76,0.306
		c0.292,0,0.567-0.114,0.773-0.32c0.49-0.489,1.141-0.759,1.835-0.759s1.345,0.269,1.835,0.758l3.261,3.26
		c1.011,1.012,1.011,2.658,0,3.669l-0.774,0.774C21.266,23.382,19.69,24.039,18.023,24.039z M15.442,21.779
		c0.798,0.5,1.683,0.757,2.583,0.757c1.267,0,2.464-0.5,3.372-1.408l0.774-0.774c0.426-0.427,0.426-1.122,0-1.549l-3.26-3.259
		c-0.206-0.206-0.481-0.319-0.774-0.319s-0.568,0.114-0.774,0.32c-0.489,0.489-1.141,0.759-1.834,0.759
		c-0.689,0-1.337-0.266-1.824-0.75l-5.228-5.229c-1.011-1.012-1.011-2.658,0-3.669C8.901,6.233,8.903,5.54,8.478,5.113
		C8.473,5.108,8.456,5.09,8.451,5.085L5.215,1.846C5.009,1.641,4.734,1.528,4.442,1.528c-0.293,0-0.568,0.114-0.775,0.32
		L2.893,2.621C1.296,4.218,1.027,6.666,2.24,8.572C5.77,13.797,10.213,18.243,15.442,21.779L15.442,21.779z"/>
</g>
</svg>
