<?xml version="1.0" encoding="utf-8"?>
<!-- Generator: Adobe Illustrator 22.1.0, SVG Export Plug-In . SVG Version: 6.00 Build 0)  -->
<svg version="1.1" id="Layer_1" xmlns="http://www.w3.org/2000/svg" xmlns:xlink="http://www.w3.org/1999/xlink" x="0px" y="0px"
	 viewBox="0 0 24 24" style="enable-background:new 0 0 24 24;" xml:space="preserve">
<title>certified-diploma-1</title>
<g>
	<path d="M0.75,18C0.336,18,0,17.664,0,17.25V0.75C0,0.336,0.336,0,0.75,0h22.5C23.664,0,24,0.336,24,0.75v4.5
		C24,5.663,23.664,6,23.25,6S22.5,5.663,22.5,5.25V1.5h-4.939l3.22,3.22C20.922,4.861,21,5.049,21,5.25s-0.078,0.389-0.22,0.53
		S20.45,6,20.25,6s-0.389-0.078-0.53-0.22l-4.28-4.28H8.561L1.5,8.56v0.879L8.561,16.5h2.689c0.414,0,0.75,0.336,0.75,0.75
		S11.664,18,11.25,18H0.75z M6.439,16.5L1.5,11.56V16.5H6.439z M1.5,6.439L6.439,1.5H1.5V6.439z"/>
	<path d="M16.176,23.997c-0.09,0-0.18-0.008-0.268-0.024c-0.394-0.071-0.737-0.292-0.965-0.622
		c-0.229-0.329-0.315-0.728-0.243-1.123l0.736-5.416c-1.233-1.005-1.935-2.473-1.935-4.062c0-2.895,2.355-5.25,5.25-5.25
		S24,9.855,24,12.75c0,1.584-0.699,3.05-1.926,4.054l0.742,5.457c0.084,0.456-0.072,0.947-0.419,1.295
		c-0.283,0.284-0.661,0.441-1.063,0.441l0,0c-0.4,0-0.777-0.155-1.06-0.437l-1.52-1.52l-1.519,1.519
		C16.953,23.841,16.576,23.997,16.176,23.997z M16.18,22.463l-0.004,0.037l2.048-2.052c0.136-0.137,0.33-0.216,0.53-0.216
		c0.2,0,0.394,0.079,0.531,0.216l2.049,2.05l-0.662-4.865C20.06,17.876,19.415,18,18.75,18c-0.661,0-1.302-0.122-1.913-0.364
		L16.18,22.463z M18.75,9C16.682,9,15,10.682,15,12.75s1.682,3.75,3.75,3.75s3.75-1.682,3.75-3.75S20.818,9,18.75,9z"/>
	<circle cx="18.75" cy="12.75" r="1.125"/>
</g>
</svg>
