<svg xmlns="http://www.w3.org/2000/svg" viewBox="0 0 24 24"><title>certified-diploma-1</title><path d="M23.047,11.375a2.724,2.724,0,0,0-2.241-1.369,2.743,2.743,0,0,0-4.61,0A2.745,2.745,0,0,0,13.891,14,2.726,2.726,0,0,0,15,17.644V23.5a.5.5,0,0,0,.82.385L18.5,21.65l2.68,2.235A.5.5,0,0,0,22,23.5V17.644A2.725,2.725,0,0,0,23.112,14,2.723,2.723,0,0,0,23.047,11.375ZM15.366,13.53a1.243,1.243,0,0,1,1.161-2.01.751.751,0,0,0,.813-.471,1.243,1.243,0,0,1,2.322,0,.753.753,0,0,0,.813.469,1.243,1.243,0,0,1,1.161,2.012.752.752,0,0,0,0,.941,1.242,1.242,0,0,1-1.161,2.009.759.759,0,0,0-.812.469,1.243,1.243,0,0,1-2.323,0,.75.75,0,0,0-.7-.478.891.891,0,0,0-.115.009,1.244,1.244,0,0,1-1.162-2.013A.75.75,0,0,0,15.366,13.53Z"/><circle cx="18.5" cy="14" r="2"/><path d="M22.5,0H1.5A1.5,1.5,0,0,0,0,1.5v14A1.5,1.5,0,0,0,1.5,17H12a.5.5,0,0,0,.5-.5v-2A.5.5,0,0,0,12,14H6.175a.25.25,0,0,1-.245-.2A3.511,3.511,0,0,0,3.2,11.07a.249.249,0,0,1-.2-.245V6.045a.093.093,0,0,1,.078-.092A3.511,3.511,0,0,0,5.93,3.2.249.249,0,0,1,6.175,3h11.65a.249.249,0,0,1,.245.2A3.512,3.512,0,0,0,20.8,5.93a.249.249,0,0,1,.2.245V8a.5.5,0,0,0,.276.447l2,1A.5.5,0,0,0,24,9V1.5A1.5,1.5,0,0,0,22.5,0Z"/></svg>