<?xml version="1.0" encoding="utf-8"?>
<!-- Generator: Adobe Illustrator 22.1.0, SVG Export Plug-In . SVG Version: 6.00 Build 0)  -->
<svg version="1.1" id="Layer_1" xmlns="http://www.w3.org/2000/svg" xmlns:xlink="http://www.w3.org/1999/xlink" x="0px" y="0px"
	 viewBox="0 0 24 24" style="enable-background:new 0 0 24 24;" xml:space="preserve">
<title>flash</title>
<g>
	<path d="M5.5,23.997c-0.15,0-0.295-0.044-0.42-0.129c-0.297-0.201-0.411-0.587-0.269-0.917l4.052-9.454L5.9,13.497
		c-0.402,0-0.776-0.155-1.059-0.435C4.557,12.78,4.4,12.404,4.398,12.003c-0.001-0.208,0.041-0.411,0.124-0.602L9.113,0.9
		C9.351,0.353,9.891,0,10.487,0h7.7c0.401,0,0.778,0.156,1.061,0.44c0.283,0.284,0.439,0.661,0.439,1.061
		c0,0.339-0.117,0.672-0.33,0.938L15.307,7.5l3.383,0c0.827,0,1.5,0.673,1.5,1.499c0,0.402-0.156,0.779-0.441,1.063L6.03,23.777
		C5.889,23.919,5.7,23.997,5.5,23.997z M8.863,11.997c0.205,0.001,0.402,0.041,0.589,0.121c0.368,0.157,0.653,0.449,0.803,0.821
		c0.149,0.372,0.145,0.78-0.013,1.149l-2.519,5.877L18.69,9l-3.382,0c-0.339,0-0.672-0.117-0.936-0.328
		c-0.646-0.516-0.752-1.461-0.236-2.108L18.187,1.5l-7.699,0L5.897,12L8.863,11.997z"/>
</g>
</svg>
