<?xml version="1.0" encoding="utf-8"?>
<!-- Generator: Adobe Illustrator 22.1.0, SVG Export Plug-In . SVG Version: 6.00 Build 0)  -->
<svg version="1.1" id="Layer_1" xmlns="http://www.w3.org/2000/svg" xmlns:xlink="http://www.w3.org/1999/xlink" x="0px" y="0px"
	 viewBox="0 0 24 24" style="enable-background:new 0 0 24 24;" xml:space="preserve">
<title>conversation-chat-2</title>
<g>
	<path d="M20.247,24c-0.2,0-0.389-0.078-0.53-0.22l-4.28-4.28h-0.439c-3.308,0-6-2.692-6-6s2.692-6,6-6h3c3.309,0.001,6,2.692,6,6
		c-0.004,2.149-1.147,4.113-3,5.179v4.571c0,0.304-0.182,0.576-0.463,0.693C20.443,23.981,20.347,24,20.247,24z M14.997,9
		c-2.481,0-4.5,2.019-4.5,4.5c0,2.481,2.019,4.5,4.5,4.5h0.75c0.198,0,0.391,0.08,0.53,0.22l3.22,3.22v-3.213
		c0-0.289,0.169-0.555,0.429-0.678c1.558-0.736,2.567-2.325,2.571-4.049c0-2.48-2.017-4.499-4.498-4.499H14.997z"/>
	<path d="M3.747,16.5c-0.099,0-0.196-0.019-0.287-0.057c-0.281-0.116-0.463-0.388-0.463-0.693v-4.57
		c-1.231-0.707-2.168-1.825-2.65-3.171c-0.54-1.506-0.46-3.132,0.223-4.578C1.554,1.347,3.68,0,5.985,0h3.012
		c2.633,0,4.999,1.762,5.752,4.286c0.118,0.396-0.108,0.815-0.504,0.933C14.175,5.24,14.103,5.25,14.031,5.25
		c-0.329,0-0.625-0.22-0.719-0.536C12.747,2.822,10.973,1.5,8.997,1.5h-3c-1.74,0-3.333,1.009-4.071,2.572
		C1.414,5.156,1.355,6.374,1.759,7.503c0.404,1.129,1.224,2.032,2.308,2.545c0.261,0.123,0.43,0.39,0.43,0.678v3.214l1.72-1.72
		C6.359,12.078,6.547,12,6.747,12s0.389,0.078,0.53,0.22c0.292,0.292,0.292,0.768,0,1.061l-3,3C4.136,16.422,3.948,16.5,3.747,16.5z
		"/>
</g>
</svg>
