<svg xmlns="http://www.w3.org/2000/svg" viewBox="0 0 24 24"><title>conversation-chat-2</title><path d="M14.5,10.5h4.25a.25.25,0,0,0,.25-.25V5.5A4.505,4.505,0,0,0,14.5,1H4.5A4.505,4.505,0,0,0,0,5.5v4A4.5,4.5,0,0,0,4.5,14H5v3.5a.5.5,0,0,0,.876.329l3.276-3.743A.247.247,0,0,1,9.34,14h1a.249.249,0,0,0,.246-.206A3.991,3.991,0,0,1,14.5,10.5Z"/><path d="M24,14.5A2.5,2.5,0,0,0,21.5,12h-7A2.5,2.5,0,0,0,12,14.5v3A2.5,2.5,0,0,0,14.5,20h1.793l2.853,2.854A.5.5,0,0,0,20,22.5V20h1.5A2.5,2.5,0,0,0,24,17.5Z"/></svg>
