<?xml version="1.0" encoding="utf-8"?>
<!-- Generator: Adobe Illustrator 22.1.0, SVG Export Plug-In . SVG Version: 6.00 Build 0)  -->
<svg version="1.1" id="Layer_1" xmlns="http://www.w3.org/2000/svg" xmlns:xlink="http://www.w3.org/1999/xlink" x="0px" y="0px"
	 viewBox="0 0 24 24" style="enable-background:new 0 0 24 24;" xml:space="preserve">
<title>checklist</title>
<g>
	<path d="M2.25,23.999c-1.241,0-2.25-1.009-2.25-2.25v-19.5c0-1.241,1.009-2.25,2.25-2.25h19.5c1.241,0,2.25,1.009,2.25,2.25v19.5
		c0,1.241-1.009,2.25-2.25,2.25H2.25z M2.25,1.499c-0.414,0-0.75,0.336-0.75,0.75v19.5c0,0.414,0.336,0.75,0.75,0.75h19.5
		c0.414,0,0.75-0.336,0.75-0.75v-19.5c0-0.414-0.336-0.75-0.75-0.75H2.25z"/>
	<path d="M7.5,11.249c-0.2,0-0.389-0.078-0.53-0.22l-3-3c-0.142-0.141-0.22-0.33-0.22-0.53s0.078-0.389,0.22-0.53
		c0.141-0.142,0.33-0.22,0.53-0.22s0.389,0.078,0.53,0.22l2.389,2.388L11.4,4.049c0.141-0.188,0.366-0.3,0.6-0.3
		c0.163,0,0.319,0.052,0.45,0.15c0.16,0.12,0.264,0.296,0.292,0.494c0.028,0.198-0.022,0.396-0.142,0.556l-4.5,6
		c-0.131,0.174-0.33,0.283-0.547,0.298C7.535,11.248,7.517,11.249,7.5,11.249z"/>
	<path d="M14.25,8.999c-0.414,0-0.75-0.336-0.75-0.75s0.336-0.75,0.75-0.75h4.5c0.414,0,0.75,0.336,0.75,0.75s-0.336,0.75-0.75,0.75
		H14.25z"/>
	<path d="M7.5,20.249c-0.2,0-0.389-0.078-0.53-0.22l-3-3c-0.292-0.292-0.292-0.768,0-1.061c0.142-0.142,0.33-0.22,0.53-0.22
		s0.389,0.078,0.53,0.22l2.389,2.389l3.981-5.309c0.141-0.188,0.366-0.3,0.601-0.3c0.163,0,0.319,0.052,0.449,0.15
		c0.331,0.248,0.398,0.719,0.15,1.05l-4.5,6c-0.131,0.174-0.33,0.283-0.547,0.298C7.538,20.248,7.519,20.249,7.5,20.249z"/>
	<path d="M14.25,17.999c-0.414,0-0.75-0.336-0.75-0.75s0.336-0.75,0.75-0.75h4.5c0.414,0,0.75,0.336,0.75,0.75
		s-0.336,0.75-0.75,0.75H14.25z"/>
</g>
</svg>
