<svg xmlns="http://www.w3.org/2000/svg" viewBox="0 0 24 24"><title>professions-woman-chef-1</title><defs><style>.a{fill:none;stroke:currentColor;stroke-linecap:round;stroke-linejoin:round;stroke-width:1.5px;}</style></defs><title>professions-woman-chef-1</title><line class="a" x1="8.249" y1="23.25" x2="16.817" y2="14.682"/><line class="a" x1="7.163" y1="14.663" x2="11.999" y2="19.5"/><line class="a" x1="14.249" y1="23.25" x2="17.565" y2="15.111"/><path class="a" d="M17.249,6V2.25a1.5,1.5,0,0,0-1.5-1.5h-7.5a1.5,1.5,0,0,0-1.5,1.5V6a5.25,5.25,0,1,0,10.5,0Z"/><line class="a" x1="6.749" y1="5.25" x2="17.249" y2="5.25"/><line class="a" x1="12.749" y1="5.25" x2="12.749" y2="0.75"/><path class="a" d="M22.445,23.25a10.5,10.5,0,0,0-20.946,0"/><path class="a" d="M6.8,6.75S6.749,10.5,3.749,12"/><path class="a" d="M17.2,6.75s.053,3.75,3.053,5.25"/></svg>
