<?xml version="1.0" encoding="utf-8"?>
<!-- Generator: Adobe Illustrator 22.1.0, SVG Export Plug-In . SVG Version: 6.00 Build 0)  -->
<svg version="1.1" id="Layer_1" xmlns="http://www.w3.org/2000/svg" xmlns:xlink="http://www.w3.org/1999/xlink" x="0px" y="0px"
	 viewBox="0 0 24 24" style="enable-background:new 0 0 24 24;" xml:space="preserve">
<title>remove-circle</title>
<g>
	<path d="M15.182,15.931c-0.2,0-0.389-0.078-0.53-0.22L12,13.06l-2.652,2.651c-0.142,0.142-0.33,0.22-0.53,0.22
		c-0.201,0-0.389-0.078-0.531-0.22c-0.292-0.292-0.292-0.768,0-1.06L10.939,12L8.288,9.348c-0.142-0.141-0.22-0.33-0.22-0.53
		c0-0.2,0.078-0.389,0.22-0.53c0.141-0.142,0.33-0.22,0.53-0.22s0.389,0.078,0.53,0.22L12,10.939l2.652-2.651
		c0.142-0.142,0.33-0.22,0.53-0.22s0.389,0.078,0.53,0.22c0.142,0.142,0.22,0.33,0.22,0.53c0,0.2-0.078,0.389-0.22,0.53L13.061,12
		l2.652,2.651c0.292,0.292,0.292,0.768,0,1.061C15.571,15.853,15.382,15.931,15.182,15.931z"/>
	<path d="M12,24C5.383,24,0,18.617,0,12C0,5.383,5.383,0,12,0c6.617,0,12,5.383,12,12C24,18.617,18.617,24,12,24z M12,1.5
		C6.21,1.5,1.5,6.21,1.5,12c0,5.79,4.71,10.5,10.5,10.5c5.79,0,10.5-4.71,10.5-10.5C22.5,6.21,17.79,1.5,12,1.5z"/>
</g>
</svg>
