<?xml version="1.0" encoding="utf-8"?>
<!-- Generator: Adobe Illustrator 22.1.0, SVG Export Plug-In . SVG Version: 6.00 Build 0)  -->
<svg version="1.1" id="Layer_1" xmlns="http://www.w3.org/2000/svg" xmlns:xlink="http://www.w3.org/1999/xlink" x="0px" y="0px"
	 viewBox="0 0 24 24" style="enable-background:new 0 0 24 24;" xml:space="preserve">
<title>copy-paste</title>
<g>
	<path d="M2.25,23.998c-1.241,0-2.25-1.009-2.25-2.25v-16.5c0-1.241,1.009-2.25,2.25-2.25h2.959L4.868,1.972
		c-0.127-0.379-0.099-0.785,0.08-1.143C5.126,0.47,5.433,0.203,5.813,0.076C5.968,0.024,6.119-0.003,6.26-0.003l0.049,0.001l8.4,0
		c0.401,0,0.776,0.155,1.059,0.436c0.284,0.283,0.441,0.659,0.442,1.059c0.001,0.164-0.026,0.326-0.078,0.482L15.79,2.998h2.96
		c1.241,0,2.25,1.009,2.25,2.25v3c0,0.414-0.336,0.75-0.75,0.75s-0.75-0.336-0.75-0.75v-3c0-0.414-0.336-0.75-0.75-0.75h-3.46
		l-0.158,0.474c-0.205,0.613-0.776,1.026-1.423,1.026H7.291c-0.646,0-1.218-0.412-1.423-1.025L5.709,4.498H2.25
		c-0.414,0-0.75,0.336-0.75,0.75v16.5c0,0.414,0.336,0.75,0.75,0.75h6c0.414,0,0.75,0.336,0.75,0.75s-0.336,0.75-0.75,0.75H2.25z
		 M6.289,1.498l1.001,3l6.419,0l1-3L6.289,1.498L6.289,1.498z"/>
	<path d="M12.75,23.998c-1.241,0-2.25-1.009-2.25-2.25v-9c0-1.241,1.009-2.25,2.25-2.25h9c1.241,0,2.25,1.009,2.25,2.25v9
		c0,1.241-1.009,2.25-2.25,2.25H12.75z M12.75,11.998c-0.414,0-0.75,0.336-0.75,0.75v9c0,0.414,0.336,0.75,0.75,0.75h9
		c0.414,0,0.75-0.336,0.75-0.75v-9c0-0.414-0.336-0.75-0.75-0.75H12.75z"/>
	<path d="M14.25,14.998c-0.414,0-0.75-0.336-0.75-0.75s0.336-0.75,0.75-0.75h6c0.414,0,0.75,0.336,0.75,0.75s-0.336,0.75-0.75,0.75
		H14.25z"/>
	<path d="M14.25,17.998c-0.414,0-0.75-0.336-0.75-0.75s0.336-0.75,0.75-0.75h6c0.414,0,0.75,0.336,0.75,0.75s-0.336,0.75-0.75,0.75
		H14.25z"/>
	<path d="M14.25,20.998c-0.414,0-0.75-0.336-0.75-0.75s0.336-0.75,0.75-0.75h2.25c0.414,0,0.75,0.336,0.75,0.75
		s-0.336,0.75-0.75,0.75H14.25z"/>
</g>
</svg>
