<?xml version="1.0" encoding="utf-8"?>
<!-- Generator: Adobe Illustrator 22.1.0, SVG Export Plug-In . SVG Version: 6.00 Build 0)  -->
<svg version="1.1" id="Layer_1" xmlns="http://www.w3.org/2000/svg" xmlns:xlink="http://www.w3.org/1999/xlink" x="0px" y="0px"
	 viewBox="0 0 24 24" style="enable-background:new 0 0 24 24;" xml:space="preserve">
<title>delete</title>
<g>
	<path d="M12,24c-3.174,0-6.166-1.231-8.43-3.468c-0.018-0.012-0.038-0.028-0.058-0.049C3.5,20.47,3.485,20.452,3.471,20.433
		C1.233,18.169,0,15.176,0,12C0,5.383,5.383,0,12,0c3.174,0,6.167,1.231,8.43,3.468c0.017,0.012,0.035,0.026,0.053,0.044
		c0.015,0.014,0.031,0.034,0.046,0.055C22.768,5.831,24,8.824,24,12C24,18.617,18.617,24,12,24z M5.13,19.931
		C7.042,21.591,9.466,22.5,12,22.5c5.79,0,10.5-4.71,10.5-10.5c0-2.534-0.909-4.958-2.569-6.87L5.13,19.931z M12,1.5
		C6.21,1.5,1.5,6.21,1.5,12c0,2.534,0.91,4.958,2.569,6.87L18.87,4.069C16.958,2.41,14.534,1.5,12,1.5z"/>
</g>
</svg>
