<?xml version="1.0" encoding="utf-8"?>
<!-- Generator: Adobe Illustrator 22.1.0, SVG Export Plug-In . SVG Version: 6.00 Build 0)  -->
<svg version="1.1" id="Layer_1" xmlns="http://www.w3.org/2000/svg" xmlns:xlink="http://www.w3.org/1999/xlink" x="0px" y="0px"
	 viewBox="0 0 24 24" style="enable-background:new 0 0 24 24;" xml:space="preserve">
<title>programming-browser</title>
<g>
	<path d="M2.25,22.5C1.009,22.5,0,21.491,0,20.25V3.865C0.004,2.564,1.064,1.504,2.363,1.5h19.28C22.939,1.504,23.996,2.56,24,3.855
		v16.28c-0.004,1.301-1.064,2.361-2.363,2.365c0,0-0.001,0-0.001,0H2.25z M1.5,20.25C1.5,20.664,1.836,21,2.25,21h19.385
		c0.475-0.001,0.864-0.39,0.865-0.867V7.5h-21V20.25z M22.5,6V3.857C22.499,3.386,22.113,3.001,21.641,3H2.365
		C1.89,3.002,1.501,3.391,1.5,3.867V6H22.5z"/>
	<path d="M16.5,18c-0.2,0-0.389-0.078-0.53-0.22c-0.292-0.292-0.292-0.768,0-1.061l2.47-2.47l-2.47-2.47
		c-0.142-0.141-0.22-0.33-0.22-0.53s0.078-0.389,0.22-0.53s0.33-0.22,0.53-0.22s0.389,0.078,0.53,0.22l3,3
		c0.292,0.292,0.292,0.768,0,1.061l-3,3C16.889,17.922,16.7,18,16.5,18z"/>
	<path d="M7.5,18c-0.2,0-0.389-0.078-0.53-0.22l-3-3c-0.292-0.292-0.292-0.768,0-1.061l3-3C7.111,10.578,7.3,10.5,7.5,10.5
		s0.389,0.078,0.53,0.22c0.142,0.141,0.22,0.33,0.22,0.53s-0.078,0.389-0.22,0.53l-2.47,2.47l2.47,2.47
		c0.292,0.292,0.292,0.768,0,1.061C7.889,17.922,7.7,18,7.5,18z"/>
	<path d="M10.5,18c-0.115,0-0.231-0.027-0.335-0.079c-0.37-0.185-0.52-0.636-0.336-1.006l3-6c0.128-0.256,0.385-0.414,0.671-0.414
		c0.115,0,0.231,0.027,0.334,0.079c0.37,0.185,0.521,0.637,0.336,1.006l-3,6C11.043,17.841,10.786,18,10.5,18z"/>
</g>
</svg>
