<?xml version="1.0" encoding="utf-8"?>
<!-- Generator: Adobe Illustrator 22.1.0, SVG Export Plug-In . SVG Version: 6.00 Build 0)  -->
<svg version="1.1" id="Layer_1" xmlns="http://www.w3.org/2000/svg" xmlns:xlink="http://www.w3.org/1999/xlink" x="0px" y="0px"
	 viewBox="0 0 24 24" style="enable-background:new 0 0 24 24;" xml:space="preserve">
<title>common-file-text</title>
<g>
	<path d="M3,24c-1.241,0-2.25-1.009-2.25-2.25V2.25C0.75,1.009,1.759,0,3,0h15.045c0.592,0,1.149,0.227,1.572,0.639l2.954,2.883
		c0.431,0.421,0.679,1.008,0.679,1.611V21.75c0,1.241-1.009,2.25-2.25,2.25H3z M3,1.5c-0.414,0-0.75,0.336-0.75,0.75v19.5
		c0,0.414,0.336,0.75,0.75,0.75h18c0.414,0,0.75-0.336,0.75-0.75V5.133c0-0.201-0.083-0.397-0.227-0.537l-2.954-2.883
		C18.428,1.576,18.243,1.5,18.046,1.5H3z"/>
	<path d="M6.045,9c-0.414,0-0.75-0.336-0.75-0.75S5.631,7.5,6.045,7.5h12c0.414,0,0.75,0.336,0.75,0.75S18.458,9,18.045,9H6.045z"/>
	<path d="M6.045,13.5c-0.414,0-0.75-0.336-0.75-0.75S5.631,12,6.045,12h12c0.414,0,0.75,0.336,0.75,0.75s-0.336,0.75-0.75,0.75
		H6.045z"/>
	<path d="M6.045,18c-0.414,0-0.75-0.336-0.75-0.75s0.336-0.75,0.75-0.75h6c0.413,0,0.75,0.336,0.75,0.75S12.458,18,12.045,18H6.045z
		"/>
</g>
</svg>
