<?xml version="1.0" encoding="utf-8"?>
<svg version="1.1" id="Layer_1" xmlns="http://www.w3.org/2000/svg" xmlns:xlink="http://www.w3.org/1999/xlink" x="0px" y="0px"
	 viewBox="0 0 24 24" style="enable-background:new 0 0 24 24;" xml:space="preserve">
<title>common-file-download</title>
  <path d="M17.25 24C13.528 24 10.5 20.972 10.5 17.25C10.5 13.528 13.528 10.5 17.25 10.5C20.972 10.5 24 13.528 24 17.25C24 20.972 20.972 24 17.25 24ZM17.25 12C14.355 12 12 14.355 12 17.25C12 20.145 14.355 22.5 17.25 22.5C20.145 22.5 22.5 20.145 22.5 17.25C22.5 14.355 20.145 12 17.25 12Z" />
  <path d="M17.25 21C17.163 21 17.076 20.984 16.992 20.954C16.986 20.952 16.981 20.95 16.975 20.948C16.871 20.906 16.789 20.851 16.719 20.781L14.469 18.531C14.177 18.239 14.177 17.763 14.469 17.47C14.611 17.328 14.799 17.25 14.999 17.25C15.199 17.25 15.388 17.328 15.529 17.47L16.499 18.44V14.25C16.499 13.836 16.835 13.5 17.249 13.5C17.663 13.5 18 13.836 18 14.25V18.439L18.97 17.469C19.112 17.327 19.3 17.249 19.5 17.249C19.7 17.249 19.889 17.327 20.03 17.469C20.322 17.761 20.322 18.237 20.03 18.53L17.78 20.78C17.71 20.85 17.628 20.905 17.535 20.943C17.527 20.946 17.518 20.95 17.509 20.953C17.428 20.984 17.339 21 17.25 21Z" />
  <path d="M2.25 21C1.009 21 0 19.991 0 18.75V2.25C0 1.009 1.009 0 2.25 0H12.879C13.48 0 14.044 0.234 14.469 0.658L17.341 3.53C17.766 3.955 18 4.52 18 5.121V8.25C18 8.664 17.664 9 17.25 9C16.836 9 16.5 8.664 16.5 8.25V5.121C16.5 4.924 16.42 4.731 16.281 4.591L13.409 1.719C13.267 1.578 13.079 1.5 12.879 1.5H2.25C1.836 1.5 1.5 1.836 1.5 2.25V18.75C1.5 19.164 1.836 19.5 2.25 19.5H8.25C8.664 19.5 9 19.836 9 20.25C9 20.664 8.664 21 8.25 21H2.25Z" />
</svg>
