<?xml version="1.0" encoding="utf-8"?>
<!-- Generator: Adobe Illustrator 22.1.0, SVG Export Plug-In . SVG Version: 6.00 Build 0)  -->
<svg version="1.1" id="Layer_1" xmlns="http://www.w3.org/2000/svg" xmlns:xlink="http://www.w3.org/1999/xlink" x="0px" y="0px"
	 viewBox="0 0 24 24" style="enable-background:new 0 0 24 24;" xml:space="preserve">
<title>common-file-text-add</title>
<g>
	<path d="M17.25,24c-3.722,0-6.75-3.028-6.75-6.75s3.028-6.75,6.75-6.75S24,13.528,24,17.25S20.972,24,17.25,24z M17.25,12
		C14.355,12,12,14.355,12,17.25s2.355,5.25,5.25,5.25s5.25-2.355,5.25-5.25S20.145,12,17.25,12z"/>
	<path d="M17.25,21c-0.414,0-0.75-0.336-0.75-0.75V18h-2.25c-0.414,0-0.75-0.336-0.75-0.75s0.336-0.75,0.75-0.75h2.25v-2.25
		c0-0.414,0.336-0.75,0.75-0.75S18,13.836,18,14.25v2.25h2.25c0.414,0,0.75,0.336,0.75,0.75S20.664,18,20.25,18H18v2.25
		C18,20.664,17.664,21,17.25,21z"/>
	<path d="M3.75,7.5C3.336,7.5,3,7.164,3,6.75S3.336,6,3.75,6h10.5C14.664,6,15,6.336,15,6.75S14.664,7.5,14.25,7.5H3.75z"/>
	<path d="M3.75,12C3.336,12,3,11.664,3,11.25s0.336-0.75,0.75-0.75h6c0.414,0,0.75,0.336,0.75,0.75S10.164,12,9.75,12H3.75z"/>
	<path d="M3.75,16.5C3.336,16.5,3,16.164,3,15.75S3.336,15,3.75,15H7.5c0.414,0,0.75,0.336,0.75,0.75S7.914,16.5,7.5,16.5H3.75z"/>
	<path d="M2.25,21C1.009,21,0,19.991,0,18.75V2.25C0,1.009,1.009,0,2.25,0h10.629c0.601,0,1.165,0.234,1.59,0.658l2.872,2.872
		C17.766,3.955,18,4.52,18,5.121V7.5c0,0.414-0.336,0.75-0.75,0.75S16.5,7.914,16.5,7.5V5.121c0-0.197-0.08-0.39-0.219-0.53
		l-2.872-2.872c-0.142-0.141-0.33-0.219-0.53-0.219H2.25C1.836,1.5,1.5,1.836,1.5,2.25v16.5c0,0.414,0.336,0.75,0.75,0.75H7.5
		c0.414,0,0.75,0.336,0.75,0.75S7.914,21,7.5,21H2.25z"/>
</g>
</svg>
