<?xml version="1.0" encoding="utf-8"?>
<!-- Generator: Adobe Illustrator 22.1.0, SVG Export Plug-In . SVG Version: 6.00 Build 0)  -->
<svg version="1.1" id="Layer_1" xmlns="http://www.w3.org/2000/svg" xmlns:xlink="http://www.w3.org/1999/xlink" x="0px" y="0px"
	 viewBox="0 0 24 24" style="enable-background:new 0 0 24 24;" xml:space="preserve">
<title>shrink-horizontal</title>
<g>
	<path d="M23.251,23.998c-0.414,0-0.75-0.336-0.75-0.75v-10.5h-6.439l2.47,2.47c0.142,0.142,0.22,0.33,0.22,0.53
		s-0.078,0.389-0.22,0.53s-0.33,0.22-0.53,0.22s-0.389-0.078-0.53-0.22l-3.75-3.75c-0.07-0.07-0.125-0.153-0.163-0.245
		c-0.003-0.008-0.007-0.017-0.01-0.026c-0.031-0.082-0.047-0.17-0.047-0.259c0-0.087,0.016-0.174,0.046-0.258
		c0.002-0.006,0.004-0.011,0.006-0.016c0.042-0.104,0.098-0.187,0.168-0.257l3.749-3.749c0.142-0.142,0.33-0.22,0.53-0.22
		s0.389,0.078,0.53,0.22c0.142,0.141,0.22,0.33,0.22,0.53s-0.078,0.389-0.22,0.53l-2.47,2.47h6.439v-10.5
		c0-0.414,0.336-0.75,0.75-0.75s0.75,0.336,0.75,0.75v22.5C24.001,23.662,23.665,23.998,23.251,23.998z"/>
	<path d="M0.751,23.998c-0.414,0-0.75-0.336-0.75-0.75v-22.5c0-0.414,0.336-0.75,0.75-0.75s0.75,0.336,0.75,0.75v10.5H7.94
		l-2.47-2.47c-0.142-0.141-0.22-0.33-0.22-0.53s0.078-0.389,0.22-0.53c0.141-0.142,0.33-0.22,0.53-0.22s0.389,0.078,0.53,0.22
		l3.75,3.75c0.07,0.07,0.125,0.152,0.163,0.245c0.003,0.008,0.007,0.017,0.01,0.026c0.032,0.086,0.047,0.172,0.047,0.26
		c0,0.089-0.016,0.176-0.048,0.261c-0.002,0.007-0.005,0.014-0.008,0.021c-0.04,0.097-0.095,0.179-0.166,0.25l-3.749,3.749
		c-0.142,0.142-0.33,0.22-0.53,0.22s-0.389-0.078-0.53-0.22c-0.142-0.142-0.22-0.33-0.22-0.53s0.078-0.389,0.22-0.53l2.47-2.47
		H1.501v10.5C1.501,23.662,1.165,23.998,0.751,23.998z"/>
</g>
</svg>
