<svg id="Regular" xmlns="http://www.w3.org/2000/svg" viewBox="0 0 24 24"><defs><style>.cls-1{fill:none;stroke:#000;stroke-linecap:round;stroke-linejoin:round;stroke-width:1.5px;}</style></defs><title>fitness-dumbbell</title><path class="cls-1" d="M16.318,1.189a1.5,1.5,0,0,0,0,2.121l4.371,4.371A1.5,1.5,0,0,0,22.811,5.56L18.439,1.189A1.5,1.5,0,0,0,16.318,1.189Z"/><path class="cls-1" d="M12.075,1.188a1.5,1.5,0,0,0,0,2.122l8.615,8.615A1.5,1.5,0,1,0,22.811,9.8L14.2,1.188A1.5,1.5,0,0,0,12.075,1.188Z"/><path class="cls-1" d="M1.189,16.318a1.5,1.5,0,0,1,2.122,0l4.371,4.371A1.5,1.5,0,0,1,5.561,22.81L1.189,18.439A1.5,1.5,0,0,1,1.189,16.318Z"/><path class="cls-1" d="M1.189,12.074a1.5,1.5,0,0,1,2.121,0l8.615,8.615A1.5,1.5,0,0,1,9.8,22.811L1.189,14.2A1.5,1.5,0,0,1,1.189,12.074Z"/><rect class="cls-1" x="5.802" y="10.499" width="12.395" height="3" transform="translate(-4.97 12) rotate(-45)"/></svg>