<?xml version="1.0" encoding="utf-8"?>
<!-- Generator: Adobe Illustrator 22.1.0, SVG Export Plug-In . SVG Version: 6.00 Build 0)  -->
<svg version="1.1" id="Layer_1" xmlns="http://www.w3.org/2000/svg" xmlns:xlink="http://www.w3.org/1999/xlink" x="0px" y="0px"
	 viewBox="0 0 24 24" style="enable-background:new 0 0 24 24;" xml:space="preserve">
<title>folder-empty</title>
<g>
	<path d="M2.447,22.5c-0.076,0-0.151-0.011-0.223-0.034C0.99,22.353,0.017,21.306,0,20.06V3.75C0,2.509,1.009,1.5,2.25,1.5h4.5
		C7.99,1.5,9,2.509,9,3.75V4.5h9.75C19.99,4.5,21,5.509,21,6.75V9h0.75c0.601,0,1.166,0.234,1.591,0.658
		C23.766,10.083,24,10.648,24,11.249c0,0.195-0.025,0.391-0.076,0.58l-2.196,8.985C21.464,21.81,20.569,22.5,19.55,22.5H2.447z
		 M19.55,21c0.34,0,0.638-0.229,0.725-0.557l2.196-8.985c0.02-0.077,0.029-0.142,0.029-0.207c0-0.202-0.078-0.39-0.22-0.532
		c-0.142-0.142-0.33-0.219-0.53-0.219H7.878c-0.332,0-0.628,0.222-0.721,0.541l-2.342,9.625C4.782,20.781,4.742,20.893,4.696,21
		H19.55z M2.25,3C1.836,3,1.5,3.336,1.5,3.75v16.3c0.007,0.509,0.433,0.927,0.95,0.927c0.431-0.006,0.801-0.29,0.914-0.692
		l2.344-9.631C5.992,9.673,6.883,9,7.877,9H19.5V6.75C19.5,6.336,19.163,6,18.75,6H8.25C7.836,6,7.5,5.664,7.5,5.25v-1.5
		C7.5,3.336,7.163,3,6.75,3H2.25z"/>
</g>
</svg>
