<svg xmlns="http://www.w3.org/2000/svg" viewBox="0 0 24 24"><title>diagram-split-horizontal</title><path d="M18.24,6.06a4.506,4.506,0,0,1-4.5,4.5H1.44a1.44,1.44,0,0,0,0,2.88h12.3a4.506,4.506,0,0,1,4.5,4.5v.05a.25.25,0,0,1-.25.25H16.8A1.44,1.44,0,0,0,15.782,20.7l2.878,2.878a1.439,1.439,0,0,0,2.04,0L23.578,20.7A1.44,1.44,0,0,0,22.56,18.24H21.37a.25.25,0,0,1-.25-.25v-.05A7.359,7.359,0,0,0,18.354,12.2a.251.251,0,0,1,0-.39A7.359,7.359,0,0,0,21.12,6.06V6.01a.25.25,0,0,1,.25-.25h1.19A1.44,1.44,0,0,0,23.578,3.3L20.7.424a1.439,1.439,0,0,0-2.04,0L15.782,3.3A1.44,1.44,0,0,0,16.8,5.76h1.19a.25.25,0,0,1,.25.25Z"/></svg>
