<?xml version="1.0" encoding="utf-8"?>
<!-- Generator: Adobe Illustrator 22.1.0, SVG Export Plug-In . SVG Version: 6.00 Build 0)  -->
<svg version="1.1" id="Regular" xmlns="http://www.w3.org/2000/svg" xmlns:xlink="http://www.w3.org/1999/xlink" x="0px" y="0px"
	 viewBox="0 0 24 24" style="enable-background:new 0 0 24 24;" xml:space="preserve">
<title>diagram-split-horizontal</title>
<g>
	<path d="M20.25,24.003c-0.214,0-0.419-0.093-0.562-0.255L16.72,20.78c-0.142-0.142-0.22-0.33-0.22-0.53s0.078-0.389,0.22-0.53
		s0.33-0.22,0.53-0.22s0.389,0.078,0.53,0.22l1.72,1.72c0,0,0-3.429,0-3.429c0.003-1.402-0.541-2.722-1.53-3.715
		c-0.989-0.992-2.305-1.541-3.706-1.545H0.75C0.336,12.75,0,12.414,0,12c0-0.414,0.336-0.75,0.75-0.75h13.512
		c1.401-0.003,2.718-0.551,3.708-1.545c0.99-0.993,1.533-2.313,1.53-3.715c0,0,0-3.429,0-3.429l-1.72,1.72
		c-0.142,0.142-0.33,0.22-0.53,0.22s-0.389-0.078-0.53-0.22c-0.142-0.141-0.22-0.33-0.22-0.53s0.078-0.389,0.22-0.53l3-3
		c0.07-0.07,0.153-0.125,0.245-0.163c0.007-0.003,0.016-0.006,0.024-0.009C20.07,0.017,20.159,0,20.25,0
		c0.089,0,0.176,0.016,0.261,0.048c0.011,0.004,0.022,0.008,0.032,0.012c0.085,0.035,0.167,0.09,0.237,0.16l3,3
		C23.922,3.361,24,3.55,24,3.75s-0.078,0.389-0.22,0.53S23.45,4.5,23.25,4.5s-0.389-0.078-0.53-0.22L21,2.561c0,0,0,3.419,0,3.426
		c0.004,1.803-0.695,3.5-1.968,4.777c-0.502,0.504-1.065,0.918-1.682,1.236c0.617,0.319,1.18,0.733,1.682,1.236
		c1.272,1.277,1.971,2.974,1.968,4.777c0,0.007,0,3.426,0,3.426l1.72-1.72c0.142-0.142,0.33-0.22,0.53-0.22s0.389,0.078,0.53,0.22
		S24,20.05,24,20.25s-0.078,0.389-0.22,0.53l-2.985,2.985C20.669,23.91,20.464,24.003,20.25,24.003z"/>
</g>
</svg>
