<svg id="Regular" xmlns="http://www.w3.org/2000/svg" viewBox="0 0 24 24"><defs><style>.cls-1{fill:none;stroke:#000;stroke-linecap:round;stroke-linejoin:round;stroke-width:1.5px;}</style></defs><title>developer-community-github-1</title><path class="cls-1" d="M14.41,22.35a.5.5,0,0,0,.64.48,11.25,11.25,0,1,0-6.24,0,.5.5,0,0,0,.64-.48V20A2.81,2.81,0,0,1,6,18.28,6.07,6.07,0,0,0,4.64,16c2.85.69,2.9,2.54,4.84,1.67a4,4,0,0,1,.63-1.82c-2.2-.25-4.52-.6-4.52-4.4a3.84,3.84,0,0,1,1-2.66,3.56,3.56,0,0,1,.1-2.62s.83-.27,2.73,1a9.39,9.39,0,0,1,5,0c1.89-1.28,2.72-1,2.72-1a3.56,3.56,0,0,1,.1,2.62,3.83,3.83,0,0,1,1,2.66c0,3.81-2.32,4.15-4.53,4.39a3.83,3.83,0,0,1,.68,2.33Z"/></svg>