<?xml version="1.0" encoding="utf-8"?>
<!-- Generator: Adobe Illustrator 22.1.0, SVG Export Plug-In . SVG Version: 6.00 Build 0)  -->
<svg version="1.1" id="Layer_1" xmlns="http://www.w3.org/2000/svg" xmlns:xlink="http://www.w3.org/1999/xlink" x="0px" y="0px"
	 viewBox="0 0 24 24" style="enable-background:new 0 0 24 24;" xml:space="preserve">
<title>house-entrance</title>
<g>
	<path d="M15.745,24c-0.414,0-0.75-0.336-0.75-0.75V18c0-1.654-1.346-3-3-3c-1.654,0-3,1.346-3,3v5.247
		c0,0.414-0.336,0.75-0.75,0.75H1.723c-0.95-0.002-1.725-0.777-1.728-1.726V9.747c0.028-0.537,0.248-1.009,0.618-1.351
		C0.629,8.381,0.65,8.364,0.671,8.348l10.878-8.2C11.678,0.051,11.838-0.003,12-0.003c0.162,0,0.323,0.054,0.452,0.151l10.868,8.2
		c0.02,0.015,0.039,0.031,0.057,0.048c0.37,0.343,0.588,0.807,0.617,1.309l0.001,12.568c-0.004,0.95-0.778,1.725-1.727,1.728
		c0,0-0.001,0-0.001,0H15.745z M22.266,22.5c0.125,0,0.229-0.104,0.229-0.231V9.747c-0.005-0.066-0.048-0.158-0.116-0.229L12,1.687
		L1.611,9.518C1.541,9.591,1.5,9.687,1.494,9.789l0.001,12.481c0,0.125,0.104,0.228,0.23,0.228h5.77V18c0-2.481,2.019-4.5,4.5-4.5
		c2.481,0,4.5,2.019,4.5,4.5v4.5H22.266z"/>
</g>
</svg>
