<?xml version="1.0" encoding="utf-8"?>
<!-- Generator: Adobe Illustrator 22.1.0, SVG Export Plug-In . SVG Version: 6.00 Build 0)  -->
<svg version="1.1" id="Layer_1" xmlns="http://www.w3.org/2000/svg" xmlns:xlink="http://www.w3.org/1999/xlink" x="0px" y="0px"
	 viewBox="0 0 24 24" style="enable-background:new 0 0 24 24;" xml:space="preserve">
<title>common-file-horizontal-image</title>
<g>
	<path d="M7.08,11.125c-1.447,0-2.625-1.178-2.625-2.625S5.633,5.875,7.08,5.875S9.705,7.053,9.705,8.5S8.527,11.125,7.08,11.125z
		 M7.08,7.375c-0.62,0-1.125,0.505-1.125,1.125S6.46,9.625,7.08,9.625S8.205,9.12,8.205,8.5S7.7,7.375,7.08,7.375z"/>
	<path d="M6.706,17.724c-0.149,0-0.293-0.044-0.416-0.126c-0.344-0.229-0.437-0.695-0.208-1.04l2.865-4.3
		c0.024-0.036,0.051-0.073,0.081-0.11c0.306-0.381,0.76-0.599,1.247-0.599c0.36,0,0.713,0.124,0.994,0.349l0.766,0.615l1.786-2.557
		c0.114-0.163,0.255-0.301,0.42-0.411c0.263-0.176,0.569-0.269,0.883-0.269c0.104,0,0.21,0.01,0.313,0.031
		c0.418,0.083,0.778,0.324,1.014,0.678l4.373,6.556c0.111,0.166,0.151,0.366,0.112,0.563s-0.153,0.366-0.32,0.477
		c-0.124,0.083-0.267,0.126-0.416,0.126l0,0c-0.251,0-0.485-0.125-0.624-0.334l-4.372-6.555c-0.014-0.021-0.034-0.034-0.059-0.039
		c-0.005,0-0.01,0-0.015,0c-0.027,0-0.042,0.005-0.054,0.014c-0.011,0.007-0.019,0.015-0.025,0.024l-2.246,3.215
		c-0.118,0.169-0.303,0.284-0.508,0.313c-0.038,0.005-0.072,0.007-0.105,0.007c-0.172,0-0.34-0.059-0.472-0.166l-1.39-1.117
		c-0.02-0.016-0.042-0.02-0.057-0.02c-0.017,0-0.049,0.005-0.073,0.035L7.33,17.39C7.191,17.599,6.957,17.724,6.706,17.724z"/>
	<path d="M2.25,21.727c-1.241,0-2.25-1.009-2.25-2.25V4.523c0-1.241,1.009-2.25,2.25-2.25h16.617c0.603,0,1.189,0.247,1.611,0.678
		l2.883,2.956C23.773,6.329,24,6.887,24,7.477v12c0,1.241-1.009,2.25-2.25,2.25H2.25z M2.25,3.773c-0.414,0-0.75,0.336-0.75,0.75
		v14.954c0,0.414,0.336,0.75,0.75,0.75h19.5c0.414,0,0.75-0.336,0.75-0.75v-12c0-0.197-0.076-0.383-0.213-0.523l-2.883-2.955
		c-0.14-0.143-0.336-0.226-0.537-0.226H2.25z"/>
</g>
</svg>
