<?xml version="1.0" encoding="utf-8"?>
<!-- Generator: Adobe Illustrator 22.1.0, SVG Export Plug-In . SVG Version: 6.00 Build 0)  -->
<svg version="1.1" id="Layer_1" xmlns="http://www.w3.org/2000/svg" xmlns:xlink="http://www.w3.org/1999/xlink" x="0px" y="0px"
	 viewBox="0 0 24 24" style="enable-background:new 0 0 24 24;" xml:space="preserve">
<title>flag-information</title>
<g>
	<path d="M0.75,24C0.336,24,0,23.664,0,23.25V0.75C0,0.336,0.336,0,0.75,0S1.5,0.336,1.5,0.75v0.38l2.184-0.671
		c0.988-0.304,2.013-0.458,3.047-0.458c1.919,0,3.797,0.531,5.43,1.537c1.396,0.859,3.005,1.313,4.651,1.313
		c0.823,0,1.64-0.114,2.428-0.339l2.369-0.677c0.167-0.047,0.339-0.072,0.512-0.072c0.502,0,0.973,0.195,1.327,0.548
		C23.804,2.664,24,3.135,24,3.636v15.808c0,0.833-0.559,1.574-1.359,1.803L19.653,22.1c-0.922,0.263-1.878,0.397-2.84,0.397
		c-1.925,0-3.805-0.531-5.438-1.535c-1.397-0.86-3.003-1.314-4.644-1.314c-0.884,0-1.761,0.132-2.606,0.392L1.5,20.847v2.403
		C1.5,23.664,1.164,24,0.75,24z M6.731,18.147c1.919,0,3.796,0.531,5.43,1.537c1.396,0.859,3.005,1.313,4.652,1.313
		c0.823,0,1.64-0.114,2.428-0.339l2.987-0.853c0.16-0.046,0.272-0.194,0.272-0.361V3.637c0-0.1-0.039-0.194-0.11-0.265
		c-0.071-0.071-0.165-0.11-0.266-0.11c-0.035,0-0.07,0.005-0.104,0.014l-2.368,0.677c-0.922,0.263-1.877,0.397-2.84,0.397
		c-1.925,0-3.805-0.531-5.438-1.535c-1.397-0.86-3.003-1.314-4.644-1.314c-0.884,0-1.761,0.132-2.606,0.392L1.5,2.699v16.579
		l2.184-0.672C4.672,18.302,5.697,18.147,6.731,18.147z"/>
	<path d="M13.5,17.25c-1.241,0-2.25-1.009-2.25-2.25v-3.75H10.5c-0.414,0-0.75-0.336-0.75-0.75s0.336-0.75,0.75-0.75h0.75
		c0.827,0,1.5,0.673,1.5,1.5V15c0,0.414,0.336,0.75,0.75,0.75h0.75c0.414,0,0.75,0.336,0.75,0.75s-0.336,0.75-0.75,0.75H13.5z"/>
	<circle cx="11.625" cy="7.125" r="1.125"/>
</g>
</svg>
