<?xml version="1.0" encoding="utf-8"?>
<!-- Generator: Adobe Illustrator 22.1.0, SVG Export Plug-In . SVG Version: 6.00 Build 0)  -->
<svg version="1.1" id="Layer_1" xmlns="http://www.w3.org/2000/svg" xmlns:xlink="http://www.w3.org/1999/xlink" x="0px" y="0px"
	 viewBox="0 0 24 24" style="enable-background:new 0 0 24 24;" xml:space="preserve">
<title>check-2</title>
<g>
	<path d="M9.325,17.916c-0.117,0-0.235-0.012-0.352-0.035c-0.472-0.094-0.879-0.365-1.146-0.764l-2.44-3.462
		c-0.238-0.338-0.157-0.807,0.181-1.045C5.695,12.52,5.844,12.473,6,12.473c0.244,0,0.473,0.119,0.614,0.318l2.45,3.477
		c0.054,0.081,0.12,0.126,0.201,0.142c0.02,0.004,0.04,0.006,0.06,0.006c0.058,0,0.115-0.018,0.164-0.051
		c0.028-0.019,0.052-0.042,0.072-0.068l7.852-9.935C17.555,6.182,17.769,6.078,18,6.078c0.168,0,0.333,0.057,0.464,0.161
		c0.157,0.124,0.257,0.302,0.28,0.501c0.023,0.199-0.032,0.395-0.156,0.552l-7.843,9.923c-0.113,0.149-0.257,0.284-0.423,0.396
		C10.025,17.811,9.68,17.916,9.325,17.916z"/>
	<path d="M2.25,23.999c-1.241,0-2.25-1.009-2.25-2.25v-19.5c0-1.241,1.009-2.25,2.25-2.25h19.5c1.241,0,2.25,1.009,2.25,2.25v19.5
		c0,1.241-1.009,2.25-2.25,2.25H2.25z M2.25,1.499c-0.414,0-0.75,0.336-0.75,0.75v19.5c0,0.414,0.336,0.75,0.75,0.75h19.5
		c0.414,0,0.75-0.336,0.75-0.75v-19.5c0-0.414-0.336-0.75-0.75-0.75H2.25z"/>
</g>
</svg>
