<svg id="Bold" xmlns="http://www.w3.org/2000/svg" viewBox="0 0 24 24"><title>social-instagram-1</title><path d="M18.07,11.25a.25.25,0,0,0-.24.31,6,6,0,1,1-11.65,0,.25.25,0,0,0-.24-.31H.5a.5.5,0,0,0-.5.5V17.5A6.51,6.51,0,0,0,6.5,24h11A6.51,6.51,0,0,0,24,17.5V11.75a.5.5,0,0,0-.5-.5Z"/><path d="M23.5,9.75a.5.5,0,0,0,.5-.5V6.5A6.51,6.51,0,0,0,17.5,0H11.75a.5.5,0,0,0-.5.5v4a.75.75,0,0,1-1.5,0V.5a.5.5,0,0,0-.5-.5h-.5a.5.5,0,0,0-.5.5v4a.75.75,0,0,1-1.5,0v-4A.5.5,0,0,0,6.23,0l-.55,0a.5.5,0,0,0-.43.5v4a.75.75,0,0,1-1.5,0V1A.25.25,0,0,0,3.38.81,6.5,6.5,0,0,0,0,6.5V9.25a.5.5,0,0,0,.5.5H6.7a.5.5,0,0,0,.41-.21,6,6,0,0,1,9.79,0,.5.5,0,0,0,.41.21Zm-6-5.25a1,1,0,0,1,1-1h1a1,1,0,0,1,1,1v1a1,1,0,0,1-1,1h-1a1,1,0,0,1-1-1Z"/><circle cx="12" cy="13" r="3"/></svg>