<?xml version="1.0" encoding="utf-8"?>
<!-- Generator: Adobe Illustrator 22.1.0, SVG Export Plug-In . SVG Version: 6.00 Build 0)  -->
<svg version="1.1" id="Layer_1" xmlns="http://www.w3.org/2000/svg" xmlns:xlink="http://www.w3.org/1999/xlink" x="0px" y="0px"
	 viewBox="0 0 24 24" style="enable-background:new 0 0 24 24;" xml:space="preserve">
<title>file-code</title>
<g>
	<path d="M3,24.003c-1.241,0-2.25-1.009-2.25-2.25v-19.5c0-1.241,1.009-2.25,2.25-2.25h15.045c0.591,0,1.149,0.228,1.572,0.64
		l2.955,2.882c0.432,0.422,0.679,1.009,0.678,1.611v16.616c0,1.241-1.009,2.25-2.25,2.25H3z M3,1.503c-0.414,0-0.75,0.336-0.75,0.75
		v19.5c0,0.414,0.336,0.75,0.75,0.75h18c0.414,0,0.75-0.336,0.75-0.75V5.136c0-0.201-0.082-0.397-0.226-0.538L18.57,1.717
		c-0.141-0.138-0.328-0.214-0.525-0.214H3z"/>
	<path d="M14.295,17.253c-0.2,0-0.389-0.078-0.53-0.22c-0.292-0.292-0.292-0.768,0-1.061l3.22-3.22l-3.22-3.22
		c-0.142-0.141-0.22-0.33-0.22-0.53s0.078-0.389,0.22-0.53s0.33-0.22,0.53-0.22s0.389,0.078,0.53,0.22l3.75,3.75
		c0.292,0.292,0.292,0.768,0,1.061l-3.75,3.75C14.684,17.175,14.495,17.253,14.295,17.253z"/>
	<path d="M9.795,17.253c-0.2,0-0.389-0.078-0.53-0.22l-3.75-3.75c-0.292-0.292-0.292-0.768,0-1.061l3.75-3.75
		c0.142-0.142,0.33-0.22,0.53-0.22s0.389,0.078,0.53,0.22c0.142,0.141,0.22,0.33,0.22,0.53s-0.078,0.389-0.22,0.53l-3.22,3.22
		l3.22,3.22c0.292,0.292,0.292,0.768,0,1.061C10.184,17.175,9.995,17.253,9.795,17.253z"/>
</g>
</svg>
