<?xml version="1.0" encoding="utf-8"?>
<!-- Generator: Adobe Illustrator 22.1.0, SVG Export Plug-In . SVG Version: 6.00 Build 0)  -->
<svg version="1.1" id="Layer_1" xmlns="http://www.w3.org/2000/svg" xmlns:xlink="http://www.w3.org/1999/xlink" x="0px" y="0px"
	 viewBox="0 0 24 24" style="enable-background:new 0 0 24 24;" xml:space="preserve">
<title>book-book-pages</title>
<g>
	<path d="M15,23.764c-0.203,0-0.405-0.028-0.601-0.082l-10.5-2.917c-0.969-0.268-1.647-1.157-1.649-2.163V2.487
		c0-1.241,1.009-2.25,2.25-2.25c0.005,0,15,0,15,0c1.241,0,2.25,1.009,2.25,2.25v15.75c0,1.241-1.009,2.25-2.25,2.25h-2.25v1.026
		c0,0.601-0.234,1.166-0.659,1.591C16.167,23.529,15.602,23.763,15,23.764C15,23.764,15,23.764,15,23.764z M4.493,1.737
		C4.083,1.741,3.75,2.076,3.75,2.487V18.6c0.001,0.334,0.227,0.63,0.55,0.719l10.501,2.917c0.063,0.018,0.129,0.027,0.196,0.027
		c0.2,0,0.394-0.08,0.533-0.219c0.142-0.142,0.22-0.33,0.22-0.531V5.877c0-0.336-0.226-0.633-0.55-0.722l-10.53-3.4
		C4.635,1.746,4.568,1.738,4.504,1.737C4.5,1.737,4.496,1.737,4.493,1.737z M19.5,18.987c0.414,0,0.75-0.336,0.75-0.75V2.487
		c0-0.414-0.336-0.75-0.75-0.75H9.495l6.135,1.981c0.947,0.261,1.619,1.151,1.62,2.158v13.11H19.5z"/>
</g>
</svg>
