<?xml version="1.0" encoding="utf-8"?>
<!-- Generator: Adobe Illustrator 22.1.0, SVG Export Plug-In . SVG Version: 6.00 Build 0)  -->
<svg version="1.1" id="Layer_1" xmlns="http://www.w3.org/2000/svg" xmlns:xlink="http://www.w3.org/1999/xlink" x="0px" y="0px"
	 viewBox="0 0 24 24" style="enable-background:new 0 0 24 24;" xml:space="preserve">
<title>help-wheel</title>
<g>
	<path d="M12,22.5c-1.927,0-3.814-0.53-5.455-1.531c0,0-0.014-0.009-0.021-0.013c-1.412-0.866-2.616-2.071-3.482-3.483
		c-0.004-0.006-0.011-0.018-0.011-0.018C2.03,15.813,1.5,13.927,1.5,12c0-1.927,0.53-3.813,1.531-5.455c0,0,0.011-0.017,0.016-0.025
		C4.978,3.377,8.325,1.5,12,1.5c3.677,0,7.024,1.878,8.955,5.023c0.005,0.007,0.014,0.022,0.014,0.022
		C21.97,8.186,22.5,10.073,22.5,12c0,1.927-0.53,3.814-1.531,5.455c0,0-0.007,0.011-0.01,0.016
		c-0.867,1.415-2.073,2.622-3.489,3.489c-0.005,0.003-0.015,0.01-0.015,0.01C15.814,21.97,13.927,22.5,12,22.5z M8.123,20.12
		C9.328,20.697,10.658,21,12,21c1.342,0,2.672-0.303,3.877-0.88l-3.627-3.627C12.164,16.498,12.081,16.5,12,16.5
		c-0.081,0-0.163-0.002-0.249-0.008L8.123,20.12z M4.668,17.211c0.586,0.823,1.298,1.535,2.121,2.122l3.274-3.273
		c-0.927-0.444-1.678-1.195-2.122-2.122L4.668,17.211z M17.211,19.332c0.824-0.586,1.535-1.298,2.122-2.122l-3.274-3.273
		c-0.444,0.926-1.195,1.677-2.121,2.121L17.211,19.332z M20.12,15.877C20.697,14.672,21,13.342,21,12
		c0-1.342-0.303-2.672-0.88-3.877l-3.627,3.627C16.498,11.836,16.5,11.919,16.5,12c0,0.082-0.002,0.165-0.008,0.251L20.12,15.877z
		 M3.88,8.123C3.303,9.328,3,10.658,3,12c0,1.342,0.303,2.672,0.88,3.877l3.628-3.627C7.503,12.164,7.5,12.081,7.5,12
		s0.003-0.164,0.008-0.25L3.88,8.123z M12,9c-1.654,0-3,1.346-3,3c0,1.654,1.346,3,3,3c1.654,0,3-1.346,3-3C15,10.346,13.654,9,12,9
		z M7.941,10.063c0.444-0.926,1.195-1.678,2.121-2.121L6.789,4.668C5.965,5.254,5.254,5.966,4.668,6.789L7.941,10.063z
		 M13.938,7.941c0.926,0.444,1.677,1.195,2.121,2.121l3.273-3.273c-0.586-0.823-1.298-1.535-2.121-2.121L13.938,7.941z M11.75,7.508
		C11.836,7.503,11.919,7.5,12,7.5s0.164,0.003,0.25,0.008l3.628-3.627C14.672,3.303,13.342,3,12,3c-1.342,0-2.672,0.303-3.878,0.88
		L11.75,7.508z"/>
</g>
</svg>
