<?xml version="1.0" encoding="utf-8"?>
<!-- Generator: Adobe Illustrator 22.1.0, SVG Export Plug-In . SVG Version: 6.00 Build 0)  -->
<svg version="1.1" id="Layer_1" xmlns="http://www.w3.org/2000/svg" xmlns:xlink="http://www.w3.org/1999/xlink" x="0px" y="0px"
	 viewBox="0 0 24 24" style="enable-background:new 0 0 24 24;" xml:space="preserve">
<title>hyperlink-2</title>
<g>
	<path d="M6.754,17.999c-0.2,0-0.389-0.078-0.53-0.22c-0.292-0.292-0.292-0.768,0-1.061l10.5-10.5c0.142-0.142,0.33-0.22,0.53-0.22
		s0.389,0.078,0.53,0.22c0.142,0.141,0.22,0.33,0.22,0.53s-0.078,0.389-0.22,0.53l-10.5,10.5
		C7.142,17.921,6.954,17.999,6.754,17.999z"/>
	<path d="M5.254,24.003c-1.402,0-2.721-0.546-3.712-1.538c-2.047-2.047-2.047-5.377,0-7.425l2.25-2.25
		c0.972-0.971,2.317-1.527,3.691-1.527c0.1,0,0.2,0.003,0.3,0.009c0.413,0.024,0.729,0.379,0.706,0.792
		c-0.023,0.396-0.351,0.707-0.747,0.707c-0.007,0-0.038-0.001-0.045-0.001c-0.073-0.004-0.146-0.006-0.218-0.006
		c-0.975,0-1.932,0.397-2.625,1.088l-2.25,2.25c-1.462,1.462-1.462,3.841,0,5.303c0.708,0.708,1.65,1.098,2.652,1.098
		s1.943-0.39,2.652-1.098l2.25-2.25c0.748-0.749,1.142-1.786,1.082-2.844c-0.011-0.2,0.056-0.393,0.189-0.542
		c0.133-0.15,0.317-0.238,0.517-0.25c0.013-0.001,0.03-0.001,0.047-0.001c0.395,0,0.722,0.311,0.745,0.707
		c0.086,1.484-0.468,2.938-1.518,3.99l-2.25,2.25C7.975,23.457,6.656,24.003,5.254,24.003z"/>
	<path d="M16.525,12.734c-0.1,0-0.199-0.003-0.299-0.009c-0.413-0.024-0.729-0.379-0.705-0.792c0.022-0.396,0.352-0.707,0.751-0.707
		c0.006,0,0.031,0.001,0.038,0.001c0.074,0.004,0.145,0.006,0.216,0.006c0.98,0,1.939-0.397,2.632-1.088l2.25-2.25
		c0.708-0.708,1.098-1.65,1.098-2.652s-0.39-1.943-1.098-2.652c-0.707-0.707-1.649-1.096-2.652-1.096s-1.945,0.389-2.652,1.096
		l-2.25,2.25c-0.746,0.75-1.138,1.786-1.077,2.843c0.012,0.2-0.055,0.392-0.188,0.542c-0.133,0.15-0.317,0.239-0.517,0.25
		c-0.007,0-0.037,0.001-0.044,0.001c-0.396,0-0.725-0.31-0.748-0.706c-0.087-1.483,0.465-2.937,1.512-3.99l2.251-2.251
		c0.991-0.992,2.31-1.538,3.712-1.538s2.721,0.546,3.712,1.538c0.992,0.991,1.538,2.31,1.538,3.712s-0.546,2.721-1.538,3.712
		l-2.25,2.25C19.244,12.177,17.899,12.734,16.525,12.734z"/>
</g>
</svg>
