<?xml version="1.0" encoding="utf-8"?>
<svg version="1.1" id="Layer_1" xmlns="http://www.w3.org/2000/svg" xmlns:xlink="http://www.w3.org/1999/xlink" x="0px" y="0px"
	 viewBox="0 0 24 24" style="enable-background:new 0 0 24 24;" xml:space="preserve">
<title>safety-helmet-mine</title>
<g>
	<path d="M12,16.875c-1.654,0-3-1.346-3-3c0-1.654,1.346-3,3-3c1.654,0,3,1.346,3,3C15,15.529,13.654,16.875,12,16.875z M12,12.375
		c-0.827,0-1.5,0.673-1.5,1.5s0.673,1.5,1.5,1.5s1.5-0.673,1.5-1.5S12.827,12.375,12,12.375z"/>
	<path d="M16.5,16.125c-0.414,0-0.75-0.336-0.75-0.75s0.336-0.75,0.75-0.75h3.75v-0.75c0-2.8-1.422-5.392-3.75-6.911v3.911
		c0,0.414-0.336,0.75-0.75,0.75S15,11.289,15,10.875V6.19c-0.956-0.375-1.964-0.565-3-0.565c-1.036,0-2.044,0.19-3,0.565v4.685
		c0,0.414-0.336,0.75-0.75,0.75s-0.75-0.336-0.75-0.75V6.964c-2.328,1.519-3.75,4.112-3.75,6.911v0.75H7.5
		c0.414,0,0.75,0.336,0.75,0.75s-0.336,0.75-0.75,0.75H0.75c-0.414,0-0.75-0.336-0.75-0.75s0.336-0.75,0.75-0.75h1.5v-0.75
		c0-3.664,2.005-6.955,5.25-8.647V3.375c0-0.414,0.336-0.75,0.75-0.75S9,2.961,9,3.375V4.6c0.969-0.315,1.976-0.475,3-0.475
		s2.031,0.159,3,0.475V3.375c0-0.414,0.336-0.75,0.75-0.75s0.75,0.336,0.75,0.75v1.853c3.245,1.691,5.25,4.983,5.25,8.647v0.75h1.5
		c0.414,0,0.75,0.336,0.75,0.75s-0.336,0.75-0.75,0.75H16.5z"/>
	<path d="M5.25,21.375c-0.389,0-0.717-0.303-0.748-0.691c-0.056-0.705-0.465-1.319-1.094-1.642c-0.178-0.091-0.31-0.247-0.372-0.438
		c-0.061-0.191-0.045-0.394,0.046-0.572c0.13-0.252,0.385-0.408,0.668-0.408c0.118,0,0.236,0.029,0.342,0.083
		c0.881,0.451,1.518,1.231,1.782,2.167h12.251c0.265-0.937,0.901-1.716,1.782-2.167c0.106-0.054,0.224-0.083,0.342-0.083
		c0.283,0,0.539,0.156,0.668,0.408c0.091,0.178,0.108,0.382,0.046,0.572c-0.061,0.191-0.193,0.346-0.372,0.438
		c-0.63,0.323-1.039,0.936-1.095,1.642c-0.031,0.387-0.359,0.691-0.748,0.691H5.25z"/>
</g>
</svg>
