<?xml version="1.0" encoding="utf-8"?>
<!-- Generator: Adobe Illustrator 22.1.0, SVG Export Plug-In . SVG Version: 6.00 Build 0)  -->
<svg version="1.1" id="Layer_1" xmlns="http://www.w3.org/2000/svg" xmlns:xlink="http://www.w3.org/1999/xlink" x="0px" y="0px"
	 viewBox="0 0 24 24" style="enable-background:new 0 0 24 24;" xml:space="preserve">
<title>navigation-menu</title>
<g>
	<path d="M2.25,18.753c-0.414,0-0.75-0.336-0.75-0.75s0.336-0.75,0.75-0.75h19.5c0.414,0,0.75,0.336,0.75,0.75
		s-0.336,0.75-0.75,0.75H2.25z"/>
	<path d="M2.25,12.753c-0.414,0-0.75-0.336-0.75-0.75s0.336-0.75,0.75-0.75h19.5c0.414,0,0.75,0.336,0.75,0.75
		s-0.336,0.75-0.75,0.75H2.25z"/>
	<path d="M2.25,6.753c-0.414,0-0.75-0.336-0.75-0.75s0.336-0.75,0.75-0.75h19.5c0.414,0,0.75,0.336,0.75,0.75s-0.336,0.75-0.75,0.75
		H2.25z"/>
</g>
</svg>
