<?xml version="1.0" encoding="utf-8"?>
<!-- Generator: Adobe Illustrator 22.1.0, SVG Export Plug-In . SVG Version: 6.00 Build 0)  -->
<svg version="1.1" id="Layer_1" xmlns="http://www.w3.org/2000/svg" xmlns:xlink="http://www.w3.org/1999/xlink" x="0px" y="0px"
	 viewBox="0 0 24 24" style="enable-background:new 0 0 24 24;" xml:space="preserve">
<title>shrink-2</title>
<g>
	<path d="M14.251,10.498c-0.089,0-0.176-0.016-0.261-0.048c-0.011-0.004-0.022-0.008-0.032-0.012
		c-0.176-0.072-0.324-0.221-0.4-0.404c-0.003-0.008-0.007-0.017-0.01-0.026c-0.031-0.082-0.047-0.17-0.047-0.259v-6.75
		c0-0.414,0.336-0.75,0.75-0.75s0.75,0.336,0.75,0.75v4.939l7.72-7.72c0.142-0.142,0.33-0.22,0.53-0.22s0.389,0.078,0.53,0.22
		c0.142,0.141,0.22,0.33,0.22,0.53s-0.078,0.389-0.22,0.53l-7.72,7.72h4.939c0.414,0,0.75,0.336,0.75,0.75s-0.336,0.75-0.75,0.75
		H14.251z"/>
	<path d="M0.751,23.998c-0.2,0-0.389-0.078-0.53-0.22c-0.292-0.292-0.292-0.768,0-1.061l7.72-7.72H3.001
		c-0.414,0-0.75-0.336-0.75-0.75s0.336-0.75,0.75-0.75h6.75c0.088,0,0.175,0.016,0.26,0.047c0.008,0.003,0.015,0.005,0.022,0.008
		c0.188,0.077,0.336,0.226,0.412,0.41c0.003,0.007,0.006,0.015,0.009,0.023c0.031,0.081,0.048,0.171,0.048,0.262v6.75
		c0,0.414-0.336,0.75-0.75,0.75s-0.75-0.336-0.75-0.75v-4.939l-7.72,7.72C1.139,23.92,0.951,23.998,0.751,23.998z"/>
</g>
</svg>
