<svg xmlns="http://www.w3.org/2000/svg" viewBox="0 0 24 24"><defs><style>.a{fill:none;stroke:currentColor;stroke-linecap:round;stroke-linejoin:round;stroke-width:1.5px;}</style></defs><title>book-open</title><path class="a" d="M13,22.906a16.989,16.989,0,0,1,8.856-3.89,1.6,1.6,0,0,0,1.391-1.587V2.365a1.613,1.613,0,0,0-1.835-1.6A17.077,17.077,0,0,0,13,4.6,1.636,1.636,0,0,1,11,4.6,17.077,17.077,0,0,0,2.585.767,1.613,1.613,0,0,0,.75,2.365V17.429a1.6,1.6,0,0,0,1.391,1.587A16.989,16.989,0,0,1,11,22.906,1.633,1.633,0,0,0,13,22.906Z"/><line class="a" x1="12" y1="4.938" x2="12" y2="23.249"/></svg>
