<?xml version="1.0" encoding="utf-8"?>
<!-- Generator: Adobe Illustrator 22.1.0, SVG Export Plug-In . SVG Version: 6.00 Build 0)  -->
<svg version="1.1" id="Layer_1" xmlns="http://www.w3.org/2000/svg" xmlns:xlink="http://www.w3.org/1999/xlink" x="0px" y="0px"
	 viewBox="0 0 24 24" style="enable-background:new 0 0 24 24;" xml:space="preserve">
<title>book-open-2</title>
<g>
	<path d="M11.962,22.112c-0.251-0.002-0.511-0.048-0.758-0.137c-1.531-0.604-3.129-0.906-4.771-0.906
		c-1.181,0-2.35,0.16-3.474,0.475c-0.187,0.048-0.373,0.072-0.595,0.078c-0.64-0.001-1.231-0.247-1.676-0.692
		C0.243,20.483-0.001,19.891,0,19.262V4.929c0.002-1.031,0.663-1.932,1.644-2.243C3.165,2.161,4.765,1.894,6.39,1.894
		c1.837,0,3.634,0.339,5.342,1.008c0.047,0.017,0.11,0.029,0.186,0.035C11.944,2.934,11.972,2.933,12,2.933
		c0.028,0,0.055,0.002,0.082,0.005c0.079-0.007,0.147-0.021,0.208-0.043c1.69-0.663,3.482-1.001,5.316-1.001
		c1.628,0,3.232,0.268,4.768,0.798c0.967,0.307,1.624,1.206,1.626,2.235v14.336c0,0.198-0.025,0.396-0.074,0.588
		c-0.156,0.609-0.541,1.122-1.082,1.443c-0.365,0.216-0.779,0.329-1.198,0.329l0,0c-0.197,0-0.395-0.025-0.589-0.074
		c-1.136-0.318-2.308-0.478-3.491-0.478c-1.641,0-3.239,0.302-4.747,0.897c-0.256,0.093-0.514,0.14-0.777,0.145
		c-0.014,0.001-0.03,0.002-0.041,0.002S11.975,22.114,11.962,22.112z M6.43,19.569c1.659,0,3.277,0.276,4.82,0.822V4.322
		c-0.015-0.005-0.03-0.01-0.045-0.016C9.657,3.7,8.04,3.395,6.389,3.395c-1.459,0-2.897,0.241-4.274,0.715
		C1.744,4.227,1.501,4.556,1.5,4.93v14.332c0,0.23,0.089,0.445,0.25,0.607c0.161,0.162,0.377,0.252,0.606,0.252l0,0
		c0.068,0,0.149-0.01,0.214-0.027C3.812,19.747,5.114,19.569,6.43,19.569z M12.75,20.391c1.534-0.545,3.154-0.822,4.816-0.822
		c1.319,0,2.624,0.178,3.879,0.53c0.059,0.015,0.129,0.024,0.198,0.024c0.152,0,0.302-0.042,0.436-0.121
		c0.197-0.117,0.337-0.303,0.393-0.525c0.018-0.07,0.027-0.142,0.027-0.213V4.929c-0.001-0.373-0.241-0.7-0.597-0.813
		c-1.391-0.479-2.834-0.721-4.296-0.721c-1.647,0-3.259,0.304-4.789,0.904c-0.022,0.008-0.045,0.016-0.067,0.023V20.391z"/>
</g>
</svg>
