<?xml version="1.0" encoding="utf-8"?>
<!-- Generator: Adobe Illustrator 22.1.0, SVG Export Plug-In . SVG Version: 6.00 Build 0)  -->
<svg version="1.1" id="Layer_1" xmlns="http://www.w3.org/2000/svg" xmlns:xlink="http://www.w3.org/1999/xlink" x="0px" y="0px"
	 viewBox="0 0 24 24" style="enable-background:new 0 0 24 24;" xml:space="preserve">
<title>notebook</title>
<g>
	<path d="M9.001,11.25c-1.241,0-2.25-1.009-2.25-2.25V6.75c0-1.241,1.009-2.25,2.25-2.25h5.249c1.241,0,2.25,1.009,2.25,2.25V9
		c0,1.241-1.009,2.25-2.25,2.25H9.001z M9.001,6c-0.414,0-0.75,0.336-0.75,0.75V9c0,0.414,0.336,0.75,0.75,0.75h5.249
		C14.664,9.75,15,9.414,15,9V6.75C15,6.336,14.664,6,14.25,6H9.001z"/>
	<path d="M3.75,24c-1.241,0-2.25-1.009-2.25-2.25v-3H0.75C0.336,18.75,0,18.414,0,18s0.336-0.75,0.75-0.75H1.5v-4.5H0.75
		C0.336,12.75,0,12.414,0,12s0.336-0.75,0.75-0.75H1.5v-6H0.75C0.336,5.25,0,4.914,0,4.5s0.336-0.75,0.75-0.75H1.5v-1.5
		C1.5,1.009,2.509,0,3.75,0H18c0.96,0,1.808,0.615,2.121,1.5h1.629C22.991,1.5,24,2.509,24,3.75v10.5c0,1.241-1.009,2.25-2.25,2.25
		h-1.5v5.25c0,1.241-1.009,2.25-2.25,2.25H3.75z M3,21.75c0,0.414,0.336,0.75,0.75,0.75H18c0.414,0,0.75-0.336,0.75-0.75V2.25
		c0-0.414-0.336-0.75-0.75-0.75H3.75C3.336,1.5,3,1.836,3,2.25v1.5h0.75c0.414,0,0.75,0.336,0.75,0.75S4.164,5.25,3.75,5.25H3v6
		h0.75c0.414,0,0.75,0.336,0.75,0.75s-0.336,0.75-0.75,0.75H3v4.5h0.75c0.414,0,0.75,0.336,0.75,0.75s-0.336,0.75-0.75,0.75H3V21.75
		z M21.75,15c0.414,0,0.75-0.336,0.75-0.75V12h-2.25L21.75,15z M22.5,10.5v-3h-2.25v3H22.5z M22.5,6V3.75
		C22.5,3.336,22.164,3,21.75,3h-1.5v3H22.5z"/>
</g>
</svg>
