<?xml version="1.0" encoding="utf-8"?>
<!-- Generator: Adobe Illustrator 22.1.0, SVG Export Plug-In . SVG Version: 6.00 Build 0)  -->
<svg version="1.1" id="Layer_1" xmlns="http://www.w3.org/2000/svg" xmlns:xlink="http://www.w3.org/1999/xlink" x="0px" y="0px"
	 viewBox="0 0 24 24" style="enable-background:new 0 0 24 24;" xml:space="preserve">
<title>expand-6</title>
<g>
	<path d="M8.251,16.498c-0.2,0-0.389-0.078-0.53-0.22c-0.292-0.292-0.292-0.768,0-1.061l13.72-13.72h-4.939
		c-0.414,0-0.75-0.336-0.75-0.75s0.336-0.75,0.75-0.75h6.75c0.089,0,0.176,0.016,0.261,0.048c0.011,0.004,0.022,0.008,0.032,0.012
		c0.176,0.072,0.324,0.221,0.4,0.404c0.003,0.008,0.007,0.017,0.01,0.026c0.031,0.081,0.047,0.17,0.047,0.26v6.75
		c0,0.414-0.336,0.75-0.75,0.75s-0.75-0.336-0.75-0.75V2.559l-13.72,13.72C8.64,16.42,8.451,16.498,8.251,16.498z"/>
	<path d="M2.251,23.998c-1.241,0-2.25-1.009-2.25-2.25v-15c0-1.241,1.009-2.25,2.25-2.25h9c0.414,0,0.75,0.336,0.75,0.75
		s-0.336,0.75-0.75,0.75h-9c-0.414,0-0.75,0.336-0.75,0.75v15c0,0.414,0.336,0.75,0.75,0.75h15c0.414,0,0.75-0.336,0.75-0.75v-9
		c0-0.414,0.336-0.75,0.75-0.75s0.75,0.336,0.75,0.75v9c0,1.241-1.009,2.25-2.25,2.25H2.251z"/>
</g>
</svg>
