<?xml version="1.0" encoding="utf-8"?>
<svg version="1.1" id="Layer_1" xmlns="http://www.w3.org/2000/svg" xmlns:xlink="http://www.w3.org/1999/xlink" x="0px" y="0px"
	 viewBox="0 0 24 24" style="enable-background:new 0 0 24 24;" xml:space="preserve">
<title>flags</title>
<g>
	<path d="M14.966,21.722c-0.307,0-0.58-0.184-0.695-0.468L12,15.662l-2.27,5.592c-0.115,0.284-0.388,0.468-0.695,0.468
		c-0.097,0-0.192-0.019-0.282-0.055c-0.185-0.075-0.33-0.218-0.408-0.403C8.266,21.08,8.265,20.876,8.34,20.69l2.85-7.022
		l-0.538-1.325l-6.566,2.665c-0.135,0.055-0.277,0.082-0.423,0.082c-0.109,0-0.216-0.016-0.319-0.046
		c-0.594-0.176-0.935-0.803-0.76-1.397l0.8-2.705c0.101-0.34-0.044-0.697-0.352-0.87L0.575,8.694
		C0.354,8.57,0.178,8.371,0.082,8.135C-0.03,7.856-0.028,7.55,0.089,7.273c0.117-0.277,0.335-0.491,0.614-0.604l6.565-2.666
		L6.985,3.309C6.91,3.123,6.911,2.919,6.989,2.734C7.067,2.55,7.213,2.407,7.398,2.331C7.488,2.295,7.583,2.276,7.68,2.276
		c0.307,0,0.58,0.184,0.695,0.469L12,11.674l3.625-8.93c0.115-0.284,0.388-0.468,0.695-0.468c0.097,0,0.192,0.019,0.282,0.055
		c0.186,0.075,0.331,0.219,0.409,0.403c0.078,0.184,0.079,0.388,0.004,0.574l-0.282,0.695l6.565,2.666
		c0.278,0.113,0.496,0.327,0.613,0.604c0.117,0.277,0.119,0.583,0.006,0.861c-0.095,0.236-0.271,0.435-0.494,0.559l-2.457,1.378
		c-0.309,0.173-0.454,0.53-0.353,0.869l0.801,2.706c0.175,0.595-0.165,1.222-0.76,1.398c-0.105,0.031-0.212,0.046-0.319,0.046
		c-0.145,0-0.287-0.028-0.421-0.082l-6.567-2.666l-0.538,1.325l2.85,7.022c0.075,0.186,0.074,0.389-0.004,0.574
		s-0.223,0.328-0.409,0.403C15.158,21.704,15.063,21.722,14.966,21.722z M3.767,8.763c0.925,0.518,1.36,1.589,1.057,2.605
		l-0.579,1.957l5.844-2.372l-2.257-5.56L1.989,7.766L3.767,8.763z M19.756,13.326l-0.58-1.958c-0.302-1.015,0.133-2.086,1.058-2.604
		l1.778-0.996l-5.843-2.373l-2.257,5.56L19.756,13.326z"/>
</g>
</svg>
