<?xml version="1.0" encoding="utf-8"?>
<!-- Generator: Adobe Illustrator 22.1.0, SVG Export Plug-In . SVG Version: 6.00 Build 0)  -->
<svg version="1.1" id="Layer_1" xmlns="http://www.w3.org/2000/svg" xmlns:xlink="http://www.w3.org/1999/xlink" x="0px" y="0px"
	 viewBox="0 0 24 24" style="enable-background:new 0 0 24 24;" xml:space="preserve">
<title>flag-1</title>
<g>
	<path d="M0.75,24C0.336,24,0,23.664,0,23.25V0.75C0,0.336,0.336,0,0.75,0S1.5,0.336,1.5,0.75V1.5h21
		c0.401,0,0.778,0.157,1.061,0.44c0.283,0.284,0.438,0.661,0.438,1.061c0,0.367-0.135,0.72-0.378,0.994l-4.005,4.503
		c-0.253,0.284-0.253,0.713,0,0.997l4.001,4.505c0.549,0.619,0.492,1.569-0.126,2.118c-0.274,0.243-0.627,0.378-0.994,0.378H1.5
		v6.753C1.5,23.664,1.163,24,0.75,24z M22.495,14.997l-4.001-4.505c-0.758-0.852-0.758-2.138,0.001-2.991L22.499,3l-21,0v11.997
		H22.495z"/>
</g>
</svg>
