<?xml version="1.0" encoding="utf-8"?>
<!-- Generator: Adobe Illustrator 22.1.0, SVG Export Plug-In . SVG Version: 6.00 Build 0)  -->
<svg version="1.1" id="Layer_1" xmlns="http://www.w3.org/2000/svg" xmlns:xlink="http://www.w3.org/1999/xlink" x="0px" y="0px"
	 viewBox="0 0 24 24" style="enable-background:new 0 0 24 24;" xml:space="preserve">
<title>hierarchy-1</title>
<g>
	<path d="M3,23.998c-1.654,0-3-1.346-3-3s1.346-3,3-3c0.158,0,0.317,0.013,0.476,0.04L6.4,11.355
		c-0.726-0.567-1.15-1.427-1.15-2.357c0-1.654,1.346-3,3-3s3,1.346,3,3c0,0.423-0.091,0.841-0.266,1.228l2.968,2.375
		c0.518-0.39,1.145-0.602,1.797-0.602c0.158,0,0.317,0.013,0.477,0.04l2.924-6.682C18.425,4.788,18,3.929,18,2.998
		c0-1.654,1.346-3,3-3s3,1.346,3,3s-1.346,3-3,3c-0.158,0-0.317-0.013-0.477-0.04L17.6,12.641c0.725,0.567,1.15,1.427,1.15,2.357
		c0,1.654-1.346,3-3,3s-3-1.346-3-3c0-0.422,0.091-0.841,0.265-1.227l-2.969-2.375c-0.518,0.39-1.145,0.602-1.797,0.602
		c-0.158,0-0.317-0.013-0.476-0.04L4.85,18.641C5.575,19.208,6,20.067,6,20.998C6,22.652,4.654,23.998,3,23.998z M3,19.498
		c-0.827,0-1.5,0.673-1.5,1.5s0.673,1.5,1.5,1.5s1.5-0.673,1.5-1.5S3.827,19.498,3,19.498z M15.75,13.498
		c-0.827,0-1.5,0.673-1.5,1.5s0.673,1.5,1.5,1.5s1.5-0.673,1.5-1.5S16.577,13.498,15.75,13.498z M8.25,7.498
		c-0.827,0-1.5,0.673-1.5,1.5s0.673,1.5,1.5,1.5s1.5-0.673,1.5-1.5S9.077,7.498,8.25,7.498z M21,1.498c-0.827,0-1.5,0.673-1.5,1.5
		s0.673,1.5,1.5,1.5s1.5-0.673,1.5-1.5S21.827,1.498,21,1.498z"/>
</g>
</svg>
