<?xml version="1.0" encoding="utf-8"?>
<!-- Generator: Adobe Illustrator 22.1.0, SVG Export Plug-In . SVG Version: 6.00 Build 0)  -->
<svg version="1.1" id="Layer_1" xmlns="http://www.w3.org/2000/svg" xmlns:xlink="http://www.w3.org/1999/xlink" x="0px" y="0px"
	 viewBox="0 0 24 24" style="enable-background:new 0 0 24 24;" xml:space="preserve">
<title>controls-pause</title>
<g>
	<path d="M6.75,21c-1.241,0-2.25-1.009-2.25-2.25V5.25C4.5,4.009,5.509,3,6.75,3h1.5c1.241,0,2.25,1.009,2.25,2.25v13.5
		c0,1.241-1.009,2.25-2.25,2.25H6.75z M6.75,4.5C6.336,4.5,6,4.836,6,5.25v13.5c0,0.414,0.336,0.75,0.75,0.75h1.5
		C8.664,19.5,9,19.164,9,18.75V5.25C9,4.836,8.664,4.5,8.25,4.5H6.75z"/>
	<path d="M15.75,21c-1.241,0-2.25-1.009-2.25-2.25V5.25C13.5,4.009,14.509,3,15.75,3h1.5c1.241,0,2.25,1.009,2.25,2.25v13.5
		c0,1.241-1.009,2.25-2.25,2.25H15.75z M15.75,4.5C15.336,4.5,15,4.836,15,5.25v13.5c0,0.414,0.336,0.75,0.75,0.75h1.5
		c0.414,0,0.75-0.336,0.75-0.75V5.25c0-0.414-0.336-0.75-0.75-0.75H15.75z"/>
</g>
</svg>
