<?xml version="1.0" encoding="utf-8"?>
<!-- Generator: Adobe Illustrator 22.1.0, SVG Export Plug-In . SVG Version: 6.00 Build 0)  -->
<svg version="1.1" id="Layer_1" xmlns="http://www.w3.org/2000/svg" xmlns:xlink="http://www.w3.org/1999/xlink" x="0px" y="0px"
	 viewBox="0 0 24 24" style="enable-background:new 0 0 24 24;" xml:space="preserve">
<title>office-file-adobe-alternate</title>
<g>
	<path d="M5.488,20.258c-0.469,0-0.919-0.223-1.203-0.596c-0.03-0.039-0.054-0.079-0.075-0.121
		c-0.109-0.221-0.167-0.469-0.167-0.716c-0.089-1.6,0.52-3.885,3.887-5.648l0.02-0.26c0.063-0.62,0.101-1.242,0.115-1.859
		c-0.962-0.921-1.888-1.893-2.753-2.89C5.297,8.151,5.281,8.13,5.266,8.109c-0.494-0.7-0.714-1.555-0.619-2.407
		c0.145-1.04,0.963-1.836,1.99-1.947C6.663,3.751,6.692,3.75,6.719,3.75c0.811,0.028,1.524,0.447,1.93,1.121
		c0.319,0.542,0.523,1.128,0.609,1.745c0.201,1.247,0.307,2.527,0.314,3.8c0.245,0.227,0.492,0.451,0.741,0.671
		c0.322,0.26,0.667,0.519,1.02,0.762c1.088-0.333,2.221-0.502,3.371-0.502c0.556,0,1.116,0.041,1.665,0.12
		c0.581,0.094,1.127,0.33,1.586,0.683c0.575,0.456,0.868,1.184,0.77,1.902c-0.006,0.039-0.014,0.077-0.025,0.114
		c-0.261,0.868-1.045,1.477-1.952,1.514l-0.063,0c-0.666,0-1.328-0.141-1.914-0.408c-1.281-0.454-2.508-1.05-3.652-1.771
		c-0.648,0.203-1.234,0.42-1.761,0.65c-0.149,1.591-0.438,3.23-1.386,4.576c-0.475,0.769-1.275,1.322-2.184,1.5
		C5.69,20.248,5.589,20.258,5.488,20.258z M7.746,15.013c-1.548,1.022-2.271,2.248-2.205,3.729c0.492-0.108,0.911-0.408,1.169-0.828
		l0.026-0.039C7.335,17.028,7.601,15.997,7.746,15.013z M13.191,12.962c0.68,0.35,1.387,0.654,2.11,0.909
		c0.025,0.009,0.046,0.018,0.067,0.028c0.399,0.186,0.846,0.284,1.292,0.284l0.043,0c0.231-0.01,0.446-0.165,0.538-0.391
		c0.006-0.176-0.073-0.349-0.212-0.459c-0.255-0.196-0.564-0.329-0.891-0.383c-0.468-0.068-0.951-0.103-1.433-0.103
		C14.199,12.847,13.692,12.885,13.191,12.962z M9.496,12.477c0.035-0.013,0.069-0.026,0.104-0.04
		c-0.032-0.025-0.064-0.05-0.096-0.075C9.502,12.4,9.5,12.438,9.496,12.477z M6.472,7.216c0.494,0.568,1.01,1.129,1.54,1.676
		C7.963,8.205,7.884,7.518,7.775,6.842C7.714,6.404,7.575,6.005,7.36,5.639c-0.13-0.216-0.359-0.36-0.615-0.385
		C6.428,5.31,6.18,5.566,6.135,5.888C6.084,6.346,6.203,6.821,6.472,7.216z"/>
	<path d="M2.998,23.999C1.345,23.999,0,22.654-0.001,21V3c0-0.801,0.311-1.554,0.878-2.121c0.566-0.567,1.32-0.879,2.121-0.88h14.38
		c0.602,0,1.166,0.234,1.591,0.658L23.34,5.03c0.425,0.425,0.659,0.99,0.659,1.59V21c0,1.653-1.346,2.999-2.999,2.999H2.998z
		 M3,1.499c-0.402,0-0.779,0.156-1.062,0.44C1.655,2.222,1.499,2.599,1.499,3v18c0,0.826,0.673,1.499,1.5,1.499H21
		c0.826,0,1.499-0.673,1.499-1.5v-13.5h-3.75c-1.241,0-2.25-1.009-2.25-2.25v-3.75H3L3,1.499z M17.999,5.249
		c0,0.414,0.336,0.75,0.75,0.75h3.439l-4.189-4.19V5.249z"/>
</g>
</svg>
