<svg fill="currentColor" xmlns="http://www.w3.org/2000/svg" viewBox="0 0 24 24">
    <g fill-rule="evenodd">
        <path d="M8.522 5a3.043 3.043 0 110 6.087 3.043 3.043 0 010-6.087zm-.435 6.957c3.363 0 6.087 1.815 6.087 4.057v2.03H2v-2.03c0-2.242 2.724-4.057 6.087-4.057z" fill-rule="nonzero"/>
        <path d="M15.043 18.043v-2.029c0-1.502-.874-2.814-2.173-3.515a8.506 8.506 0 013.043-.542c3.363 0 6.087 1.815 6.087 4.057v2.03h-6.957zM16.348 5a3.043 3.043 0 110 6.087 3.043 3.043 0 010-6.087z"/>
    </g>
</svg>
