<?xml version="1.0" encoding="utf-8"?>
<!-- Generator: Adobe Illustrator 22.1.0, SVG Export Plug-In . SVG Version: 6.00 Build 0)  -->
<svg version="1.1" id="Regular" xmlns="http://www.w3.org/2000/svg" xmlns:xlink="http://www.w3.org/1999/xlink" x="0px" y="0px"
	 viewBox="0 0 24 24" style="enable-background:new 0 0 24 24;" xml:space="preserve">
<title>multiple-man-woman-2</title>
<g>
	<path d="M23.25,20.999c-0.413,0-0.75-0.336-0.75-0.749c0-0.444-0.05-0.888-0.148-1.321c-0.354-1.565-1.297-2.898-2.654-3.754
		c-0.963-0.607-2.067-0.928-3.191-0.928c-0.448,0-0.898,0.051-1.34,0.151c-0.054,0.012-0.11,0.019-0.167,0.019
		c-0.352,0-0.652-0.24-0.73-0.584c-0.044-0.196-0.01-0.396,0.097-0.566c0.107-0.169,0.273-0.287,0.469-0.331
		c0.551-0.125,1.113-0.188,1.672-0.188c1.408,0,2.788,0.401,3.991,1.159c1.696,1.069,2.874,2.736,3.317,4.691
		C23.937,19.138,24,19.694,24,20.248C24,20.661,23.664,20.998,23.25,20.999C23.25,20.999,23.25,20.999,23.25,20.999z"/>
	<path d="M16.496,12.747c-0.605,0-1.198-0.111-1.76-0.329c-0.187-0.072-0.334-0.213-0.415-0.396
		c-0.081-0.183-0.086-0.387-0.013-0.574c0.111-0.286,0.392-0.479,0.699-0.479c0.093,0,0.185,0.017,0.272,0.051
		c0.388,0.15,0.797,0.227,1.217,0.227c0.657,0,1.293-0.188,1.841-0.544c0.82-0.533,1.356-1.383,1.496-2.337
		c-0.637,0.171-1.292,0.257-1.952,0.257c-1.438,0-2.826-0.4-4.031-1.156C13.68,7.362,13.562,7.195,13.517,7
		c-0.045-0.195-0.011-0.396,0.096-0.566c0.138-0.22,0.376-0.351,0.636-0.351c0.141,0,0.279,0.04,0.399,0.115
		c0.965,0.605,2.078,0.926,3.218,0.926c0.006,0,0.026,0,0.032,0c0.609,0,1.22-0.095,1.812-0.281
		c-0.091-0.288-0.218-0.558-0.38-0.808c-0.491-0.756-1.247-1.275-2.129-1.463c-0.234-0.05-0.473-0.075-0.709-0.075
		c-0.648,0-1.281,0.189-1.831,0.546c-0.122,0.079-0.263,0.121-0.408,0.121c-0.255,0-0.49-0.128-0.629-0.341
		c-0.225-0.347-0.126-0.812,0.22-1.038c0.794-0.516,1.709-0.789,2.647-0.789c0.341,0,0.685,0.036,1.022,0.108
		c1.274,0.271,2.366,1.021,3.075,2.113c0.376,0.579,0.62,1.222,0.725,1.912c0.016,0.061,0.024,0.124,0.024,0.186
		c0.211,1.855-0.623,3.634-2.181,4.646C18.363,12.476,17.444,12.747,16.496,12.747z"/>
	<path d="M14.25,20.999c-0.414,0-0.75-0.336-0.75-0.75c0-3.308-2.692-6-6-6s-6,2.692-6,6c0,0.414-0.336,0.75-0.75,0.75
		S0,20.662,0,20.249c0-4.135,3.365-7.5,7.5-7.5s7.5,3.365,7.5,7.5C15,20.662,14.664,20.999,14.25,20.999z"/>
	<path d="M12.483,13.006c-0.26,0-0.505-0.138-0.641-0.359c-0.297-0.488-0.529-1.007-0.691-1.552
		c-0.918,1.047-2.233,1.653-3.652,1.653c-1.42,0-2.735-0.606-3.653-1.655c-0.162,0.542-0.393,1.06-0.689,1.546
		c-0.138,0.225-0.377,0.359-0.641,0.359c-0.138,0-0.273-0.038-0.391-0.11c-0.17-0.104-0.29-0.268-0.338-0.463
		c-0.047-0.195-0.016-0.396,0.089-0.567c0.525-0.861,0.784-1.848,0.75-2.856c0,0,0.012-0.827,0.012-0.834L2.637,8.144
		c-0.006-0.09-0.012-0.179-0.012-0.27c0-2.688,2.187-4.875,4.875-4.875s4.875,2.187,4.875,4.875c0,0.025-0.001,0.049-0.003,0.074
		c0,0,0.001,0.028,0.001,0.037v1c-0.034,1.029,0.225,2.021,0.75,2.881c0.104,0.171,0.136,0.372,0.089,0.567
		c-0.047,0.195-0.167,0.359-0.338,0.464C12.756,12.968,12.621,13.006,12.483,13.006z M4.28,8.878
		c0.433,1.395,1.729,2.371,3.22,2.371c1.489,0,2.784-0.974,3.219-2.367C9.521,8.701,8.401,8.175,7.499,7.37
		C6.597,8.174,5.477,8.698,4.28,8.878z M7.5,5.554c0.218,0,0.425,0.095,0.567,0.26c0.721,0.835,1.692,1.382,2.769,1.568
		C10.596,5.757,9.181,4.498,7.5,4.498c-1.679,0-3.093,1.256-3.335,2.879C5.24,7.192,6.211,6.647,6.933,5.813
		C7.075,5.648,7.282,5.554,7.5,5.554C7.5,5.554,7.5,5.554,7.5,5.554z"/>
</g>
</svg>
