<?xml version="1.0" encoding="utf-8"?>
<!-- Generator: Adobe Illustrator 22.1.0, SVG Export Plug-In . SVG Version: 6.00 Build 0)  -->
<svg version="1.1" id="Regular" xmlns="http://www.w3.org/2000/svg" xmlns:xlink="http://www.w3.org/1999/xlink" x="0px" y="0px"
	 viewBox="0 0 24 24" style="enable-background:new 0 0 24 24;" xml:space="preserve">
<title>single-neutral-actions-chat</title>
<g>
	<path d="M7.5,9.75c-2.688,0-4.875-2.187-4.875-4.875S4.812,0,7.5,0s4.875,2.187,4.875,4.875S10.188,9.75,7.5,9.75z M7.5,1.5
		c-1.861,0-3.375,1.514-3.375,3.375S5.639,8.25,7.5,8.25s3.375-1.514,3.375-3.375S9.361,1.5,7.5,1.5z"/>
	<path d="M0.75,18C0.336,18,0,17.664,0,17.25c0-4.135,3.365-7.5,7.5-7.5c0.29,0.005,0.574,0.027,0.851,0.065
		c0.41,0.056,0.698,0.435,0.642,0.844c-0.05,0.37-0.37,0.649-0.744,0.649l0,0c-0.033,0-0.066-0.002-0.099-0.007
		c-0.221-0.03-0.444-0.047-0.664-0.052c-3.298,0-5.986,2.692-5.986,6C1.5,17.664,1.164,18,0.75,18z"/>
	<path d="M14.25,24c-0.124,0-0.246-0.031-0.354-0.089c-0.244-0.13-0.396-0.384-0.396-0.661V21h-0.75c-1.241,0-2.25-1.009-2.25-2.25
		v-6c0-1.241,1.009-2.25,2.25-2.25h9c1.241,0,2.25,1.009,2.25,2.25v6c0,1.241-1.009,2.25-2.25,2.25h-2.773l-4.311,2.874
		C14.542,23.957,14.398,24,14.25,24z M12.75,12C12.336,12,12,12.336,12,12.75v6c0,0.414,0.336,0.75,0.75,0.75h1.5
		c0.414,0,0.75,0.336,0.75,0.75v1.599l3.334-2.223c0.124-0.083,0.268-0.126,0.416-0.126h3c0.414,0,0.75-0.336,0.75-0.75v-6
		c0-0.414-0.336-0.75-0.75-0.75H12.75z"/>
	<path d="M14.25,15c-0.414,0-0.75-0.336-0.75-0.75s0.336-0.75,0.75-0.75h6c0.414,0,0.75,0.336,0.75,0.75S20.664,15,20.25,15H14.25z"
		/>
	<path d="M14.25,18c-0.414,0-0.75-0.336-0.75-0.75s0.336-0.75,0.75-0.75h6c0.414,0,0.75,0.336,0.75,0.75S20.664,18,20.25,18H14.25z"
		/>
</g>
</svg>
