<?xml version="1.0" encoding="utf-8"?>
<!-- Generator: Adobe Illustrator 22.1.0, SVG Export Plug-In . SVG Version: 6.00 Build 0)  -->
<svg version="1.1" id="Layer_1" xmlns="http://www.w3.org/2000/svg" xmlns:xlink="http://www.w3.org/1999/xlink" x="0px" y="0px"
	 viewBox="0 0 24 24" style="enable-background:new 0 0 24 24;" xml:space="preserve">
<title>pie-line-graph</title>
<g>
	<path d="M8.246,20.25c-0.2,0-0.389-0.078-0.53-0.22c-0.292-0.292-0.292-0.768,0-1.061l3.97-3.97c0.283-0.283,0.659-0.439,1.06-0.44
		c0.401,0,0.778,0.156,1.061,0.439l1.94,1.94l3.969-3.969c0.142-0.142,0.33-0.22,0.53-0.22s0.389,0.078,0.53,0.22
		c0.292,0.292,0.292,0.768,0,1.061l-3.969,3.969c-0.284,0.283-0.66,0.439-1.061,0.439c-0.401,0-0.778-0.156-1.061-0.439
		l-1.939-1.939l-3.97,3.97C8.635,20.172,8.446,20.25,8.246,20.25z"/>
	<path d="M2.246,24c-1.241,0-2.25-1.009-2.25-2.25V2.25c0-1.241,1.009-2.25,2.25-2.25h19.5c1.241,0,2.25,1.009,2.25,2.25v19.5
		c0,1.241-1.009,2.25-2.25,2.25H2.246z M2.246,1.5c-0.414,0-0.75,0.336-0.75,0.75v19.5c0,0.414,0.336,0.75,0.75,0.75h19.5
		c0.414,0,0.75-0.336,0.75-0.75V2.25c0-0.414-0.336-0.75-0.75-0.75H2.246z"/>
	<path d="M8.246,13.5c-2.895,0-5.25-2.355-5.25-5.25S5.351,3,8.246,3s5.25,2.355,5.25,5.25c0,1.383-0.535,2.688-1.507,3.677
		c-0.01,0.013-0.02,0.025-0.031,0.035c-0.01,0.011-0.023,0.021-0.036,0.031C10.94,12.962,9.633,13.5,8.246,13.5z M7.496,4.578
		c-1.712,0.352-3,1.892-3,3.672c0,2.068,1.682,3.75,3.75,3.75c0.735,0,1.455-0.219,2.066-0.623L7.716,8.78
		c-0.142-0.142-0.22-0.33-0.22-0.53V4.578z M11.373,10.316c0.404-0.611,0.623-1.331,0.623-2.066c0-1.781-1.288-3.32-3-3.672v3.362
		L11.373,10.316z"/>
	<path d="M16.496,6c-0.414,0-0.75-0.336-0.75-0.75s0.336-0.75,0.75-0.75h3c0.414,0,0.75,0.336,0.75,0.75S19.91,6,19.496,6H16.496z"
		/>
	<path d="M16.496,9c-0.414,0-0.75-0.336-0.75-0.75s0.336-0.75,0.75-0.75h3c0.414,0,0.75,0.336,0.75,0.75S19.91,9,19.496,9H16.496z"
		/>
</g>
</svg>
