<?xml version="1.0" encoding="utf-8"?>
<!-- Generator: Adobe Illustrator 22.1.0, SVG Export Plug-In . SVG Version: 6.00 Build 0)  -->
<svg version="1.1" id="Layer_1" xmlns="http://www.w3.org/2000/svg" xmlns:xlink="http://www.w3.org/1999/xlink" x="0px" y="0px"
	 viewBox="0 0 24 24" style="enable-background:new 0 0 24 24;" xml:space="preserve">
<title>pin</title>
<g>
	<path d="M0.75,23.999c-0.2,0-0.389-0.078-0.53-0.22C0.078,23.638,0,23.449,0,23.249s0.078-0.389,0.22-0.53l7.474-7.474
		l-3.575-3.575c-0.135-0.135-0.254-0.288-0.351-0.454c-0.304-0.518-0.388-1.124-0.237-1.706C3.682,8.928,4.051,8.44,4.57,8.136
		c1.266-0.736,2.7-1.124,4.15-1.124c0.472,0,0.946,0.041,1.414,0.122l3.877-6.094c0.089-0.139,0.192-0.268,0.308-0.383
		c0.424-0.425,0.989-0.659,1.59-0.659s1.166,0.234,1.591,0.659l5.843,5.843c0.117,0.118,0.22,0.247,0.308,0.384
		c0.322,0.506,0.427,1.108,0.297,1.695c-0.131,0.587-0.482,1.088-0.988,1.41l-6.092,3.877c0.331,1.911-0.021,3.877-1,5.562
		c-0.099,0.168-0.218,0.322-0.354,0.458c-0.424,0.423-0.988,0.656-1.588,0.656c-0.604-0.001-1.169-0.236-1.593-0.661l-3.576-3.577
		L1.28,23.78C1.139,23.921,0.95,23.999,0.75,23.999z M8.72,8.513c-1.186,0-2.36,0.318-3.394,0.919
		C5.156,9.532,5.033,9.694,4.982,9.888c-0.051,0.194-0.022,0.396,0.079,0.568c0.033,0.056,0.072,0.106,0.117,0.151l8.214,8.214
		c0.142,0.142,0.331,0.22,0.532,0.22c0.2,0,0.388-0.077,0.529-0.218c0.046-0.046,0.085-0.096,0.117-0.151
		c0.879-1.512,1.138-3.283,0.728-4.985c-0.075-0.311,0.056-0.636,0.326-0.808l6.529-4.155c0.169-0.108,0.286-0.274,0.33-0.47
		c0.043-0.195,0.008-0.396-0.099-0.565c-0.029-0.046-0.064-0.089-0.103-0.128L16.44,1.718c-0.142-0.142-0.33-0.22-0.531-0.22
		c-0.2,0-0.389,0.078-0.53,0.22C15.34,1.757,15.306,1.8,15.276,1.846l-4.155,6.53c-0.139,0.218-0.375,0.347-0.633,0.347
		c-0.059,0-0.118-0.007-0.175-0.021C9.79,8.576,9.254,8.513,8.72,8.513z"/>
</g>
</svg>
