<?xml version="1.0" encoding="utf-8"?>
<!-- Generator: Adobe Illustrator 22.1.0, SVG Export Plug-In . SVG Version: 6.00 Build 0)  -->
<svg version="1.1" id="Layer_1" xmlns="http://www.w3.org/2000/svg" xmlns:xlink="http://www.w3.org/1999/xlink" x="0px" y="0px"
	 viewBox="0 0 24 24" style="enable-background:new 0 0 24 24;" xml:space="preserve">
<title>button-play-1</title>
<g>
	<path d="M12,23.998c-6.617,0-12-5.383-12-12c0-6.617,5.383-12,12-12c6.617,0,12,5.383,12,12C24,18.615,18.617,23.998,12,23.998z
		 M12,1.498c-5.79,0-10.5,4.71-10.5,10.5c0,5.79,4.71,10.5,10.5,10.5c5.79,0,10.5-4.71,10.5-10.5C22.5,6.208,17.79,1.498,12,1.498z"
		/>
	<path d="M10.635,17.998c-0.636,0-1.235-0.248-1.685-0.697c-0.451-0.45-0.7-1.049-0.7-1.687V8.384c0-0.578,0.209-1.136,0.59-1.572
		c0.453-0.517,1.107-0.813,1.796-0.813c0.578,0,1.135,0.209,1.57,0.59l5.538,4.847C17.907,11.578,18,11.784,18,12
		c0,0.217-0.094,0.422-0.257,0.565l-5.537,4.844c-0.435,0.38-0.992,0.589-1.568,0.589C10.638,17.998,10.635,17.998,10.635,17.998z
		 M10.636,7.499c-0.256,0-0.499,0.11-0.667,0.302C9.828,7.962,9.75,8.169,9.75,8.384v7.229c0,0.236,0.093,0.459,0.26,0.626
		c0.167,0.167,0.389,0.259,0.625,0.259c0.215,0,0.422-0.078,0.583-0.219L16.111,12l-4.893-4.282
		C11.057,7.576,10.85,7.499,10.636,7.499z"/>
</g>
</svg>
