<?xml version="1.0" encoding="utf-8"?>
<!-- Generator: Adobe Illustrator 22.1.0, SVG Export Plug-In . SVG Version: 6.00 Build 0)  -->
<svg version="1.1" id="Layer_1" xmlns="http://www.w3.org/2000/svg" xmlns:xlink="http://www.w3.org/1999/xlink" x="0px" y="0px"
	 viewBox="0 0 24 24" style="enable-background:new 0 0 24 24;" xml:space="preserve">
<title>module-puzzle</title>
<g>
	<path d="M19.5,24c-1.906,0-3.591-1.212-4.229-2.961l-2.302,2.299c-0.424,0.424-0.989,0.657-1.59,0.657s-1.167-0.234-1.591-0.658
		L7.682,21.23c-0.177-0.177-0.254-0.429-0.206-0.674c0.048-0.245,0.214-0.45,0.444-0.547c0.726-0.306,1.294-0.874,1.6-1.599
		c0.311-0.739,0.316-1.554,0.014-2.296s-0.875-1.322-1.614-1.634c-0.374-0.157-0.766-0.237-1.165-0.237
		c-0.387,0-0.767,0.075-1.131,0.223c-0.742,0.302-1.322,0.875-1.633,1.614c-0.097,0.231-0.302,0.397-0.547,0.445
		c-0.045,0.01-0.095,0.015-0.145,0.015c-0.196,0-0.389-0.08-0.529-0.219l-2.111-2.106c-0.877-0.877-0.878-2.305-0.001-3.182
		L2.96,8.729C1.212,8.091,0,6.406,0,4.5C0,2.019,2.019,0,4.5,0c1.906,0,3.59,1.212,4.229,2.961l2.302-2.302
		c0.424-0.424,0.989-0.658,1.591-0.658c0.602,0,1.167,0.234,1.591,0.658l2.107,2.111c0.177,0.177,0.253,0.429,0.205,0.675
		c-0.048,0.245-0.214,0.449-0.445,0.546c-0.726,0.306-1.294,0.874-1.6,1.6c-0.642,1.524,0.075,3.287,1.6,3.929
		c0.374,0.157,0.766,0.237,1.165,0.237c0.387,0,0.768-0.075,1.131-0.223c0.742-0.302,1.322-0.875,1.634-1.614
		c0.097-0.23,0.301-0.396,0.546-0.445c0.048-0.01,0.097-0.014,0.145-0.014c0.2,0,0.388,0.078,0.529,0.219l2.111,2.106
		c0.877,0.878,0.877,2.305,0,3.182l-2.302,2.302C22.788,15.91,24,17.594,24,19.5C24,21.981,21.981,24,19.5,24z M15.75,18.75
		c0.099,0,0.196,0.019,0.288,0.057c0.281,0.116,0.462,0.388,0.462,0.693c0,1.654,1.346,3,3,3s3-1.346,3-3s-1.346-3-3-3
		c-0.304,0-0.576-0.182-0.693-0.463s-0.053-0.602,0.163-0.817l3.311-3.311c0.292-0.292,0.292-0.768,0-1.06l-1.418-1.414
		c-0.488,0.663-1.145,1.173-1.922,1.49c-0.545,0.222-1.116,0.334-1.697,0.334c-0.6,0-1.188-0.12-1.747-0.355
		c-2.286-0.964-3.363-3.608-2.399-5.894c0.318-0.755,0.821-1.394,1.469-1.871l-1.415-1.418c-0.141-0.141-0.329-0.218-0.53-0.218
		c-0.201,0-0.389,0.078-0.53,0.219L8.78,5.031c-0.141,0.142-0.33,0.22-0.53,0.22c-0.099,0-0.196-0.019-0.288-0.057
		C7.682,5.077,7.5,4.805,7.5,4.5c0-1.654-1.346-3-3-3s-3,1.346-3,3s1.346,3,3,3c0.305,0,0.577,0.182,0.693,0.463
		C5.31,8.245,5.246,8.565,5.03,8.781l-3.311,3.311c-0.292,0.292-0.292,0.768,0,1.061l1.418,1.414
		c0.488-0.663,1.144-1.173,1.922-1.49c0.545-0.222,1.115-0.334,1.697-0.334c0.6,0,1.188,0.12,1.748,0.356
		c1.107,0.467,1.967,1.337,2.42,2.45c0.453,1.113,0.446,2.336-0.021,3.444c-0.318,0.754-0.821,1.393-1.468,1.87l1.414,1.415
		c0.141,0.141,0.329,0.219,0.53,0.219c0.201,0,0.389-0.078,0.53-0.219l3.312-3.308C15.359,18.83,15.553,18.75,15.75,18.75z"/>
</g>
</svg>
