<svg xmlns="http://www.w3.org/2000/svg" viewBox="0 0 24 24"><defs><style>.a{fill:none;stroke:#000;stroke-linecap:round;stroke-linejoin:round;stroke-width:1.5px;}</style></defs><title>file-code-question-1</title><circle class="a" cx="17.238" cy="17.254" r="6"/><path class="a" d="M15.363,16.129A1.875,1.875,0,1,1,17.238,18"/><path class="a" d="M17.238,20.254a.375.375,0,1,1-.375.375.374.374,0,0,1,.375-.375"/><path class="a" d="M8.238,20.254h-6a1.5,1.5,0,0,1-1.5-1.5V2.254a1.5,1.5,0,0,1,1.5-1.5H12.866a1.5,1.5,0,0,1,1.061.439L16.8,4.064a1.5,1.5,0,0,1,.44,1.061V8.254"/><polyline class="a" points="8.988 6.004 11.238 8.254 8.988 10.504"/><polyline class="a" points="5.988 6.004 3.738 8.254 5.988 10.504"/></svg>