<?xml version="1.0" encoding="utf-8"?>
<!-- Generator: Adobe Illustrator 22.1.0, SVG Export Plug-In . SVG Version: 6.00 Build 0)  -->
<svg version="1.1" id="Layer_1" xmlns="http://www.w3.org/2000/svg" xmlns:xlink="http://www.w3.org/1999/xlink" x="0px" y="0px"
	 viewBox="0 0 24 24" style="enable-background:new 0 0 24 24;" xml:space="preserve">
<title>file-code-edit-1</title>
<g>
	<path d="M11.231,24c-0.2,0-0.389-0.078-0.53-0.22c-0.178-0.177-0.255-0.431-0.205-0.677l0.75-3.75
		c0.029-0.146,0.1-0.279,0.205-0.384l7.631-7.631c0.54-0.54,1.26-0.838,2.026-0.838c0.766,0,1.485,0.298,2.026,0.838
		c1.123,1.12,1.129,2.941,0.014,4.06c-0.003,0.003-7.636,7.632-7.636,7.632c-0.105,0.105-0.238,0.176-0.384,0.205l-3.75,0.75
		C11.329,23.995,11.28,24,11.231,24z M12.187,22.294l2.424-0.485l7.47-7.466c0.534-0.536,0.533-1.402,0-1.934
		c-0.263-0.263-0.61-0.407-0.978-0.407c-0.364,0-0.705,0.141-0.962,0.398l-7.47,7.47L12.187,22.294z"/>
	<path d="M2.231,21.004c-1.241,0-2.25-1.009-2.25-2.25v-16.5c0-1.241,1.009-2.25,2.25-2.25H12.86c0.601,0,1.166,0.234,1.591,0.659
		l2.873,2.871c0.425,0.426,0.659,0.991,0.659,1.592v3.128c0,0.414-0.336,0.75-0.75,0.75s-0.75-0.336-0.75-0.75V5.125
		c0-0.201-0.078-0.389-0.219-0.531l-2.873-2.871c-0.142-0.142-0.33-0.22-0.53-0.22H2.231c-0.414,0-0.75,0.336-0.75,0.75v16.5
		c0,0.414,0.336,0.75,0.75,0.75h6c0.414,0,0.75,0.336,0.75,0.75s-0.336,0.75-0.75,0.75H2.231z"/>
	<path d="M8.981,11.254c-0.2,0-0.389-0.078-0.53-0.22c-0.142-0.141-0.22-0.33-0.22-0.53s0.078-0.389,0.22-0.53l1.72-1.72l-1.72-1.72
		c-0.142-0.141-0.22-0.33-0.22-0.53s0.078-0.389,0.22-0.53c0.141-0.142,0.33-0.22,0.53-0.22s0.389,0.078,0.53,0.22l2.25,2.25
		c0.142,0.141,0.22,0.33,0.22,0.53s-0.078,0.389-0.22,0.53l-2.25,2.25C9.37,11.176,9.182,11.254,8.981,11.254z"/>
	<path d="M5.981,11.254c-0.2,0-0.389-0.078-0.53-0.22l-2.25-2.25c-0.142-0.141-0.22-0.33-0.22-0.53s0.078-0.389,0.22-0.53l2.25-2.25
		c0.142-0.142,0.33-0.22,0.53-0.22s0.389,0.078,0.53,0.22c0.142,0.141,0.22,0.33,0.22,0.53s-0.078,0.389-0.22,0.53l-1.72,1.72
		l1.72,1.72c0.142,0.141,0.22,0.33,0.22,0.53s-0.078,0.389-0.22,0.53C6.37,11.176,6.182,11.254,5.981,11.254z"/>
</g>
</svg>
