<?xml version="1.0" encoding="utf-8"?>
<!-- Generator: Adobe Illustrator 22.1.0, SVG Export Plug-In . SVG Version: 6.00 Build 0)  -->
<svg version="1.1" id="Layer_1" xmlns="http://www.w3.org/2000/svg" xmlns:xlink="http://www.w3.org/1999/xlink" x="0px" y="0px"
	 viewBox="0 0 24 24" style="enable-background:new 0 0 24 24;" xml:space="preserve">
<title>notes-paper-approve</title>
<g>
	<path d="M2.25,24C1.009,24,0,22.991,0,21.75V2.25C0,1.009,1.009,0,2.25,0h19.5C22.991,0,24,1.009,24,2.25v11.379
		c0,0.317-0.066,0.625-0.196,0.916c-0.002,0.005-0.009,0.018-0.011,0.023c-0.109,0.239-0.262,0.461-0.451,0.65l-8.123,8.122
		c-0.19,0.19-0.411,0.343-0.659,0.456c-0.006,0.003-0.026,0.012-0.032,0.014C14.254,23.934,13.946,24,13.629,24H2.25z M2.25,1.5
		C1.836,1.5,1.5,1.836,1.5,2.25v19.5c0,0.414,0.336,0.75,0.75,0.75H13.5v-6.75c0-1.241,1.009-2.25,2.25-2.25h6.75V2.25
		c0-0.414-0.336-0.75-0.75-0.75H2.25z M15.75,15C15.336,15,15,15.336,15,15.75v5.689L21.439,15H15.75z"/>
	<path d="M8.487,13.678c-0.488,0-0.953-0.156-1.346-0.45c-0.058-0.043-0.113-0.089-0.167-0.138l-2.23-2.036
		c-0.305-0.279-0.327-0.754-0.048-1.06C4.838,9.839,5.04,9.75,5.25,9.75c0.188,0,0.367,0.07,0.505,0.196l2.23,2.036
		c0.018,0.016,0.036,0.031,0.055,0.046c0.131,0.099,0.286,0.15,0.449,0.15c0.036,0,0.072-0.003,0.108-0.008
		c0.198-0.028,0.373-0.132,0.494-0.292L14.4,4.8c0.141-0.188,0.366-0.3,0.6-0.3c0.163,0,0.318,0.052,0.449,0.149
		C15.781,4.899,15.848,5.37,15.6,5.7l-5.309,7.078c-0.361,0.481-0.887,0.792-1.482,0.877C8.702,13.671,8.594,13.678,8.487,13.678z"
		/>
</g>
</svg>
