<?xml version="1.0" encoding="utf-8"?>
<!-- Generator: Adobe Illustrator 22.1.0, SVG Export Plug-In . SVG Version: 6.00 Build 0)  -->
<svg version="1.1" id="Layer_1" xmlns="http://www.w3.org/2000/svg" xmlns:xlink="http://www.w3.org/1999/xlink" x="0px" y="0px"
	 viewBox="0 0 24 24" style="enable-background:new 0 0 24 24;" xml:space="preserve">
<title>rating-star-give-1</title>
<g>
	<path d="M0.75,24.001c-0.414,0-0.75-0.336-0.75-0.75v-9c0-0.414,0.336-0.75,0.75-0.75s0.75,0.336,0.75,0.75v0.75H6
		c1.8,0,3.324,1.268,3.675,3h3.075c2.068,0,3.75,1.682,3.75,3.75c0,0.414-0.336,0.75-0.75,0.75H1.5v0.75
		C1.5,23.664,1.164,24.001,0.75,24.001z M14.872,21.001c-0.313-0.879-1.159-1.5-2.121-1.5H6c-0.414,0-0.75-0.336-0.75-0.75
		s0.336-0.75,0.75-0.75h2.118c-0.313-0.879-1.158-1.5-2.118-1.5H1.5v4.5H14.872z"/>
	<path d="M11.491,15.746c-0.59,0-1.136-0.318-1.425-0.831c-0.25-0.444-0.278-0.988-0.074-1.454l1.536-3.527L8.774,7.228
		C8.463,6.922,8.29,6.514,8.286,6.078C8.282,5.641,8.448,5.23,8.754,4.918C9.059,4.608,9.484,4.43,9.919,4.43h2.968l1.792-3.535
		c0.27-0.547,0.845-0.903,1.463-0.903c0.251,0,0.494,0.057,0.72,0.168c0.32,0.158,0.583,0.421,0.742,0.74l1.793,3.53h2.968
		c0.902,0.001,1.634,0.735,1.633,1.636C23.997,6.5,23.82,6.923,23.512,7.227l-2.751,2.707l1.535,3.528
		c0.174,0.399,0.182,0.843,0.022,1.249s-0.468,0.726-0.867,0.9c-0.206,0.09-0.426,0.135-0.652,0.135l0,0
		c-0.281,0-0.559-0.072-0.802-0.209l-3.854-2.167l-3.854,2.167C12.046,15.674,11.77,15.746,11.491,15.746z M9.92,5.93
		c-0.035,0-0.071,0.015-0.095,0.04C9.798,5.996,9.786,6.027,9.786,6.064c0,0.036,0.014,0.068,0.04,0.094l3.122,3.068
		c0.22,0.217,0.285,0.552,0.162,0.834l-1.742,4c-0.016,0.038-0.014,0.083,0.006,0.119c0.028,0.049,0.079,0.067,0.117,0.067
		c0.023,0,0.045-0.006,0.065-0.017l4.222-2.374c0.112-0.063,0.239-0.096,0.368-0.096s0.256,0.033,0.367,0.096l4.222,2.374
		c0.02,0.011,0.042,0.017,0.066,0.017c0.018,0,0.036-0.004,0.052-0.011c0.034-0.015,0.058-0.039,0.071-0.073
		c0.013-0.034,0.013-0.069-0.002-0.102l-1.741-4c-0.123-0.283-0.058-0.618,0.162-0.834l3.117-3.068
		c0.024-0.024,0.039-0.06,0.039-0.095c0-0.073-0.06-0.134-0.134-0.134h-3.427c-0.284,0-0.54-0.157-0.668-0.41l-2.005-3.946
		c-0.017-0.034-0.039-0.056-0.065-0.069c-0.018-0.009-0.037-0.013-0.057-0.013c-0.041,0-0.094,0.019-0.121,0.074l-2.004,3.953
		c-0.129,0.254-0.385,0.411-0.669,0.411H9.92z"/>
</g>
</svg>
