<?xml version="1.0" encoding="utf-8"?>
<!-- Generator: Adobe Illustrator 22.1.0, SVG Export Plug-In . SVG Version: 6.00 Build 0)  -->
<svg version="1.1" id="Layer_1" xmlns="http://www.w3.org/2000/svg" xmlns:xlink="http://www.w3.org/1999/xlink" x="0px" y="0px"
	 viewBox="0 0 24 24" style="enable-background:new 0 0 24 24;" xml:space="preserve">
<title>rating-star-circle</title>
<g>
	<path d="M8.749,17.251c-0.121,0-0.243-0.016-0.362-0.047c-0.364-0.096-0.669-0.328-0.858-0.653
		c-0.221-0.38-0.251-0.848-0.082-1.253l0.996-2.289l-1.778-1.585c-0.289-0.284-0.442-0.64-0.444-1.015
		c-0.002-0.374,0.141-0.727,0.404-0.993C6.887,9.152,7.254,9,7.63,9h1.906l1.197-2.521c0.182-0.354,0.478-0.606,0.838-0.722
		c0.141-0.045,0.286-0.068,0.432-0.068c0.223,0,0.447,0.055,0.647,0.158c0.262,0.135,0.473,0.345,0.609,0.608
		C13.261,6.459,14.467,9,14.467,9h1.903c0.37,0,0.726,0.143,0.984,0.393c0.269,0.26,0.421,0.609,0.428,0.983
		c0.006,0.381-0.145,0.754-0.416,1.021l-1.81,1.612l0.992,2.28c0.148,0.353,0.15,0.737,0.008,1.086
		c-0.142,0.349-0.411,0.621-0.759,0.767c-0.173,0.072-0.355,0.108-0.543,0.108l0,0c-0.25,0-0.495-0.066-0.709-0.191L12,15.627
		l-2.555,1.437C9.237,17.186,8.995,17.251,8.749,17.251z M9.847,12.25c0.242,0.216,0.318,0.562,0.189,0.859L8.94,15.628l2.693-1.514
		c0.113-0.063,0.24-0.096,0.368-0.096s0.255,0.033,0.367,0.096l2.694,1.515l-1.096-2.518c-0.13-0.298-0.054-0.644,0.189-0.86
		l1.967-1.75l-2.128,0c-0.288,0-0.554-0.168-0.677-0.428l-1.314-2.768l-1.313,2.768c-0.123,0.26-0.389,0.428-0.677,0.428H7.883
		L9.847,12.25z"/>
	<path d="M12,24C5.383,24,0,18.617,0,12C0,5.383,5.383,0,12,0c6.617,0,12,5.383,12,12C24,18.617,18.617,24,12,24z M12,1.5
		C6.21,1.5,1.5,6.21,1.5,12c0,5.79,4.71,10.5,10.5,10.5c5.79,0,10.5-4.71,10.5-10.5C22.5,6.21,17.79,1.5,12,1.5z"/>
</g>
</svg>
