<?xml version="1.0" encoding="utf-8"?>
<!-- Generator: Adobe Illustrator 22.1.0, SVG Export Plug-In . SVG Version: 6.00 Build 0)  -->
<svg version="1.1" id="Layer_1" xmlns="http://www.w3.org/2000/svg" xmlns:xlink="http://www.w3.org/1999/xlink" x="0px" y="0px"
	 viewBox="0 0 24 24" style="enable-background:new 0 0 24 24;" xml:space="preserve">
<title>button-refresh-arrow</title>
<g>
	<path d="M12.723,22.497c-1.385,0-2.737-0.271-4.019-0.804c-0.185-0.077-0.329-0.221-0.405-0.406
		c-0.076-0.185-0.076-0.389,0.001-0.574c0.117-0.281,0.389-0.462,0.693-0.462c0.099,0,0.196,0.019,0.287,0.057
		c1.099,0.457,2.257,0.689,3.445,0.689c2.323,0,4.526-0.884,6.204-2.489c1.728-1.654,2.709-3.885,2.762-6.283
		c0.053-2.398-0.829-4.671-2.482-6.399c-1.706-1.783-4.008-2.765-6.483-2.765c-2.323,0-4.525,0.882-6.199,2.485
		C4.914,7.089,3.939,9.16,3.781,11.379c-0.14,2,0.375,3.948,1.462,5.589v-2.72c0-0.414,0.336-0.75,0.75-0.75s0.75,0.336,0.75,0.75
		v4.5c0,0.414-0.336,0.75-0.75,0.75H5.755c-0.016,0.002-0.031,0.003-0.045,0.003c-0.017,0-0.034-0.001-0.051-0.003H1.493
		c-0.414,0-0.75-0.336-0.75-0.75s0.336-0.75,0.75-0.75h2.636c-1.258-1.808-1.918-3.983-1.869-6.203
		c0.005-0.231,0.02-0.473,0.047-0.761l0.007-0.076c0.006-0.066,0.012-0.131,0.019-0.197l0.006-0.045
		C2.641,8.311,3.761,6.081,5.497,4.42c1.964-1.878,4.544-2.913,7.264-2.913c1.385,0,2.738,0.269,4.019,0.8
		c0.1,0.041,0.188,0.103,0.26,0.18c1.226,0.552,2.32,1.326,3.253,2.301c3.991,4.171,3.844,10.812-0.327,14.803
		c-1.958,1.873-4.53,2.905-7.241,2.905H12.723z"/>
</g>
</svg>
