<?xml version="1.0" encoding="utf-8"?>
<!-- Generator: Adobe Illustrator 22.1.0, SVG Export Plug-In . SVG Version: 6.00 Build 0)  -->
<svg version="1.1" id="Layer_1" xmlns="http://www.w3.org/2000/svg" xmlns:xlink="http://www.w3.org/1999/xlink" x="0px" y="0px"
	 viewBox="0 0 24 24" style="enable-background:new 0 0 24 24;" xml:space="preserve">
<title>responsive-design-1</title>
<g>
	<path d="M15,19.5c-0.414,0-0.75-0.336-0.75-0.75S14.586,18,15,18h0.615l-0.604-3.626c-0.003-0.017-0.006-0.054-0.006-0.071
		C15.002,14.298,15,14.274,15,14.25c0-0.012,0.001-0.025,0.002-0.037c0.001-0.019,0.003-0.035,0.005-0.052
		c0.004-0.032,0.007-0.051,0.01-0.069c0.007-0.031,0.014-0.054,0.022-0.076c0.007-0.022,0.014-0.044,0.023-0.064
		c0.011-0.025,0.021-0.043,0.031-0.062c0.017-0.031,0.028-0.049,0.04-0.067c0.014-0.02,0.029-0.038,0.043-0.055
		c0.021-0.024,0.033-0.038,0.046-0.051c0.021-0.021,0.04-0.036,0.059-0.051c0.018-0.015,0.034-0.028,0.052-0.04
		c0.024-0.016,0.043-0.026,0.063-0.036c0.031-0.016,0.052-0.027,0.075-0.036c0.011-0.004,0.044-0.015,0.055-0.018
		c0.027-0.008,0.048-0.014,0.068-0.019c0.017-0.004,0.035-0.008,0.051-0.01c0.005-0.001,0.028-0.003,0.051-0.003
		c0.005-0.002,0.028-0.004,0.052-0.004h6c0.414,0,0.75-0.336,0.75-0.75V12h-6.75C15.336,12,15,11.664,15,11.25s0.336-0.75,0.75-0.75
		h6.75V2.25c0-0.414-0.336-0.75-0.75-0.75H5.25C4.836,1.5,4.5,1.836,4.5,2.25S4.164,3,3.75,3S3,2.664,3,2.25C3,1.009,4.009,0,5.25,0
		h16.5C22.991,0,24,1.009,24,2.25v10.5c0,1.241-1.009,2.25-2.25,2.25h-5.115l0.5,3h1.615c0.414,0,0.75,0.336,0.75,0.75
		s-0.336,0.75-0.75,0.75H15z"/>
	<path d="M2.25,24C1.009,24,0,22.991,0,21.75v-9c0-1.241,1.009-2.25,2.25-2.25h4.5C7.991,10.5,9,11.509,9,12.75v9
		C9,22.991,7.991,24,6.75,24H2.25z M1.5,21.75c0,0.414,0.336,0.75,0.75,0.75h4.5c0.414,0,0.75-0.336,0.75-0.75V21h-6V21.75z
		 M7.5,19.5v-6.75C7.5,12.336,7.164,12,6.75,12h-4.5c-0.414,0-0.75,0.336-0.75,0.75v6.75H7.5z"/>
	<path d="M11.25,18c-0.414,0-0.75-0.336-0.75-0.75s0.336-0.75,0.75-0.75S12,16.164,12,15.75V15h-0.75c-0.414,0-0.75-0.336-0.75-0.75
		s0.336-0.75,0.75-0.75H12V9H3.75C3.336,9,3,8.664,3,8.25v-1.5C3,5.509,4.009,4.5,5.25,4.5h6c1.241,0,2.25,1.009,2.25,2.25v9
		C13.5,16.991,12.491,18,11.25,18z M12,7.5V6.75C12,6.336,11.664,6,11.25,6h-6C4.836,6,4.5,6.336,4.5,6.75V7.5H12z"/>
</g>
</svg>
