<svg viewBox="0 0 16 16" xmlns="http://www.w3.org/2000/svg"><g stroke="#000" fill="none" fill-rule="evenodd" stroke-linecap="round" stroke-linejoin="round"><path d="M14.637 1.478l-1.373.152A4.777 4.777 0 0010.416 3l-6.24 6.24 2.698 2.699 6.242-6.24a4.772 4.772 0 001.369-2.849l.152-1.372zM4.176 9.24L1.87 8.47a.476.476 0 01-.187-.79l.148-.147a3.818 3.818 0 013.907-.922l.799.266-2.362 2.362z"/><path d="M4.176 9.24L1.87 8.47a.476.476 0 01-.187-.79l.148-.147a3.818 3.818 0 013.907-.922l.799.266-2.362 2.362zM6.874 11.939l.768 2.305a.476.476 0 00.79.186l.148-.147a3.819 3.819 0 00.922-3.908l-.264-.795-2.364 2.359z"/><path d="M6.874 11.939l.768 2.305a.476.476 0 00.79.186l.148-.147a3.819 3.819 0 00.922-3.908l-.264-.795-2.364 2.359zM5.27 12.277c0 .38-.15.744-.42 1.013-.559.558-3.373 1.35-3.373 1.35s.791-2.817 1.35-3.373c.246-.247.572-.395.919-.417"/></g></svg>