<svg xmlns="http://www.w3.org/2000/svg" viewBox="0 0 24 24"><defs><style>.a{fill:none;stroke:currentColor;stroke-linecap:round;stroke-linejoin:round;stroke-width:1.5px;}</style></defs><title>space-rocket</title><circle class="a" cx="6.75" cy="10.5" r="3"/><path class="a" d="M5,18.75H8.5a.5.5,0,0,1,.5.5v4a0,0,0,0,1,0,0H4.5a0,0,0,0,1,0,0v-4A.5.5,0,0,1,5,18.75Z"/><line class="a" x1="12.75" y1="6.75" x2="19.826" y2="6.75"/><path class="a" d="M22.5,17.25H18V4.694l1.736-3.633a.58.58,0,0,1,1.028,0L22.5,4.694Z"/><line class="a" x1="20.25" y1="17.25" x2="20.25" y2="23.25"/><path class="a" d="M18.273,17.25l-.6,1.156a3.735,3.735,0,0,0-.422,1.721v1.891a.5.5,0,0,0,.724.431l2.276-1.1,2.276,1.1a.5.5,0,0,0,.724-.431V20.127a3.735,3.735,0,0,0-.422-1.721l-.6-1.156"/><path class="a" d="M1.75,3.75h10a1,1,0,0,1,1,1v18.5a0,0,0,0,1,0,0H.75a0,0,0,0,1,0,0V4.75A1,1,0,0,1,1.75,3.75Z"/><line class="a" x1="12.75" y1="12.75" x2="15" y2="12.75"/><line class="a" x1="12.75" y1="18.75" x2="14.25" y2="18.75"/><line class="a" x1="3.75" y1="13.5" x2="4.629" y2="12.621"/><line class="a" x1="8.871" y1="8.379" x2="9.75" y2="7.5"/></svg>
