<?xml version="1.0" encoding="utf-8"?>
<!-- Generator: Adobe Illustrator 22.1.0, SVG Export Plug-In . SVG Version: 6.00 Build 0)  -->
<svg version="1.1" id="Layer_1" xmlns="http://www.w3.org/2000/svg" xmlns:xlink="http://www.w3.org/1999/xlink" x="0px" y="0px"
	 viewBox="0 0 24 24" style="enable-background:new 0 0 24 24;" xml:space="preserve">
<title>search</title>
<g>
	<path d="M23.245,23.996c-0.2,0-0.389-0.078-0.53-0.22L16.2,17.26c-0.761,0.651-1.618,1.182-2.553,1.579
		c-1.229,0.522-2.52,0.787-3.837,0.787c-1.257,0-2.492-0.241-3.673-0.718c-2.431-0.981-4.334-2.849-5.359-5.262
		c-1.025-2.412-1.05-5.08-0.069-7.51S3.558,1.802,5.97,0.777C7.199,0.254,8.489-0.01,9.807-0.01c1.257,0,2.492,0.242,3.673,0.718
		c2.431,0.981,4.334,2.849,5.359,5.262c1.025,2.413,1.05,5.08,0.069,7.51c-0.402,0.996-0.956,1.909-1.649,2.718l6.517,6.518
		c0.292,0.292,0.292,0.768,0,1.061C23.634,23.918,23.445,23.996,23.245,23.996z M9.807,1.49c-1.115,0-2.209,0.224-3.25,0.667
		C4.513,3.026,2.93,4.638,2.099,6.697c-0.831,2.059-0.81,4.318,0.058,6.362c0.869,2.044,2.481,3.627,4.54,4.458
		c1.001,0.404,2.048,0.608,3.112,0.608c1.115,0,2.209-0.224,3.25-0.667c0.974-0.414,1.847-0.998,2.594-1.736
		c0.01-0.014,0.021-0.026,0.032-0.037c0.016-0.016,0.031-0.029,0.045-0.039c0.763-0.771,1.369-1.693,1.786-2.728
		c0.831-2.059,0.81-4.318-0.059-6.362c-0.868-2.044-2.481-3.627-4.54-4.458C11.918,1.695,10.871,1.49,9.807,1.49z"/>
</g>
</svg>
