<?xml version="1.0" encoding="utf-8"?>
<!-- Generator: Adobe Illustrator 22.1.0, SVG Export Plug-In . SVG Version: 6.00 Build 0)  -->
<svg version="1.1" id="Layer_1" xmlns="http://www.w3.org/2000/svg" xmlns:xlink="http://www.w3.org/1999/xlink" x="0px" y="0px"
	 viewBox="0 0 24 24" style="enable-background:new 0 0 24 24;" xml:space="preserve">
<g>
	<title>share</title>
	<path d="M19.494,23.997c-0.701,0-1.375-0.159-2.005-0.474c-1.075-0.537-1.877-1.461-2.257-2.601
		c-0.323-0.969-0.305-2.015,0.049-2.973l-7.013-3.507c-0.436,0.671-1.055,1.227-1.764,1.581c-0.632,0.316-1.307,0.476-2.006,0.476
		c-0.484,0-0.965-0.079-1.429-0.234c-1.14-0.381-2.064-1.183-2.601-2.258c-0.537-1.075-0.623-2.296-0.243-3.436
		c0.381-1.14,1.183-2.064,2.258-2.601c0.628-0.314,1.301-0.473,2-0.473c1.53,0,2.959,0.782,3.784,2.056l7.011-3.505
		c-0.184-0.502-0.281-1.041-0.279-1.572c0.006-2.481,2.029-4.499,4.51-4.499c1.216,0.003,2.347,0.475,3.197,1.329
		c0.85,0.854,1.316,1.988,1.313,3.192s-0.475,2.336-1.329,3.186c-0.851,0.847-1.98,1.313-3.181,1.313
		c-1.561-0.002-2.956-0.765-3.784-2.054l-7.005,3.502c0.369,0.998,0.369,2.106,0,3.104l7.005,3.502
		c0.829-1.289,2.223-2.053,3.774-2.054c0,0,0.003,0,0.004,0c0.694,0,1.39,0.164,2.011,0.475c2.22,1.109,3.123,3.818,2.014,6.037
		C22.759,23.044,21.214,23.997,19.494,23.997z M16.365,17.943c-0.414,0.834-0.479,1.779-0.185,2.662
		c0.296,0.887,0.92,1.605,1.756,2.023c0.49,0.244,1.014,0.368,1.558,0.368c1.339,0,2.541-0.741,3.137-1.935
		c0.417-0.835,0.484-1.783,0.188-2.671s-0.919-1.607-1.754-2.024c-0.483-0.241-1.024-0.369-1.564-0.369l-0.003-0.25l0,0.25
		c-1.334,0.001-2.532,0.743-3.128,1.937C16.369,17.937,16.367,17.94,16.365,17.943z M4.487,8.497c-0.544,0-1.068,0.124-1.557,0.368
		c-0.837,0.418-1.46,1.136-1.756,2.023c-0.296,0.887-0.229,1.836,0.188,2.672c0.418,0.836,1.136,1.46,2.023,1.756
		c0.362,0.121,0.736,0.182,1.112,0.182c0.543,0,1.068-0.125,1.56-0.371c0.674-0.337,1.231-0.894,1.568-1.567
		c0.002-0.003,0.003-0.007,0.005-0.01c0.49-0.977,0.489-2.14-0.004-3.115C7.028,9.239,5.826,8.497,4.487,8.497z M19.508,0.978
		c-1.931,0-3.505,1.571-3.51,3.501c-0.001,0.546,0.127,1.093,0.372,1.582c0.596,1.194,1.795,1.936,3.128,1.937
		c0.944,0,1.823-0.363,2.485-1.022c0.665-0.661,1.032-1.542,1.034-2.479c0.002-0.937-0.361-1.82-1.022-2.484
		c-0.661-0.665-1.542-1.032-2.479-1.034l-0.009-0.25V0.978z"/>
</g>
</svg>
