<?xml version="1.0" encoding="utf-8"?>
<!-- Generator: Adobe Illustrator 22.1.0, SVG Export Plug-In . SVG Version: 6.00 Build 0)  -->
<svg version="1.1" id="Layer_1" xmlns="http://www.w3.org/2000/svg" xmlns:xlink="http://www.w3.org/1999/xlink" x="0px" y="0px"
	 viewBox="0 0 24 24" style="enable-background:new 0 0 24 24;" xml:space="preserve">
<title>share</title>
<g>
	<path d="M18.75,22.5c-2.481,0-4.5-2.019-4.5-4.5c0-0.444,0.067-0.884,0.198-1.312l-5.571-2.785
		C8.029,15.065,6.697,15.75,5.25,15.75c-2.481,0-4.5-2.019-4.5-4.5c0-2.481,2.019-4.5,4.5-4.5c1.598,0,3.047,0.833,3.859,2.195
		l5.236-2.036C14.282,6.607,14.25,6.302,14.25,6c0-2.481,2.019-4.5,4.5-4.5s4.5,2.019,4.5,4.5s-2.019,4.5-4.5,4.5
		c-1.597,0-3.046-0.833-3.859-2.194l-5.236,2.036c0.063,0.302,0.095,0.606,0.095,0.908c0,0.444-0.067,0.884-0.199,1.312l5.57,2.785
		c0.848-1.163,2.181-1.848,3.628-1.848c2.481,0,4.5,2.019,4.5,4.5S21.231,22.5,18.75,22.5z M18.75,15c-1.654,0-3,1.346-3,3
		s1.346,3,3,3s3-1.346,3-3S20.404,15,18.75,15z M5.25,8.25c-1.654,0-3,1.346-3,3c0,1.654,1.346,3,3,3s3-1.346,3-3
		C8.25,9.596,6.904,8.25,5.25,8.25z M18.75,3c-1.654,0-3,1.346-3,3s1.346,3,3,3s3-1.346,3-3S20.404,3,18.75,3z"/>
</g>
</svg>
