<?xml version="1.0" encoding="utf-8"?>
<!-- Generator: Adobe Illustrator 22.1.0, SVG Export Plug-In . SVG Version: 6.00 Build 0)  -->
<svg version="1.1" id="Layer_1" xmlns="http://www.w3.org/2000/svg" xmlns:xlink="http://www.w3.org/1999/xlink" x="0px" y="0px"
	 viewBox="0 0 24 24" style="enable-background:new 0 0 24 24;" xml:space="preserve">
<title>rating-star</title>
<g>
	<path d="M18.894,24.004c-0.242,0-0.485-0.058-0.702-0.167L12,20.771l-6.187,3.064C5.596,23.944,5.361,24,5.117,24
		c-0.595,0-1.131-0.33-1.398-0.861c-0.172-0.342-0.212-0.734-0.114-1.103l1.85-6.721L0.462,10.37
		c-0.295-0.293-0.459-0.682-0.461-1.098C0,8.857,0.16,8.466,0.452,8.17c0.26-0.263,0.607-0.424,0.976-0.455l6.018-0.596l3.156-6.257
		c0.193-0.377,0.518-0.654,0.917-0.782c0.157-0.051,0.32-0.076,0.483-0.076c0.246,0,0.493,0.06,0.714,0.173
		c0.295,0.151,0.531,0.387,0.681,0.682c0.001,0.003,3.162,6.265,3.162,6.265l6.03,0.598c0.845,0.07,1.48,0.823,1.409,1.677
		c-0.031,0.369-0.192,0.715-0.455,0.976l-4.989,4.944l1.849,6.715c0.222,0.838-0.275,1.698-1.108,1.919
		C19.165,23.986,19.03,24.004,18.894,24.004z M12,19.184c0.115,0,0.231,0.027,0.334,0.079l6.528,3.232
		c0.012,0.006,0.022,0.009,0.032,0.009c0.05-0.011,0.07-0.046,0.061-0.079l-1.963-7.131c-0.072-0.261,0.003-0.541,0.195-0.732
		l5.3-5.253c0.009-0.009,0.015-0.021,0.016-0.034c0.002-0.03-0.021-0.057-0.05-0.06l-6.452-0.639
		c-0.257-0.026-0.479-0.178-0.596-0.408L12.06,1.539c-0.006-0.011-0.016-0.021-0.029-0.028c-0.009-0.005-0.02-0.007-0.031-0.007
		c-0.04,0.009-0.053,0.02-0.062,0.037L8.6,8.163c-0.116,0.23-0.339,0.383-0.596,0.409l-6.44,0.638
		C1.532,9.212,1.521,9.223,1.518,9.226C1.507,9.237,1.502,9.25,1.502,9.265c0,0.015,0.005,0.028,0.016,0.038l5.304,5.253
		c0.192,0.19,0.267,0.47,0.195,0.732l-1.965,7.138c-0.002,0.006-0.002,0.022,0.006,0.039c0.013,0.025,0.039,0.034,0.057,0.034
		c0.01,0,0.019-0.002,0.027-0.006l6.524-3.231C11.769,19.211,11.885,19.184,12,19.184z"/>
</g>
</svg>
