<?xml version="1.0" encoding="utf-8"?>
<!-- Generator: Adobe Illustrator 22.1.0, SVG Export Plug-In . SVG Version: 6.00 Build 0)  -->
<svg version="1.1" id="Layer_1" xmlns="http://www.w3.org/2000/svg" xmlns:xlink="http://www.w3.org/1999/xlink" x="0px" y="0px"
	 viewBox="0 0 24 24" style="enable-background:new 0 0 24 24;" xml:space="preserve">
<title>programming-code</title>
<g>
	<path d="M2.25,22.5C1.009,22.5,0,21.491,0,20.25V3.865C0.004,2.564,1.064,1.504,2.363,1.5h19.28C22.939,1.504,23.996,2.56,24,3.855
		v16.28c-0.004,1.301-1.064,2.361-2.363,2.365c0,0-0.001,0-0.001,0H2.25z M2.365,3C1.89,3.002,1.501,3.391,1.5,3.867V20.25
		C1.5,20.664,1.836,21,2.25,21h19.385c0.475-0.001,0.864-0.39,0.865-0.867V3.857C22.499,3.386,22.113,3.001,21.641,3H2.365L2.365,3z
		"/>
	<path d="M19.042,19.5L4.82,19.5c-0.974,0-1.79-0.792-1.82-1.766L3,6.368C3.034,5.315,3.871,4.5,4.905,4.5l14.166,0l0.049-0.001
		c1.003,0,1.846,0.825,1.879,1.839l0,11.294c-0.034,1.053-0.871,1.868-1.905,1.868L19.042,19.5z M19.091,18
		c0.223,0,0.402-0.173,0.41-0.393l0-11.245C19.493,6.172,19.306,6,19.091,6c0,0-14.156,0-14.156,0C4.689,6,4.507,6.172,4.5,6.392
		l0,11.319C4.505,17.868,4.652,18,4.835,18c0,0,0.015,0,0.015,0L19.091,18z"/>
	<path d="M13.5,12.75c-0.414,0-0.75-0.336-0.75-0.75s0.336-0.75,0.75-0.75h3c0.414,0,0.75,0.336,0.75,0.75s-0.336,0.75-0.75,0.75
		H13.5z"/>
	<path d="M8.25,15c-0.2,0-0.389-0.078-0.53-0.22c-0.292-0.292-0.292-0.768,0-1.061L9.439,12l-1.72-1.72
		C7.578,10.139,7.5,9.95,7.5,9.75s0.078-0.389,0.22-0.53C7.861,9.078,8.05,9,8.25,9s0.389,0.078,0.53,0.22l2.25,2.25
		c0.142,0.141,0.22,0.33,0.22,0.53s-0.078,0.389-0.22,0.531l-2.25,2.25C8.639,14.922,8.45,15,8.25,15z"/>
</g>
</svg>
