<svg id="Bold" xmlns="http://www.w3.org/2000/svg" viewBox="0 0 24 24"><title>social-media-twitter</title><path d="M23.32,6.44a.5.5,0,0,0-.2-.87l-.79-.2A.5.5,0,0,1,22,4.67l.44-.89a.5.5,0,0,0-.58-.7l-2,.56a.5.5,0,0,1-.44-.08,5,5,0,0,0-3-1,5,5,0,0,0-5,5v.36a.25.25,0,0,1-.22.25c-2.81.33-5.5-1.1-8.4-4.44a.51.51,0,0,0-.51-.15A.5.5,0,0,0,2,4a7.58,7.58,0,0,0,.46,4.92.25.25,0,0,1-.26.36L1.08,9.06a.5.5,0,0,0-.57.59,5.15,5.15,0,0,0,2.37,3.78.25.25,0,0,1,0,.45l-.53.21a.5.5,0,0,0-.26.69,4.36,4.36,0,0,0,3.2,2.48.25.25,0,0,1,0,.47A10.94,10.94,0,0,1,1,18.56a.5.5,0,0,0-.2,1,20.06,20.06,0,0,0,8.14,1.93,12.58,12.58,0,0,0,7-2A12.5,12.5,0,0,0,21.5,9.06V8.19a.5.5,0,0,1,.18-.38Z"/></svg>