<svg xmlns="http://www.w3.org/2000/svg" viewBox="0 0 24 24"><path d="M2.25 24A2.252 2.252 0 010 21.75V9a.75.75 0 011.5 0v12.75c0 .414.336.75.75.75h19.5a.75.75 0 00.75-.75V9A.75.75 0 0124 9v12.75A2.252 2.252 0 0121.75 24H2.25zM.75 6.75A.75.75 0 010 6V2.25A2.252 2.252 0 012.25 0h19.5A2.252 2.252 0 0124 2.25V6a.75.75 0 01-.75.75H.75zm21.75-1.5v-3a.75.75 0 00-.75-.75h-4.684l-1.072 3.75H22.5zm-8.066 0l1.072-3.75h-5.94L8.494 5.25h5.94zm-7.5 0L8.006 1.5H2.25a.75.75 0 00-.75.75v3h5.434z"/><path d="M9.107 19.5c-.173 0-.345-.028-.511-.084a1.59 1.59 0 01-.927-.806 1.6 1.6 0 01-.169-.716v-5.788a1.608 1.608 0 012.322-1.437l5.79 2.896c.383.191.669.521.805.927s.105.842-.086 1.225c-.154.309-.41.565-.719.719l-5.788 2.895a1.601 1.601 0 01-.717.169zM9.106 12a.106.106 0 00-.106.106v5.788a.108.108 0 00.072.101.112.112 0 00.081-.006l5.788-2.895a.107.107 0 00.047-.047.102.102 0 00.006-.08.1.1 0 00-.053-.061l-5.789-2.895A.1.1 0 009.106 12z"/></svg>