<?xml version="1.0" encoding="utf-8"?>
<!-- Generator: Adobe Illustrator 22.1.0, SVG Export Plug-In . SVG Version: 6.00 Build 0)  -->
<svg version="1.1" id="Layer_1" xmlns="http://www.w3.org/2000/svg" xmlns:xlink="http://www.w3.org/1999/xlink" x="0px" y="0px"
	 viewBox="0 0 24 24" style="enable-background:new 0 0 24 24;" xml:space="preserve">
<title>zoom-in</title>
<g>
	<path d="M9.75,14.999c-0.414,0-0.75-0.336-0.75-0.75v-3.75H5.25c-0.414,0-0.75-0.336-0.75-0.75s0.336-0.75,0.75-0.75H9v-3.75
		c0-0.414,0.336-0.75,0.75-0.75s0.75,0.336,0.75,0.75v3.75h3.75c0.414,0,0.75,0.336,0.75,0.75s-0.336,0.75-0.75,0.75H10.5v3.75
		C10.5,14.663,10.164,14.999,9.75,14.999z"/>
	<path d="M23.25,23.999c-0.2,0-0.389-0.078-0.53-0.22l-6.519-6.52c-1.777,1.528-4.031,2.366-6.388,2.366
		c-5.411,0-9.813-4.402-9.814-9.812c0-2.621,1.02-5.085,2.873-6.939C4.726,1.02,7.19-0.001,9.811-0.001
		c5.411,0,9.813,4.402,9.814,9.812c0,2.356-0.837,4.61-2.364,6.387l6.52,6.521c0.142,0.142,0.22,0.33,0.22,0.53
		s-0.078,0.389-0.22,0.53S23.451,23.999,23.25,23.999z M9.813,1.499c-2.222,0-4.31,0.865-5.88,2.435
		c-1.57,1.57-2.434,3.658-2.434,5.879c0,2.22,0.865,4.308,2.435,5.878c1.57,1.57,3.658,2.434,5.878,2.434
		c2.214,0,4.295-0.86,5.864-2.42c0.005-0.005,0.026-0.026,0.031-0.031c1.56-1.569,2.419-3.65,2.418-5.863
		C18.125,5.228,14.396,1.5,9.813,1.499L9.813,1.499z"/>
</g>
</svg>
