<svg fill="currentColor" xmlns="http://www.w3.org/2000/svg" viewBox="0 0 24 24">
    <g fill="none">
        <path d="M16.143 20.437c1.446-.64 2.936-2.183 3.857-3.437l-8-5 4.143 8.437zM6.703 10c-.408.916-.701 1.06-.703 2-.002 1.213.408 1.963 1 3l5-3-5.297-2zM17 9.272c-.639-.988-1.24-1.741-2.268-2.272L12 12l5-2.728zM9 17c.95.693 1.85.873 3 1v-6l-3 5zm3-14c-2.345 0-4.398.546-6 2l6 7V3z" fill="currentColor"/>
        <g stroke="currentColor" transform="translate(2 2)">
            <circle cx="10" cy="10" r="9.5"/>
            <circle cx="10" cy="10" r="7.5"/>
            <circle cx="10" cy="10" r="5.5"/>
            <circle cx="10" cy="10" r="3.5"/>
        </g>
    </g>
</svg>
