<svg>
  <pattern
    id="diagonalARegular"
    x="0"
    y="0"
    width="8"
    height="8"
    patternUnits="userSpaceOnUse"
  >
    <rect width="1" height="1" fill="currentColor" />
    <rect x="6" y="2" width="1" height="1" fill="currentColor" />
    <rect x="5" y="2" width="1" height="1" fill="currentColor" />
    <rect x="5" y="3" width="1" height="1" fill="currentColor" />
    <rect x="4" y="3" width="1" height="1" fill="currentColor" />
    <rect x="7" width="1" height="1" fill="currentColor" />
    <rect x="7" y="1" width="1" height="1" fill="currentColor" />
    <rect x="6" y="1" width="1" height="1" fill="currentColor" />
    <rect x="3" y="5" width="1" height="1" fill="currentColor" />
    <rect x="2" y="5" width="1" height="1" fill="currentColor" />
    <rect x="2" y="6" width="1" height="1" fill="currentColor" />
    <rect x="1" y="6" width="1" height="1" fill="currentColor" />
    <rect y="7" width="1" height="1" fill="currentColor" />
    <rect x="1" y="7" width="1" height="1" fill="currentColor" />
    <rect x="4" y="4" width="1" height="1" fill="currentColor" />
    <rect x="3" y="4" width="1" height="1" fill="currentColor" />
  </pattern>
  <rect x="0" y="0" width="100%" height="100%" fill="url(#diagonalARegular)" />
</svg>
