<?xml version="1.0" encoding="UTF-8"?>
<svg width="658px" height="272px" viewBox="0 0 658 272" version="1.1" xmlns="http://www.w3.org/2000/svg" xmlns:xlink="http://www.w3.org/1999/xlink">
    <!-- Generator: Sketch 62 (91390) - https://sketch.com -->
    <title>Slice 1</title>
    <desc>Created with Sketch.</desc>
    <g id="Page-1" stroke="none" stroke-width="1" fill="none" fill-rule="evenodd">
        <g id="Group" transform="translate(60.000000, 71.000000)" fill="#10162F" fill-rule="nonzero">
            <path d="M58.42,129.44 C47.98,129.44 38.32,127.04 29.44,122.24 C20.68,117.32 13.6,110 8.2,100.28 C2.92,90.559999 0.280001,78.8 0.280001,65 C0.280001,51.2 3.04,39.5 8.56,29.9 C14.08,20.18 21.4,12.86 30.52,7.93999 C39.64,3.02 49.54,0.559999 60.22,0.559999 C73.780001,0.559999 85.06,4.22 94.06,11.54 C103.06,18.74 109.24,28.34 112.6,40.34 L91.18,45.92 C84.7,30.08 74.38,22.16 60.22,22.16 C49.54,22.16 40.84,25.82 34.12,33.14 C27.4,40.34 24.04,50.96 24.04,65 C24.04,79.4 27.34,90.14 33.94,97.22 C40.54,104.3 49.12,107.84 59.68,107.84 C68.2,107.84 74.8,105.5 79.48,100.82 C84.280001,96.02 87.1,90.38 87.94,83.9 L64.54,83.9 L64.54,64.46 L110.62,64.46 L110.62,128 L91,128 L89.02,114.5 C86.26,118.82 82.3,122.42 77.14,125.3 C72.1,128.059999 65.86,129.44 58.42,129.44 Z M158.417,129.44 C150.377,129.44 143.777,127.04 138.617,122.24 C133.457,117.44 130.877,110.66 130.877,101.9 C130.877,92.9 134.297,85.7 141.137,80.3 C147.977,74.9 157.217,72.2 168.857,72.2 L184.697,72.2 L184.697,68.24 C184.697,63.8 183.197,60.5 180.197,58.34 C177.197,56.06 173.417,54.92 168.857,54.92 C161.057,54.92 155.837,58.4 153.197,65.36 L134.297,61.04 C135.737,53.48 139.577,47.42 145.817,42.86 C152.177,38.18 159.857,35.84 168.857,35.84 C180.977,35.84 190.337,39.08 196.937,45.56 C203.657,51.92 207.017,61.34 207.017,73.82 L207.017,128 L188.657,128 L186.317,116.48 C179.237,125.12 169.937,129.44 158.417,129.44 Z M164.357,110.36 C169.757,110.36 174.497,108.68 178.577,105.32 C182.657,101.84 184.697,97.28 184.697,91.64 L184.697,89.84 L169.757,89.84 C164.837,89.84 160.997,90.8 158.237,92.72 C155.597,94.64 154.277,97.58 154.277,101.54 C154.277,104.18 155.177,106.34 156.977,108.02 C158.897,109.58 161.357,110.36 164.357,110.36 Z M252.096,37.28 L252.096,51.86 C255.576,46.58 259.356,42.62 263.436,39.98 C267.636,37.22 272.556,35.84 278.196,35.84 C284.076,35.84 289.296,37.4 293.856,40.52 C298.416,43.64 301.656,48.32 303.576,54.56 C306.816,48.68 310.836,44.12 315.636,40.88 C320.556,37.52 325.776,35.84 331.296,35.84 C339.696,35.84 346.296,38.3 351.096,43.22 C355.896,48.14 358.296,54.98 358.296,63.74 L358.296,128 L335.976,128 L335.976,67.52 C335.976,59.12 332.256,54.92 324.816,54.92 C319.056,54.92 314.316,58.16 310.596,64.64 C306.996,71.12 305.196,80.48 305.196,92.72 L305.196,128 L282.876,128 L282.876,67.52 C282.876,59.12 279.156,54.92 271.716,54.92 C265.956,54.92 261.216,58.34 257.496,65.18 C253.896,71.9 252.096,81.74 252.096,94.7 L252.096,128 L229.776,128 L229.776,37.28 L252.096,37.28 Z M411.309,129.44 C402.909,129.44 396.129,127.1 390.969,122.42 C385.929,117.74 383.409,110.96 383.409,102.08 L383.409,37.28 L405.729,37.28 L405.729,95.42 C405.729,100.58 406.869,104.36 409.149,106.76 C411.549,109.16 414.729,110.36 418.689,110.36 C422.409,110.36 425.829,108.92 428.949,106.04 C432.069,103.16 434.589,98.96 436.509,93.44 C438.429,87.8 439.389,81.14 439.389,73.46 L439.389,37.28 L461.709,37.28 L461.709,128 L439.389,128 L439.389,113.42 C435.909,118.34 431.769,122.24 426.969,125.12 C422.169,128 416.949,129.44 411.309,129.44 Z M523.304,129.44 C512.864,129.44 504.704,126.62 498.824,120.98 C492.944,115.34 490.004,107 490.004,95.96 L490.004,56.36 L475.964,56.36 L475.964,37.28 L490.004,37.28 L490.004,14.6 L512.324,0.559999 L512.324,37.28 L536.264,37.28 L536.264,56.36 L512.324,56.36 L512.324,95.6 C512.324,101 513.284,104.84 515.204,107.12 C517.244,109.28 520.244,110.36 524.204,110.36 C527.204,110.36 530.084,109.64 532.844,108.2 L538.064,126.2 C533.384,128.36 528.464,129.44 523.304,129.44 Z" id="Shape"></path>
        </g>
    </g>
</svg>