<?xml version="1.0" encoding="UTF-8"?>
<svg width="608px" height="218px" viewBox="0 0 608 218" version="1.1" xmlns="http://www.w3.org/2000/svg" xmlns:xlink="http://www.w3.org/1999/xlink">
    <!-- Generator: Sketch 62 (91390) - https://sketch.com -->
    <title>gamut-logo</title>
    <g id="Page-1" stroke="none" stroke-width="1" fill="none" fill-rule="evenodd">
        <g id="gamut-logo" fill="#10162F" fill-rule="nonzero">
            <g id="images">
                <g id="Group" transform="translate(137.500000, 109.000000) scale(-1, 1) rotate(-180.000000) translate(-137.500000, -109.000000) translate(0.000000, -0.000000)">
                    <path d="M0.426667806,218 C0.047407534,217.281206 -0.0790125566,167.170984 0.047407534,107.819124 C0.166874623,73.8560704 0.25647494,48.3837804 0.316208484,31.4022536 C0.340755,24.423975 0.377574774,13.9565572 0.426667806,-9.38777675e-14 L92.7133339,-9.38777675e-14 L185,-9.38777675e-14 L185,108.845973 L185,217.691945 L92.9661741,218 L0.426667806,218 Z M165,19 C165,19 116.722765,19 20.168296,19 C19.9439013,137.400783 19.9439013,196.665324 20.168296,196.793623 C20.4390094,197.068792 68.5950604,197.068792 164.636449,196.793623 C164.878816,78.2645411 165,19 165,19 Z" id="Shape"></path>
                    <polygon id="Path" points="202 8.96536797 202 -3.09869113e-07 238.5 -3.09869126e-07 274.669184 -3.09869113e-07 275 8.96536797 275 17.9307356 238.5 17.9307356 202 17.9307356"></polygon>
                </g>
            </g>
            <path d="M93.139999,188.880001 C82.699999,188.880001 73.039999,186.480001 64.159999,181.680001 C55.399999,176.760001 48.319999,169.440001 42.919999,159.720001 C37.639999,150 35,138.240001 35,124.440001 C35,110.640001 37.759999,98.940001 43.279999,89.340001 C48.799999,79.620001 56.119999,72.300001 65.239999,67.379991 C74.359999,62.460001 84.259999,60 94.939999,60 C108.5,60 119.779999,63.660001 128.779999,70.980001 C137.779999,78.180001 143.959999,87.780001 147.319999,99.780001 L125.899999,105.360001 C119.419999,89.520001 109.099999,81.600001 94.939999,81.600001 C84.259999,81.600001 75.559999,85.260001 68.839999,92.580001 C62.119999,99.780001 58.759999,110.400001 58.759999,124.440001 C58.759999,138.840001 62.059999,149.580001 68.659999,156.660001 C75.259999,163.740001 83.839999,167.280001 94.399999,167.280001 C102.919999,167.280001 109.519999,164.940001 114.199999,160.260001 C119,155.460001 121.819999,149.820001 122.659999,143.340001 L99.259999,143.340001 L99.259999,123.900001 L145.339999,123.900001 L145.339999,187.440001 L125.719999,187.440001 L123.739999,173.940001 C120.979999,178.260001 117.019999,181.860001 111.859999,184.740001 C106.819999,187.5 100.579999,188.880001 93.139999,188.880001 Z M227.417,188.44 C219.377,188.44 212.777,186.04 207.617,181.24 C202.457,176.44 199.877,169.66 199.877,160.9 C199.877,151.9 203.297,144.7 210.137,139.3 C216.977,133.9 226.217,131.2 237.857,131.2 L253.697,131.2 L253.697,127.24 C253.697,122.8 252.197,119.5 249.197,117.34 C246.197,115.06 242.417,113.92 237.857,113.92 C230.057,113.92 224.837,117.4 222.197,124.36 L203.297,120.04 C204.737,112.48 208.577,106.42 214.817,101.86 C221.177,97.18 228.857,94.84 237.857,94.84 C249.977,94.84 259.337,98.08 265.937,104.56 C272.657,110.92 276.017,120.34 276.017,132.82 L276.017,187 L257.657,187 L255.317,175.48 C248.237,184.12 238.937,188.44 227.417,188.44 Z M233.357,169.36 C238.757,169.36 243.497,167.68 247.577,164.32 C251.657,160.84 253.697,156.28 253.697,150.64 L253.697,148.84 L238.757,148.84 C233.837,148.84 229.997,149.8 227.237,151.72 C224.597,153.64 223.277,156.58 223.277,160.54 C223.277,163.18 224.177,165.34 225.977,167.02 C227.897,168.58 230.357,169.36 233.357,169.36 Z M321.096,96.28 L321.096,110.86 C324.576,105.58 328.356,101.62 332.436,98.98 C336.636,96.22 341.556,94.84 347.196,94.84 C353.076,94.84 358.296,96.4 362.856,99.52 C367.416,102.64 370.656,107.32 372.576,113.56 C375.816,107.68 379.836,103.12 384.636,99.88 C389.556,96.52 394.776,94.84 400.296,94.84 C408.696,94.84 415.296,97.3 420.096,102.22 C424.896,107.14 427.296,113.98 427.296,122.74 L427.296,187 L404.976,187 L404.976,126.52 C404.976,118.12 401.256,113.92 393.816,113.92 C388.056,113.92 383.316,117.16 379.596,123.64 C375.996,130.12 374.196,139.48 374.196,151.72 L374.196,187 L351.876,187 L351.876,126.52 C351.876,118.12 348.156,113.92 340.716,113.92 C334.956,113.92 330.216,117.34 326.496,124.18 C322.896,130.9 321.096,140.74 321.096,153.7 L321.096,187 L298.776,187 L298.776,96.28 L321.096,96.28 Z M480.309,188.44 C471.909,188.44 465.129,186.1 459.969,181.42 C454.929,176.74 452.409,169.96 452.409,161.08 L452.409,96.28 L474.729,96.28 L474.729,154.42 C474.729,159.58 475.869,163.36 478.149,165.76 C480.549,168.16 483.729,169.36 487.689,169.36 C491.409,169.36 494.829,167.92 497.949,165.04 C501.069,162.16 503.589,157.96 505.509,152.44 C507.429,146.8 508.389,140.14 508.389,132.46 L508.389,96.28 L530.709,96.28 L530.709,187 L508.389,187 L508.389,172.42 C504.909,177.34 500.769,181.24 495.969,184.12 C491.169,187 485.949,188.44 480.309,188.44 Z M592.304,188.44 C581.864,188.44 573.704,185.62 567.824,179.98 C561.944,174.34 559.004,166 559.004,154.96 L559.004,115.36 L544.964,115.36 L544.964,96.28 L559.004,96.28 L559.004,73.6 L581.324,59.559999 L581.324,96.28 L605.264,96.28 L605.264,115.36 L581.324,115.36 L581.324,154.6 C581.324,160 582.284,163.84 584.204,166.12 C586.244,168.28 589.244,169.36 593.204,169.36 C596.204,169.36 599.084,168.64 601.844,167.2 L607.064,185.2 C602.384,187.36 597.464,188.44 592.304,188.44 Z" id="Shape"></path>
        </g>
    </g>
</svg>
